{
	"asset":{
		"generator":"Khronos glTF Blender I/O v5.0.21",
		"version":"2.0"
	},
	"extensionsUsed":[
		"KHR_materials_emissive_strength"
	],
	"scene":0,
	"scenes":[
		{
			"name":"Scene",
			"nodes":[
				0
			]
		}
	],
	"nodes":[
		{
			"mesh":0,
			"name":"rowhouse",
			"scale":[
				1.1200000047683716,
				0.20000000298023224,
				1.0199999809265137
			],
			"translation":[
				0,
				0.10000000149011612,
				0
			]
		}
	],
	"materials":[
		{
			"doubleSided":true,
			"emissiveFactor":[
				1,
				1,
				1
			],
			"emissiveTexture":{
				"index":0
			},
			"extensions":{
				"KHR_materials_emissive_strength":{
					"emissiveStrength":2.200000047683716
				}
			},
			"name":"kit_atlas_mat",
			"pbrMetallicRoughness":{
				"baseColorTexture":{
					"index":1
				},
				"metallicFactor":0,
				"roughnessFactor":0.8999999761581421
			}
		}
	],
	"meshes":[
		{
			"name":"Cube.218",
			"primitives":[
				{
					"attributes":{
						"POSITION":0,
						"NORMAL":1,
						"TEXCOORD_0":2
					},
					"indices":3,
					"material":0
				}
			]
		}
	],
	"textures":[
		{
			"sampler":0,
			"source":0
		},
		{
			"sampler":0,
			"source":1
		}
	],
	"images":[
		{
			"mimeType":"image/png",
			"name":"atlas_emit",
			"uri":"atlas_emit.png"
		},
		{
			"mimeType":"image/png",
			"name":"atlas_color",
			"uri":"atlas_color.png"
		}
	],
	"accessors":[
		{
			"bufferView":0,
			"componentType":5126,
			"count":1568,
			"max":[
				0.8303570747375488,
				16.69999885559082,
				0.813725471496582
			],
			"min":[
				-0.5589285492897034,
				-0.5,
				-0.5
			],
			"type":"VEC3"
		},
		{
			"bufferView":1,
			"componentType":5126,
			"count":1568,
			"type":"VEC3"
		},
		{
			"bufferView":2,
			"componentType":5126,
			"count":1568,
			"type":"VEC2"
		},
		{
			"bufferView":3,
			"componentType":5123,
			"count":2184,
			"type":"SCALAR"
		}
	],
	"bufferViews":[
		{
			"buffer":0,
			"byteLength":18816,
			"byteOffset":0,
			"target":34962
		},
		{
			"buffer":0,
			"byteLength":18816,
			"byteOffset":18816,
			"target":34962
		},
		{
			"buffer":0,
			"byteLength":12544,
			"byteOffset":37632,
			"target":34962
		},
		{
			"buffer":0,
			"byteLength":4368,
			"byteOffset":50176,
			"target":34963
		}
	],
	"samplers":[
		{
			"magFilter":9728,
			"minFilter":9984
		}
	],
	"buffers":[
		{
			"byteLength":54544,
			"uri":"rowhouse.bin"
		}
	]
}
