{
	"asset":{
		"generator":"Khronos glTF Blender I/O v5.0.21",
		"version":"2.0"
	},
	"extensionsUsed":[
		"KHR_materials_emissive_strength"
	],
	"scene":0,
	"scenes":[
		{
			"name":"Scene",
			"nodes":[
				0
			]
		}
	],
	"nodes":[
		{
			"mesh":0,
			"name":"keep_dark",
			"scale":[
				1.5,
				2.5999999046325684,
				1.5
			]
		}
	],
	"materials":[
		{
			"doubleSided":true,
			"emissiveFactor":[
				1,
				1,
				1
			],
			"emissiveTexture":{
				"index":0
			},
			"extensions":{
				"KHR_materials_emissive_strength":{
					"emissiveStrength":1.600000023841858
				}
			},
			"name":"kit_atlas_mat",
			"pbrMetallicRoughness":{
				"baseColorTexture":{
					"index":1
				},
				"metallicFactor":0,
				"roughnessFactor":0.8999999761581421
			}
		}
	],
	"meshes":[
		{
			"name":"Cube.1763",
			"primitives":[
				{
					"attributes":{
						"POSITION":0,
						"NORMAL":1,
						"TEXCOORD_0":2
					},
					"indices":3,
					"material":0
				}
			]
		}
	],
	"textures":[
		{
			"sampler":0,
			"source":0
		},
		{
			"sampler":0,
			"source":1
		}
	],
	"images":[
		{
			"mimeType":"image/png",
			"name":"atlas_emit",
			"uri":"atlas_emit.png"
		},
		{
			"mimeType":"image/png",
			"name":"atlas_color",
			"uri":"atlas_color.png"
		}
	],
	"accessors":[
		{
			"bufferView":0,
			"componentType":5126,
			"count":5508,
			"max":[
				0.7847954034805298,
				1.576923131942749,
				0.7847954034805298
			],
			"min":[
				-0.7847954034805298,
				0,
				-0.7847954034805298
			],
			"type":"VEC3"
		},
		{
			"bufferView":1,
			"componentType":5126,
			"count":5508,
			"type":"VEC3"
		},
		{
			"bufferView":2,
			"componentType":5126,
			"count":5508,
			"type":"VEC2"
		},
		{
			"bufferView":3,
			"componentType":5123,
			"count":8628,
			"type":"SCALAR"
		}
	],
	"bufferViews":[
		{
			"buffer":0,
			"byteLength":66096,
			"byteOffset":0,
			"target":34962
		},
		{
			"buffer":0,
			"byteLength":66096,
			"byteOffset":66096,
			"target":34962
		},
		{
			"buffer":0,
			"byteLength":44064,
			"byteOffset":132192,
			"target":34962
		},
		{
			"buffer":0,
			"byteLength":17256,
			"byteOffset":176256,
			"target":34963
		}
	],
	"samplers":[
		{
			"magFilter":9728,
			"minFilter":9984
		}
	],
	"buffers":[
		{
			"byteLength":193512,
			"uri":"keep_dark.bin"
		}
	]
}
