{
  "accessors": [
    {
      "bufferView": 0,
      "byteOffset": 0,
      "componentType": 5126,
      "normalized": false,
      "count": 448,
      "type": "VEC3",
      "max": [
        0.4374062238083454,
        1.2699482000946603,
        0.12020814597916818
      ],
      "min": [
        -0.4341833410606952,
        0.0,
        -0.12020814597916818
      ]
    },
    {
      "bufferView": 1,
      "byteOffset": 0,
      "componentType": 5126,
      "normalized": false,
      "count": 448,
      "type": "VEC3"
    },
    {
      "bufferView": 2,
      "byteOffset": 0,
      "componentType": 5126,
      "normalized": false,
      "count": 448,
      "type": "VEC2"
    },
    {
      "bufferView": 3,
      "byteOffset": 0,
      "componentType": 5123,
      "normalized": false,
      "count": 648,
      "type": "SCALAR"
    }
  ],
  "asset": {
    "generator": "pygltflib@v1.16.5",
    "version": "2.0"
  },
  "bufferViews": [
    {
      "buffer": 0,
      "byteOffset": 0,
      "byteLength": 5376,
      "target": 34962
    },
    {
      "buffer": 0,
      "byteOffset": 5376,
      "byteLength": 5376,
      "target": 34962
    },
    {
      "buffer": 0,
      "byteOffset": 10752,
      "byteLength": 3584,
      "target": 34962
    },
    {
      "buffer": 0,
      "byteOffset": 14336,
      "byteLength": 1296,
      "target": 34963
    }
  ],
  "buffers": [
    {
      "uri": "portcullis.bin",
      "byteLength": 15632
    }
  ],
  "extensionsUsed": [
    "KHR_materials_emissive_strength"
  ],
  "images": [
    {
      "uri": "atlas_emit.png",
      "mimeType": "image/png",
      "name": "atlas_emit"
    },
    {
      "uri": "atlas_color.png",
      "mimeType": "image/png",
      "name": "atlas_color"
    }
  ],
  "materials": [
    {
      "extensions": {
        "KHR_materials_emissive_strength": {
          "emissiveStrength": 1.600000023841858
        }
      },
      "pbrMetallicRoughness": {
        "baseColorFactor": [
          1.0,
          1.0,
          1.0,
          1.0
        ],
        "metallicFactor": 0.0,
        "roughnessFactor": 0.8999999761581421,
        "baseColorTexture": {
          "index": 1,
          "texCoord": 0
        }
      },
      "emissiveFactor": [
        1.0,
        1.0,
        1.0
      ],
      "emissiveTexture": {
        "index": 0,
        "texCoord": 0
      },
      "alphaMode": "OPAQUE",
      "doubleSided": true,
      "name": "kit_atlas_mat"
    }
  ],
  "meshes": [
    {
      "primitives": [
        {
          "attributes": {
            "POSITION": 0,
            "NORMAL": 1,
            "TEXCOORD_0": 2
          },
          "indices": 3,
          "mode": 4,
          "material": 0
        }
      ],
      "name": "Cube.1004"
    }
  ],
  "nodes": [
    {
      "mesh": 0,
      "name": "portcullis"
    }
  ],
  "samplers": [
    {
      "magFilter": 9728,
      "minFilter": 9984,
      "wrapS": 10497,
      "wrapT": 10497
    }
  ],
  "scene": 0,
  "scenes": [
    {
      "name": "Scene",
      "nodes": [
        0
      ]
    }
  ],
  "textures": [
    {
      "sampler": 0,
      "source": 0
    },
    {
      "sampler": 0,
      "source": 1
    }
  ]
}