# Blender 5.0.1
# www.blender.org
mtllib blacksmith.mtl
o blacksmith
v -0.805448 -0.024310 0.948473
v -0.805311 0.175621 0.953706
v -0.854120 0.024379 -0.910253
v -0.853983 0.224310 -0.905019
v 0.853983 -0.024310 0.905019
v 0.854120 0.175621 0.910253
v 0.805311 0.024379 -0.953706
v 0.805448 0.224310 -0.948473
v -0.727432 0.177715 0.871667
v -0.726815 1.077407 0.895218
v -0.771917 0.222216 -0.827168
v -0.771301 1.121908 -0.803617
v 0.772054 0.177715 0.832402
v 0.772671 1.077407 0.855953
v 0.727569 0.222216 -0.866433
v 0.728185 1.121908 -0.842882
v -0.655886 0.176145 0.929794
v -0.655269 1.075836 0.953345
v -0.656932 0.177192 0.889821
v -0.656316 1.076883 0.913372
v -0.595906 0.176145 0.928223
v -0.595290 1.075836 0.951774
v -0.596953 0.177192 0.888250
v -0.596336 1.076883 0.911802
v -0.006108 0.176145 0.912778
v -0.005492 1.075836 0.936330
v -0.007155 0.177192 0.872806
v -0.006538 1.076883 0.896357
v 0.053871 0.176145 0.911208
v 0.054488 1.075836 0.934759
v 0.052824 0.177192 0.871235
v 0.053441 1.076883 0.894787
v 0.643669 0.176145 0.895764
v 0.644286 1.075836 0.919315
v 0.642622 0.177192 0.855791
v 0.643239 1.076883 0.879342
v 0.703648 0.176145 0.894193
v 0.704265 1.075836 0.917744
v 0.702602 0.177192 0.854220
v 0.703218 1.076883 0.877771
v -0.725848 0.196138 0.932149
v -0.725807 0.256117 0.933719
v -0.726895 0.197185 0.892177
v -0.726854 0.257164 0.893747
v 0.773638 0.196138 0.892884
v 0.773679 0.256117 0.894454
v 0.772591 0.197185 0.852911
v 0.772632 0.257164 0.854481
v -0.725300 0.995864 0.953084
v -0.725259 1.055843 0.954654
v -0.726346 0.996911 0.913111
v -0.726305 1.056890 0.914681
v 0.774186 0.995864 0.913818
v 0.774227 1.055843 0.915388
v 0.773140 0.996911 0.873846
v 0.773181 1.056890 0.875416
v -0.234400 0.338291 0.923004
v -0.548918 0.883700 0.945527
v -0.235446 0.339338 0.883031
v -0.549965 0.884747 0.905554
v -0.182435 0.368281 0.922429
v -0.496954 0.913690 0.944952
v -0.183482 0.369328 0.882456
v -0.498000 0.914737 0.904979
v 0.230462 0.368281 0.911617
v 0.545727 0.913690 0.917648
v 0.229415 0.369328 0.871644
v 0.544681 0.914737 0.877676
v 0.282385 0.338291 0.909471
v 0.597651 0.883700 0.915503
v 0.281338 0.339338 0.869499
v 0.596604 0.884747 0.875530
v -0.757421 0.177715 0.872452
v -0.756805 1.077407 0.896004
v -0.801907 0.222216 -0.826383
v -0.801290 1.121908 -0.802832
v -0.697442 0.177715 0.870882
v -0.696825 1.077407 0.894433
v -0.741928 0.222216 -0.827953
v -0.741311 1.121908 -0.804402
v 0.742065 0.177715 0.833187
v 0.742681 1.077407 0.856738
v 0.697579 0.222216 -0.865648
v 0.698196 1.121908 -0.842097
v 0.802044 0.177715 0.831616
v 0.802661 1.077407 0.855168
v 0.757558 0.222216 -0.867219
v 0.758175 1.121908 -0.843668
v -0.921513 1.072172 1.100317
v 0.977836 1.072172 1.050580
v 0.028847 2.071829 1.101616
v -0.976466 1.127143 -0.998244
v 0.922883 1.127143 -1.047981
v -0.026106 2.126801 -0.996944
v -0.019862 2.020537 1.151583
v -0.019793 2.120503 1.154199
v -0.077431 2.078126 -1.046910
v -0.077363 2.178092 -1.044293
v 0.080104 2.020537 1.148965
v 0.080172 2.120503 1.151582
v 0.022534 2.078126 -1.049528
v 0.022603 2.178092 -1.046911
v -0.985586 0.941197 0.778344
v -1.024109 0.987143 0.780556
v -0.987156 0.942767 0.718385
v -1.025679 0.988714 0.720598
v -0.755719 1.133967 0.777374
v -0.794242 1.179914 0.779587
v -0.757289 1.135537 0.717416
v -0.795812 1.181484 0.719628
v -0.998670 0.954285 0.278687
v -1.037193 1.000232 0.280899
v -1.000240 0.955856 0.218728
v -1.038763 1.001802 0.220940
v -0.768803 1.147055 0.277717
v -0.807326 1.193002 0.279929
v -0.770373 1.148626 0.217758
v -0.808896 1.194573 0.219970
v -1.011754 0.967373 -0.220971
v -1.050277 1.013320 -0.218758
v -1.013324 0.968944 -0.280930
v -1.051847 1.014891 -0.278717
v -0.781887 1.160144 -0.221940
v -0.820410 1.206091 -0.219728
v -0.783457 1.161714 -0.281899
v -0.821980 1.207661 -0.279687
v -1.024838 0.980462 -0.720628
v -1.063361 1.026409 -0.718416
v -1.026408 0.982033 -0.780587
v -1.064931 1.027979 -0.778375
v -0.794971 1.173232 -0.721598
v -0.833494 1.219179 -0.719385
v -0.796541 1.174803 -0.781557
v -0.835064 1.220750 -0.779344
v -0.774826 0.953351 0.985136
v -0.732401 1.226744 0.849650
v -0.707487 1.011159 1.076371
v -0.717437 1.239590 0.869924
v -0.812736 1.070423 1.116502
v -0.740825 1.252759 0.878842
v -0.880074 1.012615 1.025267
v -0.755789 1.239913 0.858568
v 0.795368 1.133967 0.736758
v 0.833954 1.179914 0.736951
v 0.793798 1.135537 0.676799
v 0.832384 1.181484 0.676992
v 1.024971 0.941197 0.725696
v 1.063556 0.987143 0.725889
v 1.023401 0.942767 0.665737
v 1.061986 0.988714 0.665930
v 0.782284 1.147055 0.237100
v 0.820870 1.193002 0.237294
v 0.780714 1.148626 0.177141
v 0.819300 1.194573 0.177335
v 1.011887 0.954285 0.226038
v 1.050472 1.000232 0.226232
v 1.010317 0.955856 0.166080
v 1.048902 1.001802 0.166273
v 0.769200 1.160144 -0.262557
v 0.807786 1.206091 -0.262364
v 0.767630 1.161714 -0.322516
v 0.806216 1.207661 -0.322323
v 0.998803 0.967373 -0.273619
v 1.037388 1.013320 -0.273426
v 0.997233 0.968944 -0.333578
v 1.035818 1.014891 -0.333385
v 0.756116 1.173232 -0.762214
v 0.794702 1.219179 -0.762021
v 0.754546 1.174803 -0.822173
v 0.793132 1.220750 -0.821980
v 0.985719 0.980462 -0.773276
v 1.024304 1.026409 -0.773083
v 0.984149 0.982033 -0.833235
v 1.022734 1.027979 -0.833042
v 0.825322 0.953351 0.943235
v 0.775864 1.226744 0.810154
v 0.932526 1.012615 0.977803
v 0.799688 1.239913 0.817836
v 0.870055 1.070423 1.072437
v 0.785805 1.252759 0.838866
v 0.762851 1.011159 1.037869
v 0.761982 1.239590 0.831184
v -0.115219 1.485745 1.330201
v -0.115082 1.685677 1.335435
v -0.122546 1.493075 1.050393
v -0.122409 1.693006 1.055627
v 0.184678 1.485745 1.322348
v 0.184815 1.685677 1.327582
v 0.177351 1.493075 1.042540
v 0.177488 1.693006 1.047773
v -0.051603 1.442094 1.467488
v -0.051507 1.582046 1.471151
v -0.056314 1.446806 1.287611
v -0.056218 1.586758 1.291275
v 0.128335 1.442094 1.462776
v 0.128431 1.582046 1.466440
v 0.123625 1.446806 1.282899
v 0.123721 1.586758 1.286563
v -0.092017 1.568565 1.375793
v -0.091957 1.656534 1.378096
v -0.094111 1.570659 1.295848
v -0.094051 1.658628 1.298151
v -0.004048 1.568565 1.373490
v -0.003987 1.656534 1.375793
v -0.006141 1.570659 1.293545
v -0.006081 1.658628 1.295847
v -0.013868 1.671409 1.183666
v 0.009134 1.697386 1.207897
v -0.006116 1.695417 1.247326
v -0.038543 1.668223 1.247462
v -0.043334 1.653385 1.208119
v -0.207336 1.901974 1.157100
v 0.075925 1.568565 1.371395
v 0.075985 1.656534 1.373698
v 0.073832 1.570659 1.291450
v 0.073892 1.658628 1.293753
v 0.163895 1.568565 1.369092
v 0.163955 1.656534 1.371395
v 0.161801 1.570659 1.289147
v 0.161862 1.658628 1.291450
v 0.075797 1.671409 1.181318
v 0.106502 1.653385 1.204195
v 0.103777 1.668223 1.243736
v 0.071388 1.695417 1.245296
v 0.054095 1.697386 1.206720
v 0.267610 1.901974 1.144663
v -0.660443 0.155702 1.519782
v -0.659861 1.005411 1.542025
v -0.663060 0.158320 1.419851
v -0.662477 1.008028 1.442093
v -0.560477 0.155702 1.517164
v -0.559895 1.005411 1.539407
v -0.563094 0.158320 1.417233
v -0.562512 1.008028 1.439476
v 0.639111 0.155702 1.485752
v 0.639694 1.005411 1.507995
v 0.636495 0.158320 1.385821
v 0.637077 1.008028 1.408063
v 0.739077 0.155702 1.483134
v 0.739660 1.005411 1.505377
v 0.736460 0.158320 1.383203
v 0.737043 1.008028 1.405446
v -0.805500 1.176872 1.710502
v -0.805894 1.234961 1.695484
v -0.829323 0.941515 0.800755
v -0.829716 0.999604 0.785737
v 0.893917 1.176872 1.666001
v 0.893524 1.234961 1.650983
v 0.870095 0.941515 0.756254
v 0.869701 0.999604 0.741236
v -0.611215 0.166459 1.298624
v -0.610873 0.666288 1.311708
v -0.622206 0.177454 0.878912
v -0.621863 0.677282 0.891996
v -0.161370 0.166459 1.286844
v -0.161027 0.666288 1.299928
v -0.172360 0.177454 0.867132
v -0.172018 0.677282 0.880216
v -0.552475 0.302747 1.440752
v -0.552256 0.622637 1.449125
v -0.560325 0.310600 1.140957
v -0.560106 0.630490 1.149331
v -0.212591 0.302747 1.431851
v -0.212372 0.622637 1.440225
v -0.220442 0.310600 1.132057
v -0.220222 0.630490 1.140431
v 0.452373 0.167506 1.230773
v 0.452565 0.447410 1.238100
v 0.545262 0.166510 1.266417
v 0.545454 0.446414 1.273744
v 0.585730 0.164103 1.357281
v 0.585922 0.444007 1.364608
v 0.550073 0.161697 1.450138
v 0.550264 0.441601 1.457465
v 0.459177 0.160700 1.490595
v 0.459368 0.440604 1.497922
v 0.366288 0.161697 1.454951
v 0.366480 0.441601 1.462278
v 0.325819 0.164103 1.364087
v 0.326011 0.444007 1.371414
v 0.361477 0.166510 1.271229
v 0.361669 0.446414 1.278556
v 0.398077 0.436915 1.449396
v 0.398139 0.526884 1.451751
v 0.393890 0.441103 1.289505
v 0.393952 0.531072 1.291860
v 0.518036 0.436915 1.446254
v 0.518098 0.526884 1.448610
v 0.513849 0.441103 1.286364
v 0.513911 0.531072 1.288719
v 0.381544 0.518483 1.582054
v 0.381613 0.618449 1.584671
v 0.370554 0.529477 1.162342
v 0.370622 0.629443 1.164959
v 0.541489 0.518483 1.577866
v 0.541558 0.618449 1.580483
v 0.530499 0.529477 1.158154
v 0.530567 0.629443 1.160771
v 0.461096 0.668955 1.563899
v 0.530327 0.628969 1.561039
v 0.530272 0.548996 1.558945
v 0.460986 0.509010 1.559712
v 0.391756 0.548996 1.562572
v 0.391810 0.628969 1.564666
v 0.466798 0.583223 1.781655
v 0.371194 0.508830 1.186802
v 0.371304 0.668775 1.190989
v 0.368316 0.511709 1.076877
v 0.368425 0.671654 1.081064
v 0.531139 0.508830 1.182613
v 0.531249 0.668775 1.186800
v 0.528261 0.511709 1.072689
v 0.528370 0.671654 1.076876
v 0.566770 0.532193 1.301731
v 0.570154 0.780556 1.430976
v 0.565957 0.548355 1.270696
v 0.569341 0.796718 1.399942
v 0.601758 0.532193 1.300815
v 0.605142 0.780556 1.430060
v 0.600945 0.548355 1.269780
v 0.604329 0.796718 1.399026
v 0.594559 0.785486 1.503416
v 0.594607 0.855462 1.505247
v 0.590372 0.789675 1.343525
v 0.590420 0.859651 1.345357
v 0.664535 0.785486 1.501583
v 0.664583 0.855462 1.503415
v 0.660348 0.789675 1.341693
v 0.660396 0.859651 1.343525
v -0.925719 0.016002 -0.588378
v -0.924143 2.315214 -0.528191
v -0.771648 0.014702 -0.542757
v -0.770072 2.313914 -0.482570
v -0.673828 0.011299 -0.415318
v -0.672252 2.310511 -0.355132
v -0.669623 0.007093 -0.254739
v -0.668047 2.306305 -0.194553
v -0.760639 0.003690 -0.122356
v -0.759063 2.302902 -0.062170
v -0.912112 0.002390 -0.068734
v -0.910536 2.301602 -0.008548
v -1.066183 0.003690 -0.114355
v -1.064607 2.302902 -0.054169
v -1.164003 0.007093 -0.241794
v -1.162427 2.306305 -0.181607
v -1.168208 0.011299 -0.402372
v -1.166632 2.310511 -0.342186
v -1.077192 0.014702 -0.534756
v -1.075616 2.313914 -0.474569
v -0.925518 0.691033 -0.580708
v -0.925484 0.741016 -0.579399
v -0.765521 0.689683 -0.533332
v -0.765487 0.739666 -0.532023
v -0.663939 0.686149 -0.400992
v -0.663905 0.736132 -0.399683
v -0.659572 0.681781 -0.234237
v -0.659538 0.731764 -0.232929
v -0.754089 0.678247 -0.096762
v -0.754055 0.728230 -0.095454
v -0.911388 0.676897 -0.041078
v -0.911353 0.726880 -0.039769
v -1.071385 0.678247 -0.088453
v -1.071350 0.728230 -0.087145
v -1.172967 0.681781 -0.220793
v -1.172933 0.731764 -0.219485
v -1.177333 0.686149 -0.387548
v -1.177299 0.736132 -0.386240
v -1.082817 0.689683 -0.525023
v -1.082782 0.739666 -0.523715
v -0.925039 1.390793 -0.562390
v -0.925004 1.440776 -0.561082
v -0.765042 1.389443 -0.515014
v -0.765007 1.439426 -0.513706
v -0.663459 1.385909 -0.382674
v -0.663425 1.435892 -0.381366
v -0.659093 1.381541 -0.215919
v -0.659058 1.431524 -0.214611
v -0.753610 1.378007 -0.078444
v -0.753575 1.427990 -0.077136
v -0.910908 1.376657 -0.022760
v -0.910874 1.426640 -0.021452
v -1.070905 1.378007 -0.070136
v -1.070871 1.427990 -0.068827
v -1.172487 1.381541 -0.202476
v -1.172453 1.431524 -0.201167
v -1.176854 1.385909 -0.369231
v -1.176820 1.435892 -0.367922
v -1.082337 1.389443 -0.506706
v -1.082303 1.439426 -0.505397
v -0.923117 2.284177 -0.489004
v -0.923007 2.444122 -0.484817
v -0.792749 2.283077 -0.450401
v -0.792639 2.443022 -0.446215
v -0.709978 2.280198 -0.342569
v -0.709869 2.440143 -0.338382
v -0.706420 2.276639 -0.206695
v -0.706311 2.436584 -0.202508
v -0.783434 2.273759 -0.094678
v -0.783325 2.433704 -0.090491
v -0.911603 2.272659 -0.049305
v -0.911493 2.432604 -0.045118
v -1.041971 2.273759 -0.087908
v -1.041861 2.433704 -0.083721
v -1.124742 2.276639 -0.195740
v -1.124632 2.436584 -0.191554
v -1.128300 2.280198 -0.331615
v -1.128190 2.440143 -0.327428
v -1.051286 2.283077 -0.443631
v -1.051176 2.443022 -0.439444
v -0.917326 2.328401 -0.267846
v -0.821452 2.398450 -0.200131
v -0.950300 2.397344 -0.154518
v -1.033512 2.400239 -0.262922
v -0.956088 2.403133 -0.375533
v -0.825029 2.402028 -0.336725
v -0.878385 2.513580 -0.153356
v -1.009444 2.514686 -0.192164
v -1.013021 2.518264 -0.328757
v -0.884173 2.519369 -0.374371
v -0.800961 2.516475 -0.265967
v -0.917148 2.588312 -0.261043
v -0.847755 2.500866 -0.285164
v -0.768107 2.559060 -0.228909
v -0.875150 2.558141 -0.191014
v -0.944279 2.560546 -0.281073
v -0.879958 2.562951 -0.374627
v -0.771078 2.562032 -0.342386
v -0.815405 2.654706 -0.190049
v -0.924284 2.655625 -0.222289
v -0.927256 2.658598 -0.335767
v -0.820213 2.659516 -0.373662
v -0.751083 2.657111 -0.283603
v -0.847607 2.716792 -0.279512
v -0.778185 2.673330 -0.302482
v -0.714761 2.719670 -0.257686
v -0.799999 2.718939 -0.227511
v -0.855046 2.720854 -0.299224
v -0.803827 2.722769 -0.373720
v -0.717127 2.722037 -0.348048
v -0.752424 2.795833 -0.226742
v -0.839125 2.796565 -0.252415
v -0.841491 2.798932 -0.342777
v -0.756253 2.799663 -0.372952
v -0.701205 2.797748 -0.301238
v -0.778067 2.845272 -0.297981
v -0.708614 2.845795 -0.319800
v -0.661415 2.880280 -0.286463
v -0.724848 2.879736 -0.264007
v -0.765814 2.881161 -0.317375
v -0.727697 2.882586 -0.372814
v -0.663176 2.882042 -0.353709
v -0.689444 2.936960 -0.263435
v -0.753965 2.937504 -0.282541
v -0.755726 2.939266 -0.349787
v -0.692293 2.939810 -0.372243
v -0.651327 2.938385 -0.318874
v -0.708527 2.973751 -0.316450
v -0.889640 1.460418 0.789433
v -0.888593 1.459371 0.829405
v -0.799687 1.436311 0.786446
v -0.798641 1.435264 0.826418
v -0.733870 1.370449 0.782997
v -0.732824 1.369402 0.822969
v -0.709825 1.280480 0.780011
v -0.708778 1.279433 0.819983
v -0.733994 1.190511 0.778287
v -0.732947 1.189463 0.818259
v -0.799901 1.124649 0.778287
v -0.798854 1.123601 0.818260
v -0.889887 1.100541 0.780012
v -0.888840 1.099494 0.819985
v -0.979839 1.124649 0.782999
v -0.978793 1.123601 0.822972
v -1.045656 1.190511 0.786448
v -1.044609 1.189463 0.826420
v -1.069702 1.280480 0.789434
v -1.068655 1.279433 0.829407
v -1.045533 1.370449 0.791158
v -1.044486 1.369402 0.831131
v -0.979626 1.436311 0.791157
v -0.978579 1.435264 0.831130
v -0.889260 1.442032 0.803951
v -0.887951 1.440723 0.853917
v -0.808302 1.420335 0.801263
v -0.806994 1.419026 0.851229
v -0.749067 1.361059 0.798159
v -0.747759 1.359750 0.848125
v -0.727426 1.280087 0.795471
v -0.726118 1.278778 0.845437
v -0.749178 1.199115 0.793920
v -0.747870 1.197806 0.843886
v -0.808495 1.139839 0.793920
v -0.807186 1.138530 0.843886
v -0.889482 1.118143 0.795473
v -0.888173 1.116834 0.845439
v -0.970439 1.139839 0.798161
v -0.969131 1.138530 0.848127
v -1.029674 1.199115 0.801265
v -1.028366 1.197806 0.851231
v -1.051315 1.280087 0.803953
v -1.050007 1.278778 0.853918
v -1.029563 1.361059 0.805504
v -1.028255 1.359750 0.855470
v -0.970247 1.420335 0.805504
v -0.968938 1.419026 0.855469
v -1.040373 1.253132 0.878012
v -1.040339 1.303115 0.879320
v -1.041420 1.254179 0.838039
v -1.041385 1.304162 0.839347
v -0.734478 1.253132 0.870001
v -0.734443 1.303115 0.871310
v -0.735524 1.254179 0.830029
v -0.735490 1.304162 0.831337
v -0.912504 1.125176 0.871311
v -0.912295 1.431071 0.879319
v -0.913551 1.126223 0.831339
v -0.913342 1.432118 0.839346
v -0.862522 1.125176 0.870003
v -0.862312 1.431071 0.878010
v -0.863568 1.126223 0.830030
v -0.863359 1.432118 0.838037
v -0.888556 1.322487 0.830822
v -0.886724 1.320655 0.900774
v -0.851171 1.300894 0.829277
v -0.849340 1.299062 0.899229
v -0.851201 1.257709 0.828147
v -0.849369 1.255877 0.898099
v -0.888615 1.236117 0.828561
v -0.886784 1.234284 0.898513
v -0.926000 1.257709 0.830106
v -0.924168 1.255877 0.900058
v -0.925970 1.300894 0.831236
v -0.924139 1.299062 0.901188
v 0.472692 0.957448 0.860666
v 0.473738 0.956401 0.900638
v 0.552649 0.936019 0.858011
v 0.553696 0.934972 0.897983
v 0.611153 0.877476 0.854945
v 0.612200 0.876428 0.894918
v 0.632527 0.797503 0.852291
v 0.633574 0.796456 0.892263
v 0.611044 0.717530 0.850758
v 0.612090 0.716483 0.890731
v 0.552460 0.658986 0.850759
v 0.553506 0.657939 0.890731
v 0.472472 0.637558 0.852292
v 0.473519 0.636511 0.892265
v 0.392514 0.658986 0.854947
v 0.393561 0.657939 0.894920
v 0.334011 0.717530 0.858013
v 0.335057 0.716483 0.897985
v 0.312637 0.797503 0.860667
v 0.313684 0.796456 0.900640
v 0.334120 0.877476 0.862200
v 0.335167 0.876428 0.902172
v 0.392704 0.936019 0.862199
v 0.393751 0.934972 0.902172
v 0.473073 0.941061 0.875237
v 0.474382 0.939752 0.925203
v 0.545035 0.921775 0.872847
v 0.546344 0.920466 0.922813
v 0.597689 0.869086 0.870088
v 0.598997 0.867777 0.920054
v 0.616925 0.797110 0.867699
v 0.618234 0.795801 0.917665
v 0.597590 0.725135 0.866320
v 0.598898 0.723826 0.916286
v 0.544864 0.672445 0.866320
v 0.546173 0.671136 0.916286
v 0.472876 0.653160 0.867700
v 0.474184 0.651851 0.917666
v 0.400914 0.672445 0.870090
v 0.402222 0.671136 0.920056
v 0.348260 0.725135 0.872849
v 0.349569 0.723826 0.922815
v 0.329024 0.797110 0.875238
v 0.330332 0.795801 0.925204
v 0.348359 0.869086 0.876617
v 0.349667 0.867777 0.926583
v 0.401085 0.921775 0.876617
v 0.402393 0.920466 0.926582
v 0.338967 0.770156 0.949323
v 0.339001 0.820138 0.950631
v 0.337920 0.771203 0.909351
v 0.337954 0.821185 0.910659
v 0.610873 0.770156 0.942203
v 0.610908 0.820138 0.943511
v 0.609827 0.771203 0.902230
v 0.609861 0.821185 0.903539
v 0.449852 0.659194 0.943513
v 0.450039 0.931100 0.950630
v 0.448806 0.660241 0.903540
v 0.448992 0.932147 0.910658
v 0.499835 0.659194 0.942204
v 0.500022 0.931100 0.949322
v 0.498789 0.660241 0.902231
v 0.498975 0.932147 0.909349
v 0.473786 0.834712 0.902453
v 0.475618 0.832879 0.972405
v 0.507017 0.815518 0.901080
v 0.508848 0.813686 0.971032
v 0.506990 0.777131 0.900075
v 0.508822 0.775299 0.970027
v 0.473733 0.757938 0.900443
v 0.475565 0.756106 0.970395
v 0.440502 0.777131 0.901816
v 0.442334 0.775299 0.971768
v 0.440529 0.815518 0.902821
v 0.442360 0.813686 0.972773
v -0.476610 0.737000 0.899763
v -0.402861 0.790883 0.951852
v -0.501975 0.790033 0.986939
v -0.565984 0.792260 0.903551
v -0.506427 0.794486 0.816927
v -0.405613 0.793636 0.846780
v -0.446656 0.879445 0.987832
v -0.547471 0.880296 0.957980
v -0.550222 0.883048 0.852908
v -0.451108 0.883899 0.817821
v -0.387099 0.881672 0.901209
v -0.476473 0.936931 0.904997
v -0.549631 0.722541 0.976348
v -0.549552 0.837502 0.979357
v -0.552247 0.725159 0.876416
v -0.552169 0.840119 0.879426
v -0.399682 0.722541 0.972421
v -0.399603 0.837502 0.975431
v -0.402299 0.725159 0.872490
v -0.402220 0.840119 0.875499
v -0.534451 0.704851 0.982992
v -0.534417 0.754834 0.984301
v -0.536676 0.707076 0.898050
v -0.536641 0.757059 0.899359
v -0.414493 0.704851 0.979851
v -0.414458 0.754834 0.981159
v -0.416717 0.707076 0.894909
v -0.416683 0.757059 0.896218
v -0.536962 0.786391 1.001705
v -0.536935 0.826377 1.002752
v -0.538061 0.787490 0.959734
v -0.538034 0.827476 0.960781
v -0.494977 0.786391 1.000606
v -0.494949 0.826377 1.001652
v -0.496076 0.787490 0.958635
v -0.496048 0.827476 0.959681
v -0.452991 0.786391 0.999506
v -0.452964 0.826377 1.000553
v -0.454090 0.787490 0.957535
v -0.454063 0.827476 0.958582
v -0.411006 0.786391 0.998407
v -0.410978 0.826377 0.999454
v -0.412105 0.787490 0.956436
v -0.412077 0.827476 0.957482
v -0.486003 0.752402 0.999480
v -0.485981 0.784391 1.000318
v -0.486893 0.753292 0.965504
v -0.486871 0.785281 0.966341
v -0.462011 0.752402 0.998852
v -0.461989 0.784391 0.999690
v -0.462901 0.753292 0.964876
v -0.462879 0.785281 0.965713
v -0.521756 0.709653 0.990291
v -0.521729 0.749639 0.991337
v -0.522279 0.710176 0.970304
v -0.522252 0.750162 0.971351
v -0.516758 0.709653 0.990160
v -0.516730 0.749639 0.991206
v -0.517281 0.710176 0.970173
v -0.517254 0.750162 0.971220
v -0.491766 0.709653 0.989505
v -0.491739 0.749639 0.990552
v -0.492290 0.710176 0.969519
v -0.492262 0.750162 0.970566
v -0.486768 0.709653 0.989374
v -0.486741 0.749639 0.990421
v -0.487291 0.710176 0.969388
v -0.487264 0.750162 0.970435
v -0.461777 0.709653 0.988720
v -0.461749 0.749639 0.989767
v -0.462300 0.710176 0.968734
v -0.462273 0.750162 0.969780
v -0.456778 0.709653 0.988589
v -0.456751 0.749639 0.989636
v -0.457302 0.710176 0.968603
v -0.457274 0.750162 0.969650
v -0.431787 0.709653 0.987935
v -0.431759 0.749639 0.988981
v -0.432310 0.710176 0.967948
v -0.432283 0.750162 0.968995
v -0.426789 0.709653 0.987804
v -0.426761 0.749639 0.988850
v -0.427312 0.710176 0.967817
v -0.427284 0.750162 0.968864
v 0.768008 0.701938 0.295862
v 0.834382 0.750433 0.342742
v 0.745179 0.749668 0.374321
v 0.687571 0.751672 0.299271
v 0.741173 0.753676 0.221310
v 0.831906 0.752910 0.248177
v 0.794967 0.830139 0.375125
v 0.704234 0.830904 0.348258
v 0.701757 0.833381 0.253693
v 0.790960 0.834147 0.222114
v 0.848568 0.832143 0.297164
v 0.768131 0.881876 0.300573
v 0.702290 0.688925 0.364789
v 0.702361 0.792389 0.367497
v 0.699935 0.691281 0.274850
v 0.700005 0.794745 0.277559
v 0.837243 0.688925 0.361255
v 0.837314 0.792389 0.363963
v 0.834888 0.691281 0.271316
v 0.834959 0.794745 0.274025
v 0.715951 0.673004 0.370769
v 0.715982 0.717988 0.371946
v 0.713949 0.675006 0.294321
v 0.713980 0.719991 0.295499
v 0.823914 0.673004 0.367941
v 0.823945 0.717988 0.369119
v 0.821912 0.675006 0.291494
v 0.821943 0.719991 0.292671
v 0.713691 0.746390 0.387610
v 0.713716 0.782377 0.388552
v 0.712702 0.747379 0.349836
v 0.712727 0.783367 0.350778
v 0.751478 0.746390 0.386621
v 0.751503 0.782377 0.387563
v 0.750489 0.747379 0.348847
v 0.750514 0.783367 0.349789
v 0.789265 0.746390 0.385631
v 0.789290 0.782377 0.386573
v 0.788276 0.747379 0.347857
v 0.788301 0.783367 0.348799
v 0.827052 0.746390 0.384642
v 0.827077 0.782377 0.385584
v 0.826063 0.747379 0.346868
v 0.826088 0.783367 0.347810
v 0.759554 0.715800 0.385608
v 0.759574 0.744590 0.386362
v 0.758754 0.716601 0.355029
v 0.758773 0.745391 0.355783
v 0.781147 0.715800 0.385043
v 0.781167 0.744590 0.385796
v 0.780346 0.716601 0.354464
v 0.780366 0.745391 0.355217
v 0.727377 0.677325 0.377337
v 0.727401 0.713313 0.378279
v 0.726906 0.677797 0.359350
v 0.726930 0.713784 0.360292
v 0.731875 0.677325 0.377219
v 0.731900 0.713313 0.378161
v 0.731404 0.677797 0.359232
v 0.731429 0.713784 0.360174
v 0.754368 0.677325 0.376630
v 0.754392 0.713313 0.377572
v 0.753897 0.677797 0.358643
v 0.753921 0.713784 0.359585
v 0.758866 0.677325 0.376513
v 0.758891 0.713313 0.377455
v 0.758395 0.677797 0.358525
v 0.758420 0.713784 0.359467
v 0.781358 0.677325 0.375924
v 0.781383 0.713313 0.376866
v 0.780887 0.677797 0.357936
v 0.780912 0.713784 0.358878
v 0.785857 0.677325 0.375806
v 0.785881 0.713313 0.376748
v 0.785386 0.677797 0.357818
v 0.785410 0.713784 0.358760
v 0.808349 0.677325 0.375217
v 0.808374 0.713313 0.376159
v 0.807878 0.677797 0.357229
v 0.807903 0.713784 0.358171
v 0.812847 0.677325 0.375099
v 0.812872 0.713313 0.376041
v 0.812376 0.677797 0.357111
v 0.812401 0.713784 0.358053
v -0.735420 -0.039362 1.521639
v -0.734872 0.760364 1.542573
v -0.736729 -0.038053 1.471673
v -0.736180 0.761673 1.492608
v -0.685437 -0.039362 1.520330
v -0.684889 0.760364 1.541265
v -0.686746 -0.038053 1.470364
v -0.686198 0.761673 1.491299
v -0.742224 -0.032556 1.261817
v -0.741676 0.767170 1.282752
v -0.743532 -0.031247 1.211852
v -0.742984 0.768479 1.232786
v -0.692241 -0.032556 1.260508
v -0.691693 0.767170 1.281443
v -0.693549 -0.031247 1.210543
v -0.693001 0.768479 1.231477
v -0.475509 -0.039362 1.514833
v -0.474961 0.760364 1.535767
v -0.476818 -0.038053 1.464867
v -0.476269 0.761673 1.485802
v -0.425526 -0.039362 1.513524
v -0.424978 0.760364 1.534459
v -0.426835 -0.038053 1.463559
v -0.426287 0.761673 1.484493
v -0.482313 -0.032556 1.255011
v -0.481765 0.767170 1.275946
v -0.483621 -0.031247 1.205046
v -0.483073 0.768479 1.225980
v -0.432330 -0.032556 1.253702
v -0.431782 0.767170 1.274637
v -0.433638 -0.031247 1.203737
v -0.433090 0.768479 1.224671
v -0.589215 0.769657 1.183759
v -0.589050 1.009574 1.190040
v -0.446309 0.768123 1.238596
v -0.446144 1.008041 1.244876
v -0.384050 0.764421 1.378387
v -0.383885 1.004339 1.384667
v -0.438908 0.760719 1.521245
v -0.438743 1.000637 1.527525
v -0.578748 0.759186 1.583485
v -0.578583 0.999104 1.589766
v -0.721653 0.760719 1.528649
v -0.721489 1.000637 1.534929
v -0.783913 0.764421 1.388858
v -0.783748 1.004339 1.395138
v -0.729055 0.768123 1.246000
v -0.728890 1.008041 1.252280
v -0.588034 0.963543 1.228835
v -0.588000 1.013526 1.230143
v -0.473710 0.962316 1.272704
v -0.473675 1.012299 1.274012
v -0.423902 0.959354 1.384537
v -0.423868 1.009337 1.385845
v -0.467789 0.956393 1.498823
v -0.467754 1.006376 1.500131
v -0.579661 0.955166 1.548615
v -0.579626 1.005149 1.549924
v -0.693985 0.956393 1.504746
v -0.693951 1.006376 1.506055
v -0.743793 0.959354 1.392913
v -0.743758 1.009337 1.394222
v -0.699906 0.962316 1.278627
v -0.699872 1.012299 1.279935
v 0.752794 0.166983 1.242906
v 0.753013 0.486873 1.251280
v 0.835755 0.166283 1.267471
v 0.835974 0.486173 1.275845
v 0.888427 0.164451 1.336092
v 0.888646 0.484341 1.344466
v 0.890691 0.162186 1.422557
v 0.890911 0.482076 1.430931
v 0.841683 0.160353 1.493841
v 0.841902 0.480243 1.502214
v 0.760121 0.159653 1.522714
v 0.760340 0.479544 1.531088
v 0.677159 0.160353 1.498149
v 0.677378 0.480243 1.506523
v 0.624487 0.162186 1.429528
v 0.624706 0.482076 1.437902
v 0.622223 0.164451 1.343063
v 0.622442 0.484341 1.351436
v 0.671231 0.166283 1.271779
v 0.671451 0.486173 1.280153
v 0.752573 0.227224 1.234483
v 0.752600 0.267210 1.235530
v 0.841460 0.226474 1.260803
v 0.841488 0.266460 1.261850
v 0.897895 0.224511 1.334325
v 0.897922 0.264497 1.335372
v 0.900321 0.222084 1.426966
v 0.900348 0.262070 1.428013
v 0.847811 0.220121 1.503342
v 0.847839 0.260107 1.504388
v 0.760423 0.219371 1.534277
v 0.760451 0.259357 1.535324
v 0.671536 0.220121 1.507957
v 0.671564 0.260107 1.509004
v 0.615101 0.222084 1.434435
v 0.615129 0.262070 1.435482
v 0.612676 0.224511 1.341794
v 0.612703 0.264497 1.342841
v 0.665185 0.226474 1.265419
v 0.665212 0.266460 1.266465
v 0.752683 0.387169 1.238670
v 0.752710 0.427155 1.239717
v 0.841570 0.386419 1.264990
v 0.841597 0.426406 1.266036
v 0.898004 0.384456 1.338512
v 0.898032 0.424442 1.339559
v 0.900430 0.382029 1.431153
v 0.900458 0.422016 1.432200
v 0.847921 0.380066 1.507528
v 0.847948 0.420052 1.508575
v 0.760533 0.379316 1.538464
v 0.760560 0.419302 1.539511
v 0.671646 0.380066 1.512144
v 0.671673 0.420052 1.513191
v 0.615211 0.382029 1.438622
v 0.615239 0.422016 1.439669
v 0.612785 0.384456 1.345981
v 0.612813 0.424442 1.347027
v 0.665295 0.386419 1.269606
v 0.665322 0.426406 1.270652
v -0.756375 0.176668 0.912425
v -0.756155 0.496559 0.920799
v -0.673413 0.175968 0.936990
v -0.673194 0.495859 0.945364
v -0.620741 0.174136 1.005611
v -0.620522 0.494026 1.013985
v -0.618477 0.171871 1.092076
v -0.618258 0.491761 1.100450
v -0.667485 0.170039 1.163360
v -0.667266 0.489929 1.171733
v -0.749048 0.169339 1.192233
v -0.748828 0.489229 1.200607
v -0.832009 0.170039 1.167668
v -0.831790 0.489929 1.176042
v -0.884681 0.171871 1.099047
v -0.884462 0.491761 1.107421
v -0.886946 0.174136 1.012582
v -0.886726 0.494026 1.020955
v -0.837937 0.175968 0.941298
v -0.837717 0.495859 0.949672
v -0.756595 0.236909 0.904002
v -0.756568 0.276896 0.905049
v -0.667708 0.236160 0.930322
v -0.667681 0.276146 0.931368
v -0.611273 0.234196 1.003844
v -0.611246 0.274183 1.004891
v -0.608847 0.231770 1.096485
v -0.608820 0.271756 1.097532
v -0.661357 0.229806 1.172861
v -0.661330 0.269793 1.173907
v -0.748745 0.229056 1.203796
v -0.748717 0.269043 1.204843
v -0.837632 0.229806 1.177476
v -0.837605 0.269793 1.178523
v -0.894067 0.231770 1.103954
v -0.894039 0.271756 1.105001
v -0.896493 0.234196 1.011313
v -0.896465 0.274183 1.012359
v -0.843983 0.236160 0.934938
v -0.843956 0.276146 0.935984
v -0.756486 0.396855 0.908189
v -0.756458 0.436841 0.909235
v -0.667598 0.396105 0.934509
v -0.667571 0.436091 0.935555
v -0.611164 0.394141 1.008031
v -0.611136 0.434128 1.009078
v -0.608738 0.391715 1.100672
v -0.608710 0.431701 1.101719
v -0.661247 0.389751 1.177047
v -0.661220 0.429738 1.178094
v -0.748635 0.389002 1.207983
v -0.748608 0.428988 1.209030
v -0.837522 0.389751 1.181663
v -0.837495 0.429738 1.182710
v -0.893957 0.391715 1.108141
v -0.893930 0.431701 1.109188
v -0.896383 0.394141 1.015499
v -0.896356 0.434128 1.016546
v -0.843873 0.396105 0.939125
v -0.843846 0.436091 0.940171
v 0.674747 0.235077 0.936521
v 1.074609 0.235077 0.926050
v 0.675371 0.191136 0.960371
v 1.075234 0.191136 0.949900
v 0.676679 0.189827 1.010336
v 1.076542 0.189827 0.999866
v 0.677363 0.232459 1.036452
v 1.077226 0.232459 1.025981
v 0.676739 0.276400 1.012603
v 1.076602 0.276400 1.002132
v 0.675430 0.277709 0.962637
v 1.075293 0.277709 0.952166
v 0.673469 0.281371 0.887733
v 1.073332 0.281371 0.877262
v 0.674093 0.237430 0.911582
v 1.073956 0.237430 0.901112
v 0.675402 0.236121 0.961548
v 1.075265 0.236121 0.951077
v 0.676086 0.278753 0.987664
v 1.075949 0.278753 0.977193
v 0.675461 0.322694 0.963814
v 1.075324 0.322694 0.953344
v 0.674153 0.324003 0.913849
v 1.074016 0.324003 0.903378
v 0.672191 0.327664 0.838944
v 1.072054 0.327664 0.828474
v 0.672816 0.283723 0.862794
v 1.072679 0.283723 0.852323
v 0.674124 0.282414 0.912760
v 1.073987 0.282414 0.902289
v 0.674808 0.325046 0.938876
v 1.074671 0.325046 0.928405
v 0.674184 0.368987 0.915026
v 1.074046 0.368987 0.904555
v 0.672875 0.370296 0.865060
v 1.072738 0.370296 0.854590
v 0.589350 0.860722 1.495516
v 0.589377 0.900708 1.496563
v 0.588303 0.861769 1.455544
v 0.588331 0.901756 1.456590
v 0.749295 0.860722 1.491328
v 0.749323 0.900708 1.492374
v 0.748248 0.861769 1.451355
v 0.748276 0.901756 1.452402
v 0.604835 0.620150 1.513826
v 0.604999 0.860068 1.520106
v 0.604050 0.620935 1.483847
v 0.604214 0.860853 1.490127
v 0.634824 0.620150 1.513041
v 0.634989 0.860068 1.519321
v 0.634039 0.620935 1.483061
v 0.634204 0.860853 1.489341
v 0.684835 0.660136 1.512779
v 0.684972 0.860068 1.518012
v 0.684050 0.660922 1.482799
v 0.684187 0.860853 1.488033
v 0.734818 0.660136 1.511470
v 0.734955 0.860068 1.516703
v 0.734032 0.660922 1.481490
v 0.734169 0.860853 1.486724
v 0.685065 0.614890 1.521594
v 0.685100 0.664873 1.522902
v 0.683757 0.616199 1.471628
v 0.683791 0.666182 1.472937
v 0.735048 0.614890 1.520285
v 0.735083 0.664873 1.521594
v 0.733740 0.616199 1.470320
v 0.733774 0.666182 1.471628
v -0.607151 0.647554 0.880825
v -0.606808 1.147383 0.893909
v -0.608197 0.648601 0.840852
v -0.607855 1.148430 0.853936
v -0.187295 0.647554 0.869830
v -0.186952 1.147383 0.882914
v -0.188341 0.648601 0.829858
v -0.187999 1.148430 0.842942
vn -0.9997 -0.0000 0.0262
vn -0.0262 0.0262 -0.9993
vn 0.9997 -0.0000 -0.0262
vn 0.0262 -0.0262 0.9993
vn -0.0007 -0.9997 -0.0262
vn 0.0007 0.9997 0.0262
vn -0.8661 -0.4998 0.0096
vn 0.8661 0.4998 -0.0096
vn 0.4992 -0.8657 -0.0358
vn -0.4992 0.8657 0.0358
vn -0.8654 0.4998 0.0358
vn 0.8654 -0.4998 -0.0358
vn -0.5004 -0.8657 -0.0096
vn 0.5004 0.8657 0.0096
vn -0.7243 0.6885 0.0370
vn 0.7252 0.6885 -0.0010
vn -0.7662 -0.6426 0.0032
vn 0.7662 0.6426 -0.0032
vn 0.6420 -0.7658 -0.0369
vn -0.6420 0.7658 0.0369
vn 0.8469 -0.3358 -0.4123
vn 0.5530 0.5718 0.6060
vn 0.1906 0.7595 -0.6219
vn -0.7849 0.5831 0.2099
vn -0.4910 -0.3245 -0.8085
vn -0.1906 -0.7595 0.6219
vn -0.7653 0.6426 0.0369
vn 0.7653 -0.6426 -0.0369
vn -0.6431 -0.7658 -0.0032
vn 0.6431 0.7658 0.0032
vn 0.4480 -0.3245 -0.8331
vn 0.7948 0.5831 0.1685
vn -0.2228 0.7595 -0.6111
vn -0.5206 0.5718 0.6341
vn -0.8673 -0.3358 -0.3674
vn 0.2228 -0.7595 0.6111
vn 0.4921 0.3196 -0.8098
vn 0.6245 0.7298 0.2780
vn -0.1901 0.2315 0.9541
vn 0.6293 -0.7494 0.2060
vn -0.8261 -0.4867 0.2841
vn -0.4044 -0.4322 -0.8060
vn 0.3617 -0.4322 -0.8260
vn 0.8398 -0.4867 0.2405
vn 0.2398 0.2315 0.9428
vn -0.6177 -0.7494 0.2386
vn -0.6091 0.7298 0.3103
vn -0.5338 0.3196 -0.7829
vn -0.0253 -0.2504 -0.9678
vn 0.0253 0.2504 0.9678
vn 0.0066 -0.9681 0.2503
vn -0.0066 0.9681 -0.2503
vn 0.3584 0.0242 -0.9333
vn 0.9135 0.0100 -0.4066
vn 0.9336 -0.0100 0.3582
vn 0.4067 -0.0242 0.9132
vn -0.3584 -0.0242 0.9333
vn -0.9135 -0.0100 0.4066
vn -0.9336 0.0100 -0.3582
vn -0.4067 0.0242 -0.9132
vn 0.4852 0.8179 0.3093
vn 0.9614 -0.0079 0.2752
vn 0.4840 -0.8336 0.2661
vn -0.4695 -0.8336 0.2910
vn -0.9456 -0.0079 0.3251
vn -0.4683 0.8179 0.3343
vn -0.0232 0.4617 -0.8867
vn 0.0232 -0.4617 0.8867
vn -0.0121 -0.8870 -0.4616
vn 0.0121 0.8870 0.4616
vn 0.2840 0.0249 -0.9585
vn 0.7934 0.0154 -0.6086
vn 0.8241 -0.0154 0.5662
vn 0.3338 -0.0249 0.9423
vn -0.2840 -0.0249 0.9585
vn -0.7934 -0.0154 0.6086
vn -0.8241 0.0154 -0.5662
vn -0.3338 0.0249 -0.9423
vn 0.2021 -0.8095 0.5513
vn 0.6063 -0.7944 -0.0367
vn -0.4822 -0.8037 0.3486
vn -0.5008 -0.7850 -0.3645
vn 0.1719 -0.7793 -0.6027
vn 0.9818 -0.1875 -0.0306
vn 0.3277 -0.2120 0.9207
vn -0.7794 -0.2026 0.5929
vn -0.8096 -0.1724 -0.5611
vn 0.2789 -0.1631 -0.9464
vn 0.8096 0.1724 0.5611
vn -0.2789 0.1631 0.9464
vn -0.9818 0.1875 0.0306
vn -0.3277 0.2120 -0.9207
vn 0.7794 0.2026 -0.5929
vn 0.5008 0.7850 0.3645
vn -0.1719 0.7793 0.6027
vn -0.6063 0.7944 0.0367
vn -0.2021 0.8095 -0.5513
vn 0.4822 0.8037 -0.3486
vn 0.2594 0.9656 0.0185
vn 0.7073 0.7069 -0.0000
vn 0.9658 0.2587 -0.0185
vn 0.9654 -0.2587 -0.0321
vn 0.7064 -0.7069 -0.0370
vn 0.2581 -0.9656 -0.0321
vn -0.2594 -0.9656 -0.0185
vn -0.7073 -0.7069 -0.0000
vn -0.9658 -0.2587 0.0185
vn -0.9654 0.2587 0.0321
vn -0.7064 0.7069 0.0370
vn -0.2581 0.9656 0.0321
vn -0.0230 -0.4772 -0.8785
vn 0.0223 -0.5225 0.8523
vn 0.0230 0.4772 0.8785
vn -0.0223 0.5225 -0.8523
vt 0.375000 0.000000
vt 0.625000 0.000000
vt 0.625000 0.250000
vt 0.375000 0.250000
vt 0.625000 0.500000
vt 0.375000 0.500000
vt 0.625000 0.750000
vt 0.375000 0.750000
vt 0.625000 1.000000
vt 0.375000 1.000000
vt 0.125000 0.500000
vt 0.125000 0.750000
vt 0.875000 0.500000
vt 0.875000 0.750000
vt 0.000000 0.000000
vt 1.000000 0.500000
vt 1.000000 1.000000
vt 0.750000 1.000000
vt 0.750000 0.500000
vt 0.500000 1.000000
vt 0.500000 0.500000
vt 0.490000 0.250000
vt 0.250000 0.490000
vt 0.010000 0.250000
vt 0.250000 0.010000
vt 0.250000 1.000000
vt 0.250000 0.500000
vt 0.000000 1.000000
vt 0.000000 0.500000
vt 0.750000 0.490000
vt 0.990000 0.250000
vt 0.750000 0.010000
vt 0.510000 0.250000
vt 0.250000 0.250000
vt 0.478254 0.324164
vt 0.391068 0.055836
vt 0.108932 0.055836
vt 0.978254 0.324164
vt 0.891068 0.055836
vt 0.608932 0.055836
vt 0.521746 0.324164
vt 0.021746 0.324164
vt 0.875000 1.000000
vt 0.419706 0.419706
vt 0.080294 0.419706
vt 0.080294 0.080294
vt 0.419706 0.080294
vt 0.125000 1.000000
vt 0.919706 0.419706
vt 0.919706 0.080294
vt 0.580294 0.080294
vt 0.580294 0.419706
vt 0.457846 0.370000
vt 0.457846 0.130000
vt 0.042154 0.130000
vt 0.957846 0.370000
vt 0.957846 0.130000
vt 0.542154 0.130000
vt 0.542154 0.370000
vt 0.042154 0.370000
vt 0.900000 1.000000
vt 0.900000 0.500000
vt 0.800000 1.000000
vt 0.800000 0.500000
vt 0.700000 1.000000
vt 0.700000 0.500000
vt 0.600000 1.000000
vt 0.600000 0.500000
vt 0.500000 1.000000
vt 0.500000 0.500000
vt 0.400000 1.000000
vt 0.400000 0.500000
vt 0.300000 1.000000
vt 0.300000 0.500000
vt 0.200000 1.000000
vt 0.200000 0.500000
vt 0.391068 0.444164
vt 0.108932 0.444164
vt 0.021746 0.324164
vt 0.021746 0.175836
vt 0.478254 0.175836
vt 0.478254 0.324164
vt 0.100000 1.000000
vt 0.100000 0.500000
vt -0.000000 1.000000
vt -0.000000 0.500000
vt 0.891068 0.444164
vt 0.978254 0.324164
vt 0.978254 0.175836
vt 0.521746 0.175836
vt 0.521746 0.324164
vt 0.608932 0.444164
vt 0.108932 0.444164
vt 0.021746 0.175836
vt 0.108932 0.055836
vt 0.478254 0.175836
vt 0.978254 0.175836
vt 0.521746 0.175836
vt 0.108932 0.055836
vt 0.250000 0.010000
vt 0.391068 0.055836
vt 0.891068 0.055836
vt 0.750000 0.010000
vt 0.608932 0.055836
vt 0.181819 0.000000
vt 0.272728 0.157461
vt 0.090910 0.157461
vt 0.363637 0.000000
vt 0.454546 0.157461
vt 0.909091 0.000000
vt 1.000000 0.157461
vt 0.818182 0.157461
vt 0.727273 0.000000
vt 0.636364 0.157461
vt 0.545455 0.000000
vt 0.363637 0.314921
vt 0.181819 0.314921
vt 0.909091 0.314921
vt 0.727273 0.314921
vt 0.545455 0.314921
vt 0.000000 0.314921
vt 0.272728 0.472382
vt 0.090910 0.472382
vt 0.818182 0.472382
vt 0.636364 0.472382
vt 0.454546 0.472382
vt 0.916667 1.000000
vt 0.916667 0.500000
vt 0.833333 1.000000
vt 0.833333 0.500000
vt 0.750000 1.000000
vt 0.750000 0.500000
vt 0.666667 1.000000
vt 0.666667 0.500000
vt 0.583333 1.000000
vt 0.583333 0.500000
vt 0.500000 1.000000
vt 0.500000 0.500000
vt 0.416667 1.000000
vt 0.416667 0.500000
vt 0.333333 1.000000
vt 0.333333 0.500000
vt 0.250000 1.000000
vt 0.250000 0.500000
vt 0.166667 1.000000
vt 0.166667 0.500000
vt 0.370000 0.457846
vt 0.130000 0.457846
vt 0.042154 0.370000
vt 0.042154 0.130000
vt 0.130000 0.042154
vt 0.370000 0.042154
vt 0.083333 1.000000
vt 0.083333 0.500000
vt 0.000000 1.000000
vt 0.000000 0.500000
vt 0.870000 0.457846
vt 0.870000 0.042154
vt 0.630000 0.042154
vt 0.630000 0.457846
vt 0.833333 1.000000
vt 0.833333 0.500000
vt 0.666667 1.000000
vt 0.666667 0.500000
vt 0.500000 1.000000
vt 0.500000 0.500000
vt 0.333333 1.000000
vt 0.333333 0.500000
vt 0.166667 1.000000
vt 0.166667 0.500000
vt -0.000000 1.000000
vt -0.000000 0.500000
vt 0.130000 0.042154
vt 0.370000 0.042154
vt 0.870000 0.042154
vt 0.630000 0.042154
vt 0.080294 0.419706
vt 0.080294 0.080294
vt 0.419706 0.080294
vt 0.919706 0.080294
vt 0.580294 0.080294
vt 0.391068 0.444164
vt 0.250000 0.490000
vt 0.108932 0.444164
vt 0.021746 0.324164
vt 0.021746 0.175836
vt 0.108932 0.055836
vt 0.250000 0.010000
vt 0.391068 0.055836
vt 0.478254 0.175836
vt 0.750000 0.490000
vt 0.891068 0.444164
vt 0.978254 0.175836
vt 0.891068 0.055836
vt 0.750000 0.010000
vt 0.608932 0.055836
vt 0.521746 0.175836
vt 0.608932 0.444164
vt 0.021746 0.175836
vt 0.457846 0.370000
vt 0.042154 0.370000
vt 0.042154 0.130000
vt 0.457846 0.130000
vt 0.957846 0.370000
vt 0.957846 0.130000
vt 0.542154 0.130000
vt 0.542154 0.370000
s 0
usemtl stone_dk
f 1/1/1 2/2/1 4/3/1 3/4/1
f 3/4/2 4/3/2 8/5/2 7/6/2
f 7/6/3 8/5/3 6/7/3 5/8/3
f 5/8/4 6/7/4 2/9/4 1/10/4
f 3/11/5 7/6/5 5/8/5 1/12/5
f 8/5/6 4/13/6 2/14/6 6/7/6
f 251/1/1 252/2/1 254/3/1 253/4/1
f 253/4/2 254/3/2 258/5/2 257/6/2
f 257/6/3 258/5/3 256/7/3 255/8/3
f 255/8/4 256/7/4 252/9/4 251/10/4
f 253/11/5 257/6/5 255/8/5 251/12/5
f 258/5/6 254/13/6 252/14/6 256/7/6
f 350/16/71 351/17/71 353/61/71 352/62/71
f 352/62/72 353/61/72 355/63/72 354/64/72
f 354/64/3 355/63/3 357/65/3 356/66/3
f 356/66/73 357/65/73 359/67/73 358/68/73
f 358/68/74 359/67/74 361/69/74 360/70/74
f 360/70/75 361/69/75 363/71/75 362/72/75
f 362/72/76 363/71/76 365/73/76 364/74/76
f 364/74/1 365/73/1 367/75/1 366/76/1
f 353/77/6 351/23/6 369/93/6 367/42/6 365/94/6 363/95/6 361/25/6 359/36/6 357/96/6 355/35/6
f 366/76/77 367/75/77 369/83/77 368/84/77
f 368/84/78 369/83/78 351/85/78 350/86/78
f 350/30/5 352/87/5 354/38/5 356/97/5 358/39/5 360/32/5 362/40/5 364/98/5 366/41/5 368/92/5
f 370/16/71 371/17/71 373/61/71 372/62/71
f 372/62/72 373/61/72 375/63/72 374/64/72
f 374/64/3 375/63/3 377/65/3 376/66/3
f 376/66/73 377/65/73 379/67/73 378/68/73
f 378/68/74 379/67/74 381/69/74 380/70/74
f 380/70/75 381/69/75 383/71/75 382/72/75
f 382/72/76 383/71/76 385/73/76 384/74/76
f 384/74/1 385/73/1 387/75/1 386/76/1
f 373/77/6 371/23/6 389/93/6 387/42/6 385/94/6 383/95/6 381/25/6 379/36/6 377/96/6 375/35/6
f 386/76/77 387/75/77 389/83/77 388/84/77
f 388/84/78 389/83/78 371/85/78 370/86/78
f 370/30/5 372/87/5 374/38/5 376/97/5 378/39/5 380/32/5 382/40/5 384/98/5 386/41/5 388/92/5
usemtl plaster
f 9/1/1 10/2/1 12/3/1 11/4/1
f 11/4/2 12/3/2 16/5/2 15/6/2
f 15/6/3 16/5/3 14/7/3 13/8/3
f 13/8/4 14/7/4 10/9/4 9/10/4
f 11/11/5 15/6/5 13/8/5 9/12/5
f 16/5/6 12/13/6 10/14/6 14/7/6
f 330/16/71 331/17/71 333/61/71 332/62/71
f 332/62/72 333/61/72 335/63/72 334/64/72
f 334/64/3 335/63/3 337/65/3 336/66/3
f 336/66/73 337/65/73 339/67/73 338/68/73
f 338/68/74 339/67/74 341/69/74 340/70/74
f 340/70/75 341/69/75 343/71/75 342/72/75
f 342/72/76 343/71/76 345/73/76 344/74/76
f 344/74/1 345/73/1 347/75/1 346/76/1
f 333/77/6 331/23/6 349/78/6 347/79/6 345/80/6 343/37/6 341/25/6 339/36/6 337/81/6 335/82/6
f 346/76/77 347/75/77 349/83/77 348/84/77
f 348/84/78 349/83/78 331/85/78 330/86/78
f 330/30/5 332/87/5 334/88/5 336/89/5 338/39/5 340/32/5 342/40/5 344/90/5 346/91/5 348/92/5
usemtl charwood
f 17/1/1 18/2/1 20/3/1 19/4/1
f 19/4/2 20/3/2 24/5/2 23/6/2
f 23/6/3 24/5/3 22/7/3 21/8/3
f 21/8/4 22/7/4 18/9/4 17/10/4
f 19/11/5 23/6/5 21/8/5 17/12/5
f 24/5/6 20/13/6 18/14/6 22/7/6
f 25/1/1 26/2/1 28/3/1 27/4/1
f 27/4/2 28/3/2 32/5/2 31/6/2
f 31/6/3 32/5/3 30/7/3 29/8/3
f 29/8/4 30/7/4 26/9/4 25/10/4
f 27/11/5 31/6/5 29/8/5 25/12/5
f 32/5/6 28/13/6 26/14/6 30/7/6
f 33/1/1 34/2/1 36/3/1 35/4/1
f 35/4/2 36/3/2 40/5/2 39/6/2
f 39/6/3 40/5/3 38/7/3 37/8/3
f 37/8/4 38/7/4 34/9/4 33/10/4
f 35/11/5 39/6/5 37/8/5 33/12/5
f 40/5/6 36/13/6 34/14/6 38/7/6
f 41/1/1 42/2/1 44/3/1 43/4/1
f 43/4/2 44/3/2 48/5/2 47/6/2
f 47/6/3 48/5/3 46/7/3 45/8/3
f 45/8/4 46/7/4 42/9/4 41/10/4
f 43/11/5 47/6/5 45/8/5 41/12/5
f 48/5/6 44/13/6 42/14/6 46/7/6
f 49/1/1 50/2/1 52/3/1 51/4/1
f 51/4/2 52/3/2 56/5/2 55/6/2
f 55/6/3 56/5/3 54/7/3 53/8/3
f 53/8/4 54/7/4 50/9/4 49/10/4
f 51/11/5 55/6/5 53/8/5 49/12/5
f 56/5/6 52/13/6 50/14/6 54/7/6
f 57/1/7 58/2/7 60/3/7 59/4/7
f 59/4/2 60/3/2 64/5/2 63/6/2
f 63/6/8 64/5/8 62/7/8 61/8/8
f 61/8/4 62/7/4 58/9/4 57/10/4
f 59/11/9 63/6/9 61/8/9 57/12/9
f 64/5/10 60/13/10 58/14/10 62/7/10
f 65/1/11 66/2/11 68/3/11 67/4/11
f 67/4/2 68/3/2 72/5/2 71/6/2
f 71/6/12 72/5/12 70/7/12 69/8/12
f 69/8/4 70/7/4 66/9/4 65/10/4
f 67/11/13 71/6/13 69/8/13 65/12/13
f 72/5/14 68/13/14 66/14/14 70/7/14
f 73/1/1 74/2/1 76/3/1 75/4/1
f 75/4/2 76/3/2 80/5/2 79/6/2
f 79/6/3 80/5/3 78/7/3 77/8/3
f 77/8/4 78/7/4 74/9/4 73/10/4
f 75/11/5 79/6/5 77/8/5 73/12/5
f 80/5/6 76/13/6 74/14/6 78/7/6
f 81/1/1 82/2/1 84/3/1 83/4/1
f 83/4/2 84/3/2 88/5/2 87/6/2
f 87/6/3 88/5/3 86/7/3 85/8/3
f 85/8/4 86/7/4 82/9/4 81/10/4
f 83/11/5 87/6/5 85/8/5 81/12/5
f 88/5/6 84/13/6 82/14/6 86/7/6
f 95/1/1 96/2/1 98/3/1 97/4/1
f 97/4/2 98/3/2 102/5/2 101/6/2
f 101/6/3 102/5/3 100/7/3 99/8/3
f 99/8/4 100/7/4 96/9/4 95/10/4
f 97/11/5 101/6/5 99/8/5 95/12/5
f 102/5/6 98/13/6 96/14/6 100/7/6
f 103/1/17 104/2/17 106/3/17 105/4/17
f 105/4/2 106/3/2 110/5/2 109/6/2
f 109/6/18 110/5/18 108/7/18 107/8/18
f 107/8/4 108/7/4 104/9/4 103/10/4
f 105/11/19 109/6/19 107/8/19 103/12/19
f 110/5/20 106/13/20 104/14/20 108/7/20
f 111/1/17 112/2/17 114/3/17 113/4/17
f 113/4/2 114/3/2 118/5/2 117/6/2
f 117/6/18 118/5/18 116/7/18 115/8/18
f 115/8/4 116/7/4 112/9/4 111/10/4
f 113/11/19 117/6/19 115/8/19 111/12/19
f 118/5/20 114/13/20 112/14/20 116/7/20
f 119/1/17 120/2/17 122/3/17 121/4/17
f 121/4/2 122/3/2 126/5/2 125/6/2
f 125/6/18 126/5/18 124/7/18 123/8/18
f 123/8/4 124/7/4 120/9/4 119/10/4
f 121/11/19 125/6/19 123/8/19 119/12/19
f 126/5/20 122/13/20 120/14/20 124/7/20
f 127/1/17 128/2/17 130/3/17 129/4/17
f 129/4/2 130/3/2 134/5/2 133/6/2
f 133/6/18 134/5/18 132/7/18 131/8/18
f 131/8/4 132/7/4 128/9/4 127/10/4
f 129/11/19 133/6/19 131/8/19 127/12/19
f 134/5/20 130/13/20 128/14/20 132/7/20
f 143/1/27 144/2/27 146/3/27 145/4/27
f 145/4/2 146/3/2 150/5/2 149/6/2
f 149/6/28 150/5/28 148/7/28 147/8/28
f 147/8/4 148/7/4 144/9/4 143/10/4
f 145/11/29 149/6/29 147/8/29 143/12/29
f 150/5/30 146/13/30 144/14/30 148/7/30
f 151/1/27 152/2/27 154/3/27 153/4/27
f 153/4/2 154/3/2 158/5/2 157/6/2
f 157/6/28 158/5/28 156/7/28 155/8/28
f 155/8/4 156/7/4 152/9/4 151/10/4
f 153/11/29 157/6/29 155/8/29 151/12/29
f 158/5/30 154/13/30 152/14/30 156/7/30
f 159/1/27 160/2/27 162/3/27 161/4/27
f 161/4/2 162/3/2 166/5/2 165/6/2
f 165/6/28 166/5/28 164/7/28 163/8/28
f 163/8/4 164/7/4 160/9/4 159/10/4
f 161/11/29 165/6/29 163/8/29 159/12/29
f 166/5/30 162/13/30 160/14/30 164/7/30
f 167/1/27 168/2/27 170/3/27 169/4/27
f 169/4/2 170/3/2 174/5/2 173/6/2
f 173/6/28 174/5/28 172/7/28 171/8/28
f 171/8/4 172/7/4 168/9/4 167/10/4
f 169/11/29 173/6/29 171/8/29 167/12/29
f 174/5/30 170/13/30 168/14/30 172/7/30
f 227/1/1 228/2/1 230/3/1 229/4/1
f 229/4/2 230/3/2 234/5/2 233/6/2
f 233/6/3 234/5/3 232/7/3 231/8/3
f 231/8/4 232/7/4 228/9/4 227/10/4
f 229/11/5 233/6/5 231/8/5 227/12/5
f 234/5/6 230/13/6 228/14/6 232/7/6
f 235/1/1 236/2/1 238/3/1 237/4/1
f 237/4/2 238/3/2 242/5/2 241/6/2
f 241/6/3 242/5/3 240/7/3 239/8/3
f 239/8/4 240/7/4 236/9/4 235/10/4
f 237/11/5 241/6/5 239/8/5 235/12/5
f 242/5/6 238/13/6 236/14/6 240/7/6
usemtl ash
f 89/15/4 90/15/4 91/15/4
f 94/15/2 93/15/2 92/15/2
f 89/15/15 91/15/15 94/15/15 92/15/15
f 91/15/16 90/15/16 93/15/16 94/15/16
f 90/15/5 89/15/5 92/15/5 93/15/5
f 243/1/1 244/2/1 246/3/1 245/4/1
f 245/4/49 246/3/49 250/5/49 249/6/49
f 249/6/3 250/5/3 248/7/3 247/8/3
f 247/8/50 248/7/50 244/9/50 243/10/50
f 245/11/51 249/6/51 247/8/51 243/12/51
f 250/5/52 246/13/52 244/14/52 248/7/52
f 410/105/79 411/106/79 412/107/79
f 411/106/80 410/108/80 415/109/80
f 410/110/81 412/111/81 413/112/81
f 410/113/82 413/112/82 414/114/82
f 410/115/83 414/114/83 415/109/83
f 411/106/84 415/109/84 420/116/84
f 412/107/85 411/106/85 416/117/85
f 413/112/86 412/111/86 417/118/86
f 414/114/87 413/112/87 418/119/87
f 415/109/88 414/114/88 419/120/88
f 411/106/89 420/116/89 416/117/89
f 412/107/90 416/117/90 417/121/90
f 413/112/91 417/118/91 418/119/91
f 414/114/92 418/119/92 419/120/92
f 415/109/93 419/120/93 420/116/93
f 416/117/94 420/116/94 421/122/94
f 417/121/95 416/117/95 421/123/95
f 418/119/96 417/118/96 421/124/96
f 419/120/97 418/119/97 421/125/97
f 420/116/98 419/120/98 421/126/98
f 422/105/79 423/106/79 424/107/79
f 423/106/80 422/108/80 427/109/80
f 422/110/81 424/111/81 425/112/81
f 422/113/82 425/112/82 426/114/82
f 422/115/83 426/114/83 427/109/83
f 423/106/84 427/109/84 432/116/84
f 424/107/85 423/106/85 428/117/85
f 425/112/86 424/111/86 429/118/86
f 426/114/87 425/112/87 430/119/87
f 427/109/88 426/114/88 431/120/88
f 423/106/89 432/116/89 428/117/89
f 424/107/90 428/117/90 429/121/90
f 425/112/91 429/118/91 430/119/91
f 426/114/92 430/119/92 431/120/92
f 427/109/93 431/120/93 432/116/93
f 428/117/94 432/116/94 433/122/94
f 429/121/95 428/117/95 433/123/95
f 430/119/96 429/118/96 433/124/96
f 431/120/97 430/119/97 433/125/97
f 432/116/98 431/120/98 433/126/98
f 434/105/79 435/106/79 436/107/79
f 435/106/80 434/108/80 439/109/80
f 434/110/81 436/111/81 437/112/81
f 434/113/82 437/112/82 438/114/82
f 434/115/83 438/114/83 439/109/83
f 435/106/84 439/109/84 444/116/84
f 436/107/85 435/106/85 440/117/85
f 437/112/86 436/111/86 441/118/86
f 438/114/87 437/112/87 442/119/87
f 439/109/88 438/114/88 443/120/88
f 435/106/89 444/116/89 440/117/89
f 436/107/90 440/117/90 441/121/90
f 437/112/91 441/118/91 442/119/91
f 438/114/92 442/119/92 443/120/92
f 439/109/93 443/120/93 444/116/93
f 440/117/94 444/116/94 445/122/94
f 441/121/95 440/117/95 445/123/95
f 442/119/96 441/118/96 445/124/96
f 443/120/97 442/119/97 445/125/97
f 444/116/98 443/120/98 445/126/98
f 446/105/79 447/106/79 448/107/79
f 447/106/80 446/108/80 451/109/80
f 446/110/81 448/111/81 449/112/81
f 446/113/82 449/112/82 450/114/82
f 446/115/83 450/114/83 451/109/83
f 447/106/84 451/109/84 456/116/84
f 448/107/85 447/106/85 452/117/85
f 449/112/86 448/111/86 453/118/86
f 450/114/87 449/112/87 454/119/87
f 451/109/88 450/114/88 455/120/88
f 447/106/89 456/116/89 452/117/89
f 448/107/90 452/117/90 453/121/90
f 449/112/91 453/118/91 454/119/91
f 450/114/92 454/119/92 455/120/92
f 451/109/93 455/120/93 456/116/93
f 452/117/94 456/116/94 457/122/94
f 453/121/95 452/117/95 457/123/95
f 454/119/96 453/118/96 457/124/96
f 455/120/97 454/119/97 457/125/97
f 456/116/98 455/120/98 457/126/98
usemtl wood_dk
f 135/16/21 136/17/21 138/18/21 137/19/21
f 137/19/22 138/18/22 140/20/22 139/21/22
f 138/22/23 136/23/23 142/24/23 140/25/23
f 139/21/24 140/20/24 142/26/24 141/27/24
f 141/27/25 142/26/25 136/28/25 135/29/25
f 135/30/26 137/31/26 139/32/26 141/33/26
f 175/16/31 176/17/31 178/18/31 177/19/31
f 177/19/32 178/18/32 180/20/32 179/21/32
f 178/22/33 176/23/33 182/24/33 180/25/33
f 179/21/34 180/20/34 182/26/34 181/27/34
f 181/27/35 182/26/35 176/28/35 175/29/35
f 175/30/36 177/31/36 179/32/36 181/33/36
f 267/16/53 268/17/53 270/43/53 269/13/53
f 269/13/54 270/43/54 272/18/54 271/19/54
f 271/19/55 272/18/55 274/9/55 273/5/55
f 273/5/56 274/9/56 276/20/56 275/21/56
f 275/21/57 276/20/57 278/10/57 277/6/57
f 277/6/58 278/10/58 280/26/58 279/27/58
f 270/44/6 268/23/6 282/45/6 280/24/6 278/46/6 276/25/6 274/47/6 272/22/6
f 279/27/59 280/26/59 282/48/59 281/11/59
f 281/11/60 282/48/60 268/28/60 267/29/60
f 267/30/5 269/49/5 271/31/5 273/50/5 275/32/5 277/51/5 279/33/5 281/52/5
f 314/1/1 315/2/1 317/3/1 316/4/1
f 316/4/67 317/3/67 321/5/67 320/6/67
f 320/6/3 321/5/3 319/7/3 318/8/3
f 318/8/68 319/7/68 315/9/68 314/10/68
f 316/11/69 320/6/69 318/8/69 314/12/69
f 321/5/70 317/13/70 315/14/70 319/7/70
f 458/16/99 459/17/99 461/127/99 460/128/99
f 460/128/100 461/127/100 463/129/100 462/130/100
f 462/130/101 463/129/101 465/131/101 464/132/101
f 464/132/102 465/131/102 467/133/102 466/134/102
f 466/134/103 467/133/103 469/135/103 468/136/103
f 468/136/104 469/135/104 471/137/104 470/138/104
f 470/138/105 471/137/105 473/139/105 472/140/105
f 472/140/106 473/139/106 475/141/106 474/142/106
f 474/142/107 475/141/107 477/143/107 476/144/107
f 476/144/108 477/143/108 479/145/108 478/146/108
f 461/147/4 459/23/4 481/148/4 479/149/4 477/24/4 475/150/4 473/151/4 471/25/4 469/152/4 467/54/4 465/22/4 463/53/4
f 478/146/109 479/145/109 481/153/109 480/154/109
f 480/154/110 481/153/110 459/155/110 458/156/110
f 458/30/2 460/157/2 462/56/2 464/31/2 466/57/2 468/158/2 470/32/2 472/159/2 474/58/2 476/33/2 478/59/2 480/160/2
f 534/16/99 535/17/99 537/127/99 536/128/99
f 536/128/100 537/127/100 539/129/100 538/130/100
f 538/130/101 539/129/101 541/131/101 540/132/101
f 540/132/102 541/131/102 543/133/102 542/134/102
f 542/134/103 543/133/103 545/135/103 544/136/103
f 544/136/104 545/135/104 547/137/104 546/138/104
f 546/138/105 547/137/105 549/139/105 548/140/105
f 548/140/106 549/139/106 551/141/106 550/142/106
f 550/142/107 551/141/107 553/143/107 552/144/107
f 552/144/108 553/143/108 555/145/108 554/146/108
f 537/147/4 535/23/4 557/148/4 555/60/4 553/24/4 551/55/4 549/173/4 547/25/4 545/174/4 543/54/4 541/22/4 539/53/4
f 554/146/109 555/145/109 557/153/109 556/154/109
f 556/154/110 557/153/110 535/155/110 534/156/110
f 534/30/2 536/157/2 538/56/2 540/31/2 542/57/2 544/175/2 546/32/2 548/176/2 550/58/2 552/33/2 554/59/2 556/160/2
f 778/1/1 779/2/1 781/3/1 780/4/1
f 780/4/2 781/3/2 785/5/2 784/6/2
f 784/6/3 785/5/3 783/7/3 782/8/3
f 782/8/4 783/7/4 779/9/4 778/10/4
f 780/11/5 784/6/5 782/8/5 778/12/5
f 785/5/6 781/13/6 779/14/6 783/7/6
f 786/1/1 787/2/1 789/3/1 788/4/1
f 788/4/2 789/3/2 793/5/2 792/6/2
f 792/6/3 793/5/3 791/7/3 790/8/3
f 790/8/4 791/7/4 787/9/4 786/10/4
f 788/11/5 792/6/5 790/8/5 786/12/5
f 793/5/6 789/13/6 787/14/6 791/7/6
f 794/1/1 795/2/1 797/3/1 796/4/1
f 796/4/2 797/3/2 801/5/2 800/6/2
f 800/6/3 801/5/3 799/7/3 798/8/3
f 798/8/4 799/7/4 795/9/4 794/10/4
f 796/11/5 800/6/5 798/8/5 794/12/5
f 801/5/6 797/13/6 795/14/6 799/7/6
f 802/1/1 803/2/1 805/3/1 804/4/1
f 804/4/2 805/3/2 809/5/2 808/6/2
f 808/6/3 809/5/3 807/7/3 806/8/3
f 806/8/4 807/7/4 803/9/4 802/10/4
f 804/11/5 808/6/5 806/8/5 802/12/5
f 809/5/6 805/13/6 803/14/6 807/7/6
f 998/1/1 999/2/1 1001/3/1 1000/4/1
f 1000/4/2 1001/3/2 1005/5/2 1004/6/2
f 1004/6/3 1005/5/3 1003/7/3 1002/8/3
f 1002/8/4 1003/7/4 999/9/4 998/10/4
f 1000/11/5 1004/6/5 1002/8/5 998/12/5
f 1005/5/6 1001/13/6 999/14/6 1003/7/6
usemtl bone
f 183/1/1 184/2/1 186/3/1 185/4/1
f 185/4/2 186/3/2 190/5/2 189/6/2
f 189/6/3 190/5/3 188/7/3 187/8/3
f 187/8/4 188/7/4 184/9/4 183/10/4
f 185/11/5 189/6/5 187/8/5 183/12/5
f 190/5/6 186/13/6 184/14/6 188/7/6
f 191/1/1 192/2/1 194/3/1 193/4/1
f 193/4/2 194/3/2 198/5/2 197/6/2
f 197/6/3 198/5/3 196/7/3 195/8/3
f 195/8/4 196/7/4 192/9/4 191/10/4
f 193/11/5 197/6/5 195/8/5 191/12/5
f 198/5/6 194/13/6 192/14/6 196/7/6
f 207/23/37 212/34/37 208/35/37
f 208/35/38 212/34/38 209/36/38
f 209/36/39 212/34/39 210/37/39
f 207/30/40 208/38/40 209/39/40 210/40/40 211/41/40
f 210/37/41 212/34/41 211/42/41
f 211/42/42 212/34/42 207/23/42
f 221/23/43 226/34/43 222/35/43
f 222/35/44 226/34/44 223/36/44
f 223/36/45 226/34/45 224/37/45
f 221/30/46 222/38/46 223/39/46 224/40/46 225/41/46
f 224/37/47 226/34/47 225/42/47
f 225/42/48 226/34/48 221/23/48
f 506/1/1 507/2/1 509/3/1 508/4/1
f 508/4/2 509/3/2 513/5/2 512/6/2
f 512/6/3 513/5/3 511/7/3 510/8/3
f 510/8/4 511/7/4 507/9/4 506/10/4
f 508/11/5 512/6/5 510/8/5 506/12/5
f 513/5/6 509/13/6 507/14/6 511/7/6
f 514/1/1 515/2/1 517/3/1 516/4/1
f 516/4/2 517/3/2 521/5/2 520/6/2
f 520/6/3 521/5/3 519/7/3 518/8/3
f 518/8/4 519/7/4 515/9/4 514/10/4
f 516/11/5 520/6/5 518/8/5 514/12/5
f 521/5/6 517/13/6 515/14/6 519/7/6
f 582/1/1 583/2/1 585/3/1 584/4/1
f 584/4/2 585/3/2 589/5/2 588/6/2
f 588/6/3 589/5/3 587/7/3 586/8/3
f 586/8/4 587/7/4 583/9/4 582/10/4
f 584/11/5 588/6/5 586/8/5 582/12/5
f 589/5/6 585/13/6 583/14/6 587/7/6
f 590/1/1 591/2/1 593/3/1 592/4/1
f 592/4/2 593/3/2 597/5/2 596/6/2
f 596/6/3 597/5/3 595/7/3 594/8/3
f 594/8/4 595/7/4 591/9/4 590/10/4
f 592/11/5 596/6/5 594/8/5 590/12/5
f 597/5/6 593/13/6 591/14/6 595/7/6
f 610/105/79 611/106/79 612/107/79
f 611/106/80 610/108/80 615/109/80
f 610/110/81 612/111/81 613/112/81
f 610/113/82 613/112/82 614/114/82
f 610/115/83 614/114/83 615/109/83
f 611/106/84 615/109/84 620/116/84
f 612/107/85 611/106/85 616/117/85
f 613/112/86 612/111/86 617/118/86
f 614/114/87 613/112/87 618/119/87
f 615/109/88 614/114/88 619/120/88
f 611/106/89 620/116/89 616/117/89
f 612/107/90 616/117/90 617/121/90
f 613/112/91 617/118/91 618/119/91
f 614/114/92 618/119/92 619/120/92
f 615/109/93 619/120/93 620/116/93
f 616/117/94 620/116/94 621/122/94
f 617/121/95 616/117/95 621/123/95
f 618/119/96 617/118/96 621/124/96
f 619/120/97 618/119/97 621/125/97
f 620/116/98 619/120/98 621/126/98
f 622/1/1 623/2/1 625/3/1 624/4/1
f 624/4/2 625/3/2 629/5/2 628/6/2
f 628/6/3 629/5/3 627/7/3 626/8/3
f 626/8/4 627/7/4 623/9/4 622/10/4
f 624/11/5 628/6/5 626/8/5 622/12/5
f 629/5/6 625/13/6 623/14/6 627/7/6
f 630/1/1 631/2/1 633/3/1 632/4/1
f 632/4/2 633/3/2 637/5/2 636/6/2
f 636/6/3 637/5/3 635/7/3 634/8/3
f 634/8/4 635/7/4 631/9/4 630/10/4
f 632/11/5 636/6/5 634/8/5 630/12/5
f 637/5/6 633/13/6 631/14/6 635/7/6
f 694/105/79 695/106/79 696/107/79
f 695/106/80 694/108/80 699/109/80
f 694/110/81 696/111/81 697/112/81
f 694/113/82 697/112/82 698/114/82
f 694/115/83 698/114/83 699/109/83
f 695/106/84 699/109/84 704/116/84
f 696/107/85 695/106/85 700/117/85
f 697/112/86 696/111/86 701/118/86
f 698/114/87 697/112/87 702/119/87
f 699/109/88 698/114/88 703/120/88
f 695/106/89 704/116/89 700/117/89
f 696/107/90 700/117/90 701/121/90
f 697/112/91 701/118/91 702/119/91
f 698/114/92 702/119/92 703/120/92
f 699/109/93 703/120/93 704/116/93
f 700/117/94 704/116/94 705/122/94
f 701/121/95 700/117/95 705/123/95
f 702/119/96 701/118/96 705/124/96
f 703/120/97 702/119/97 705/125/97
f 704/116/98 703/120/98 705/126/98
f 706/1/1 707/2/1 709/3/1 708/4/1
f 708/4/2 709/3/2 713/5/2 712/6/2
f 712/6/3 713/5/3 711/7/3 710/8/3
f 710/8/4 711/7/4 707/9/4 706/10/4
f 708/11/5 712/6/5 710/8/5 706/12/5
f 713/5/6 709/13/6 707/14/6 711/7/6
f 714/1/1 715/2/1 717/3/1 716/4/1
f 716/4/2 717/3/2 721/5/2 720/6/2
f 720/6/3 721/5/3 719/7/3 718/8/3
f 718/8/4 719/7/4 715/9/4 714/10/4
f 716/11/5 720/6/5 718/8/5 714/12/5
f 721/5/6 717/13/6 715/14/6 719/7/6
usemtl soot
f 199/1/1 200/2/1 202/3/1 201/4/1
f 201/4/2 202/3/2 206/5/2 205/6/2
f 205/6/3 206/5/3 204/7/3 203/8/3
f 203/8/4 204/7/4 200/9/4 199/10/4
f 201/11/5 205/6/5 203/8/5 199/12/5
f 206/5/6 202/13/6 200/14/6 204/7/6
f 213/1/1 214/2/1 216/3/1 215/4/1
f 215/4/2 216/3/2 220/5/2 219/6/2
f 219/6/3 220/5/3 218/7/3 217/8/3
f 217/8/4 218/7/4 214/9/4 213/10/4
f 215/11/5 219/6/5 217/8/5 213/12/5
f 220/5/6 216/13/6 214/14/6 218/7/6
f 638/1/1 639/2/1 641/3/1 640/4/1
f 640/4/2 641/3/2 645/5/2 644/6/2
f 644/6/3 645/5/3 643/7/3 642/8/3
f 642/8/4 643/7/4 639/9/4 638/10/4
f 640/11/5 644/6/5 642/8/5 638/12/5
f 645/5/6 641/13/6 639/14/6 643/7/6
f 646/1/1 647/2/1 649/3/1 648/4/1
f 648/4/2 649/3/2 653/5/2 652/6/2
f 652/6/3 653/5/3 651/7/3 650/8/3
f 650/8/4 651/7/4 647/9/4 646/10/4
f 648/11/5 652/6/5 650/8/5 646/12/5
f 653/5/6 649/13/6 647/14/6 651/7/6
f 654/1/1 655/2/1 657/3/1 656/4/1
f 656/4/2 657/3/2 661/5/2 660/6/2
f 660/6/3 661/5/3 659/7/3 658/8/3
f 658/8/4 659/7/4 655/9/4 654/10/4
f 656/11/5 660/6/5 658/8/5 654/12/5
f 661/5/6 657/13/6 655/14/6 659/7/6
f 662/1/1 663/2/1 665/3/1 664/4/1
f 664/4/2 665/3/2 669/5/2 668/6/2
f 668/6/3 669/5/3 667/7/3 666/8/3
f 666/8/4 667/7/4 663/9/4 662/10/4
f 664/11/5 668/6/5 666/8/5 662/12/5
f 669/5/6 665/13/6 663/14/6 667/7/6
f 670/1/1 671/2/1 673/3/1 672/4/1
f 672/4/2 673/3/2 677/5/2 676/6/2
f 676/6/3 677/5/3 675/7/3 674/8/3
f 674/8/4 675/7/4 671/9/4 670/10/4
f 672/11/5 676/6/5 674/8/5 670/12/5
f 677/5/6 673/13/6 671/14/6 675/7/6
f 678/1/1 679/2/1 681/3/1 680/4/1
f 680/4/2 681/3/2 685/5/2 684/6/2
f 684/6/3 685/5/3 683/7/3 682/8/3
f 682/8/4 683/7/4 679/9/4 678/10/4
f 680/11/5 684/6/5 682/8/5 678/12/5
f 685/5/6 681/13/6 679/14/6 683/7/6
f 686/1/1 687/2/1 689/3/1 688/4/1
f 688/4/2 689/3/2 693/5/2 692/6/2
f 692/6/3 693/5/3 691/7/3 690/8/3
f 690/8/4 691/7/4 687/9/4 686/10/4
f 688/11/5 692/6/5 690/8/5 686/12/5
f 693/5/6 689/13/6 687/14/6 691/7/6
f 722/1/1 723/2/1 725/3/1 724/4/1
f 724/4/2 725/3/2 729/5/2 728/6/2
f 728/6/3 729/5/3 727/7/3 726/8/3
f 726/8/4 727/7/4 723/9/4 722/10/4
f 724/11/5 728/6/5 726/8/5 722/12/5
f 729/5/6 725/13/6 723/14/6 727/7/6
f 730/1/1 731/2/1 733/3/1 732/4/1
f 732/4/2 733/3/2 737/5/2 736/6/2
f 736/6/3 737/5/3 735/7/3 734/8/3
f 734/8/4 735/7/4 731/9/4 730/10/4
f 732/11/5 736/6/5 734/8/5 730/12/5
f 737/5/6 733/13/6 731/14/6 735/7/6
f 738/1/1 739/2/1 741/3/1 740/4/1
f 740/4/2 741/3/2 745/5/2 744/6/2
f 744/6/3 745/5/3 743/7/3 742/8/3
f 742/8/4 743/7/4 739/9/4 738/10/4
f 740/11/5 744/6/5 742/8/5 738/12/5
f 745/5/6 741/13/6 739/14/6 743/7/6
f 746/1/1 747/2/1 749/3/1 748/4/1
f 748/4/2 749/3/2 753/5/2 752/6/2
f 752/6/3 753/5/3 751/7/3 750/8/3
f 750/8/4 751/7/4 747/9/4 746/10/4
f 748/11/5 752/6/5 750/8/5 746/12/5
f 753/5/6 749/13/6 747/14/6 751/7/6
f 754/1/1 755/2/1 757/3/1 756/4/1
f 756/4/2 757/3/2 761/5/2 760/6/2
f 760/6/3 761/5/3 759/7/3 758/8/3
f 758/8/4 759/7/4 755/9/4 754/10/4
f 756/11/5 760/6/5 758/8/5 754/12/5
f 761/5/6 757/13/6 755/14/6 759/7/6
f 762/1/1 763/2/1 765/3/1 764/4/1
f 764/4/2 765/3/2 769/5/2 768/6/2
f 768/6/3 769/5/3 767/7/3 766/8/3
f 766/8/4 767/7/4 763/9/4 762/10/4
f 764/11/5 768/6/5 766/8/5 762/12/5
f 769/5/6 765/13/6 763/14/6 767/7/6
f 770/1/1 771/2/1 773/3/1 772/4/1
f 772/4/2 773/3/2 777/5/2 776/6/2
f 776/6/3 777/5/3 775/7/3 774/8/3
f 774/8/4 775/7/4 771/9/4 770/10/4
f 772/11/5 776/6/5 774/8/5 770/12/5
f 777/5/6 773/13/6 771/14/6 775/7/6
f 1030/1/1 1031/2/1 1033/3/1 1032/4/1
f 1032/4/2 1033/3/2 1037/5/2 1036/6/2
f 1036/6/3 1037/5/3 1035/7/3 1034/8/3
f 1034/8/4 1035/7/4 1031/9/4 1030/10/4
f 1032/11/5 1036/6/5 1034/8/5 1030/12/5
f 1037/5/6 1033/13/6 1031/14/6 1035/7/6
usemtl ember
f 259/1/1 260/2/1 262/3/1 261/4/1
f 261/4/2 262/3/2 266/5/2 265/6/2
f 265/6/3 266/5/3 264/7/3 263/8/3
f 263/8/4 264/7/4 260/9/4 259/10/4
f 261/11/5 265/6/5 263/8/5 259/12/5
f 266/5/6 262/13/6 260/14/6 264/7/6
usemtl gunmetal
f 283/1/1 284/2/1 286/3/1 285/4/1
f 285/4/2 286/3/2 290/5/2 289/6/2
f 289/6/3 290/5/3 288/7/3 287/8/3
f 287/8/4 288/7/4 284/9/4 283/10/4
f 285/11/5 289/6/5 287/8/5 283/12/5
f 290/5/6 286/13/6 284/14/6 288/7/6
f 291/1/1 292/2/1 294/3/1 293/4/1
f 293/4/2 294/3/2 298/5/2 297/6/2
f 297/6/3 298/5/3 296/7/3 295/8/3
f 295/8/4 296/7/4 292/9/4 291/10/4
f 293/11/5 297/6/5 295/8/5 291/12/5
f 298/5/6 294/13/6 292/14/6 296/7/6
f 299/23/61 305/34/61 300/53/61
f 300/53/62 305/34/62 301/54/62
f 301/54/63 305/34/63 302/25/63
f 302/25/64 305/34/64 303/55/64
f 299/30/2 300/56/2 301/57/2 302/32/2 303/58/2 304/59/2
f 303/55/65 305/34/65 304/60/65
f 304/60/66 305/34/66 299/23/66
f 306/1/1 307/2/1 309/3/1 308/4/1
f 308/4/2 309/3/2 313/5/2 312/6/2
f 312/6/3 313/5/3 311/7/3 310/8/3
f 310/8/4 311/7/4 307/9/4 306/10/4
f 308/11/5 312/6/5 310/8/5 306/12/5
f 313/5/6 309/13/6 307/14/6 311/7/6
usemtl iron
f 322/1/1 323/2/1 325/3/1 324/4/1
f 324/4/2 325/3/2 329/5/2 328/6/2
f 328/6/3 329/5/3 327/7/3 326/8/3
f 326/8/4 327/7/4 323/9/4 322/10/4
f 324/11/5 328/6/5 326/8/5 322/12/5
f 329/5/6 325/13/6 323/14/6 327/7/6
f 390/16/71 391/17/71 393/61/71 392/62/71
f 392/62/72 393/61/72 395/63/72 394/64/72
f 394/64/3 395/63/3 397/65/3 396/66/3
f 396/66/73 397/65/73 399/67/73 398/68/73
f 398/68/74 399/67/74 401/69/74 400/70/74
f 400/70/75 401/69/75 403/71/75 402/72/75
f 402/72/76 403/71/76 405/73/76 404/74/76
f 404/74/1 405/73/1 407/75/1 406/76/1
f 393/77/6 391/23/6 409/78/6 407/79/6 405/80/6 403/99/6 401/100/6 399/101/6 397/81/6 395/82/6
f 406/76/77 407/75/77 409/83/77 408/84/77
f 408/84/78 409/83/78 391/85/78 390/86/78
f 390/30/5 392/87/5 394/88/5 396/89/5 398/102/5 400/103/5 402/104/5 404/90/5 406/91/5 408/92/5
f 522/16/14 523/17/14 525/161/14 524/162/14
f 524/162/3 525/161/3 527/163/3 526/164/3
f 526/164/9 527/163/9 529/165/9 528/166/9
f 528/166/13 529/165/13 531/167/13 530/168/13
f 525/53/4 523/23/4 533/149/4 531/150/4 529/25/4 527/54/4
f 530/168/1 531/167/1 533/169/1 532/170/1
f 532/170/10 533/169/10 523/171/10 522/172/10
f 522/30/2 524/56/2 526/57/2 528/32/2 530/58/2 532/59/2
f 598/16/14 599/17/14 601/161/14 600/162/14
f 600/162/3 601/161/3 603/163/3 602/164/3
f 602/164/9 603/163/9 605/165/9 604/166/9
f 604/166/13 605/165/13 607/167/13 606/168/13
f 601/53/4 599/23/4 609/149/4 607/150/4 605/25/4 603/54/4
f 606/168/1 607/167/1 609/169/1 608/170/1
f 608/170/10 609/169/10 599/171/10 598/172/10
f 598/30/2 600/56/2 602/57/2 604/32/2 606/58/2 608/59/2
f 862/16/71 863/17/71 865/61/71 864/62/71
f 864/62/72 865/61/72 867/63/72 866/64/72
f 866/64/3 867/63/3 869/65/3 868/66/3
f 868/66/73 869/65/73 871/67/73 870/68/73
f 870/68/74 871/67/74 873/69/74 872/70/74
f 872/70/75 873/69/75 875/71/75 874/72/75
f 874/72/76 875/71/76 877/73/76 876/74/76
f 876/74/1 877/73/1 879/75/1 878/76/1
f 865/182/6 863/23/6 881/184/6 879/42/6 877/199/6 875/187/6 873/25/6 871/189/6 869/190/6 867/35/6
f 878/76/77 879/75/77 881/83/77 880/84/77
f 880/84/78 881/83/78 863/85/78 862/86/78
f 862/30/5 864/192/5 866/38/5 868/193/5 870/194/5 872/32/5 874/196/5 876/197/5 878/41/5 880/198/5
f 882/16/71 883/17/71 885/61/71 884/62/71
f 884/62/72 885/61/72 887/63/72 886/64/72
f 886/64/3 887/63/3 889/65/3 888/66/3
f 888/66/73 889/65/73 891/67/73 890/68/73
f 890/68/74 891/67/74 893/69/74 892/70/74
f 892/70/75 893/69/75 895/71/75 894/72/75
f 894/72/76 895/71/76 897/73/76 896/74/76
f 896/74/1 897/73/1 899/75/1 898/76/1
f 885/182/6 883/23/6 901/184/6 899/42/6 897/199/6 895/187/6 893/25/6 891/189/6 889/190/6 887/35/6
f 898/76/77 899/75/77 901/83/77 900/84/77
f 900/84/78 901/83/78 883/85/78 882/86/78
f 882/30/5 884/192/5 886/38/5 888/193/5 890/194/5 892/32/5 894/196/5 896/197/5 898/41/5 900/198/5
f 922/16/71 923/17/71 925/61/71 924/62/71
f 924/62/72 925/61/72 927/63/72 926/64/72
f 926/64/3 927/63/3 929/65/3 928/66/3
f 928/66/73 929/65/73 931/67/73 930/68/73
f 930/68/74 931/67/74 933/69/74 932/70/74
f 932/70/75 933/69/75 935/71/75 934/72/75
f 934/72/76 935/71/76 937/73/76 936/74/76
f 936/74/1 937/73/1 939/75/1 938/76/1
f 925/182/6 923/23/6 941/184/6 939/42/6 937/199/6 935/187/6 933/25/6 931/189/6 929/190/6 927/35/6
f 938/76/77 939/75/77 941/83/77 940/84/77
f 940/84/78 941/83/78 923/85/78 922/86/78
f 922/30/5 924/192/5 926/38/5 928/193/5 930/194/5 932/32/5 934/196/5 936/197/5 938/41/5 940/198/5
f 942/16/71 943/17/71 945/61/71 944/62/71
f 944/62/72 945/61/72 947/63/72 946/64/72
f 946/64/3 947/63/3 949/65/3 948/66/3
f 948/66/73 949/65/73 951/67/73 950/68/73
f 950/68/74 951/67/74 953/69/74 952/70/74
f 952/70/75 953/69/75 955/71/75 954/72/75
f 954/72/76 955/71/76 957/73/76 956/74/76
f 956/74/1 957/73/1 959/75/1 958/76/1
f 945/182/6 943/23/6 961/184/6 959/42/6 957/199/6 955/187/6 953/25/6 951/189/6 949/190/6 947/35/6
f 958/76/77 959/75/77 961/83/77 960/84/77
f 960/84/78 961/83/78 943/85/78 942/86/78
f 942/30/5 944/192/5 946/38/5 948/193/5 950/194/5 952/32/5 954/196/5 956/197/5 958/41/5 960/198/5
f 1006/1/1 1007/2/1 1009/3/1 1008/4/1
f 1008/4/2 1009/3/2 1013/5/2 1012/6/2
f 1012/6/3 1013/5/3 1011/7/3 1010/8/3
f 1010/8/4 1011/7/4 1007/9/4 1006/10/4
f 1008/11/5 1012/6/5 1010/8/5 1006/12/5
f 1013/5/6 1009/13/6 1007/14/6 1011/7/6
f 1014/1/1 1015/2/1 1017/3/1 1016/4/1
f 1016/4/2 1017/3/2 1021/5/2 1020/6/2
f 1020/6/3 1021/5/3 1019/7/3 1018/8/3
f 1018/8/4 1019/7/4 1015/9/4 1014/10/4
f 1016/11/5 1020/6/5 1018/8/5 1014/12/5
f 1021/5/6 1017/13/6 1015/14/6 1019/7/6
usemtl crimson
f 482/16/99 483/17/99 485/127/99 484/128/99
f 484/128/100 485/127/100 487/129/100 486/130/100
f 486/130/101 487/129/101 489/131/101 488/132/101
f 488/132/102 489/131/102 491/133/102 490/134/102
f 490/134/103 491/133/103 493/135/103 492/136/103
f 492/136/104 493/135/104 495/137/104 494/138/104
f 494/138/105 495/137/105 497/139/105 496/140/105
f 496/140/106 497/139/106 499/141/106 498/142/106
f 498/142/107 499/141/107 501/143/107 500/144/107
f 500/144/108 501/143/108 503/145/108 502/146/108
f 485/147/4 483/23/4 505/148/4 503/149/4 501/24/4 499/150/4 497/151/4 495/25/4 493/152/4 491/54/4 489/22/4 487/53/4
f 502/146/109 503/145/109 505/153/109 504/154/109
f 504/154/110 505/153/110 483/155/110 482/156/110
f 482/30/2 484/157/2 486/56/2 488/31/2 490/57/2 492/158/2 494/32/2 496/159/2 498/58/2 500/33/2 502/59/2 504/160/2
usemtl cloth
f 558/16/99 559/17/99 561/127/99 560/128/99
f 560/128/100 561/127/100 563/129/100 562/130/100
f 562/130/101 563/129/101 565/131/101 564/132/101
f 564/132/102 565/131/102 567/133/102 566/134/102
f 566/134/103 567/133/103 569/135/103 568/136/103
f 568/136/104 569/135/104 571/137/104 570/138/104
f 570/138/105 571/137/105 573/139/105 572/140/105
f 572/140/106 573/139/106 575/141/106 574/142/106
f 574/142/107 575/141/107 577/143/107 576/144/107
f 576/144/108 577/143/108 579/145/108 578/146/108
f 561/147/4 559/23/4 581/148/4 579/60/4 577/24/4 575/55/4 573/173/4 571/25/4 569/174/4 567/54/4 565/22/4 563/53/4
f 578/146/109 579/145/109 581/153/109 580/154/109
f 580/154/110 581/153/110 559/155/110 558/156/110
f 558/30/2 560/157/2 562/56/2 564/31/2 566/57/2 568/175/2 570/32/2 572/176/2 574/58/2 576/33/2 578/59/2 580/160/2
usemtl wood
f 810/16/53 811/17/53 813/43/53 812/13/53
f 812/13/54 813/43/54 815/18/54 814/19/54
f 814/19/55 815/18/55 817/9/55 816/5/55
f 816/5/56 817/9/56 819/20/56 818/21/56
f 818/21/57 819/20/57 821/10/57 820/6/57
f 820/6/58 821/10/58 823/26/58 822/27/58
f 813/44/6 811/23/6 825/177/6 823/24/6 821/178/6 819/25/6 817/179/6 815/22/6
f 822/27/59 823/26/59 825/48/59 824/11/59
f 824/11/60 825/48/60 811/28/60 810/29/60
f 810/30/5 812/49/5 814/31/5 816/180/5 818/32/5 820/181/5 822/33/5 824/52/5
f 842/16/71 843/17/71 845/61/71 844/62/71
f 844/62/72 845/61/72 847/63/72 846/64/72
f 846/64/3 847/63/3 849/65/3 848/66/3
f 848/66/73 849/65/73 851/67/73 850/68/73
f 850/68/74 851/67/74 853/69/74 852/70/74
f 852/70/75 853/69/75 855/71/75 854/72/75
f 854/72/76 855/71/76 857/73/76 856/74/76
f 856/74/1 857/73/1 859/75/1 858/76/1
f 845/182/6 843/183/6 861/184/6 859/185/6 857/186/6 855/187/6 853/188/6 851/189/6 849/190/6 847/35/6
f 858/76/77 859/75/77 861/83/77 860/84/77
f 860/84/78 861/83/78 843/85/78 842/86/78
f 842/191/5 844/192/5 846/38/5 848/193/5 850/194/5 852/195/5 854/196/5 856/197/5 858/41/5 860/198/5
f 902/16/71 903/17/71 905/61/71 904/62/71
f 904/62/72 905/61/72 907/63/72 906/64/72
f 906/64/3 907/63/3 909/65/3 908/66/3
f 908/66/73 909/65/73 911/67/73 910/68/73
f 910/68/74 911/67/74 913/69/74 912/70/74
f 912/70/75 913/69/75 915/71/75 914/72/75
f 914/72/76 915/71/76 917/73/76 916/74/76
f 916/74/1 917/73/1 919/75/1 918/76/1
f 905/182/6 903/183/6 921/184/6 919/185/6 917/186/6 915/187/6 913/188/6 911/189/6 909/190/6 907/35/6
f 918/76/77 919/75/77 921/83/77 920/84/77
f 920/84/78 921/83/78 903/85/78 902/86/78
f 902/191/5 904/192/5 906/38/5 908/193/5 910/194/5 912/195/5 914/196/5 916/197/5 918/41/5 920/198/5
f 962/16/111 963/17/111 965/161/111 964/162/111
f 964/162/5 965/161/5 967/163/5 966/164/5
f 966/164/112 967/163/112 969/165/112 968/166/112
f 968/166/113 969/165/113 971/167/113 970/168/113
f 965/200/3 963/23/3 973/201/3 971/202/3 969/25/3 967/203/3
f 970/168/6 971/167/6 973/169/6 972/170/6
f 972/170/114 973/169/114 963/171/114 962/172/114
f 962/30/1 964/204/1 966/205/1 968/32/1 970/206/1 972/207/1
f 974/16/111 975/17/111 977/161/111 976/162/111
f 976/162/5 977/161/5 979/163/5 978/164/5
f 978/164/112 979/163/112 981/165/112 980/166/112
f 980/166/113 981/165/113 983/167/113 982/168/113
f 977/200/3 975/23/3 985/201/3 983/202/3 981/25/3 979/203/3
f 982/168/6 983/167/6 985/169/6 984/170/6
f 984/170/114 985/169/114 975/171/114 974/172/114
f 974/30/1 976/204/1 978/205/1 980/32/1 982/206/1 984/207/1
f 986/16/111 987/17/111 989/161/111 988/162/111
f 988/162/5 989/161/5 991/163/5 990/164/5
f 990/164/112 991/163/112 993/165/112 992/166/112
f 992/166/113 993/165/113 995/167/113 994/168/113
f 989/200/3 987/23/3 997/201/3 995/202/3 993/25/3 991/203/3
f 994/168/6 995/167/6 997/169/6 996/170/6
f 996/170/114 997/169/114 987/171/114 986/172/114
f 986/30/1 988/204/1 990/205/1 992/32/1 994/206/1 996/207/1
f 1022/1/1 1023/2/1 1025/3/1 1024/4/1
f 1024/4/2 1025/3/2 1029/5/2 1028/6/2
f 1028/6/3 1029/5/3 1027/7/3 1026/8/3
f 1026/8/4 1027/7/4 1023/9/4 1022/10/4
f 1024/11/5 1028/6/5 1026/8/5 1022/12/5
f 1029/5/6 1025/13/6 1023/14/6 1027/7/6
usemtl water
f 826/16/53 827/17/53 829/43/53 828/13/53
f 828/13/54 829/43/54 831/18/54 830/19/54
f 830/19/55 831/18/55 833/9/55 832/5/55
f 832/5/56 833/9/56 835/20/56 834/21/56
f 834/21/57 835/20/57 837/10/57 836/6/57
f 836/6/58 837/10/58 839/26/58 838/27/58
f 829/44/6 827/23/6 841/177/6 839/24/6 837/178/6 835/25/6 833/179/6 831/22/6
f 838/27/59 839/26/59 841/48/59 840/11/59
f 840/11/60 841/48/60 827/28/60 826/29/60
f 826/30/5 828/49/5 830/31/5 832/180/5 834/32/5 836/181/5 838/33/5 840/52/5
