# Blender 5.0.1
# www.blender.org
mtllib chapel.mtl
o chapel
v -0.720000 0.000000 0.620000
v -0.720000 0.200000 0.620000
v -0.720000 0.000000 -1.620000
v -0.720000 0.200000 -1.620000
v 0.720000 0.000000 0.620000
v 0.720000 0.200000 0.620000
v 0.720000 0.000000 -1.620000
v 0.720000 0.200000 -1.620000
v -0.600000 0.200000 0.500000
v -0.600000 1.600000 0.500000
v -0.600000 0.200000 -1.500000
v -0.600000 1.600000 -1.500000
v 0.600000 0.200000 0.500000
v 0.600000 1.600000 0.500000
v 0.600000 0.200000 -1.500000
v 0.600000 1.600000 -1.500000
v -0.680000 1.600000 0.580000
v 0.680000 1.600000 0.580000
v 0.000000 2.350000 0.580000
v -0.680000 1.600000 -1.580000
v 0.680000 1.600000 -1.580000
v 0.000000 2.350000 -1.580000
v -0.680000 0.200000 0.180000
v -0.680000 1.320000 0.180000
v -0.680000 0.200000 0.020000
v -0.680000 1.320000 0.020000
v -0.520000 0.200000 0.180000
v -0.520000 1.320000 0.180000
v -0.520000 0.200000 0.020000
v -0.520000 1.320000 0.020000
v -0.680000 0.200000 -0.620000
v -0.680000 1.320000 -0.620000
v -0.680000 0.200000 -0.780000
v -0.680000 1.320000 -0.780000
v -0.520000 0.200000 -0.620000
v -0.520000 1.320000 -0.620000
v -0.520000 0.200000 -0.780000
v -0.520000 1.320000 -0.780000
v -0.680000 0.200000 -1.320000
v -0.680000 1.320000 -1.320000
v -0.680000 0.200000 -1.480000
v -0.680000 1.320000 -1.480000
v -0.520000 0.200000 -1.320000
v -0.520000 1.320000 -1.320000
v -0.520000 0.200000 -1.480000
v -0.520000 1.320000 -1.480000
v -0.625000 0.840000 -0.140000
v -0.625000 1.260000 -0.140000
v -0.625000 0.840000 -0.260000
v -0.625000 1.260000 -0.260000
v -0.575000 0.840000 -0.140000
v -0.575000 1.260000 -0.140000
v -0.575000 0.840000 -0.260000
v -0.575000 1.260000 -0.260000
v -0.625000 0.840000 -0.940000
v -0.625000 1.260000 -0.940000
v -0.625000 0.840000 -1.060000
v -0.625000 1.260000 -1.060000
v -0.575000 0.840000 -0.940000
v -0.575000 1.260000 -0.940000
v -0.575000 0.840000 -1.060000
v -0.575000 1.260000 -1.060000
v 0.520000 0.200000 0.180000
v 0.520000 1.320000 0.180000
v 0.520000 0.200000 0.020000
v 0.520000 1.320000 0.020000
v 0.680000 0.200000 0.180000
v 0.680000 1.320000 0.180000
v 0.680000 0.200000 0.020000
v 0.680000 1.320000 0.020000
v 0.520000 0.200000 -0.620000
v 0.520000 1.320000 -0.620000
v 0.520000 0.200000 -0.780000
v 0.520000 1.320000 -0.780000
v 0.680000 0.200000 -0.620000
v 0.680000 1.320000 -0.620000
v 0.680000 0.200000 -0.780000
v 0.680000 1.320000 -0.780000
v 0.520000 0.200000 -1.320000
v 0.520000 1.320000 -1.320000
v 0.520000 0.200000 -1.480000
v 0.520000 1.320000 -1.480000
v 0.680000 0.200000 -1.320000
v 0.680000 1.320000 -1.320000
v 0.680000 0.200000 -1.480000
v 0.680000 1.320000 -1.480000
v 0.575000 0.840000 -0.140000
v 0.575000 1.260000 -0.140000
v 0.575000 0.840000 -0.260000
v 0.575000 1.260000 -0.260000
v 0.625000 0.840000 -0.140000
v 0.625000 1.260000 -0.140000
v 0.625000 0.840000 -0.260000
v 0.625000 1.260000 -0.260000
v 0.575000 0.840000 -0.940000
v 0.575000 1.260000 -0.940000
v 0.575000 0.840000 -1.060000
v 0.575000 1.260000 -1.060000
v 0.625000 0.840000 -0.940000
v 0.625000 1.260000 -0.940000
v 0.625000 0.840000 -1.060000
v 0.625000 1.260000 -1.060000
v -0.555000 0.000000 1.405000
v -0.555000 0.200000 1.405000
v -0.555000 0.000000 0.295000
v -0.555000 0.200000 0.295000
v 0.555000 0.000000 1.405000
v 0.555000 0.200000 1.405000
v 0.555000 0.000000 0.295000
v 0.555000 0.200000 0.295000
v -0.475000 0.200000 1.325000
v -0.475000 3.799999 1.325000
v -0.475000 0.200000 0.375000
v -0.475000 3.799999 0.375000
v 0.475000 0.200000 1.325000
v 0.475000 3.799999 1.325000
v 0.475000 0.200000 0.375000
v 0.475000 3.799999 0.375000
v -0.495000 1.370000 1.345000
v -0.495000 1.430000 1.345000
v -0.495000 1.370000 0.355000
v -0.495000 1.430000 0.355000
v 0.495000 1.370000 1.345000
v 0.495000 1.430000 1.345000
v 0.495000 1.370000 0.355000
v 0.495000 1.430000 0.355000
v -0.495000 2.570000 1.345000
v -0.495000 2.629999 1.345000
v -0.495000 2.570000 0.355000
v -0.495000 2.629999 0.355000
v 0.495000 2.570000 1.345000
v 0.495000 2.629999 1.345000
v 0.495000 2.570000 0.355000
v 0.495000 2.629999 0.355000
v -0.300000 2.950000 1.310000
v -0.300000 3.549999 1.310000
v -0.300000 2.950000 1.260000
v -0.300000 3.549999 1.260000
v -0.140000 2.950000 1.310000
v -0.140000 3.549999 1.310000
v -0.140000 2.950000 1.260000
v -0.140000 3.549999 1.260000
v -0.270000 2.975000 1.335000
v -0.270000 3.525000 1.335000
v -0.270000 2.975000 1.295000
v -0.270000 3.525000 1.295000
v -0.170000 2.975000 1.335000
v -0.170000 3.525000 1.335000
v -0.170000 2.975000 1.295000
v -0.170000 3.525000 1.295000
v -0.220000 3.512500 1.253000
v -0.158000 3.512500 1.315000
v -0.220000 3.512500 1.377000
v -0.282000 3.512500 1.315000
v -0.220000 3.597499 1.315000
v 0.140000 2.950000 1.310000
v 0.140000 3.549999 1.310000
v 0.140000 2.950000 1.260000
v 0.140000 3.549999 1.260000
v 0.300000 2.950000 1.310000
v 0.300000 3.549999 1.310000
v 0.300000 2.950000 1.260000
v 0.300000 3.549999 1.260000
v 0.170000 2.975000 1.335000
v 0.170000 3.525000 1.335000
v 0.170000 2.975000 1.295000
v 0.170000 3.525000 1.295000
v 0.270000 2.975000 1.335000
v 0.270000 3.525000 1.335000
v 0.270000 2.975000 1.295000
v 0.270000 3.525000 1.295000
v 0.220000 3.512500 1.253000
v 0.282000 3.512500 1.315000
v 0.220000 3.512500 1.377000
v 0.158000 3.512500 1.315000
v 0.220000 3.597499 1.315000
v 0.000000 2.352000 1.270000
v 0.000000 2.352000 1.320000
v 0.140000 2.314487 1.270000
v 0.140000 2.314487 1.320000
v 0.242487 2.212000 1.270000
v 0.242487 2.212000 1.320000
v 0.280000 2.072000 1.270000
v 0.280000 2.072000 1.320000
v 0.242487 1.932000 1.270000
v 0.242487 1.932000 1.320000
v 0.140000 1.829513 1.270000
v 0.140000 1.829513 1.320000
v 0.000000 1.792000 1.270000
v 0.000000 1.792000 1.320000
v -0.140000 1.829513 1.270000
v -0.140000 1.829513 1.320000
v -0.242487 1.932000 1.270000
v -0.242487 1.932000 1.320000
v -0.280000 2.072000 1.270000
v -0.280000 2.072000 1.320000
v -0.242487 2.212000 1.270000
v -0.242487 2.212000 1.320000
v -0.140000 2.314487 1.270000
v -0.140000 2.314487 1.320000
v 0.000000 2.292000 1.290000
v 0.000000 2.292000 1.340000
v 0.110000 2.262525 1.290000
v 0.110000 2.262525 1.340000
v 0.190526 2.182000 1.290000
v 0.190526 2.182000 1.340000
v 0.220000 2.072000 1.290000
v 0.220000 2.072000 1.340000
v 0.190526 1.962000 1.290000
v 0.190526 1.962000 1.340000
v 0.110000 1.881474 1.290000
v 0.110000 1.881474 1.340000
v 0.000000 1.852000 1.290000
v 0.000000 1.852000 1.340000
v -0.110000 1.881474 1.290000
v -0.110000 1.881474 1.340000
v -0.190526 1.962000 1.290000
v -0.190526 1.962000 1.340000
v -0.220000 2.072000 1.290000
v -0.220000 2.072000 1.340000
v -0.190526 2.182000 1.290000
v -0.190526 2.182000 1.340000
v -0.110000 2.262525 1.290000
v -0.110000 2.262525 1.340000
v -0.210000 2.057000 1.360000
v -0.210000 2.087000 1.360000
v -0.210000 2.057000 1.330000
v -0.210000 2.087000 1.330000
v 0.210000 2.057000 1.360000
v 0.210000 2.087000 1.360000
v 0.210000 2.057000 1.330000
v 0.210000 2.087000 1.330000
v -0.189365 2.164009 1.360000
v -0.174365 2.189990 1.360000
v -0.189365 2.164009 1.330000
v -0.174365 2.189990 1.330000
v 0.174365 1.954010 1.360000
v 0.189365 1.979990 1.360000
v 0.174365 1.954010 1.330000
v 0.189365 1.979990 1.330000
v -0.117990 2.246365 1.360000
v -0.092010 2.261365 1.360000
v -0.117990 2.246365 1.330000
v -0.092010 2.261365 1.330000
v 0.092010 1.882634 1.360000
v 0.117990 1.897635 1.360000
v 0.092010 1.882634 1.330000
v 0.117990 1.897635 1.330000
v -0.015000 2.282000 1.360000
v 0.015000 2.282000 1.360000
v -0.015000 2.282000 1.330000
v 0.015000 2.282000 1.330000
v -0.015000 1.862000 1.360000
v 0.015000 1.862000 1.360000
v -0.015000 1.862000 1.330000
v 0.015000 1.862000 1.330000
v 0.092010 2.261365 1.360000
v 0.117990 2.246365 1.360000
v 0.092010 2.261365 1.330000
v 0.117990 2.246365 1.330000
v -0.117990 1.897635 1.360000
v -0.092010 1.882634 1.360000
v -0.117990 1.897635 1.330000
v -0.092010 1.882634 1.330000
v 0.174365 2.189990 1.360000
v 0.189365 2.164009 1.360000
v 0.174365 2.189990 1.330000
v 0.189365 2.164009 1.330000
v -0.189365 1.979990 1.360000
v -0.174365 1.954010 1.360000
v -0.189365 1.979990 1.330000
v -0.174365 1.954010 1.330000
v 0.270000 0.865000 1.355000
v 0.270000 0.995000 1.355000
v 0.270000 0.865000 1.255000
v 0.270000 0.995000 1.255000
v 0.370000 0.865000 1.355000
v 0.370000 0.995000 1.355000
v 0.370000 0.865000 1.255000
v 0.370000 0.995000 1.255000
v 0.258827 1.025000 1.373301
v 0.258827 1.155000 1.373301
v 0.208827 1.025000 1.286699
v 0.208827 1.155000 1.286699
v 0.345429 1.025000 1.323301
v 0.345429 1.155000 1.323301
v 0.295429 1.025000 1.236699
v 0.295429 1.155000 1.236699
v 0.178301 1.142128 1.373301
v 0.178301 1.272128 1.373301
v 0.091699 1.142128 1.323301
v 0.091699 1.272128 1.323301
v 0.228301 1.142128 1.286699
v 0.228301 1.272128 1.286699
v 0.141699 1.142128 1.236699
v 0.141699 1.272128 1.236699
v 0.050000 1.185000 1.355000
v 0.050000 1.315000 1.355000
v -0.050000 1.185000 1.355000
v -0.050000 1.315000 1.355000
v 0.050000 1.185000 1.255000
v 0.050000 1.315000 1.255000
v -0.050000 1.185000 1.255000
v -0.050000 1.315000 1.255000
v -0.091699 1.142128 1.323301
v -0.091699 1.272128 1.323301
v -0.178301 1.142128 1.373301
v -0.178301 1.272128 1.373301
v -0.141699 1.142128 1.236699
v -0.141699 1.272128 1.236699
v -0.228301 1.142128 1.286699
v -0.228301 1.272128 1.286699
v -0.208827 1.025000 1.286699
v -0.208827 1.155000 1.286699
v -0.258827 1.025000 1.373301
v -0.258827 1.155000 1.373301
v -0.295429 1.025000 1.236699
v -0.295429 1.155000 1.236699
v -0.345429 1.025000 1.323301
v -0.345429 1.155000 1.323301
v -0.270000 0.865000 1.255000
v -0.270000 0.995000 1.255000
v -0.270000 0.865000 1.355000
v -0.270000 0.995000 1.355000
v -0.370000 0.865000 1.255000
v -0.370000 0.995000 1.255000
v -0.370000 0.865000 1.355000
v -0.370000 0.995000 1.355000
v 0.190000 0.865000 1.255000
v 0.190000 0.995000 1.255000
v 0.190000 0.865000 1.155000
v 0.190000 0.995000 1.155000
v 0.290000 0.865000 1.255000
v 0.290000 0.995000 1.255000
v 0.290000 0.865000 1.155000
v 0.290000 0.995000 1.155000
v 0.189545 0.985000 1.273301
v 0.189545 1.115000 1.273301
v 0.139545 0.985000 1.186699
v 0.139545 1.115000 1.186699
v 0.276147 0.985000 1.223301
v 0.276147 1.115000 1.223301
v 0.226147 0.985000 1.136699
v 0.226147 1.115000 1.136699
v 0.138301 1.072846 1.273301
v 0.138301 1.202846 1.273301
v 0.051699 1.072846 1.223301
v 0.051699 1.202846 1.223301
v 0.188301 1.072846 1.186699
v 0.188301 1.202846 1.186699
v 0.101699 1.072846 1.136699
v 0.101699 1.202846 1.136699
v 0.050000 1.105000 1.255000
v 0.050000 1.235000 1.255000
v -0.050000 1.105000 1.255000
v -0.050000 1.235000 1.255000
v 0.050000 1.105000 1.155000
v 0.050000 1.235000 1.155000
v -0.050000 1.105000 1.155000
v -0.050000 1.235000 1.155000
v -0.051699 1.072846 1.223301
v -0.051699 1.202846 1.223301
v -0.138301 1.072846 1.273301
v -0.138301 1.202846 1.273301
v -0.101699 1.072846 1.136699
v -0.101699 1.202846 1.136699
v -0.188301 1.072846 1.186699
v -0.188301 1.202846 1.186699
v -0.139545 0.985000 1.186699
v -0.139545 1.115000 1.186699
v -0.189545 0.985000 1.273301
v -0.189545 1.115000 1.273301
v -0.226147 0.985000 1.136699
v -0.226147 1.115000 1.136699
v -0.276147 0.985000 1.223301
v -0.276147 1.115000 1.223301
v -0.190000 0.865000 1.155000
v -0.190000 0.995000 1.155000
v -0.190000 0.865000 1.255000
v -0.190000 0.995000 1.255000
v -0.290000 0.865000 1.155000
v -0.290000 0.995000 1.155000
v -0.290000 0.865000 1.255000
v -0.290000 0.995000 1.255000
v -0.230000 0.390000 1.315000
v -0.230000 1.010000 1.315000
v -0.230000 0.390000 1.015000
v -0.230000 1.010000 1.015000
v 0.230000 0.390000 1.315000
v 0.230000 1.010000 1.315000
v 0.230000 0.390000 1.015000
v 0.230000 1.010000 1.015000
v -0.155000 0.440000 1.385000
v -0.155000 0.960000 1.385000
v -0.155000 0.440000 1.325000
v -0.155000 0.960000 1.325000
v -0.005000 0.440000 1.385000
v -0.005000 0.960000 1.385000
v -0.005000 0.440000 1.325000
v -0.005000 0.960000 1.325000
v 0.005000 0.440000 1.385000
v 0.005000 0.960000 1.385000
v 0.005000 0.440000 1.325000
v 0.005000 0.960000 1.325000
v 0.155000 0.440000 1.385000
v 0.155000 0.960000 1.385000
v 0.155000 0.440000 1.325000
v 0.155000 0.960000 1.325000
v -0.040000 0.510000 1.415000
v -0.040000 0.930000 1.415000
v -0.040000 0.510000 1.375000
v -0.040000 0.930000 1.375000
v 0.040000 0.510000 1.415000
v 0.040000 0.930000 1.415000
v 0.040000 0.510000 1.375000
v 0.040000 0.930000 1.375000
v -0.130000 0.775000 1.415000
v -0.130000 0.845000 1.415000
v -0.130000 0.775000 1.375000
v -0.130000 0.845000 1.375000
v 0.130000 0.775000 1.415000
v 0.130000 0.845000 1.415000
v 0.130000 0.775000 1.375000
v 0.130000 0.845000 1.375000
v -0.525000 3.800000 1.375000
v -0.525000 3.960000 1.375000
v -0.525000 3.800000 0.325000
v -0.525000 3.960000 0.325000
v 0.525000 3.800000 1.375000
v 0.525000 3.960000 1.375000
v 0.525000 3.800000 0.325000
v 0.525000 3.960000 0.325000
v -0.535000 3.950000 1.385000
v -0.535000 4.250000 1.385000
v -0.535000 3.950000 1.265000
v -0.535000 4.250000 1.265000
v -0.415000 3.950000 1.385000
v -0.415000 4.250000 1.385000
v -0.415000 3.950000 1.265000
v -0.415000 4.250000 1.265000
v -0.475000 4.240000 1.235000
v -0.385000 4.240000 1.325000
v -0.475000 4.240000 1.415000
v -0.565000 4.240000 1.325000
v -0.475000 4.559999 1.325000
v -0.535000 3.950000 0.435000
v -0.535000 4.250000 0.435000
v -0.535000 3.950000 0.315000
v -0.535000 4.250000 0.315000
v -0.415000 3.950000 0.435000
v -0.415000 4.250000 0.435000
v -0.415000 3.950000 0.315000
v -0.415000 4.250000 0.315000
v -0.475000 4.240000 0.285000
v -0.385000 4.240000 0.375000
v -0.475000 4.240000 0.465000
v -0.565000 4.240000 0.375000
v -0.475000 4.559999 0.375000
v 0.415000 3.950000 1.385000
v 0.415000 4.250000 1.385000
v 0.415000 3.950000 1.265000
v 0.415000 4.250000 1.265000
v 0.535000 3.950000 1.385000
v 0.535000 4.250000 1.385000
v 0.535000 3.950000 1.265000
v 0.535000 4.250000 1.265000
v 0.475000 4.240000 1.235000
v 0.565000 4.240000 1.325000
v 0.475000 4.240000 1.415000
v 0.385000 4.240000 1.325000
v 0.475000 4.559999 1.325000
v 0.415000 3.950000 0.435000
v 0.415000 4.250000 0.435000
v 0.415000 3.950000 0.315000
v 0.415000 4.250000 0.315000
v 0.535000 3.950000 0.435000
v 0.535000 4.250000 0.435000
v 0.535000 3.950000 0.315000
v 0.535000 4.250000 0.315000
v 0.475000 4.240000 0.285000
v 0.565000 4.240000 0.375000
v 0.475000 4.240000 0.465000
v 0.385000 4.240000 0.375000
v 0.475000 4.559999 0.375000
v -0.240416 3.875000 0.609584
v 0.240416 3.875000 0.609584
v 0.240416 3.875000 1.090416
v -0.240416 3.875000 1.090416
v 0.000000 4.724999 0.850000
v -0.035000 4.640000 0.885000
v -0.035000 5.059999 0.885000
v -0.035000 4.640000 0.815000
v -0.035000 5.059999 0.815000
v 0.035000 4.640000 0.885000
v 0.035000 5.059999 0.885000
v 0.035000 4.640000 0.815000
v 0.035000 5.059999 0.815000
v -0.150000 4.914999 0.885000
v -0.150000 4.984999 0.885000
v -0.150000 4.914999 0.815000
v -0.150000 4.984999 0.815000
v 0.150000 4.914999 0.885000
v 0.150000 4.984999 0.885000
v 0.150000 4.914999 0.815000
v 0.150000 4.984999 0.815000
v -0.750000 0.180000 0.650000
v -0.750000 0.260000 0.650000
v -0.750000 0.180000 -1.650000
v -0.750000 0.260000 -1.650000
v 0.750000 0.180000 0.650000
v 0.750000 0.260000 0.650000
v 0.750000 0.180000 -1.650000
v 0.750000 0.260000 -1.650000
v -0.595000 0.180000 1.445000
v -0.595000 0.260000 1.445000
v -0.595000 0.180000 0.255000
v -0.595000 0.260000 0.255000
v 0.595000 0.180000 1.445000
v 0.595000 0.260000 1.445000
v 0.595000 0.180000 0.255000
v 0.595000 0.260000 0.255000
vn -1.0000 -0.0000 -0.0000
vn -0.0000 -0.0000 -1.0000
vn 1.0000 -0.0000 -0.0000
vn -0.0000 -0.0000 1.0000
vn -0.0000 -1.0000 -0.0000
vn -0.0000 1.0000 -0.0000
vn -0.7408 0.6717 -0.0000
vn 0.7408 0.6717 -0.0000
vn 0.6284 0.4584 -0.6284
vn 0.6284 0.4584 0.6284
vn -0.6284 0.4584 0.6284
vn -0.6284 0.4584 -0.6284
vn 0.2588 0.9659 -0.0000
vn 0.7071 0.7071 -0.0000
vn 0.9659 0.2588 -0.0000
vn 0.9659 -0.2588 -0.0000
vn 0.7071 -0.7071 -0.0000
vn 0.2588 -0.9659 -0.0000
vn -0.2588 -0.9659 -0.0000
vn -0.7071 -0.7071 -0.0000
vn -0.9659 -0.2588 -0.0000
vn -0.9659 0.2588 -0.0000
vn -0.7071 0.7071 -0.0000
vn -0.2588 0.9659 -0.0000
vn -0.8660 0.5000 -0.0000
vn 0.8660 -0.5000 -0.0000
vn -0.5000 -0.8660 -0.0000
vn 0.5000 0.8660 -0.0000
vn -0.5000 0.8660 -0.0000
vn 0.5000 -0.8660 -0.0000
vn -0.8660 -0.5000 -0.0000
vn 0.8660 0.5000 -0.0000
vn -0.8660 -0.0000 0.5000
vn -0.5000 -0.0000 -0.8660
vn 0.8660 -0.0000 -0.5000
vn 0.5000 -0.0000 0.8660
vn -0.5000 -0.0000 0.8660
vn -0.8660 -0.0000 -0.5000
vn 0.5000 -0.0000 -0.8660
vn 0.8660 -0.0000 0.5000
vn 0.6935 0.1951 -0.6935
vn 0.6935 0.1951 0.6935
vn -0.6935 0.1951 0.6935
vn -0.6935 0.1951 -0.6935
vn -0.0000 0.2722 -0.9623
vn 0.9623 0.2722 -0.0000
vn -0.0000 0.2722 0.9623
vn -0.9623 0.2722 -0.0000
vt 0.126953 0.001953
vt 0.126953 0.164062
vt 0.248047 0.164062
vt 0.248047 0.001953
vt 0.001953 0.001953
vt 0.001953 0.164062
vt 0.123047 0.164062
vt 0.123047 0.001953
vt 0.626953 0.500000
vt 0.748047 0.500000
vt 0.687500 0.662109
vt 0.626953 0.662109
vt 0.748047 0.662109
vt 0.126953 0.832031
vt 0.126953 0.994141
vt 0.248047 0.994141
vt 0.248047 0.832031
vt 0.187500 0.994141
vt 0.248047 0.913086
vt 0.187500 0.832031
vt 0.126953 0.913086
vt 0.217773 0.153203
vt 0.187500 0.164062
vt 0.157227 0.153203
vt 0.135065 0.123535
vt 0.126953 0.083008
vt 0.135065 0.042480
vt 0.157227 0.012812
vt 0.187500 0.001953
vt 0.217773 0.012812
vt 0.239935 0.042480
vt 0.248047 0.083008
vt 0.239935 0.123535
vt 0.217773 0.983281
vt 0.157227 0.983281
vt 0.135065 0.953613
vt 0.135065 0.872559
vt 0.157227 0.842891
vt 0.217773 0.842891
vt 0.239935 0.872559
vt 0.239935 0.953613
vt 0.376953 0.500000
vt 0.376953 0.662109
vt 0.498047 0.662109
vt 0.498047 0.500000
vt 0.001953 0.167969
vt 0.001953 0.330078
vt 0.123047 0.330078
vt 0.123047 0.167969
vt 0.876953 0.001953
vt 0.876953 0.164062
vt 0.998047 0.164062
vt 0.998047 0.001953
vt 0.748047 0.581055
vt 0.687500 0.500000
vt 0.626953 0.581055
vt 0.876953 0.167969
vt 0.876953 0.330078
vt 0.998047 0.330078
vt 0.998047 0.167969
s 0
usemtl kit_atlas_mat
f 1/1/1 2/2/1 4/3/1 3/4/1
f 3/1/2 4/2/2 8/3/2 7/4/2
f 7/4/3 8/3/3 6/2/3 5/1/3
f 5/4/4 6/3/4 2/2/4 1/1/4
f 3/2/5 7/3/5 5/4/5 1/1/5
f 8/3/6 4/2/6 2/1/6 6/4/6
f 9/5/1 10/6/1 12/7/1 11/8/1
f 11/5/2 12/6/2 16/7/2 15/8/2
f 15/8/3 16/7/3 14/6/3 13/5/3
f 13/8/4 14/7/4 10/6/4 9/5/4
f 11/6/5 15/7/5 13/8/5 9/5/5
f 16/7/6 12/6/6 10/5/6 14/8/6
f 17/9/4 18/10/4 19/11/4
f 22/11/2 21/10/2 20/9/2
f 17/9/7 19/12/7 22/13/7 20/10/7
f 19/12/8 18/9/8 21/10/8 22/13/8
f 18/10/5 17/9/5 20/12/5 21/13/5
f 23/1/1 24/2/1 26/3/1 25/4/1
f 25/1/2 26/2/2 30/3/2 29/4/2
f 29/4/3 30/3/3 28/2/3 27/1/3
f 27/4/4 28/3/4 24/2/4 23/1/4
f 25/2/5 29/3/5 27/4/5 23/1/5
f 30/3/6 26/2/6 24/1/6 28/4/6
f 31/1/1 32/2/1 34/3/1 33/4/1
f 33/1/2 34/2/2 38/3/2 37/4/2
f 37/4/3 38/3/3 36/2/3 35/1/3
f 35/4/4 36/3/4 32/2/4 31/1/4
f 33/2/5 37/3/5 35/4/5 31/1/5
f 38/3/6 34/2/6 32/1/6 36/4/6
f 39/1/1 40/2/1 42/3/1 41/4/1
f 41/1/2 42/2/2 46/3/2 45/4/2
f 45/4/3 46/3/3 44/2/3 43/1/3
f 43/4/4 44/3/4 40/2/4 39/1/4
f 41/2/5 45/3/5 43/4/5 39/1/5
f 46/3/6 42/2/6 40/1/6 44/4/6
f 47/14/1 48/15/1 50/16/1 49/17/1
f 49/14/2 50/15/2 54/16/2 53/17/2
f 53/17/3 54/16/3 52/15/3 51/14/3
f 51/17/4 52/16/4 48/15/4 47/14/4
f 49/15/5 53/16/5 51/17/5 47/14/5
f 54/16/6 50/15/6 48/14/6 52/17/6
f 55/14/1 56/15/1 58/16/1 57/17/1
f 57/14/2 58/15/2 62/16/2 61/17/2
f 61/17/3 62/16/3 60/15/3 59/14/3
f 59/17/4 60/16/4 56/15/4 55/14/4
f 57/15/5 61/16/5 59/17/5 55/14/5
f 62/16/6 58/15/6 56/14/6 60/17/6
f 63/1/1 64/2/1 66/3/1 65/4/1
f 65/1/2 66/2/2 70/3/2 69/4/2
f 69/4/3 70/3/3 68/2/3 67/1/3
f 67/4/4 68/3/4 64/2/4 63/1/4
f 65/2/5 69/3/5 67/4/5 63/1/5
f 70/3/6 66/2/6 64/1/6 68/4/6
f 71/1/1 72/2/1 74/3/1 73/4/1
f 73/1/2 74/2/2 78/3/2 77/4/2
f 77/4/3 78/3/3 76/2/3 75/1/3
f 75/4/4 76/3/4 72/2/4 71/1/4
f 73/2/5 77/3/5 75/4/5 71/1/5
f 78/3/6 74/2/6 72/1/6 76/4/6
f 79/1/1 80/2/1 82/3/1 81/4/1
f 81/1/2 82/2/2 86/3/2 85/4/2
f 85/4/3 86/3/3 84/2/3 83/1/3
f 83/4/4 84/3/4 80/2/4 79/1/4
f 81/2/5 85/3/5 83/4/5 79/1/5
f 86/3/6 82/2/6 80/1/6 84/4/6
f 87/14/1 88/15/1 90/16/1 89/17/1
f 89/14/2 90/15/2 94/16/2 93/17/2
f 93/17/3 94/16/3 92/15/3 91/14/3
f 91/17/4 92/16/4 88/15/4 87/14/4
f 89/15/5 93/16/5 91/17/5 87/14/5
f 94/16/6 90/15/6 88/14/6 92/17/6
f 95/14/1 96/15/1 98/16/1 97/17/1
f 97/14/2 98/15/2 102/16/2 101/17/2
f 101/17/3 102/16/3 100/15/3 99/14/3
f 99/17/4 100/16/4 96/15/4 95/14/4
f 97/15/5 101/16/5 99/17/5 95/14/5
f 102/16/6 98/15/6 96/14/6 100/17/6
f 103/1/1 104/2/1 106/3/1 105/4/1
f 105/1/2 106/2/2 110/3/2 109/4/2
f 109/4/3 110/3/3 108/2/3 107/1/3
f 107/4/4 108/3/4 104/2/4 103/1/4
f 105/2/5 109/3/5 107/4/5 103/1/5
f 110/3/6 106/2/6 104/1/6 108/4/6
f 111/5/1 112/6/1 114/7/1 113/8/1
f 113/5/2 114/6/2 118/7/2 117/8/2
f 117/8/3 118/7/3 116/6/3 115/5/3
f 115/8/4 116/7/4 112/6/4 111/5/4
f 113/6/5 117/7/5 115/8/5 111/5/5
f 118/7/6 114/6/6 112/5/6 116/8/6
f 119/1/1 120/2/1 122/3/1 121/4/1
f 121/1/2 122/2/2 126/3/2 125/4/2
f 125/4/3 126/3/3 124/2/3 123/1/3
f 123/4/4 124/3/4 120/2/4 119/1/4
f 121/2/5 125/3/5 123/4/5 119/1/5
f 126/3/6 122/2/6 120/1/6 124/4/6
f 127/1/1 128/2/1 130/3/1 129/4/1
f 129/1/2 130/2/2 134/3/2 133/4/2
f 133/4/3 134/3/3 132/2/3 131/1/3
f 131/4/4 132/3/4 128/2/4 127/1/4
f 129/2/5 133/3/5 131/4/5 127/1/5
f 134/3/6 130/2/6 128/1/6 132/4/6
f 135/1/1 136/2/1 138/3/1 137/4/1
f 137/1/2 138/2/2 142/3/2 141/4/2
f 141/4/3 142/3/3 140/2/3 139/1/3
f 139/4/4 140/3/4 136/2/4 135/1/4
f 137/2/5 141/3/5 139/4/5 135/1/5
f 142/3/6 138/2/6 136/1/6 140/4/6
f 143/14/1 144/15/1 146/16/1 145/17/1
f 145/14/2 146/15/2 150/16/2 149/17/2
f 149/17/3 150/16/3 148/15/3 147/14/3
f 147/17/4 148/16/4 144/15/4 143/14/4
f 145/15/5 149/16/5 147/17/5 143/14/5
f 150/16/6 146/15/6 144/14/6 148/17/6
f 151/17/9 155/15/9 152/14/9
f 152/17/10 155/16/10 153/14/10
f 151/18/5 152/19/5 153/20/5 154/21/5
f 153/14/11 155/16/11 154/17/11
f 154/14/12 155/15/12 151/17/12
f 156/1/1 157/2/1 159/3/1 158/4/1
f 158/1/2 159/2/2 163/3/2 162/4/2
f 162/4/3 163/3/3 161/2/3 160/1/3
f 160/4/4 161/3/4 157/2/4 156/1/4
f 158/2/5 162/3/5 160/4/5 156/1/5
f 163/3/6 159/2/6 157/1/6 161/4/6
f 164/14/1 165/15/1 167/16/1 166/17/1
f 166/14/2 167/15/2 171/16/2 170/17/2
f 170/17/3 171/16/3 169/15/3 168/14/3
f 168/17/4 169/16/4 165/15/4 164/14/4
f 166/15/5 170/16/5 168/17/5 164/14/5
f 171/16/6 167/15/6 165/14/6 169/17/6
f 172/17/9 176/15/9 173/14/9
f 173/17/10 176/16/10 174/14/10
f 172/18/5 173/19/5 174/20/5 175/21/5
f 174/14/11 176/16/11 175/17/11
f 175/14/12 176/15/12 172/17/12
f 177/1/13 178/2/13 180/3/13 179/4/13
f 179/4/14 180/3/14 182/2/14 181/1/14
f 181/4/15 182/3/15 184/2/15 183/1/15
f 183/4/16 184/3/16 186/2/16 185/1/16
f 185/4/17 186/3/17 188/2/17 187/1/17
f 187/4/18 188/3/18 190/2/18 189/1/18
f 189/4/19 190/3/19 192/2/19 191/1/19
f 191/1/20 192/2/20 194/3/20 193/4/20
f 193/1/21 194/2/21 196/3/21 195/4/21
f 195/1/22 196/2/22 198/3/22 197/4/22
f 180/22/4 178/23/4 200/24/4 198/25/4 196/26/4 194/27/4 192/28/4 190/29/4 188/30/4 186/31/4 184/32/4 182/33/4
f 197/1/23 198/2/23 200/3/23 199/4/23
f 199/1/24 200/2/24 178/3/24 177/4/24
f 177/23/2 179/22/2 181/33/2 183/32/2 185/31/2 187/30/2 189/29/2 191/28/2 193/27/2 195/26/2 197/25/2 199/24/2
f 201/14/13 202/15/13 204/16/13 203/17/13
f 203/17/14 204/16/14 206/15/14 205/14/14
f 205/17/15 206/16/15 208/15/15 207/14/15
f 207/17/16 208/16/16 210/15/16 209/14/16
f 209/17/17 210/16/17 212/15/17 211/14/17
f 211/17/18 212/16/18 214/15/18 213/14/18
f 213/17/19 214/16/19 216/15/19 215/14/19
f 215/14/20 216/15/20 218/16/20 217/17/20
f 217/14/21 218/15/21 220/16/21 219/17/21
f 219/14/22 220/15/22 222/16/22 221/17/22
f 204/34/4 202/18/4 224/35/4 222/36/4 220/21/4 218/37/4 216/38/4 214/20/4 212/39/4 210/40/4 208/19/4 206/41/4
f 221/14/23 222/15/23 224/16/23 223/17/23
f 223/14/24 224/15/24 202/16/24 201/17/24
f 201/18/2 203/34/2 205/41/2 207/19/2 209/40/2 211/39/2 213/20/2 215/38/2 217/37/2 219/21/2 221/36/2 223/35/2
f 225/1/1 226/2/1 228/3/1 227/4/1
f 227/1/2 228/2/2 232/3/2 231/4/2
f 231/4/3 232/3/3 230/2/3 229/1/3
f 229/4/4 230/3/4 226/2/4 225/1/4
f 227/2/5 231/3/5 229/4/5 225/1/5
f 232/3/6 228/2/6 226/1/6 230/4/6
f 233/1/25 234/2/25 236/3/25 235/4/25
f 235/1/2 236/2/2 240/3/2 239/4/2
f 239/4/26 240/3/26 238/2/26 237/1/26
f 237/4/4 238/3/4 234/2/4 233/1/4
f 235/2/27 239/3/27 237/4/27 233/1/27
f 240/3/28 236/2/28 234/1/28 238/4/28
f 241/1/29 242/2/29 244/3/29 243/4/29
f 243/1/2 244/2/2 248/3/2 247/4/2
f 247/4/30 248/3/30 246/2/30 245/1/30
f 245/4/4 246/3/4 242/2/4 241/1/4
f 243/2/31 247/3/31 245/4/31 241/1/31
f 248/3/32 244/2/32 242/1/32 246/4/32
f 249/1/6 250/2/6 252/3/6 251/4/6
f 251/1/2 252/2/2 256/3/2 255/4/2
f 255/4/5 256/3/5 254/2/5 253/1/5
f 253/4/4 254/3/4 250/2/4 249/1/4
f 251/2/1 255/3/1 253/4/1 249/1/1
f 256/3/3 252/2/3 250/1/3 254/4/3
f 257/1/28 258/2/28 260/3/28 259/4/28
f 259/1/2 260/2/2 264/3/2 263/4/2
f 263/4/27 264/3/27 262/2/27 261/1/27
f 261/4/4 262/3/4 258/2/4 257/1/4
f 259/2/25 263/3/25 261/4/25 257/1/25
f 264/3/26 260/2/26 258/1/26 262/4/26
f 265/1/32 266/2/32 268/3/32 267/4/32
f 267/1/2 268/2/2 272/3/2 271/4/2
f 271/4/31 272/3/31 270/2/31 269/1/31
f 269/4/4 270/3/4 266/2/4 265/1/4
f 267/2/29 271/3/29 269/4/29 265/1/29
f 272/3/30 268/2/30 266/1/30 270/4/30
f 273/5/1 274/6/1 276/7/1 275/8/1
f 275/5/2 276/6/2 280/7/2 279/8/2
f 279/8/3 280/7/3 278/6/3 277/5/3
f 277/8/4 278/7/4 274/6/4 273/5/4
f 275/6/5 279/7/5 277/8/5 273/5/5
f 280/7/6 276/6/6 274/5/6 278/8/6
f 281/5/33 282/6/33 284/7/33 283/8/33
f 283/5/34 284/6/34 288/7/34 287/8/34
f 287/8/35 288/7/35 286/6/35 285/5/35
f 285/8/36 286/7/36 282/6/36 281/5/36
f 283/6/5 287/7/5 285/8/5 281/5/5
f 288/7/6 284/6/6 282/5/6 286/8/6
f 289/5/37 290/6/37 292/7/37 291/8/37
f 291/5/38 292/6/38 296/7/38 295/8/38
f 295/8/39 296/7/39 294/6/39 293/5/39
f 293/8/40 294/7/40 290/6/40 289/5/40
f 291/6/5 295/7/5 293/8/5 289/5/5
f 296/7/6 292/6/6 290/5/6 294/8/6
f 297/5/4 298/6/4 300/7/4 299/8/4
f 299/5/1 300/6/1 304/7/1 303/8/1
f 303/8/2 304/7/2 302/6/2 301/5/2
f 301/8/3 302/7/3 298/6/3 297/5/3
f 299/6/5 303/7/5 301/8/5 297/5/5
f 304/7/6 300/6/6 298/5/6 302/8/6
f 305/5/36 306/6/36 308/7/36 307/8/36
f 307/5/33 308/6/33 312/7/33 311/8/33
f 311/8/34 312/7/34 310/6/34 309/5/34
f 309/8/35 310/7/35 306/6/35 305/5/35
f 307/6/5 311/7/5 309/8/5 305/5/5
f 312/7/6 308/6/6 306/5/6 310/8/6
f 313/5/40 314/6/40 316/7/40 315/8/40
f 315/5/37 316/6/37 320/7/37 319/8/37
f 319/8/38 320/7/38 318/6/38 317/5/38
f 317/8/39 318/7/39 314/6/39 313/5/39
f 315/6/5 319/7/5 317/8/5 313/5/5
f 320/7/6 316/6/6 314/5/6 318/8/6
f 321/5/3 322/6/3 324/7/3 323/8/3
f 323/5/4 324/6/4 328/7/4 327/8/4
f 327/8/1 328/7/1 326/6/1 325/5/1
f 325/8/2 326/7/2 322/6/2 321/5/2
f 323/6/5 327/7/5 325/8/5 321/5/5
f 328/7/6 324/6/6 322/5/6 326/8/6
f 329/1/1 330/2/1 332/3/1 331/4/1
f 331/1/2 332/2/2 336/3/2 335/4/2
f 335/4/3 336/3/3 334/2/3 333/1/3
f 333/4/4 334/3/4 330/2/4 329/1/4
f 331/2/5 335/3/5 333/4/5 329/1/5
f 336/3/6 332/2/6 330/1/6 334/4/6
f 337/1/33 338/2/33 340/3/33 339/4/33
f 339/1/34 340/2/34 344/3/34 343/4/34
f 343/4/35 344/3/35 342/2/35 341/1/35
f 341/4/36 342/3/36 338/2/36 337/1/36
f 339/2/5 343/3/5 341/4/5 337/1/5
f 344/3/6 340/2/6 338/1/6 342/4/6
f 345/1/37 346/2/37 348/3/37 347/4/37
f 347/1/38 348/2/38 352/3/38 351/4/38
f 351/4/39 352/3/39 350/2/39 349/1/39
f 349/4/40 350/3/40 346/2/40 345/1/40
f 347/2/5 351/3/5 349/4/5 345/1/5
f 352/3/6 348/2/6 346/1/6 350/4/6
f 353/1/4 354/2/4 356/3/4 355/4/4
f 355/1/1 356/2/1 360/3/1 359/4/1
f 359/4/2 360/3/2 358/2/2 357/1/2
f 357/4/3 358/3/3 354/2/3 353/1/3
f 355/2/5 359/3/5 357/4/5 353/1/5
f 360/3/6 356/2/6 354/1/6 358/4/6
f 361/1/36 362/2/36 364/3/36 363/4/36
f 363/1/33 364/2/33 368/3/33 367/4/33
f 367/4/34 368/3/34 366/2/34 365/1/34
f 365/4/35 366/3/35 362/2/35 361/1/35
f 363/2/5 367/3/5 365/4/5 361/1/5
f 368/3/6 364/2/6 362/1/6 366/4/6
f 369/1/40 370/2/40 372/3/40 371/4/40
f 371/1/37 372/2/37 376/3/37 375/4/37
f 375/4/38 376/3/38 374/2/38 373/1/38
f 373/4/39 374/3/39 370/2/39 369/1/39
f 371/2/5 375/3/5 373/4/5 369/1/5
f 376/3/6 372/2/6 370/1/6 374/4/6
f 377/1/3 378/2/3 380/3/3 379/4/3
f 379/1/4 380/2/4 384/3/4 383/4/4
f 383/4/1 384/3/1 382/2/1 381/1/1
f 381/4/2 382/3/2 378/2/2 377/1/2
f 379/2/5 383/3/5 381/4/5 377/1/5
f 384/3/6 380/2/6 378/1/6 382/4/6
f 385/42/1 386/43/1 388/44/1 387/45/1
f 387/42/2 388/43/2 392/44/2 391/45/2
f 391/45/3 392/44/3 390/43/3 389/42/3
f 389/45/4 390/44/4 386/43/4 385/42/4
f 387/43/5 391/44/5 389/45/5 385/42/5
f 392/44/6 388/43/6 386/42/6 390/45/6
f 393/46/1 394/47/1 396/48/1 395/49/1
f 395/46/2 396/47/2 400/48/2 399/49/2
f 399/49/3 400/48/3 398/47/3 397/46/3
f 397/49/4 398/48/4 394/47/4 393/46/4
f 395/47/5 399/48/5 397/49/5 393/46/5
f 400/48/6 396/47/6 394/46/6 398/49/6
f 401/46/1 402/47/1 404/48/1 403/49/1
f 403/46/2 404/47/2 408/48/2 407/49/2
f 407/49/3 408/48/3 406/47/3 405/46/3
f 405/49/4 406/48/4 402/47/4 401/46/4
f 403/47/5 407/48/5 405/49/5 401/46/5
f 408/48/6 404/47/6 402/46/6 406/49/6
f 409/50/1 410/51/1 412/52/1 411/53/1
f 411/50/2 412/51/2 416/52/2 415/53/2
f 415/53/3 416/52/3 414/51/3 413/50/3
f 413/53/4 414/52/4 410/51/4 409/50/4
f 411/51/5 415/52/5 413/53/5 409/50/5
f 416/52/6 412/51/6 410/50/6 414/53/6
f 417/50/1 418/51/1 420/52/1 419/53/1
f 419/50/2 420/51/2 424/52/2 423/53/2
f 423/53/3 424/52/3 422/51/3 421/50/3
f 421/53/4 422/52/4 418/51/4 417/50/4
f 419/51/5 423/52/5 421/53/5 417/50/5
f 424/52/6 420/51/6 418/50/6 422/53/6
f 425/1/1 426/2/1 428/3/1 427/4/1
f 427/1/2 428/2/2 432/3/2 431/4/2
f 431/4/3 432/3/3 430/2/3 429/1/3
f 429/4/4 430/3/4 426/2/4 425/1/4
f 427/2/5 431/3/5 429/4/5 425/1/5
f 432/3/6 428/2/6 426/1/6 430/4/6
f 433/5/1 434/6/1 436/7/1 435/8/1
f 435/5/2 436/6/2 440/7/2 439/8/2
f 439/8/3 440/7/3 438/6/3 437/5/3
f 437/8/4 438/7/4 434/6/4 433/5/4
f 435/6/5 439/7/5 437/8/5 433/5/5
f 440/7/6 436/6/6 434/5/6 438/8/6
f 441/4/41 445/2/41 442/1/41
f 442/4/42 445/3/42 443/1/42
f 441/23/5 442/32/5 443/29/5 444/26/5
f 443/1/43 445/3/43 444/4/43
f 444/1/44 445/2/44 441/4/44
f 446/5/1 447/6/1 449/7/1 448/8/1
f 448/5/2 449/6/2 453/7/2 452/8/2
f 452/8/3 453/7/3 451/6/3 450/5/3
f 450/8/4 451/7/4 447/6/4 446/5/4
f 448/6/5 452/7/5 450/8/5 446/5/5
f 453/7/6 449/6/6 447/5/6 451/8/6
f 454/4/41 458/2/41 455/1/41
f 455/4/42 458/3/42 456/1/42
f 454/23/5 455/32/5 456/29/5 457/26/5
f 456/1/43 458/3/43 457/4/43
f 457/1/44 458/2/44 454/4/44
f 459/5/1 460/6/1 462/7/1 461/8/1
f 461/5/2 462/6/2 466/7/2 465/8/2
f 465/8/3 466/7/3 464/6/3 463/5/3
f 463/8/4 464/7/4 460/6/4 459/5/4
f 461/6/5 465/7/5 463/8/5 459/5/5
f 466/7/6 462/6/6 460/5/6 464/8/6
f 467/4/41 471/2/41 468/1/41
f 468/4/42 471/3/42 469/1/42
f 467/23/5 468/32/5 469/29/5 470/26/5
f 469/1/43 471/3/43 470/4/43
f 470/1/44 471/2/44 467/4/44
f 472/5/1 473/6/1 475/7/1 474/8/1
f 474/5/2 475/6/2 479/7/2 478/8/2
f 478/8/3 479/7/3 477/6/3 476/5/3
f 476/8/4 477/7/4 473/6/4 472/5/4
f 474/6/5 478/7/5 476/8/5 472/5/5
f 479/7/6 475/6/6 473/5/6 477/8/6
f 480/4/41 484/2/41 481/1/41
f 481/4/42 484/3/42 482/1/42
f 480/23/5 481/32/5 482/29/5 483/26/5
f 482/1/43 484/3/43 483/4/43
f 483/1/44 484/2/44 480/4/44
f 485/10/45 489/12/45 486/9/45
f 486/10/46 489/13/46 487/9/46
f 485/11/5 486/54/5 487/55/5 488/56/5
f 487/9/47 489/13/47 488/10/47
f 488/9/48 489/12/48 485/10/48
f 490/5/1 491/6/1 493/7/1 492/8/1
f 492/5/2 493/6/2 497/7/2 496/8/2
f 496/8/3 497/7/3 495/6/3 494/5/3
f 494/8/4 495/7/4 491/6/4 490/5/4
f 492/6/5 496/7/5 494/8/5 490/5/5
f 497/7/6 493/6/6 491/5/6 495/8/6
f 498/5/1 499/6/1 501/7/1 500/8/1
f 500/5/2 501/6/2 505/7/2 504/8/2
f 504/8/3 505/7/3 503/6/3 502/5/3
f 502/8/4 503/7/4 499/6/4 498/5/4
f 500/6/5 504/7/5 502/8/5 498/5/5
f 505/7/6 501/6/6 499/5/6 503/8/6
f 506/57/1 507/58/1 509/59/1 508/60/1
f 508/57/2 509/58/2 513/59/2 512/60/2
f 512/60/3 513/59/3 511/58/3 510/57/3
f 510/60/4 511/59/4 507/58/4 506/57/4
f 508/58/5 512/59/5 510/60/5 506/57/5
f 513/59/6 509/58/6 507/57/6 511/60/6
f 514/57/1 515/58/1 517/59/1 516/60/1
f 516/57/2 517/58/2 521/59/2 520/60/2
f 520/60/3 521/59/3 519/58/3 518/57/3
f 518/60/4 519/59/4 515/58/4 514/57/4
f 516/58/5 520/59/5 518/60/5 514/57/5
f 521/59/6 517/58/6 515/57/6 519/60/6
