# Blender 5.0.1
# www.blender.org
mtllib cottage.mtl
o cottage
v -0.630610 -0.023876 0.566595
v -0.630245 0.215895 0.577058
v -0.668963 0.024105 -0.531688
v -0.668598 0.263876 -0.521226
v 0.668598 -0.023876 0.521226
v 0.668963 0.215895 0.531688
v 0.630245 0.024105 -0.577058
v 0.630610 0.263876 -0.566595
v -0.659280 0.149648 0.605224
v -0.659143 0.239563 0.609148
v -0.699724 0.200247 -0.552966
v -0.699587 0.290161 -0.549042
v 0.699892 0.149648 0.557761
v 0.700029 0.239563 0.561684
v 0.659447 0.200247 -0.600429
v 0.659584 0.290161 -0.596506
v -0.591664 0.217640 0.535724
v -0.590598 0.916974 0.566239
v -0.627228 0.262132 -0.482684
v -0.626162 0.961466 -0.452169
v 0.627593 0.217640 0.493147
v 0.628659 0.916974 0.523662
v 0.592029 0.262132 -0.525262
v 0.593095 0.961466 -0.494747
v -0.610954 0.216768 0.556391
v -0.609889 0.916101 0.586906
v -0.613744 0.220257 0.476516
v -0.612678 0.919591 0.507031
v -0.531003 0.216768 0.553599
v -0.529938 0.916101 0.584114
v -0.533792 0.220257 0.473724
v -0.532727 0.919591 0.504239
v -0.645123 0.259515 -0.422080
v -0.644058 0.958848 -0.391565
v -0.647913 0.263004 -0.501955
v -0.646847 0.962338 -0.471440
v -0.565172 0.259515 -0.424872
v -0.564107 0.958848 -0.394357
v -0.567961 0.263004 -0.504747
v -0.566896 0.962338 -0.474232
v 0.568327 0.216768 0.515209
v 0.569392 0.916101 0.545724
v 0.565538 0.220257 0.435334
v 0.566603 0.919591 0.465849
v 0.648278 0.216768 0.512418
v 0.649344 0.916101 0.542933
v 0.645489 0.220257 0.432542
v 0.646554 0.919591 0.463057
v 0.534158 0.259515 -0.463261
v 0.535223 0.958848 -0.432746
v 0.531369 0.263004 -0.543137
v 0.532434 0.962338 -0.512622
v 0.614109 0.259515 -0.466053
v 0.615175 0.958848 -0.435538
v 0.611320 0.263004 -0.545929
v 0.612385 0.962338 -0.515414
v -0.715987 0.911303 0.700573
v 0.763112 0.911303 0.648922
v 0.024400 1.460780 0.698724
v -0.760615 0.967136 -0.577430
v 0.718483 0.967136 -0.629081
v -0.020229 1.516613 -0.579279
v -0.590860 0.535675 0.128934
v -0.590373 0.855370 0.142883
v -0.600623 0.547888 -0.150629
v -0.600136 0.867583 -0.136680
v -0.540891 0.535675 0.127189
v -0.540404 0.855370 0.141138
v -0.550653 0.547888 -0.152374
v -0.550166 0.867583 -0.138425
v -0.616845 0.566955 0.101161
v -0.616450 0.826707 0.112495
v -0.624516 0.576551 -0.118496
v -0.624120 0.836303 -0.107162
v -0.576870 0.566955 0.099765
v -0.576474 0.826707 0.111099
v -0.584540 0.576551 -0.119892
v -0.584145 0.836303 -0.108558
v 0.548445 0.535675 0.089148
v 0.548932 0.855370 0.103098
v 0.538683 0.547888 -0.190415
v 0.539170 0.867583 -0.176465
v 0.598415 0.535675 0.087403
v 0.598902 0.855370 0.101353
v 0.588652 0.547888 -0.192160
v 0.589139 0.867583 -0.178210
v 0.561935 0.577856 0.080843
v 0.562042 0.647790 0.083894
v 0.585476 0.589546 -0.187875
v 0.585582 0.659479 -0.184824
v 0.621706 0.577537 0.086065
v 0.621813 0.647471 0.089117
v 0.645247 0.589227 -0.182653
v 0.645354 0.659160 -0.179601
v 0.578443 0.660774 0.088558
v 0.578550 0.730707 0.091610
v 0.569029 0.672551 -0.181020
v 0.569136 0.742484 -0.177969
v 0.638407 0.660774 0.086464
v 0.638513 0.730707 0.089516
v 0.628993 0.672551 -0.183114
v 0.629099 0.742484 -0.180063
v 0.595328 0.743779 0.094249
v 0.595434 0.813712 0.097300
v 0.553100 0.755468 -0.172172
v 0.553206 0.825402 -0.169121
v 0.654589 0.744098 0.084870
v 0.654696 0.814031 0.087921
v 0.612361 0.755787 -0.181551
v 0.612468 0.825721 -0.178500
v -0.611236 0.082009 1.121404
v -0.611023 0.221876 1.127507
v -0.633202 0.109489 0.492387
v -0.632989 0.249356 0.498490
v 0.687972 0.082009 1.076035
v 0.688185 0.221876 1.082138
v 0.666006 0.109489 0.447018
v 0.666220 0.249356 0.453121
v -0.533224 0.184531 1.063065
v -0.532098 0.923827 1.095324
v -0.536014 0.188021 0.983190
v -0.534887 0.927316 1.015449
v -0.453273 0.184531 1.060273
v -0.452147 0.923827 1.092532
v -0.456062 0.188021 0.980398
v -0.454936 0.927316 1.012657
v -0.521468 0.882993 1.113200
v -0.521376 0.942935 1.115816
v -0.540644 0.906983 0.564058
v -0.540553 0.966926 0.566674
v -0.461504 0.882993 1.111106
v -0.461413 0.942935 1.113722
v -0.480681 0.906983 0.561964
v -0.480589 0.966926 0.564580
v 0.526130 0.184531 1.026072
v 0.527256 0.923827 1.058330
v 0.523341 0.188021 0.946197
v 0.524467 0.927316 0.978455
v 0.606081 0.184531 1.023280
v 0.607208 0.923827 1.055539
v 0.603292 0.188021 0.943405
v 0.604418 0.927316 0.975663
v 0.537887 0.882993 1.076207
v 0.537978 0.942935 1.078822
v 0.518710 0.906983 0.527065
v 0.518802 0.966926 0.529680
v 0.597850 0.882993 1.074113
v 0.597942 0.942935 1.076728
v 0.578674 0.906983 0.524971
v 0.578765 0.966926 0.527586
v -0.688229 0.999853 1.208907
v -0.688682 1.058431 1.195928
v -0.714465 0.833195 0.457617
v -0.714918 0.891772 0.444639
v 0.770882 0.999853 1.157954
v 0.770428 1.058431 1.144975
v 0.744646 0.833195 0.406664
v 0.744193 0.891772 0.393685
v -0.153145 0.109053 0.485620
v -0.152141 0.768425 0.514391
v -0.155237 0.111670 0.425714
v -0.154233 0.771042 0.454485
v 0.186647 0.109053 0.473754
v 0.187652 0.768425 0.502525
v 0.184556 0.111670 0.413848
v 0.185560 0.771042 0.442619
v -0.162049 0.143124 0.562536
v -0.096342 0.759140 0.587154
v -0.163792 0.145305 0.512614
v -0.098085 0.761321 0.537232
v 0.136079 0.111795 0.550757
v 0.201785 0.727812 0.575375
v 0.134335 0.113976 0.500835
v 0.200042 0.729993 0.525453
v -0.141276 0.186475 0.588744
v -0.135977 0.236154 0.590729
v -0.142671 0.188220 0.548806
v -0.137372 0.237898 0.550792
v 0.176726 0.153058 0.576179
v 0.182025 0.202736 0.578165
v 0.175332 0.154802 0.536242
v 0.180631 0.204481 0.538227
v -0.140911 0.426246 0.599206
v -0.135612 0.475925 0.601192
v -0.142305 0.427991 0.559269
v -0.137006 0.477670 0.561254
v 0.177092 0.392829 0.586642
v 0.182391 0.442508 0.588627
v 0.175697 0.394574 0.546704
v 0.180996 0.444253 0.548689
v -0.140545 0.666018 0.609669
v -0.135246 0.715697 0.611654
v -0.141940 0.667763 0.569731
v -0.136641 0.717442 0.571716
v 0.177457 0.632601 0.597104
v 0.182756 0.682279 0.599089
v 0.176062 0.634346 0.557166
v 0.181361 0.684024 0.559151
v 0.108142 0.406004 0.604648
v 0.114500 0.465619 0.607031
v 0.106398 0.408185 0.554726
v 0.112757 0.467800 0.557109
v 0.147892 0.401827 0.603078
v 0.154251 0.461442 0.605460
v 0.146148 0.404008 0.553156
v 0.152507 0.463623 0.555538
v -0.375758 0.180027 -0.444975
v -0.374997 0.679551 -0.423178
v -0.390402 0.198347 -0.864319
v -0.389641 0.697871 -0.842523
v 0.343803 0.180027 -0.470102
v 0.344564 0.679551 -0.448306
v 0.329159 0.198347 -0.889447
v 0.329920 0.697871 -0.867651
v -0.315474 0.620044 -0.437872
v -0.314987 0.939740 -0.423923
v -0.329420 0.637492 -0.837248
v -0.328933 0.957188 -0.823298
v 0.284161 0.620044 -0.458812
v 0.284648 0.939740 -0.444862
v 0.270214 0.637492 -0.858188
v 0.270701 0.957188 -0.844238
v -0.245818 0.880669 -0.448950
v -0.245392 1.160403 -0.436744
v -0.258370 0.896372 -0.808388
v -0.257944 1.176106 -0.796182
v 0.213902 0.880669 -0.465004
v 0.214328 1.160403 -0.452798
v 0.201350 0.896372 -0.824442
v 0.201776 1.176106 -0.812236
v -0.186217 1.101332 -0.461422
v -0.185791 1.381066 -0.449216
v -0.197374 1.115291 -0.780923
v -0.196948 1.395024 -0.768717
v 0.153576 1.101332 -0.473288
v 0.154002 1.381066 -0.461082
v 0.142419 1.115291 -0.792789
v 0.142845 1.395024 -0.780583
v -0.136610 1.321995 -0.473546
v -0.135849 1.821519 -0.451749
v -0.146372 1.334209 -0.753109
v -0.145611 1.833733 -0.731312
v 0.103244 1.321995 -0.481921
v 0.104005 1.821519 -0.460125
v 0.093482 1.334209 -0.761485
v 0.094243 1.833733 -0.739688
v -0.165133 1.820647 -0.430733
v -0.165011 1.900571 -0.427246
v -0.176290 1.834605 -0.750234
v -0.176168 1.914529 -0.746747
v 0.134684 1.820647 -0.441203
v 0.134806 1.900571 -0.437716
v 0.123527 1.834605 -0.760704
v 0.123649 1.914529 -0.757217
vn -0.9994 -0.0000 0.0349
vn -0.0349 0.0436 -0.9984
vn 0.9994 -0.0000 -0.0349
vn 0.0349 -0.0436 0.9984
vn -0.0015 -0.9990 -0.0436
vn 0.0015 0.9990 0.0436
vn -0.5949 0.8018 0.0558
vn 0.5974 0.8018 0.0142
vn -0.9962 0.0053 -0.0870
vn 0.0872 0.0433 -0.9953
vn 0.9962 -0.0053 0.0870
vn -0.0872 -0.0433 0.9953
vn -0.9877 -0.0053 0.1563
vn -0.1564 0.0433 -0.9867
vn 0.9877 0.0053 -0.1563
vn 0.1564 -0.0433 0.9867
vn -0.0341 -0.2164 -0.9757
vn 0.0341 0.2164 0.9757
vn 0.0076 -0.9763 0.2163
vn -0.0076 0.9763 -0.2163
vn -0.9938 0.1044 0.0393
vn 0.9938 -0.1044 -0.0393
vn -0.1060 -0.9936 -0.0397
vn 0.1060 0.9936 0.0397
vt 0.375000 0.000000
vt 0.625000 0.000000
vt 0.625000 0.250000
vt 0.375000 0.250000
vt 0.625000 0.500000
vt 0.375000 0.500000
vt 0.625000 0.750000
vt 0.375000 0.750000
vt 0.625000 1.000000
vt 0.375000 1.000000
vt 0.125000 0.500000
vt 0.125000 0.750000
vt 0.875000 0.500000
vt 0.875000 0.750000
vt 0.000000 0.000000
s 0
usemtl stone
f 1/1/1 2/2/1 4/3/1 3/4/1
f 3/4/2 4/3/2 8/5/2 7/6/2
f 7/6/3 8/5/3 6/7/3 5/8/3
f 5/8/4 6/7/4 2/9/4 1/10/4
f 3/11/5 7/6/5 5/8/5 1/12/5
f 8/5/6 4/13/6 2/14/6 6/7/6
f 207/1/1 208/2/1 210/3/1 209/4/1
f 209/4/2 210/3/2 214/5/2 213/6/2
f 213/6/3 214/5/3 212/7/3 211/8/3
f 211/8/4 212/7/4 208/9/4 207/10/4
f 209/11/5 213/6/5 211/8/5 207/12/5
f 214/5/6 210/13/6 208/14/6 212/7/6
f 223/1/1 224/2/1 226/3/1 225/4/1
f 225/4/2 226/3/2 230/5/2 229/6/2
f 229/6/3 230/5/3 228/7/3 227/8/3
f 227/8/4 228/7/4 224/9/4 223/10/4
f 225/11/5 229/6/5 227/8/5 223/12/5
f 230/5/6 226/13/6 224/14/6 228/7/6
f 239/1/1 240/2/1 242/3/1 241/4/1
f 241/4/2 242/3/2 246/5/2 245/6/2
f 245/6/3 246/5/3 244/7/3 243/8/3
f 243/8/4 244/7/4 240/9/4 239/10/4
f 241/11/5 245/6/5 243/8/5 239/12/5
f 246/5/6 242/13/6 240/14/6 244/7/6
f 247/1/1 248/2/1 250/3/1 249/4/1
f 249/4/2 250/3/2 254/5/2 253/6/2
f 253/6/3 254/5/3 252/7/3 251/8/3
f 251/8/4 252/7/4 248/9/4 247/10/4
f 249/11/5 253/6/5 251/8/5 247/12/5
f 254/5/6 250/13/6 248/14/6 252/7/6
usemtl moss
f 9/1/1 10/2/1 12/3/1 11/4/1
f 11/4/2 12/3/2 16/5/2 15/6/2
f 15/6/3 16/5/3 14/7/3 13/8/3
f 13/8/4 14/7/4 10/9/4 9/10/4
f 11/11/5 15/6/5 13/8/5 9/12/5
f 16/5/6 12/13/6 10/14/6 14/7/6
usemtl charwood
f 17/1/1 18/2/1 20/3/1 19/4/1
f 19/4/2 20/3/2 24/5/2 23/6/2
f 23/6/3 24/5/3 22/7/3 21/8/3
f 21/8/4 22/7/4 18/9/4 17/10/4
f 19/11/5 23/6/5 21/8/5 17/12/5
f 24/5/6 20/13/6 18/14/6 22/7/6
usemtl wood_dk
f 25/1/1 26/2/1 28/3/1 27/4/1
f 27/4/2 28/3/2 32/5/2 31/6/2
f 31/6/3 32/5/3 30/7/3 29/8/3
f 29/8/4 30/7/4 26/9/4 25/10/4
f 27/11/5 31/6/5 29/8/5 25/12/5
f 32/5/6 28/13/6 26/14/6 30/7/6
f 33/1/1 34/2/1 36/3/1 35/4/1
f 35/4/2 36/3/2 40/5/2 39/6/2
f 39/6/3 40/5/3 38/7/3 37/8/3
f 37/8/4 38/7/4 34/9/4 33/10/4
f 35/11/5 39/6/5 37/8/5 33/12/5
f 40/5/6 36/13/6 34/14/6 38/7/6
f 41/1/1 42/2/1 44/3/1 43/4/1
f 43/4/2 44/3/2 48/5/2 47/6/2
f 47/6/3 48/5/3 46/7/3 45/8/3
f 45/8/4 46/7/4 42/9/4 41/10/4
f 43/11/5 47/6/5 45/8/5 41/12/5
f 48/5/6 44/13/6 42/14/6 46/7/6
f 49/1/1 50/2/1 52/3/1 51/4/1
f 51/4/2 52/3/2 56/5/2 55/6/2
f 55/6/3 56/5/3 54/7/3 53/8/3
f 53/8/4 54/7/4 50/9/4 49/10/4
f 51/11/5 55/6/5 53/8/5 49/12/5
f 56/5/6 52/13/6 50/14/6 54/7/6
f 87/1/9 88/2/9 90/3/9 89/4/9
f 89/4/10 90/3/10 94/5/10 93/6/10
f 93/6/11 94/5/11 92/7/11 91/8/11
f 91/8/12 92/7/12 88/9/12 87/10/12
f 89/11/5 93/6/5 91/8/5 87/12/5
f 94/5/6 90/13/6 88/14/6 92/7/6
f 95/1/1 96/2/1 98/3/1 97/4/1
f 97/4/2 98/3/2 102/5/2 101/6/2
f 101/6/3 102/5/3 100/7/3 99/8/3
f 99/8/4 100/7/4 96/9/4 95/10/4
f 97/11/5 101/6/5 99/8/5 95/12/5
f 102/5/6 98/13/6 96/14/6 100/7/6
f 103/1/13 104/2/13 106/3/13 105/4/13
f 105/4/14 106/3/14 110/5/14 109/6/14
f 109/6/15 110/5/15 108/7/15 107/8/15
f 107/8/16 108/7/16 104/9/16 103/10/16
f 105/11/5 109/6/5 107/8/5 103/12/5
f 110/5/6 106/13/6 104/14/6 108/7/6
f 119/1/1 120/2/1 122/3/1 121/4/1
f 121/4/2 122/3/2 126/5/2 125/6/2
f 125/6/3 126/5/3 124/7/3 123/8/3
f 123/8/4 124/7/4 120/9/4 119/10/4
f 121/11/5 125/6/5 123/8/5 119/12/5
f 126/5/6 122/13/6 120/14/6 124/7/6
f 127/1/1 128/2/1 130/3/1 129/4/1
f 129/4/2 130/3/2 134/5/2 133/6/2
f 133/6/3 134/5/3 132/7/3 131/8/3
f 131/8/4 132/7/4 128/9/4 127/10/4
f 129/11/5 133/6/5 131/8/5 127/12/5
f 134/5/6 130/13/6 128/14/6 132/7/6
f 135/1/1 136/2/1 138/3/1 137/4/1
f 137/4/2 138/3/2 142/5/2 141/6/2
f 141/6/3 142/5/3 140/7/3 139/8/3
f 139/8/4 140/7/4 136/9/4 135/10/4
f 137/11/5 141/6/5 139/8/5 135/12/5
f 142/5/6 138/13/6 136/14/6 140/7/6
f 143/1/1 144/2/1 146/3/1 145/4/1
f 145/4/2 146/3/2 150/5/2 149/6/2
f 149/6/3 150/5/3 148/7/3 147/8/3
f 147/8/4 148/7/4 144/9/4 143/10/4
f 145/11/5 149/6/5 147/8/5 143/12/5
f 150/5/6 146/13/6 144/14/6 148/7/6
f 167/1/21 168/2/21 170/3/21 169/4/21
f 169/4/2 170/3/2 174/5/2 173/6/2
f 173/6/22 174/5/22 172/7/22 171/8/22
f 171/8/4 172/7/4 168/9/4 167/10/4
f 169/11/23 173/6/23 171/8/23 167/12/23
f 174/5/24 170/13/24 168/14/24 172/7/24
usemtl thatch_dk
f 57/15/4 58/15/4 59/15/4
f 62/15/2 61/15/2 60/15/2
f 57/15/7 59/15/7 62/15/7 60/15/7
f 59/15/8 58/15/8 61/15/8 62/15/8
f 58/15/5 57/15/5 60/15/5 61/15/5
f 151/1/1 152/2/1 154/3/1 153/4/1
f 153/4/17 154/3/17 158/5/17 157/6/17
f 157/6/3 158/5/3 156/7/3 155/8/3
f 155/8/18 156/7/18 152/9/18 151/10/18
f 153/11/19 157/6/19 155/8/19 151/12/19
f 158/5/20 154/13/20 152/14/20 156/7/20
usemtl soot
f 63/1/1 64/2/1 66/3/1 65/4/1
f 65/4/2 66/3/2 70/5/2 69/6/2
f 69/6/3 70/5/3 68/7/3 67/8/3
f 67/8/4 68/7/4 64/9/4 63/10/4
f 65/11/5 69/6/5 67/8/5 63/12/5
f 70/5/6 66/13/6 64/14/6 68/7/6
f 79/1/1 80/2/1 82/3/1 81/4/1
f 81/4/2 82/3/2 86/5/2 85/6/2
f 85/6/3 86/5/3 84/7/3 83/8/3
f 83/8/4 84/7/4 80/9/4 79/10/4
f 81/11/5 85/6/5 83/8/5 79/12/5
f 86/5/6 82/13/6 80/14/6 84/7/6
f 159/1/1 160/2/1 162/3/1 161/4/1
f 161/4/2 162/3/2 166/5/2 165/6/2
f 165/6/3 166/5/3 164/7/3 163/8/3
f 163/8/4 164/7/4 160/9/4 159/10/4
f 161/11/5 165/6/5 163/8/5 159/12/5
f 166/5/6 162/13/6 160/14/6 164/7/6
usemtl ember
f 71/1/1 72/2/1 74/3/1 73/4/1
f 73/4/2 74/3/2 78/5/2 77/6/2
f 77/6/3 78/5/3 76/7/3 75/8/3
f 75/8/4 76/7/4 72/9/4 71/10/4
f 73/11/5 77/6/5 75/8/5 71/12/5
f 78/5/6 74/13/6 72/14/6 76/7/6
usemtl wood
f 111/1/1 112/2/1 114/3/1 113/4/1
f 113/4/2 114/3/2 118/5/2 117/6/2
f 117/6/3 118/5/3 116/7/3 115/8/3
f 115/8/4 116/7/4 112/9/4 111/10/4
f 113/11/5 117/6/5 115/8/5 111/12/5
f 118/5/6 114/13/6 112/14/6 116/7/6
f 175/1/21 176/2/21 178/3/21 177/4/21
f 177/4/2 178/3/2 182/5/2 181/6/2
f 181/6/22 182/5/22 180/7/22 179/8/22
f 179/8/4 180/7/4 176/9/4 175/10/4
f 177/11/23 181/6/23 179/8/23 175/12/23
f 182/5/24 178/13/24 176/14/24 180/7/24
f 183/1/21 184/2/21 186/3/21 185/4/21
f 185/4/2 186/3/2 190/5/2 189/6/2
f 189/6/22 190/5/22 188/7/22 187/8/22
f 187/8/4 188/7/4 184/9/4 183/10/4
f 185/11/23 189/6/23 187/8/23 183/12/23
f 190/5/24 186/13/24 184/14/24 188/7/24
f 191/1/21 192/2/21 194/3/21 193/4/21
f 193/4/2 194/3/2 198/5/2 197/6/2
f 197/6/22 198/5/22 196/7/22 195/8/22
f 195/8/4 196/7/4 192/9/4 191/10/4
f 193/11/23 197/6/23 195/8/23 191/12/23
f 198/5/24 194/13/24 192/14/24 196/7/24
usemtl iron
f 199/1/21 200/2/21 202/3/21 201/4/21
f 201/4/2 202/3/2 206/5/2 205/6/2
f 205/6/22 206/5/22 204/7/22 203/8/22
f 203/8/4 204/7/4 200/9/4 199/10/4
f 201/11/23 205/6/23 203/8/23 199/12/23
f 206/5/24 202/13/24 200/14/24 204/7/24
usemtl stone_dk
f 215/1/1 216/2/1 218/3/1 217/4/1
f 217/4/2 218/3/2 222/5/2 221/6/2
f 221/6/3 222/5/3 220/7/3 219/8/3
f 219/8/4 220/7/4 216/9/4 215/10/4
f 217/11/5 221/6/5 219/8/5 215/12/5
f 222/5/6 218/13/6 216/14/6 220/7/6
f 231/1/1 232/2/1 234/3/1 233/4/1
f 233/4/2 234/3/2 238/5/2 237/6/2
f 237/6/3 238/5/3 236/7/3 235/8/3
f 235/8/4 236/7/4 232/9/4 231/10/4
f 233/11/5 237/6/5 235/8/5 231/12/5
f 238/5/6 234/13/6 232/14/6 236/7/6
