# Blender 5.0.1
# www.blender.org
mtllib foot_bridge.mtl
o foot_bridge
v -0.650000 -0.530000 1.150000
v -0.650000 -0.030000 1.150000
v -0.650000 -0.530000 -1.150000
v -0.650000 -0.030000 -1.150000
v 0.650000 -0.530000 1.150000
v 0.650000 -0.030000 1.150000
v 0.650000 -0.530000 -1.150000
v 0.650000 -0.030000 -1.150000
v -0.400000 -0.030000 0.570000
v -0.400000 -0.010000 0.570000
v -0.400000 -0.030000 0.430000
v -0.400000 -0.010000 0.430000
v 0.100000 -0.030000 0.570000
v 0.100000 -0.010000 0.570000
v 0.100000 -0.030000 0.430000
v 0.100000 -0.010000 0.430000
v -0.190000 -0.030000 -0.130000
v -0.190000 -0.010000 -0.130000
v -0.190000 -0.030000 -0.270000
v -0.190000 -0.010000 -0.270000
v 0.310000 -0.030000 -0.130000
v 0.310000 -0.010000 -0.130000
v 0.310000 -0.030000 -0.270000
v 0.310000 -0.010000 -0.270000
v -0.040000 -0.030000 -0.630000
v -0.040000 -0.010000 -0.630000
v -0.040000 -0.030000 -0.770000
v -0.040000 -0.010000 -0.770000
v 0.460000 -0.030000 -0.630000
v 0.460000 -0.010000 -0.630000
v 0.460000 -0.030000 -0.770000
v 0.460000 -0.010000 -0.770000
v -0.600000 -0.200000 2.050000
v -0.600000 0.400000 2.050000
v -0.600000 -0.200000 0.750000
v -0.600000 0.400000 0.750000
v 0.600000 -0.200000 2.050000
v 0.600000 0.400000 2.050000
v 0.600000 -0.200000 0.750000
v 0.600000 0.400000 0.750000
v -0.400000 0.300000 1.000000
v -0.327640 0.355279 1.052572
v -0.427639 0.355279 1.085064
v -0.489443 0.355279 1.000000
v -0.427639 0.355279 0.914936
v -0.327640 0.355279 0.947428
v -0.372362 0.444721 1.085064
v -0.472360 0.444721 1.052572
v -0.472360 0.444721 0.947428
v -0.372362 0.444721 0.914936
v -0.310558 0.444721 1.000000
v -0.400000 0.500000 1.000000
v 0.100000 0.300000 1.150000
v 0.172360 0.355279 1.202572
v 0.072362 0.355279 1.235064
v 0.010558 0.355279 1.150000
v 0.072362 0.355279 1.064936
v 0.172360 0.355279 1.097428
v 0.127639 0.444721 1.235064
v 0.027640 0.444721 1.202572
v 0.027640 0.444721 1.097428
v 0.127639 0.444721 1.064936
v 0.189443 0.444721 1.150000
v 0.100000 0.500000 1.150000
v 0.450000 0.300000 0.950000
v 0.522360 0.355279 1.002572
v 0.422361 0.355279 1.035064
v 0.360557 0.355279 0.950000
v 0.422361 0.355279 0.864936
v 0.522360 0.355279 0.897428
v 0.477638 0.444721 1.035064
v 0.377640 0.444721 1.002572
v 0.377640 0.444721 0.897428
v 0.477638 0.444721 0.864936
v 0.539443 0.444721 0.950000
v 0.450000 0.500000 0.950000
v -0.200000 0.300000 1.600000
v -0.127640 0.355279 1.652572
v -0.227639 0.355279 1.685064
v -0.289443 0.355279 1.600000
v -0.227639 0.355279 1.514936
v -0.127640 0.355279 1.547428
v -0.172362 0.444721 1.685064
v -0.272360 0.444721 1.652572
v -0.272360 0.444721 1.547428
v -0.172362 0.444721 1.514936
v -0.110558 0.444721 1.600000
v -0.200000 0.500000 1.600000
v 0.350000 0.300000 1.750000
v 0.422360 0.355279 1.802572
v 0.322361 0.355279 1.835064
v 0.260557 0.355279 1.750000
v 0.322361 0.355279 1.664936
v 0.422360 0.355279 1.697428
v 0.377638 0.444721 1.835064
v 0.277640 0.444721 1.802572
v 0.277640 0.444721 1.697428
v 0.377638 0.444721 1.664936
v 0.439443 0.444721 1.750000
v 0.350000 0.500000 1.750000
v -0.600000 -0.200000 -0.750000
v -0.600000 0.400000 -0.750000
v -0.600000 -0.200000 -2.050000
v -0.600000 0.400000 -2.050000
v 0.600000 -0.200000 -0.750000
v 0.600000 0.400000 -0.750000
v 0.600000 -0.200000 -2.050000
v 0.600000 0.400000 -2.050000
v -0.400000 0.300000 -1.000000
v -0.327640 0.355279 -0.947428
v -0.427639 0.355279 -0.914936
v -0.489443 0.355279 -1.000000
v -0.427639 0.355279 -1.085064
v -0.327640 0.355279 -1.052572
v -0.372362 0.444721 -0.914936
v -0.472360 0.444721 -0.947428
v -0.472360 0.444721 -1.052572
v -0.372362 0.444721 -1.085064
v -0.310558 0.444721 -1.000000
v -0.400000 0.500000 -1.000000
v 0.100000 0.300000 -1.150000
v 0.172360 0.355279 -1.097428
v 0.072362 0.355279 -1.064936
v 0.010558 0.355279 -1.150000
v 0.072362 0.355279 -1.235064
v 0.172360 0.355279 -1.202572
v 0.127639 0.444721 -1.064936
v 0.027640 0.444721 -1.097428
v 0.027640 0.444721 -1.202572
v 0.127639 0.444721 -1.235064
v 0.189443 0.444721 -1.150000
v 0.100000 0.500000 -1.150000
v 0.450000 0.300000 -0.950000
v 0.522360 0.355279 -0.897428
v 0.422361 0.355279 -0.864936
v 0.360557 0.355279 -0.950000
v 0.422361 0.355279 -1.035064
v 0.522360 0.355279 -1.002572
v 0.477638 0.444721 -0.864936
v 0.377640 0.444721 -0.897428
v 0.377640 0.444721 -1.002572
v 0.477638 0.444721 -1.035064
v 0.539443 0.444721 -0.950000
v 0.450000 0.500000 -0.950000
v -0.200000 0.300000 -1.600000
v -0.127640 0.355279 -1.547428
v -0.227639 0.355279 -1.514936
v -0.289443 0.355279 -1.600000
v -0.227639 0.355279 -1.685064
v -0.127640 0.355279 -1.652572
v -0.172362 0.444721 -1.514936
v -0.272360 0.444721 -1.547428
v -0.272360 0.444721 -1.652572
v -0.172362 0.444721 -1.685064
v -0.110558 0.444721 -1.600000
v -0.200000 0.500000 -1.600000
v 0.350000 0.300000 -1.750000
v 0.422360 0.355279 -1.697428
v 0.322361 0.355279 -1.664936
v 0.260557 0.355279 -1.750000
v 0.322361 0.355279 -1.835064
v 0.422360 0.355279 -1.802572
v 0.377638 0.444721 -1.664936
v 0.277640 0.444721 -1.697428
v 0.277640 0.444721 -1.802572
v 0.377638 0.444721 -1.835064
v 0.439443 0.444721 -1.750000
v 0.350000 0.500000 -1.750000
v -0.560000 0.350000 1.040000
v -0.560000 1.350000 1.040000
v -0.560000 0.350000 0.960000
v -0.560000 1.350000 0.960000
v -0.480000 0.350000 1.040000
v -0.480000 1.350000 1.040000
v -0.480000 0.350000 0.960000
v -0.480000 1.350000 0.960000
v 0.480000 0.350000 1.040000
v 0.480000 1.350000 1.040000
v 0.480000 0.350000 0.960000
v 0.480000 1.350000 0.960000
v 0.560000 0.350000 1.040000
v 0.560000 1.350000 1.040000
v 0.560000 0.350000 0.960000
v 0.560000 1.350000 0.960000
v -0.560000 1.280000 1.040000
v -0.560000 1.360000 1.040000
v -0.560000 1.280000 0.960000
v -0.560000 1.360000 0.960000
v 0.560000 1.280000 1.040000
v 0.560000 1.360000 1.040000
v 0.560000 1.280000 0.960000
v 0.560000 1.360000 0.960000
v -0.560000 0.350000 -0.960000
v -0.560000 1.350000 -0.960000
v -0.560000 0.350000 -1.040000
v -0.560000 1.350000 -1.040000
v -0.480000 0.350000 -0.960000
v -0.480000 1.350000 -0.960000
v -0.480000 0.350000 -1.040000
v -0.480000 1.350000 -1.040000
v 0.480000 0.350000 -0.960000
v 0.480000 1.350000 -0.960000
v 0.480000 0.350000 -1.040000
v 0.480000 1.350000 -1.040000
v 0.560000 0.350000 -0.960000
v 0.560000 1.350000 -0.960000
v 0.560000 0.350000 -1.040000
v 0.560000 1.350000 -1.040000
v -0.560000 1.280000 -0.960000
v -0.560000 1.360000 -0.960000
v -0.560000 1.280000 -1.040000
v -0.560000 1.360000 -1.040000
v 0.560000 1.280000 -0.960000
v 0.560000 1.360000 -0.960000
v 0.560000 1.280000 -1.040000
v 0.560000 1.360000 -1.040000
v -0.545000 1.296232 1.019014
v -0.545000 1.263768 0.980986
v -0.545000 0.476232 1.719014
v -0.545000 0.443768 1.680986
v -0.495000 1.296232 1.019014
v -0.495000 1.263768 0.980986
v -0.495000 0.476232 1.719014
v -0.495000 0.443768 1.680986
v -0.550000 0.163135 1.620981
v -0.550000 0.526865 1.830981
v -0.550000 0.193135 1.569019
v -0.550000 0.556865 1.779019
v -0.490000 0.163135 1.620981
v -0.490000 0.526865 1.830981
v -0.490000 0.193135 1.569019
v -0.490000 0.556865 1.779019
v 0.495000 1.296232 1.019014
v 0.495000 1.263768 0.980986
v 0.495000 0.476232 1.719014
v 0.495000 0.443768 1.680986
v 0.545000 1.296232 1.019014
v 0.545000 1.263768 0.980986
v 0.545000 0.476232 1.719014
v 0.545000 0.443768 1.680986
v 0.490000 0.163135 1.620981
v 0.490000 0.526865 1.830981
v 0.490000 0.193135 1.569019
v 0.490000 0.556865 1.779019
v 0.550000 0.163135 1.620981
v 0.550000 0.526865 1.830981
v 0.550000 0.193135 1.569019
v 0.550000 0.556865 1.779019
v -0.545000 1.263768 -0.980986
v -0.545000 1.296232 -1.019014
v -0.545000 0.443768 -1.680986
v -0.545000 0.476232 -1.719014
v -0.495000 1.263768 -0.980986
v -0.495000 1.296232 -1.019014
v -0.495000 0.443768 -1.680986
v -0.495000 0.476232 -1.719014
v -0.550000 0.193135 -1.569019
v -0.550000 0.556865 -1.779019
v -0.550000 0.163135 -1.620981
v -0.550000 0.526865 -1.830981
v -0.490000 0.193135 -1.569019
v -0.490000 0.556865 -1.779019
v -0.490000 0.163135 -1.620981
v -0.490000 0.526865 -1.830981
v 0.495000 1.263768 -0.980986
v 0.495000 1.296232 -1.019014
v 0.495000 0.443768 -1.680986
v 0.495000 0.476232 -1.719014
v 0.545000 1.263768 -0.980986
v 0.545000 1.296232 -1.019014
v 0.545000 0.443768 -1.680986
v 0.545000 0.476232 -1.719014
v 0.490000 0.193135 -1.569019
v 0.490000 0.556865 -1.779019
v 0.490000 0.163135 -1.620981
v 0.490000 0.526865 -1.830981
v 0.550000 0.193135 -1.569019
v 0.550000 0.556865 -1.779019
v 0.550000 0.163135 -1.620981
v 0.550000 0.526865 -1.830981
v -0.547500 1.252904 1.021541
v -0.547500 1.287096 0.978460
v -0.547500 0.937904 0.771540
v -0.547500 0.972095 0.728460
v -0.492500 1.252904 1.021541
v -0.492500 1.287096 0.978460
v -0.492500 0.937904 0.771540
v -0.492500 0.972095 0.728460
v -0.547500 0.934559 0.768397
v -0.547500 0.975441 0.731603
v -0.547500 0.709559 0.518396
v -0.547500 0.750441 0.481603
v -0.492500 0.934559 0.768397
v -0.492500 0.975441 0.731603
v -0.492500 0.709559 0.518396
v -0.492500 0.750441 0.481603
v -0.547500 0.705803 0.513067
v -0.547500 0.754197 0.486933
v -0.547500 0.570803 0.263067
v -0.547500 0.619197 0.236933
v -0.492500 0.705803 0.513067
v -0.492500 0.754197 0.486933
v -0.492500 0.570803 0.263067
v -0.492500 0.619197 0.236933
v -0.547500 0.567935 0.254872
v -0.547500 0.622065 0.245128
v -0.547500 0.522935 0.004872
v -0.547500 0.577065 -0.004872
v -0.492500 0.567935 0.254872
v -0.492500 0.622065 0.245128
v -0.492500 0.522935 0.004872
v -0.492500 0.577065 -0.004872
v -0.547500 0.522935 -0.004872
v -0.547500 0.577065 0.004872
v -0.547500 0.567935 -0.254872
v -0.547500 0.622065 -0.245128
v -0.492500 0.522935 -0.004872
v -0.492500 0.577065 0.004872
v -0.492500 0.567935 -0.254872
v -0.492500 0.622065 -0.245128
v -0.547500 0.570803 -0.263067
v -0.547500 0.619197 -0.236933
v -0.547500 0.705803 -0.513067
v -0.547500 0.754197 -0.486933
v -0.492500 0.570803 -0.263067
v -0.492500 0.619197 -0.236933
v -0.492500 0.705803 -0.513067
v -0.492500 0.754197 -0.486933
v -0.547500 0.709559 -0.518396
v -0.547500 0.750441 -0.481603
v -0.547500 0.934559 -0.768397
v -0.547500 0.975441 -0.731603
v -0.492500 0.709559 -0.518396
v -0.492500 0.750441 -0.481603
v -0.492500 0.934559 -0.768397
v -0.492500 0.975441 -0.731603
v -0.547500 0.937904 -0.771540
v -0.547500 0.972095 -0.728460
v -0.547500 1.252904 -1.021541
v -0.547500 1.287096 -0.978460
v -0.492500 0.937904 -0.771540
v -0.492500 0.972095 -0.728460
v -0.492500 1.252904 -1.021541
v -0.492500 1.287096 -0.978460
v -0.530000 0.955000 0.760000
v -0.530000 0.955000 0.740000
v -0.530000 0.427500 0.760000
v -0.530000 0.427500 0.740000
v -0.510000 0.955000 0.760000
v -0.510000 0.955000 0.740000
v -0.510000 0.427500 0.760000
v -0.510000 0.427500 0.740000
v -0.530000 0.730000 0.510000
v -0.530000 0.730000 0.490000
v -0.530000 0.390000 0.510000
v -0.530000 0.390000 0.490000
v -0.510000 0.730000 0.510000
v -0.510000 0.730000 0.490000
v -0.510000 0.390000 0.510000
v -0.510000 0.390000 0.490000
v -0.530000 0.595000 0.260000
v -0.530000 0.595000 0.240000
v -0.530000 0.367500 0.260000
v -0.530000 0.367500 0.240000
v -0.510000 0.595000 0.260000
v -0.510000 0.595000 0.240000
v -0.510000 0.367500 0.260000
v -0.510000 0.367500 0.240000
v -0.530000 0.550000 0.010000
v -0.530000 0.550000 -0.010000
v -0.530000 0.360000 0.010000
v -0.530000 0.360000 -0.010000
v -0.510000 0.550000 0.010000
v -0.510000 0.550000 -0.010000
v -0.510000 0.360000 0.010000
v -0.510000 0.360000 -0.010000
v -0.530000 0.595000 -0.240000
v -0.530000 0.595000 -0.260000
v -0.530000 0.367500 -0.240000
v -0.530000 0.367500 -0.260000
v -0.510000 0.595000 -0.240000
v -0.510000 0.595000 -0.260000
v -0.510000 0.367500 -0.240000
v -0.510000 0.367500 -0.260000
v -0.530000 0.730000 -0.490000
v -0.530000 0.730000 -0.510000
v -0.530000 0.390000 -0.490000
v -0.530000 0.390000 -0.510000
v -0.510000 0.730000 -0.490000
v -0.510000 0.730000 -0.510000
v -0.510000 0.390000 -0.490000
v -0.510000 0.390000 -0.510000
v -0.530000 0.955000 -0.740000
v -0.530000 0.955000 -0.760000
v -0.530000 0.427500 -0.740000
v -0.530000 0.427500 -0.760000
v -0.510000 0.955000 -0.740000
v -0.510000 0.955000 -0.760000
v -0.510000 0.427500 -0.740000
v -0.510000 0.427500 -0.760000
v 0.492500 1.252904 1.021541
v 0.492500 1.287096 0.978460
v 0.492500 0.937904 0.771540
v 0.492500 0.972095 0.728460
v 0.547500 1.252904 1.021541
v 0.547500 1.287096 0.978460
v 0.547500 0.937904 0.771540
v 0.547500 0.972095 0.728460
v 0.492500 0.934559 0.768397
v 0.492500 0.975441 0.731603
v 0.492500 0.709559 0.518396
v 0.492500 0.750441 0.481603
v 0.547500 0.934559 0.768397
v 0.547500 0.975441 0.731603
v 0.547500 0.709559 0.518396
v 0.547500 0.750441 0.481603
v 0.492500 0.705803 0.513067
v 0.492500 0.754197 0.486933
v 0.492500 0.570803 0.263067
v 0.492500 0.619197 0.236933
v 0.547500 0.705803 0.513067
v 0.547500 0.754197 0.486933
v 0.547500 0.570803 0.263067
v 0.547500 0.619197 0.236933
v 0.492500 0.567935 0.254872
v 0.492500 0.622065 0.245128
v 0.492500 0.522935 0.004872
v 0.492500 0.577065 -0.004872
v 0.547500 0.567935 0.254872
v 0.547500 0.622065 0.245128
v 0.547500 0.522935 0.004872
v 0.547500 0.577065 -0.004872
v 0.492500 0.522935 -0.004872
v 0.492500 0.577065 0.004872
v 0.492500 0.567935 -0.254872
v 0.492500 0.622065 -0.245128
v 0.547500 0.522935 -0.004872
v 0.547500 0.577065 0.004872
v 0.547500 0.567935 -0.254872
v 0.547500 0.622065 -0.245128
v 0.492500 0.570803 -0.263067
v 0.492500 0.619197 -0.236933
v 0.492500 0.705803 -0.513067
v 0.492500 0.754197 -0.486933
v 0.547500 0.570803 -0.263067
v 0.547500 0.619197 -0.236933
v 0.547500 0.705803 -0.513067
v 0.547500 0.754197 -0.486933
v 0.492500 0.709559 -0.518396
v 0.492500 0.750441 -0.481603
v 0.492500 0.934559 -0.768397
v 0.492500 0.975441 -0.731603
v 0.547500 0.709559 -0.518396
v 0.547500 0.750441 -0.481603
v 0.547500 0.934559 -0.768397
v 0.547500 0.975441 -0.731603
v 0.492500 0.937904 -0.771540
v 0.492500 0.972095 -0.728460
v 0.492500 1.252904 -1.021541
v 0.492500 1.287096 -0.978460
v 0.547500 0.937904 -0.771540
v 0.547500 0.972095 -0.728460
v 0.547500 1.252904 -1.021541
v 0.547500 1.287096 -0.978460
v 0.510000 0.955000 0.760000
v 0.510000 0.955000 0.740000
v 0.510000 0.427500 0.760000
v 0.510000 0.427500 0.740000
v 0.530000 0.955000 0.760000
v 0.530000 0.955000 0.740000
v 0.530000 0.427500 0.760000
v 0.530000 0.427500 0.740000
v 0.510000 0.730000 0.510000
v 0.510000 0.730000 0.490000
v 0.510000 0.390000 0.510000
v 0.510000 0.390000 0.490000
v 0.530000 0.730000 0.510000
v 0.530000 0.730000 0.490000
v 0.530000 0.390000 0.510000
v 0.530000 0.390000 0.490000
v 0.510000 0.595000 0.260000
v 0.510000 0.595000 0.240000
v 0.510000 0.367500 0.260000
v 0.510000 0.367500 0.240000
v 0.530000 0.595000 0.260000
v 0.530000 0.595000 0.240000
v 0.530000 0.367500 0.260000
v 0.530000 0.367500 0.240000
v 0.510000 0.550000 0.010000
v 0.510000 0.550000 -0.010000
v 0.510000 0.360000 0.010000
v 0.510000 0.360000 -0.010000
v 0.530000 0.550000 0.010000
v 0.530000 0.550000 -0.010000
v 0.530000 0.360000 0.010000
v 0.530000 0.360000 -0.010000
v 0.510000 0.595000 -0.240000
v 0.510000 0.595000 -0.260000
v 0.510000 0.367500 -0.240000
v 0.510000 0.367500 -0.260000
v 0.530000 0.595000 -0.240000
v 0.530000 0.595000 -0.260000
v 0.530000 0.367500 -0.240000
v 0.530000 0.367500 -0.260000
v 0.510000 0.730000 -0.490000
v 0.510000 0.730000 -0.510000
v 0.510000 0.390000 -0.490000
v 0.510000 0.390000 -0.510000
v 0.530000 0.730000 -0.490000
v 0.530000 0.730000 -0.510000
v 0.530000 0.390000 -0.490000
v 0.530000 0.390000 -0.510000
v 0.510000 0.955000 -0.740000
v 0.510000 0.955000 -0.760000
v 0.510000 0.427500 -0.740000
v 0.510000 0.427500 -0.760000
v 0.530000 0.955000 -0.740000
v 0.530000 0.955000 -0.760000
v 0.530000 0.427500 -0.740000
v 0.530000 0.427500 -0.760000
v -0.440000 0.400427 1.004110
v -0.440000 0.439573 0.995890
v -0.440000 0.347927 0.754110
v -0.440000 0.387073 0.745890
v -0.400000 0.400427 1.004110
v -0.400000 0.439573 0.995890
v -0.400000 0.347927 0.754110
v -0.400000 0.387073 0.745890
v -0.440000 0.347721 0.752967
v -0.440000 0.387279 0.747033
v -0.440000 0.310221 0.502967
v -0.440000 0.349779 0.497033
v -0.400000 0.347721 0.752967
v -0.400000 0.387279 0.747033
v -0.400000 0.310221 0.502967
v -0.400000 0.349779 0.497033
v -0.440000 0.310080 0.501793
v -0.440000 0.349919 0.498207
v -0.440000 0.287581 0.251793
v -0.440000 0.327419 0.248207
v -0.400000 0.310080 0.501793
v -0.400000 0.349919 0.498207
v -0.400000 0.287581 0.251793
v -0.400000 0.327419 0.248207
v -0.440000 0.287509 0.250600
v -0.440000 0.327491 0.249400
v -0.440000 0.280009 0.000600
v -0.440000 0.319991 -0.000600
v -0.400000 0.287509 0.250600
v -0.400000 0.327491 0.249400
v -0.400000 0.280009 0.000600
v -0.400000 0.319991 -0.000600
v -0.440000 0.280009 -0.000600
v -0.440000 0.319991 0.000600
v -0.440000 0.287509 -0.250600
v -0.440000 0.327491 -0.249400
v -0.400000 0.280009 -0.000600
v -0.400000 0.319991 0.000600
v -0.400000 0.287509 -0.250600
v -0.400000 0.327491 -0.249400
v -0.440000 0.287581 -0.251793
v -0.440000 0.327419 -0.248207
v -0.440000 0.310080 -0.501793
v -0.440000 0.349919 -0.498207
v -0.400000 0.287581 -0.251793
v -0.400000 0.327419 -0.248207
v -0.400000 0.310080 -0.501793
v -0.400000 0.349919 -0.498207
v -0.440000 0.310221 -0.502967
v -0.440000 0.349779 -0.497033
v -0.440000 0.347721 -0.752967
v -0.440000 0.387279 -0.747033
v -0.400000 0.310221 -0.502967
v -0.400000 0.349779 -0.497033
v -0.400000 0.347721 -0.752967
v -0.400000 0.387279 -0.747033
v -0.440000 0.347927 -0.754110
v -0.440000 0.387073 -0.745890
v -0.440000 0.400427 -1.004110
v -0.440000 0.439573 -0.995890
v -0.400000 0.347927 -0.754110
v -0.400000 0.387073 -0.745890
v -0.400000 0.400427 -1.004110
v -0.400000 0.439573 -0.995890
v 0.400000 0.400427 1.004110
v 0.400000 0.439573 0.995890
v 0.400000 0.347927 0.754110
v 0.400000 0.387073 0.745890
v 0.440000 0.400427 1.004110
v 0.440000 0.439573 0.995890
v 0.440000 0.347927 0.754110
v 0.440000 0.387073 0.745890
v 0.400000 0.347721 0.752967
v 0.400000 0.387279 0.747033
v 0.400000 0.310221 0.502967
v 0.400000 0.349779 0.497033
v 0.440000 0.347721 0.752967
v 0.440000 0.387279 0.747033
v 0.440000 0.310221 0.502967
v 0.440000 0.349779 0.497033
v 0.400000 0.310080 0.501793
v 0.400000 0.349919 0.498207
v 0.400000 0.287581 0.251793
v 0.400000 0.327419 0.248207
v 0.440000 0.310080 0.501793
v 0.440000 0.349919 0.498207
v 0.440000 0.287581 0.251793
v 0.440000 0.327419 0.248207
v 0.400000 0.287509 0.250600
v 0.400000 0.327491 0.249400
v 0.400000 0.280009 0.000600
v 0.400000 0.319991 -0.000600
v 0.440000 0.287509 0.250600
v 0.440000 0.327491 0.249400
v 0.440000 0.280009 0.000600
v 0.440000 0.319991 -0.000600
v 0.400000 0.280009 -0.000600
v 0.400000 0.319991 0.000600
v 0.400000 0.287509 -0.250600
v 0.400000 0.327491 -0.249400
v 0.440000 0.280009 -0.000600
v 0.440000 0.319991 0.000600
v 0.440000 0.287509 -0.250600
v 0.440000 0.327491 -0.249400
v 0.400000 0.287581 -0.251793
v 0.400000 0.327419 -0.248207
v 0.400000 0.310080 -0.501793
v 0.400000 0.349919 -0.498207
v 0.440000 0.287581 -0.251793
v 0.440000 0.327419 -0.248207
v 0.440000 0.310080 -0.501793
v 0.440000 0.349919 -0.498207
v 0.400000 0.310221 -0.502967
v 0.400000 0.349779 -0.497033
v 0.400000 0.347721 -0.752967
v 0.400000 0.387279 -0.747033
v 0.440000 0.310221 -0.502967
v 0.440000 0.349779 -0.497033
v 0.440000 0.347721 -0.752967
v 0.440000 0.387279 -0.747033
v 0.400000 0.347927 -0.754110
v 0.400000 0.387073 -0.745890
v 0.400000 0.400427 -1.004110
v 0.400000 0.439573 -0.995890
v 0.440000 0.347927 -0.754110
v 0.440000 0.387073 -0.745890
v 0.440000 0.400427 -1.004110
v 0.440000 0.439573 -0.995890
v -0.450000 0.428300 1.010000
v -0.450000 0.468300 1.010000
v -0.450000 0.428300 0.890000
v -0.450000 0.468300 0.890000
v 0.450000 0.428300 1.010000
v 0.450000 0.468300 1.010000
v 0.450000 0.428300 0.890000
v 0.450000 0.468300 0.890000
v -0.450000 0.395843 0.855000
v -0.450000 0.435843 0.855000
v -0.450000 0.395843 0.735000
v -0.450000 0.435843 0.735000
v 0.450000 0.395843 0.855000
v 0.450000 0.435843 0.855000
v 0.450000 0.395843 0.735000
v 0.450000 0.435843 0.735000
v -0.450000 0.380012 0.696133
v -0.450000 0.419520 0.702390
v -0.450000 0.398784 0.577610
v -0.450000 0.438292 0.583867
v 0.450000 0.380012 0.696133
v 0.450000 0.419520 0.702390
v 0.450000 0.398784 0.577610
v 0.450000 0.438292 0.583867
v -0.450000 0.333068 0.390000
v -0.450000 0.373068 0.390000
v -0.450000 0.333068 0.270000
v -0.450000 0.373068 0.270000
v 0.450000 0.333068 0.390000
v 0.450000 0.373068 0.390000
v 0.450000 0.333068 0.270000
v 0.450000 0.373068 0.270000
v -0.070000 0.323675 0.235000
v -0.070000 0.363675 0.235000
v -0.070000 0.323675 0.115000
v -0.070000 0.363675 0.115000
v 0.430000 0.323675 0.235000
v 0.430000 0.363675 0.235000
v 0.430000 0.323675 0.115000
v 0.430000 0.363675 0.115000
v -0.450000 0.320048 0.080000
v -0.450000 0.360048 0.080000
v -0.450000 0.320048 -0.040000
v -0.450000 0.360048 -0.040000
v 0.450000 0.320048 0.080000
v 0.450000 0.360048 0.080000
v 0.450000 0.320048 -0.040000
v 0.450000 0.360048 -0.040000
v -0.450000 0.333047 -0.078867
v -0.450000 0.372555 -0.072610
v -0.450000 0.351819 -0.197390
v -0.450000 0.391327 -0.191133
v 0.450000 0.333047 -0.078867
v 0.450000 0.372555 -0.072610
v 0.450000 0.351819 -0.197390
v 0.450000 0.391327 -0.191133
v -0.450000 0.343763 -0.385000
v -0.450000 0.383763 -0.385000
v -0.450000 0.343763 -0.505000
v -0.450000 0.383763 -0.505000
v 0.450000 0.343763 -0.385000
v 0.450000 0.383763 -0.385000
v 0.450000 0.343763 -0.505000
v 0.450000 0.383763 -0.505000
v -0.070000 0.363200 -0.540000
v -0.070000 0.403200 -0.540000
v -0.070000 0.363200 -0.660000
v -0.070000 0.403200 -0.660000
v 0.430000 0.363200 -0.540000
v 0.430000 0.403200 -0.540000
v 0.430000 0.363200 -0.660000
v 0.430000 0.403200 -0.660000
v -0.450000 0.399263 -0.698867
v -0.450000 0.438771 -0.692610
v -0.450000 0.418035 -0.817390
v -0.450000 0.457543 -0.811133
v 0.450000 0.399263 -0.698867
v 0.450000 0.438771 -0.692610
v 0.450000 0.418035 -0.817390
v 0.450000 0.457543 -0.811133
v -0.450000 0.419372 -0.850000
v -0.450000 0.459372 -0.850000
v -0.450000 0.419372 -0.970000
v -0.450000 0.459372 -0.970000
v 0.450000 0.419372 -0.850000
v 0.450000 0.459372 -0.850000
v 0.450000 0.419372 -0.970000
v 0.450000 0.459372 -0.970000
v 0.485000 1.130000 -0.965000
v 0.485000 1.310000 -0.965000
v 0.485000 1.130000 -0.995000
v 0.485000 1.310000 -0.995000
v 0.515000 1.130000 -0.965000
v 0.515000 1.310000 -0.965000
v 0.515000 1.130000 -0.995000
v 0.515000 1.310000 -0.995000
v 0.440000 0.985000 -0.920000
v 0.440000 1.135000 -0.920000
v 0.440000 0.985000 -1.040000
v 0.440000 1.135000 -1.040000
v 0.560000 0.985000 -0.920000
v 0.560000 1.135000 -0.920000
v 0.560000 0.985000 -1.040000
v 0.560000 1.135000 -1.040000
v 0.465000 1.010000 -0.945000
v 0.465000 1.110000 -0.945000
v 0.465000 1.010000 -1.015000
v 0.465000 1.110000 -1.015000
v 0.535000 1.010000 -0.945000
v 0.535000 1.110000 -0.945000
v 0.535000 1.010000 -1.015000
v 0.535000 1.110000 -1.015000
vn -1.0000 -0.0000 -0.0000
vn -0.0000 -0.0000 -1.0000
vn 1.0000 -0.0000 -0.0000
vn -0.0000 -0.0000 1.0000
vn -0.0000 -1.0000 -0.0000
vn -0.0000 1.0000 -0.0000
vn 0.1876 -0.7947 0.5774
vn 0.6071 -0.7947 -0.0000
vn -0.4911 -0.7947 0.3568
vn -0.4911 -0.7947 -0.3568
vn 0.1876 -0.7947 -0.5774
vn 0.9822 -0.1876 -0.0000
vn 0.3035 -0.1876 0.9342
vn -0.7946 -0.1876 0.5774
vn -0.7946 -0.1876 -0.5774
vn 0.3035 -0.1876 -0.9342
vn 0.7946 0.1876 0.5774
vn -0.3035 0.1876 0.9342
vn -0.9822 0.1876 -0.0000
vn -0.3035 0.1876 -0.9342
vn 0.7946 0.1876 -0.5774
vn 0.4911 0.7947 0.3568
vn -0.1876 0.7947 0.5774
vn -0.6071 0.7947 -0.0000
vn -0.1876 0.7947 -0.5774
vn 0.4911 0.7947 -0.3568
vn 0.1876 -0.7946 0.5774
vn -0.1876 0.7946 0.5774
vn 0.1876 -0.7946 -0.5774
vn -0.1876 0.7946 -0.5774
vn -0.0000 -0.7606 0.6493
vn -0.0000 0.7606 -0.6493
vn -0.0000 0.6493 0.7606
vn -0.0000 -0.6493 -0.7606
vn -0.0000 0.5000 -0.8660
vn -0.0000 -0.5000 0.8660
vn -0.0000 -0.8660 -0.5000
vn -0.0000 0.8660 0.5000
vn -0.0000 -0.7606 -0.6493
vn -0.0000 0.7606 0.6493
vn -0.0000 -0.6493 0.7606
vn -0.0000 0.6493 -0.7606
vn -0.0000 -0.5000 -0.8660
vn -0.0000 0.5000 0.8660
vn -0.0000 -0.8660 0.5000
vn -0.0000 0.8660 -0.5000
vn -0.0000 -0.7833 -0.6217
vn -0.0000 0.7833 0.6217
vn -0.0000 -0.6217 0.7833
vn -0.0000 0.6217 -0.7833
vn -0.0000 -0.6690 -0.7433
vn -0.0000 0.6690 0.7433
vn -0.0000 -0.7433 0.6690
vn -0.0000 0.7433 -0.6690
vn -0.0000 -0.4751 -0.8799
vn -0.0000 0.4751 0.8799
vn -0.0000 -0.8799 0.4751
vn -0.0000 0.8799 -0.4751
vn -0.0000 -0.1772 -0.9842
vn -0.0000 0.1772 0.9842
vn -0.0000 -0.9842 0.1772
vn -0.0000 0.9842 -0.1772
vn -0.0000 0.1772 -0.9842
vn -0.0000 -0.1772 0.9842
vn -0.0000 -0.9842 -0.1772
vn -0.0000 0.9842 0.1772
vn -0.0000 0.4751 -0.8799
vn -0.0000 -0.4751 0.8799
vn -0.0000 -0.8799 -0.4751
vn -0.0000 0.8799 0.4751
vn -0.0000 0.6690 -0.7433
vn -0.0000 -0.6690 0.7433
vn -0.0000 -0.7433 -0.6690
vn -0.0000 0.7433 0.6690
vn -0.0000 0.7833 -0.6217
vn -0.0000 -0.7833 0.6217
vn -0.0000 -0.6217 -0.7833
vn -0.0000 0.6217 0.7833
vn -0.0000 -0.2055 -0.9787
vn -0.0000 0.2055 0.9787
vn -0.0000 -0.9787 0.2055
vn -0.0000 0.9787 -0.2055
vn -0.0000 -0.1483 -0.9889
vn -0.0000 0.1483 0.9889
vn -0.0000 -0.9889 0.1483
vn -0.0000 0.9889 -0.1483
vn -0.0000 -0.0896 -0.9960
vn -0.0000 0.0896 0.9960
vn -0.0000 -0.9960 0.0896
vn -0.0000 0.9960 -0.0896
vn -0.0000 -0.0300 -0.9996
vn -0.0000 0.0300 0.9996
vn -0.0000 -0.9996 0.0300
vn -0.0000 0.9996 -0.0300
vn -0.0000 0.0300 -0.9996
vn -0.0000 -0.0300 0.9996
vn -0.0000 -0.9996 -0.0300
vn -0.0000 0.9996 0.0300
vn -0.0000 0.0896 -0.9960
vn -0.0000 -0.0896 0.9960
vn -0.0000 -0.9960 -0.0896
vn -0.0000 0.9960 0.0896
vn -0.0000 0.1483 -0.9889
vn -0.0000 -0.1483 0.9889
vn -0.0000 -0.9889 -0.1483
vn -0.0000 0.9889 0.1483
vn -0.0000 0.2055 -0.9787
vn -0.0000 -0.2055 0.9787
vn -0.0000 -0.9787 -0.2055
vn -0.0000 0.9787 0.2055
vn -0.0000 0.1564 -0.9877
vn -0.0000 -0.1564 0.9877
vn -0.0000 -0.9877 -0.1564
vn -0.0000 0.9877 0.1564
vt 0.626953 0.333984
vt 0.626953 0.496094
vt 0.748047 0.496094
vt 0.748047 0.333984
vt 0.376953 0.832031
vt 0.376953 0.994141
vt 0.498047 0.994141
vt 0.498047 0.832031
vt 0.001953 0.001953
vt 0.001953 0.164062
vt 0.123047 0.164062
vt 0.123047 0.001953
vt 0.410422 0.496094
vt 0.498047 0.395905
vt 0.376953 0.333984
vt 0.498047 0.333984
vt 0.376953 0.415039
vt 0.498047 0.496094
vt 0.460628 0.333984
vt 0.376953 0.496094
vt 0.460628 0.496094
vt 0.410422 0.333984
vt 0.498047 0.434173
vt 0.437500 0.496094
vt 0.443891 0.496094
vt 0.423207 0.496094
vt 0.451793 0.496094
vt 0.423207 0.333984
vt 0.431109 0.333984
vt 0.437500 0.333984
vt 0.451793 0.333984
vt 0.414372 0.333984
vt 0.376953 0.395905
vt 0.464578 0.496094
vt 0.498047 0.415039
vt 0.376953 0.434173
vt 0.464578 0.333984
vt 0.414372 0.496094
vt 0.001953 0.167969
vt 0.001953 0.330078
vt 0.123047 0.330078
vt 0.123047 0.167969
vt 0.876953 0.500000
vt 0.876953 0.662109
vt 0.998047 0.662109
vt 0.998047 0.500000
vt 0.626953 0.500000
vt 0.626953 0.662109
vt 0.748047 0.662109
vt 0.748047 0.500000
vt 0.626953 0.167969
vt 0.626953 0.330078
vt 0.748047 0.330078
vt 0.748047 0.167969
vt 0.501953 0.500000
vt 0.501953 0.662109
vt 0.623047 0.662109
vt 0.623047 0.500000
vt 0.001953 0.832031
vt 0.001953 0.994141
vt 0.123047 0.994141
vt 0.123047 0.832031
s 0
usemtl kit_atlas_mat
f 1/1/1 2/2/1 4/3/1 3/4/1
f 3/1/2 4/2/2 8/3/2 7/4/2
f 7/4/3 8/3/3 6/2/3 5/1/3
f 5/4/4 6/3/4 2/2/4 1/1/4
f 3/2/5 7/3/5 5/4/5 1/1/5
f 8/3/6 4/2/6 2/1/6 6/4/6
f 9/5/1 10/6/1 12/7/1 11/8/1
f 11/5/2 12/6/2 16/7/2 15/8/2
f 15/8/3 16/7/3 14/6/3 13/5/3
f 13/8/4 14/7/4 10/6/4 9/5/4
f 11/6/5 15/7/5 13/8/5 9/5/5
f 16/7/6 12/6/6 10/5/6 14/8/6
f 17/5/1 18/6/1 20/7/1 19/8/1
f 19/5/2 20/6/2 24/7/2 23/8/2
f 23/8/3 24/7/3 22/6/3 21/5/3
f 21/8/4 22/7/4 18/6/4 17/5/4
f 19/6/5 23/7/5 21/8/5 17/5/5
f 24/7/6 20/6/6 18/5/6 22/8/6
f 25/5/1 26/6/1 28/7/1 27/8/1
f 27/5/2 28/6/2 32/7/2 31/8/2
f 31/8/3 32/7/3 30/6/3 29/5/3
f 29/8/4 30/7/4 26/6/4 25/5/4
f 27/6/5 31/7/5 29/8/5 25/5/5
f 32/7/6 28/6/6 26/5/6 30/8/6
f 33/9/1 34/10/1 36/11/1 35/12/1
f 35/9/2 36/10/2 40/11/2 39/12/2
f 39/12/3 40/11/3 38/10/3 37/9/3
f 37/12/4 38/11/4 34/10/4 33/9/4
f 35/10/5 39/11/5 37/12/5 33/9/5
f 40/11/6 36/10/6 34/9/6 38/12/6
f 41/13/7 42/14/7 43/15/7
f 42/16/8 41/17/8 46/18/8
f 41/18/9 43/19/9 44/20/9
f 41/16/10 44/15/10 45/21/10
f 41/22/11 45/20/11 46/23/11
f 42/15/12 46/16/12 51/24/12
f 43/15/13 42/16/13 47/25/13
f 44/16/14 43/15/14 48/26/14
f 45/16/15 44/15/15 49/27/15
f 46/16/16 45/15/16 50/25/16
f 42/28/17 51/18/17 47/20/17
f 43/29/18 47/18/18 48/20/18
f 44/30/19 48/20/19 49/18/19
f 45/29/20 49/20/20 50/18/20
f 46/31/21 50/18/21 51/20/21
f 47/32/22 51/18/22 52/20/22
f 48/33/23 47/16/23 52/34/23
f 49/20/24 48/15/24 52/35/24
f 50/18/25 49/36/25 52/37/25
f 51/16/26 50/38/26 52/15/26
f 53/13/27 54/14/27 55/15/27
f 54/16/8 53/17/8 58/18/8
f 53/18/9 55/19/9 56/20/9
f 53/16/10 56/15/10 57/21/10
f 53/22/11 57/20/11 58/23/11
f 54/15/12 58/16/12 63/24/12
f 55/15/13 54/16/13 59/25/13
f 56/16/14 55/15/14 60/26/14
f 57/16/15 56/15/15 61/27/15
f 58/16/16 57/15/16 62/25/16
f 54/28/17 63/18/17 59/20/17
f 55/29/18 59/18/18 60/20/18
f 56/30/19 60/20/19 61/18/19
f 57/29/20 61/20/20 62/18/20
f 58/31/21 62/18/21 63/20/21
f 59/32/22 63/18/22 64/20/22
f 60/33/28 59/16/28 64/34/28
f 61/20/24 60/15/24 64/35/24
f 62/18/25 61/36/25 64/37/25
f 63/16/26 62/38/26 64/15/26
f 65/13/7 66/14/7 67/15/7
f 66/16/8 65/17/8 70/18/8
f 65/18/9 67/19/9 68/20/9
f 65/16/10 68/15/10 69/21/10
f 65/22/11 69/20/11 70/23/11
f 66/15/12 70/16/12 75/24/12
f 67/15/13 66/16/13 71/25/13
f 68/16/14 67/15/14 72/26/14
f 69/16/15 68/15/15 73/27/15
f 70/16/16 69/15/16 74/25/16
f 66/28/17 75/18/17 71/20/17
f 67/29/18 71/18/18 72/20/18
f 68/30/19 72/20/19 73/18/19
f 69/29/20 73/20/20 74/18/20
f 70/31/21 74/18/21 75/20/21
f 71/32/22 75/18/22 76/20/22
f 72/33/23 71/16/23 76/34/23
f 73/20/24 72/15/24 76/35/24
f 74/18/25 73/36/25 76/37/25
f 75/16/26 74/38/26 76/15/26
f 77/13/7 78/14/7 79/15/7
f 78/16/8 77/17/8 82/18/8
f 77/18/9 79/19/9 80/20/9
f 77/16/10 80/15/10 81/21/10
f 77/22/11 81/20/11 82/23/11
f 78/15/12 82/16/12 87/24/12
f 79/15/13 78/16/13 83/25/13
f 80/16/14 79/15/14 84/26/14
f 81/16/15 80/15/15 85/27/15
f 82/16/16 81/15/16 86/25/16
f 78/28/17 87/18/17 83/20/17
f 79/29/18 83/18/18 84/20/18
f 80/30/19 84/20/19 85/18/19
f 81/29/20 85/20/20 86/18/20
f 82/31/21 86/18/21 87/20/21
f 83/32/22 87/18/22 88/20/22
f 84/33/23 83/16/23 88/34/23
f 85/20/24 84/15/24 88/35/24
f 86/18/25 85/36/25 88/37/25
f 87/16/26 86/38/26 88/15/26
f 89/13/27 90/14/27 91/15/27
f 90/16/8 89/17/8 94/18/8
f 89/18/9 91/19/9 92/20/9
f 89/16/10 92/15/10 93/21/10
f 89/22/29 93/20/29 94/23/29
f 90/15/12 94/16/12 99/24/12
f 91/15/13 90/16/13 95/25/13
f 92/16/14 91/15/14 96/26/14
f 93/16/15 92/15/15 97/27/15
f 94/16/16 93/15/16 98/25/16
f 90/28/17 99/18/17 95/20/17
f 91/29/18 95/18/18 96/20/18
f 92/30/19 96/20/19 97/18/19
f 93/29/20 97/20/20 98/18/20
f 94/31/21 98/18/21 99/20/21
f 95/32/22 99/18/22 100/20/22
f 96/33/28 95/16/28 100/34/28
f 97/20/24 96/15/24 100/35/24
f 98/18/30 97/36/30 100/37/30
f 99/16/26 98/38/26 100/15/26
f 101/9/1 102/10/1 104/11/1 103/12/1
f 103/9/2 104/10/2 108/11/2 107/12/2
f 107/12/3 108/11/3 106/10/3 105/9/3
f 105/12/4 106/11/4 102/10/4 101/9/4
f 103/10/5 107/11/5 105/12/5 101/9/5
f 108/11/6 104/10/6 102/9/6 106/12/6
f 109/13/7 110/14/7 111/15/7
f 110/16/8 109/17/8 114/18/8
f 109/18/9 111/19/9 112/20/9
f 109/16/10 112/15/10 113/21/10
f 109/22/11 113/20/11 114/23/11
f 110/15/12 114/16/12 119/24/12
f 111/15/13 110/16/13 115/25/13
f 112/16/14 111/15/14 116/26/14
f 113/16/15 112/15/15 117/27/15
f 114/16/16 113/15/16 118/25/16
f 110/28/17 119/18/17 115/20/17
f 111/29/18 115/18/18 116/20/18
f 112/30/19 116/20/19 117/18/19
f 113/29/20 117/20/20 118/18/20
f 114/31/21 118/18/21 119/20/21
f 115/32/22 119/18/22 120/20/22
f 116/33/23 115/16/23 120/34/23
f 117/20/24 116/15/24 120/35/24
f 118/18/25 117/36/25 120/37/25
f 119/16/26 118/38/26 120/15/26
f 121/13/7 122/14/7 123/15/7
f 122/16/8 121/17/8 126/18/8
f 121/18/9 123/19/9 124/20/9
f 121/16/10 124/15/10 125/21/10
f 121/22/29 125/20/29 126/23/29
f 122/15/12 126/16/12 131/24/12
f 123/15/13 122/16/13 127/25/13
f 124/16/14 123/15/14 128/26/14
f 125/16/15 124/15/15 129/27/15
f 126/16/16 125/15/16 130/25/16
f 122/28/17 131/18/17 127/20/17
f 123/29/18 127/18/18 128/20/18
f 124/30/19 128/20/19 129/18/19
f 125/29/20 129/20/20 130/18/20
f 126/31/21 130/18/21 131/20/21
f 127/32/22 131/18/22 132/20/22
f 128/33/23 127/16/23 132/34/23
f 129/20/24 128/15/24 132/35/24
f 130/18/30 129/36/30 132/37/30
f 131/16/26 130/38/26 132/15/26
f 133/13/7 134/14/7 135/15/7
f 134/16/8 133/17/8 138/18/8
f 133/18/9 135/19/9 136/20/9
f 133/16/10 136/15/10 137/21/10
f 133/22/11 137/20/11 138/23/11
f 134/15/12 138/16/12 143/24/12
f 135/15/13 134/16/13 139/25/13
f 136/16/14 135/15/14 140/26/14
f 137/16/15 136/15/15 141/27/15
f 138/16/16 137/15/16 142/25/16
f 134/28/17 143/18/17 139/20/17
f 135/29/18 139/18/18 140/20/18
f 136/30/19 140/20/19 141/18/19
f 137/29/20 141/20/20 142/18/20
f 138/31/21 142/18/21 143/20/21
f 139/32/22 143/18/22 144/20/22
f 140/33/23 139/16/23 144/34/23
f 141/20/24 140/15/24 144/35/24
f 142/18/25 141/36/25 144/37/25
f 143/16/26 142/38/26 144/15/26
f 145/13/7 146/14/7 147/15/7
f 146/16/8 145/17/8 150/18/8
f 145/18/9 147/19/9 148/20/9
f 145/16/10 148/15/10 149/21/10
f 145/22/11 149/20/11 150/23/11
f 146/15/12 150/16/12 155/24/12
f 147/15/13 146/16/13 151/25/13
f 148/16/14 147/15/14 152/26/14
f 149/16/15 148/15/15 153/27/15
f 150/16/16 149/15/16 154/25/16
f 146/28/17 155/18/17 151/20/17
f 147/29/18 151/18/18 152/20/18
f 148/30/19 152/20/19 153/18/19
f 149/29/20 153/20/20 154/18/20
f 150/31/21 154/18/21 155/20/21
f 151/32/22 155/18/22 156/20/22
f 152/33/23 151/16/23 156/34/23
f 153/20/24 152/15/24 156/35/24
f 154/18/25 153/36/25 156/37/25
f 155/16/26 154/38/26 156/15/26
f 157/13/27 158/14/27 159/15/27
f 158/16/8 157/17/8 162/18/8
f 157/18/9 159/19/9 160/20/9
f 157/16/10 160/15/10 161/21/10
f 157/22/29 161/20/29 162/23/29
f 158/15/12 162/16/12 167/24/12
f 159/15/13 158/16/13 163/25/13
f 160/16/14 159/15/14 164/26/14
f 161/16/15 160/15/15 165/27/15
f 162/16/16 161/15/16 166/25/16
f 158/28/17 167/18/17 163/20/17
f 159/29/18 163/18/18 164/20/18
f 160/30/19 164/20/19 165/18/19
f 161/29/20 165/20/20 166/18/20
f 162/31/21 166/18/21 167/20/21
f 163/32/22 167/18/22 168/20/22
f 164/33/28 163/16/28 168/34/28
f 165/20/24 164/15/24 168/35/24
f 166/18/30 165/36/30 168/37/30
f 167/16/26 166/38/26 168/15/26
f 169/39/1 170/40/1 172/41/1 171/42/1
f 171/39/2 172/40/2 176/41/2 175/42/2
f 175/42/3 176/41/3 174/40/3 173/39/3
f 173/42/4 174/41/4 170/40/4 169/39/4
f 171/40/5 175/41/5 173/42/5 169/39/5
f 176/41/6 172/40/6 170/39/6 174/42/6
f 177/39/1 178/40/1 180/41/1 179/42/1
f 179/39/2 180/40/2 184/41/2 183/42/2
f 183/42/3 184/41/3 182/40/3 181/39/3
f 181/42/4 182/41/4 178/40/4 177/39/4
f 179/40/5 183/41/5 181/42/5 177/39/5
f 184/41/6 180/40/6 178/39/6 182/42/6
f 185/39/1 186/40/1 188/41/1 187/42/1
f 187/39/2 188/40/2 192/41/2 191/42/2
f 191/42/3 192/41/3 190/40/3 189/39/3
f 189/42/4 190/41/4 186/40/4 185/39/4
f 187/40/5 191/41/5 189/42/5 185/39/5
f 192/41/6 188/40/6 186/39/6 190/42/6
f 193/39/1 194/40/1 196/41/1 195/42/1
f 195/39/2 196/40/2 200/41/2 199/42/2
f 199/42/3 200/41/3 198/40/3 197/39/3
f 197/42/4 198/41/4 194/40/4 193/39/4
f 195/40/5 199/41/5 197/42/5 193/39/5
f 200/41/6 196/40/6 194/39/6 198/42/6
f 201/39/1 202/40/1 204/41/1 203/42/1
f 203/39/2 204/40/2 208/41/2 207/42/2
f 207/42/3 208/41/3 206/40/3 205/39/3
f 205/42/4 206/41/4 202/40/4 201/39/4
f 203/40/5 207/41/5 205/42/5 201/39/5
f 208/41/6 204/40/6 202/39/6 206/42/6
f 209/39/1 210/40/1 212/41/1 211/42/1
f 211/39/2 212/40/2 216/41/2 215/42/2
f 215/42/3 216/41/3 214/40/3 213/39/3
f 213/42/4 214/41/4 210/40/4 209/39/4
f 211/40/5 215/41/5 213/42/5 209/39/5
f 216/41/6 212/40/6 210/39/6 214/42/6
f 217/43/1 218/44/1 220/45/1 219/46/1
f 219/43/31 220/44/31 224/45/31 223/46/31
f 223/46/3 224/45/3 222/44/3 221/43/3
f 221/46/32 222/45/32 218/44/32 217/43/32
f 219/44/33 223/45/33 221/46/33 217/43/33
f 224/45/34 220/44/34 218/43/34 222/46/34
f 225/39/1 226/40/1 228/41/1 227/42/1
f 227/39/35 228/40/35 232/41/35 231/42/35
f 231/42/3 232/41/3 230/40/3 229/39/3
f 229/42/36 230/41/36 226/40/36 225/39/36
f 227/40/37 231/41/37 229/42/37 225/39/37
f 232/41/38 228/40/38 226/39/38 230/42/38
f 233/43/1 234/44/1 236/45/1 235/46/1
f 235/43/31 236/44/31 240/45/31 239/46/31
f 239/46/3 240/45/3 238/44/3 237/43/3
f 237/46/32 238/45/32 234/44/32 233/43/32
f 235/44/33 239/45/33 237/46/33 233/43/33
f 240/45/34 236/44/34 234/43/34 238/46/34
f 241/39/1 242/40/1 244/41/1 243/42/1
f 243/39/35 244/40/35 248/41/35 247/42/35
f 247/42/3 248/41/3 246/40/3 245/39/3
f 245/42/36 246/41/36 242/40/36 241/39/36
f 243/40/37 247/41/37 245/42/37 241/39/37
f 248/41/38 244/40/38 242/39/38 246/42/38
f 249/43/1 250/44/1 252/45/1 251/46/1
f 251/43/39 252/44/39 256/45/39 255/46/39
f 255/46/3 256/45/3 254/44/3 253/43/3
f 253/46/40 254/45/40 250/44/40 249/43/40
f 251/44/41 255/45/41 253/46/41 249/43/41
f 256/45/42 252/44/42 250/43/42 254/46/42
f 257/39/1 258/40/1 260/41/1 259/42/1
f 259/39/43 260/40/43 264/41/43 263/42/43
f 263/42/3 264/41/3 262/40/3 261/39/3
f 261/42/44 262/41/44 258/40/44 257/39/44
f 259/40/45 263/41/45 261/42/45 257/39/45
f 264/41/46 260/40/46 258/39/46 262/42/46
f 265/43/1 266/44/1 268/45/1 267/46/1
f 267/43/39 268/44/39 272/45/39 271/46/39
f 271/46/3 272/45/3 270/44/3 269/43/3
f 269/46/40 270/45/40 266/44/40 265/43/40
f 267/44/41 271/45/41 269/46/41 265/43/41
f 272/45/42 268/44/42 266/43/42 270/46/42
f 273/39/1 274/40/1 276/41/1 275/42/1
f 275/39/43 276/40/43 280/41/43 279/42/43
f 279/42/3 280/41/3 278/40/3 277/39/3
f 277/42/44 278/41/44 274/40/44 273/39/44
f 275/40/45 279/41/45 277/42/45 273/39/45
f 280/41/46 276/40/46 274/39/46 278/42/46
f 281/43/1 282/44/1 284/45/1 283/46/1
f 283/43/47 284/44/47 288/45/47 287/46/47
f 287/46/3 288/45/3 286/44/3 285/43/3
f 285/46/48 286/45/48 282/44/48 281/43/48
f 283/44/49 287/45/49 285/46/49 281/43/49
f 288/45/50 284/44/50 282/43/50 286/46/50
f 289/43/1 290/44/1 292/45/1 291/46/1
f 291/43/51 292/44/51 296/45/51 295/46/51
f 295/46/3 296/45/3 294/44/3 293/43/3
f 293/46/52 294/45/52 290/44/52 289/43/52
f 291/44/53 295/45/53 293/46/53 289/43/53
f 296/45/54 292/44/54 290/43/54 294/46/54
f 297/43/1 298/44/1 300/45/1 299/46/1
f 299/43/55 300/44/55 304/45/55 303/46/55
f 303/46/3 304/45/3 302/44/3 301/43/3
f 301/46/56 302/45/56 298/44/56 297/43/56
f 299/44/57 303/45/57 301/46/57 297/43/57
f 304/45/58 300/44/58 298/43/58 302/46/58
f 305/43/1 306/44/1 308/45/1 307/46/1
f 307/43/59 308/44/59 312/45/59 311/46/59
f 311/46/3 312/45/3 310/44/3 309/43/3
f 309/46/60 310/45/60 306/44/60 305/43/60
f 307/44/61 311/45/61 309/46/61 305/43/61
f 312/45/62 308/44/62 306/43/62 310/46/62
f 313/43/1 314/44/1 316/45/1 315/46/1
f 315/43/63 316/44/63 320/45/63 319/46/63
f 319/46/3 320/45/3 318/44/3 317/43/3
f 317/46/64 318/45/64 314/44/64 313/43/64
f 315/44/65 319/45/65 317/46/65 313/43/65
f 320/45/66 316/44/66 314/43/66 318/46/66
f 321/43/1 322/44/1 324/45/1 323/46/1
f 323/43/67 324/44/67 328/45/67 327/46/67
f 327/46/3 328/45/3 326/44/3 325/43/3
f 325/46/68 326/45/68 322/44/68 321/43/68
f 323/44/69 327/45/69 325/46/69 321/43/69
f 328/45/70 324/44/70 322/43/70 326/46/70
f 329/43/1 330/44/1 332/45/1 331/46/1
f 331/43/71 332/44/71 336/45/71 335/46/71
f 335/46/3 336/45/3 334/44/3 333/43/3
f 333/46/72 334/45/72 330/44/72 329/43/72
f 331/44/73 335/45/73 333/46/73 329/43/73
f 336/45/74 332/44/74 330/43/74 334/46/74
f 337/43/1 338/44/1 340/45/1 339/46/1
f 339/43/75 340/44/75 344/45/75 343/46/75
f 343/46/3 344/45/3 342/44/3 341/43/3
f 341/46/76 342/45/76 338/44/76 337/43/76
f 339/44/77 343/45/77 341/46/77 337/43/77
f 344/45/78 340/44/78 338/43/78 342/46/78
f 345/47/1 346/48/1 348/49/1 347/50/1
f 347/47/5 348/48/5 352/49/5 351/50/5
f 351/50/3 352/49/3 350/48/3 349/47/3
f 349/50/6 350/49/6 346/48/6 345/47/6
f 347/48/4 351/49/4 349/50/4 345/47/4
f 352/49/2 348/48/2 346/47/2 350/50/2
f 353/47/1 354/48/1 356/49/1 355/50/1
f 355/47/5 356/48/5 360/49/5 359/50/5
f 359/50/3 360/49/3 358/48/3 357/47/3
f 357/50/6 358/49/6 354/48/6 353/47/6
f 355/48/4 359/49/4 357/50/4 353/47/4
f 360/49/2 356/48/2 354/47/2 358/50/2
f 361/47/1 362/48/1 364/49/1 363/50/1
f 363/47/5 364/48/5 368/49/5 367/50/5
f 367/50/3 368/49/3 366/48/3 365/47/3
f 365/50/6 366/49/6 362/48/6 361/47/6
f 363/48/4 367/49/4 365/50/4 361/47/4
f 368/49/2 364/48/2 362/47/2 366/50/2
f 369/47/1 370/48/1 372/49/1 371/50/1
f 371/47/5 372/48/5 376/49/5 375/50/5
f 375/50/3 376/49/3 374/48/3 373/47/3
f 373/50/6 374/49/6 370/48/6 369/47/6
f 371/48/4 375/49/4 373/50/4 369/47/4
f 376/49/2 372/48/2 370/47/2 374/50/2
f 377/47/1 378/48/1 380/49/1 379/50/1
f 379/47/5 380/48/5 384/49/5 383/50/5
f 383/50/3 384/49/3 382/48/3 381/47/3
f 381/50/6 382/49/6 378/48/6 377/47/6
f 379/48/4 383/49/4 381/50/4 377/47/4
f 384/49/2 380/48/2 378/47/2 382/50/2
f 385/47/1 386/48/1 388/49/1 387/50/1
f 387/47/5 388/48/5 392/49/5 391/50/5
f 391/50/3 392/49/3 390/48/3 389/47/3
f 389/50/6 390/49/6 386/48/6 385/47/6
f 387/48/4 391/49/4 389/50/4 385/47/4
f 392/49/2 388/48/2 386/47/2 390/50/2
f 393/47/1 394/48/1 396/49/1 395/50/1
f 395/47/5 396/48/5 400/49/5 399/50/5
f 399/50/3 400/49/3 398/48/3 397/47/3
f 397/50/6 398/49/6 394/48/6 393/47/6
f 395/48/4 399/49/4 397/50/4 393/47/4
f 400/49/2 396/48/2 394/47/2 398/50/2
f 401/43/1 402/44/1 404/45/1 403/46/1
f 403/43/47 404/44/47 408/45/47 407/46/47
f 407/46/3 408/45/3 406/44/3 405/43/3
f 405/46/48 406/45/48 402/44/48 401/43/48
f 403/44/49 407/45/49 405/46/49 401/43/49
f 408/45/50 404/44/50 402/43/50 406/46/50
f 409/43/1 410/44/1 412/45/1 411/46/1
f 411/43/51 412/44/51 416/45/51 415/46/51
f 415/46/3 416/45/3 414/44/3 413/43/3
f 413/46/52 414/45/52 410/44/52 409/43/52
f 411/44/53 415/45/53 413/46/53 409/43/53
f 416/45/54 412/44/54 410/43/54 414/46/54
f 417/43/1 418/44/1 420/45/1 419/46/1
f 419/43/55 420/44/55 424/45/55 423/46/55
f 423/46/3 424/45/3 422/44/3 421/43/3
f 421/46/56 422/45/56 418/44/56 417/43/56
f 419/44/57 423/45/57 421/46/57 417/43/57
f 424/45/58 420/44/58 418/43/58 422/46/58
f 425/43/1 426/44/1 428/45/1 427/46/1
f 427/43/59 428/44/59 432/45/59 431/46/59
f 431/46/3 432/45/3 430/44/3 429/43/3
f 429/46/60 430/45/60 426/44/60 425/43/60
f 427/44/61 431/45/61 429/46/61 425/43/61
f 432/45/62 428/44/62 426/43/62 430/46/62
f 433/43/1 434/44/1 436/45/1 435/46/1
f 435/43/63 436/44/63 440/45/63 439/46/63
f 439/46/3 440/45/3 438/44/3 437/43/3
f 437/46/64 438/45/64 434/44/64 433/43/64
f 435/44/65 439/45/65 437/46/65 433/43/65
f 440/45/66 436/44/66 434/43/66 438/46/66
f 441/43/1 442/44/1 444/45/1 443/46/1
f 443/43/67 444/44/67 448/45/67 447/46/67
f 447/46/3 448/45/3 446/44/3 445/43/3
f 445/46/68 446/45/68 442/44/68 441/43/68
f 443/44/69 447/45/69 445/46/69 441/43/69
f 448/45/70 444/44/70 442/43/70 446/46/70
f 449/43/1 450/44/1 452/45/1 451/46/1
f 451/43/71 452/44/71 456/45/71 455/46/71
f 455/46/3 456/45/3 454/44/3 453/43/3
f 453/46/72 454/45/72 450/44/72 449/43/72
f 451/44/73 455/45/73 453/46/73 449/43/73
f 456/45/74 452/44/74 450/43/74 454/46/74
f 457/43/1 458/44/1 460/45/1 459/46/1
f 459/43/75 460/44/75 464/45/75 463/46/75
f 463/46/3 464/45/3 462/44/3 461/43/3
f 461/46/76 462/45/76 458/44/76 457/43/76
f 459/44/77 463/45/77 461/46/77 457/43/77
f 464/45/78 460/44/78 458/43/78 462/46/78
f 465/47/1 466/48/1 468/49/1 467/50/1
f 467/47/5 468/48/5 472/49/5 471/50/5
f 471/50/3 472/49/3 470/48/3 469/47/3
f 469/50/6 470/49/6 466/48/6 465/47/6
f 467/48/4 471/49/4 469/50/4 465/47/4
f 472/49/2 468/48/2 466/47/2 470/50/2
f 473/47/1 474/48/1 476/49/1 475/50/1
f 475/47/5 476/48/5 480/49/5 479/50/5
f 479/50/3 480/49/3 478/48/3 477/47/3
f 477/50/6 478/49/6 474/48/6 473/47/6
f 475/48/4 479/49/4 477/50/4 473/47/4
f 480/49/2 476/48/2 474/47/2 478/50/2
f 481/47/1 482/48/1 484/49/1 483/50/1
f 483/47/5 484/48/5 488/49/5 487/50/5
f 487/50/3 488/49/3 486/48/3 485/47/3
f 485/50/6 486/49/6 482/48/6 481/47/6
f 483/48/4 487/49/4 485/50/4 481/47/4
f 488/49/2 484/48/2 482/47/2 486/50/2
f 489/47/1 490/48/1 492/49/1 491/50/1
f 491/47/5 492/48/5 496/49/5 495/50/5
f 495/50/3 496/49/3 494/48/3 493/47/3
f 493/50/6 494/49/6 490/48/6 489/47/6
f 491/48/4 495/49/4 493/50/4 489/47/4
f 496/49/2 492/48/2 490/47/2 494/50/2
f 497/47/1 498/48/1 500/49/1 499/50/1
f 499/47/5 500/48/5 504/49/5 503/50/5
f 503/50/3 504/49/3 502/48/3 501/47/3
f 501/50/6 502/49/6 498/48/6 497/47/6
f 499/48/4 503/49/4 501/50/4 497/47/4
f 504/49/2 500/48/2 498/47/2 502/50/2
f 505/47/1 506/48/1 508/49/1 507/50/1
f 507/47/5 508/48/5 512/49/5 511/50/5
f 511/50/3 512/49/3 510/48/3 509/47/3
f 509/50/6 510/49/6 506/48/6 505/47/6
f 507/48/4 511/49/4 509/50/4 505/47/4
f 512/49/2 508/48/2 506/47/2 510/50/2
f 513/47/1 514/48/1 516/49/1 515/50/1
f 515/47/5 516/48/5 520/49/5 519/50/5
f 519/50/3 520/49/3 518/48/3 517/47/3
f 517/50/6 518/49/6 514/48/6 513/47/6
f 515/48/4 519/49/4 517/50/4 513/47/4
f 520/49/2 516/48/2 514/47/2 518/50/2
f 521/43/1 522/44/1 524/45/1 523/46/1
f 523/43/79 524/44/79 528/45/79 527/46/79
f 527/46/3 528/45/3 526/44/3 525/43/3
f 525/46/80 526/45/80 522/44/80 521/43/80
f 523/44/81 527/45/81 525/46/81 521/43/81
f 528/45/82 524/44/82 522/43/82 526/46/82
f 529/43/1 530/44/1 532/45/1 531/46/1
f 531/43/83 532/44/83 536/45/83 535/46/83
f 535/46/3 536/45/3 534/44/3 533/43/3
f 533/46/84 534/45/84 530/44/84 529/43/84
f 531/44/85 535/45/85 533/46/85 529/43/85
f 536/45/86 532/44/86 530/43/86 534/46/86
f 537/43/1 538/44/1 540/45/1 539/46/1
f 539/43/87 540/44/87 544/45/87 543/46/87
f 543/46/3 544/45/3 542/44/3 541/43/3
f 541/46/88 542/45/88 538/44/88 537/43/88
f 539/44/89 543/45/89 541/46/89 537/43/89
f 544/45/90 540/44/90 538/43/90 542/46/90
f 545/43/1 546/44/1 548/45/1 547/46/1
f 547/43/91 548/44/91 552/45/91 551/46/91
f 551/46/3 552/45/3 550/44/3 549/43/3
f 549/46/92 550/45/92 546/44/92 545/43/92
f 547/44/93 551/45/93 549/46/93 545/43/93
f 552/45/94 548/44/94 546/43/94 550/46/94
f 553/43/1 554/44/1 556/45/1 555/46/1
f 555/43/95 556/44/95 560/45/95 559/46/95
f 559/46/3 560/45/3 558/44/3 557/43/3
f 557/46/96 558/45/96 554/44/96 553/43/96
f 555/44/97 559/45/97 557/46/97 553/43/97
f 560/45/98 556/44/98 554/43/98 558/46/98
f 561/43/1 562/44/1 564/45/1 563/46/1
f 563/43/99 564/44/99 568/45/99 567/46/99
f 567/46/3 568/45/3 566/44/3 565/43/3
f 565/46/100 566/45/100 562/44/100 561/43/100
f 563/44/101 567/45/101 565/46/101 561/43/101
f 568/45/102 564/44/102 562/43/102 566/46/102
f 569/43/1 570/44/1 572/45/1 571/46/1
f 571/43/103 572/44/103 576/45/103 575/46/103
f 575/46/3 576/45/3 574/44/3 573/43/3
f 573/46/104 574/45/104 570/44/104 569/43/104
f 571/44/105 575/45/105 573/46/105 569/43/105
f 576/45/106 572/44/106 570/43/106 574/46/106
f 577/43/1 578/44/1 580/45/1 579/46/1
f 579/43/107 580/44/107 584/45/107 583/46/107
f 583/46/3 584/45/3 582/44/3 581/43/3
f 581/46/108 582/45/108 578/44/108 577/43/108
f 579/44/109 583/45/109 581/46/109 577/43/109
f 584/45/110 580/44/110 578/43/110 582/46/110
f 585/43/1 586/44/1 588/45/1 587/46/1
f 587/43/79 588/44/79 592/45/79 591/46/79
f 591/46/3 592/45/3 590/44/3 589/43/3
f 589/46/80 590/45/80 586/44/80 585/43/80
f 587/44/81 591/45/81 589/46/81 585/43/81
f 592/45/82 588/44/82 586/43/82 590/46/82
f 593/43/1 594/44/1 596/45/1 595/46/1
f 595/43/83 596/44/83 600/45/83 599/46/83
f 599/46/3 600/45/3 598/44/3 597/43/3
f 597/46/84 598/45/84 594/44/84 593/43/84
f 595/44/85 599/45/85 597/46/85 593/43/85
f 600/45/86 596/44/86 594/43/86 598/46/86
f 601/43/1 602/44/1 604/45/1 603/46/1
f 603/43/87 604/44/87 608/45/87 607/46/87
f 607/46/3 608/45/3 606/44/3 605/43/3
f 605/46/88 606/45/88 602/44/88 601/43/88
f 603/44/89 607/45/89 605/46/89 601/43/89
f 608/45/90 604/44/90 602/43/90 606/46/90
f 609/43/1 610/44/1 612/45/1 611/46/1
f 611/43/91 612/44/91 616/45/91 615/46/91
f 615/46/3 616/45/3 614/44/3 613/43/3
f 613/46/92 614/45/92 610/44/92 609/43/92
f 611/44/93 615/45/93 613/46/93 609/43/93
f 616/45/94 612/44/94 610/43/94 614/46/94
f 617/43/1 618/44/1 620/45/1 619/46/1
f 619/43/95 620/44/95 624/45/95 623/46/95
f 623/46/3 624/45/3 622/44/3 621/43/3
f 621/46/96 622/45/96 618/44/96 617/43/96
f 619/44/97 623/45/97 621/46/97 617/43/97
f 624/45/98 620/44/98 618/43/98 622/46/98
f 625/43/1 626/44/1 628/45/1 627/46/1
f 627/43/99 628/44/99 632/45/99 631/46/99
f 631/46/3 632/45/3 630/44/3 629/43/3
f 629/46/100 630/45/100 626/44/100 625/43/100
f 627/44/101 631/45/101 629/46/101 625/43/101
f 632/45/102 628/44/102 626/43/102 630/46/102
f 633/43/1 634/44/1 636/45/1 635/46/1
f 635/43/103 636/44/103 640/45/103 639/46/103
f 639/46/3 640/45/3 638/44/3 637/43/3
f 637/46/104 638/45/104 634/44/104 633/43/104
f 635/44/105 639/45/105 637/46/105 633/43/105
f 640/45/106 636/44/106 634/43/106 638/46/106
f 641/43/1 642/44/1 644/45/1 643/46/1
f 643/43/107 644/44/107 648/45/107 647/46/107
f 647/46/3 648/45/3 646/44/3 645/43/3
f 645/46/108 646/45/108 642/44/108 641/43/108
f 643/44/109 647/45/109 645/46/109 641/43/109
f 648/45/110 644/44/110 642/43/110 646/46/110
f 649/39/1 650/40/1 652/41/1 651/42/1
f 651/39/2 652/40/2 656/41/2 655/42/2
f 655/42/3 656/41/3 654/40/3 653/39/3
f 653/42/4 654/41/4 650/40/4 649/39/4
f 651/40/5 655/41/5 653/42/5 649/39/5
f 656/41/6 652/40/6 650/39/6 654/42/6
f 657/39/1 658/40/1 660/41/1 659/42/1
f 659/39/2 660/40/2 664/41/2 663/42/2
f 663/42/3 664/41/3 662/40/3 661/39/3
f 661/42/4 662/41/4 658/40/4 657/39/4
f 659/40/5 663/41/5 661/42/5 657/39/5
f 664/41/6 660/40/6 658/39/6 662/42/6
f 665/39/1 666/40/1 668/41/1 667/42/1
f 667/39/111 668/40/111 672/41/111 671/42/111
f 671/42/3 672/41/3 670/40/3 669/39/3
f 669/42/112 670/41/112 666/40/112 665/39/112
f 667/40/113 671/41/113 669/42/113 665/39/113
f 672/41/114 668/40/114 666/39/114 670/42/114
f 673/39/1 674/40/1 676/41/1 675/42/1
f 675/39/2 676/40/2 680/41/2 679/42/2
f 679/42/3 680/41/3 678/40/3 677/39/3
f 677/42/4 678/41/4 674/40/4 673/39/4
f 675/40/5 679/41/5 677/42/5 673/39/5
f 680/41/6 676/40/6 674/39/6 678/42/6
f 681/39/1 682/40/1 684/41/1 683/42/1
f 683/39/2 684/40/2 688/41/2 687/42/2
f 687/42/3 688/41/3 686/40/3 685/39/3
f 685/42/4 686/41/4 682/40/4 681/39/4
f 683/40/5 687/41/5 685/42/5 681/39/5
f 688/41/6 684/40/6 682/39/6 686/42/6
f 689/39/1 690/40/1 692/41/1 691/42/1
f 691/39/2 692/40/2 696/41/2 695/42/2
f 695/42/3 696/41/3 694/40/3 693/39/3
f 693/42/4 694/41/4 690/40/4 689/39/4
f 691/40/5 695/41/5 693/42/5 689/39/5
f 696/41/6 692/40/6 690/39/6 694/42/6
f 697/39/1 698/40/1 700/41/1 699/42/1
f 699/39/111 700/40/111 704/41/111 703/42/111
f 703/42/3 704/41/3 702/40/3 701/39/3
f 701/42/112 702/41/112 698/40/112 697/39/112
f 699/40/113 703/41/113 701/42/113 697/39/113
f 704/41/114 700/40/114 698/39/114 702/42/114
f 705/39/1 706/40/1 708/41/1 707/42/1
f 707/39/2 708/40/2 712/41/2 711/42/2
f 711/42/3 712/41/3 710/40/3 709/39/3
f 709/42/4 710/41/4 706/40/4 705/39/4
f 707/40/5 711/41/5 709/42/5 705/39/5
f 712/41/6 708/40/6 706/39/6 710/42/6
f 713/39/1 714/40/1 716/41/1 715/42/1
f 715/39/2 716/40/2 720/41/2 719/42/2
f 719/42/3 720/41/3 718/40/3 717/39/3
f 717/42/4 718/41/4 714/40/4 713/39/4
f 715/40/5 719/41/5 717/42/5 713/39/5
f 720/41/6 716/40/6 714/39/6 718/42/6
f 721/39/1 722/40/1 724/41/1 723/42/1
f 723/39/111 724/40/111 728/41/111 727/42/111
f 727/42/3 728/41/3 726/40/3 725/39/3
f 725/42/112 726/41/112 722/40/112 721/39/112
f 723/40/113 727/41/113 725/42/113 721/39/113
f 728/41/114 724/40/114 722/39/114 726/42/114
f 729/39/1 730/40/1 732/41/1 731/42/1
f 731/39/2 732/40/2 736/41/2 735/42/2
f 735/42/3 736/41/3 734/40/3 733/39/3
f 733/42/4 734/41/4 730/40/4 729/39/4
f 731/40/5 735/41/5 733/42/5 729/39/5
f 736/41/6 732/40/6 730/39/6 734/42/6
f 737/51/1 738/52/1 740/53/1 739/54/1
f 739/51/2 740/52/2 744/53/2 743/54/2
f 743/54/3 744/53/3 742/52/3 741/51/3
f 741/54/4 742/53/4 738/52/4 737/51/4
f 739/52/5 743/53/5 741/54/5 737/51/5
f 744/53/6 740/52/6 738/51/6 742/54/6
f 745/55/1 746/56/1 748/57/1 747/58/1
f 747/55/2 748/56/2 752/57/2 751/58/2
f 751/58/3 752/57/3 750/56/3 749/55/3
f 749/58/4 750/57/4 746/56/4 745/55/4
f 747/56/5 751/57/5 749/58/5 745/55/5
f 752/57/6 748/56/6 746/55/6 750/58/6
f 753/59/1 754/60/1 756/61/1 755/62/1
f 755/59/2 756/60/2 760/61/2 759/62/2
f 759/62/3 760/61/3 758/60/3 757/59/3
f 757/62/4 758/61/4 754/60/4 753/59/4
f 755/60/5 759/61/5 757/62/5 753/59/5
f 760/61/6 756/60/6 754/59/6 758/62/6
