# Blender 5.0.1
# www.blender.org
mtllib hovel.mtl
o hovel
v -0.462467 0.043894 0.400000
v -0.436299 0.543209 0.400000
v -0.462467 0.043894 -0.400000
v -0.436299 0.543209 -0.400000
v 0.436299 -0.003209 0.400000
v 0.462467 0.496106 0.400000
v 0.436299 -0.003209 -0.400000
v 0.462467 0.496106 -0.400000
v -0.600000 0.520000 0.550000
v 0.600000 0.520000 0.550000
v 0.000000 0.920000 0.550000
v -0.600000 0.520000 -0.550000
v 0.600000 0.520000 -0.550000
v 0.000000 0.920000 -0.550000
v -0.120000 0.120000 0.430000
v -0.120000 0.540000 0.430000
v -0.120000 0.120000 0.370000
v -0.120000 0.540000 0.370000
v 0.120000 0.120000 0.430000
v 0.120000 0.540000 0.430000
v 0.120000 0.120000 0.370000
v 0.120000 0.540000 0.370000
v 0.200000 0.420000 0.430000
v 0.200000 0.580000 0.430000
v 0.200000 0.420000 0.370000
v 0.200000 0.580000 0.370000
v 0.360000 0.420000 0.430000
v 0.360000 0.580000 0.430000
v 0.360000 0.420000 0.370000
v 0.360000 0.580000 0.370000
vn -0.9986 0.0523 -0.0000
vn -0.0000 -0.0000 -1.0000
vn 0.9986 -0.0523 -0.0000
vn -0.0000 -0.0000 1.0000
vn -0.0523 -0.9986 -0.0000
vn 0.0523 0.9986 -0.0000
vn -0.5547 0.8321 -0.0000
vn 0.5547 0.8321 -0.0000
vn -0.0000 -1.0000 -0.0000
vn -1.0000 -0.0000 -0.0000
vn 1.0000 -0.0000 -0.0000
vn -0.0000 1.0000 -0.0000
vt 0.375000 0.000000
vt 0.625000 0.000000
vt 0.625000 0.250000
vt 0.375000 0.250000
vt 0.625000 0.500000
vt 0.375000 0.500000
vt 0.625000 0.750000
vt 0.375000 0.750000
vt 0.625000 1.000000
vt 0.375000 1.000000
vt 0.125000 0.500000
vt 0.125000 0.750000
vt 0.875000 0.500000
vt 0.875000 0.750000
vt 0.000000 0.000000
s 0
usemtl charwood
f 1/1/1 2/2/1 4/3/1 3/4/1
f 3/4/2 4/3/2 8/5/2 7/6/2
f 7/6/3 8/5/3 6/7/3 5/8/3
f 5/8/4 6/7/4 2/9/4 1/10/4
f 3/11/5 7/6/5 5/8/5 1/12/5
f 8/5/6 4/13/6 2/14/6 6/7/6
usemtl thatch_dk
f 9/15/4 10/15/4 11/15/4
f 14/15/2 13/15/2 12/15/2
f 9/15/7 11/15/7 14/15/7 12/15/7
f 11/15/8 10/15/8 13/15/8 14/15/8
f 10/15/9 9/15/9 12/15/9 13/15/9
usemtl wood_dk
f 15/1/10 16/2/10 18/3/10 17/4/10
f 17/4/2 18/3/2 22/5/2 21/6/2
f 21/6/11 22/5/11 20/7/11 19/8/11
f 19/8/4 20/7/4 16/9/4 15/10/4
f 17/11/9 21/6/9 19/8/9 15/12/9
f 22/5/12 18/13/12 16/14/12 20/7/12
usemtl ember
f 23/1/10 24/2/10 26/3/10 25/4/10
f 25/4/2 26/3/2 30/5/2 29/6/2
f 29/6/11 30/5/11 28/7/11 27/8/11
f 27/8/4 28/7/4 24/9/4 23/10/4
f 25/11/9 29/6/9 27/8/9 23/12/9
f 30/5/12 26/13/12 24/14/12 28/7/12
