# Blender 5.0.1
# www.blender.org
mtllib market_stall.mtl
o market_stall
v -0.630000 -0.005000 -0.350000
v -0.630000 1.445000 -0.350000
v -0.630000 -0.005000 -0.410000
v -0.630000 1.445000 -0.410000
v -0.570000 -0.005000 -0.350000
v -0.570000 1.445000 -0.350000
v -0.570000 -0.005000 -0.410000
v -0.570000 1.445000 -0.410000
v -0.630000 0.000000 0.430000
v -0.630000 1.200000 0.430000
v -0.630000 0.000000 0.370000
v -0.630000 1.200000 0.370000
v -0.570000 0.000000 0.430000
v -0.570000 1.200000 0.430000
v -0.570000 0.000000 0.370000
v -0.570000 1.200000 0.370000
v 0.570000 -0.005000 -0.350000
v 0.570000 1.445000 -0.350000
v 0.570000 -0.005000 -0.410000
v 0.570000 1.445000 -0.410000
v 0.630000 -0.005000 -0.350000
v 0.630000 1.445000 -0.350000
v 0.630000 -0.005000 -0.410000
v 0.630000 1.445000 -0.410000
v 0.570000 0.000000 0.430000
v 0.570000 1.200000 0.430000
v 0.570000 0.000000 0.370000
v 0.570000 1.200000 0.370000
v 0.630000 0.000000 0.430000
v 0.630000 1.200000 0.430000
v 0.630000 0.000000 0.370000
v 0.630000 1.200000 0.370000
v -0.625000 0.580000 0.370000
v -0.625000 0.660000 0.370000
v -0.625000 0.580000 -0.050000
v -0.625000 0.660000 -0.050000
v 0.625000 0.580000 0.370000
v 0.625000 0.660000 0.370000
v 0.625000 0.580000 -0.050000
v 0.625000 0.660000 -0.050000
v -0.625000 0.280000 0.390000
v -0.625000 0.620000 0.390000
v -0.625000 0.280000 0.330000
v -0.625000 0.620000 0.330000
v 0.625000 0.280000 0.390000
v 0.625000 0.620000 0.390000
v 0.625000 0.280000 0.330000
v 0.625000 0.620000 0.330000
v -0.600000 0.500000 -0.385000
v -0.600000 1.020000 -0.385000
v -0.600000 0.500000 -0.435000
v -0.600000 1.020000 -0.435000
v 0.600000 0.500000 -0.385000
v 0.600000 1.020000 -0.385000
v 0.600000 0.500000 -0.435000
v 0.600000 1.020000 -0.435000
v -0.600000 0.835000 -0.200000
v -0.600000 0.885000 -0.200000
v -0.600000 0.835000 -0.440000
v -0.600000 0.885000 -0.440000
v 0.600000 0.835000 -0.200000
v 0.600000 0.885000 -0.200000
v 0.600000 0.835000 -0.440000
v 0.600000 0.885000 -0.440000
v -0.710000 1.192052 0.420606
v -0.710000 1.230864 0.430283
v -0.710000 1.429136 -0.530283
v -0.710000 1.467948 -0.520607
v 0.710000 1.192052 0.420606
v 0.710000 1.230864 0.430283
v 0.710000 1.429136 -0.530283
v 0.710000 1.467948 -0.520607
v -0.740000 1.120000 0.465000
v -0.740000 1.260000 0.465000
v -0.740000 1.120000 0.435000
v -0.740000 1.260000 0.435000
v -0.500000 1.120000 0.465000
v -0.500000 1.260000 0.465000
v -0.500000 1.120000 0.435000
v -0.500000 1.260000 0.435000
v -0.430000 1.120000 0.465000
v -0.430000 1.260000 0.465000
v -0.430000 1.120000 0.435000
v -0.430000 1.260000 0.435000
v -0.190000 1.120000 0.465000
v -0.190000 1.260000 0.465000
v -0.190000 1.120000 0.435000
v -0.190000 1.260000 0.435000
v -0.120000 1.120000 0.465000
v -0.120000 1.260000 0.465000
v -0.120000 1.120000 0.435000
v -0.120000 1.260000 0.435000
v 0.120000 1.120000 0.465000
v 0.120000 1.260000 0.465000
v 0.120000 1.120000 0.435000
v 0.120000 1.260000 0.435000
v 0.190000 1.120000 0.465000
v 0.190000 1.260000 0.465000
v 0.190000 1.120000 0.435000
v 0.190000 1.260000 0.435000
v 0.430000 1.120000 0.465000
v 0.430000 1.260000 0.465000
v 0.430000 1.120000 0.435000
v 0.430000 1.260000 0.435000
v 0.500000 1.120000 0.465000
v 0.500000 1.260000 0.465000
v 0.500000 1.120000 0.435000
v 0.500000 1.260000 0.435000
v 0.740000 1.120000 0.465000
v 0.740000 1.260000 0.465000
v 0.740000 1.120000 0.435000
v 0.740000 1.260000 0.435000
v -0.050000 1.292554 0.182858
v -0.050000 1.311960 0.187696
v -0.050000 1.309489 0.114937
v -0.050000 1.328895 0.119776
v 0.050000 1.292554 0.182858
v 0.050000 1.311960 0.187696
v 0.050000 1.309489 0.114937
v 0.050000 1.328895 0.119776
v -0.085000 1.309489 0.114937
v -0.085000 1.328895 0.119776
v -0.085000 1.326423 0.047017
v -0.085000 1.345829 0.051855
v 0.085000 1.309489 0.114937
v 0.085000 1.328895 0.119776
v 0.085000 1.326423 0.047017
v 0.085000 1.345829 0.051855
v -0.105000 1.326423 0.047016
v -0.105000 1.345829 0.051855
v -0.105000 1.343358 -0.020904
v -0.105000 1.362764 -0.016066
v 0.105000 1.326423 0.047016
v 0.105000 1.345829 0.051855
v 0.105000 1.343358 -0.020904
v 0.105000 1.362764 -0.016066
v -0.090000 1.343358 -0.020904
v -0.090000 1.362764 -0.016066
v -0.090000 1.360292 -0.088825
v -0.090000 1.379698 -0.083986
v 0.100000 1.343358 -0.020904
v 0.100000 1.362764 -0.016066
v 0.100000 1.360292 -0.088825
v 0.100000 1.379698 -0.083986
v -0.030000 1.360292 -0.088825
v -0.030000 1.379698 -0.083986
v -0.030000 1.377227 -0.156746
v -0.030000 1.396633 -0.151907
v 0.110000 1.360292 -0.088825
v 0.110000 1.379698 -0.083986
v 0.110000 1.377227 -0.156746
v 0.110000 1.396633 -0.151907
v 0.030000 1.377227 -0.156746
v 0.030000 1.396633 -0.151907
v 0.030000 1.394161 -0.224666
v 0.030000 1.413567 -0.219828
v 0.120000 1.377227 -0.156746
v 0.120000 1.396633 -0.151907
v 0.120000 1.394161 -0.224666
v 0.120000 1.413567 -0.219828
v 0.090000 1.394161 -0.224666
v 0.090000 1.413567 -0.219828
v 0.090000 1.411096 -0.292587
v 0.090000 1.430502 -0.287749
v 0.130000 1.394161 -0.224666
v 0.130000 1.413567 -0.219828
v 0.130000 1.411096 -0.292587
v 0.130000 1.430502 -0.287749
v 0.180000 1.302231 0.144046
v 0.180000 1.321637 0.148885
v 0.180000 1.319166 0.076125
v 0.180000 1.338572 0.080964
v 0.260000 1.302231 0.144046
v 0.260000 1.321637 0.148885
v 0.260000 1.319166 0.076125
v 0.260000 1.338572 0.080964
v -0.530000 0.660000 0.285000
v -0.530000 0.710000 0.285000
v -0.530000 0.660000 0.115000
v -0.530000 0.710000 0.115000
v -0.310000 0.660000 0.285000
v -0.310000 0.710000 0.285000
v -0.310000 0.660000 0.115000
v -0.310000 0.710000 0.115000
v -0.520000 0.710000 0.285000
v -0.520000 0.760000 0.285000
v -0.520000 0.710000 0.115000
v -0.520000 0.760000 0.115000
v -0.320000 0.710000 0.285000
v -0.320000 0.760000 0.285000
v -0.320000 0.710000 0.115000
v -0.320000 0.760000 0.115000
v -0.510000 0.760000 0.285000
v -0.510000 0.810000 0.285000
v -0.510000 0.760000 0.115000
v -0.510000 0.810000 0.115000
v -0.330000 0.760000 0.285000
v -0.330000 0.810000 0.285000
v -0.330000 0.760000 0.115000
v -0.330000 0.810000 0.115000
v -0.420000 0.810000 0.200000
v -0.347640 0.865279 0.252572
v -0.447638 0.865279 0.285064
v -0.509442 0.865279 0.200000
v -0.447638 0.865279 0.114936
v -0.347640 0.865279 0.147428
v -0.392361 0.954722 0.285064
v -0.492360 0.954722 0.252572
v -0.492360 0.954722 0.147428
v -0.392361 0.954722 0.114936
v -0.330557 0.954722 0.200000
v -0.420000 1.010000 0.200000
v -0.495000 0.797500 0.275000
v -0.495000 0.912500 0.275000
v -0.495000 0.797500 0.175000
v -0.495000 0.912500 0.175000
v -0.345000 0.797500 0.275000
v -0.345000 0.912500 0.275000
v -0.345000 0.797500 0.175000
v -0.345000 0.912500 0.175000
v -0.480000 0.780000 0.282500
v -0.480000 0.830000 0.282500
v -0.480000 0.780000 0.197500
v -0.480000 0.830000 0.197500
v -0.360000 0.780000 0.282500
v -0.360000 0.830000 0.282500
v -0.360000 0.780000 0.197500
v -0.360000 0.830000 0.197500
v -0.483000 0.862000 0.299000
v -0.483000 0.902000 0.299000
v -0.483000 0.862000 0.257000
v -0.483000 0.902000 0.257000
v -0.441000 0.862000 0.299000
v -0.441000 0.902000 0.299000
v -0.441000 0.862000 0.257000
v -0.441000 0.902000 0.257000
v -0.399000 0.862000 0.299000
v -0.399000 0.902000 0.299000
v -0.399000 0.862000 0.257000
v -0.399000 0.902000 0.257000
v -0.357000 0.862000 0.299000
v -0.357000 0.902000 0.299000
v -0.357000 0.862000 0.257000
v -0.357000 0.902000 0.257000
v -0.432000 0.828000 0.299000
v -0.432000 0.860000 0.299000
v -0.432000 0.828000 0.265000
v -0.432000 0.860000 0.265000
v -0.408000 0.828000 0.299000
v -0.408000 0.860000 0.299000
v -0.408000 0.828000 0.265000
v -0.408000 0.860000 0.265000
v -0.467500 0.785000 0.290000
v -0.467500 0.825000 0.290000
v -0.467500 0.785000 0.270000
v -0.467500 0.825000 0.270000
v -0.462500 0.785000 0.290000
v -0.462500 0.825000 0.290000
v -0.462500 0.785000 0.270000
v -0.462500 0.825000 0.270000
v -0.437500 0.785000 0.290000
v -0.437500 0.825000 0.290000
v -0.437500 0.785000 0.270000
v -0.437500 0.825000 0.270000
v -0.432500 0.785000 0.290000
v -0.432500 0.825000 0.290000
v -0.432500 0.785000 0.270000
v -0.432500 0.825000 0.270000
v -0.407500 0.785000 0.290000
v -0.407500 0.825000 0.290000
v -0.407500 0.785000 0.270000
v -0.407500 0.825000 0.270000
v -0.402500 0.785000 0.290000
v -0.402500 0.825000 0.290000
v -0.402500 0.785000 0.270000
v -0.402500 0.825000 0.270000
v -0.377500 0.785000 0.290000
v -0.377500 0.825000 0.290000
v -0.377500 0.785000 0.270000
v -0.377500 0.825000 0.270000
v -0.372500 0.785000 0.290000
v -0.372500 0.825000 0.290000
v -0.372500 0.785000 0.270000
v -0.372500 0.825000 0.270000
v -0.050000 0.660000 0.170000
v -0.050000 0.750000 0.170000
v -0.000502 0.660000 0.190503
v -0.000502 0.750000 0.190503
v 0.020000 0.660000 0.240000
v 0.020000 0.750000 0.240000
v -0.000502 0.660000 0.289497
v -0.000502 0.750000 0.289497
v -0.050000 0.660000 0.310000
v -0.050000 0.750000 0.310000
v -0.099497 0.660000 0.289497
v -0.099497 0.750000 0.289497
v -0.120000 0.660000 0.240000
v -0.120000 0.750000 0.240000
v -0.099497 0.660000 0.190503
v -0.099497 0.750000 0.190503
v -0.050000 0.715000 0.195000
v -0.050000 0.765000 0.195000
v -0.018180 0.715000 0.208180
v -0.018180 0.765000 0.208180
v -0.005000 0.715000 0.240000
v -0.005000 0.765000 0.240000
v -0.018180 0.715000 0.271820
v -0.018180 0.765000 0.271820
v -0.050000 0.715000 0.285000
v -0.050000 0.765000 0.285000
v -0.081820 0.715000 0.271820
v -0.081820 0.765000 0.271820
v -0.095000 0.715000 0.240000
v -0.095000 0.765000 0.240000
v -0.081820 0.715000 0.208180
v -0.081820 0.765000 0.208180
v 0.000000 0.720120 0.175357
v 0.000000 0.834903 0.236389
v 0.013856 0.716364 0.182421
v 0.013856 0.831147 0.243452
v 0.013856 0.708853 0.196548
v 0.013856 0.823636 0.257579
v 0.000000 0.705097 0.203611
v 0.000000 0.819880 0.264643
v -0.013856 0.708853 0.196548
v -0.013856 0.823636 0.257579
v -0.013856 0.716364 0.182421
v -0.013856 0.831147 0.243452
v 0.200000 0.660000 0.205000
v 0.200000 0.830000 0.205000
v 0.238891 0.660000 0.221109
v 0.238891 0.830000 0.221109
v 0.255000 0.660000 0.260000
v 0.255000 0.830000 0.260000
v 0.238891 0.660000 0.298891
v 0.238891 0.830000 0.298891
v 0.200000 0.660000 0.315000
v 0.200000 0.830000 0.315000
v 0.161109 0.660000 0.298891
v 0.161109 0.830000 0.298891
v 0.145000 0.660000 0.260000
v 0.145000 0.830000 0.260000
v 0.161109 0.660000 0.221109
v 0.161109 0.830000 0.221109
v 0.200000 0.785000 0.210000
v 0.200000 0.815000 0.210000
v 0.235355 0.785000 0.224645
v 0.235355 0.815000 0.224645
v 0.250000 0.785000 0.260000
v 0.250000 0.815000 0.260000
v 0.235355 0.785000 0.295355
v 0.235355 0.815000 0.295355
v 0.200000 0.785000 0.310000
v 0.200000 0.815000 0.310000
v 0.164645 0.785000 0.295355
v 0.164645 0.815000 0.295355
v 0.150000 0.785000 0.260000
v 0.150000 0.815000 0.260000
v 0.164645 0.785000 0.224645
v 0.164645 0.815000 0.224645
v 0.200000 0.820000 0.234000
v 0.200000 0.880000 0.234000
v 0.222517 0.820000 0.247000
v 0.222517 0.880000 0.247000
v 0.222517 0.820000 0.273000
v 0.222517 0.880000 0.273000
v 0.200000 0.820000 0.286000
v 0.200000 0.880000 0.286000
v 0.177483 0.820000 0.273000
v 0.177483 0.880000 0.273000
v 0.177483 0.820000 0.247000
v 0.177483 0.880000 0.247000
v 0.200000 0.872500 0.227000
v 0.200000 0.907500 0.227000
v 0.228579 0.872500 0.243500
v 0.228579 0.907500 0.243500
v 0.228579 0.872500 0.276500
v 0.228579 0.907500 0.276500
v 0.200000 0.872500 0.293000
v 0.200000 0.907500 0.293000
v 0.171421 0.872500 0.276500
v 0.171421 0.907500 0.276500
v 0.171421 0.872500 0.243500
v 0.171421 0.907500 0.243500
v 0.350000 0.660000 0.165000
v 0.350000 0.790000 0.165000
v 0.388891 0.660000 0.181109
v 0.388891 0.790000 0.181109
v 0.405000 0.660000 0.220000
v 0.405000 0.790000 0.220000
v 0.388891 0.660000 0.258891
v 0.388891 0.790000 0.258891
v 0.350000 0.660000 0.275000
v 0.350000 0.790000 0.275000
v 0.311109 0.660000 0.258891
v 0.311109 0.790000 0.258891
v 0.295000 0.660000 0.220000
v 0.295000 0.790000 0.220000
v 0.311109 0.660000 0.181109
v 0.311109 0.790000 0.181109
v 0.350000 0.745000 0.170000
v 0.350000 0.775000 0.170000
v 0.385355 0.745000 0.184645
v 0.385355 0.775000 0.184645
v 0.400000 0.745000 0.220000
v 0.400000 0.775000 0.220000
v 0.385355 0.745000 0.255355
v 0.385355 0.775000 0.255355
v 0.350000 0.745000 0.270000
v 0.350000 0.775000 0.270000
v 0.314645 0.745000 0.255355
v 0.314645 0.775000 0.255355
v 0.300000 0.745000 0.220000
v 0.300000 0.775000 0.220000
v 0.314645 0.745000 0.184645
v 0.314645 0.775000 0.184645
v 0.350000 0.780000 0.194000
v 0.350000 0.840000 0.194000
v 0.372517 0.780000 0.207000
v 0.372517 0.840000 0.207000
v 0.372517 0.780000 0.233000
v 0.372517 0.840000 0.233000
v 0.350000 0.780000 0.246000
v 0.350000 0.840000 0.246000
v 0.327483 0.780000 0.233000
v 0.327483 0.840000 0.233000
v 0.327483 0.780000 0.207000
v 0.327483 0.840000 0.207000
v 0.350000 0.832500 0.187000
v 0.350000 0.867500 0.187000
v 0.378579 0.832500 0.203500
v 0.378579 0.867500 0.203500
v 0.378579 0.832500 0.236500
v 0.378579 0.867500 0.236500
v 0.350000 0.832500 0.253000
v 0.350000 0.867500 0.253000
v 0.321421 0.832500 0.236500
v 0.321421 0.867500 0.236500
v 0.321421 0.832500 0.203500
v 0.321421 0.867500 0.203500
v 0.500000 0.660000 0.230000
v 0.500000 0.790000 0.230000
v 0.525981 0.660000 0.245000
v 0.525981 0.790000 0.245000
v 0.525981 0.660000 0.275000
v 0.525981 0.790000 0.275000
v 0.500000 0.660000 0.290000
v 0.500000 0.790000 0.290000
v 0.474019 0.660000 0.275000
v 0.474019 0.790000 0.275000
v 0.474019 0.660000 0.245000
v 0.474019 0.790000 0.245000
v 0.500000 0.780000 0.225000
v 0.533287 0.780000 0.249184
v 0.520572 0.780000 0.288316
v 0.479428 0.780000 0.288316
v 0.466713 0.780000 0.249184
v 0.500000 0.860000 0.260000
v -0.450000 0.885000 -0.395000
v -0.450000 1.005000 -0.395000
v -0.411109 0.885000 -0.378891
v -0.411109 1.005000 -0.378891
v -0.395000 0.885000 -0.340000
v -0.395000 1.005000 -0.340000
v -0.411109 0.885000 -0.301109
v -0.411109 1.005000 -0.301109
v -0.450000 0.885000 -0.285000
v -0.450000 1.005000 -0.285000
v -0.488891 0.885000 -0.301109
v -0.488891 1.005000 -0.301109
v -0.505000 0.885000 -0.340000
v -0.505000 1.005000 -0.340000
v -0.488891 0.885000 -0.378891
v -0.488891 1.005000 -0.378891
v -0.450000 0.960000 -0.390000
v -0.450000 0.990000 -0.390000
v -0.414645 0.960000 -0.375355
v -0.414645 0.990000 -0.375355
v -0.400000 0.960000 -0.340000
v -0.400000 0.990000 -0.340000
v -0.414645 0.960000 -0.304645
v -0.414645 0.990000 -0.304645
v -0.450000 0.960000 -0.290000
v -0.450000 0.990000 -0.290000
v -0.485355 0.960000 -0.304645
v -0.485355 0.990000 -0.304645
v -0.500000 0.960000 -0.340000
v -0.500000 0.990000 -0.340000
v -0.485355 0.960000 -0.375355
v -0.485355 0.990000 -0.375355
v -0.450000 0.995000 -0.366000
v -0.450000 1.055000 -0.366000
v -0.427483 0.995000 -0.353000
v -0.427483 1.055000 -0.353000
v -0.427483 0.995000 -0.327000
v -0.427483 1.055000 -0.327000
v -0.450000 0.995000 -0.314000
v -0.450000 1.055000 -0.314000
v -0.472517 0.995000 -0.327000
v -0.472517 1.055000 -0.327000
v -0.472517 0.995000 -0.353000
v -0.472517 1.055000 -0.353000
v -0.450000 1.047500 -0.373000
v -0.450000 1.082500 -0.373000
v -0.421421 1.047500 -0.356500
v -0.421421 1.082500 -0.356500
v -0.421421 1.047500 -0.323500
v -0.421421 1.082500 -0.323500
v -0.450000 1.047500 -0.307000
v -0.450000 1.082500 -0.307000
v -0.478579 1.047500 -0.323500
v -0.478579 1.082500 -0.323500
v -0.478579 1.047500 -0.356500
v -0.478579 1.082500 -0.356500
v -0.270000 0.885000 -0.395000
v -0.270000 1.005000 -0.395000
v -0.231109 0.885000 -0.378891
v -0.231109 1.005000 -0.378891
v -0.215000 0.885000 -0.340000
v -0.215000 1.005000 -0.340000
v -0.231109 0.885000 -0.301109
v -0.231109 1.005000 -0.301109
v -0.270000 0.885000 -0.285000
v -0.270000 1.005000 -0.285000
v -0.308891 0.885000 -0.301109
v -0.308891 1.005000 -0.301109
v -0.325000 0.885000 -0.340000
v -0.325000 1.005000 -0.340000
v -0.308891 0.885000 -0.378891
v -0.308891 1.005000 -0.378891
v -0.270000 0.960000 -0.390000
v -0.270000 0.990000 -0.390000
v -0.234645 0.960000 -0.375355
v -0.234645 0.990000 -0.375355
v -0.220000 0.960000 -0.340000
v -0.220000 0.990000 -0.340000
v -0.234645 0.960000 -0.304645
v -0.234645 0.990000 -0.304645
v -0.270000 0.960000 -0.290000
v -0.270000 0.990000 -0.290000
v -0.305355 0.960000 -0.304645
v -0.305355 0.990000 -0.304645
v -0.320000 0.960000 -0.340000
v -0.320000 0.990000 -0.340000
v -0.305355 0.960000 -0.375355
v -0.305355 0.990000 -0.375355
v -0.270000 0.995000 -0.366000
v -0.270000 1.055000 -0.366000
v -0.247483 0.995000 -0.353000
v -0.247483 1.055000 -0.353000
v -0.247483 0.995000 -0.327000
v -0.247483 1.055000 -0.327000
v -0.270000 0.995000 -0.314000
v -0.270000 1.055000 -0.314000
v -0.292517 0.995000 -0.327000
v -0.292517 1.055000 -0.327000
v -0.292517 0.995000 -0.353000
v -0.292517 1.055000 -0.353000
v -0.270000 1.047500 -0.373000
v -0.270000 1.082500 -0.373000
v -0.241421 1.047500 -0.356500
v -0.241421 1.082500 -0.356500
v -0.241421 1.047500 -0.323500
v -0.241421 1.082500 -0.323500
v -0.270000 1.047500 -0.307000
v -0.270000 1.082500 -0.307000
v -0.298579 1.047500 -0.323500
v -0.298579 1.082500 -0.323500
v -0.298579 1.047500 -0.356500
v -0.298579 1.082500 -0.356500
v -0.090000 0.885000 -0.395000
v -0.090000 1.005000 -0.395000
v -0.051109 0.885000 -0.378891
v -0.051109 1.005000 -0.378891
v -0.035000 0.885000 -0.340000
v -0.035000 1.005000 -0.340000
v -0.051109 0.885000 -0.301109
v -0.051109 1.005000 -0.301109
v -0.090000 0.885000 -0.285000
v -0.090000 1.005000 -0.285000
v -0.128891 0.885000 -0.301109
v -0.128891 1.005000 -0.301109
v -0.145000 0.885000 -0.340000
v -0.145000 1.005000 -0.340000
v -0.128891 0.885000 -0.378891
v -0.128891 1.005000 -0.378891
v -0.090000 0.960000 -0.390000
v -0.090000 0.990000 -0.390000
v -0.054645 0.960000 -0.375355
v -0.054645 0.990000 -0.375355
v -0.040000 0.960000 -0.340000
v -0.040000 0.990000 -0.340000
v -0.054645 0.960000 -0.304645
v -0.054645 0.990000 -0.304645
v -0.090000 0.960000 -0.290000
v -0.090000 0.990000 -0.290000
v -0.125355 0.960000 -0.304645
v -0.125355 0.990000 -0.304645
v -0.140000 0.960000 -0.340000
v -0.140000 0.990000 -0.340000
v -0.125355 0.960000 -0.375355
v -0.125355 0.990000 -0.375355
v -0.090000 0.995000 -0.366000
v -0.090000 1.055000 -0.366000
v -0.067483 0.995000 -0.353000
v -0.067483 1.055000 -0.353000
v -0.067483 0.995000 -0.327000
v -0.067483 1.055000 -0.327000
v -0.090000 0.995000 -0.314000
v -0.090000 1.055000 -0.314000
v -0.112517 0.995000 -0.327000
v -0.112517 1.055000 -0.327000
v -0.112517 0.995000 -0.353000
v -0.112517 1.055000 -0.353000
v -0.090000 1.047500 -0.373000
v -0.090000 1.082500 -0.373000
v -0.061421 1.047500 -0.356500
v -0.061421 1.082500 -0.356500
v -0.061421 1.047500 -0.323500
v -0.061421 1.082500 -0.323500
v -0.090000 1.047500 -0.307000
v -0.090000 1.082500 -0.307000
v -0.118579 1.047500 -0.323500
v -0.118579 1.082500 -0.323500
v -0.118579 1.047500 -0.356500
v -0.118579 1.082500 -0.356500
v 0.090000 0.885000 -0.395000
v 0.090000 1.005000 -0.395000
v 0.128891 0.885000 -0.378891
v 0.128891 1.005000 -0.378891
v 0.145000 0.885000 -0.340000
v 0.145000 1.005000 -0.340000
v 0.128891 0.885000 -0.301109
v 0.128891 1.005000 -0.301109
v 0.090000 0.885000 -0.285000
v 0.090000 1.005000 -0.285000
v 0.051109 0.885000 -0.301109
v 0.051109 1.005000 -0.301109
v 0.035000 0.885000 -0.340000
v 0.035000 1.005000 -0.340000
v 0.051109 0.885000 -0.378891
v 0.051109 1.005000 -0.378891
v 0.090000 0.960000 -0.390000
v 0.090000 0.990000 -0.390000
v 0.125355 0.960000 -0.375355
v 0.125355 0.990000 -0.375355
v 0.140000 0.960000 -0.340000
v 0.140000 0.990000 -0.340000
v 0.125355 0.960000 -0.304645
v 0.125355 0.990000 -0.304645
v 0.090000 0.960000 -0.290000
v 0.090000 0.990000 -0.290000
v 0.054645 0.960000 -0.304645
v 0.054645 0.990000 -0.304645
v 0.040000 0.960000 -0.340000
v 0.040000 0.990000 -0.340000
v 0.054645 0.960000 -0.375355
v 0.054645 0.990000 -0.375355
v 0.090000 0.995000 -0.366000
v 0.090000 1.055000 -0.366000
v 0.112517 0.995000 -0.353000
v 0.112517 1.055000 -0.353000
v 0.112517 0.995000 -0.327000
v 0.112517 1.055000 -0.327000
v 0.090000 0.995000 -0.314000
v 0.090000 1.055000 -0.314000
v 0.067483 0.995000 -0.327000
v 0.067483 1.055000 -0.327000
v 0.067483 0.995000 -0.353000
v 0.067483 1.055000 -0.353000
v 0.090000 1.047500 -0.373000
v 0.090000 1.082500 -0.373000
v 0.118579 1.047500 -0.356500
v 0.118579 1.082500 -0.356500
v 0.118579 1.047500 -0.323500
v 0.118579 1.082500 -0.323500
v 0.090000 1.047500 -0.307000
v 0.090000 1.082500 -0.307000
v 0.061421 1.047500 -0.323500
v 0.061421 1.082500 -0.323500
v 0.061421 1.047500 -0.356500
v 0.061421 1.082500 -0.356500
v 0.270000 0.885000 -0.395000
v 0.270000 1.005000 -0.395000
v 0.308891 0.885000 -0.378891
v 0.308891 1.005000 -0.378891
v 0.325000 0.885000 -0.340000
v 0.325000 1.005000 -0.340000
v 0.308891 0.885000 -0.301109
v 0.308891 1.005000 -0.301109
v 0.270000 0.885000 -0.285000
v 0.270000 1.005000 -0.285000
v 0.231109 0.885000 -0.301109
v 0.231109 1.005000 -0.301109
v 0.215000 0.885000 -0.340000
v 0.215000 1.005000 -0.340000
v 0.231109 0.885000 -0.378891
v 0.231109 1.005000 -0.378891
v 0.270000 0.960000 -0.390000
v 0.270000 0.990000 -0.390000
v 0.305355 0.960000 -0.375355
v 0.305355 0.990000 -0.375355
v 0.320000 0.960000 -0.340000
v 0.320000 0.990000 -0.340000
v 0.305355 0.960000 -0.304645
v 0.305355 0.990000 -0.304645
v 0.270000 0.960000 -0.290000
v 0.270000 0.990000 -0.290000
v 0.234645 0.960000 -0.304645
v 0.234645 0.990000 -0.304645
v 0.220000 0.960000 -0.340000
v 0.220000 0.990000 -0.340000
v 0.234645 0.960000 -0.375355
v 0.234645 0.990000 -0.375355
v 0.270000 0.995000 -0.366000
v 0.270000 1.055000 -0.366000
v 0.292517 0.995000 -0.353000
v 0.292517 1.055000 -0.353000
v 0.292517 0.995000 -0.327000
v 0.292517 1.055000 -0.327000
v 0.270000 0.995000 -0.314000
v 0.270000 1.055000 -0.314000
v 0.247483 0.995000 -0.327000
v 0.247483 1.055000 -0.327000
v 0.247483 0.995000 -0.353000
v 0.247483 1.055000 -0.353000
v 0.270000 1.047500 -0.373000
v 0.270000 1.082500 -0.373000
v 0.298579 1.047500 -0.356500
v 0.298579 1.082500 -0.356500
v 0.298579 1.047500 -0.323500
v 0.298579 1.082500 -0.323500
v 0.270000 1.047500 -0.307000
v 0.270000 1.082500 -0.307000
v 0.241421 1.047500 -0.323500
v 0.241421 1.082500 -0.323500
v 0.241421 1.047500 -0.356500
v 0.241421 1.082500 -0.356500
v 0.450000 0.885000 -0.395000
v 0.450000 1.005000 -0.395000
v 0.488891 0.885000 -0.378891
v 0.488891 1.005000 -0.378891
v 0.505000 0.885000 -0.340000
v 0.505000 1.005000 -0.340000
v 0.488891 0.885000 -0.301109
v 0.488891 1.005000 -0.301109
v 0.450000 0.885000 -0.285000
v 0.450000 1.005000 -0.285000
v 0.411109 0.885000 -0.301109
v 0.411109 1.005000 -0.301109
v 0.395000 0.885000 -0.340000
v 0.395000 1.005000 -0.340000
v 0.411109 0.885000 -0.378891
v 0.411109 1.005000 -0.378891
v 0.450000 0.960000 -0.390000
v 0.450000 0.990000 -0.390000
v 0.485355 0.960000 -0.375355
v 0.485355 0.990000 -0.375355
v 0.500000 0.960000 -0.340000
v 0.500000 0.990000 -0.340000
v 0.485355 0.960000 -0.304645
v 0.485355 0.990000 -0.304645
v 0.450000 0.960000 -0.290000
v 0.450000 0.990000 -0.290000
v 0.414645 0.960000 -0.304645
v 0.414645 0.990000 -0.304645
v 0.400000 0.960000 -0.340000
v 0.400000 0.990000 -0.340000
v 0.414645 0.960000 -0.375355
v 0.414645 0.990000 -0.375355
v 0.450000 0.995000 -0.366000
v 0.450000 1.055000 -0.366000
v 0.472517 0.995000 -0.353000
v 0.472517 1.055000 -0.353000
v 0.472517 0.995000 -0.327000
v 0.472517 1.055000 -0.327000
v 0.450000 0.995000 -0.314000
v 0.450000 1.055000 -0.314000
v 0.427483 0.995000 -0.327000
v 0.427483 1.055000 -0.327000
v 0.427483 0.995000 -0.353000
v 0.427483 1.055000 -0.353000
v 0.450000 1.047500 -0.373000
v 0.450000 1.082500 -0.373000
v 0.478579 1.047500 -0.356500
v 0.478579 1.082500 -0.356500
v 0.478579 1.047500 -0.323500
v 0.478579 1.082500 -0.323500
v 0.450000 1.047500 -0.307000
v 0.450000 1.082500 -0.307000
v 0.421421 1.047500 -0.323500
v 0.421421 1.082500 -0.323500
v 0.421421 1.047500 -0.356500
v 0.421421 1.082500 -0.356500
v -0.560000 1.040000 0.450000
v -0.560000 1.160000 0.450000
v -0.560000 1.040000 0.430000
v -0.560000 1.160000 0.430000
v -0.540000 1.040000 0.450000
v -0.540000 1.160000 0.450000
v -0.540000 1.040000 0.430000
v -0.540000 1.160000 0.430000
v -0.550000 0.880000 0.420000
v -0.550000 1.080000 0.360000
v -0.530979 0.880000 0.433820
v -0.473915 1.080000 0.415279
v -0.538244 0.880000 0.456180
v -0.502977 1.080000 0.504721
v -0.561756 0.880000 0.456180
v -0.597023 1.080000 0.504721
v -0.569021 0.880000 0.433820
v -0.626085 1.080000 0.415279
v 0.540000 1.040000 0.450000
v 0.540000 1.160000 0.450000
v 0.540000 1.040000 0.430000
v 0.540000 1.160000 0.430000
v 0.560000 1.040000 0.450000
v 0.560000 1.160000 0.450000
v 0.560000 1.040000 0.430000
v 0.560000 1.160000 0.430000
v 0.550000 0.880000 0.420000
v 0.550000 1.080000 0.360000
v 0.569021 0.880000 0.433820
v 0.626085 1.080000 0.415279
v 0.561756 0.880000 0.456180
v 0.597023 1.080000 0.504721
v 0.538244 0.880000 0.456180
v 0.502977 1.080000 0.504721
v 0.530979 0.880000 0.433820
v 0.473915 1.080000 0.415279
v 0.500000 0.000000 -0.210000
v 0.500000 0.360000 -0.210000
v 0.594046 0.000000 -0.179443
v 0.594046 0.360000 -0.179443
v 0.652169 0.000000 -0.099443
v 0.652169 0.360000 -0.099443
v 0.652169 0.000000 -0.000557
v 0.652169 0.360000 -0.000557
v 0.594046 0.000000 0.079443
v 0.594046 0.360000 0.079443
v 0.500000 0.000000 0.110000
v 0.500000 0.360000 0.110000
v 0.405954 0.000000 0.079443
v 0.405954 0.360000 0.079443
v 0.347831 0.000000 -0.000557
v 0.347831 0.360000 -0.000557
v 0.347831 0.000000 -0.099443
v 0.347831 0.360000 -0.099443
v 0.405954 0.000000 -0.179443
v 0.405954 0.360000 -0.179443
v 0.500000 0.065000 -0.212000
v 0.500000 0.095000 -0.212000
v 0.595221 0.065000 -0.181061
v 0.595221 0.095000 -0.181061
v 0.654071 0.065000 -0.100061
v 0.654071 0.095000 -0.100061
v 0.654071 0.065000 0.000061
v 0.654071 0.095000 0.000061
v 0.595221 0.065000 0.081061
v 0.595221 0.095000 0.081061
v 0.500000 0.065000 0.112000
v 0.500000 0.095000 0.112000
v 0.404779 0.065000 0.081061
v 0.404779 0.095000 0.081061
v 0.345929 0.065000 0.000061
v 0.345929 0.095000 0.000061
v 0.345929 0.065000 -0.100061
v 0.345929 0.095000 -0.100061
v 0.404779 0.065000 -0.181061
v 0.404779 0.095000 -0.181061
v 0.500000 0.265000 -0.212000
v 0.500000 0.295000 -0.212000
v 0.595221 0.265000 -0.181061
v 0.595221 0.295000 -0.181061
v 0.654071 0.265000 -0.100061
v 0.654071 0.295000 -0.100061
v 0.654071 0.265000 0.000061
v 0.654071 0.295000 0.000061
v 0.595221 0.265000 0.081061
v 0.595221 0.295000 0.081061
v 0.500000 0.265000 0.112000
v 0.500000 0.295000 0.112000
v 0.404779 0.265000 0.081061
v 0.404779 0.295000 0.081061
v 0.345929 0.265000 0.000061
v 0.345929 0.295000 0.000061
v 0.345929 0.265000 -0.100061
v 0.345929 0.295000 -0.100061
v 0.404779 0.265000 -0.181061
v 0.404779 0.295000 -0.181061
v -0.650000 0.000000 0.130000
v -0.650000 0.300000 0.130000
v -0.650000 0.000000 -0.170000
v -0.650000 0.300000 -0.170000
v -0.350000 0.000000 0.130000
v -0.350000 0.300000 0.130000
v -0.350000 0.000000 -0.170000
v -0.350000 0.300000 -0.170000
v -0.660000 0.175000 0.155000
v -0.660000 0.225000 0.155000
v -0.660000 0.175000 0.105000
v -0.660000 0.225000 0.105000
v -0.340000 0.175000 0.155000
v -0.340000 0.225000 0.155000
v -0.340000 0.175000 0.105000
v -0.340000 0.225000 0.105000
v -0.060000 0.045000 -0.190000
v -0.060000 0.195000 -0.190000
v 0.016412 0.045000 -0.165172
v 0.016412 0.195000 -0.165172
v 0.063637 0.045000 -0.100172
v 0.063637 0.195000 -0.100172
v 0.063637 0.045000 -0.019828
v 0.063637 0.195000 -0.019828
v 0.016412 0.045000 0.045172
v 0.016412 0.195000 0.045172
v -0.060000 0.045000 0.070000
v -0.060000 0.195000 0.070000
v -0.136412 0.045000 0.045172
v -0.136412 0.195000 0.045172
v -0.183637 0.045000 -0.019828
v -0.183637 0.195000 -0.019828
v -0.183637 0.045000 -0.100172
v -0.183637 0.195000 -0.100172
v -0.136412 0.045000 -0.165172
v -0.136412 0.195000 -0.165172
v 0.200000 0.000000 0.050000
v 0.286832 0.066334 0.113086
v 0.166834 0.066334 0.152077
v 0.092669 0.066334 0.050000
v 0.166834 0.066334 -0.052077
v 0.286832 0.066334 -0.013086
v 0.233166 0.173666 0.152077
v 0.113168 0.173666 0.113086
v 0.113168 0.173666 -0.013086
v 0.233166 0.173666 -0.052077
v 0.307331 0.173666 0.050000
v 0.200000 0.240000 0.050000
v -0.615000 0.860000 0.415000
v -0.615000 1.020000 0.415000
v -0.615000 0.860000 0.385000
v -0.615000 1.020000 0.385000
v -0.585000 0.860000 0.415000
v -0.585000 1.020000 0.415000
v -0.585000 0.860000 0.385000
v -0.585000 1.020000 0.385000
v -0.655000 0.730000 0.455000
v -0.655000 0.870000 0.455000
v -0.655000 0.730000 0.345000
v -0.655000 0.870000 0.345000
v -0.545000 0.730000 0.455000
v -0.545000 0.870000 0.455000
v -0.545000 0.730000 0.345000
v -0.545000 0.870000 0.345000
v -0.630000 0.755000 0.430000
v -0.630000 0.845000 0.430000
v -0.630000 0.755000 0.370000
v -0.630000 0.845000 0.370000
v -0.570000 0.755000 0.430000
v -0.570000 0.845000 0.430000
v -0.570000 0.755000 0.370000
v -0.570000 0.845000 0.370000
vn -1.0000 -0.0000 -0.0000
vn -0.0000 -0.0000 -1.0000
vn 1.0000 -0.0000 -0.0000
vn -0.0000 -0.0000 1.0000
vn -0.0000 -1.0000 -0.0000
vn -0.0000 1.0000 -0.0000
vn -0.0000 0.2419 -0.9703
vn -0.0000 -0.2419 0.9703
vn -0.0000 -0.9703 -0.2419
vn -0.0000 0.9703 0.2419
vn 0.1876 -0.7947 0.5774
vn 0.6071 -0.7947 -0.0000
vn -0.4911 -0.7947 0.3568
vn -0.4911 -0.7947 -0.3568
vn 0.1876 -0.7947 -0.5774
vn 0.9822 -0.1876 -0.0000
vn 0.3035 -0.1876 0.9342
vn -0.7946 -0.1876 0.5774
vn -0.7946 -0.1876 -0.5774
vn 0.3035 -0.1876 -0.9342
vn 0.7946 0.1876 0.5774
vn -0.3035 0.1876 0.9342
vn -0.9822 0.1876 -0.0000
vn -0.3035 0.1876 -0.9342
vn 0.7946 0.1876 -0.5774
vn 0.4911 0.7947 0.3568
vn -0.1876 0.7947 0.5774
vn -0.6071 0.7947 -0.0000
vn -0.1876 0.7947 -0.5774
vn 0.4911 0.7947 -0.3568
vn 0.3827 -0.0000 -0.9239
vn 0.9239 -0.0000 -0.3827
vn 0.9239 -0.0000 0.3827
vn 0.3827 -0.0000 0.9239
vn -0.3827 -0.0000 0.9239
vn -0.9239 -0.0000 0.3827
vn -0.9239 -0.0000 -0.3827
vn -0.3827 -0.0000 -0.9239
vn 0.5000 0.4066 -0.7647
vn 0.5000 -0.4066 0.7647
vn -0.5000 -0.4066 0.7647
vn -0.0000 0.8829 0.4695
vn -0.5000 0.4066 -0.7647
vn -0.0000 -0.8829 -0.4695
vn 0.5000 -0.0000 -0.8660
vn 0.5000 -0.0000 0.8660
vn -0.5000 -0.0000 0.8660
vn -0.5000 -0.0000 -0.8660
vn 0.5541 0.3337 -0.7627
vn 0.8966 0.3337 0.2913
vn -0.0000 0.3337 0.9427
vn -0.8966 0.3337 0.2913
vn -0.5541 0.3337 -0.7627
vn 0.5712 -0.2359 -0.7862
vn 0.9242 -0.2359 0.3003
vn -0.0000 -0.2359 0.9718
vn -0.9242 -0.2359 0.3003
vn -0.5712 -0.2359 -0.7862
vn 0.3090 -0.0000 -0.9511
vn 0.8090 -0.0000 -0.5878
vn 0.8090 -0.0000 0.5878
vn 0.3090 -0.0000 0.9511
vn -0.3090 -0.0000 0.9511
vn -0.8090 -0.0000 0.5878
vn -0.8090 -0.0000 -0.5878
vn -0.3090 -0.0000 -0.9511
vt 0.375000 0.000000
vt 0.625000 0.000000
vt 0.625000 0.250000
vt 0.375000 0.250000
vt 0.625000 0.500000
vt 0.375000 0.500000
vt 0.625000 0.750000
vt 0.375000 0.750000
vt 0.625000 1.000000
vt 0.375000 1.000000
vt 0.125000 0.500000
vt 0.125000 0.750000
vt 0.875000 0.500000
vt 0.875000 0.750000
vt 0.181819 0.000000
vt 0.272728 0.157461
vt 0.090910 0.157461
vt 0.363637 0.000000
vt 0.454546 0.157461
vt 0.909091 0.000000
vt 1.000000 0.157461
vt 0.818182 0.157461
vt 0.727273 0.000000
vt 0.636364 0.157461
vt 0.545455 0.000000
vt 0.363637 0.314921
vt 0.181819 0.314921
vt 0.909091 0.314921
vt 0.727273 0.314921
vt 0.545455 0.314921
vt 0.000000 0.314921
vt 0.272728 0.472382
vt 0.090910 0.472382
vt 0.818182 0.472382
vt 0.636364 0.472382
vt 0.454546 0.472382
vt 1.000000 0.500000
vt 1.000000 1.000000
vt 0.875000 1.000000
vt 0.750000 1.000000
vt 0.750000 0.500000
vt 0.500000 1.000000
vt 0.500000 0.500000
vt 0.250000 1.000000
vt 0.250000 0.500000
vt 0.419706 0.419706
vt 0.250000 0.490000
vt 0.080294 0.419706
vt 0.010000 0.250000
vt 0.080294 0.080294
vt 0.250000 0.010000
vt 0.419706 0.080294
vt 0.490000 0.250000
vt 0.125000 1.000000
vt 0.000000 1.000000
vt 0.000000 0.500000
vt 0.750000 0.490000
vt 0.919706 0.419706
vt 0.990000 0.250000
vt 0.919706 0.080294
vt 0.750000 0.010000
vt 0.580294 0.080294
vt 0.510000 0.250000
vt 0.580294 0.419706
vt 0.250000 0.490000
vt 0.010000 0.250000
vt 0.250000 0.010000
vt 0.490000 0.250000
vt 0.750000 0.490000
vt 0.750000 0.010000
vt 0.833333 1.000000
vt 0.833333 0.500000
vt 0.666667 1.000000
vt 0.666667 0.500000
vt 0.500000 1.000000
vt 0.500000 0.500000
vt 0.333333 1.000000
vt 0.333333 0.500000
vt 0.457846 0.370000
vt 0.042154 0.370000
vt 0.042154 0.130000
vt 0.457846 0.130000
vt 0.166667 1.000000
vt 0.166667 0.500000
vt -0.000000 1.000000
vt -0.000000 0.500000
vt 0.957846 0.370000
vt 0.957846 0.130000
vt 0.542154 0.130000
vt 0.542154 0.370000
vt 0.080294 0.419706
vt 0.010000 0.250000
vt 0.080294 0.080294
vt 0.250000 0.010000
vt 0.419706 0.080294
vt 0.919706 0.080294
vt 0.750000 0.010000
vt 0.580294 0.080294
vt 0.250000 0.250000
vt 0.478254 0.324164
vt 0.391068 0.055836
vt 0.108932 0.055836
vt 0.978254 0.324164
vt 0.891068 0.055836
vt 0.608932 0.055836
vt 0.521746 0.324164
vt 0.021746 0.324164
vt 0.800000 1.000000
vt 0.800000 0.500000
vt 0.600000 1.000000
vt 0.600000 0.500000
vt 0.400000 1.000000
vt 0.400000 0.500000
vt 0.478254 0.324164
vt 0.021746 0.324164
vt 0.108932 0.055836
vt 0.391068 0.055836
vt 0.200000 1.000000
vt 0.200000 0.500000
vt 0.000000 1.000000
vt 0.000000 0.500000
vt 0.978254 0.324164
vt 0.891068 0.055836
vt 0.608932 0.055836
vt 0.521746 0.324164
vt 0.900000 1.000000
vt 0.900000 0.500000
vt 0.800000 1.000000
vt 0.800000 0.500000
vt 0.700000 1.000000
vt 0.700000 0.500000
vt 0.600000 1.000000
vt 0.600000 0.500000
vt 0.500000 1.000000
vt 0.500000 0.500000
vt 0.400000 1.000000
vt 0.400000 0.500000
vt 0.300000 1.000000
vt 0.300000 0.500000
vt 0.200000 1.000000
vt 0.200000 0.500000
vt 0.391068 0.444164
vt 0.108932 0.444164
vt 0.021746 0.175836
vt 0.478254 0.175836
vt 0.100000 1.000000
vt 0.100000 0.500000
vt -0.000000 1.000000
vt -0.000000 0.500000
vt 0.891068 0.444164
vt 0.978254 0.175836
vt 0.521746 0.175836
vt 0.608932 0.444164
vt 0.391068 0.444164
vt 0.108932 0.444164
vt 0.891068 0.444164
vt 0.608932 0.444164
s 0
usemtl charwood
f 1/1/1 2/2/1 4/3/1 3/4/1
f 3/4/2 4/3/2 8/5/2 7/6/2
f 7/6/3 8/5/3 6/7/3 5/8/3
f 5/8/4 6/7/4 2/9/4 1/10/4
f 3/11/5 7/6/5 5/8/5 1/12/5
f 8/5/6 4/13/6 2/14/6 6/7/6
f 9/1/1 10/2/1 12/3/1 11/4/1
f 11/4/2 12/3/2 16/5/2 15/6/2
f 15/6/3 16/5/3 14/7/3 13/8/3
f 13/8/4 14/7/4 10/9/4 9/10/4
f 11/11/5 15/6/5 13/8/5 9/12/5
f 16/5/6 12/13/6 10/14/6 14/7/6
f 17/1/1 18/2/1 20/3/1 19/4/1
f 19/4/2 20/3/2 24/5/2 23/6/2
f 23/6/3 24/5/3 22/7/3 21/8/3
f 21/8/4 22/7/4 18/9/4 17/10/4
f 19/11/5 23/6/5 21/8/5 17/12/5
f 24/5/6 20/13/6 18/14/6 22/7/6
f 25/1/1 26/2/1 28/3/1 27/4/1
f 27/4/2 28/3/2 32/5/2 31/6/2
f 31/6/3 32/5/3 30/7/3 29/8/3
f 29/8/4 30/7/4 26/9/4 25/10/4
f 27/11/5 31/6/5 29/8/5 25/12/5
f 32/5/6 28/13/6 26/14/6 30/7/6
f 41/1/1 42/2/1 44/3/1 43/4/1
f 43/4/2 44/3/2 48/5/2 47/6/2
f 47/6/3 48/5/3 46/7/3 45/8/3
f 45/8/4 46/7/4 42/9/4 41/10/4
f 43/11/5 47/6/5 45/8/5 41/12/5
f 48/5/6 44/13/6 42/14/6 46/7/6
f 49/1/1 50/2/1 52/3/1 51/4/1
f 51/4/2 52/3/2 56/5/2 55/6/2
f 55/6/3 56/5/3 54/7/3 53/8/3
f 53/8/4 54/7/4 50/9/4 49/10/4
f 51/11/5 55/6/5 53/8/5 49/12/5
f 56/5/6 52/13/6 50/14/6 54/7/6
f 177/1/1 178/2/1 180/3/1 179/4/1
f 179/4/2 180/3/2 184/5/2 183/6/2
f 183/6/3 184/5/3 182/7/3 181/8/3
f 181/8/4 182/7/4 178/9/4 177/10/4
f 179/11/5 183/6/5 181/8/5 177/12/5
f 184/5/6 180/13/6 178/14/6 182/7/6
usemtl wood_dk
f 33/1/1 34/2/1 36/3/1 35/4/1
f 35/4/2 36/3/2 40/5/2 39/6/2
f 39/6/3 40/5/3 38/7/3 37/8/3
f 37/8/4 38/7/4 34/9/4 33/10/4
f 35/11/5 39/6/5 37/8/5 33/12/5
f 40/5/6 36/13/6 34/14/6 38/7/6
f 57/1/1 58/2/1 60/3/1 59/4/1
f 59/4/2 60/3/2 64/5/2 63/6/2
f 63/6/3 64/5/3 62/7/3 61/8/3
f 61/8/4 62/7/4 58/9/4 57/10/4
f 59/11/5 63/6/5 61/8/5 57/12/5
f 64/5/6 60/13/6 58/14/6 62/7/6
f 317/37/39 318/38/39 320/71/39 319/72/39
f 319/72/3 320/71/3 322/73/3 321/74/3
f 321/74/40 322/73/40 324/75/40 323/76/40
f 323/76/41 324/75/41 326/77/41 325/78/41
f 320/79/42 318/65/42 328/80/42 326/81/42 324/67/42 322/82/42
f 325/78/1 326/77/1 328/83/1 327/84/1
f 327/84/43 328/83/43 318/85/43 317/86/43
f 317/69/44 319/87/44 321/88/44 323/70/44 325/89/44 327/90/44
f 373/37/45 374/38/45 376/71/45 375/72/45
f 375/72/3 376/71/3 378/73/3 377/74/3
f 377/74/46 378/73/46 380/75/46 379/76/46
f 379/76/47 380/75/47 382/77/47 381/78/47
f 376/79/6 374/65/6 384/80/6 382/81/6 380/67/6 378/82/6
f 381/78/1 382/77/1 384/83/1 383/84/1
f 383/84/48 384/83/48 374/85/48 373/86/48
f 373/69/5 375/87/5 377/88/5 379/70/5 381/89/5 383/90/5
f 429/37/45 430/38/45 432/71/45 431/72/45
f 431/72/3 432/71/3 434/73/3 433/74/3
f 433/74/46 434/73/46 436/75/46 435/76/46
f 435/76/47 436/75/47 438/77/47 437/78/47
f 432/79/6 430/65/6 440/80/6 438/81/6 436/67/6 434/82/6
f 437/78/1 438/77/1 440/83/1 439/84/1
f 439/84/48 440/83/48 430/85/48 429/86/48
f 429/69/5 431/87/5 433/88/5 435/70/5 437/89/5 439/90/5
f 503/37/45 504/38/45 506/71/45 505/72/45
f 505/72/3 506/71/3 508/73/3 507/74/3
f 507/74/46 508/73/46 510/75/46 509/76/46
f 509/76/47 510/75/47 512/77/47 511/78/47
f 506/79/6 504/65/6 514/80/6 512/81/6 510/67/6 508/82/6
f 511/78/1 512/77/1 514/83/1 513/84/1
f 513/84/48 514/83/48 504/85/48 503/86/48
f 503/69/5 505/87/5 507/88/5 509/70/5 511/89/5 513/90/5
f 559/37/45 560/38/45 562/71/45 561/72/45
f 561/72/3 562/71/3 564/73/3 563/74/3
f 563/74/46 564/73/46 566/75/46 565/76/46
f 565/76/47 566/75/47 568/77/47 567/78/47
f 562/79/6 560/65/6 570/80/6 568/81/6 566/67/6 564/82/6
f 567/78/1 568/77/1 570/83/1 569/84/1
f 569/84/48 570/83/48 560/85/48 559/86/48
f 559/69/5 561/87/5 563/88/5 565/70/5 567/89/5 569/90/5
f 615/37/45 616/38/45 618/71/45 617/72/45
f 617/72/3 618/71/3 620/73/3 619/74/3
f 619/74/46 620/73/46 622/75/46 621/76/46
f 621/76/47 622/75/47 624/77/47 623/78/47
f 618/79/6 616/65/6 626/80/6 624/81/6 622/67/6 620/82/6
f 623/78/1 624/77/1 626/83/1 625/84/1
f 625/84/48 626/83/48 616/85/48 615/86/48
f 615/69/5 617/87/5 619/88/5 621/70/5 623/89/5 625/90/5
f 671/37/45 672/38/45 674/71/45 673/72/45
f 673/72/3 674/71/3 676/73/3 675/74/3
f 675/74/46 676/73/46 678/75/46 677/76/46
f 677/76/47 678/75/47 680/77/47 679/78/47
f 674/79/6 672/65/6 682/80/6 680/81/6 678/67/6 676/82/6
f 679/78/1 680/77/1 682/83/1 681/84/1
f 681/84/48 682/83/48 672/85/48 671/86/48
f 671/69/5 673/87/5 675/88/5 677/70/5 679/89/5 681/90/5
f 727/37/45 728/38/45 730/71/45 729/72/45
f 729/72/3 730/71/3 732/73/3 731/74/3
f 731/74/46 732/73/46 734/75/46 733/76/46
f 733/76/47 734/75/47 736/77/47 735/78/47
f 730/79/6 728/65/6 738/80/6 736/81/6 734/67/6 732/82/6
f 735/78/1 736/77/1 738/83/1 737/84/1
f 737/84/48 738/83/48 728/85/48 727/86/48
f 727/69/5 729/87/5 731/88/5 733/70/5 735/89/5 737/90/5
f 783/37/45 784/38/45 786/71/45 785/72/45
f 785/72/3 786/71/3 788/73/3 787/74/3
f 787/74/46 788/73/46 790/75/46 789/76/46
f 789/76/47 790/75/47 792/77/47 791/78/47
f 786/79/6 784/65/6 794/80/6 792/81/6 790/67/6 788/82/6
f 791/78/1 792/77/1 794/83/1 793/84/1
f 793/84/48 794/83/48 784/85/48 783/86/48
f 783/69/5 785/87/5 787/88/5 789/70/5 791/89/5 793/90/5
f 795/1/1 796/2/1 798/3/1 797/4/1
f 797/4/2 798/3/2 802/5/2 801/6/2
f 801/6/3 802/5/3 800/7/3 799/8/3
f 799/8/4 800/7/4 796/9/4 795/10/4
f 797/11/5 801/6/5 799/8/5 795/12/5
f 802/5/6 798/13/6 796/14/6 800/7/6
f 813/1/1 814/2/1 816/3/1 815/4/1
f 815/4/2 816/3/2 820/5/2 819/6/2
f 819/6/3 820/5/3 818/7/3 817/8/3
f 817/8/4 818/7/4 814/9/4 813/10/4
f 815/11/5 819/6/5 817/8/5 813/12/5
f 820/5/6 816/13/6 814/14/6 818/7/6
f 831/37/59 832/38/59 834/126/59 833/127/59
f 833/127/60 834/126/60 836/128/60 835/129/60
f 835/129/3 836/128/3 838/130/3 837/131/3
f 837/131/61 838/130/61 840/132/61 839/133/61
f 839/133/62 840/132/62 842/134/62 841/135/62
f 841/135/63 842/134/63 844/136/63 843/137/63
f 843/137/64 844/136/64 846/138/64 845/139/64
f 845/139/1 846/138/1 848/140/1 847/141/1
f 834/142/6 832/65/6 850/143/6 848/115/6 846/144/6 844/116/6 842/67/6 840/117/6 838/145/6 836/114/6
f 847/141/65 848/140/65 850/146/65 849/147/65
f 849/147/66 850/146/66 832/148/66 831/149/66
f 831/69/5 833/150/5 835/122/5 837/151/5 839/123/5 841/70/5 843/124/5 845/152/5 847/125/5 849/153/5
f 899/1/1 900/2/1 902/3/1 901/4/1
f 901/4/2 902/3/2 906/5/2 905/6/2
f 905/6/3 906/5/3 904/7/3 903/8/3
f 903/8/4 904/7/4 900/9/4 899/10/4
f 901/11/5 905/6/5 903/8/5 899/12/5
f 906/5/6 902/13/6 900/14/6 904/7/6
usemtl bone
f 65/1/1 66/2/1 68/3/1 67/4/1
f 67/4/7 68/3/7 72/5/7 71/6/7
f 71/6/3 72/5/3 70/7/3 69/8/3
f 69/8/8 70/7/8 66/9/8 65/10/8
f 67/11/9 71/6/9 69/8/9 65/12/9
f 72/5/10 68/13/10 66/14/10 70/7/10
f 73/1/1 74/2/1 76/3/1 75/4/1
f 75/4/2 76/3/2 80/5/2 79/6/2
f 79/6/3 80/5/3 78/7/3 77/8/3
f 77/8/4 78/7/4 74/9/4 73/10/4
f 75/11/5 79/6/5 77/8/5 73/12/5
f 80/5/6 76/13/6 74/14/6 78/7/6
f 81/1/1 82/2/1 84/3/1 83/4/1
f 83/4/2 84/3/2 88/5/2 87/6/2
f 87/6/3 88/5/3 86/7/3 85/8/3
f 85/8/4 86/7/4 82/9/4 81/10/4
f 83/11/5 87/6/5 85/8/5 81/12/5
f 88/5/6 84/13/6 82/14/6 86/7/6
f 89/1/1 90/2/1 92/3/1 91/4/1
f 91/4/2 92/3/2 96/5/2 95/6/2
f 95/6/3 96/5/3 94/7/3 93/8/3
f 93/8/4 94/7/4 90/9/4 89/10/4
f 91/11/5 95/6/5 93/8/5 89/12/5
f 96/5/6 92/13/6 90/14/6 94/7/6
f 97/1/1 98/2/1 100/3/1 99/4/1
f 99/4/2 100/3/2 104/5/2 103/6/2
f 103/6/3 104/5/3 102/7/3 101/8/3
f 101/8/4 102/7/4 98/9/4 97/10/4
f 99/11/5 103/6/5 101/8/5 97/12/5
f 104/5/6 100/13/6 98/14/6 102/7/6
f 105/1/1 106/2/1 108/3/1 107/4/1
f 107/4/2 108/3/2 112/5/2 111/6/2
f 111/6/3 112/5/3 110/7/3 109/8/3
f 109/8/4 110/7/4 106/9/4 105/10/4
f 107/11/5 111/6/5 109/8/5 105/12/5
f 112/5/6 108/13/6 106/14/6 110/7/6
f 201/15/11 202/16/11 203/17/11
f 202/16/12 201/18/12 206/19/12
f 201/20/13 203/21/13 204/22/13
f 201/23/14 204/22/14 205/24/14
f 201/25/15 205/24/15 206/19/15
f 202/16/16 206/19/16 211/26/16
f 203/17/17 202/16/17 207/27/17
f 204/22/18 203/21/18 208/28/18
f 205/24/19 204/22/19 209/29/19
f 206/19/20 205/24/20 210/30/20
f 202/16/21 211/26/21 207/27/21
f 203/17/22 207/27/22 208/31/22
f 204/22/23 208/28/23 209/29/23
f 205/24/24 209/29/24 210/30/24
f 206/19/25 210/30/25 211/26/25
f 207/27/26 211/26/26 212/32/26
f 208/31/27 207/27/27 212/33/27
f 209/29/28 208/28/28 212/34/28
f 210/30/29 209/29/29 212/35/29
f 211/26/30 210/30/30 212/36/30
f 213/1/1 214/2/1 216/3/1 215/4/1
f 215/4/2 216/3/2 220/5/2 219/6/2
f 219/6/3 220/5/3 218/7/3 217/8/3
f 217/8/4 218/7/4 214/9/4 213/10/4
f 215/11/5 219/6/5 217/8/5 213/12/5
f 220/5/6 216/13/6 214/14/6 218/7/6
f 221/1/1 222/2/1 224/3/1 223/4/1
f 223/4/2 224/3/2 228/5/2 227/6/2
f 227/6/3 228/5/3 226/7/3 225/8/3
f 225/8/4 226/7/4 222/9/4 221/10/4
f 223/11/5 227/6/5 225/8/5 221/12/5
f 228/5/6 224/13/6 222/14/6 226/7/6
f 441/37/45 442/38/45 444/71/45 443/72/45
f 443/72/3 444/71/3 446/73/3 445/74/3
f 445/74/46 446/73/46 448/75/46 447/76/46
f 447/76/47 448/75/47 450/77/47 449/78/47
f 444/79/6 442/65/6 452/80/6 450/81/6 448/67/6 446/82/6
f 449/78/1 450/77/1 452/83/1 451/84/1
f 451/84/48 452/83/48 442/85/48 441/86/48
f 441/69/5 443/87/5 445/88/5 447/70/5 449/89/5 451/90/5
usemtl blood
f 113/1/1 114/2/1 116/3/1 115/4/1
f 115/4/7 116/3/7 120/5/7 119/6/7
f 119/6/3 120/5/3 118/7/3 117/8/3
f 117/8/8 118/7/8 114/9/8 113/10/8
f 115/11/9 119/6/9 117/8/9 113/12/9
f 120/5/10 116/13/10 114/14/10 118/7/10
f 121/1/1 122/2/1 124/3/1 123/4/1
f 123/4/7 124/3/7 128/5/7 127/6/7
f 127/6/3 128/5/3 126/7/3 125/8/3
f 125/8/8 126/7/8 122/9/8 121/10/8
f 123/11/9 127/6/9 125/8/9 121/12/9
f 128/5/10 124/13/10 122/14/10 126/7/10
f 129/1/1 130/2/1 132/3/1 131/4/1
f 131/4/7 132/3/7 136/5/7 135/6/7
f 135/6/3 136/5/3 134/7/3 133/8/3
f 133/8/8 134/7/8 130/9/8 129/10/8
f 131/11/9 135/6/9 133/8/9 129/12/9
f 136/5/10 132/13/10 130/14/10 134/7/10
f 137/1/1 138/2/1 140/3/1 139/4/1
f 139/4/7 140/3/7 144/5/7 143/6/7
f 143/6/3 144/5/3 142/7/3 141/8/3
f 141/8/8 142/7/8 138/9/8 137/10/8
f 139/11/9 143/6/9 141/8/9 137/12/9
f 144/5/10 140/13/10 138/14/10 142/7/10
f 145/1/1 146/2/1 148/3/1 147/4/1
f 147/4/7 148/3/7 152/5/7 151/6/7
f 151/6/3 152/5/3 150/7/3 149/8/3
f 149/8/8 150/7/8 146/9/8 145/10/8
f 147/11/9 151/6/9 149/8/9 145/12/9
f 152/5/10 148/13/10 146/14/10 150/7/10
f 153/1/1 154/2/1 156/3/1 155/4/1
f 155/4/7 156/3/7 160/5/7 159/6/7
f 159/6/3 160/5/3 158/7/3 157/8/3
f 157/8/8 158/7/8 154/9/8 153/10/8
f 155/11/9 159/6/9 157/8/9 153/12/9
f 160/5/10 156/13/10 154/14/10 158/7/10
f 161/1/1 162/2/1 164/3/1 163/4/1
f 163/4/7 164/3/7 168/5/7 167/6/7
f 167/6/3 168/5/3 166/7/3 165/8/3
f 165/8/8 166/7/8 162/9/8 161/10/8
f 163/11/9 167/6/9 165/8/9 161/12/9
f 168/5/10 164/13/10 162/14/10 166/7/10
f 169/1/1 170/2/1 172/3/1 171/4/1
f 171/4/7 172/3/7 176/5/7 175/6/7
f 175/6/3 176/5/3 174/7/3 173/8/3
f 173/8/8 174/7/8 170/9/8 169/10/8
f 171/11/9 175/6/9 173/8/9 169/12/9
f 176/5/10 172/13/10 170/14/10 174/7/10
usemtl gore
f 185/1/1 186/2/1 188/3/1 187/4/1
f 187/4/2 188/3/2 192/5/2 191/6/2
f 191/6/3 192/5/3 190/7/3 189/8/3
f 189/8/4 190/7/4 186/9/4 185/10/4
f 187/11/5 191/6/5 189/8/5 185/12/5
f 192/5/6 188/13/6 186/14/6 190/7/6
usemtl soot
f 193/1/1 194/2/1 196/3/1 195/4/1
f 195/4/2 196/3/2 200/5/2 199/6/2
f 199/6/3 200/5/3 198/7/3 197/8/3
f 197/8/4 198/7/4 194/9/4 193/10/4
f 195/11/5 199/6/5 197/8/5 193/12/5
f 200/5/6 196/13/6 194/14/6 198/7/6
f 229/1/1 230/2/1 232/3/1 231/4/1
f 231/4/2 232/3/2 236/5/2 235/6/2
f 235/6/3 236/5/3 234/7/3 233/8/3
f 233/8/4 234/7/4 230/9/4 229/10/4
f 231/11/5 235/6/5 233/8/5 229/12/5
f 236/5/6 232/13/6 230/14/6 234/7/6
f 237/1/1 238/2/1 240/3/1 239/4/1
f 239/4/2 240/3/2 244/5/2 243/6/2
f 243/6/3 244/5/3 242/7/3 241/8/3
f 241/8/4 242/7/4 238/9/4 237/10/4
f 239/11/5 243/6/5 241/8/5 237/12/5
f 244/5/6 240/13/6 238/14/6 242/7/6
f 245/1/1 246/2/1 248/3/1 247/4/1
f 247/4/2 248/3/2 252/5/2 251/6/2
f 251/6/3 252/5/3 250/7/3 249/8/3
f 249/8/4 250/7/4 246/9/4 245/10/4
f 247/11/5 251/6/5 249/8/5 245/12/5
f 252/5/6 248/13/6 246/14/6 250/7/6
f 253/1/1 254/2/1 256/3/1 255/4/1
f 255/4/2 256/3/2 260/5/2 259/6/2
f 259/6/3 260/5/3 258/7/3 257/8/3
f 257/8/4 258/7/4 254/9/4 253/10/4
f 255/11/5 259/6/5 257/8/5 253/12/5
f 260/5/6 256/13/6 254/14/6 258/7/6
f 261/1/1 262/2/1 264/3/1 263/4/1
f 263/4/2 264/3/2 268/5/2 267/6/2
f 267/6/3 268/5/3 266/7/3 265/8/3
f 265/8/4 266/7/4 262/9/4 261/10/4
f 263/11/5 267/6/5 265/8/5 261/12/5
f 268/5/6 264/13/6 262/14/6 266/7/6
f 269/1/1 270/2/1 272/3/1 271/4/1
f 271/4/2 272/3/2 276/5/2 275/6/2
f 275/6/3 276/5/3 274/7/3 273/8/3
f 273/8/4 274/7/4 270/9/4 269/10/4
f 271/11/5 275/6/5 273/8/5 269/12/5
f 276/5/6 272/13/6 270/14/6 274/7/6
f 277/1/1 278/2/1 280/3/1 279/4/1
f 279/4/2 280/3/2 284/5/2 283/6/2
f 283/6/3 284/5/3 282/7/3 281/8/3
f 281/8/4 282/7/4 278/9/4 277/10/4
f 279/11/5 283/6/5 281/8/5 277/12/5
f 284/5/6 280/13/6 278/14/6 282/7/6
f 301/37/31 302/38/31 304/39/31 303/13/31
f 303/13/32 304/39/32 306/40/32 305/41/32
f 305/41/33 306/40/33 308/9/33 307/5/33
f 307/5/34 308/9/34 310/42/34 309/43/34
f 309/43/35 310/42/35 312/10/35 311/6/35
f 311/6/36 312/10/36 314/44/36 313/45/36
f 304/46/6 302/65/6 316/48/6 314/66/6 312/50/6 310/67/6 308/52/6 306/68/6
f 313/45/37 314/44/37 316/54/37 315/11/37
f 315/11/38 316/54/38 302/55/38 301/56/38
f 301/69/5 303/58/5 305/59/5 307/60/5 309/70/5 311/62/5 313/63/5 315/64/5
f 947/1/1 948/2/1 950/3/1 949/4/1
f 949/4/2 950/3/2 954/5/2 953/6/2
f 953/6/3 954/5/3 952/7/3 951/8/3
f 951/8/4 952/7/4 948/9/4 947/10/4
f 949/11/5 953/6/5 951/8/5 947/12/5
f 954/5/6 950/13/6 948/14/6 952/7/6
usemtl stone
f 285/37/31 286/38/31 288/39/31 287/13/31
f 287/13/32 288/39/32 290/40/32 289/41/32
f 289/41/33 290/40/33 292/9/33 291/5/33
f 291/5/34 292/9/34 294/42/34 293/43/34
f 293/43/35 294/42/35 296/10/35 295/6/35
f 295/6/36 296/10/36 298/44/36 297/45/36
f 288/46/6 286/47/6 300/48/6 298/49/6 296/50/6 294/51/6 292/52/6 290/53/6
f 297/45/37 298/44/37 300/54/37 299/11/37
f 299/11/38 300/54/38 286/55/38 285/56/38
f 285/57/5 287/58/5 289/59/5 291/60/5 293/61/5 295/62/5 297/63/5 299/64/5
usemtl pine
f 329/37/31 330/38/31 332/39/31 331/13/31
f 331/13/32 332/39/32 334/40/32 333/41/32
f 333/41/33 334/40/33 336/9/33 335/5/33
f 335/5/34 336/9/34 338/42/34 337/43/34
f 337/43/35 338/42/35 340/10/35 339/6/35
f 339/6/36 340/10/36 342/44/36 341/45/36
f 332/46/6 330/65/6 344/91/6 342/92/6 340/93/6 338/94/6 336/95/6 334/68/6
f 341/45/37 342/44/37 344/54/37 343/11/37
f 343/11/38 344/54/38 330/55/38 329/56/38
f 329/69/5 331/58/5 333/59/5 335/96/5 337/97/5 339/98/5 341/63/5 343/64/5
f 385/37/31 386/38/31 388/39/31 387/13/31
f 387/13/32 388/39/32 390/40/32 389/41/32
f 389/41/33 390/40/33 392/9/33 391/5/33
f 391/5/34 392/9/34 394/42/34 393/43/34
f 393/43/35 394/42/35 396/10/35 395/6/35
f 395/6/36 396/10/36 398/44/36 397/45/36
f 388/46/6 386/65/6 400/91/6 398/92/6 396/93/6 394/94/6 392/95/6 390/68/6
f 397/45/37 398/44/37 400/54/37 399/11/37
f 399/11/38 400/54/38 386/55/38 385/56/38
f 385/69/5 387/58/5 389/59/5 391/96/5 393/97/5 395/98/5 397/63/5 399/64/5
usemtl witchlight
f 345/37/31 346/38/31 348/39/31 347/13/31
f 347/13/32 348/39/32 350/40/32 349/41/32
f 349/41/33 350/40/33 352/9/33 351/5/33
f 351/5/34 352/9/34 354/42/34 353/43/34
f 353/43/35 354/42/35 356/10/35 355/6/35
f 355/6/36 356/10/36 358/44/36 357/45/36
f 348/46/6 346/65/6 360/91/6 358/66/6 356/93/6 354/67/6 352/95/6 350/68/6
f 357/45/37 358/44/37 360/54/37 359/11/37
f 359/11/38 360/54/38 346/55/38 345/56/38
f 345/69/5 347/58/5 349/59/5 351/96/5 353/70/5 355/98/5 357/63/5 359/64/5
f 401/37/31 402/38/31 404/39/31 403/13/31
f 403/13/32 404/39/32 406/40/32 405/41/32
f 405/41/33 406/40/33 408/9/33 407/5/33
f 407/5/34 408/9/34 410/42/34 409/43/34
f 409/43/35 410/42/35 412/10/35 411/6/35
f 411/6/36 412/10/36 414/44/36 413/45/36
f 404/46/6 402/65/6 416/91/6 414/66/6 412/93/6 410/67/6 408/95/6 406/68/6
f 413/45/37 414/44/37 416/54/37 415/11/37
f 415/11/38 416/54/38 402/55/38 401/56/38
f 401/69/5 403/58/5 405/59/5 407/96/5 409/70/5 411/98/5 413/63/5 415/64/5
f 459/37/31 460/38/31 462/39/31 461/13/31
f 461/13/32 462/39/32 464/40/32 463/41/32
f 463/41/33 464/40/33 466/9/33 465/5/33
f 465/5/34 466/9/34 468/42/34 467/43/34
f 467/43/35 468/42/35 470/10/35 469/6/35
f 469/6/36 470/10/36 472/44/36 471/45/36
f 462/46/6 460/65/6 474/91/6 472/92/6 470/93/6 468/94/6 466/95/6 464/68/6
f 471/45/37 472/44/37 474/54/37 473/11/37
f 473/11/38 474/54/38 460/55/38 459/56/38
f 459/69/5 461/58/5 463/59/5 465/96/5 467/97/5 469/98/5 471/63/5 473/64/5
f 475/37/31 476/38/31 478/39/31 477/13/31
f 477/13/32 478/39/32 480/40/32 479/41/32
f 479/41/33 480/40/33 482/9/33 481/5/33
f 481/5/34 482/9/34 484/42/34 483/43/34
f 483/43/35 484/42/35 486/10/35 485/6/35
f 485/6/36 486/10/36 488/44/36 487/45/36
f 478/46/6 476/65/6 490/91/6 488/66/6 486/93/6 484/67/6 482/95/6 480/68/6
f 487/45/37 488/44/37 490/54/37 489/11/37
f 489/11/38 490/54/38 476/55/38 475/56/38
f 475/69/5 477/58/5 479/59/5 481/96/5 483/70/5 485/98/5 487/63/5 489/64/5
f 515/37/31 516/38/31 518/39/31 517/13/31
f 517/13/32 518/39/32 520/40/32 519/41/32
f 519/41/33 520/40/33 522/9/33 521/5/33
f 521/5/34 522/9/34 524/42/34 523/43/34
f 523/43/35 524/42/35 526/10/35 525/6/35
f 525/6/36 526/10/36 528/44/36 527/45/36
f 518/46/6 516/65/6 530/91/6 528/92/6 526/93/6 524/94/6 522/95/6 520/68/6
f 527/45/37 528/44/37 530/54/37 529/11/37
f 529/11/38 530/54/38 516/55/38 515/56/38
f 515/69/5 517/58/5 519/59/5 521/96/5 523/97/5 525/98/5 527/63/5 529/64/5
f 531/37/31 532/38/31 534/39/31 533/13/31
f 533/13/32 534/39/32 536/40/32 535/41/32
f 535/41/33 536/40/33 538/9/33 537/5/33
f 537/5/34 538/9/34 540/42/34 539/43/34
f 539/43/35 540/42/35 542/10/35 541/6/35
f 541/6/36 542/10/36 544/44/36 543/45/36
f 534/46/6 532/65/6 546/91/6 544/66/6 542/93/6 540/67/6 538/95/6 536/68/6
f 543/45/37 544/44/37 546/54/37 545/11/37
f 545/11/38 546/54/38 532/55/38 531/56/38
f 531/69/5 533/58/5 535/59/5 537/96/5 539/70/5 541/98/5 543/63/5 545/64/5
f 571/37/31 572/38/31 574/39/31 573/13/31
f 573/13/32 574/39/32 576/40/32 575/41/32
f 575/41/33 576/40/33 578/9/33 577/5/33
f 577/5/34 578/9/34 580/42/34 579/43/34
f 579/43/35 580/42/35 582/10/35 581/6/35
f 581/6/36 582/10/36 584/44/36 583/45/36
f 574/46/6 572/65/6 586/91/6 584/92/6 582/93/6 580/94/6 578/95/6 576/68/6
f 583/45/37 584/44/37 586/54/37 585/11/37
f 585/11/38 586/54/38 572/55/38 571/56/38
f 571/69/5 573/58/5 575/59/5 577/96/5 579/97/5 581/98/5 583/63/5 585/64/5
f 587/37/31 588/38/31 590/39/31 589/13/31
f 589/13/32 590/39/32 592/40/32 591/41/32
f 591/41/33 592/40/33 594/9/33 593/5/33
f 593/5/34 594/9/34 596/42/34 595/43/34
f 595/43/35 596/42/35 598/10/35 597/6/35
f 597/6/36 598/10/36 600/44/36 599/45/36
f 590/46/6 588/65/6 602/91/6 600/66/6 598/93/6 596/67/6 594/95/6 592/68/6
f 599/45/37 600/44/37 602/54/37 601/11/37
f 601/11/38 602/54/38 588/55/38 587/56/38
f 587/69/5 589/58/5 591/59/5 593/96/5 595/70/5 597/98/5 599/63/5 601/64/5
f 643/37/31 644/38/31 646/39/31 645/13/31
f 645/13/32 646/39/32 648/40/32 647/41/32
f 647/41/33 648/40/33 650/9/33 649/5/33
f 649/5/34 650/9/34 652/42/34 651/43/34
f 651/43/35 652/42/35 654/10/35 653/6/35
f 653/6/36 654/10/36 656/44/36 655/45/36
f 646/46/6 644/65/6 658/91/6 656/66/6 654/93/6 652/67/6 650/95/6 648/68/6
f 655/45/37 656/44/37 658/54/37 657/11/37
f 657/11/38 658/54/38 644/55/38 643/56/38
f 643/69/5 645/58/5 647/59/5 649/96/5 651/70/5 653/98/5 655/63/5 657/64/5
f 683/37/31 684/38/31 686/39/31 685/13/31
f 685/13/32 686/39/32 688/40/32 687/41/32
f 687/41/33 688/40/33 690/9/33 689/5/33
f 689/5/34 690/9/34 692/42/34 691/43/34
f 691/43/35 692/42/35 694/10/35 693/6/35
f 693/6/36 694/10/36 696/44/36 695/45/36
f 686/46/6 684/65/6 698/91/6 696/92/6 694/93/6 692/94/6 690/95/6 688/68/6
f 695/45/37 696/44/37 698/54/37 697/11/37
f 697/11/38 698/54/38 684/55/38 683/56/38
f 683/69/5 685/58/5 687/59/5 689/96/5 691/97/5 693/98/5 695/63/5 697/64/5
f 699/37/31 700/38/31 702/39/31 701/13/31
f 701/13/32 702/39/32 704/40/32 703/41/32
f 703/41/33 704/40/33 706/9/33 705/5/33
f 705/5/34 706/9/34 708/42/34 707/43/34
f 707/43/35 708/42/35 710/10/35 709/6/35
f 709/6/36 710/10/36 712/44/36 711/45/36
f 702/46/6 700/65/6 714/91/6 712/66/6 710/93/6 708/67/6 706/95/6 704/68/6
f 711/45/37 712/44/37 714/54/37 713/11/37
f 713/11/38 714/54/38 700/55/38 699/56/38
f 699/69/5 701/58/5 703/59/5 705/96/5 707/70/5 709/98/5 711/63/5 713/64/5
f 739/37/31 740/38/31 742/39/31 741/13/31
f 741/13/32 742/39/32 744/40/32 743/41/32
f 743/41/33 744/40/33 746/9/33 745/5/33
f 745/5/34 746/9/34 748/42/34 747/43/34
f 747/43/35 748/42/35 750/10/35 749/6/35
f 749/6/36 750/10/36 752/44/36 751/45/36
f 742/46/6 740/65/6 754/91/6 752/92/6 750/93/6 748/94/6 746/95/6 744/68/6
f 751/45/37 752/44/37 754/54/37 753/11/37
f 753/11/38 754/54/38 740/55/38 739/56/38
f 739/69/5 741/58/5 743/59/5 745/96/5 747/97/5 749/98/5 751/63/5 753/64/5
f 755/37/31 756/38/31 758/39/31 757/13/31
f 757/13/32 758/39/32 760/40/32 759/41/32
f 759/41/33 760/40/33 762/9/33 761/5/33
f 761/5/34 762/9/34 764/42/34 763/43/34
f 763/43/35 764/42/35 766/10/35 765/6/35
f 765/6/36 766/10/36 768/44/36 767/45/36
f 758/46/6 756/65/6 770/91/6 768/66/6 766/93/6 764/67/6 762/95/6 760/68/6
f 767/45/37 768/44/37 770/54/37 769/11/37
f 769/11/38 770/54/38 756/55/38 755/56/38
f 755/69/5 757/58/5 759/59/5 761/96/5 763/70/5 765/98/5 767/63/5 769/64/5
usemtl shroud
f 361/37/45 362/38/45 364/71/45 363/72/45
f 363/72/3 364/71/3 366/73/3 365/74/3
f 365/74/46 366/73/46 368/75/46 367/76/46
f 367/76/47 368/75/47 370/77/47 369/78/47
f 364/79/6 362/65/6 372/80/6 370/81/6 368/94/6 366/82/6
f 369/78/1 370/77/1 372/83/1 371/84/1
f 371/84/48 372/83/48 362/85/48 361/86/48
f 361/69/5 363/87/5 365/88/5 367/97/5 369/89/5 371/90/5
f 417/37/45 418/38/45 420/71/45 419/72/45
f 419/72/3 420/71/3 422/73/3 421/74/3
f 421/74/46 422/73/46 424/75/46 423/76/46
f 423/76/47 424/75/47 426/77/47 425/78/47
f 420/79/6 418/65/6 428/80/6 426/81/6 424/94/6 422/82/6
f 425/78/1 426/77/1 428/83/1 427/84/1
f 427/84/48 428/83/48 418/85/48 417/86/48
f 417/69/5 419/87/5 421/88/5 423/97/5 425/89/5 427/90/5
f 491/37/45 492/38/45 494/71/45 493/72/45
f 493/72/3 494/71/3 496/73/3 495/74/3
f 495/74/46 496/73/46 498/75/46 497/76/46
f 497/76/47 498/75/47 500/77/47 499/78/47
f 494/79/6 492/65/6 502/80/6 500/81/6 498/94/6 496/82/6
f 499/78/1 500/77/1 502/83/1 501/84/1
f 501/84/48 502/83/48 492/85/48 491/86/48
f 491/69/5 493/87/5 495/88/5 497/97/5 499/89/5 501/90/5
f 547/37/45 548/38/45 550/71/45 549/72/45
f 549/72/3 550/71/3 552/73/3 551/74/3
f 551/74/46 552/73/46 554/75/46 553/76/46
f 553/76/47 554/75/47 556/77/47 555/78/47
f 550/79/6 548/65/6 558/80/6 556/81/6 554/94/6 552/82/6
f 555/78/1 556/77/1 558/83/1 557/84/1
f 557/84/48 558/83/48 548/85/48 547/86/48
f 547/69/5 549/87/5 551/88/5 553/97/5 555/89/5 557/90/5
f 603/37/45 604/38/45 606/71/45 605/72/45
f 605/72/3 606/71/3 608/73/3 607/74/3
f 607/74/46 608/73/46 610/75/46 609/76/46
f 609/76/47 610/75/47 612/77/47 611/78/47
f 606/79/6 604/65/6 614/80/6 612/81/6 610/94/6 608/82/6
f 611/78/1 612/77/1 614/83/1 613/84/1
f 613/84/48 614/83/48 604/85/48 603/86/48
f 603/69/5 605/87/5 607/88/5 609/97/5 611/89/5 613/90/5
f 659/37/45 660/38/45 662/71/45 661/72/45
f 661/72/3 662/71/3 664/73/3 663/74/3
f 663/74/46 664/73/46 666/75/46 665/76/46
f 665/76/47 666/75/47 668/77/47 667/78/47
f 662/79/6 660/65/6 670/80/6 668/81/6 666/94/6 664/82/6
f 667/78/1 668/77/1 670/83/1 669/84/1
f 669/84/48 670/83/48 660/85/48 659/86/48
f 659/69/5 661/87/5 663/88/5 665/97/5 667/89/5 669/90/5
f 715/37/45 716/38/45 718/71/45 717/72/45
f 717/72/3 718/71/3 720/73/3 719/74/3
f 719/74/46 720/73/46 722/75/46 721/76/46
f 721/76/47 722/75/47 724/77/47 723/78/47
f 718/79/6 716/65/6 726/80/6 724/81/6 722/94/6 720/82/6
f 723/78/1 724/77/1 726/83/1 725/84/1
f 725/84/48 726/83/48 716/85/48 715/86/48
f 715/69/5 717/87/5 719/88/5 721/97/5 723/89/5 725/90/5
f 771/37/45 772/38/45 774/71/45 773/72/45
f 773/72/3 774/71/3 776/73/3 775/74/3
f 775/74/46 776/73/46 778/75/46 777/76/46
f 777/76/47 778/75/47 780/77/47 779/78/47
f 774/79/6 772/65/6 782/80/6 780/81/6 778/94/6 776/82/6
f 779/78/1 780/77/1 782/83/1 781/84/1
f 781/84/48 782/83/48 772/85/48 771/86/48
f 771/69/5 773/87/5 775/88/5 777/97/5 779/89/5 781/90/5
f 927/15/11 928/16/11 929/17/11
f 928/16/12 927/18/12 932/19/12
f 927/20/13 929/21/13 930/22/13
f 927/23/14 930/22/14 931/24/14
f 927/25/15 931/24/15 932/19/15
f 928/16/16 932/19/16 937/26/16
f 929/17/17 928/16/17 933/27/17
f 930/22/18 929/21/18 934/28/18
f 931/24/19 930/22/19 935/29/19
f 932/19/20 931/24/20 936/30/20
f 928/16/21 937/26/21 933/27/21
f 929/17/22 933/27/22 934/31/22
f 930/22/23 934/28/23 935/29/23
f 931/24/24 935/29/24 936/30/24
f 932/19/25 936/30/25 937/26/25
f 933/27/26 937/26/26 938/32/26
f 934/31/27 933/27/27 938/33/27
f 935/29/28 934/28/28 938/34/28
f 936/30/29 935/29/29 938/35/29
f 937/26/30 936/30/30 938/36/30
usemtl ember
f 453/47/49 458/99/49 454/100/49
f 454/100/50 458/99/50 455/101/50
f 455/101/51 458/99/51 456/102/51
f 453/57/5 454/103/5 455/104/5 456/105/5 457/106/5
f 456/102/52 458/99/52 457/107/52
f 457/107/53 458/99/53 453/47/53
usemtl amber
f 627/37/31 628/38/31 630/39/31 629/13/31
f 629/13/32 630/39/32 632/40/32 631/41/32
f 631/41/33 632/40/33 634/9/33 633/5/33
f 633/5/34 634/9/34 636/42/34 635/43/34
f 635/43/35 636/42/35 638/10/35 637/6/35
f 637/6/36 638/10/36 640/44/36 639/45/36
f 630/46/6 628/65/6 642/91/6 640/92/6 638/93/6 636/94/6 634/95/6 632/68/6
f 639/45/37 640/44/37 642/54/37 641/11/37
f 641/11/38 642/54/38 628/55/38 627/56/38
f 627/69/5 629/58/5 631/59/5 633/96/5 635/97/5 637/98/5 639/63/5 641/64/5
f 955/1/1 956/2/1 958/3/1 957/4/1
f 957/4/2 958/3/2 962/5/2 961/6/2
f 961/6/3 962/5/3 960/7/3 959/8/3
f 959/8/4 960/7/4 956/9/4 955/10/4
f 957/11/5 961/6/5 959/8/5 955/12/5
f 962/5/6 958/13/6 956/14/6 960/7/6
usemtl rot
f 803/37/54 804/38/54 806/108/54 805/109/54
f 805/109/55 806/108/55 808/110/55 807/111/55
f 807/111/56 808/110/56 810/112/56 809/113/56
f 806/114/6 804/65/6 812/115/6 810/116/6 808/117/6
f 809/113/57 810/112/57 812/118/57 811/119/57
f 811/119/58 812/118/58 804/120/58 803/121/58
f 803/69/5 805/122/5 807/123/5 809/124/5 811/125/5
f 821/37/54 822/38/54 824/108/54 823/109/54
f 823/109/55 824/108/55 826/110/55 825/111/55
f 825/111/56 826/110/56 828/112/56 827/113/56
f 824/114/6 822/65/6 830/115/6 828/116/6 826/117/6
f 827/113/57 828/112/57 830/118/57 829/119/57
f 829/119/58 830/118/58 822/120/58 821/121/58
f 821/69/5 823/122/5 825/123/5 827/124/5 829/125/5
usemtl iron
f 851/37/59 852/38/59 854/126/59 853/127/59
f 853/127/60 854/126/60 856/128/60 855/129/60
f 855/129/3 856/128/3 858/130/3 857/131/3
f 857/131/61 858/130/61 860/132/61 859/133/61
f 859/133/62 860/132/62 862/134/62 861/135/62
f 861/135/63 862/134/63 864/136/63 863/137/63
f 863/137/64 864/136/64 866/138/64 865/139/64
f 865/139/1 866/138/1 868/140/1 867/141/1
f 854/154/6 852/65/6 870/155/6 868/115/6 866/144/6 864/102/6 862/67/6 860/101/6 858/145/6 856/114/6
f 867/141/65 868/140/65 870/146/65 869/147/65
f 869/147/66 870/146/66 852/148/66 851/149/66
f 851/69/5 853/156/5 855/122/5 857/151/5 859/104/5 861/70/5 863/105/5 865/152/5 867/125/5 869/157/5
f 871/37/59 872/38/59 874/126/59 873/127/59
f 873/127/60 874/126/60 876/128/60 875/129/60
f 875/129/3 876/128/3 878/130/3 877/131/3
f 877/131/61 878/130/61 880/132/61 879/133/61
f 879/133/62 880/132/62 882/134/62 881/135/62
f 881/135/63 882/134/63 884/136/63 883/137/63
f 883/137/64 884/136/64 886/138/64 885/139/64
f 885/139/1 886/138/1 888/140/1 887/141/1
f 874/154/6 872/65/6 890/155/6 888/115/6 886/144/6 884/102/6 882/67/6 880/101/6 878/145/6 876/114/6
f 887/141/65 888/140/65 890/146/65 889/147/65
f 889/147/66 890/146/66 872/148/66 871/149/66
f 871/69/5 873/156/5 875/122/5 877/151/5 879/104/5 881/70/5 883/105/5 885/152/5 887/125/5 889/157/5
f 939/1/1 940/2/1 942/3/1 941/4/1
f 941/4/2 942/3/2 946/5/2 945/6/2
f 945/6/3 946/5/3 944/7/3 943/8/3
f 943/8/4 944/7/4 940/9/4 939/10/4
f 941/11/5 945/6/5 943/8/5 939/12/5
f 946/5/6 942/13/6 940/14/6 944/7/6
usemtl wood
f 891/1/1 892/2/1 894/3/1 893/4/1
f 893/4/2 894/3/2 898/5/2 897/6/2
f 897/6/3 898/5/3 896/7/3 895/8/3
f 895/8/4 896/7/4 892/9/4 891/10/4
f 893/11/5 897/6/5 895/8/5 891/12/5
f 898/5/6 894/13/6 892/14/6 896/7/6
usemtl gunmetal
f 907/37/59 908/38/59 910/126/59 909/127/59
f 909/127/60 910/126/60 912/128/60 911/129/60
f 911/129/3 912/128/3 914/130/3 913/131/3
f 913/131/61 914/130/61 916/132/61 915/133/61
f 915/133/62 916/132/62 918/134/62 917/135/62
f 917/135/63 918/134/63 920/136/63 919/137/63
f 919/137/64 920/136/64 922/138/64 921/139/64
f 921/139/1 922/138/1 924/140/1 923/141/1
f 910/142/6 908/65/6 926/143/6 924/115/6 922/144/6 920/116/6 918/67/6 916/117/6 914/145/6 912/114/6
f 923/141/65 924/140/65 926/146/65 925/147/65
f 925/147/66 926/146/66 908/148/66 907/149/66
f 907/69/5 909/150/5 911/122/5 913/151/5 915/123/5 917/70/5 919/124/5 921/152/5 923/125/5 925/153/5
