# Blender 5.0.1
# www.blender.org
mtllib palisade_gate.mtl
o palisade_gate
v -0.550000 0.000000 -0.110000
v -0.550000 1.500000 -0.110000
v -0.454737 0.000000 -0.055000
v -0.454737 1.500000 -0.055000
v -0.454737 0.000000 0.055000
v -0.454737 1.500000 0.055000
v -0.550000 0.000000 0.110000
v -0.550000 1.500000 0.110000
v -0.645263 0.000000 0.055000
v -0.645263 1.500000 0.055000
v -0.645263 0.000000 -0.055000
v -0.645263 1.500000 -0.055000
v -0.550000 1.470000 -0.110000
v -0.454737 1.470000 -0.055000
v -0.454737 1.470000 0.055000
v -0.550000 1.470000 0.110000
v -0.645263 1.470000 0.055000
v -0.645263 1.470000 -0.055000
v -0.550000 1.630000 0.000000
v -0.770000 0.000000 -0.110000
v -0.770000 1.500000 -0.110000
v -0.674737 0.000000 -0.055000
v -0.674737 1.500000 -0.055000
v -0.674737 0.000000 0.055000
v -0.674737 1.500000 0.055000
v -0.770000 0.000000 0.110000
v -0.770000 1.500000 0.110000
v -0.865263 0.000000 0.055000
v -0.865263 1.500000 0.055000
v -0.865263 0.000000 -0.055000
v -0.865263 1.500000 -0.055000
v -0.770000 1.470000 -0.110000
v -0.674737 1.470000 -0.055000
v -0.674737 1.470000 0.055000
v -0.770000 1.470000 0.110000
v -0.865263 1.470000 0.055000
v -0.865263 1.470000 -0.055000
v -0.770000 1.630000 0.000000
v -0.990000 0.000000 -0.110000
v -0.990000 1.500000 -0.110000
v -0.894737 0.000000 -0.055000
v -0.894737 1.500000 -0.055000
v -0.894737 0.000000 0.055000
v -0.894737 1.500000 0.055000
v -0.990000 0.000000 0.110000
v -0.990000 1.500000 0.110000
v -1.085263 0.000000 0.055000
v -1.085263 1.500000 0.055000
v -1.085263 0.000000 -0.055000
v -1.085263 1.500000 -0.055000
v -0.990000 1.470000 -0.110000
v -0.894737 1.470000 -0.055000
v -0.894737 1.470000 0.055000
v -0.990000 1.470000 0.110000
v -1.085263 1.470000 0.055000
v -1.085263 1.470000 -0.055000
v -0.990000 1.630000 0.000000
v 0.550000 0.000000 -0.110000
v 0.550000 1.500000 -0.110000
v 0.645263 0.000000 -0.055000
v 0.645263 1.500000 -0.055000
v 0.645263 0.000000 0.055000
v 0.645263 1.500000 0.055000
v 0.550000 0.000000 0.110000
v 0.550000 1.500000 0.110000
v 0.454737 0.000000 0.055000
v 0.454737 1.500000 0.055000
v 0.454737 0.000000 -0.055000
v 0.454737 1.500000 -0.055000
v 0.550000 1.470000 -0.110000
v 0.645263 1.470000 -0.055000
v 0.645263 1.470000 0.055000
v 0.550000 1.470000 0.110000
v 0.454737 1.470000 0.055000
v 0.454737 1.470000 -0.055000
v 0.550000 1.630000 0.000000
v 0.770000 0.000000 -0.110000
v 0.770000 1.500000 -0.110000
v 0.865263 0.000000 -0.055000
v 0.865263 1.500000 -0.055000
v 0.865263 0.000000 0.055000
v 0.865263 1.500000 0.055000
v 0.770000 0.000000 0.110000
v 0.770000 1.500000 0.110000
v 0.674737 0.000000 0.055000
v 0.674737 1.500000 0.055000
v 0.674737 0.000000 -0.055000
v 0.674737 1.500000 -0.055000
v 0.770000 1.470000 -0.110000
v 0.865263 1.470000 -0.055000
v 0.865263 1.470000 0.055000
v 0.770000 1.470000 0.110000
v 0.674737 1.470000 0.055000
v 0.674737 1.470000 -0.055000
v 0.770000 1.630000 0.000000
v 0.990000 0.000000 -0.110000
v 0.990000 1.500000 -0.110000
v 1.085263 0.000000 -0.055000
v 1.085263 1.500000 -0.055000
v 1.085263 0.000000 0.055000
v 1.085263 1.500000 0.055000
v 0.990000 0.000000 0.110000
v 0.990000 1.500000 0.110000
v 0.894737 0.000000 0.055000
v 0.894737 1.500000 0.055000
v 0.894737 0.000000 -0.055000
v 0.894737 1.500000 -0.055000
v 0.990000 1.470000 -0.110000
v 1.085263 1.470000 -0.055000
v 1.085263 1.470000 0.055000
v 0.990000 1.470000 0.110000
v 0.894737 1.470000 0.055000
v 0.894737 1.470000 -0.055000
v 0.990000 1.630000 0.000000
v -0.550000 1.310000 0.070000
v -0.550000 1.490000 0.070000
v -0.550000 1.310000 -0.070000
v -0.550000 1.490000 -0.070000
v 0.550000 1.310000 0.070000
v 0.550000 1.490000 0.070000
v 0.550000 1.310000 -0.070000
v 0.550000 1.490000 -0.070000
v -0.450000 0.060000 0.100000
v -0.450000 1.260000 0.100000
v -0.450000 0.060000 -0.100000
v -0.450000 1.260000 -0.100000
v 0.450000 0.060000 0.100000
v 0.450000 1.260000 0.100000
v 0.450000 0.060000 -0.100000
v 0.450000 1.260000 -0.100000
v 0.000000 1.630000 0.180000
v 0.086832 1.696334 0.243086
v -0.033166 1.696334 0.282077
v -0.107331 1.696334 0.180000
v -0.033166 1.696334 0.077923
v 0.086832 1.696334 0.116914
v 0.033166 1.803666 0.282077
v -0.086832 1.803666 0.243086
v -0.086832 1.803666 0.116914
v 0.033166 1.803666 0.077923
v 0.107331 1.803666 0.180000
v 0.000000 1.870000 0.180000
v -0.090000 1.615000 0.270000
v -0.090000 1.753000 0.270000
v -0.090000 1.615000 0.150000
v -0.090000 1.753000 0.150000
v 0.090000 1.615000 0.270000
v 0.090000 1.753000 0.270000
v 0.090000 1.615000 0.150000
v 0.090000 1.753000 0.150000
v -0.072000 1.594000 0.279000
v -0.072000 1.654000 0.279000
v -0.072000 1.594000 0.177000
v -0.072000 1.654000 0.177000
v 0.072000 1.594000 0.279000
v 0.072000 1.654000 0.279000
v 0.072000 1.594000 0.177000
v 0.072000 1.654000 0.177000
v -0.075600 1.692400 0.298800
v -0.075600 1.740400 0.298800
v -0.075600 1.692400 0.248400
v -0.075600 1.740400 0.248400
v -0.025200 1.692400 0.298800
v -0.025200 1.740400 0.298800
v -0.025200 1.692400 0.248400
v -0.025200 1.740400 0.248400
v 0.025200 1.692400 0.298800
v 0.025200 1.740400 0.298800
v 0.025200 1.692400 0.248400
v 0.025200 1.740400 0.248400
v 0.075600 1.692400 0.298800
v 0.075600 1.740400 0.298800
v 0.075600 1.692400 0.248400
v 0.075600 1.740400 0.248400
v -0.014400 1.651600 0.298800
v -0.014400 1.690000 0.298800
v -0.014400 1.651600 0.258000
v -0.014400 1.690000 0.258000
v 0.014400 1.651600 0.298800
v 0.014400 1.690000 0.298800
v 0.014400 1.651600 0.258000
v 0.014400 1.690000 0.258000
v -0.057000 1.600000 0.288000
v -0.057000 1.648000 0.288000
v -0.057000 1.600000 0.264000
v -0.057000 1.648000 0.264000
v -0.051000 1.600000 0.288000
v -0.051000 1.648000 0.288000
v -0.051000 1.600000 0.264000
v -0.051000 1.648000 0.264000
v -0.021000 1.600000 0.288000
v -0.021000 1.648000 0.288000
v -0.021000 1.600000 0.264000
v -0.021000 1.648000 0.264000
v -0.015000 1.600000 0.288000
v -0.015000 1.648000 0.288000
v -0.015000 1.600000 0.264000
v -0.015000 1.648000 0.264000
v 0.015000 1.600000 0.288000
v 0.015000 1.648000 0.288000
v 0.015000 1.600000 0.264000
v 0.015000 1.648000 0.264000
v 0.021000 1.600000 0.288000
v 0.021000 1.648000 0.288000
v 0.021000 1.600000 0.264000
v 0.021000 1.648000 0.264000
v 0.051000 1.600000 0.288000
v 0.051000 1.648000 0.288000
v 0.051000 1.600000 0.264000
v 0.051000 1.648000 0.264000
v 0.057000 1.600000 0.288000
v 0.057000 1.648000 0.288000
v 0.057000 1.600000 0.264000
v 0.057000 1.648000 0.264000
v -0.331200 1.321000 0.185000
v -0.331200 1.371000 0.185000
v -0.331200 1.321000 0.135000
v -0.331200 1.371000 0.135000
v 0.331200 1.321000 0.185000
v 0.331200 1.371000 0.185000
v 0.331200 1.321000 0.135000
v 0.331200 1.371000 0.135000
v -0.288000 0.572000 0.230000
v -0.288000 1.328000 0.230000
v -0.288000 0.572000 0.210000
v -0.288000 1.328000 0.210000
v 0.288000 0.572000 0.230000
v 0.288000 1.328000 0.230000
v 0.288000 0.572000 0.210000
v 0.288000 1.328000 0.210000
v -0.273600 0.431600 0.230000
v -0.273600 0.575600 0.230000
v -0.273600 0.431600 0.210000
v -0.273600 0.575600 0.210000
v -0.158400 0.431600 0.230000
v -0.158400 0.575600 0.230000
v -0.158400 0.431600 0.210000
v -0.158400 0.575600 0.210000
v -0.129600 0.431600 0.230000
v -0.129600 0.575600 0.230000
v -0.129600 0.431600 0.210000
v -0.129600 0.575600 0.210000
v -0.014400 0.431600 0.230000
v -0.014400 0.575600 0.230000
v -0.014400 0.431600 0.210000
v -0.014400 0.575600 0.210000
v 0.014400 0.431600 0.230000
v 0.014400 0.575600 0.230000
v 0.014400 0.431600 0.210000
v 0.014400 0.575600 0.210000
v 0.129600 0.431600 0.230000
v 0.129600 0.575600 0.230000
v 0.129600 0.431600 0.210000
v 0.129600 0.575600 0.210000
v 0.158400 0.431600 0.230000
v 0.158400 0.575600 0.230000
v 0.158400 0.431600 0.210000
v 0.158400 0.575600 0.210000
v 0.273600 0.431600 0.230000
v 0.273600 0.575600 0.230000
v 0.273600 0.431600 0.210000
v 0.273600 0.575600 0.210000
v -0.086400 0.618800 0.250000
v -0.086400 0.676400 0.250000
v -0.086400 0.618800 0.230000
v -0.086400 0.676400 0.230000
v 0.000000 0.618800 0.250000
v 0.000000 0.676400 0.250000
v 0.000000 0.618800 0.230000
v 0.000000 0.676400 0.230000
v -0.115200 0.669200 0.250000
v -0.115200 0.726800 0.250000
v -0.115200 0.669200 0.230000
v -0.115200 0.726800 0.230000
v 0.028800 0.669200 0.250000
v 0.028800 0.726800 0.250000
v 0.028800 0.669200 0.230000
v 0.028800 0.726800 0.230000
v -0.129600 0.719600 0.250000
v -0.129600 0.777200 0.250000
v -0.129600 0.719600 0.230000
v -0.129600 0.777200 0.230000
v 0.043200 0.719600 0.250000
v 0.043200 0.777200 0.250000
v 0.043200 0.719600 0.230000
v 0.043200 0.777200 0.230000
v -0.122400 0.770000 0.250000
v -0.122400 0.827600 0.250000
v -0.122400 0.770000 0.230000
v -0.122400 0.827600 0.230000
v 0.036000 0.770000 0.250000
v 0.036000 0.827600 0.250000
v 0.036000 0.770000 0.230000
v 0.036000 0.827600 0.230000
v -0.072000 0.820400 0.250000
v -0.072000 0.878000 0.250000
v -0.072000 0.820400 0.230000
v -0.072000 0.878000 0.230000
v 0.043200 0.820400 0.250000
v 0.043200 0.878000 0.250000
v 0.043200 0.820400 0.230000
v 0.043200 0.878000 0.230000
v -0.021600 0.870800 0.250000
v -0.021600 0.928400 0.250000
v -0.021600 0.870800 0.230000
v -0.021600 0.928400 0.230000
v 0.050400 0.870800 0.250000
v 0.050400 0.928400 0.250000
v 0.050400 0.870800 0.230000
v 0.050400 0.928400 0.230000
v 0.025200 0.921200 0.250000
v 0.025200 0.978800 0.250000
v 0.025200 0.921200 0.230000
v 0.025200 0.978800 0.230000
v 0.061200 0.921200 0.250000
v 0.061200 0.978800 0.250000
v 0.061200 0.921200 0.230000
v 0.061200 0.978800 0.230000
v 0.100800 0.676400 0.250000
v 0.100800 0.734000 0.250000
v 0.100800 0.676400 0.230000
v 0.100800 0.734000 0.230000
v 0.158400 0.676400 0.250000
v 0.158400 0.734000 0.250000
v 0.158400 0.676400 0.230000
v 0.158400 0.734000 0.230000
v -0.086400 0.618800 0.210000
v -0.086400 0.676400 0.210000
v -0.086400 0.618800 0.190000
v -0.086400 0.676400 0.190000
v 0.000000 0.618800 0.210000
v 0.000000 0.676400 0.210000
v 0.000000 0.618800 0.190000
v 0.000000 0.676400 0.190000
v -0.115200 0.669200 0.210000
v -0.115200 0.726800 0.210000
v -0.115200 0.669200 0.190000
v -0.115200 0.726800 0.190000
v 0.028800 0.669200 0.210000
v 0.028800 0.726800 0.210000
v 0.028800 0.669200 0.190000
v 0.028800 0.726800 0.190000
v -0.129600 0.719600 0.210000
v -0.129600 0.777200 0.210000
v -0.129600 0.719600 0.190000
v -0.129600 0.777200 0.190000
v 0.043200 0.719600 0.210000
v 0.043200 0.777200 0.210000
v 0.043200 0.719600 0.190000
v 0.043200 0.777200 0.190000
v -0.122400 0.770000 0.210000
v -0.122400 0.827600 0.210000
v -0.122400 0.770000 0.190000
v -0.122400 0.827600 0.190000
v 0.036000 0.770000 0.210000
v 0.036000 0.827600 0.210000
v 0.036000 0.770000 0.190000
v 0.036000 0.827600 0.190000
v -0.072000 0.820400 0.210000
v -0.072000 0.878000 0.210000
v -0.072000 0.820400 0.190000
v -0.072000 0.878000 0.190000
v 0.043200 0.820400 0.210000
v 0.043200 0.878000 0.210000
v 0.043200 0.820400 0.190000
v 0.043200 0.878000 0.190000
v -0.021600 0.870800 0.210000
v -0.021600 0.928400 0.210000
v -0.021600 0.870800 0.190000
v -0.021600 0.928400 0.190000
v 0.050400 0.870800 0.210000
v 0.050400 0.928400 0.210000
v 0.050400 0.870800 0.190000
v 0.050400 0.928400 0.190000
v 0.025200 0.921200 0.210000
v 0.025200 0.978800 0.210000
v 0.025200 0.921200 0.190000
v 0.025200 0.978800 0.190000
v 0.061200 0.921200 0.210000
v 0.061200 0.978800 0.210000
v 0.061200 0.921200 0.190000
v 0.061200 0.978800 0.190000
v 0.100800 0.676400 0.210000
v 0.100800 0.734000 0.210000
v 0.100800 0.676400 0.190000
v 0.100800 0.734000 0.190000
v 0.158400 0.676400 0.210000
v 0.158400 0.734000 0.210000
v 0.158400 0.676400 0.190000
v 0.158400 0.734000 0.190000
vn 0.5000 -0.0000 -0.8660
vn 1.0000 -0.0000 -0.0000
vn 0.5000 -0.0000 0.8660
vn -0.5000 -0.0000 0.8660
vn -0.0000 1.0000 -0.0000
vn -1.0000 -0.0000 -0.0000
vn -0.5000 -0.0000 -0.8660
vn -0.0000 -1.0000 -0.0000
vn 0.4296 0.5116 -0.7441
vn 0.8592 0.5116 -0.0000
vn 0.4296 0.5116 0.7441
vn -0.4296 0.5116 0.7441
vn -0.8592 0.5116 -0.0000
vn -0.4296 0.5116 -0.7441
vn -0.0000 -0.0000 -1.0000
vn -0.0000 -0.0000 1.0000
vn 0.1876 -0.7947 0.5774
vn 0.6071 -0.7947 -0.0000
vn -0.4911 -0.7947 0.3568
vn -0.4911 -0.7947 -0.3568
vn 0.1876 -0.7947 -0.5774
vn 0.9822 -0.1876 -0.0000
vn 0.3035 -0.1876 0.9342
vn -0.7946 -0.1876 0.5774
vn -0.7946 -0.1876 -0.5774
vn 0.3035 -0.1876 -0.9342
vn 0.7946 0.1876 0.5774
vn -0.3035 0.1876 0.9342
vn -0.9822 0.1876 -0.0000
vn -0.3035 0.1876 -0.9342
vn 0.7946 0.1876 -0.5774
vn 0.4911 0.7947 0.3568
vn -0.1876 0.7947 0.5774
vn -0.6071 0.7947 -0.0000
vn -0.1876 0.7947 -0.5774
vn 0.4911 0.7947 -0.3568
vt 1.000000 0.500000
vt 1.000000 1.000000
vt 0.833333 1.000000
vt 0.833333 0.500000
vt 0.666667 1.000000
vt 0.666667 0.500000
vt 0.500000 1.000000
vt 0.500000 0.500000
vt 0.333333 1.000000
vt 0.333333 0.500000
vt 0.457846 0.370000
vt 0.250000 0.490000
vt 0.042154 0.370000
vt 0.042154 0.130000
vt 0.250000 0.010000
vt 0.457846 0.130000
vt 0.166667 1.000000
vt 0.166667 0.500000
vt -0.000000 1.000000
vt -0.000000 0.500000
vt 0.750000 0.490000
vt 0.957846 0.370000
vt 0.957846 0.130000
vt 0.750000 0.010000
vt 0.542154 0.130000
vt 0.542154 0.370000
vt 0.250000 0.250000
vt 0.375000 0.000000
vt 0.625000 0.000000
vt 0.625000 0.250000
vt 0.375000 0.250000
vt 0.625000 0.500000
vt 0.375000 0.500000
vt 0.625000 0.750000
vt 0.375000 0.750000
vt 0.625000 1.000000
vt 0.375000 1.000000
vt 0.125000 0.500000
vt 0.125000 0.750000
vt 0.875000 0.500000
vt 0.875000 0.750000
vt 0.181819 0.000000
vt 0.272728 0.157461
vt 0.090910 0.157461
vt 0.363637 0.000000
vt 0.454546 0.157461
vt 0.909091 0.000000
vt 1.000000 0.157461
vt 0.818182 0.157461
vt 0.727273 0.000000
vt 0.636364 0.157461
vt 0.545455 0.000000
vt 0.363637 0.314921
vt 0.181819 0.314921
vt 0.909091 0.314921
vt 0.727273 0.314921
vt 0.545455 0.314921
vt 0.000000 0.314921
vt 0.272728 0.472382
vt 0.090910 0.472382
vt 0.818182 0.472382
vt 0.636364 0.472382
vt 0.454546 0.472382
s 0
usemtl wood_dk
f 1/1/1 2/2/1 4/3/1 3/4/1
f 3/4/2 4/3/2 6/5/2 5/6/2
f 5/6/3 6/5/3 8/7/3 7/8/3
f 7/8/4 8/7/4 10/9/4 9/10/4
f 4/11/5 2/12/5 12/13/5 10/14/5 8/15/5 6/16/5
f 9/10/6 10/9/6 12/17/6 11/18/6
f 11/18/7 12/17/7 2/19/7 1/20/7
f 1/21/8 3/22/8 5/23/8 7/24/8 9/25/8 11/26/8
f 13/12/9 19/27/9 14/11/9
f 14/11/10 19/27/10 15/16/10
f 15/16/11 19/27/11 16/15/11
f 16/15/12 19/27/12 17/14/12
f 13/21/8 14/22/8 15/23/8 16/24/8 17/25/8 18/26/8
f 17/14/13 19/27/13 18/13/13
f 18/13/14 19/27/14 13/12/14
f 20/1/1 21/2/1 23/3/1 22/4/1
f 22/4/2 23/3/2 25/5/2 24/6/2
f 24/6/3 25/5/3 27/7/3 26/8/3
f 26/8/4 27/7/4 29/9/4 28/10/4
f 23/11/5 21/12/5 31/13/5 29/14/5 27/15/5 25/16/5
f 28/10/6 29/9/6 31/17/6 30/18/6
f 30/18/7 31/17/7 21/19/7 20/20/7
f 20/21/8 22/22/8 24/23/8 26/24/8 28/25/8 30/26/8
f 32/12/9 38/27/9 33/11/9
f 33/11/10 38/27/10 34/16/10
f 34/16/11 38/27/11 35/15/11
f 35/15/12 38/27/12 36/14/12
f 32/21/8 33/22/8 34/23/8 35/24/8 36/25/8 37/26/8
f 36/14/13 38/27/13 37/13/13
f 37/13/14 38/27/14 32/12/14
f 39/1/1 40/2/1 42/3/1 41/4/1
f 41/4/2 42/3/2 44/5/2 43/6/2
f 43/6/3 44/5/3 46/7/3 45/8/3
f 45/8/4 46/7/4 48/9/4 47/10/4
f 42/11/5 40/12/5 50/13/5 48/14/5 46/15/5 44/16/5
f 47/10/6 48/9/6 50/17/6 49/18/6
f 49/18/7 50/17/7 40/19/7 39/20/7
f 39/21/8 41/22/8 43/23/8 45/24/8 47/25/8 49/26/8
f 51/12/9 57/27/9 52/11/9
f 52/11/10 57/27/10 53/16/10
f 53/16/11 57/27/11 54/15/11
f 54/15/12 57/27/12 55/14/12
f 51/21/8 52/22/8 53/23/8 54/24/8 55/25/8 56/26/8
f 55/14/13 57/27/13 56/13/13
f 56/13/14 57/27/14 51/12/14
f 58/1/1 59/2/1 61/3/1 60/4/1
f 60/4/2 61/3/2 63/5/2 62/6/2
f 62/6/3 63/5/3 65/7/3 64/8/3
f 64/8/4 65/7/4 67/9/4 66/10/4
f 61/11/5 59/12/5 69/13/5 67/14/5 65/15/5 63/16/5
f 66/10/6 67/9/6 69/17/6 68/18/6
f 68/18/7 69/17/7 59/19/7 58/20/7
f 58/21/8 60/22/8 62/23/8 64/24/8 66/25/8 68/26/8
f 70/12/9 76/27/9 71/11/9
f 71/11/10 76/27/10 72/16/10
f 72/16/11 76/27/11 73/15/11
f 73/15/12 76/27/12 74/14/12
f 70/21/8 71/22/8 72/23/8 73/24/8 74/25/8 75/26/8
f 74/14/13 76/27/13 75/13/13
f 75/13/14 76/27/14 70/12/14
f 77/1/1 78/2/1 80/3/1 79/4/1
f 79/4/2 80/3/2 82/5/2 81/6/2
f 81/6/3 82/5/3 84/7/3 83/8/3
f 83/8/4 84/7/4 86/9/4 85/10/4
f 80/11/5 78/12/5 88/13/5 86/14/5 84/15/5 82/16/5
f 85/10/6 86/9/6 88/17/6 87/18/6
f 87/18/7 88/17/7 78/19/7 77/20/7
f 77/21/8 79/22/8 81/23/8 83/24/8 85/25/8 87/26/8
f 89/12/9 95/27/9 90/11/9
f 90/11/10 95/27/10 91/16/10
f 91/16/11 95/27/11 92/15/11
f 92/15/12 95/27/12 93/14/12
f 89/21/8 90/22/8 91/23/8 92/24/8 93/25/8 94/26/8
f 93/14/13 95/27/13 94/13/13
f 94/13/14 95/27/14 89/12/14
f 96/1/1 97/2/1 99/3/1 98/4/1
f 98/4/2 99/3/2 101/5/2 100/6/2
f 100/6/3 101/5/3 103/7/3 102/8/3
f 102/8/4 103/7/4 105/9/4 104/10/4
f 99/11/5 97/12/5 107/13/5 105/14/5 103/15/5 101/16/5
f 104/10/6 105/9/6 107/17/6 106/18/6
f 106/18/7 107/17/7 97/19/7 96/20/7
f 96/21/8 98/22/8 100/23/8 102/24/8 104/25/8 106/26/8
f 108/12/9 114/27/9 109/11/9
f 109/11/10 114/27/10 110/16/10
f 110/16/11 114/27/11 111/15/11
f 111/15/12 114/27/12 112/14/12
f 108/21/8 109/22/8 110/23/8 111/24/8 112/25/8 113/26/8
f 112/14/13 114/27/13 113/13/13
f 113/13/14 114/27/14 108/12/14
f 215/28/6 216/29/6 218/30/6 217/31/6
f 217/31/15 218/30/15 222/32/15 221/33/15
f 221/33/2 222/32/2 220/34/2 219/35/2
f 219/35/16 220/34/16 216/36/16 215/37/16
f 217/38/8 221/33/8 219/35/8 215/39/8
f 222/32/5 218/40/5 216/41/5 220/34/5
usemtl wood
f 115/28/6 116/29/6 118/30/6 117/31/6
f 117/31/15 118/30/15 122/32/15 121/33/15
f 121/33/2 122/32/2 120/34/2 119/35/2
f 119/35/16 120/34/16 116/36/16 115/37/16
f 117/38/8 121/33/8 119/35/8 115/39/8
f 122/32/5 118/40/5 116/41/5 120/34/5
usemtl charwood
f 123/28/6 124/29/6 126/30/6 125/31/6
f 125/31/15 126/30/15 130/32/15 129/33/15
f 129/33/2 130/32/2 128/34/2 127/35/2
f 127/35/16 128/34/16 124/36/16 123/37/16
f 125/38/8 129/33/8 127/35/8 123/39/8
f 130/32/5 126/40/5 124/41/5 128/34/5
usemtl bone
f 131/42/17 132/43/17 133/44/17
f 132/43/18 131/45/18 136/46/18
f 131/47/19 133/48/19 134/49/19
f 131/50/20 134/49/20 135/51/20
f 131/52/21 135/51/21 136/46/21
f 132/43/22 136/46/22 141/53/22
f 133/44/23 132/43/23 137/54/23
f 134/49/24 133/48/24 138/55/24
f 135/51/25 134/49/25 139/56/25
f 136/46/26 135/51/26 140/57/26
f 132/43/27 141/53/27 137/54/27
f 133/44/28 137/54/28 138/58/28
f 134/49/29 138/55/29 139/56/29
f 135/51/30 139/56/30 140/57/30
f 136/46/31 140/57/31 141/53/31
f 137/54/32 141/53/32 142/59/32
f 138/58/33 137/54/33 142/60/33
f 139/56/34 138/55/34 142/61/34
f 140/57/35 139/56/35 142/62/35
f 141/53/36 140/57/36 142/63/36
f 143/28/6 144/29/6 146/30/6 145/31/6
f 145/31/15 146/30/15 150/32/15 149/33/15
f 149/33/2 150/32/2 148/34/2 147/35/2
f 147/35/16 148/34/16 144/36/16 143/37/16
f 145/38/8 149/33/8 147/35/8 143/39/8
f 150/32/5 146/40/5 144/41/5 148/34/5
f 151/28/6 152/29/6 154/30/6 153/31/6
f 153/31/15 154/30/15 158/32/15 157/33/15
f 157/33/2 158/32/2 156/34/2 155/35/2
f 155/35/16 156/34/16 152/36/16 151/37/16
f 153/38/8 157/33/8 155/35/8 151/39/8
f 158/32/5 154/40/5 152/41/5 156/34/5
usemtl soot
f 159/28/6 160/29/6 162/30/6 161/31/6
f 161/31/15 162/30/15 166/32/15 165/33/15
f 165/33/2 166/32/2 164/34/2 163/35/2
f 163/35/16 164/34/16 160/36/16 159/37/16
f 161/38/8 165/33/8 163/35/8 159/39/8
f 166/32/5 162/40/5 160/41/5 164/34/5
f 167/28/6 168/29/6 170/30/6 169/31/6
f 169/31/15 170/30/15 174/32/15 173/33/15
f 173/33/2 174/32/2 172/34/2 171/35/2
f 171/35/16 172/34/16 168/36/16 167/37/16
f 169/38/8 173/33/8 171/35/8 167/39/8
f 174/32/5 170/40/5 168/41/5 172/34/5
f 175/28/6 176/29/6 178/30/6 177/31/6
f 177/31/15 178/30/15 182/32/15 181/33/15
f 181/33/2 182/32/2 180/34/2 179/35/2
f 179/35/16 180/34/16 176/36/16 175/37/16
f 177/38/8 181/33/8 179/35/8 175/39/8
f 182/32/5 178/40/5 176/41/5 180/34/5
f 183/28/6 184/29/6 186/30/6 185/31/6
f 185/31/15 186/30/15 190/32/15 189/33/15
f 189/33/2 190/32/2 188/34/2 187/35/2
f 187/35/16 188/34/16 184/36/16 183/37/16
f 185/38/8 189/33/8 187/35/8 183/39/8
f 190/32/5 186/40/5 184/41/5 188/34/5
f 191/28/6 192/29/6 194/30/6 193/31/6
f 193/31/15 194/30/15 198/32/15 197/33/15
f 197/33/2 198/32/2 196/34/2 195/35/2
f 195/35/16 196/34/16 192/36/16 191/37/16
f 193/38/8 197/33/8 195/35/8 191/39/8
f 198/32/5 194/40/5 192/41/5 196/34/5
f 199/28/6 200/29/6 202/30/6 201/31/6
f 201/31/15 202/30/15 206/32/15 205/33/15
f 205/33/2 206/32/2 204/34/2 203/35/2
f 203/35/16 204/34/16 200/36/16 199/37/16
f 201/38/8 205/33/8 203/35/8 199/39/8
f 206/32/5 202/40/5 200/41/5 204/34/5
f 207/28/6 208/29/6 210/30/6 209/31/6
f 209/31/15 210/30/15 214/32/15 213/33/15
f 213/33/2 214/32/2 212/34/2 211/35/2
f 211/35/16 212/34/16 208/36/16 207/37/16
f 209/38/8 213/33/8 211/35/8 207/39/8
f 214/32/5 210/40/5 208/41/5 212/34/5
usemtl blood
f 223/28/6 224/29/6 226/30/6 225/31/6
f 225/31/15 226/30/15 230/32/15 229/33/15
f 229/33/2 230/32/2 228/34/2 227/35/2
f 227/35/16 228/34/16 224/36/16 223/37/16
f 225/38/8 229/33/8 227/35/8 223/39/8
f 230/32/5 226/40/5 224/41/5 228/34/5
f 231/28/6 232/29/6 234/30/6 233/31/6
f 233/31/15 234/30/15 238/32/15 237/33/15
f 237/33/2 238/32/2 236/34/2 235/35/2
f 235/35/16 236/34/16 232/36/16 231/37/16
f 233/38/8 237/33/8 235/35/8 231/39/8
f 238/32/5 234/40/5 232/41/5 236/34/5
f 239/28/6 240/29/6 242/30/6 241/31/6
f 241/31/15 242/30/15 246/32/15 245/33/15
f 245/33/2 246/32/2 244/34/2 243/35/2
f 243/35/16 244/34/16 240/36/16 239/37/16
f 241/38/8 245/33/8 243/35/8 239/39/8
f 246/32/5 242/40/5 240/41/5 244/34/5
f 247/28/6 248/29/6 250/30/6 249/31/6
f 249/31/15 250/30/15 254/32/15 253/33/15
f 253/33/2 254/32/2 252/34/2 251/35/2
f 251/35/16 252/34/16 248/36/16 247/37/16
f 249/38/8 253/33/8 251/35/8 247/39/8
f 254/32/5 250/40/5 248/41/5 252/34/5
f 255/28/6 256/29/6 258/30/6 257/31/6
f 257/31/15 258/30/15 262/32/15 261/33/15
f 261/33/2 262/32/2 260/34/2 259/35/2
f 259/35/16 260/34/16 256/36/16 255/37/16
f 257/38/8 261/33/8 259/35/8 255/39/8
f 262/32/5 258/40/5 256/41/5 260/34/5
usemtl amber
f 263/28/6 264/29/6 266/30/6 265/31/6
f 265/31/15 266/30/15 270/32/15 269/33/15
f 269/33/2 270/32/2 268/34/2 267/35/2
f 267/35/16 268/34/16 264/36/16 263/37/16
f 265/38/8 269/33/8 267/35/8 263/39/8
f 270/32/5 266/40/5 264/41/5 268/34/5
f 271/28/6 272/29/6 274/30/6 273/31/6
f 273/31/15 274/30/15 278/32/15 277/33/15
f 277/33/2 278/32/2 276/34/2 275/35/2
f 275/35/16 276/34/16 272/36/16 271/37/16
f 273/38/8 277/33/8 275/35/8 271/39/8
f 278/32/5 274/40/5 272/41/5 276/34/5
f 279/28/6 280/29/6 282/30/6 281/31/6
f 281/31/15 282/30/15 286/32/15 285/33/15
f 285/33/2 286/32/2 284/34/2 283/35/2
f 283/35/16 284/34/16 280/36/16 279/37/16
f 281/38/8 285/33/8 283/35/8 279/39/8
f 286/32/5 282/40/5 280/41/5 284/34/5
f 287/28/6 288/29/6 290/30/6 289/31/6
f 289/31/15 290/30/15 294/32/15 293/33/15
f 293/33/2 294/32/2 292/34/2 291/35/2
f 291/35/16 292/34/16 288/36/16 287/37/16
f 289/38/8 293/33/8 291/35/8 287/39/8
f 294/32/5 290/40/5 288/41/5 292/34/5
f 295/28/6 296/29/6 298/30/6 297/31/6
f 297/31/15 298/30/15 302/32/15 301/33/15
f 301/33/2 302/32/2 300/34/2 299/35/2
f 299/35/16 300/34/16 296/36/16 295/37/16
f 297/38/8 301/33/8 299/35/8 295/39/8
f 302/32/5 298/40/5 296/41/5 300/34/5
f 303/28/6 304/29/6 306/30/6 305/31/6
f 305/31/15 306/30/15 310/32/15 309/33/15
f 309/33/2 310/32/2 308/34/2 307/35/2
f 307/35/16 308/34/16 304/36/16 303/37/16
f 305/38/8 309/33/8 307/35/8 303/39/8
f 310/32/5 306/40/5 304/41/5 308/34/5
f 311/28/6 312/29/6 314/30/6 313/31/6
f 313/31/15 314/30/15 318/32/15 317/33/15
f 317/33/2 318/32/2 316/34/2 315/35/2
f 315/35/16 316/34/16 312/36/16 311/37/16
f 313/38/8 317/33/8 315/35/8 311/39/8
f 318/32/5 314/40/5 312/41/5 316/34/5
f 319/28/6 320/29/6 322/30/6 321/31/6
f 321/31/15 322/30/15 326/32/15 325/33/15
f 325/33/2 326/32/2 324/34/2 323/35/2
f 323/35/16 324/34/16 320/36/16 319/37/16
f 321/38/8 325/33/8 323/35/8 319/39/8
f 326/32/5 322/40/5 320/41/5 324/34/5
f 327/28/6 328/29/6 330/30/6 329/31/6
f 329/31/15 330/30/15 334/32/15 333/33/15
f 333/33/2 334/32/2 332/34/2 331/35/2
f 331/35/16 332/34/16 328/36/16 327/37/16
f 329/38/8 333/33/8 331/35/8 327/39/8
f 334/32/5 330/40/5 328/41/5 332/34/5
f 335/28/6 336/29/6 338/30/6 337/31/6
f 337/31/15 338/30/15 342/32/15 341/33/15
f 341/33/2 342/32/2 340/34/2 339/35/2
f 339/35/16 340/34/16 336/36/16 335/37/16
f 337/38/8 341/33/8 339/35/8 335/39/8
f 342/32/5 338/40/5 336/41/5 340/34/5
f 343/28/6 344/29/6 346/30/6 345/31/6
f 345/31/15 346/30/15 350/32/15 349/33/15
f 349/33/2 350/32/2 348/34/2 347/35/2
f 347/35/16 348/34/16 344/36/16 343/37/16
f 345/38/8 349/33/8 347/35/8 343/39/8
f 350/32/5 346/40/5 344/41/5 348/34/5
f 351/28/6 352/29/6 354/30/6 353/31/6
f 353/31/15 354/30/15 358/32/15 357/33/15
f 357/33/2 358/32/2 356/34/2 355/35/2
f 355/35/16 356/34/16 352/36/16 351/37/16
f 353/38/8 357/33/8 355/35/8 351/39/8
f 358/32/5 354/40/5 352/41/5 356/34/5
f 359/28/6 360/29/6 362/30/6 361/31/6
f 361/31/15 362/30/15 366/32/15 365/33/15
f 365/33/2 366/32/2 364/34/2 363/35/2
f 363/35/16 364/34/16 360/36/16 359/37/16
f 361/38/8 365/33/8 363/35/8 359/39/8
f 366/32/5 362/40/5 360/41/5 364/34/5
f 367/28/6 368/29/6 370/30/6 369/31/6
f 369/31/15 370/30/15 374/32/15 373/33/15
f 373/33/2 374/32/2 372/34/2 371/35/2
f 371/35/16 372/34/16 368/36/16 367/37/16
f 369/38/8 373/33/8 371/35/8 367/39/8
f 374/32/5 370/40/5 368/41/5 372/34/5
f 375/28/6 376/29/6 378/30/6 377/31/6
f 377/31/15 378/30/15 382/32/15 381/33/15
f 381/33/2 382/32/2 380/34/2 379/35/2
f 379/35/16 380/34/16 376/36/16 375/37/16
f 377/38/8 381/33/8 379/35/8 375/39/8
f 382/32/5 378/40/5 376/41/5 380/34/5
f 383/28/6 384/29/6 386/30/6 385/31/6
f 385/31/15 386/30/15 390/32/15 389/33/15
f 389/33/2 390/32/2 388/34/2 387/35/2
f 387/35/16 388/34/16 384/36/16 383/37/16
f 385/38/8 389/33/8 387/35/8 383/39/8
f 390/32/5 386/40/5 384/41/5 388/34/5
