# Blender 5.0.1
# www.blender.org
mtllib stable.mtl
o stable
v -0.700000 0.000000 1.030000
v -0.700000 0.200000 1.030000
v -0.700000 0.000000 -1.030000
v -0.700000 0.200000 -1.030000
v 0.700000 0.000000 1.030000
v 0.700000 0.200000 1.030000
v 0.700000 0.000000 -1.030000
v 0.700000 0.200000 -1.030000
v -0.650000 0.200000 1.000000
v -0.650000 1.100000 1.000000
v -0.650000 0.200000 0.880000
v -0.650000 1.100000 0.880000
v 0.650000 0.200000 1.000000
v 0.650000 1.100000 1.000000
v 0.650000 0.200000 0.880000
v 0.650000 1.100000 0.880000
v -0.650000 0.200000 1.060000
v -0.650000 0.620000 1.060000
v -0.650000 0.200000 0.880000
v -0.650000 0.620000 0.880000
v -0.150000 0.200000 1.060000
v -0.150000 0.620000 1.060000
v -0.150000 0.200000 0.880000
v -0.150000 0.620000 0.880000
v -0.630000 0.200000 1.010000
v -0.630000 1.100000 1.010000
v -0.630000 0.200000 0.950000
v -0.630000 1.100000 0.950000
v -0.570000 0.200000 1.010000
v -0.570000 1.100000 1.010000
v -0.570000 0.200000 0.950000
v -0.570000 1.100000 0.950000
v 0.570000 0.200000 1.010000
v 0.570000 1.100000 1.010000
v 0.570000 0.200000 0.950000
v 0.570000 1.100000 0.950000
v 0.630000 0.200000 1.010000
v 0.630000 1.100000 1.010000
v 0.630000 0.200000 0.950000
v 0.630000 1.100000 0.950000
v -0.650000 1.040000 1.015000
v -0.650000 1.100000 1.015000
v -0.650000 1.040000 0.965000
v -0.650000 1.100000 0.965000
v 0.650000 1.040000 1.015000
v 0.650000 1.100000 1.015000
v 0.650000 1.040000 0.965000
v 0.650000 1.100000 0.965000
v -0.130000 0.500000 1.050000
v -0.130000 0.940000 1.050000
v -0.130000 0.500000 0.990000
v -0.130000 0.940000 0.990000
v 0.370000 0.500000 1.050000
v 0.370000 0.940000 1.050000
v 0.370000 0.500000 0.990000
v 0.370000 0.940000 0.990000
v -0.160000 0.470000 1.075000
v -0.160000 0.530000 1.075000
v -0.160000 0.470000 1.025000
v -0.160000 0.530000 1.025000
v 0.400000 0.470000 1.075000
v 0.400000 0.530000 1.075000
v 0.400000 0.470000 1.025000
v 0.400000 0.530000 1.025000
v -0.160000 0.910000 1.075000
v -0.160000 0.970000 1.075000
v -0.160000 0.910000 1.025000
v -0.160000 0.970000 1.025000
v 0.400000 0.910000 1.075000
v 0.400000 0.970000 1.075000
v 0.400000 0.910000 1.025000
v 0.400000 0.970000 1.025000
v -0.155000 0.500000 1.075000
v -0.155000 0.940000 1.075000
v -0.155000 0.500000 1.025000
v -0.155000 0.940000 1.025000
v -0.105000 0.500000 1.075000
v -0.105000 0.940000 1.075000
v -0.105000 0.500000 1.025000
v -0.105000 0.940000 1.025000
v 0.095000 0.500000 1.075000
v 0.095000 0.940000 1.075000
v 0.095000 0.500000 1.025000
v 0.095000 0.940000 1.025000
v 0.145000 0.500000 1.075000
v 0.145000 0.940000 1.075000
v 0.145000 0.500000 1.025000
v 0.145000 0.940000 1.025000
v 0.345000 0.500000 1.075000
v 0.345000 0.940000 1.075000
v 0.345000 0.500000 1.025000
v 0.345000 0.940000 1.025000
v 0.395000 0.500000 1.075000
v 0.395000 0.940000 1.075000
v 0.395000 0.500000 1.025000
v 0.395000 0.940000 1.025000
v -0.650000 0.200000 0.950000
v -0.650000 1.100000 0.950000
v -0.650000 0.200000 0.250000
v -0.650000 1.100000 0.250000
v -0.530000 0.200000 0.950000
v -0.530000 1.100000 0.950000
v -0.530000 0.200000 0.250000
v -0.530000 1.100000 0.250000
v 0.530000 0.200000 0.950000
v 0.530000 1.100000 0.950000
v 0.530000 0.200000 0.250000
v 0.530000 1.100000 0.250000
v 0.650000 0.200000 0.950000
v 0.650000 1.100000 0.950000
v 0.650000 0.200000 0.250000
v 0.650000 1.100000 0.250000
v -0.650000 0.200000 0.360000
v -0.650000 1.100000 0.360000
v -0.650000 0.200000 0.240000
v -0.650000 1.100000 0.240000
v 0.650000 0.200000 0.360000
v 0.650000 1.100000 0.360000
v 0.650000 0.200000 0.240000
v 0.650000 1.100000 0.240000
v -0.650000 0.200000 0.300000
v -0.650000 1.100000 0.300000
v -0.650000 0.200000 -0.940000
v -0.650000 1.100000 -0.940000
v -0.530000 0.200000 0.300000
v -0.530000 1.100000 0.300000
v -0.530000 0.200000 -0.940000
v -0.530000 1.100000 -0.940000
v -0.650000 0.200000 -0.880000
v -0.650000 1.100000 -0.880000
v -0.650000 0.200000 -1.000000
v -0.650000 1.100000 -1.000000
v 0.650000 0.200000 -0.880000
v 0.650000 1.100000 -0.880000
v 0.650000 0.200000 -1.000000
v 0.650000 1.100000 -1.000000
v 0.530000 0.200000 0.360000
v 0.530000 1.100000 0.360000
v 0.530000 0.200000 0.240000
v 0.530000 1.100000 0.240000
v 0.650000 0.200000 0.360000
v 0.650000 1.100000 0.360000
v 0.650000 0.200000 0.240000
v 0.650000 1.100000 0.240000
v 0.530000 0.200000 -0.240000
v 0.530000 1.100000 -0.240000
v 0.530000 0.200000 -0.360000
v 0.530000 1.100000 -0.360000
v 0.650000 0.200000 -0.240000
v 0.650000 1.100000 -0.240000
v 0.650000 0.200000 -0.360000
v 0.650000 1.100000 -0.360000
v 0.530000 0.200000 -0.880000
v 0.530000 1.100000 -0.880000
v 0.530000 0.200000 -1.000000
v 0.530000 1.100000 -1.000000
v 0.650000 0.200000 -0.880000
v 0.650000 1.100000 -0.880000
v 0.650000 0.200000 -1.000000
v 0.650000 1.100000 -1.000000
v 0.520000 1.000000 0.300000
v 0.520000 1.100000 0.300000
v 0.520000 1.000000 -0.300000
v 0.520000 1.100000 -0.300000
v 0.660000 1.000000 0.300000
v 0.660000 1.100000 0.300000
v 0.660000 1.000000 -0.300000
v 0.660000 1.100000 -0.300000
v 0.540000 0.835992 0.252971
v 0.540000 0.903836 0.295365
v 0.540000 1.016164 -0.035365
v 0.540000 1.084008 0.007029
v 0.640000 0.835992 0.252971
v 0.640000 0.903836 0.295365
v 0.640000 1.016164 -0.035365
v 0.640000 1.084008 0.007029
v 0.540000 1.016164 0.035365
v 0.540000 1.084008 -0.007029
v 0.540000 0.835992 -0.252971
v 0.540000 0.903836 -0.295365
v 0.640000 1.016164 0.035365
v 0.640000 1.084008 -0.007029
v 0.640000 0.835992 -0.252971
v 0.640000 0.903836 -0.295365
v 0.540000 0.315000 0.220000
v 0.540000 0.365000 0.220000
v 0.540000 0.315000 -0.220000
v 0.540000 0.365000 -0.220000
v 0.640000 0.315000 0.220000
v 0.640000 0.365000 0.220000
v 0.640000 0.315000 -0.220000
v 0.640000 0.365000 -0.220000
v 0.540000 0.595000 0.220000
v 0.540000 0.645000 0.220000
v 0.540000 0.595000 -0.220000
v 0.540000 0.645000 -0.220000
v 0.640000 0.595000 0.220000
v 0.640000 0.645000 0.220000
v 0.640000 0.595000 -0.220000
v 0.640000 0.645000 -0.220000
v 0.550000 0.270000 0.185000
v 0.550000 0.690000 0.185000
v 0.550000 0.270000 0.135000
v 0.550000 0.690000 0.135000
v 0.630000 0.270000 0.185000
v 0.630000 0.690000 0.185000
v 0.630000 0.270000 0.135000
v 0.630000 0.690000 0.135000
v 0.550000 0.270000 0.025000
v 0.550000 0.690000 0.025000
v 0.550000 0.270000 -0.025000
v 0.550000 0.690000 -0.025000
v 0.630000 0.270000 0.025000
v 0.630000 0.690000 0.025000
v 0.630000 0.270000 -0.025000
v 0.630000 0.690000 -0.025000
v 0.550000 0.270000 -0.135000
v 0.550000 0.690000 -0.135000
v 0.550000 0.270000 -0.185000
v 0.550000 0.690000 -0.185000
v 0.630000 0.270000 -0.135000
v 0.630000 0.690000 -0.135000
v 0.630000 0.270000 -0.185000
v 0.630000 0.690000 -0.185000
v -0.010000 0.210000 0.200000
v -0.010000 0.310000 0.200000
v -0.010000 0.210000 -0.200000
v -0.010000 0.310000 -0.200000
v 0.490000 0.210000 0.200000
v 0.490000 0.310000 0.200000
v 0.490000 0.210000 -0.200000
v 0.490000 0.310000 -0.200000
v 0.520000 1.000000 -0.300000
v 0.520000 1.100000 -0.300000
v 0.520000 1.000000 -0.940000
v 0.520000 1.100000 -0.940000
v 0.660000 1.000000 -0.300000
v 0.660000 1.100000 -0.300000
v 0.660000 1.000000 -0.940000
v 0.660000 1.100000 -0.940000
v 0.540000 0.835992 -0.347029
v 0.540000 0.903836 -0.304635
v 0.540000 1.016164 -0.635365
v 0.540000 1.084008 -0.592971
v 0.640000 0.835992 -0.347029
v 0.640000 0.903836 -0.304635
v 0.640000 1.016164 -0.635365
v 0.640000 1.084008 -0.592971
v 0.540000 1.016164 -0.604635
v 0.540000 1.084008 -0.647029
v 0.540000 0.835992 -0.892971
v 0.540000 0.903836 -0.935365
v 0.640000 1.016164 -0.604635
v 0.640000 1.084008 -0.647029
v 0.640000 0.835992 -0.892971
v 0.640000 0.903836 -0.935365
v 0.540000 0.315000 -0.380000
v 0.540000 0.365000 -0.380000
v 0.540000 0.315000 -0.860000
v 0.540000 0.365000 -0.860000
v 0.640000 0.315000 -0.380000
v 0.640000 0.365000 -0.380000
v 0.640000 0.315000 -0.860000
v 0.640000 0.365000 -0.860000
v 0.540000 0.595000 -0.380000
v 0.540000 0.645000 -0.380000
v 0.540000 0.595000 -0.860000
v 0.540000 0.645000 -0.860000
v 0.640000 0.595000 -0.380000
v 0.640000 0.645000 -0.380000
v 0.640000 0.595000 -0.860000
v 0.640000 0.645000 -0.860000
v 0.550000 0.270000 -0.415000
v 0.550000 0.690000 -0.415000
v 0.550000 0.270000 -0.465000
v 0.550000 0.690000 -0.465000
v 0.630000 0.270000 -0.415000
v 0.630000 0.690000 -0.415000
v 0.630000 0.270000 -0.465000
v 0.630000 0.690000 -0.465000
v 0.550000 0.270000 -0.595000
v 0.550000 0.690000 -0.595000
v 0.550000 0.270000 -0.645000
v 0.550000 0.690000 -0.645000
v 0.630000 0.270000 -0.595000
v 0.630000 0.690000 -0.595000
v 0.630000 0.270000 -0.645000
v 0.630000 0.690000 -0.645000
v 0.550000 0.270000 -0.775000
v 0.550000 0.690000 -0.775000
v 0.550000 0.270000 -0.825000
v 0.550000 0.690000 -0.825000
v 0.630000 0.270000 -0.775000
v 0.630000 0.690000 -0.775000
v 0.630000 0.270000 -0.825000
v 0.630000 0.690000 -0.825000
v -0.010000 0.210000 -0.400000
v -0.010000 0.310000 -0.400000
v -0.010000 0.210000 -0.840000
v -0.010000 0.310000 -0.840000
v 0.490000 0.210000 -0.400000
v 0.490000 0.310000 -0.400000
v 0.490000 0.210000 -0.840000
v 0.490000 0.310000 -0.840000
v -0.750000 1.100000 1.100000
v 0.750000 1.100000 1.100000
v 0.000000 1.820000 1.100000
v -0.750000 1.100000 -1.100000
v 0.750000 1.100000 -1.100000
v 0.000000 1.820000 -1.100000
v -0.663241 1.141702 1.110000
v -0.704793 1.184985 1.110000
v -0.663241 1.141702 -1.110000
v -0.704793 1.184985 -1.110000
v -0.645207 1.159015 1.110000
v -0.686759 1.202298 1.110000
v -0.645207 1.159015 -1.110000
v -0.686759 1.202298 -1.110000
v 0.645207 1.159015 1.110000
v 0.686759 1.202298 1.110000
v 0.645207 1.159015 -1.110000
v 0.686759 1.202298 -1.110000
v 0.663241 1.141702 1.110000
v 0.704793 1.184985 1.110000
v 0.663241 1.141702 -1.110000
v 0.704793 1.184985 -1.110000
v -0.573241 1.228102 1.110000
v -0.614793 1.271385 1.110000
v -0.573241 1.228102 -1.110000
v -0.614793 1.271385 -1.110000
v -0.555207 1.245415 1.110000
v -0.596759 1.288698 1.110000
v -0.555207 1.245415 -1.110000
v -0.596759 1.288698 -1.110000
v 0.555207 1.245415 1.110000
v 0.596759 1.288698 1.110000
v 0.555207 1.245415 -1.110000
v 0.596759 1.288698 -1.110000
v 0.573241 1.228102 1.110000
v 0.614793 1.271385 1.110000
v 0.573241 1.228102 -1.110000
v 0.614793 1.271385 -1.110000
v -0.483241 1.314502 1.110000
v -0.524793 1.357785 1.110000
v -0.483241 1.314502 -1.110000
v -0.524793 1.357785 -1.110000
v -0.465207 1.331815 1.110000
v -0.506759 1.375098 1.110000
v -0.465207 1.331815 -1.110000
v -0.506759 1.375098 -1.110000
v 0.465207 1.331815 1.110000
v 0.506759 1.375098 1.110000
v 0.465207 1.331815 -1.110000
v 0.506759 1.375098 -1.110000
v 0.483241 1.314502 1.110000
v 0.524793 1.357785 1.110000
v 0.483241 1.314502 -1.110000
v 0.524793 1.357785 -1.110000
v -0.393241 1.400902 1.110000
v -0.434793 1.444185 1.110000
v -0.393241 1.400902 -1.110000
v -0.434793 1.444185 -1.110000
v -0.375207 1.418215 1.110000
v -0.416759 1.461498 1.110000
v -0.375207 1.418215 -1.110000
v -0.416759 1.461498 -1.110000
v 0.375207 1.418215 1.110000
v 0.416759 1.461498 1.110000
v 0.375207 1.418215 -1.110000
v 0.416759 1.461498 -1.110000
v 0.393241 1.400902 1.110000
v 0.434793 1.444185 1.110000
v 0.393241 1.400902 -1.110000
v 0.434793 1.444185 -1.110000
v -0.303241 1.487302 1.110000
v -0.344793 1.530585 1.110000
v -0.303241 1.487302 -1.110000
v -0.344793 1.530585 -1.110000
v -0.285207 1.504615 1.110000
v -0.326759 1.547898 1.110000
v -0.285207 1.504615 -1.110000
v -0.326759 1.547898 -1.110000
v 0.285207 1.504615 1.110000
v 0.326759 1.547898 1.110000
v 0.285207 1.504615 -1.110000
v 0.326759 1.547898 -1.110000
v 0.303241 1.487302 1.110000
v 0.344793 1.530585 1.110000
v 0.303241 1.487302 -1.110000
v 0.344793 1.530585 -1.110000
v -0.213241 1.573702 1.110000
v -0.254793 1.616985 1.110000
v -0.213241 1.573702 -1.110000
v -0.254793 1.616985 -1.110000
v -0.195207 1.591015 1.110000
v -0.236759 1.634298 1.110000
v -0.195207 1.591015 -1.110000
v -0.236759 1.634298 -1.110000
v 0.195207 1.591015 1.110000
v 0.236759 1.634298 1.110000
v 0.195207 1.591015 -1.110000
v 0.236759 1.634298 -1.110000
v 0.213241 1.573702 1.110000
v 0.254793 1.616985 1.110000
v 0.213241 1.573702 -1.110000
v 0.254793 1.616985 -1.110000
v -0.123241 1.660102 1.110000
v -0.164793 1.703385 1.110000
v -0.123241 1.660102 -1.110000
v -0.164793 1.703385 -1.110000
v -0.105207 1.677415 1.110000
v -0.146759 1.720698 1.110000
v -0.105207 1.677415 -1.110000
v -0.146759 1.720698 -1.110000
v 0.105207 1.677415 1.110000
v 0.146759 1.720698 1.110000
v 0.105207 1.677415 -1.110000
v 0.146759 1.720698 -1.110000
v 0.123241 1.660102 1.110000
v 0.164793 1.703385 1.110000
v 0.123241 1.660102 -1.110000
v 0.164793 1.703385 -1.110000
v -0.045000 1.775000 1.120000
v -0.045000 1.865000 1.120000
v -0.045000 1.775000 -1.120000
v -0.045000 1.865000 -1.120000
v 0.045000 1.775000 1.120000
v 0.045000 1.865000 1.120000
v 0.045000 1.775000 -1.120000
v 0.045000 1.865000 -1.120000
v -0.650000 1.095000 1.090000
v -0.650000 1.165000 1.090000
v -0.650000 1.095000 1.030000
v -0.650000 1.165000 1.030000
v 0.650000 1.095000 1.090000
v 0.650000 1.165000 1.090000
v 0.650000 1.095000 1.030000
v 0.650000 1.165000 1.030000
v -0.035000 1.125000 1.090000
v -0.035000 1.795000 1.090000
v -0.035000 1.125000 1.030000
v -0.035000 1.795000 1.030000
v 0.035000 1.125000 1.090000
v 0.035000 1.795000 1.090000
v 0.035000 1.125000 1.030000
v 0.035000 1.795000 1.030000
v -0.109562 1.087171 1.090000
v -0.512181 1.684078 1.090000
v -0.109562 1.087171 1.030000
v -0.512181 1.684078 1.030000
v -0.059819 1.120722 1.090000
v -0.462438 1.717629 1.090000
v -0.059819 1.120722 1.030000
v -0.462438 1.717629 1.030000
v 0.059819 1.120722 1.090000
v 0.462438 1.717629 1.090000
v 0.059819 1.120722 1.030000
v 0.462438 1.717629 1.030000
v 0.109562 1.087171 1.090000
v 0.512181 1.684078 1.090000
v 0.109562 1.087171 1.030000
v 0.512181 1.684078 1.030000
v -0.112500 1.245000 1.225000
v -0.112500 1.395000 1.225000
v -0.112500 1.245000 1.015000
v -0.112500 1.395000 1.015000
v 0.112500 1.245000 1.225000
v 0.112500 1.395000 1.225000
v 0.112500 1.245000 1.015000
v 0.112500 1.395000 1.015000
v -0.067500 1.215000 1.330000
v -0.067500 1.320000 1.330000
v -0.067500 1.215000 1.195000
v -0.067500 1.320000 1.195000
v 0.067500 1.215000 1.330000
v 0.067500 1.320000 1.330000
v 0.067500 1.215000 1.195000
v 0.067500 1.320000 1.195000
v -0.096000 1.308000 1.258000
v -0.096000 1.374000 1.258000
v -0.096000 1.308000 1.198000
v -0.096000 1.374000 1.198000
v -0.030000 1.308000 1.258000
v -0.030000 1.374000 1.258000
v -0.030000 1.308000 1.198000
v -0.030000 1.374000 1.198000
v -0.033636 1.381376 1.113518
v -0.016866 1.401340 1.131621
v -0.029074 1.400629 1.160911
v -0.053388 1.380227 1.160911
v -0.056208 1.368328 1.131621
v -0.178166 1.553620 1.085284
v 0.030000 1.308000 1.258000
v 0.030000 1.374000 1.258000
v 0.030000 1.308000 1.198000
v 0.030000 1.374000 1.198000
v 0.096000 1.308000 1.258000
v 0.096000 1.374000 1.258000
v 0.096000 1.308000 1.198000
v 0.096000 1.374000 1.198000
v 0.033636 1.381376 1.113518
v 0.056208 1.368328 1.131621
v 0.053388 1.380227 1.160911
v 0.029074 1.400629 1.160911
v 0.016866 1.401340 1.131621
v 0.178166 1.553620 1.085284
v 0.625000 0.980000 0.295000
v 0.625000 1.180000 0.295000
v 0.625000 0.980000 0.265000
v 0.625000 1.180000 0.265000
v 0.655000 0.980000 0.295000
v 0.655000 1.180000 0.295000
v 0.655000 0.980000 0.265000
v 0.655000 1.180000 0.265000
v 0.610000 0.800000 0.340000
v 0.610000 0.960000 0.340000
v 0.610000 0.800000 0.220000
v 0.610000 0.960000 0.220000
v 0.730000 0.800000 0.340000
v 0.730000 0.960000 0.340000
v 0.730000 0.800000 0.220000
v 0.730000 0.960000 0.220000
v 0.635000 0.830000 0.315000
v 0.635000 0.930000 0.315000
v 0.635000 0.830000 0.245000
v 0.635000 0.930000 0.245000
v 0.705000 0.830000 0.315000
v 0.705000 0.930000 0.315000
v 0.705000 0.830000 0.245000
v 0.705000 0.930000 0.245000
v 0.635000 0.805000 0.315000
v 0.635000 0.855000 0.315000
v 0.635000 0.805000 0.285000
v 0.635000 0.855000 0.285000
v 0.685000 0.805000 0.315000
v 0.685000 0.855000 0.315000
v 0.685000 0.805000 0.285000
v 0.685000 0.855000 0.285000
v 0.635000 0.585000 0.315000
v 0.635000 0.635000 0.315000
v 0.635000 0.585000 0.285000
v 0.635000 0.635000 0.285000
v 0.685000 0.585000 0.315000
v 0.685000 0.635000 0.315000
v 0.685000 0.585000 0.285000
v 0.685000 0.635000 0.285000
v 0.635000 0.695000 0.395000
v 0.635000 0.745000 0.395000
v 0.635000 0.695000 0.365000
v 0.635000 0.745000 0.365000
v 0.685000 0.695000 0.395000
v 0.685000 0.745000 0.395000
v 0.685000 0.695000 0.365000
v 0.685000 0.745000 0.365000
v 0.635000 0.695000 0.235000
v 0.635000 0.745000 0.235000
v 0.635000 0.695000 0.205000
v 0.635000 0.745000 0.205000
v 0.685000 0.695000 0.235000
v 0.685000 0.745000 0.235000
v 0.685000 0.695000 0.205000
v 0.685000 0.745000 0.205000
v -0.390000 0.040000 1.620000
v -0.390000 0.200000 1.620000
v -0.390000 0.040000 1.380000
v -0.390000 0.200000 1.380000
v -0.050000 0.040000 1.620000
v -0.050000 0.200000 1.620000
v -0.050000 0.040000 1.380000
v -0.050000 0.200000 1.380000
v -0.360000 0.150000 1.590000
v -0.360000 0.250000 1.590000
v -0.360000 0.150000 1.410000
v -0.360000 0.250000 1.410000
v -0.080000 0.150000 1.590000
v -0.080000 0.250000 1.590000
v -0.080000 0.150000 1.410000
v -0.080000 0.250000 1.410000
v 0.250000 0.040000 1.540000
v 0.250000 0.200000 1.540000
v 0.250000 0.040000 1.300000
v 0.250000 0.200000 1.300000
v 0.590000 0.040000 1.540000
v 0.590000 0.200000 1.540000
v 0.590000 0.040000 1.300000
v 0.590000 0.200000 1.300000
v 0.280000 0.150000 1.510000
v 0.280000 0.250000 1.510000
v 0.280000 0.150000 1.330000
v 0.280000 0.250000 1.330000
v 0.560000 0.150000 1.510000
v 0.560000 0.250000 1.510000
v 0.560000 0.150000 1.330000
v 0.560000 0.250000 1.330000
vn -1.0000 -0.0000 -0.0000
vn -0.0000 -0.0000 -1.0000
vn 1.0000 -0.0000 -0.0000
vn -0.0000 -0.0000 1.0000
vn -0.0000 -1.0000 -0.0000
vn -0.0000 1.0000 -0.0000
vn -0.0000 0.5299 -0.8480
vn -0.0000 -0.5299 0.8480
vn -0.0000 -0.8480 -0.5299
vn -0.0000 0.8480 0.5299
vn -0.0000 -0.5299 -0.8480
vn -0.0000 0.5299 0.8480
vn -0.0000 -0.8480 0.5299
vn -0.0000 0.8480 -0.5299
vn -0.6925 0.7214 -0.0000
vn 0.6925 0.7214 -0.0000
vn -0.7214 -0.6925 -0.0000
vn 0.7214 0.6925 -0.0000
vn 0.6925 -0.7214 -0.0000
vn -0.7214 0.6925 -0.0000
vn 0.7214 -0.6925 -0.0000
vn -0.6925 -0.7214 -0.0000
vn -0.8290 -0.5592 -0.0000
vn 0.8290 0.5592 -0.0000
vn 0.5592 -0.8290 -0.0000
vn -0.5592 0.8290 -0.0000
vn -0.8290 0.5592 -0.0000
vn 0.8290 -0.5592 -0.0000
vn -0.5592 -0.8290 -0.0000
vn 0.5592 0.8290 -0.0000
vn 0.5131 0.2986 -0.8047
vn 0.6170 0.7373 0.2751
vn -0.2150 0.2563 0.9424
vn 0.6237 -0.7433 0.2419
vn -0.8332 -0.4796 0.2751
vn -0.3832 -0.4535 -0.8047
vn 0.3832 -0.4535 -0.8047
vn 0.8332 -0.4796 0.2751
vn 0.2150 0.2563 0.9424
vn -0.6237 -0.7433 0.2419
vn -0.6170 0.7373 0.2751
vn -0.5131 0.2986 -0.8047
vt 0.375000 0.000000
vt 0.625000 0.000000
vt 0.625000 0.250000
vt 0.375000 0.250000
vt 0.625000 0.500000
vt 0.375000 0.500000
vt 0.625000 0.750000
vt 0.375000 0.750000
vt 0.625000 1.000000
vt 0.375000 1.000000
vt 0.125000 0.500000
vt 0.125000 0.750000
vt 0.875000 0.500000
vt 0.875000 0.750000
vt 0.000000 0.000000
vt 0.250000 0.490000
vt 0.250000 0.250000
vt 0.478254 0.324164
vt 0.391068 0.055836
vt 0.108932 0.055836
vt 0.750000 0.490000
vt 0.978254 0.324164
vt 0.891068 0.055836
vt 0.608932 0.055836
vt 0.521746 0.324164
vt 0.021746 0.324164
s 0
usemtl stone
f 1/1/1 2/2/1 4/3/1 3/4/1
f 3/4/2 4/3/2 8/5/2 7/6/2
f 7/6/3 8/5/3 6/7/3 5/8/3
f 5/8/4 6/7/4 2/9/4 1/10/4
f 3/11/5 7/6/5 5/8/5 1/12/5
f 8/5/6 4/13/6 2/14/6 6/7/6
f 17/1/1 18/2/1 20/3/1 19/4/1
f 19/4/2 20/3/2 24/5/2 23/6/2
f 23/6/3 24/5/3 22/7/3 21/8/3
f 21/8/4 22/7/4 18/9/4 17/10/4
f 19/11/5 23/6/5 21/8/5 17/12/5
f 24/5/6 20/13/6 18/14/6 22/7/6
usemtl charwood
f 9/1/1 10/2/1 12/3/1 11/4/1
f 11/4/2 12/3/2 16/5/2 15/6/2
f 15/6/3 16/5/3 14/7/3 13/8/3
f 13/8/4 14/7/4 10/9/4 9/10/4
f 11/11/5 15/6/5 13/8/5 9/12/5
f 16/5/6 12/13/6 10/14/6 14/7/6
f 97/1/1 98/2/1 100/3/1 99/4/1
f 99/4/2 100/3/2 104/5/2 103/6/2
f 103/6/3 104/5/3 102/7/3 101/8/3
f 101/8/4 102/7/4 98/9/4 97/10/4
f 99/11/5 103/6/5 101/8/5 97/12/5
f 104/5/6 100/13/6 98/14/6 102/7/6
f 105/1/1 106/2/1 108/3/1 107/4/1
f 107/4/2 108/3/2 112/5/2 111/6/2
f 111/6/3 112/5/3 110/7/3 109/8/3
f 109/8/4 110/7/4 106/9/4 105/10/4
f 107/11/5 111/6/5 109/8/5 105/12/5
f 112/5/6 108/13/6 106/14/6 110/7/6
f 113/1/1 114/2/1 116/3/1 115/4/1
f 115/4/2 116/3/2 120/5/2 119/6/2
f 119/6/3 120/5/3 118/7/3 117/8/3
f 117/8/4 118/7/4 114/9/4 113/10/4
f 115/11/5 119/6/5 117/8/5 113/12/5
f 120/5/6 116/13/6 114/14/6 118/7/6
f 121/1/1 122/2/1 124/3/1 123/4/1
f 123/4/2 124/3/2 128/5/2 127/6/2
f 127/6/3 128/5/3 126/7/3 125/8/3
f 125/8/4 126/7/4 122/9/4 121/10/4
f 123/11/5 127/6/5 125/8/5 121/12/5
f 128/5/6 124/13/6 122/14/6 126/7/6
f 129/1/1 130/2/1 132/3/1 131/4/1
f 131/4/2 132/3/2 136/5/2 135/6/2
f 135/6/3 136/5/3 134/7/3 133/8/3
f 133/8/4 134/7/4 130/9/4 129/10/4
f 131/11/5 135/6/5 133/8/5 129/12/5
f 136/5/6 132/13/6 130/14/6 134/7/6
f 431/1/1 432/2/1 434/3/1 433/4/1
f 433/4/2 434/3/2 438/5/2 437/6/2
f 437/6/3 438/5/3 436/7/3 435/8/3
f 435/8/4 436/7/4 432/9/4 431/10/4
f 433/11/5 437/6/5 435/8/5 431/12/5
f 438/5/6 434/13/6 432/14/6 436/7/6
f 439/1/1 440/2/1 442/3/1 441/4/1
f 441/4/2 442/3/2 446/5/2 445/6/2
f 445/6/3 446/5/3 444/7/3 443/8/3
f 443/8/4 444/7/4 440/9/4 439/10/4
f 441/11/5 445/6/5 443/8/5 439/12/5
f 446/5/6 442/13/6 440/14/6 444/7/6
f 447/1/23 448/2/23 450/3/23 449/4/23
f 449/4/2 450/3/2 454/5/2 453/6/2
f 453/6/24 454/5/24 452/7/24 451/8/24
f 451/8/4 452/7/4 448/9/4 447/10/4
f 449/11/25 453/6/25 451/8/25 447/12/25
f 454/5/26 450/13/26 448/14/26 452/7/26
f 455/1/27 456/2/27 458/3/27 457/4/27
f 457/4/2 458/3/2 462/5/2 461/6/2
f 461/6/28 462/5/28 460/7/28 459/8/28
f 459/8/4 460/7/4 456/9/4 455/10/4
f 457/11/29 461/6/29 459/8/29 455/12/29
f 462/5/30 458/13/30 456/14/30 460/7/30
usemtl wood_dk
f 25/1/1 26/2/1 28/3/1 27/4/1
f 27/4/2 28/3/2 32/5/2 31/6/2
f 31/6/3 32/5/3 30/7/3 29/8/3
f 29/8/4 30/7/4 26/9/4 25/10/4
f 27/11/5 31/6/5 29/8/5 25/12/5
f 32/5/6 28/13/6 26/14/6 30/7/6
f 33/1/1 34/2/1 36/3/1 35/4/1
f 35/4/2 36/3/2 40/5/2 39/6/2
f 39/6/3 40/5/3 38/7/3 37/8/3
f 37/8/4 38/7/4 34/9/4 33/10/4
f 35/11/5 39/6/5 37/8/5 33/12/5
f 40/5/6 36/13/6 34/14/6 38/7/6
f 41/1/1 42/2/1 44/3/1 43/4/1
f 43/4/2 44/3/2 48/5/2 47/6/2
f 47/6/3 48/5/3 46/7/3 45/8/3
f 45/8/4 46/7/4 42/9/4 41/10/4
f 43/11/5 47/6/5 45/8/5 41/12/5
f 48/5/6 44/13/6 42/14/6 46/7/6
f 57/1/1 58/2/1 60/3/1 59/4/1
f 59/4/2 60/3/2 64/5/2 63/6/2
f 63/6/3 64/5/3 62/7/3 61/8/3
f 61/8/4 62/7/4 58/9/4 57/10/4
f 59/11/5 63/6/5 61/8/5 57/12/5
f 64/5/6 60/13/6 58/14/6 62/7/6
f 65/1/1 66/2/1 68/3/1 67/4/1
f 67/4/2 68/3/2 72/5/2 71/6/2
f 71/6/3 72/5/3 70/7/3 69/8/3
f 69/8/4 70/7/4 66/9/4 65/10/4
f 67/11/5 71/6/5 69/8/5 65/12/5
f 72/5/6 68/13/6 66/14/6 70/7/6
f 73/1/1 74/2/1 76/3/1 75/4/1
f 75/4/2 76/3/2 80/5/2 79/6/2
f 79/6/3 80/5/3 78/7/3 77/8/3
f 77/8/4 78/7/4 74/9/4 73/10/4
f 75/11/5 79/6/5 77/8/5 73/12/5
f 80/5/6 76/13/6 74/14/6 78/7/6
f 81/1/1 82/2/1 84/3/1 83/4/1
f 83/4/2 84/3/2 88/5/2 87/6/2
f 87/6/3 88/5/3 86/7/3 85/8/3
f 85/8/4 86/7/4 82/9/4 81/10/4
f 83/11/5 87/6/5 85/8/5 81/12/5
f 88/5/6 84/13/6 82/14/6 86/7/6
f 89/1/1 90/2/1 92/3/1 91/4/1
f 91/4/2 92/3/2 96/5/2 95/6/2
f 95/6/3 96/5/3 94/7/3 93/8/3
f 93/8/4 94/7/4 90/9/4 89/10/4
f 91/11/5 95/6/5 93/8/5 89/12/5
f 96/5/6 92/13/6 90/14/6 94/7/6
f 137/1/1 138/2/1 140/3/1 139/4/1
f 139/4/2 140/3/2 144/5/2 143/6/2
f 143/6/3 144/5/3 142/7/3 141/8/3
f 141/8/4 142/7/4 138/9/4 137/10/4
f 139/11/5 143/6/5 141/8/5 137/12/5
f 144/5/6 140/13/6 138/14/6 142/7/6
f 145/1/1 146/2/1 148/3/1 147/4/1
f 147/4/2 148/3/2 152/5/2 151/6/2
f 151/6/3 152/5/3 150/7/3 149/8/3
f 149/8/4 150/7/4 146/9/4 145/10/4
f 147/11/5 151/6/5 149/8/5 145/12/5
f 152/5/6 148/13/6 146/14/6 150/7/6
f 153/1/1 154/2/1 156/3/1 155/4/1
f 155/4/2 156/3/2 160/5/2 159/6/2
f 159/6/3 160/5/3 158/7/3 157/8/3
f 157/8/4 158/7/4 154/9/4 153/10/4
f 155/11/5 159/6/5 157/8/5 153/12/5
f 160/5/6 156/13/6 154/14/6 158/7/6
f 161/1/1 162/2/1 164/3/1 163/4/1
f 163/4/2 164/3/2 168/5/2 167/6/2
f 167/6/3 168/5/3 166/7/3 165/8/3
f 165/8/4 166/7/4 162/9/4 161/10/4
f 163/11/5 167/6/5 165/8/5 161/12/5
f 168/5/6 164/13/6 162/14/6 166/7/6
f 169/1/1 170/2/1 172/3/1 171/4/1
f 171/4/7 172/3/7 176/5/7 175/6/7
f 175/6/3 176/5/3 174/7/3 173/8/3
f 173/8/8 174/7/8 170/9/8 169/10/8
f 171/11/9 175/6/9 173/8/9 169/12/9
f 176/5/10 172/13/10 170/14/10 174/7/10
f 177/1/1 178/2/1 180/3/1 179/4/1
f 179/4/11 180/3/11 184/5/11 183/6/11
f 183/6/3 184/5/3 182/7/3 181/8/3
f 181/8/12 182/7/12 178/9/12 177/10/12
f 179/11/13 183/6/13 181/8/13 177/12/13
f 184/5/14 180/13/14 178/14/14 182/7/14
f 185/1/1 186/2/1 188/3/1 187/4/1
f 187/4/2 188/3/2 192/5/2 191/6/2
f 191/6/3 192/5/3 190/7/3 189/8/3
f 189/8/4 190/7/4 186/9/4 185/10/4
f 187/11/5 191/6/5 189/8/5 185/12/5
f 192/5/6 188/13/6 186/14/6 190/7/6
f 193/1/1 194/2/1 196/3/1 195/4/1
f 195/4/2 196/3/2 200/5/2 199/6/2
f 199/6/3 200/5/3 198/7/3 197/8/3
f 197/8/4 198/7/4 194/9/4 193/10/4
f 195/11/5 199/6/5 197/8/5 193/12/5
f 200/5/6 196/13/6 194/14/6 198/7/6
f 201/1/1 202/2/1 204/3/1 203/4/1
f 203/4/2 204/3/2 208/5/2 207/6/2
f 207/6/3 208/5/3 206/7/3 205/8/3
f 205/8/4 206/7/4 202/9/4 201/10/4
f 203/11/5 207/6/5 205/8/5 201/12/5
f 208/5/6 204/13/6 202/14/6 206/7/6
f 209/1/1 210/2/1 212/3/1 211/4/1
f 211/4/2 212/3/2 216/5/2 215/6/2
f 215/6/3 216/5/3 214/7/3 213/8/3
f 213/8/4 214/7/4 210/9/4 209/10/4
f 211/11/5 215/6/5 213/8/5 209/12/5
f 216/5/6 212/13/6 210/14/6 214/7/6
f 217/1/1 218/2/1 220/3/1 219/4/1
f 219/4/2 220/3/2 224/5/2 223/6/2
f 223/6/3 224/5/3 222/7/3 221/8/3
f 221/8/4 222/7/4 218/9/4 217/10/4
f 219/11/5 223/6/5 221/8/5 217/12/5
f 224/5/6 220/13/6 218/14/6 222/7/6
f 233/1/1 234/2/1 236/3/1 235/4/1
f 235/4/2 236/3/2 240/5/2 239/6/2
f 239/6/3 240/5/3 238/7/3 237/8/3
f 237/8/4 238/7/4 234/9/4 233/10/4
f 235/11/5 239/6/5 237/8/5 233/12/5
f 240/5/6 236/13/6 234/14/6 238/7/6
f 241/1/1 242/2/1 244/3/1 243/4/1
f 243/4/7 244/3/7 248/5/7 247/6/7
f 247/6/3 248/5/3 246/7/3 245/8/3
f 245/8/8 246/7/8 242/9/8 241/10/8
f 243/11/9 247/6/9 245/8/9 241/12/9
f 248/5/10 244/13/10 242/14/10 246/7/10
f 249/1/1 250/2/1 252/3/1 251/4/1
f 251/4/11 252/3/11 256/5/11 255/6/11
f 255/6/3 256/5/3 254/7/3 253/8/3
f 253/8/12 254/7/12 250/9/12 249/10/12
f 251/11/13 255/6/13 253/8/13 249/12/13
f 256/5/14 252/13/14 250/14/14 254/7/14
f 257/1/1 258/2/1 260/3/1 259/4/1
f 259/4/2 260/3/2 264/5/2 263/6/2
f 263/6/3 264/5/3 262/7/3 261/8/3
f 261/8/4 262/7/4 258/9/4 257/10/4
f 259/11/5 263/6/5 261/8/5 257/12/5
f 264/5/6 260/13/6 258/14/6 262/7/6
f 265/1/1 266/2/1 268/3/1 267/4/1
f 267/4/2 268/3/2 272/5/2 271/6/2
f 271/6/3 272/5/3 270/7/3 269/8/3
f 269/8/4 270/7/4 266/9/4 265/10/4
f 267/11/5 271/6/5 269/8/5 265/12/5
f 272/5/6 268/13/6 266/14/6 270/7/6
f 273/1/1 274/2/1 276/3/1 275/4/1
f 275/4/2 276/3/2 280/5/2 279/6/2
f 279/6/3 280/5/3 278/7/3 277/8/3
f 277/8/4 278/7/4 274/9/4 273/10/4
f 275/11/5 279/6/5 277/8/5 273/12/5
f 280/5/6 276/13/6 274/14/6 278/7/6
f 281/1/1 282/2/1 284/3/1 283/4/1
f 283/4/2 284/3/2 288/5/2 287/6/2
f 287/6/3 288/5/3 286/7/3 285/8/3
f 285/8/4 286/7/4 282/9/4 281/10/4
f 283/11/5 287/6/5 285/8/5 281/12/5
f 288/5/6 284/13/6 282/14/6 286/7/6
f 289/1/1 290/2/1 292/3/1 291/4/1
f 291/4/2 292/3/2 296/5/2 295/6/2
f 295/6/3 296/5/3 294/7/3 293/8/3
f 293/8/4 294/7/4 290/9/4 289/10/4
f 291/11/5 295/6/5 293/8/5 289/12/5
f 296/5/6 292/13/6 290/14/6 294/7/6
f 563/1/1 564/2/1 566/3/1 565/4/1
f 565/4/2 566/3/2 570/5/2 569/6/2
f 569/6/3 570/5/3 568/7/3 567/8/3
f 567/8/4 568/7/4 564/9/4 563/10/4
f 565/11/5 569/6/5 567/8/5 563/12/5
f 570/5/6 566/13/6 564/14/6 568/7/6
f 579/1/1 580/2/1 582/3/1 581/4/1
f 581/4/2 582/3/2 586/5/2 585/6/2
f 585/6/3 586/5/3 584/7/3 583/8/3
f 583/8/4 584/7/4 580/9/4 579/10/4
f 581/11/5 585/6/5 583/8/5 579/12/5
f 586/5/6 582/13/6 580/14/6 584/7/6
usemtl soot
f 49/1/1 50/2/1 52/3/1 51/4/1
f 51/4/2 52/3/2 56/5/2 55/6/2
f 55/6/3 56/5/3 54/7/3 53/8/3
f 53/8/4 54/7/4 50/9/4 49/10/4
f 51/11/5 55/6/5 53/8/5 49/12/5
f 56/5/6 52/13/6 50/14/6 54/7/6
f 479/1/1 480/2/1 482/3/1 481/4/1
f 481/4/2 482/3/2 486/5/2 485/6/2
f 485/6/3 486/5/3 484/7/3 483/8/3
f 483/8/4 484/7/4 480/9/4 479/10/4
f 481/11/5 485/6/5 483/8/5 479/12/5
f 486/5/6 482/13/6 480/14/6 484/7/6
f 493/1/1 494/2/1 496/3/1 495/4/1
f 495/4/2 496/3/2 500/5/2 499/6/2
f 499/6/3 500/5/3 498/7/3 497/8/3
f 497/8/4 498/7/4 494/9/4 493/10/4
f 495/11/5 499/6/5 497/8/5 493/12/5
f 500/5/6 496/13/6 494/14/6 498/7/6
f 515/1/1 516/2/1 518/3/1 517/4/1
f 517/4/2 518/3/2 522/5/2 521/6/2
f 521/6/3 522/5/3 520/7/3 519/8/3
f 519/8/4 520/7/4 516/9/4 515/10/4
f 517/11/5 521/6/5 519/8/5 515/12/5
f 522/5/6 518/13/6 516/14/6 520/7/6
usemtl thatch
f 225/1/1 226/2/1 228/3/1 227/4/1
f 227/4/2 228/3/2 232/5/2 231/6/2
f 231/6/3 232/5/3 230/7/3 229/8/3
f 229/8/4 230/7/4 226/9/4 225/10/4
f 227/11/5 231/6/5 229/8/5 225/12/5
f 232/5/6 228/13/6 226/14/6 230/7/6
f 297/1/1 298/2/1 300/3/1 299/4/1
f 299/4/2 300/3/2 304/5/2 303/6/2
f 303/6/3 304/5/3 302/7/3 301/8/3
f 301/8/4 302/7/4 298/9/4 297/10/4
f 299/11/5 303/6/5 301/8/5 297/12/5
f 304/5/6 300/13/6 298/14/6 302/7/6
f 571/1/1 572/2/1 574/3/1 573/4/1
f 573/4/2 574/3/2 578/5/2 577/6/2
f 577/6/3 578/5/3 576/7/3 575/8/3
f 575/8/4 576/7/4 572/9/4 571/10/4
f 573/11/5 577/6/5 575/8/5 571/12/5
f 578/5/6 574/13/6 572/14/6 576/7/6
f 587/1/1 588/2/1 590/3/1 589/4/1
f 589/4/2 590/3/2 594/5/2 593/6/2
f 593/6/3 594/5/3 592/7/3 591/8/3
f 591/8/4 592/7/4 588/9/4 587/10/4
f 589/11/5 593/6/5 591/8/5 587/12/5
f 594/5/6 590/13/6 588/14/6 592/7/6
usemtl slate
f 305/15/4 306/15/4 307/15/4
f 310/15/2 309/15/2 308/15/2
f 305/15/15 307/15/15 310/15/15 308/15/15
f 307/15/16 306/15/16 309/15/16 310/15/16
f 306/15/5 305/15/5 308/15/5 309/15/5
usemtl stone_dk
f 311/1/17 312/2/17 314/3/17 313/4/17
f 313/4/2 314/3/2 318/5/2 317/6/2
f 317/6/18 318/5/18 316/7/18 315/8/18
f 315/8/4 316/7/4 312/9/4 311/10/4
f 313/11/19 317/6/19 315/8/19 311/12/19
f 318/5/15 314/13/15 312/14/15 316/7/15
f 319/1/20 320/2/20 322/3/20 321/4/20
f 321/4/2 322/3/2 326/5/2 325/6/2
f 325/6/21 326/5/21 324/7/21 323/8/21
f 323/8/4 324/7/4 320/9/4 319/10/4
f 321/11/22 325/6/22 323/8/22 319/12/22
f 326/5/16 322/13/16 320/14/16 324/7/16
f 327/1/17 328/2/17 330/3/17 329/4/17
f 329/4/2 330/3/2 334/5/2 333/6/2
f 333/6/18 334/5/18 332/7/18 331/8/18
f 331/8/4 332/7/4 328/9/4 327/10/4
f 329/11/19 333/6/19 331/8/19 327/12/19
f 334/5/15 330/13/15 328/14/15 332/7/15
f 335/1/20 336/2/20 338/3/20 337/4/20
f 337/4/2 338/3/2 342/5/2 341/6/2
f 341/6/21 342/5/21 340/7/21 339/8/21
f 339/8/4 340/7/4 336/9/4 335/10/4
f 337/11/22 341/6/22 339/8/22 335/12/22
f 342/5/16 338/13/16 336/14/16 340/7/16
f 343/1/17 344/2/17 346/3/17 345/4/17
f 345/4/2 346/3/2 350/5/2 349/6/2
f 349/6/18 350/5/18 348/7/18 347/8/18
f 347/8/4 348/7/4 344/9/4 343/10/4
f 345/11/19 349/6/19 347/8/19 343/12/19
f 350/5/15 346/13/15 344/14/15 348/7/15
f 351/1/20 352/2/20 354/3/20 353/4/20
f 353/4/2 354/3/2 358/5/2 357/6/2
f 357/6/21 358/5/21 356/7/21 355/8/21
f 355/8/4 356/7/4 352/9/4 351/10/4
f 353/11/22 357/6/22 355/8/22 351/12/22
f 358/5/16 354/13/16 352/14/16 356/7/16
f 359/1/17 360/2/17 362/3/17 361/4/17
f 361/4/2 362/3/2 366/5/2 365/6/2
f 365/6/18 366/5/18 364/7/18 363/8/18
f 363/8/4 364/7/4 360/9/4 359/10/4
f 361/11/19 365/6/19 363/8/19 359/12/19
f 366/5/15 362/13/15 360/14/15 364/7/15
f 367/1/20 368/2/20 370/3/20 369/4/20
f 369/4/2 370/3/2 374/5/2 373/6/2
f 373/6/21 374/5/21 372/7/21 371/8/21
f 371/8/4 372/7/4 368/9/4 367/10/4
f 369/11/22 373/6/22 371/8/22 367/12/22
f 374/5/16 370/13/16 368/14/16 372/7/16
f 375/1/17 376/2/17 378/3/17 377/4/17
f 377/4/2 378/3/2 382/5/2 381/6/2
f 381/6/18 382/5/18 380/7/18 379/8/18
f 379/8/4 380/7/4 376/9/4 375/10/4
f 377/11/19 381/6/19 379/8/19 375/12/19
f 382/5/15 378/13/15 376/14/15 380/7/15
f 383/1/20 384/2/20 386/3/20 385/4/20
f 385/4/2 386/3/2 390/5/2 389/6/2
f 389/6/21 390/5/21 388/7/21 387/8/21
f 387/8/4 388/7/4 384/9/4 383/10/4
f 385/11/22 389/6/22 387/8/22 383/12/22
f 390/5/16 386/13/16 384/14/16 388/7/16
f 391/1/17 392/2/17 394/3/17 393/4/17
f 393/4/2 394/3/2 398/5/2 397/6/2
f 397/6/18 398/5/18 396/7/18 395/8/18
f 395/8/4 396/7/4 392/9/4 391/10/4
f 393/11/19 397/6/19 395/8/19 391/12/19
f 398/5/15 394/13/15 392/14/15 396/7/15
f 399/1/20 400/2/20 402/3/20 401/4/20
f 401/4/2 402/3/2 406/5/2 405/6/2
f 405/6/21 406/5/21 404/7/21 403/8/21
f 403/8/4 404/7/4 400/9/4 399/10/4
f 401/11/22 405/6/22 403/8/22 399/12/22
f 406/5/16 402/13/16 400/14/16 404/7/16
f 407/1/17 408/2/17 410/3/17 409/4/17
f 409/4/2 410/3/2 414/5/2 413/6/2
f 413/6/18 414/5/18 412/7/18 411/8/18
f 411/8/4 412/7/4 408/9/4 407/10/4
f 409/11/19 413/6/19 411/8/19 407/12/19
f 414/5/15 410/13/15 408/14/15 412/7/15
f 415/1/20 416/2/20 418/3/20 417/4/20
f 417/4/2 418/3/2 422/5/2 421/6/2
f 421/6/21 422/5/21 420/7/21 419/8/21
f 419/8/4 420/7/4 416/9/4 415/10/4
f 417/11/22 421/6/22 419/8/22 415/12/22
f 422/5/16 418/13/16 416/14/16 420/7/16
f 423/1/1 424/2/1 426/3/1 425/4/1
f 425/4/2 426/3/2 430/5/2 429/6/2
f 429/6/3 430/5/3 428/7/3 427/8/3
f 427/8/4 428/7/4 424/9/4 423/10/4
f 425/11/5 429/6/5 427/8/5 423/12/5
f 430/5/6 426/13/6 424/14/6 428/7/6
usemtl bone
f 463/1/1 464/2/1 466/3/1 465/4/1
f 465/4/2 466/3/2 470/5/2 469/6/2
f 469/6/3 470/5/3 468/7/3 467/8/3
f 467/8/4 468/7/4 464/9/4 463/10/4
f 465/11/5 469/6/5 467/8/5 463/12/5
f 470/5/6 466/13/6 464/14/6 468/7/6
f 471/1/1 472/2/1 474/3/1 473/4/1
f 473/4/2 474/3/2 478/5/2 477/6/2
f 477/6/3 478/5/3 476/7/3 475/8/3
f 475/8/4 476/7/4 472/9/4 471/10/4
f 473/11/5 477/6/5 475/8/5 471/12/5
f 478/5/6 474/13/6 472/14/6 476/7/6
f 487/16/31 492/17/31 488/18/31
f 488/18/32 492/17/32 489/19/32
f 489/19/33 492/17/33 490/20/33
f 487/21/34 488/22/34 489/23/34 490/24/34 491/25/34
f 490/20/35 492/17/35 491/26/35
f 491/26/36 492/17/36 487/16/36
f 501/16/37 506/17/37 502/18/37
f 502/18/38 506/17/38 503/19/38
f 503/19/39 506/17/39 504/20/39
f 501/21/40 502/22/40 503/23/40 504/24/40 505/25/40
f 504/20/41 506/17/41 505/26/41
f 505/26/42 506/17/42 501/16/42
usemtl iron
f 507/1/1 508/2/1 510/3/1 509/4/1
f 509/4/2 510/3/2 514/5/2 513/6/2
f 513/6/3 514/5/3 512/7/3 511/8/3
f 511/8/4 512/7/4 508/9/4 507/10/4
f 509/11/5 513/6/5 511/8/5 507/12/5
f 514/5/6 510/13/6 508/14/6 512/7/6
usemtl amber
f 523/1/1 524/2/1 526/3/1 525/4/1
f 525/4/2 526/3/2 530/5/2 529/6/2
f 529/6/3 530/5/3 528/7/3 527/8/3
f 527/8/4 528/7/4 524/9/4 523/10/4
f 525/11/5 529/6/5 527/8/5 523/12/5
f 530/5/6 526/13/6 524/14/6 528/7/6
usemtl witchlight
f 531/1/1 532/2/1 534/3/1 533/4/1
f 533/4/2 534/3/2 538/5/2 537/6/2
f 537/6/3 538/5/3 536/7/3 535/8/3
f 535/8/4 536/7/4 532/9/4 531/10/4
f 533/11/5 537/6/5 535/8/5 531/12/5
f 538/5/6 534/13/6 532/14/6 536/7/6
f 539/1/1 540/2/1 542/3/1 541/4/1
f 541/4/2 542/3/2 546/5/2 545/6/2
f 545/6/3 546/5/3 544/7/3 543/8/3
f 543/8/4 544/7/4 540/9/4 539/10/4
f 541/11/5 545/6/5 543/8/5 539/12/5
f 546/5/6 542/13/6 540/14/6 544/7/6
f 547/1/1 548/2/1 550/3/1 549/4/1
f 549/4/2 550/3/2 554/5/2 553/6/2
f 553/6/3 554/5/3 552/7/3 551/8/3
f 551/8/4 552/7/4 548/9/4 547/10/4
f 549/11/5 553/6/5 551/8/5 547/12/5
f 554/5/6 550/13/6 548/14/6 552/7/6
f 555/1/1 556/2/1 558/3/1 557/4/1
f 557/4/2 558/3/2 562/5/2 561/6/2
f 561/6/3 562/5/3 560/7/3 559/8/3
f 559/8/4 560/7/4 556/9/4 555/10/4
f 557/11/5 561/6/5 559/8/5 555/12/5
f 562/5/6 558/13/6 556/14/6 560/7/6
