# Blender 5.0.1
# www.blender.org
mtllib tavern.mtl
o tavern
v -1.008268 -0.021693 0.792392
v -1.008451 0.178239 0.797625
v -0.950355 0.021761 -0.866028
v -0.950538 0.221693 -0.860795
v 0.950538 -0.021693 0.860795
v 0.950355 0.178239 0.866028
v 1.008451 0.021761 -0.797625
v 1.008268 0.221693 -0.792392
v -0.925709 0.180333 0.720493
v -0.926485 1.030042 0.742730
v -0.873377 0.219598 -0.778080
v -0.874154 1.069307 -0.755843
v 0.873195 0.180333 0.783312
v 0.872418 1.030042 0.805549
v 0.925526 0.219598 -0.715261
v 0.924749 1.069307 -0.693024
v -0.936307 0.459975 0.737459
v -0.936344 0.499962 0.738506
v -0.883278 0.499764 -0.781094
v -0.883315 0.539751 -0.780048
v 0.882584 0.459975 0.800976
v 0.882547 0.499962 0.802023
v 0.935613 0.499764 -0.717577
v 0.935577 0.539751 -0.716531
v -0.936581 0.759872 0.745308
v -0.936618 0.799859 0.746354
v -0.883552 0.799661 -0.773246
v -0.883589 0.839648 -0.772199
v 0.882310 0.759872 0.808825
v 0.882273 0.799859 0.809871
v 0.935339 0.799661 -0.709729
v 0.935302 0.839648 -0.708682
v -0.245425 0.180857 0.724243
v -0.246083 0.900610 0.743079
v -0.243332 0.182427 0.664301
v -0.243990 0.902180 0.683137
v 0.194307 0.180857 0.739599
v 0.193649 0.900610 0.758435
v 0.196400 0.182427 0.679656
v 0.195742 0.902180 0.698492
v -0.227742 0.219141 0.790926
v -0.228326 0.858922 0.807669
v -0.225997 0.220450 0.740974
v -0.226582 0.860231 0.757717
v 0.172015 0.219141 0.804886
v 0.171430 0.858922 0.821629
v 0.173759 0.220450 0.754933
v 0.173174 0.860231 0.771676
v -0.191202 0.676440 0.839217
v -0.137652 0.721420 0.842266
v -0.189806 0.677487 0.799256
v -0.136257 0.722467 0.802304
v 0.078899 0.354811 0.840222
v 0.132448 0.399791 0.843271
v 0.080294 0.355858 0.800260
v 0.133843 0.400838 0.803309
v -0.137317 0.354811 0.832672
v -0.190949 0.399791 0.831978
v -0.135922 0.355858 0.792710
v -0.189553 0.400838 0.792016
v 0.132195 0.676440 0.850511
v 0.078564 0.721420 0.849816
v 0.133591 0.677487 0.810549
v 0.079959 0.722467 0.809855
v -0.199208 0.848271 0.833431
v -0.199299 0.948237 0.836047
v -0.197114 0.849842 0.773488
v -0.197206 0.949807 0.776104
v 0.140585 0.848271 0.845297
v 0.140494 0.948237 0.847913
v 0.142678 0.849842 0.785354
v 0.142587 0.949807 0.787970
v 0.310710 0.598357 0.844689
v 0.310600 0.718316 0.847829
v 0.312106 0.599404 0.804727
v 0.311996 0.719363 0.807867
v 0.470613 0.598357 0.850273
v 0.470503 0.718316 0.853412
v 0.472008 0.599404 0.810311
v 0.471898 0.719363 0.813451
v -1.050599 1.026900 0.858428
v -1.051256 1.746654 0.877263
v -0.989894 1.072448 -0.879917
v -0.990552 1.792202 -0.861081
v 0.988159 1.026900 0.929623
v 0.987501 1.746654 0.948458
v 1.048863 1.072448 -0.808722
v 1.048205 1.792202 -0.789886
v -0.982735 1.025330 0.920813
v -0.983392 1.745083 0.939649
v -0.981339 1.026377 0.880851
v -0.981997 1.746130 0.899687
v -0.922771 1.025330 0.922907
v -0.923429 1.745083 0.941743
v -0.921376 1.026377 0.882945
v -0.922033 1.746130 0.901781
v -0.063295 1.025330 0.952921
v -0.063953 1.745083 0.971757
v -0.061900 1.026377 0.912959
v -0.062557 1.746130 0.931795
v -0.003332 1.025330 0.955015
v -0.003989 1.745083 0.973851
v -0.001936 1.026377 0.915053
v -0.002594 1.746130 0.933889
v 0.856145 1.025330 0.985028
v 0.855487 1.745083 1.003864
v 0.857540 1.026377 0.945067
v 0.856882 1.746130 0.963903
v 0.916108 1.025330 0.987122
v 0.915450 1.745083 1.005958
v 0.917503 1.026377 0.947161
v 0.916846 1.746130 0.965997
v -1.052710 1.045323 0.918894
v -1.052765 1.105302 0.920463
v -1.051315 1.046370 0.878932
v -1.051370 1.106350 0.880501
v 0.986047 1.045323 0.990089
v 0.985992 1.105302 0.991658
v 0.987443 1.046370 0.950127
v 0.987388 1.106350 0.951696
v -1.053277 1.665111 0.935113
v -1.053331 1.725090 0.936683
v -1.051881 1.666158 0.895152
v -1.051936 1.726137 0.896721
v 0.985481 1.665111 1.006308
v 0.985426 1.725090 1.007878
v 0.986876 1.666158 0.966347
v 0.986821 1.726137 0.967916
v -0.463548 1.152048 0.942264
v -0.715793 1.588375 0.944888
v -0.462152 1.153095 0.902302
v -0.714397 1.589422 0.904926
v -0.411645 1.182038 0.944862
v -0.663890 1.618365 0.947486
v -0.410250 1.183085 0.904900
v -0.662495 1.619412 0.907524
v 0.344732 1.182038 0.971276
v 0.596180 1.618365 0.991489
v 0.346128 1.183085 0.931314
v 0.597575 1.619412 0.951527
v 0.396690 1.152048 0.972304
v 0.648137 1.588375 0.992518
v 0.398085 1.153095 0.932342
v 0.649533 1.589422 0.952556
v -1.075583 1.026900 0.857555
v -1.076241 1.746654 0.876391
v -1.014879 1.072448 -0.880789
v -1.015537 1.792202 -0.861953
v -1.025614 1.026900 0.859300
v -1.026272 1.746654 0.878136
v -0.964910 1.072448 -0.879044
v -0.965567 1.792202 -0.860208
v 0.963174 1.026900 0.928750
v 0.962516 1.746654 0.947586
v 1.023878 1.072448 -0.809594
v 1.023220 1.792202 -0.790758
v 1.013143 1.026900 0.930495
v 1.012486 1.746654 0.949331
v 1.073848 1.072448 -0.807849
v 1.073190 1.792202 -0.789013
v -0.726195 1.271686 0.881175
v -0.726478 1.581579 0.889285
v -0.724451 1.272995 0.831222
v -0.724734 1.582888 0.839332
v -0.436372 1.271686 0.891295
v -0.436655 1.581579 0.899405
v -0.434627 1.272995 0.841343
v -0.434910 1.582888 0.849453
v -0.701756 1.296284 0.897687
v -0.701994 1.556195 0.904489
v -0.700361 1.297331 0.857725
v -0.700598 1.557242 0.864527
v -0.461903 1.296284 0.906063
v -0.462140 1.556195 0.912865
v -0.460507 1.297331 0.866101
v -0.460745 1.557242 0.872903
v -0.678289 1.499806 0.928863
v -0.657109 1.521012 0.930158
v -0.677243 1.500592 0.898891
v -0.656062 1.521797 0.900187
v -0.508532 1.330159 0.930346
v -0.487351 1.351365 0.931641
v -0.507486 1.330944 0.900374
v -0.486305 1.352150 0.901670
v -0.656934 1.330159 0.925163
v -0.678154 1.351365 0.924978
v -0.655887 1.330944 0.895192
v -0.677107 1.352150 0.895007
v -0.487487 1.499806 0.935526
v -0.508707 1.521012 0.935340
v -0.486440 1.500592 0.905554
v -0.507660 1.521797 0.905369
v 0.373135 1.271686 0.919564
v 0.372852 1.581579 0.927674
v 0.374879 1.272995 0.869612
v 0.374596 1.582888 0.877722
v 0.662958 1.271686 0.929685
v 0.662675 1.581579 0.937795
v 0.664703 1.272995 0.879732
v 0.664419 1.582888 0.887842
v 0.397574 1.296284 0.936076
v 0.397336 1.556195 0.942878
v 0.398969 1.297331 0.896114
v 0.398732 1.557242 0.902916
v 0.637427 1.296284 0.944452
v 0.637190 1.556195 0.951254
v 0.638823 1.297331 0.904490
v 0.638585 1.557242 0.911292
v 0.421041 1.499806 0.967252
v 0.442221 1.521012 0.968547
v 0.422087 1.500592 0.937281
v 0.443268 1.521797 0.938576
v 0.590798 1.330159 0.968735
v 0.611979 1.351365 0.970030
v 0.591844 1.330944 0.938764
v 0.613025 1.352150 0.940059
v 0.442396 1.330159 0.963553
v 0.421176 1.351365 0.963367
v 0.443442 1.330944 0.933581
v 0.422223 1.352150 0.933396
v 0.611843 1.499806 0.973915
v 0.590623 1.521012 0.973730
v 0.612890 1.500592 0.943944
v 0.591670 1.521797 0.943758
v -1.258112 1.741418 1.070093
v 1.180402 1.741418 1.155248
v -0.039815 2.791058 1.140140
v -1.183453 1.797437 -1.067870
v 1.255061 1.797437 -0.982716
v 0.034845 2.847077 -0.997824
v -0.091483 2.739767 1.187039
v -0.091574 2.839732 1.189655
v -0.013335 2.798403 -1.050829
v -0.013426 2.898369 -1.048213
v 0.008456 2.739767 1.190529
v 0.008365 2.839732 1.193145
v 0.086604 2.798403 -1.047339
v 0.086513 2.898369 -1.044723
v -0.700809 1.983476 0.555383
v -0.701084 2.283373 0.563231
v -0.691739 1.990282 0.295630
v -0.692013 2.290179 0.303478
v -0.460956 1.983476 0.563758
v -0.461230 2.283373 0.571607
v -0.451885 1.990282 0.304006
v -0.452159 2.290179 0.311854
v -0.781714 2.262856 0.579897
v -0.781806 2.362822 0.582513
v -0.771248 2.270709 0.280182
v -0.771339 2.370675 0.282798
v -0.621812 2.262856 0.585481
v -0.621903 2.362822 0.588097
v -0.611345 2.270709 0.285766
v -0.611437 2.370675 0.288382
v -0.739123 2.074754 0.506389
v -0.739269 2.234699 0.510574
v -0.733541 2.078942 0.346541
v -0.733687 2.238887 0.350727
v -0.699147 2.074754 0.507785
v -0.699293 2.234699 0.511971
v -0.693565 2.078942 0.347937
v -0.693711 2.238887 0.352123
v -0.672899 2.004417 -0.243856
v -0.673174 2.304314 -0.236008
v -0.663829 2.011223 -0.503609
v -0.664103 2.311120 -0.495760
v -0.433046 2.004417 -0.235480
v -0.433320 2.304314 -0.227632
v -0.423975 2.011223 -0.495233
v -0.424249 2.311120 -0.487384
v -0.753804 2.283798 -0.219342
v -0.753896 2.383764 -0.216726
v -0.743338 2.291651 -0.519056
v -0.743429 2.391617 -0.516440
v -0.593902 2.283798 -0.213758
v -0.593993 2.383764 -0.211142
v -0.583435 2.291651 -0.513473
v -0.583527 2.391617 -0.510856
v -0.711213 2.095695 -0.292850
v -0.711359 2.255640 -0.288664
v -0.705631 2.099884 -0.452698
v -0.705777 2.259829 -0.448512
v -0.671237 2.095695 -0.291454
v -0.671383 2.255640 -0.287268
v -0.665655 2.099884 -0.451302
v -0.665801 2.259829 -0.447116
v -1.101168 1.630802 0.873864
v -1.101478 1.876609 0.882722
v -0.975376 1.684712 0.996624
v -1.082125 1.884903 0.901608
v -1.109425 1.738622 1.110310
v -1.102748 1.893197 0.919098
v -1.235218 1.684712 0.987550
v -1.122100 1.884903 0.900212
v 1.037528 1.630802 0.948549
v 1.037219 1.876609 0.957407
v 1.163321 1.684712 1.071309
v 1.056572 1.884903 0.976293
v 1.029271 1.738622 1.184995
v 1.035949 1.893197 0.993783
v 0.903479 1.684712 1.062235
v 1.016596 1.884903 0.974897
v -1.032319 1.796476 -1.097715
v -1.039270 1.940826 -0.898681
v -0.906423 1.736449 -0.977937
v -1.019901 1.931592 -0.880253
v -1.040368 1.676422 -0.867233
v -1.040508 1.922356 -0.863222
v -1.166264 1.736449 -0.987011
v -1.059877 1.931592 -0.881649
v 1.106377 1.796476 -1.023030
v 1.099427 1.940826 -0.823996
v 1.232274 1.736449 -0.903252
v 1.118796 1.931592 -0.805568
v 1.098329 1.676422 -0.792548
v 1.098189 1.922356 -0.788537
v 0.972432 1.736449 -0.912326
v 1.078820 1.931592 -0.806964
v 0.799770 0.200227 0.020545
v 0.798491 1.599748 0.057171
v 0.820005 0.215410 -0.558903
v 0.818726 1.614930 -0.522277
v 1.319453 0.200227 0.038693
v 1.318174 1.599748 0.075318
v 1.339688 0.215410 -0.540755
v 1.338409 1.614930 -0.504130
v 0.858637 1.399816 0.054032
v 0.857906 2.199542 0.074961
v 0.878872 1.414999 -0.525416
v 0.878141 2.214725 -0.504487
v 1.258394 1.399816 0.067992
v 1.257663 2.199542 0.088921
v 1.278628 1.414999 -0.511456
v 1.277898 2.214725 -0.490527
v 0.908059 1.999611 0.071474
v 0.907145 2.999268 0.097635
v 0.928294 2.014793 -0.507974
v 0.927380 3.014451 -0.481813
v 1.207876 1.999611 0.081944
v 1.206963 2.999268 0.108105
v 1.228111 2.014793 -0.497504
v 1.227197 3.014451 -0.471343
v 0.866114 3.008479 0.126472
v 0.866041 3.088451 0.128565
v 0.888442 3.025232 -0.512919
v 0.888369 3.105205 -0.510826
v 1.245882 3.008479 0.139734
v 1.245809 3.088451 0.141827
v 1.268210 3.025232 -0.499657
v 1.268137 3.105205 -0.497564
v 0.947790 3.097300 -0.206670
v 0.947607 3.297231 -0.201438
v 0.965151 3.096828 -0.188059
v 0.964968 3.296760 -0.182827
v 0.946534 3.096357 -0.170705
v 0.946351 3.296288 -0.165473
v 0.929173 3.096828 -0.189316
v 0.928990 3.296760 -0.184084
v 1.067717 3.097300 -0.202483
v 1.067534 3.297231 -0.197250
v 1.085078 3.096828 -0.183872
v 1.084895 3.296760 -0.178639
v 1.066461 3.096357 -0.166517
v 1.066278 3.296288 -0.161285
v 1.049100 3.096828 -0.185128
v 1.048917 3.296760 -0.179896
v 1.187644 3.097300 -0.198295
v 1.187461 3.297231 -0.193062
v 1.205005 3.096828 -0.179684
v 1.204822 3.296760 -0.174451
v 1.186388 3.096357 -0.162329
v 1.186205 3.296288 -0.157097
v 1.169027 3.096828 -0.180940
v 1.168844 3.296760 -0.175708
v -0.931511 1.540203 1.316455
v -0.931557 1.590186 1.317763
v -0.917556 1.550673 0.916835
v -0.917602 1.600656 0.918144
v -0.881542 1.540203 1.318200
v -0.881587 1.590186 1.319508
v -0.867586 1.550673 0.918580
v -0.867632 1.600656 0.919888
v -1.117270 1.539548 1.334975
v -1.117316 1.589531 1.336283
v -1.115526 1.540857 1.285022
v -1.115572 1.590840 1.286330
v -0.697526 1.539548 1.349632
v -0.697572 1.589531 1.350940
v -0.695782 1.540857 1.299680
v -0.695828 1.590840 1.300988
v -1.076593 1.345008 1.316283
v -1.076758 1.524946 1.320992
v -1.075896 1.345531 1.296302
v -1.076060 1.525470 1.301011
v -1.056606 1.345008 1.316981
v -1.056770 1.524946 1.321690
v -1.055908 1.345531 1.297000
v -1.056072 1.525470 1.301709
v -0.756788 1.345008 1.327451
v -0.756953 1.524946 1.332160
v -0.756091 1.345531 1.307470
v -0.756255 1.525470 1.312179
v -0.736801 1.345008 1.328149
v -0.736965 1.524946 1.332858
v -0.736103 1.345531 1.308168
v -0.736267 1.525470 1.312877
v -1.116800 1.024725 1.321502
v -1.117092 1.344615 1.329873
v -1.115056 1.026034 1.271549
v -1.115348 1.345924 1.279921
v -0.697056 1.024725 1.336159
v -0.697348 1.344615 1.344531
v -0.695312 1.026034 1.286207
v -0.695604 1.345924 1.294579
v -1.018146 1.093785 1.361790
v -1.018310 1.273723 1.366499
v -1.016053 1.095355 1.301847
v -1.016217 1.275293 1.306556
v -0.798280 1.093785 1.369467
v -0.798445 1.273723 1.374177
v -0.796187 1.095355 1.309525
v -0.796351 1.275293 1.314234
vn -0.9994 -0.0000 -0.0349
vn 0.0349 0.0262 -0.9990
vn 0.9994 -0.0000 0.0349
vn -0.0349 -0.0262 0.9990
vn 0.0009 -0.9997 -0.0262
vn -0.0009 0.9997 0.0262
vn -0.6431 0.7658 -0.0024
vn 0.6431 -0.7658 0.0024
vn -0.7650 -0.6426 -0.0436
vn 0.7650 0.6426 0.0436
vn -0.6417 -0.7658 -0.0425
vn 0.6417 0.7658 0.0425
vn 0.7662 -0.6426 0.0099
vn -0.7662 0.6426 -0.0099
vn -0.8650 -0.4998 -0.0433
vn 0.8650 0.4998 0.0433
vn 0.5005 -0.8657 -0.0052
vn -0.5005 0.8657 0.0052
vn -0.8660 0.4998 -0.0171
vn 0.8660 -0.4998 0.0171
vn -0.4989 -0.8657 -0.0401
vn 0.4989 0.8657 0.0401
vn -0.7073 0.7069 -0.0062
vn 0.7073 -0.7069 0.0062
vn -0.7060 -0.7069 -0.0432
vn 0.7060 0.7069 0.0432
vn -0.6526 0.7577 -0.0029
vn 0.6512 0.7577 0.0426
vn 0.6923 0.0269 -0.7212
vn 0.6499 0.5798 0.4914
vn 0.0145 0.9100 -0.4144
vn -0.6826 0.5798 0.4449
vn -0.6403 0.0269 -0.7677
vn -0.0145 -0.9100 0.4144
vn 0.6815 0.6035 -0.4139
vn 0.6403 -0.0122 0.7681
vn -0.0161 0.8870 0.4615
vn -0.6923 -0.0122 0.7215
vn -0.6510 0.6035 -0.4604
vn 0.0161 -0.8870 -0.4615
vn 0.7313 0.0185 -0.6818
vn 0.6820 -0.0185 0.7311
vn -0.7313 -0.0185 0.6818
vn -0.6820 0.0185 -0.7311
vt 0.375000 0.000000
vt 0.625000 0.000000
vt 0.625000 0.250000
vt 0.375000 0.250000
vt 0.625000 0.500000
vt 0.375000 0.500000
vt 0.625000 0.750000
vt 0.375000 0.750000
vt 0.625000 1.000000
vt 0.375000 1.000000
vt 0.125000 0.500000
vt 0.125000 0.750000
vt 0.875000 0.500000
vt 0.875000 0.750000
vt 0.000000 0.000000
vt 1.000000 0.500000
vt 1.000000 1.000000
vt 0.750000 1.000000
vt 0.750000 0.500000
vt 0.500000 1.000000
vt 0.500000 0.500000
vt 0.490000 0.250000
vt 0.250000 0.490000
vt 0.010000 0.250000
vt 0.250000 0.010000
vt 0.250000 1.000000
vt 0.250000 0.500000
vt 0.000000 1.000000
vt 0.000000 0.500000
vt 0.750000 0.490000
vt 0.990000 0.250000
vt 0.750000 0.010000
vt 0.510000 0.250000
s 0
usemtl stone_dk
f 1/1/1 2/2/1 4/3/1 3/4/1
f 3/4/2 4/3/2 8/5/2 7/6/2
f 7/6/3 8/5/3 6/7/3 5/8/3
f 5/8/4 6/7/4 2/9/4 1/10/4
f 3/11/5 7/6/5 5/8/5 1/12/5
f 8/5/6 4/13/6 2/14/6 6/7/6
f 17/1/1 18/2/1 20/3/1 19/4/1
f 19/4/2 20/3/2 24/5/2 23/6/2
f 23/6/3 24/5/3 22/7/3 21/8/3
f 21/8/4 22/7/4 18/9/4 17/10/4
f 19/11/5 23/6/5 21/8/5 17/12/5
f 24/5/6 20/13/6 18/14/6 22/7/6
f 25/1/1 26/2/1 28/3/1 27/4/1
f 27/4/2 28/3/2 32/5/2 31/6/2
f 31/6/3 32/5/3 30/7/3 29/8/3
f 29/8/4 30/7/4 26/9/4 25/10/4
f 27/11/5 31/6/5 29/8/5 25/12/5
f 32/5/6 28/13/6 26/14/6 30/7/6
f 327/1/1 328/2/1 330/3/1 329/4/1
f 329/4/2 330/3/2 334/5/2 333/6/2
f 333/6/3 334/5/3 332/7/3 331/8/3
f 331/8/4 332/7/4 328/9/4 327/10/4
f 329/11/5 333/6/5 331/8/5 327/12/5
f 334/5/6 330/13/6 328/14/6 332/7/6
usemtl stone
f 9/1/1 10/2/1 12/3/1 11/4/1
f 11/4/2 12/3/2 16/5/2 15/6/2
f 15/6/3 16/5/3 14/7/3 13/8/3
f 13/8/4 14/7/4 10/9/4 9/10/4
f 11/11/5 15/6/5 13/8/5 9/12/5
f 16/5/6 12/13/6 10/14/6 14/7/6
f 319/1/1 320/2/1 322/3/1 321/4/1
f 321/4/2 322/3/2 326/5/2 325/6/2
f 325/6/3 326/5/3 324/7/3 323/8/3
f 323/8/4 324/7/4 320/9/4 319/10/4
f 321/11/5 325/6/5 323/8/5 319/12/5
f 326/5/6 322/13/6 320/14/6 324/7/6
f 335/1/1 336/2/1 338/3/1 337/4/1
f 337/4/2 338/3/2 342/5/2 341/6/2
f 341/6/3 342/5/3 340/7/3 339/8/3
f 339/8/4 340/7/4 336/9/4 335/10/4
f 337/11/5 341/6/5 339/8/5 335/12/5
f 342/5/6 338/13/6 336/14/6 340/7/6
f 343/1/1 344/2/1 346/3/1 345/4/1
f 345/4/2 346/3/2 350/5/2 349/6/2
f 349/6/3 350/5/3 348/7/3 347/8/3
f 347/8/4 348/7/4 344/9/4 343/10/4
f 345/11/5 349/6/5 347/8/5 343/12/5
f 350/5/6 346/13/6 344/14/6 348/7/6
usemtl soot
f 33/1/1 34/2/1 36/3/1 35/4/1
f 35/4/2 36/3/2 40/5/2 39/6/2
f 39/6/3 40/5/3 38/7/3 37/8/3
f 37/8/4 38/7/4 34/9/4 33/10/4
f 35/11/5 39/6/5 37/8/5 33/12/5
f 40/5/6 36/13/6 34/14/6 38/7/6
f 161/1/1 162/2/1 164/3/1 163/4/1
f 163/4/2 164/3/2 168/5/2 167/6/2
f 167/6/3 168/5/3 166/7/3 165/8/3
f 165/8/4 166/7/4 162/9/4 161/10/4
f 163/11/5 167/6/5 165/8/5 161/12/5
f 168/5/6 164/13/6 162/14/6 166/7/6
f 193/1/1 194/2/1 196/3/1 195/4/1
f 195/4/2 196/3/2 200/5/2 199/6/2
f 199/6/3 200/5/3 198/7/3 197/8/3
f 197/8/4 198/7/4 194/9/4 193/10/4
f 195/11/5 199/6/5 197/8/5 193/12/5
f 200/5/6 196/13/6 194/14/6 198/7/6
usemtl wood_dk
f 41/1/1 42/2/1 44/3/1 43/4/1
f 43/4/2 44/3/2 48/5/2 47/6/2
f 47/6/3 48/5/3 46/7/3 45/8/3
f 45/8/4 46/7/4 42/9/4 41/10/4
f 43/11/5 47/6/5 45/8/5 41/12/5
f 48/5/6 44/13/6 42/14/6 46/7/6
f 177/1/23 178/2/23 180/3/23 179/4/23
f 179/4/2 180/3/2 184/5/2 183/6/2
f 183/6/24 184/5/24 182/7/24 181/8/24
f 181/8/4 182/7/4 178/9/4 177/10/4
f 179/11/25 183/6/25 181/8/25 177/12/25
f 184/5/26 180/13/26 178/14/26 182/7/26
f 185/1/25 186/2/25 188/3/25 187/4/25
f 187/4/2 188/3/2 192/5/2 191/6/2
f 191/6/26 192/5/26 190/7/26 189/8/26
f 189/8/4 190/7/4 186/9/4 185/10/4
f 187/11/24 191/6/24 189/8/24 185/12/24
f 192/5/23 188/13/23 186/14/23 190/7/23
f 209/1/23 210/2/23 212/3/23 211/4/23
f 211/4/2 212/3/2 216/5/2 215/6/2
f 215/6/24 216/5/24 214/7/24 213/8/24
f 213/8/4 214/7/4 210/9/4 209/10/4
f 211/11/25 215/6/25 213/8/25 209/12/25
f 216/5/26 212/13/26 210/14/26 214/7/26
f 217/1/25 218/2/25 220/3/25 219/4/25
f 219/4/2 220/3/2 224/5/2 223/6/2
f 223/6/26 224/5/26 222/7/26 221/8/26
f 221/8/4 222/7/4 218/9/4 217/10/4
f 219/11/24 223/6/24 221/8/24 217/12/24
f 224/5/23 220/13/23 218/14/23 222/7/23
f 375/1/1 376/2/1 378/3/1 377/4/1
f 377/4/2 378/3/2 382/5/2 381/6/2
f 381/6/3 382/5/3 380/7/3 379/8/3
f 379/8/4 380/7/4 376/9/4 375/10/4
f 377/11/5 381/6/5 379/8/5 375/12/5
f 382/5/6 378/13/6 376/14/6 380/7/6
f 383/1/1 384/2/1 386/3/1 385/4/1
f 385/4/2 386/3/2 390/5/2 389/6/2
f 389/6/3 390/5/3 388/7/3 387/8/3
f 387/8/4 388/7/4 384/9/4 383/10/4
f 385/11/5 389/6/5 387/8/5 383/12/5
f 390/5/6 386/13/6 384/14/6 388/7/6
usemtl wood
f 49/1/7 50/2/7 52/3/7 51/4/7
f 51/4/2 52/3/2 56/5/2 55/6/2
f 55/6/8 56/5/8 54/7/8 53/8/8
f 53/8/4 54/7/4 50/9/4 49/10/4
f 51/11/9 55/6/9 53/8/9 49/12/9
f 56/5/10 52/13/10 50/14/10 54/7/10
f 57/1/11 58/2/11 60/3/11 59/4/11
f 59/4/2 60/3/2 64/5/2 63/6/2
f 63/6/12 64/5/12 62/7/12 61/8/12
f 61/8/4 62/7/4 58/9/4 57/10/4
f 59/11/13 63/6/13 61/8/13 57/12/13
f 64/5/14 60/13/14 58/14/14 62/7/14
usemtl ember
f 65/1/1 66/2/1 68/3/1 67/4/1
f 67/4/2 68/3/2 72/5/2 71/6/2
f 71/6/3 72/5/3 70/7/3 69/8/3
f 69/8/4 70/7/4 66/9/4 65/10/4
f 67/11/5 71/6/5 69/8/5 65/12/5
f 72/5/6 68/13/6 66/14/6 70/7/6
f 169/1/1 170/2/1 172/3/1 171/4/1
f 171/4/2 172/3/2 176/5/2 175/6/2
f 175/6/3 176/5/3 174/7/3 173/8/3
f 173/8/4 174/7/4 170/9/4 169/10/4
f 171/11/5 175/6/5 173/8/5 169/12/5
f 176/5/6 172/13/6 170/14/6 174/7/6
f 201/1/1 202/2/1 204/3/1 203/4/1
f 203/4/2 204/3/2 208/5/2 207/6/2
f 207/6/3 208/5/3 206/7/3 205/8/3
f 205/8/4 206/7/4 202/9/4 201/10/4
f 203/11/5 207/6/5 205/8/5 201/12/5
f 208/5/6 204/13/6 202/14/6 206/7/6
f 255/1/1 256/2/1 258/3/1 257/4/1
f 257/4/2 258/3/2 262/5/2 261/6/2
f 261/6/3 262/5/3 260/7/3 259/8/3
f 259/8/4 260/7/4 256/9/4 255/10/4
f 257/11/5 261/6/5 259/8/5 255/12/5
f 262/5/6 258/13/6 256/14/6 260/7/6
f 279/1/1 280/2/1 282/3/1 281/4/1
f 281/4/2 282/3/2 286/5/2 285/6/2
f 285/6/3 286/5/3 284/7/3 283/8/3
f 283/8/4 284/7/4 280/9/4 279/10/4
f 281/11/5 285/6/5 283/8/5 279/12/5
f 286/5/6 282/13/6 280/14/6 284/7/6
usemtl crimson
f 73/1/1 74/2/1 76/3/1 75/4/1
f 75/4/2 76/3/2 80/5/2 79/6/2
f 79/6/3 80/5/3 78/7/3 77/8/3
f 77/8/4 78/7/4 74/9/4 73/10/4
f 75/11/5 79/6/5 77/8/5 73/12/5
f 80/5/6 76/13/6 74/14/6 78/7/6
f 407/1/1 408/2/1 410/3/1 409/4/1
f 409/4/2 410/3/2 414/5/2 413/6/2
f 413/6/3 414/5/3 412/7/3 411/8/3
f 411/8/4 412/7/4 408/9/4 407/10/4
f 409/11/5 413/6/5 411/8/5 407/12/5
f 414/5/6 410/13/6 408/14/6 412/7/6
usemtl bone
f 81/1/1 82/2/1 84/3/1 83/4/1
f 83/4/2 84/3/2 88/5/2 87/6/2
f 87/6/3 88/5/3 86/7/3 85/8/3
f 85/8/4 86/7/4 82/9/4 81/10/4
f 83/11/5 87/6/5 85/8/5 81/12/5
f 88/5/6 84/13/6 82/14/6 86/7/6
f 239/1/1 240/2/1 242/3/1 241/4/1
f 241/4/2 242/3/2 246/5/2 245/6/2
f 245/6/3 246/5/3 244/7/3 243/8/3
f 243/8/4 244/7/4 240/9/4 239/10/4
f 241/11/5 245/6/5 243/8/5 239/12/5
f 246/5/6 242/13/6 240/14/6 244/7/6
f 263/1/1 264/2/1 266/3/1 265/4/1
f 265/4/2 266/3/2 270/5/2 269/6/2
f 269/6/3 270/5/3 268/7/3 267/8/3
f 267/8/4 268/7/4 264/9/4 263/10/4
f 265/11/5 269/6/5 267/8/5 263/12/5
f 270/5/6 266/13/6 264/14/6 268/7/6
usemtl charwood
f 89/1/1 90/2/1 92/3/1 91/4/1
f 91/4/2 92/3/2 96/5/2 95/6/2
f 95/6/3 96/5/3 94/7/3 93/8/3
f 93/8/4 94/7/4 90/9/4 89/10/4
f 91/11/5 95/6/5 93/8/5 89/12/5
f 96/5/6 92/13/6 90/14/6 94/7/6
f 97/1/1 98/2/1 100/3/1 99/4/1
f 99/4/2 100/3/2 104/5/2 103/6/2
f 103/6/3 104/5/3 102/7/3 101/8/3
f 101/8/4 102/7/4 98/9/4 97/10/4
f 99/11/5 103/6/5 101/8/5 97/12/5
f 104/5/6 100/13/6 98/14/6 102/7/6
f 105/1/1 106/2/1 108/3/1 107/4/1
f 107/4/2 108/3/2 112/5/2 111/6/2
f 111/6/3 112/5/3 110/7/3 109/8/3
f 109/8/4 110/7/4 106/9/4 105/10/4
f 107/11/5 111/6/5 109/8/5 105/12/5
f 112/5/6 108/13/6 106/14/6 110/7/6
f 113/1/1 114/2/1 116/3/1 115/4/1
f 115/4/2 116/3/2 120/5/2 119/6/2
f 119/6/3 120/5/3 118/7/3 117/8/3
f 117/8/4 118/7/4 114/9/4 113/10/4
f 115/11/5 119/6/5 117/8/5 113/12/5
f 120/5/6 116/13/6 114/14/6 118/7/6
f 121/1/1 122/2/1 124/3/1 123/4/1
f 123/4/2 124/3/2 128/5/2 127/6/2
f 127/6/3 128/5/3 126/7/3 125/8/3
f 125/8/4 126/7/4 122/9/4 121/10/4
f 123/11/5 127/6/5 125/8/5 121/12/5
f 128/5/6 124/13/6 122/14/6 126/7/6
f 129/1/15 130/2/15 132/3/15 131/4/15
f 131/4/2 132/3/2 136/5/2 135/6/2
f 135/6/16 136/5/16 134/7/16 133/8/16
f 133/8/4 134/7/4 130/9/4 129/10/4
f 131/11/17 135/6/17 133/8/17 129/12/17
f 136/5/18 132/13/18 130/14/18 134/7/18
f 137/1/19 138/2/19 140/3/19 139/4/19
f 139/4/2 140/3/2 144/5/2 143/6/2
f 143/6/20 144/5/20 142/7/20 141/8/20
f 141/8/4 142/7/4 138/9/4 137/10/4
f 139/11/21 143/6/21 141/8/21 137/12/21
f 144/5/22 140/13/22 138/14/22 142/7/22
f 145/1/1 146/2/1 148/3/1 147/4/1
f 147/4/2 148/3/2 152/5/2 151/6/2
f 151/6/3 152/5/3 150/7/3 149/8/3
f 149/8/4 150/7/4 146/9/4 145/10/4
f 147/11/5 151/6/5 149/8/5 145/12/5
f 152/5/6 148/13/6 146/14/6 150/7/6
f 153/1/1 154/2/1 156/3/1 155/4/1
f 155/4/2 156/3/2 160/5/2 159/6/2
f 159/6/3 160/5/3 158/7/3 157/8/3
f 157/8/4 158/7/4 154/9/4 153/10/4
f 155/11/5 159/6/5 157/8/5 153/12/5
f 160/5/6 156/13/6 154/14/6 158/7/6
f 231/1/1 232/2/1 234/3/1 233/4/1
f 233/4/2 234/3/2 238/5/2 237/6/2
f 237/6/3 238/5/3 236/7/3 235/8/3
f 235/8/4 236/7/4 232/9/4 231/10/4
f 233/11/5 237/6/5 235/8/5 231/12/5
f 238/5/6 234/13/6 232/14/6 236/7/6
usemtl roof_red
f 225/15/4 226/15/4 227/15/4
f 230/15/2 229/15/2 228/15/2
f 225/15/27 227/15/27 230/15/27 228/15/27
f 227/15/28 226/15/28 229/15/28 230/15/28
f 226/15/5 225/15/5 228/15/5 229/15/5
f 247/1/1 248/2/1 250/3/1 249/4/1
f 249/4/2 250/3/2 254/5/2 253/6/2
f 253/6/3 254/5/3 252/7/3 251/8/3
f 251/8/4 252/7/4 248/9/4 247/10/4
f 249/11/5 253/6/5 251/8/5 247/12/5
f 254/5/6 250/13/6 248/14/6 252/7/6
f 271/1/1 272/2/1 274/3/1 273/4/1
f 273/4/2 274/3/2 278/5/2 277/6/2
f 277/6/3 278/5/3 276/7/3 275/8/3
f 275/8/4 276/7/4 272/9/4 271/10/4
f 273/11/5 277/6/5 275/8/5 271/12/5
f 278/5/6 274/13/6 272/14/6 276/7/6
f 287/16/29 288/17/29 290/18/29 289/19/29
f 289/19/30 290/18/30 292/20/30 291/21/30
f 290/22/31 288/23/31 294/24/31 292/25/31
f 291/21/32 292/20/32 294/26/32 293/27/32
f 293/27/33 294/26/33 288/28/33 287/29/33
f 287/30/34 289/31/34 291/32/34 293/33/34
f 295/16/29 296/17/29 298/18/29 297/19/29
f 297/19/30 298/18/30 300/20/30 299/21/30
f 298/22/31 296/23/31 302/24/31 300/25/31
f 299/21/32 300/20/32 302/26/32 301/27/32
f 301/27/33 302/26/33 296/28/33 295/29/33
f 295/30/34 297/31/34 299/32/34 301/33/34
f 303/16/35 304/17/35 306/18/35 305/19/35
f 305/19/36 306/18/36 308/20/36 307/21/36
f 306/22/37 304/23/37 310/24/37 308/25/37
f 307/21/38 308/20/38 310/26/38 309/27/38
f 309/27/39 310/26/39 304/28/39 303/29/39
f 303/30/40 305/31/40 307/32/40 309/33/40
f 311/16/35 312/17/35 314/18/35 313/19/35
f 313/19/36 314/18/36 316/20/36 315/21/36
f 314/22/37 312/23/37 318/24/37 316/25/37
f 315/21/38 316/20/38 318/26/38 317/27/38
f 317/27/39 318/26/39 312/28/39 311/29/39
f 311/30/40 313/31/40 315/32/40 317/33/40
usemtl iron
f 351/16/41 352/17/41 354/18/41 353/19/41
f 353/19/42 354/18/42 356/20/42 355/21/42
f 354/22/6 352/23/6 358/24/6 356/25/6
f 355/21/43 356/20/43 358/26/43 357/27/43
f 357/27/44 358/26/44 352/28/44 351/29/44
f 351/30/5 353/31/5 355/32/5 357/33/5
f 359/16/41 360/17/41 362/18/41 361/19/41
f 361/19/42 362/18/42 364/20/42 363/21/42
f 362/22/6 360/23/6 366/24/6 364/25/6
f 363/21/43 364/20/43 366/26/43 365/27/43
f 365/27/44 366/26/44 360/28/44 359/29/44
f 359/30/5 361/31/5 363/32/5 365/33/5
f 367/16/41 368/17/41 370/18/41 369/19/41
f 369/19/42 370/18/42 372/20/42 371/21/42
f 370/22/6 368/23/6 374/24/6 372/25/6
f 371/21/43 372/20/43 374/26/43 373/27/43
f 373/27/44 374/26/44 368/28/44 367/29/44
f 367/30/5 369/31/5 371/32/5 373/33/5
f 391/1/1 392/2/1 394/3/1 393/4/1
f 393/4/2 394/3/2 398/5/2 397/6/2
f 397/6/3 398/5/3 396/7/3 395/8/3
f 395/8/4 396/7/4 392/9/4 391/10/4
f 393/11/5 397/6/5 395/8/5 391/12/5
f 398/5/6 394/13/6 392/14/6 396/7/6
f 399/1/1 400/2/1 402/3/1 401/4/1
f 401/4/2 402/3/2 406/5/2 405/6/2
f 405/6/3 406/5/3 404/7/3 403/8/3
f 403/8/4 404/7/4 400/9/4 399/10/4
f 401/11/5 405/6/5 403/8/5 399/12/5
f 406/5/6 402/13/6 400/14/6 404/7/6
usemtl gold
f 415/1/1 416/2/1 418/3/1 417/4/1
f 417/4/2 418/3/2 422/5/2 421/6/2
f 421/6/3 422/5/3 420/7/3 419/8/3
f 419/8/4 420/7/4 416/9/4 415/10/4
f 417/11/5 421/6/5 419/8/5 415/12/5
f 422/5/6 418/13/6 416/14/6 420/7/6
