# Blender 5.0.1
# www.blender.org
mtllib watchtower.mtl
o watchtower
v -0.500000 0.000000 0.500000
v -0.500000 1.800000 0.500000
v -0.500000 0.000000 0.400000
v -0.500000 1.800000 0.400000
v -0.400000 0.000000 0.500000
v -0.400000 1.800000 0.500000
v -0.400000 0.000000 0.400000
v -0.400000 1.800000 0.400000
v -0.500000 0.000000 -0.400000
v -0.500000 1.800000 -0.400000
v -0.500000 0.000000 -0.500000
v -0.500000 1.800000 -0.500000
v -0.400000 0.000000 -0.400000
v -0.400000 1.800000 -0.400000
v -0.400000 0.000000 -0.500000
v -0.400000 1.800000 -0.500000
v 0.400000 0.000000 0.500000
v 0.400000 1.800000 0.500000
v 0.400000 0.000000 0.400000
v 0.400000 1.800000 0.400000
v 0.500000 0.000000 0.500000
v 0.500000 1.800000 0.500000
v 0.500000 0.000000 0.400000
v 0.500000 1.800000 0.400000
v 0.400000 0.000000 -0.400000
v 0.400000 1.800000 -0.400000
v 0.400000 0.000000 -0.500000
v 0.400000 1.800000 -0.500000
v 0.500000 0.000000 -0.400000
v 0.500000 1.800000 -0.400000
v 0.500000 0.000000 -0.500000
v 0.500000 1.800000 -0.500000
v -0.450000 0.910000 0.490000
v -0.450000 0.990000 0.490000
v -0.450000 0.910000 0.410000
v -0.450000 0.990000 0.410000
v 0.450000 0.910000 0.490000
v 0.450000 0.990000 0.490000
v 0.450000 0.910000 0.410000
v 0.450000 0.990000 0.410000
v -0.450000 0.910000 -0.410000
v -0.450000 0.990000 -0.410000
v -0.450000 0.910000 -0.490000
v -0.450000 0.990000 -0.490000
v 0.450000 0.910000 -0.410000
v 0.450000 0.990000 -0.410000
v 0.450000 0.910000 -0.490000
v 0.450000 0.990000 -0.490000
v -0.490000 0.510000 0.450000
v -0.490000 0.590000 0.450000
v -0.490000 0.510000 -0.450000
v -0.490000 0.590000 -0.450000
v -0.410000 0.510000 0.450000
v -0.410000 0.590000 0.450000
v -0.410000 0.510000 -0.450000
v -0.410000 0.590000 -0.450000
v 0.410000 0.510000 0.450000
v 0.410000 0.590000 0.450000
v 0.410000 0.510000 -0.450000
v 0.410000 0.590000 -0.450000
v 0.490000 0.510000 0.450000
v 0.490000 0.590000 0.450000
v 0.490000 0.510000 -0.450000
v 0.490000 0.590000 -0.450000
v -0.480000 0.382788 -0.394830
v -0.480000 1.378645 0.440793
v -0.480000 0.421355 -0.440793
v -0.480000 1.417212 0.394831
v -0.420000 0.382788 -0.394830
v -0.420000 1.378645 0.440793
v -0.420000 0.421355 -0.440793
v -0.420000 1.417212 0.394831
v -0.480000 0.421355 0.440793
v -0.480000 1.417212 -0.394830
v -0.480000 0.382788 0.394831
v -0.480000 1.378645 -0.440793
v -0.420000 0.421355 0.440793
v -0.420000 1.417212 -0.394830
v -0.420000 0.382788 0.394831
v -0.420000 1.378645 -0.440793
v 0.575000 -0.005000 0.205000
v 0.575000 1.845000 0.205000
v 0.575000 -0.005000 0.155000
v 0.575000 1.845000 0.155000
v 0.625000 -0.005000 0.205000
v 0.625000 1.845000 0.205000
v 0.625000 -0.005000 0.155000
v 0.625000 1.845000 0.155000
v 0.575000 -0.005000 -0.155000
v 0.575000 1.845000 -0.155000
v 0.575000 -0.005000 -0.205000
v 0.575000 1.845000 -0.205000
v 0.625000 -0.005000 -0.155000
v 0.625000 1.845000 -0.155000
v 0.625000 -0.005000 -0.205000
v 0.625000 1.845000 -0.205000
v 0.575000 0.230000 0.210000
v 0.575000 0.270000 0.210000
v 0.575000 0.230000 -0.210000
v 0.575000 0.270000 -0.210000
v 0.625000 0.230000 0.210000
v 0.625000 0.270000 0.210000
v 0.625000 0.230000 -0.210000
v 0.625000 0.270000 -0.210000
v 0.575000 0.480000 0.210000
v 0.575000 0.520000 0.210000
v 0.575000 0.480000 -0.210000
v 0.575000 0.520000 -0.210000
v 0.625000 0.480000 0.210000
v 0.625000 0.520000 0.210000
v 0.625000 0.480000 -0.210000
v 0.625000 0.520000 -0.210000
v 0.575000 0.730000 0.210000
v 0.575000 0.770000 0.210000
v 0.575000 0.730000 -0.210000
v 0.575000 0.770000 -0.210000
v 0.625000 0.730000 0.210000
v 0.625000 0.770000 0.210000
v 0.625000 0.730000 -0.210000
v 0.625000 0.770000 -0.210000
v 0.575000 0.980000 0.210000
v 0.575000 1.020000 0.210000
v 0.575000 0.980000 -0.210000
v 0.575000 1.020000 -0.210000
v 0.625000 0.980000 0.210000
v 0.625000 1.020000 0.210000
v 0.625000 0.980000 -0.210000
v 0.625000 1.020000 -0.210000
v 0.575000 1.230000 0.210000
v 0.575000 1.270000 0.210000
v 0.575000 1.230000 -0.210000
v 0.575000 1.270000 -0.210000
v 0.625000 1.230000 0.210000
v 0.625000 1.270000 0.210000
v 0.625000 1.230000 -0.210000
v 0.625000 1.270000 -0.210000
v 0.575000 1.480000 0.210000
v 0.575000 1.520000 0.210000
v 0.575000 1.480000 -0.210000
v 0.575000 1.520000 -0.210000
v 0.625000 1.480000 0.210000
v 0.625000 1.520000 0.210000
v 0.625000 1.480000 -0.210000
v 0.625000 1.520000 -0.210000
v 0.575000 1.730000 0.210000
v 0.575000 1.770000 0.210000
v 0.575000 1.730000 -0.210000
v 0.575000 1.770000 -0.210000
v 0.625000 1.730000 0.210000
v 0.625000 1.770000 0.210000
v 0.625000 1.730000 -0.210000
v 0.625000 1.770000 -0.210000
v -0.600000 1.790000 0.600000
v -0.600000 1.910000 0.600000
v -0.600000 1.790000 -0.600000
v -0.600000 1.910000 -0.600000
v 0.600000 1.790000 0.600000
v 0.600000 1.910000 0.600000
v 0.600000 1.790000 -0.600000
v 0.600000 1.910000 -0.600000
v -0.540000 1.875000 0.540000
v -0.540000 2.325000 0.540000
v -0.540000 1.875000 0.460000
v -0.540000 2.325000 0.460000
v -0.460000 1.875000 0.540000
v -0.460000 2.325000 0.540000
v -0.460000 1.875000 0.460000
v -0.460000 2.325000 0.460000
v -0.540000 1.875000 -0.460000
v -0.540000 2.325000 -0.460000
v -0.540000 1.875000 -0.540000
v -0.540000 2.325000 -0.540000
v -0.460000 1.875000 -0.460000
v -0.460000 2.325000 -0.460000
v -0.460000 1.875000 -0.540000
v -0.460000 2.325000 -0.540000
v 0.460000 1.875000 0.540000
v 0.460000 2.325000 0.540000
v 0.460000 1.875000 0.460000
v 0.460000 2.325000 0.460000
v 0.540000 1.875000 0.540000
v 0.540000 2.325000 0.540000
v 0.540000 1.875000 0.460000
v 0.540000 2.325000 0.460000
v 0.460000 1.875000 -0.460000
v 0.460000 2.325000 -0.460000
v 0.460000 1.875000 -0.540000
v 0.460000 2.325000 -0.540000
v 0.540000 1.875000 -0.460000
v 0.540000 2.325000 -0.460000
v 0.540000 1.875000 -0.540000
v 0.540000 2.325000 -0.540000
v -0.500000 2.025000 0.525000
v -0.500000 2.075000 0.525000
v -0.500000 2.025000 0.475000
v -0.500000 2.075000 0.475000
v 0.500000 2.025000 0.525000
v 0.500000 2.075000 0.525000
v 0.500000 2.025000 0.475000
v 0.500000 2.075000 0.475000
v -0.525000 2.025000 0.500000
v -0.525000 2.075000 0.500000
v -0.525000 2.025000 -0.500000
v -0.525000 2.075000 -0.500000
v -0.475000 2.025000 0.500000
v -0.475000 2.075000 0.500000
v -0.475000 2.025000 -0.500000
v -0.475000 2.075000 -0.500000
v -0.500000 2.025000 -0.475000
v -0.500000 2.075000 -0.475000
v -0.500000 2.025000 -0.525000
v -0.500000 2.075000 -0.525000
v 0.500000 2.025000 -0.475000
v 0.500000 2.075000 -0.475000
v 0.500000 2.025000 -0.525000
v 0.500000 2.075000 -0.525000
v 0.475000 2.025000 0.500000
v 0.475000 2.075000 0.500000
v 0.475000 2.025000 -0.500000
v 0.475000 2.075000 -0.500000
v 0.525000 2.025000 0.500000
v 0.525000 2.075000 0.500000
v 0.525000 2.025000 -0.500000
v 0.525000 2.075000 -0.500000
v -0.000000 1.910000 -0.200000
v -0.000000 2.090000 -0.200000
v 0.141421 1.910000 -0.141421
v 0.141421 2.090000 -0.141421
v 0.200000 1.910000 0.000000
v 0.200000 2.090000 0.000000
v 0.141421 1.910000 0.141421
v 0.141421 2.090000 0.141421
v -0.000000 1.910000 0.200000
v -0.000000 2.090000 0.200000
v -0.141421 1.910000 0.141421
v -0.141421 2.090000 0.141421
v -0.200000 1.910000 0.000000
v -0.200000 2.090000 0.000000
v -0.141421 1.910000 -0.141421
v -0.141421 2.090000 -0.141421
v -0.000000 2.060000 -0.180000
v 0.155885 2.060000 -0.090000
v 0.155885 2.060000 0.090000
v -0.000000 2.060000 0.180000
v -0.155885 2.060000 0.090000
v -0.155885 2.060000 -0.090000
v -0.000000 2.380000 0.000000
v 0.040000 2.180000 -0.100000
v 0.135106 2.180000 -0.030902
v 0.098778 2.180000 0.080902
v -0.018779 2.180000 0.080902
v -0.055106 2.180000 -0.030902
v 0.040000 2.380000 0.000000
v -0.370000 1.925000 0.370000
v -0.370000 2.775000 0.370000
v -0.370000 1.925000 0.310000
v -0.370000 2.775000 0.310000
v -0.310000 1.925000 0.370000
v -0.310000 2.775000 0.370000
v -0.310000 1.925000 0.310000
v -0.310000 2.775000 0.310000
v -0.370000 1.925000 -0.310000
v -0.370000 2.775000 -0.310000
v -0.370000 1.925000 -0.370000
v -0.370000 2.775000 -0.370000
v -0.310000 1.925000 -0.310000
v -0.310000 2.775000 -0.310000
v -0.310000 1.925000 -0.370000
v -0.310000 2.775000 -0.370000
v 0.310000 1.925000 0.370000
v 0.310000 2.775000 0.370000
v 0.310000 1.925000 0.310000
v 0.310000 2.775000 0.310000
v 0.370000 1.925000 0.370000
v 0.370000 2.775000 0.370000
v 0.370000 1.925000 0.310000
v 0.370000 2.775000 0.310000
v 0.310000 1.925000 -0.310000
v 0.310000 2.775000 -0.310000
v 0.310000 1.925000 -0.370000
v 0.310000 2.775000 -0.370000
v 0.370000 1.925000 -0.310000
v 0.370000 2.775000 -0.310000
v 0.370000 1.925000 -0.370000
v 0.370000 2.775000 -0.370000
v -0.450000 2.755000 0.450000
v -0.450000 2.805000 0.450000
v -0.450000 2.755000 -0.450000
v -0.450000 2.805000 -0.450000
v 0.450000 2.755000 0.450000
v 0.450000 2.805000 0.450000
v 0.450000 2.755000 -0.450000
v 0.450000 2.805000 -0.450000
v -0.438406 2.790000 -0.438406
v 0.438406 2.790000 -0.438406
v 0.438406 2.790000 0.438406
v -0.438406 2.790000 0.438406
v -0.000000 3.210000 0.000000
v 0.325000 2.530000 0.355000
v 0.325000 2.710000 0.355000
v 0.325000 2.530000 0.325000
v 0.325000 2.710000 0.325000
v 0.355000 2.530000 0.355000
v 0.355000 2.710000 0.355000
v 0.355000 2.530000 0.325000
v 0.355000 2.710000 0.325000
v 0.280000 2.380000 0.400000
v 0.280000 2.540000 0.400000
v 0.280000 2.380000 0.280000
v 0.280000 2.540000 0.280000
v 0.400000 2.380000 0.400000
v 0.400000 2.540000 0.400000
v 0.400000 2.380000 0.280000
v 0.400000 2.540000 0.280000
v 0.305000 2.410000 0.375000
v 0.305000 2.510000 0.375000
v 0.305000 2.410000 0.305000
v 0.305000 2.510000 0.305000
v 0.375000 2.410000 0.375000
v 0.375000 2.510000 0.375000
v 0.375000 2.410000 0.305000
v 0.375000 2.510000 0.305000
v -0.500000 2.350000 0.500000
v -0.420404 2.410807 0.557829
v -0.530402 2.410807 0.593570
v -0.598387 2.410807 0.500000
v -0.530402 2.410807 0.406430
v -0.420404 2.410807 0.442171
v -0.469598 2.509194 0.593570
v -0.579596 2.509194 0.557829
v -0.579596 2.509194 0.442171
v -0.469598 2.509194 0.406430
v -0.401613 2.509194 0.500000
v -0.500000 2.570000 0.500000
v -0.582500 2.336250 0.582500
v -0.582500 2.462750 0.582500
v -0.582500 2.336250 0.472500
v -0.582500 2.462750 0.472500
v -0.417500 2.336250 0.582500
v -0.417500 2.462750 0.582500
v -0.417500 2.336250 0.472500
v -0.417500 2.462750 0.472500
v -0.566000 2.317000 0.590750
v -0.566000 2.372000 0.590750
v -0.566000 2.317000 0.497250
v -0.566000 2.372000 0.497250
v -0.434000 2.317000 0.590750
v -0.434000 2.372000 0.590750
v -0.434000 2.317000 0.497250
v -0.434000 2.372000 0.497250
v -0.569300 2.407200 0.608900
v -0.569300 2.451200 0.608900
v -0.569300 2.407200 0.562700
v -0.569300 2.451200 0.562700
v -0.523100 2.407200 0.608900
v -0.523100 2.451200 0.608900
v -0.523100 2.407200 0.562700
v -0.523100 2.451200 0.562700
v -0.476900 2.407200 0.608900
v -0.476900 2.451200 0.608900
v -0.476900 2.407200 0.562700
v -0.476900 2.451200 0.562700
v -0.430700 2.407200 0.608900
v -0.430700 2.451200 0.608900
v -0.430700 2.407200 0.562700
v -0.430700 2.451200 0.562700
v -0.513200 2.369800 0.608900
v -0.513200 2.405000 0.608900
v -0.513200 2.369800 0.571500
v -0.513200 2.405000 0.571500
v -0.486800 2.369800 0.608900
v -0.486800 2.405000 0.608900
v -0.486800 2.369800 0.571500
v -0.486800 2.405000 0.571500
v -0.552250 2.322500 0.599000
v -0.552250 2.366500 0.599000
v -0.552250 2.322500 0.577000
v -0.552250 2.366500 0.577000
v -0.546750 2.322500 0.599000
v -0.546750 2.366500 0.599000
v -0.546750 2.322500 0.577000
v -0.546750 2.366500 0.577000
v -0.519250 2.322500 0.599000
v -0.519250 2.366500 0.599000
v -0.519250 2.322500 0.577000
v -0.519250 2.366500 0.577000
v -0.513750 2.322500 0.599000
v -0.513750 2.366500 0.599000
v -0.513750 2.322500 0.577000
v -0.513750 2.366500 0.577000
v -0.486250 2.322500 0.599000
v -0.486250 2.366500 0.599000
v -0.486250 2.322500 0.577000
v -0.486250 2.366500 0.577000
v -0.480750 2.322500 0.599000
v -0.480750 2.366500 0.599000
v -0.480750 2.322500 0.577000
v -0.480750 2.366500 0.577000
v -0.453250 2.322500 0.599000
v -0.453250 2.366500 0.599000
v -0.453250 2.322500 0.577000
v -0.453250 2.366500 0.577000
v -0.447750 2.322500 0.599000
v -0.447750 2.366500 0.599000
v -0.447750 2.322500 0.577000
v -0.447750 2.366500 0.577000
v -0.460000 2.275000 0.525000
v -0.460000 2.325000 0.525000
v -0.460000 2.275000 0.475000
v -0.460000 2.325000 0.475000
v 0.460000 2.275000 0.525000
v 0.460000 2.325000 0.525000
v 0.460000 2.275000 0.475000
v 0.460000 2.325000 0.475000
v -0.400000 1.225000 0.570000
v -0.400000 2.275000 0.570000
v -0.400000 1.225000 0.550000
v -0.400000 2.275000 0.550000
v 0.400000 1.225000 0.570000
v 0.400000 2.275000 0.570000
v 0.400000 1.225000 0.550000
v 0.400000 2.275000 0.550000
v -0.380000 1.030000 0.570000
v -0.380000 1.230000 0.570000
v -0.380000 1.030000 0.550000
v -0.380000 1.230000 0.550000
v -0.220000 1.030000 0.570000
v -0.220000 1.230000 0.570000
v -0.220000 1.030000 0.550000
v -0.220000 1.230000 0.550000
v -0.180000 1.030000 0.570000
v -0.180000 1.230000 0.570000
v -0.180000 1.030000 0.550000
v -0.180000 1.230000 0.550000
v -0.020000 1.030000 0.570000
v -0.020000 1.230000 0.570000
v -0.020000 1.030000 0.550000
v -0.020000 1.230000 0.550000
v 0.020000 1.030000 0.570000
v 0.020000 1.230000 0.570000
v 0.020000 1.030000 0.550000
v 0.020000 1.230000 0.550000
v 0.180000 1.030000 0.570000
v 0.180000 1.230000 0.570000
v 0.180000 1.030000 0.550000
v 0.180000 1.230000 0.550000
v 0.220000 1.030000 0.570000
v 0.220000 1.230000 0.570000
v 0.220000 1.030000 0.550000
v 0.220000 1.230000 0.550000
v 0.380000 1.030000 0.570000
v 0.380000 1.230000 0.570000
v 0.380000 1.030000 0.550000
v 0.380000 1.230000 0.550000
v -0.120000 1.290000 0.590000
v -0.120000 1.370000 0.590000
v -0.120000 1.290000 0.570000
v -0.120000 1.370000 0.570000
v -0.000000 1.290000 0.590000
v -0.000000 1.370000 0.590000
v -0.000000 1.290000 0.570000
v -0.000000 1.370000 0.570000
v -0.160000 1.360000 0.590000
v -0.160000 1.440000 0.590000
v -0.160000 1.360000 0.570000
v -0.160000 1.440000 0.570000
v 0.040000 1.360000 0.590000
v 0.040000 1.440000 0.590000
v 0.040000 1.360000 0.570000
v 0.040000 1.440000 0.570000
v -0.180000 1.430000 0.590000
v -0.180000 1.510000 0.590000
v -0.180000 1.430000 0.570000
v -0.180000 1.510000 0.570000
v 0.060000 1.430000 0.590000
v 0.060000 1.510000 0.590000
v 0.060000 1.430000 0.570000
v 0.060000 1.510000 0.570000
v -0.170000 1.500000 0.590000
v -0.170000 1.580000 0.590000
v -0.170000 1.500000 0.570000
v -0.170000 1.580000 0.570000
v 0.050000 1.500000 0.590000
v 0.050000 1.580000 0.590000
v 0.050000 1.500000 0.570000
v 0.050000 1.580000 0.570000
v -0.100000 1.570000 0.590000
v -0.100000 1.650000 0.590000
v -0.100000 1.570000 0.570000
v -0.100000 1.650000 0.570000
v 0.060000 1.570000 0.590000
v 0.060000 1.650000 0.590000
v 0.060000 1.570000 0.570000
v 0.060000 1.650000 0.570000
v -0.030000 1.640000 0.590000
v -0.030000 1.720000 0.590000
v -0.030000 1.640000 0.570000
v -0.030000 1.720000 0.570000
v 0.070000 1.640000 0.590000
v 0.070000 1.720000 0.590000
v 0.070000 1.640000 0.570000
v 0.070000 1.720000 0.570000
v 0.035000 1.710000 0.590000
v 0.035000 1.790000 0.590000
v 0.035000 1.710000 0.570000
v 0.035000 1.790000 0.570000
v 0.085000 1.710000 0.590000
v 0.085000 1.790000 0.590000
v 0.085000 1.710000 0.570000
v 0.085000 1.790000 0.570000
v 0.140000 1.370000 0.590000
v 0.140000 1.450000 0.590000
v 0.140000 1.370000 0.570000
v 0.140000 1.450000 0.570000
v 0.220000 1.370000 0.590000
v 0.220000 1.450000 0.590000
v 0.220000 1.370000 0.570000
v 0.220000 1.450000 0.570000
v -0.120000 1.290000 0.550000
v -0.120000 1.370000 0.550000
v -0.120000 1.290000 0.530000
v -0.120000 1.370000 0.530000
v -0.000000 1.290000 0.550000
v -0.000000 1.370000 0.550000
v -0.000000 1.290000 0.530000
v -0.000000 1.370000 0.530000
v -0.160000 1.360000 0.550000
v -0.160000 1.440000 0.550000
v -0.160000 1.360000 0.530000
v -0.160000 1.440000 0.530000
v 0.040000 1.360000 0.550000
v 0.040000 1.440000 0.550000
v 0.040000 1.360000 0.530000
v 0.040000 1.440000 0.530000
v -0.180000 1.430000 0.550000
v -0.180000 1.510000 0.550000
v -0.180000 1.430000 0.530000
v -0.180000 1.510000 0.530000
v 0.060000 1.430000 0.550000
v 0.060000 1.510000 0.550000
v 0.060000 1.430000 0.530000
v 0.060000 1.510000 0.530000
v -0.170000 1.500000 0.550000
v -0.170000 1.580000 0.550000
v -0.170000 1.500000 0.530000
v -0.170000 1.580000 0.530000
v 0.050000 1.500000 0.550000
v 0.050000 1.580000 0.550000
v 0.050000 1.500000 0.530000
v 0.050000 1.580000 0.530000
v -0.100000 1.570000 0.550000
v -0.100000 1.650000 0.550000
v -0.100000 1.570000 0.530000
v -0.100000 1.650000 0.530000
v 0.060000 1.570000 0.550000
v 0.060000 1.650000 0.550000
v 0.060000 1.570000 0.530000
v 0.060000 1.650000 0.530000
v -0.030000 1.640000 0.550000
v -0.030000 1.720000 0.550000
v -0.030000 1.640000 0.530000
v -0.030000 1.720000 0.530000
v 0.070000 1.640000 0.550000
v 0.070000 1.720000 0.550000
v 0.070000 1.640000 0.530000
v 0.070000 1.720000 0.530000
v 0.035000 1.710000 0.550000
v 0.035000 1.790000 0.550000
v 0.035000 1.710000 0.530000
v 0.035000 1.790000 0.530000
v 0.085000 1.710000 0.550000
v 0.085000 1.790000 0.550000
v 0.085000 1.710000 0.530000
v 0.085000 1.790000 0.530000
v 0.140000 1.370000 0.550000
v 0.140000 1.450000 0.550000
v 0.140000 1.370000 0.530000
v 0.140000 1.450000 0.530000
v 0.220000 1.370000 0.550000
v 0.220000 1.450000 0.550000
v 0.220000 1.370000 0.530000
v 0.220000 1.450000 0.530000
vn -1.0000 -0.0000 -0.0000
vn -0.0000 -0.0000 -1.0000
vn 1.0000 -0.0000 -0.0000
vn -0.0000 -0.0000 1.0000
vn -0.0000 -1.0000 -0.0000
vn -0.0000 1.0000 -0.0000
vn -0.0000 0.6428 -0.7660
vn -0.0000 -0.6428 0.7660
vn -0.0000 -0.7660 -0.6428
vn -0.0000 0.7660 0.6428
vn -0.0000 -0.6428 -0.7660
vn -0.0000 0.6428 0.7660
vn -0.0000 -0.7660 0.6428
vn -0.0000 0.7660 -0.6428
vn 0.3827 -0.0000 -0.9239
vn 0.9239 -0.0000 -0.3827
vn 0.9239 -0.0000 0.3827
vn 0.3827 -0.0000 0.9239
vn -0.3827 -0.0000 0.9239
vn -0.9239 -0.0000 0.3827
vn -0.9239 -0.0000 -0.3827
vn -0.3827 -0.0000 -0.9239
vn 0.4495 0.4379 -0.7786
vn 0.8990 0.4379 -0.0000
vn 0.4495 0.4379 0.7786
vn -0.4495 0.4379 0.7786
vn -0.8990 0.4379 -0.0000
vn -0.4495 0.4379 -0.7786
vn 0.5449 0.3750 -0.7500
vn 0.8817 0.3750 0.2865
vn -0.0000 0.3750 0.9270
vn -0.8817 0.3750 0.2865
vn -0.5449 0.3750 -0.7500
vn -0.0000 0.7221 -0.6918
vn 0.6918 0.7221 -0.0000
vn -0.0000 0.7221 0.6918
vn -0.6918 0.7221 -0.0000
vn 0.1876 -0.7947 0.5774
vn 0.6071 -0.7947 -0.0000
vn -0.4911 -0.7947 0.3568
vn -0.4911 -0.7947 -0.3568
vn 0.1876 -0.7947 -0.5774
vn 0.9822 -0.1876 -0.0000
vn 0.3035 -0.1876 0.9342
vn -0.7946 -0.1876 0.5774
vn -0.7946 -0.1876 -0.5774
vn 0.3035 -0.1876 -0.9342
vn 0.7946 0.1876 0.5774
vn -0.3035 0.1876 0.9342
vn -0.9822 0.1876 -0.0000
vn -0.3035 0.1876 -0.9342
vn 0.7946 0.1876 -0.5774
vn 0.4911 0.7947 0.3568
vn -0.1876 0.7947 0.5774
vn -0.6071 0.7947 -0.0000
vn -0.1876 0.7947 -0.5774
vn 0.4911 0.7947 -0.3568
vt 0.375000 0.000000
vt 0.625000 0.000000
vt 0.625000 0.250000
vt 0.375000 0.250000
vt 0.625000 0.500000
vt 0.375000 0.500000
vt 0.625000 0.750000
vt 0.375000 0.750000
vt 0.625000 1.000000
vt 0.375000 1.000000
vt 0.125000 0.500000
vt 0.125000 0.750000
vt 0.875000 0.500000
vt 0.875000 0.750000
vt 1.000000 0.500000
vt 1.000000 1.000000
vt 0.875000 1.000000
vt 0.750000 1.000000
vt 0.750000 0.500000
vt 0.500000 1.000000
vt 0.500000 0.500000
vt 0.250000 1.000000
vt 0.250000 0.500000
vt 0.419706 0.419706
vt 0.250000 0.490000
vt 0.080294 0.419706
vt 0.010000 0.250000
vt 0.080294 0.080294
vt 0.250000 0.010000
vt 0.419706 0.080294
vt 0.490000 0.250000
vt 0.125000 1.000000
vt 0.000000 1.000000
vt 0.000000 0.500000
vt 0.750000 0.490000
vt 0.919706 0.419706
vt 0.990000 0.250000
vt 0.919706 0.080294
vt 0.750000 0.010000
vt 0.580294 0.080294
vt 0.510000 0.250000
vt 0.580294 0.419706
vt 0.250000 0.250000
vt 0.457846 0.370000
vt 0.457846 0.130000
vt 0.042154 0.130000
vt 0.957846 0.370000
vt 0.957846 0.130000
vt 0.542154 0.130000
vt 0.542154 0.370000
vt 0.042154 0.370000
vt 0.478254 0.324164
vt 0.391068 0.055836
vt 0.108932 0.055836
vt 0.978254 0.324164
vt 0.891068 0.055836
vt 0.608932 0.055836
vt 0.521746 0.324164
vt 0.021746 0.324164
vt 0.181819 0.000000
vt 0.272728 0.157461
vt 0.090910 0.157461
vt 0.363637 0.000000
vt 0.454546 0.157461
vt 0.909091 0.000000
vt 1.000000 0.157461
vt 0.818182 0.157461
vt 0.727273 0.000000
vt 0.636364 0.157461
vt 0.545455 0.000000
vt 0.363637 0.314921
vt 0.181819 0.314921
vt 0.909091 0.314921
vt 0.727273 0.314921
vt 0.545455 0.314921
vt 0.000000 0.314921
vt 0.272728 0.472382
vt 0.090910 0.472382
vt 0.818182 0.472382
vt 0.636364 0.472382
vt 0.454546 0.472382
s 0
usemtl charwood
f 1/1/1 2/2/1 4/3/1 3/4/1
f 3/4/2 4/3/2 8/5/2 7/6/2
f 7/6/3 8/5/3 6/7/3 5/8/3
f 5/8/4 6/7/4 2/9/4 1/10/4
f 3/11/5 7/6/5 5/8/5 1/12/5
f 8/5/6 4/13/6 2/14/6 6/7/6
f 9/1/1 10/2/1 12/3/1 11/4/1
f 11/4/2 12/3/2 16/5/2 15/6/2
f 15/6/3 16/5/3 14/7/3 13/8/3
f 13/8/4 14/7/4 10/9/4 9/10/4
f 11/11/5 15/6/5 13/8/5 9/12/5
f 16/5/6 12/13/6 10/14/6 14/7/6
f 17/1/1 18/2/1 20/3/1 19/4/1
f 19/4/2 20/3/2 24/5/2 23/6/2
f 23/6/3 24/5/3 22/7/3 21/8/3
f 21/8/4 22/7/4 18/9/4 17/10/4
f 19/11/5 23/6/5 21/8/5 17/12/5
f 24/5/6 20/13/6 18/14/6 22/7/6
f 25/1/1 26/2/1 28/3/1 27/4/1
f 27/4/2 28/3/2 32/5/2 31/6/2
f 31/6/3 32/5/3 30/7/3 29/8/3
f 29/8/4 30/7/4 26/9/4 25/10/4
f 27/11/5 31/6/5 29/8/5 25/12/5
f 32/5/6 28/13/6 26/14/6 30/7/6
f 153/1/1 154/2/1 156/3/1 155/4/1
f 155/4/2 156/3/2 160/5/2 159/6/2
f 159/6/3 160/5/3 158/7/3 157/8/3
f 157/8/4 158/7/4 154/9/4 153/10/4
f 155/11/5 159/6/5 157/8/5 153/12/5
f 160/5/6 156/13/6 154/14/6 158/7/6
usemtl wood_dk
f 33/1/1 34/2/1 36/3/1 35/4/1
f 35/4/2 36/3/2 40/5/2 39/6/2
f 39/6/3 40/5/3 38/7/3 37/8/3
f 37/8/4 38/7/4 34/9/4 33/10/4
f 35/11/5 39/6/5 37/8/5 33/12/5
f 40/5/6 36/13/6 34/14/6 38/7/6
f 41/1/1 42/2/1 44/3/1 43/4/1
f 43/4/2 44/3/2 48/5/2 47/6/2
f 47/6/3 48/5/3 46/7/3 45/8/3
f 45/8/4 46/7/4 42/9/4 41/10/4
f 43/11/5 47/6/5 45/8/5 41/12/5
f 48/5/6 44/13/6 42/14/6 46/7/6
f 49/1/1 50/2/1 52/3/1 51/4/1
f 51/4/2 52/3/2 56/5/2 55/6/2
f 55/6/3 56/5/3 54/7/3 53/8/3
f 53/8/4 54/7/4 50/9/4 49/10/4
f 51/11/5 55/6/5 53/8/5 49/12/5
f 56/5/6 52/13/6 50/14/6 54/7/6
f 57/1/1 58/2/1 60/3/1 59/4/1
f 59/4/2 60/3/2 64/5/2 63/6/2
f 63/6/3 64/5/3 62/7/3 61/8/3
f 61/8/4 62/7/4 58/9/4 57/10/4
f 59/11/5 63/6/5 61/8/5 57/12/5
f 64/5/6 60/13/6 58/14/6 62/7/6
f 65/1/1 66/2/1 68/3/1 67/4/1
f 67/4/7 68/3/7 72/5/7 71/6/7
f 71/6/3 72/5/3 70/7/3 69/8/3
f 69/8/8 70/7/8 66/9/8 65/10/8
f 67/11/9 71/6/9 69/8/9 65/12/9
f 72/5/10 68/13/10 66/14/10 70/7/10
f 73/1/1 74/2/1 76/3/1 75/4/1
f 75/4/11 76/3/11 80/5/11 79/6/11
f 79/6/3 80/5/3 78/7/3 77/8/3
f 77/8/12 78/7/12 74/9/12 73/10/12
f 75/11/13 79/6/13 77/8/13 73/12/13
f 80/5/14 76/13/14 74/14/14 78/7/14
f 81/1/1 82/2/1 84/3/1 83/4/1
f 83/4/2 84/3/2 88/5/2 87/6/2
f 87/6/3 88/5/3 86/7/3 85/8/3
f 85/8/4 86/7/4 82/9/4 81/10/4
f 83/11/5 87/6/5 85/8/5 81/12/5
f 88/5/6 84/13/6 82/14/6 86/7/6
f 89/1/1 90/2/1 92/3/1 91/4/1
f 91/4/2 92/3/2 96/5/2 95/6/2
f 95/6/3 96/5/3 94/7/3 93/8/3
f 93/8/4 94/7/4 90/9/4 89/10/4
f 91/11/5 95/6/5 93/8/5 89/12/5
f 96/5/6 92/13/6 90/14/6 94/7/6
f 97/1/1 98/2/1 100/3/1 99/4/1
f 99/4/2 100/3/2 104/5/2 103/6/2
f 103/6/3 104/5/3 102/7/3 101/8/3
f 101/8/4 102/7/4 98/9/4 97/10/4
f 99/11/5 103/6/5 101/8/5 97/12/5
f 104/5/6 100/13/6 98/14/6 102/7/6
f 105/1/1 106/2/1 108/3/1 107/4/1
f 107/4/2 108/3/2 112/5/2 111/6/2
f 111/6/3 112/5/3 110/7/3 109/8/3
f 109/8/4 110/7/4 106/9/4 105/10/4
f 107/11/5 111/6/5 109/8/5 105/12/5
f 112/5/6 108/13/6 106/14/6 110/7/6
f 113/1/1 114/2/1 116/3/1 115/4/1
f 115/4/2 116/3/2 120/5/2 119/6/2
f 119/6/3 120/5/3 118/7/3 117/8/3
f 117/8/4 118/7/4 114/9/4 113/10/4
f 115/11/5 119/6/5 117/8/5 113/12/5
f 120/5/6 116/13/6 114/14/6 118/7/6
f 121/1/1 122/2/1 124/3/1 123/4/1
f 123/4/2 124/3/2 128/5/2 127/6/2
f 127/6/3 128/5/3 126/7/3 125/8/3
f 125/8/4 126/7/4 122/9/4 121/10/4
f 123/11/5 127/6/5 125/8/5 121/12/5
f 128/5/6 124/13/6 122/14/6 126/7/6
f 129/1/1 130/2/1 132/3/1 131/4/1
f 131/4/2 132/3/2 136/5/2 135/6/2
f 135/6/3 136/5/3 134/7/3 133/8/3
f 133/8/4 134/7/4 130/9/4 129/10/4
f 131/11/5 135/6/5 133/8/5 129/12/5
f 136/5/6 132/13/6 130/14/6 134/7/6
f 137/1/1 138/2/1 140/3/1 139/4/1
f 139/4/2 140/3/2 144/5/2 143/6/2
f 143/6/3 144/5/3 142/7/3 141/8/3
f 141/8/4 142/7/4 138/9/4 137/10/4
f 139/11/5 143/6/5 141/8/5 137/12/5
f 144/5/6 140/13/6 138/14/6 142/7/6
f 145/1/1 146/2/1 148/3/1 147/4/1
f 147/4/2 148/3/2 152/5/2 151/6/2
f 151/6/3 152/5/3 150/7/3 149/8/3
f 149/8/4 150/7/4 146/9/4 145/10/4
f 147/11/5 151/6/5 149/8/5 145/12/5
f 152/5/6 148/13/6 146/14/6 150/7/6
f 161/1/1 162/2/1 164/3/1 163/4/1
f 163/4/2 164/3/2 168/5/2 167/6/2
f 167/6/3 168/5/3 166/7/3 165/8/3
f 165/8/4 166/7/4 162/9/4 161/10/4
f 163/11/5 167/6/5 165/8/5 161/12/5
f 168/5/6 164/13/6 162/14/6 166/7/6
f 169/1/1 170/2/1 172/3/1 171/4/1
f 171/4/2 172/3/2 176/5/2 175/6/2
f 175/6/3 176/5/3 174/7/3 173/8/3
f 173/8/4 174/7/4 170/9/4 169/10/4
f 171/11/5 175/6/5 173/8/5 169/12/5
f 176/5/6 172/13/6 170/14/6 174/7/6
f 177/1/1 178/2/1 180/3/1 179/4/1
f 179/4/2 180/3/2 184/5/2 183/6/2
f 183/6/3 184/5/3 182/7/3 181/8/3
f 181/8/4 182/7/4 178/9/4 177/10/4
f 179/11/5 183/6/5 181/8/5 177/12/5
f 184/5/6 180/13/6 178/14/6 182/7/6
f 185/1/1 186/2/1 188/3/1 187/4/1
f 187/4/2 188/3/2 192/5/2 191/6/2
f 191/6/3 192/5/3 190/7/3 189/8/3
f 189/8/4 190/7/4 186/9/4 185/10/4
f 187/11/5 191/6/5 189/8/5 185/12/5
f 192/5/6 188/13/6 186/14/6 190/7/6
f 193/1/1 194/2/1 196/3/1 195/4/1
f 195/4/2 196/3/2 200/5/2 199/6/2
f 199/6/3 200/5/3 198/7/3 197/8/3
f 197/8/4 198/7/4 194/9/4 193/10/4
f 195/11/5 199/6/5 197/8/5 193/12/5
f 200/5/6 196/13/6 194/14/6 198/7/6
f 201/1/1 202/2/1 204/3/1 203/4/1
f 203/4/2 204/3/2 208/5/2 207/6/2
f 207/6/3 208/5/3 206/7/3 205/8/3
f 205/8/4 206/7/4 202/9/4 201/10/4
f 203/11/5 207/6/5 205/8/5 201/12/5
f 208/5/6 204/13/6 202/14/6 206/7/6
f 209/1/1 210/2/1 212/3/1 211/4/1
f 211/4/2 212/3/2 216/5/2 215/6/2
f 215/6/3 216/5/3 214/7/3 213/8/3
f 213/8/4 214/7/4 210/9/4 209/10/4
f 211/11/5 215/6/5 213/8/5 209/12/5
f 216/5/6 212/13/6 210/14/6 214/7/6
f 217/1/1 218/2/1 220/3/1 219/4/1
f 219/4/2 220/3/2 224/5/2 223/6/2
f 223/6/3 224/5/3 222/7/3 221/8/3
f 221/8/4 222/7/4 218/9/4 217/10/4
f 219/11/5 223/6/5 221/8/5 217/12/5
f 224/5/6 220/13/6 218/14/6 222/7/6
f 254/1/1 255/2/1 257/3/1 256/4/1
f 256/4/2 257/3/2 261/5/2 260/6/2
f 260/6/3 261/5/3 259/7/3 258/8/3
f 258/8/4 259/7/4 255/9/4 254/10/4
f 256/11/5 260/6/5 258/8/5 254/12/5
f 261/5/6 257/13/6 255/14/6 259/7/6
f 262/1/1 263/2/1 265/3/1 264/4/1
f 264/4/2 265/3/2 269/5/2 268/6/2
f 268/6/3 269/5/3 267/7/3 266/8/3
f 266/8/4 267/7/4 263/9/4 262/10/4
f 264/11/5 268/6/5 266/8/5 262/12/5
f 269/5/6 265/13/6 263/14/6 267/7/6
f 270/1/1 271/2/1 273/3/1 272/4/1
f 272/4/2 273/3/2 277/5/2 276/6/2
f 276/6/3 277/5/3 275/7/3 274/8/3
f 274/8/4 275/7/4 271/9/4 270/10/4
f 272/11/5 276/6/5 274/8/5 270/12/5
f 277/5/6 273/13/6 271/14/6 275/7/6
f 278/1/1 279/2/1 281/3/1 280/4/1
f 280/4/2 281/3/2 285/5/2 284/6/2
f 284/6/3 285/5/3 283/7/3 282/8/3
f 282/8/4 283/7/4 279/9/4 278/10/4
f 280/11/5 284/6/5 282/8/5 278/12/5
f 285/5/6 281/13/6 279/14/6 283/7/6
f 286/1/1 287/2/1 289/3/1 288/4/1
f 288/4/2 289/3/2 293/5/2 292/6/2
f 292/6/3 293/5/3 291/7/3 290/8/3
f 290/8/4 291/7/4 287/9/4 286/10/4
f 288/11/5 292/6/5 290/8/5 286/12/5
f 293/5/6 289/13/6 287/14/6 291/7/6
f 407/1/1 408/2/1 410/3/1 409/4/1
f 409/4/2 410/3/2 414/5/2 413/6/2
f 413/6/3 414/5/3 412/7/3 411/8/3
f 411/8/4 412/7/4 408/9/4 407/10/4
f 409/11/5 413/6/5 411/8/5 407/12/5
f 414/5/6 410/13/6 408/14/6 412/7/6
usemtl gunmetal
f 225/15/15 226/16/15 228/17/15 227/13/15
f 227/13/16 228/17/16 230/18/16 229/19/16
f 229/19/17 230/18/17 232/9/17 231/5/17
f 231/5/18 232/9/18 234/20/18 233/21/18
f 233/21/19 234/20/19 236/10/19 235/6/19
f 235/6/20 236/10/20 238/22/20 237/23/20
f 228/24/6 226/25/6 240/26/6 238/27/6 236/28/6 234/29/6 232/30/6 230/31/6
f 237/23/21 238/22/21 240/32/21 239/11/21
f 239/11/22 240/32/22 226/33/22 225/34/22
f 225/35/5 227/36/5 229/37/5 231/38/5 233/39/5 235/40/5 237/41/5 239/42/5
usemtl ember
f 241/25/23 247/43/23 242/44/23
f 242/44/24 247/43/24 243/45/24
f 243/45/25 247/43/25 244/29/25
f 244/29/26 247/43/26 245/46/26
f 241/35/5 242/47/5 243/48/5 244/39/5 245/49/5 246/50/5
f 245/46/27 247/43/27 246/51/27
f 246/51/28 247/43/28 241/25/28
usemtl amber
f 248/25/29 253/43/29 249/52/29
f 249/52/30 253/43/30 250/53/30
f 250/53/31 253/43/31 251/54/31
f 248/35/5 249/55/5 250/56/5 251/57/5 252/58/5
f 251/54/32 253/43/32 252/59/32
f 252/59/33 253/43/33 248/25/33
f 315/1/1 316/2/1 318/3/1 317/4/1
f 317/4/2 318/3/2 322/5/2 321/6/2
f 321/6/3 322/5/3 320/7/3 319/8/3
f 319/8/4 320/7/4 316/9/4 315/10/4
f 317/11/5 321/6/5 319/8/5 315/12/5
f 322/5/6 318/13/6 316/14/6 320/7/6
f 351/1/1 352/2/1 354/3/1 353/4/1
f 353/4/2 354/3/2 358/5/2 357/6/2
f 357/6/3 358/5/3 356/7/3 355/8/3
f 355/8/4 356/7/4 352/9/4 351/10/4
f 353/11/5 357/6/5 355/8/5 351/12/5
f 358/5/6 354/13/6 352/14/6 356/7/6
f 359/1/1 360/2/1 362/3/1 361/4/1
f 361/4/2 362/3/2 366/5/2 365/6/2
f 365/6/3 366/5/3 364/7/3 363/8/3
f 363/8/4 364/7/4 360/9/4 359/10/4
f 361/11/5 365/6/5 363/8/5 359/12/5
f 366/5/6 362/13/6 360/14/6 364/7/6
f 455/1/1 456/2/1 458/3/1 457/4/1
f 457/4/2 458/3/2 462/5/2 461/6/2
f 461/6/3 462/5/3 460/7/3 459/8/3
f 459/8/4 460/7/4 456/9/4 455/10/4
f 457/11/5 461/6/5 459/8/5 455/12/5
f 462/5/6 458/13/6 456/14/6 460/7/6
f 463/1/1 464/2/1 466/3/1 465/4/1
f 465/4/2 466/3/2 470/5/2 469/6/2
f 469/6/3 470/5/3 468/7/3 467/8/3
f 467/8/4 468/7/4 464/9/4 463/10/4
f 465/11/5 469/6/5 467/8/5 463/12/5
f 470/5/6 466/13/6 464/14/6 468/7/6
f 471/1/1 472/2/1 474/3/1 473/4/1
f 473/4/2 474/3/2 478/5/2 477/6/2
f 477/6/3 478/5/3 476/7/3 475/8/3
f 475/8/4 476/7/4 472/9/4 471/10/4
f 473/11/5 477/6/5 475/8/5 471/12/5
f 478/5/6 474/13/6 472/14/6 476/7/6
f 479/1/1 480/2/1 482/3/1 481/4/1
f 481/4/2 482/3/2 486/5/2 485/6/2
f 485/6/3 486/5/3 484/7/3 483/8/3
f 483/8/4 484/7/4 480/9/4 479/10/4
f 481/11/5 485/6/5 483/8/5 479/12/5
f 486/5/6 482/13/6 480/14/6 484/7/6
f 487/1/1 488/2/1 490/3/1 489/4/1
f 489/4/2 490/3/2 494/5/2 493/6/2
f 493/6/3 494/5/3 492/7/3 491/8/3
f 491/8/4 492/7/4 488/9/4 487/10/4
f 489/11/5 493/6/5 491/8/5 487/12/5
f 494/5/6 490/13/6 488/14/6 492/7/6
f 495/1/1 496/2/1 498/3/1 497/4/1
f 497/4/2 498/3/2 502/5/2 501/6/2
f 501/6/3 502/5/3 500/7/3 499/8/3
f 499/8/4 500/7/4 496/9/4 495/10/4
f 497/11/5 501/6/5 499/8/5 495/12/5
f 502/5/6 498/13/6 496/14/6 500/7/6
f 503/1/1 504/2/1 506/3/1 505/4/1
f 505/4/2 506/3/2 510/5/2 509/6/2
f 509/6/3 510/5/3 508/7/3 507/8/3
f 507/8/4 508/7/4 504/9/4 503/10/4
f 505/11/5 509/6/5 507/8/5 503/12/5
f 510/5/6 506/13/6 504/14/6 508/7/6
f 511/1/1 512/2/1 514/3/1 513/4/1
f 513/4/2 514/3/2 518/5/2 517/6/2
f 517/6/3 518/5/3 516/7/3 515/8/3
f 515/8/4 516/7/4 512/9/4 511/10/4
f 513/11/5 517/6/5 515/8/5 511/12/5
f 518/5/6 514/13/6 512/14/6 516/7/6
f 519/1/1 520/2/1 522/3/1 521/4/1
f 521/4/2 522/3/2 526/5/2 525/6/2
f 525/6/3 526/5/3 524/7/3 523/8/3
f 523/8/4 524/7/4 520/9/4 519/10/4
f 521/11/5 525/6/5 523/8/5 519/12/5
f 526/5/6 522/13/6 520/14/6 524/7/6
f 527/1/1 528/2/1 530/3/1 529/4/1
f 529/4/2 530/3/2 534/5/2 533/6/2
f 533/6/3 534/5/3 532/7/3 531/8/3
f 531/8/4 532/7/4 528/9/4 527/10/4
f 529/11/5 533/6/5 531/8/5 527/12/5
f 534/5/6 530/13/6 528/14/6 532/7/6
f 535/1/1 536/2/1 538/3/1 537/4/1
f 537/4/2 538/3/2 542/5/2 541/6/2
f 541/6/3 542/5/3 540/7/3 539/8/3
f 539/8/4 540/7/4 536/9/4 535/10/4
f 537/11/5 541/6/5 539/8/5 535/12/5
f 542/5/6 538/13/6 536/14/6 540/7/6
f 543/1/1 544/2/1 546/3/1 545/4/1
f 545/4/2 546/3/2 550/5/2 549/6/2
f 549/6/3 550/5/3 548/7/3 547/8/3
f 547/8/4 548/7/4 544/9/4 543/10/4
f 545/11/5 549/6/5 547/8/5 543/12/5
f 550/5/6 546/13/6 544/14/6 548/7/6
f 551/1/1 552/2/1 554/3/1 553/4/1
f 553/4/2 554/3/2 558/5/2 557/6/2
f 557/6/3 558/5/3 556/7/3 555/8/3
f 555/8/4 556/7/4 552/9/4 551/10/4
f 553/11/5 557/6/5 555/8/5 551/12/5
f 558/5/6 554/13/6 552/14/6 556/7/6
f 559/1/1 560/2/1 562/3/1 561/4/1
f 561/4/2 562/3/2 566/5/2 565/6/2
f 565/6/3 566/5/3 564/7/3 563/8/3
f 563/8/4 564/7/4 560/9/4 559/10/4
f 561/11/5 565/6/5 563/8/5 559/12/5
f 566/5/6 562/13/6 560/14/6 564/7/6
f 567/1/1 568/2/1 570/3/1 569/4/1
f 569/4/2 570/3/2 574/5/2 573/6/2
f 573/6/3 574/5/3 572/7/3 571/8/3
f 571/8/4 572/7/4 568/9/4 567/10/4
f 569/11/5 573/6/5 571/8/5 567/12/5
f 574/5/6 570/13/6 568/14/6 572/7/6
f 575/1/1 576/2/1 578/3/1 577/4/1
f 577/4/2 578/3/2 582/5/2 581/6/2
f 581/6/3 582/5/3 580/7/3 579/8/3
f 579/8/4 580/7/4 576/9/4 575/10/4
f 577/11/5 581/6/5 579/8/5 575/12/5
f 582/5/6 578/13/6 576/14/6 580/7/6
usemtl thatch_dk
f 294/25/34 298/43/34 295/31/34
f 295/31/35 298/43/35 296/29/35
f 294/35/5 295/37/5 296/39/5 297/41/5
f 296/29/36 298/43/36 297/27/36
f 297/27/37 298/43/37 294/25/37
usemtl iron
f 299/1/1 300/2/1 302/3/1 301/4/1
f 301/4/2 302/3/2 306/5/2 305/6/2
f 305/6/3 306/5/3 304/7/3 303/8/3
f 303/8/4 304/7/4 300/9/4 299/10/4
f 301/11/5 305/6/5 303/8/5 299/12/5
f 306/5/6 302/13/6 300/14/6 304/7/6
usemtl soot
f 307/1/1 308/2/1 310/3/1 309/4/1
f 309/4/2 310/3/2 314/5/2 313/6/2
f 313/6/3 314/5/3 312/7/3 311/8/3
f 311/8/4 312/7/4 308/9/4 307/10/4
f 309/11/5 313/6/5 311/8/5 307/12/5
f 314/5/6 310/13/6 308/14/6 312/7/6
f 367/1/1 368/2/1 370/3/1 369/4/1
f 369/4/2 370/3/2 374/5/2 373/6/2
f 373/6/3 374/5/3 372/7/3 371/8/3
f 371/8/4 372/7/4 368/9/4 367/10/4
f 369/11/5 373/6/5 371/8/5 367/12/5
f 374/5/6 370/13/6 368/14/6 372/7/6
f 375/1/1 376/2/1 378/3/1 377/4/1
f 377/4/2 378/3/2 382/5/2 381/6/2
f 381/6/3 382/5/3 380/7/3 379/8/3
f 379/8/4 380/7/4 376/9/4 375/10/4
f 377/11/5 381/6/5 379/8/5 375/12/5
f 382/5/6 378/13/6 376/14/6 380/7/6
f 383/1/1 384/2/1 386/3/1 385/4/1
f 385/4/2 386/3/2 390/5/2 389/6/2
f 389/6/3 390/5/3 388/7/3 387/8/3
f 387/8/4 388/7/4 384/9/4 383/10/4
f 385/11/5 389/6/5 387/8/5 383/12/5
f 390/5/6 386/13/6 384/14/6 388/7/6
f 391/1/1 392/2/1 394/3/1 393/4/1
f 393/4/2 394/3/2 398/5/2 397/6/2
f 397/6/3 398/5/3 396/7/3 395/8/3
f 395/8/4 396/7/4 392/9/4 391/10/4
f 393/11/5 397/6/5 395/8/5 391/12/5
f 398/5/6 394/13/6 392/14/6 396/7/6
f 399/1/1 400/2/1 402/3/1 401/4/1
f 401/4/2 402/3/2 406/5/2 405/6/2
f 405/6/3 406/5/3 404/7/3 403/8/3
f 403/8/4 404/7/4 400/9/4 399/10/4
f 401/11/5 405/6/5 403/8/5 399/12/5
f 406/5/6 402/13/6 400/14/6 404/7/6
usemtl bone
f 323/60/38 324/61/38 325/62/38
f 324/61/39 323/63/39 328/64/39
f 323/65/40 325/66/40 326/67/40
f 323/68/41 326/67/41 327/69/41
f 323/70/42 327/69/42 328/64/42
f 324/61/43 328/64/43 333/71/43
f 325/62/44 324/61/44 329/72/44
f 326/67/45 325/66/45 330/73/45
f 327/69/46 326/67/46 331/74/46
f 328/64/47 327/69/47 332/75/47
f 324/61/48 333/71/48 329/72/48
f 325/62/49 329/72/49 330/76/49
f 326/67/50 330/73/50 331/74/50
f 327/69/51 331/74/51 332/75/51
f 328/64/52 332/75/52 333/71/52
f 329/72/53 333/71/53 334/77/53
f 330/76/54 329/72/54 334/78/54
f 331/74/55 330/73/55 334/79/55
f 332/75/56 331/74/56 334/80/56
f 333/71/57 332/75/57 334/81/57
f 335/1/1 336/2/1 338/3/1 337/4/1
f 337/4/2 338/3/2 342/5/2 341/6/2
f 341/6/3 342/5/3 340/7/3 339/8/3
f 339/8/4 340/7/4 336/9/4 335/10/4
f 337/11/5 341/6/5 339/8/5 335/12/5
f 342/5/6 338/13/6 336/14/6 340/7/6
f 343/1/1 344/2/1 346/3/1 345/4/1
f 345/4/2 346/3/2 350/5/2 349/6/2
f 349/6/3 350/5/3 348/7/3 347/8/3
f 347/8/4 348/7/4 344/9/4 343/10/4
f 345/11/5 349/6/5 347/8/5 343/12/5
f 350/5/6 346/13/6 344/14/6 348/7/6
usemtl blood
f 415/1/1 416/2/1 418/3/1 417/4/1
f 417/4/2 418/3/2 422/5/2 421/6/2
f 421/6/3 422/5/3 420/7/3 419/8/3
f 419/8/4 420/7/4 416/9/4 415/10/4
f 417/11/5 421/6/5 419/8/5 415/12/5
f 422/5/6 418/13/6 416/14/6 420/7/6
f 423/1/1 424/2/1 426/3/1 425/4/1
f 425/4/2 426/3/2 430/5/2 429/6/2
f 429/6/3 430/5/3 428/7/3 427/8/3
f 427/8/4 428/7/4 424/9/4 423/10/4
f 425/11/5 429/6/5 427/8/5 423/12/5
f 430/5/6 426/13/6 424/14/6 428/7/6
f 431/1/1 432/2/1 434/3/1 433/4/1
f 433/4/2 434/3/2 438/5/2 437/6/2
f 437/6/3 438/5/3 436/7/3 435/8/3
f 435/8/4 436/7/4 432/9/4 431/10/4
f 433/11/5 437/6/5 435/8/5 431/12/5
f 438/5/6 434/13/6 432/14/6 436/7/6
f 439/1/1 440/2/1 442/3/1 441/4/1
f 441/4/2 442/3/2 446/5/2 445/6/2
f 445/6/3 446/5/3 444/7/3 443/8/3
f 443/8/4 444/7/4 440/9/4 439/10/4
f 441/11/5 445/6/5 443/8/5 439/12/5
f 446/5/6 442/13/6 440/14/6 444/7/6
f 447/1/1 448/2/1 450/3/1 449/4/1
f 449/4/2 450/3/2 454/5/2 453/6/2
f 453/6/3 454/5/3 452/7/3 451/8/3
f 451/8/4 452/7/4 448/9/4 447/10/4
f 449/11/5 453/6/5 451/8/5 447/12/5
f 454/5/6 450/13/6 448/14/6 452/7/6
