# Blender 5.0.1
# www.blender.org
mtllib well.mtl
o well
v 0.000000 0.000000 -0.500000
v 0.000000 0.500000 -0.500000
v 0.353553 0.000000 -0.353553
v 0.353553 0.500000 -0.353553
v 0.500000 0.000000 0.000000
v 0.500000 0.500000 0.000000
v 0.353553 0.000000 0.353553
v 0.353553 0.500000 0.353553
v 0.000000 0.000000 0.500000
v 0.000000 0.500000 0.500000
v -0.353553 0.000000 0.353553
v -0.353553 0.500000 0.353553
v -0.500000 0.000000 0.000000
v -0.500000 0.500000 0.000000
v -0.353553 0.000000 -0.353553
v -0.353553 0.500000 -0.353553
v 0.000000 0.160000 -0.510000
v 0.000000 0.200000 -0.510000
v 0.360624 0.160000 -0.360624
v 0.360624 0.200000 -0.360624
v 0.510000 0.160000 0.000000
v 0.510000 0.200000 0.000000
v 0.360624 0.160000 0.360624
v 0.360624 0.200000 0.360624
v 0.000000 0.160000 0.510000
v 0.000000 0.200000 0.510000
v -0.360624 0.160000 0.360624
v -0.360624 0.200000 0.360624
v -0.510000 0.160000 0.000000
v -0.510000 0.200000 0.000000
v -0.360624 0.160000 -0.360624
v -0.360624 0.200000 -0.360624
v 0.000000 0.360000 -0.510000
v 0.000000 0.400000 -0.510000
v 0.360624 0.360000 -0.360624
v 0.360624 0.400000 -0.360624
v 0.510000 0.360000 0.000000
v 0.510000 0.400000 0.000000
v 0.360624 0.360000 0.360624
v 0.360624 0.400000 0.360624
v 0.000000 0.360000 0.510000
v 0.000000 0.400000 0.510000
v -0.360624 0.360000 0.360624
v -0.360624 0.400000 0.360624
v -0.510000 0.360000 0.000000
v -0.510000 0.400000 0.000000
v -0.360624 0.360000 -0.360624
v -0.360624 0.400000 -0.360624
v 0.000000 0.490000 -0.530000
v 0.000000 0.550000 -0.530000
v 0.374767 0.490000 -0.374767
v 0.374767 0.550000 -0.374767
v 0.530000 0.490000 0.000000
v 0.530000 0.550000 0.000000
v 0.374767 0.490000 0.374767
v 0.374767 0.550000 0.374767
v 0.000000 0.490000 0.530000
v 0.000000 0.550000 0.530000
v -0.374767 0.490000 0.374767
v -0.374767 0.550000 0.374767
v -0.530000 0.490000 0.000000
v -0.530000 0.550000 0.000000
v -0.374767 0.490000 -0.374767
v -0.374767 0.550000 -0.374767
v 0.000000 0.545000 -0.440000
v 0.000000 0.575000 -0.440000
v 0.220000 0.545000 -0.381051
v 0.220000 0.575000 -0.381051
v 0.381051 0.545000 -0.220000
v 0.381051 0.575000 -0.220000
v 0.440000 0.545000 0.000000
v 0.440000 0.575000 0.000000
v 0.381051 0.545000 0.220000
v 0.381051 0.575000 0.220000
v 0.220000 0.545000 0.381051
v 0.220000 0.575000 0.381051
v 0.000000 0.545000 0.440000
v 0.000000 0.575000 0.440000
v -0.220000 0.545000 0.381051
v -0.220000 0.575000 0.381051
v -0.381051 0.545000 0.220000
v -0.381051 0.575000 0.220000
v -0.440000 0.545000 0.000000
v -0.440000 0.575000 0.000000
v -0.381051 0.545000 -0.220000
v -0.381051 0.575000 -0.220000
v -0.220000 0.545000 -0.381051
v -0.220000 0.575000 -0.381051
v 0.000000 0.555000 -0.300000
v 0.000000 0.605000 -0.300000
v 0.150000 0.555000 -0.259808
v 0.150000 0.605000 -0.259808
v 0.259808 0.555000 -0.150000
v 0.259808 0.605000 -0.150000
v 0.300000 0.555000 0.000000
v 0.300000 0.605000 0.000000
v 0.259808 0.555000 0.150000
v 0.259808 0.605000 0.150000
v 0.150000 0.555000 0.259808
v 0.150000 0.605000 0.259808
v 0.000000 0.555000 0.300000
v 0.000000 0.605000 0.300000
v -0.150000 0.555000 0.259808
v -0.150000 0.605000 0.259808
v -0.259808 0.555000 0.150000
v -0.259808 0.605000 0.150000
v -0.300000 0.555000 0.000000
v -0.300000 0.605000 0.000000
v -0.259808 0.555000 -0.150000
v -0.259808 0.605000 -0.150000
v -0.150000 0.555000 -0.259808
v -0.150000 0.605000 -0.259808
v 0.403025 0.150000 -0.269993
v 0.403025 0.450000 -0.269993
v 0.391553 0.150000 -0.286376
v 0.391553 0.450000 -0.286376
v 0.427599 0.150000 -0.287200
v 0.427599 0.450000 -0.287200
v 0.416128 0.150000 -0.303583
v 0.416128 0.450000 -0.303583
v -0.415022 0.150000 -0.251160
v -0.415022 0.450000 -0.251160
v -0.425022 0.150000 -0.233840
v -0.425022 0.450000 -0.233840
v -0.441003 0.150000 -0.266160
v -0.441003 0.450000 -0.266160
v -0.451003 0.150000 -0.248840
v -0.451003 0.450000 -0.248840
v -0.175277 0.150000 0.452331
v -0.175277 0.450000 0.452331
v -0.156483 0.150000 0.459171
v -0.156483 0.450000 0.459171
v -0.185537 0.150000 0.480522
v -0.185537 0.450000 0.480522
v -0.166743 0.150000 0.487362
v -0.166743 0.450000 0.487362
v 0.492404 -0.040000 -0.086824
v 0.557528 0.009751 -0.039509
v 0.467529 0.009751 -0.010266
v 0.411906 0.009751 -0.086824
v 0.467529 0.009751 -0.163382
v 0.557528 0.009751 -0.134139
v 0.517278 0.090249 -0.010266
v 0.427280 0.090249 -0.039509
v 0.427280 0.090249 -0.134139
v 0.517278 0.090249 -0.163382
v 0.572902 0.090249 -0.086824
v 0.492404 0.140000 -0.086824
v 0.211309 -0.040000 -0.453154
v 0.276433 0.009751 -0.405839
v 0.186434 0.009751 -0.376596
v 0.130811 0.009751 -0.453154
v 0.186434 0.009751 -0.529711
v 0.276433 0.009751 -0.500469
v 0.236184 0.090249 -0.376596
v 0.146185 0.090249 -0.405839
v 0.146185 0.090249 -0.500469
v 0.236184 0.090249 -0.529711
v 0.291807 0.090249 -0.453154
v 0.211309 0.140000 -0.453154
v -0.250000 -0.040000 -0.433013
v -0.184876 0.009751 -0.385698
v -0.274875 0.009751 -0.356455
v -0.330498 0.009751 -0.433013
v -0.274875 0.009751 -0.509570
v -0.184876 0.009751 -0.480327
v -0.225125 0.090249 -0.356455
v -0.315124 0.090249 -0.385698
v -0.315124 0.090249 -0.480327
v -0.225125 0.090249 -0.509570
v -0.169502 0.090249 -0.433013
v -0.250000 0.140000 -0.433013
v -0.498097 -0.040000 -0.043578
v -0.432973 0.009751 0.003737
v -0.522972 0.009751 0.032980
v -0.578596 0.009751 -0.043578
v -0.522972 0.009751 -0.120135
v -0.432973 0.009751 -0.090893
v -0.473223 0.090249 0.032980
v -0.563221 0.090249 0.003737
v -0.563221 0.090249 -0.090893
v -0.473223 0.090249 -0.120135
v -0.417599 0.090249 -0.043578
v -0.498097 0.140000 -0.043578
v -0.321394 -0.040000 0.383022
v -0.256270 0.009751 0.430337
v -0.346268 0.009751 0.459580
v -0.401892 0.009751 0.383022
v -0.346268 0.009751 0.306465
v -0.256270 0.009751 0.335707
v -0.296519 0.090249 0.459580
v -0.386518 0.090249 0.430337
v -0.386518 0.090249 0.335707
v -0.296519 0.090249 0.306465
v -0.240896 0.090249 0.383022
v -0.321394 0.140000 0.383022
v 0.250000 -0.040000 0.433013
v 0.315124 0.009751 0.480327
v 0.225125 0.009751 0.509570
v 0.169502 0.009751 0.433013
v 0.225125 0.009751 0.356455
v 0.315124 0.009751 0.385698
v 0.274875 0.090249 0.509570
v 0.184876 0.090249 0.480327
v 0.184876 0.090249 0.385698
v 0.274875 0.090249 0.356455
v 0.330498 0.090249 0.433013
v 0.250000 0.140000 0.433013
v 0.383022 0.190000 -0.321394
v 0.433674 0.228695 -0.284593
v 0.363675 0.228695 -0.261849
v 0.320412 0.228695 -0.321394
v 0.363675 0.228695 -0.380939
v 0.433674 0.228695 -0.358194
v 0.402369 0.291305 -0.261849
v 0.332370 0.291305 -0.284593
v 0.332370 0.291305 -0.358194
v 0.402369 0.291305 -0.380939
v 0.445632 0.291305 -0.321394
v 0.383022 0.330000 -0.321394
v -0.469846 0.190000 0.171010
v -0.419194 0.228695 0.207810
v -0.489193 0.228695 0.230555
v -0.532456 0.228695 0.171010
v -0.489193 0.228695 0.111465
v -0.419194 0.228695 0.134210
v -0.450499 0.291305 0.230555
v -0.520498 0.291305 0.207810
v -0.520498 0.291305 0.134210
v -0.450499 0.291305 0.111465
v -0.407237 0.291305 0.171010
v -0.469846 0.330000 0.171010
v 0.171010 0.190000 0.469846
v 0.221662 0.228695 0.506647
v 0.151663 0.228695 0.529391
v 0.108400 0.228695 0.469846
v 0.151663 0.228695 0.410302
v 0.221662 0.228695 0.433046
v 0.190357 0.291305 0.529391
v 0.120358 0.291305 0.506647
v 0.120358 0.291305 0.433046
v 0.190357 0.291305 0.410302
v 0.233620 0.291305 0.469846
v 0.171010 0.330000 0.469846
v -0.460000 0.275000 0.040000
v -0.460000 1.125000 0.040000
v -0.460000 0.275000 -0.040000
v -0.460000 1.125000 -0.040000
v -0.380000 0.275000 0.040000
v -0.380000 1.125000 0.040000
v -0.380000 0.275000 -0.040000
v -0.380000 1.125000 -0.040000
v 0.380000 0.275000 0.040000
v 0.380000 1.125000 0.040000
v 0.380000 0.275000 -0.040000
v 0.380000 1.125000 -0.040000
v 0.460000 0.275000 0.040000
v 0.460000 1.125000 0.040000
v 0.460000 0.275000 -0.040000
v 0.460000 1.125000 -0.040000
v -0.475000 1.080000 0.040000
v -0.475000 1.160000 0.040000
v -0.475000 1.080000 -0.040000
v -0.475000 1.160000 -0.040000
v 0.475000 1.080000 0.040000
v 0.475000 1.160000 0.040000
v 0.475000 1.080000 -0.040000
v 0.475000 1.160000 -0.040000
v -0.570000 1.160000 0.420000
v 0.570000 1.160000 0.420000
v 0.000000 1.500000 0.420000
v -0.570000 1.160000 -0.420000
v 0.570000 1.160000 -0.420000
v 0.000000 1.500000 -0.420000
v -0.480281 1.184407 0.420000
v -0.505895 1.227348 0.420000
v -0.480281 1.184407 -0.420000
v -0.505895 1.227348 -0.420000
v -0.463105 1.194652 0.420000
v -0.488719 1.237593 0.420000
v -0.463105 1.194652 -0.420000
v -0.488719 1.237593 -0.420000
v 0.463105 1.194652 0.420000
v 0.488719 1.237593 0.420000
v 0.463105 1.194652 -0.420000
v 0.488719 1.237593 -0.420000
v 0.480281 1.184407 0.420000
v 0.505895 1.227348 0.420000
v 0.480281 1.184407 -0.420000
v 0.505895 1.227348 -0.420000
v -0.366281 1.252407 0.420000
v -0.391895 1.295348 0.420000
v -0.366281 1.252407 -0.420000
v -0.391895 1.295348 -0.420000
v -0.349105 1.262652 0.420000
v -0.374719 1.305593 0.420000
v -0.349105 1.262652 -0.420000
v -0.374719 1.305593 -0.420000
v 0.349105 1.262652 0.420000
v 0.374719 1.305593 0.420000
v 0.349105 1.262652 -0.420000
v 0.374719 1.305593 -0.420000
v 0.366281 1.252407 0.420000
v 0.391895 1.295348 0.420000
v 0.366281 1.252407 -0.420000
v 0.391895 1.295348 -0.420000
v -0.252281 1.320407 0.420000
v -0.277895 1.363348 0.420000
v -0.252281 1.320407 -0.420000
v -0.277895 1.363348 -0.420000
v -0.235105 1.330652 0.420000
v -0.260719 1.373593 0.420000
v -0.235105 1.330652 -0.420000
v -0.260719 1.373593 -0.420000
v 0.235105 1.330652 0.420000
v 0.260719 1.373593 0.420000
v 0.235105 1.330652 -0.420000
v 0.260719 1.373593 -0.420000
v 0.252281 1.320407 0.420000
v 0.277895 1.363348 0.420000
v 0.252281 1.320407 -0.420000
v 0.277895 1.363348 -0.420000
v -0.138281 1.388407 0.420000
v -0.163895 1.431348 0.420000
v -0.138281 1.388407 -0.420000
v -0.163895 1.431348 -0.420000
v -0.121105 1.398652 0.420000
v -0.146719 1.441593 0.420000
v -0.121105 1.398652 -0.420000
v -0.146719 1.441593 -0.420000
v 0.121105 1.398652 0.420000
v 0.146719 1.441593 0.420000
v 0.121105 1.398652 -0.420000
v 0.146719 1.441593 -0.420000
v 0.138281 1.388407 0.420000
v 0.163895 1.431348 0.420000
v 0.138281 1.388407 -0.420000
v 0.163895 1.431348 -0.420000
v 0.220000 1.350000 -0.150000
v 0.263416 1.383167 -0.118457
v 0.203417 1.383167 -0.098962
v 0.166335 1.383167 -0.150000
v 0.203417 1.383167 -0.201038
v 0.263416 1.383167 -0.181543
v 0.236583 1.436833 -0.098962
v 0.176584 1.436833 -0.118457
v 0.176584 1.436833 -0.181543
v 0.236583 1.436833 -0.201038
v 0.273665 1.436833 -0.150000
v 0.220000 1.470000 -0.150000
v -0.180000 1.380000 0.120000
v -0.136584 1.413167 0.151543
v -0.196583 1.413167 0.171038
v -0.233665 1.413167 0.120000
v -0.196583 1.413167 0.068962
v -0.136584 1.413167 0.088457
v -0.163417 1.466833 0.171038
v -0.223416 1.466833 0.151543
v -0.223416 1.466833 0.088457
v -0.163417 1.466833 0.068962
v -0.126335 1.466833 0.120000
v -0.180000 1.500000 0.120000
v 0.340000 1.290000 0.220000
v 0.383416 1.323167 0.251543
v 0.323417 1.323167 0.271038
v 0.286335 1.323167 0.220000
v 0.323417 1.323167 0.168962
v 0.383416 1.323167 0.188457
v 0.356583 1.376833 0.271038
v 0.296584 1.376833 0.251543
v 0.296584 1.376833 0.188457
v 0.356583 1.376833 0.168962
v 0.393665 1.376833 0.220000
v 0.340000 1.410000 0.220000
v -0.300000 1.310000 -0.180000
v -0.256584 1.343167 -0.148457
v -0.316583 1.343167 -0.128962
v -0.353666 1.343167 -0.180000
v -0.316583 1.343167 -0.231038
v -0.256584 1.343167 -0.211543
v -0.283417 1.396833 -0.128962
v -0.343416 1.396833 -0.148457
v -0.343416 1.396833 -0.211543
v -0.283417 1.396833 -0.231038
v -0.246335 1.396833 -0.180000
v -0.300000 1.430000 -0.180000
v -0.350000 0.980000 -0.060000
v 0.350000 0.980000 -0.060000
v -0.350000 0.937574 -0.042426
v 0.350000 0.937574 -0.042426
v -0.350000 0.920000 0.000000
v 0.350000 0.920000 0.000000
v -0.350000 0.937574 0.042426
v 0.350000 0.937574 0.042426
v -0.350000 0.980000 0.060000
v 0.350000 0.980000 0.060000
v -0.350000 1.022426 0.042426
v 0.350000 1.022426 0.042426
v -0.350000 1.040000 0.000000
v 0.350000 1.040000 0.000000
v -0.350000 1.022426 -0.042426
v 0.350000 1.022426 -0.042426
v 0.375000 0.820000 0.025000
v 0.375000 0.980000 0.025000
v 0.375000 0.820000 -0.025000
v 0.375000 0.980000 -0.025000
v 0.425000 0.820000 0.025000
v 0.425000 0.980000 0.025000
v 0.425000 0.820000 -0.025000
v 0.425000 0.980000 -0.025000
v 0.400000 0.840000 -0.020000
v 0.500000 0.840000 -0.020000
v 0.400000 0.822679 -0.010000
v 0.500000 0.822679 -0.010000
v 0.400000 0.822679 0.010000
v 0.500000 0.822679 0.010000
v 0.400000 0.840000 0.020000
v 0.500000 0.840000 0.020000
v 0.400000 0.857320 0.010000
v 0.500000 0.857320 0.010000
v 0.400000 0.857320 -0.010000
v 0.500000 0.857320 -0.010000
v -0.290000 0.800000 0.010000
v -0.290000 0.980000 0.010000
v -0.290000 0.800000 -0.010000
v -0.290000 0.980000 -0.010000
v -0.270000 0.800000 0.010000
v -0.270000 0.980000 0.010000
v -0.270000 0.800000 -0.010000
v -0.270000 0.980000 -0.010000
v -0.280000 0.560000 -0.110000
v -0.280000 0.720000 -0.110000
v -0.202218 0.560000 -0.077782
v -0.202218 0.720000 -0.077782
v -0.170000 0.560000 0.000000
v -0.170000 0.720000 0.000000
v -0.202218 0.560000 0.077782
v -0.202218 0.720000 0.077782
v -0.280000 0.560000 0.110000
v -0.280000 0.720000 0.110000
v -0.357782 0.560000 0.077782
v -0.357782 0.720000 0.077782
v -0.390000 0.560000 0.000000
v -0.390000 0.720000 0.000000
v -0.357782 0.560000 -0.077782
v -0.357782 0.720000 -0.077782
v -0.280000 0.560000 -0.113000
v -0.280000 0.580000 -0.113000
v -0.200097 0.560000 -0.079903
v -0.200097 0.580000 -0.079903
v -0.167000 0.560000 0.000000
v -0.167000 0.580000 0.000000
v -0.200097 0.560000 0.079903
v -0.200097 0.580000 0.079903
v -0.280000 0.560000 0.113000
v -0.280000 0.580000 0.113000
v -0.359903 0.560000 0.079903
v -0.359903 0.580000 0.079903
v -0.393000 0.560000 0.000000
v -0.393000 0.580000 0.000000
v -0.359903 0.560000 -0.079903
v -0.359903 0.580000 -0.079903
v -0.280000 0.700000 -0.113000
v -0.280000 0.720000 -0.113000
v -0.200097 0.700000 -0.079903
v -0.200097 0.720000 -0.079903
v -0.167000 0.700000 0.000000
v -0.167000 0.720000 0.000000
v -0.200097 0.700000 0.079903
v -0.200097 0.720000 0.079903
v -0.280000 0.700000 0.113000
v -0.280000 0.720000 0.113000
v -0.359903 0.700000 0.079903
v -0.359903 0.720000 0.079903
v -0.393000 0.700000 0.000000
v -0.393000 0.720000 0.000000
v -0.359903 0.700000 -0.079903
v -0.359903 0.720000 -0.079903
v -0.390000 0.710000 0.010000
v -0.390000 0.830000 0.010000
v -0.390000 0.710000 -0.010000
v -0.390000 0.830000 -0.010000
v -0.370000 0.710000 0.010000
v -0.370000 0.830000 0.010000
v -0.370000 0.710000 -0.010000
v -0.370000 0.830000 -0.010000
v -0.190000 0.710000 0.010000
v -0.190000 0.830000 0.010000
v -0.190000 0.710000 -0.010000
v -0.190000 0.830000 -0.010000
v -0.170000 0.710000 0.010000
v -0.170000 0.830000 0.010000
v -0.170000 0.710000 -0.010000
v -0.170000 0.830000 -0.010000
v -0.390000 0.810000 0.010000
v -0.390000 0.830000 0.010000
v -0.390000 0.810000 -0.010000
v -0.390000 0.830000 -0.010000
v -0.170000 0.810000 0.010000
v -0.170000 0.830000 0.010000
v -0.170000 0.810000 -0.010000
v -0.170000 0.830000 -0.010000
v -0.300000 0.530000 0.340000
v -0.234876 0.579751 0.387315
v -0.324875 0.579751 0.416558
v -0.380498 0.579751 0.340000
v -0.324875 0.579751 0.263442
v -0.234876 0.579751 0.292685
v -0.275125 0.660249 0.416558
v -0.365124 0.660249 0.387315
v -0.365124 0.660249 0.292685
v -0.275125 0.660249 0.263442
v -0.219502 0.660249 0.340000
v -0.300000 0.710000 0.340000
v -0.367500 0.518750 0.407500
v -0.367500 0.622250 0.407500
v -0.367500 0.518750 0.317500
v -0.367500 0.622250 0.317500
v -0.232500 0.518750 0.407500
v -0.232500 0.622250 0.407500
v -0.232500 0.518750 0.317500
v -0.232500 0.622250 0.317500
v -0.354000 0.503000 0.414250
v -0.354000 0.548000 0.414250
v -0.354000 0.503000 0.337750
v -0.354000 0.548000 0.337750
v -0.246000 0.503000 0.414250
v -0.246000 0.548000 0.414250
v -0.246000 0.503000 0.337750
v -0.246000 0.548000 0.337750
v -0.356700 0.576800 0.429100
v -0.356700 0.612800 0.429100
v -0.356700 0.576800 0.391300
v -0.356700 0.612800 0.391300
v -0.318900 0.576800 0.429100
v -0.318900 0.612800 0.429100
v -0.318900 0.576800 0.391300
v -0.318900 0.612800 0.391300
v -0.281100 0.576800 0.429100
v -0.281100 0.612800 0.429100
v -0.281100 0.576800 0.391300
v -0.281100 0.612800 0.391300
v -0.243300 0.576800 0.429100
v -0.243300 0.612800 0.429100
v -0.243300 0.576800 0.391300
v -0.243300 0.612800 0.391300
v -0.310800 0.546200 0.429100
v -0.310800 0.575000 0.429100
v -0.310800 0.546200 0.398500
v -0.310800 0.575000 0.398500
v -0.289200 0.546200 0.429100
v -0.289200 0.575000 0.429100
v -0.289200 0.546200 0.398500
v -0.289200 0.575000 0.398500
v -0.342750 0.507500 0.421000
v -0.342750 0.543500 0.421000
v -0.342750 0.507500 0.403000
v -0.342750 0.543500 0.403000
v -0.338250 0.507500 0.421000
v -0.338250 0.543500 0.421000
v -0.338250 0.507500 0.403000
v -0.338250 0.543500 0.403000
v -0.315750 0.507500 0.421000
v -0.315750 0.543500 0.421000
v -0.315750 0.507500 0.403000
v -0.315750 0.543500 0.403000
v -0.311250 0.507500 0.421000
v -0.311250 0.543500 0.421000
v -0.311250 0.507500 0.403000
v -0.311250 0.543500 0.403000
v -0.288750 0.507500 0.421000
v -0.288750 0.543500 0.421000
v -0.288750 0.507500 0.403000
v -0.288750 0.543500 0.403000
v -0.284250 0.507500 0.421000
v -0.284250 0.543500 0.421000
v -0.284250 0.507500 0.403000
v -0.284250 0.543500 0.403000
v -0.261750 0.507500 0.421000
v -0.261750 0.543500 0.421000
v -0.261750 0.507500 0.403000
v -0.261750 0.543500 0.403000
v -0.257250 0.507500 0.421000
v -0.257250 0.543500 0.421000
v -0.257250 0.507500 0.403000
v -0.257250 0.543500 0.403000
v 0.325000 0.590000 -0.325000
v 0.325000 0.650000 -0.325000
v 0.325000 0.590000 -0.355000
v 0.325000 0.650000 -0.355000
v 0.355000 0.590000 -0.325000
v 0.355000 0.650000 -0.325000
v 0.355000 0.590000 -0.355000
v 0.355000 0.650000 -0.355000
v 0.325000 0.470000 -0.325000
v 0.325000 0.530000 -0.325000
v 0.325000 0.470000 -0.355000
v 0.325000 0.530000 -0.355000
v 0.355000 0.470000 -0.325000
v 0.355000 0.530000 -0.325000
v 0.355000 0.470000 -0.355000
v 0.355000 0.530000 -0.355000
v 0.325000 0.350000 -0.325000
v 0.325000 0.410000 -0.325000
v 0.325000 0.350000 -0.355000
v 0.325000 0.410000 -0.355000
v 0.355000 0.350000 -0.325000
v 0.355000 0.410000 -0.325000
v 0.355000 0.350000 -0.355000
v 0.355000 0.410000 -0.355000
vn 0.3827 -0.0000 -0.9239
vn 0.9239 -0.0000 -0.3827
vn 0.9239 -0.0000 0.3827
vn 0.3827 -0.0000 0.9239
vn -0.3827 -0.0000 0.9239
vn -0.9239 -0.0000 0.3827
vn -0.0000 1.0000 -0.0000
vn -0.9239 -0.0000 -0.3827
vn -0.3827 -0.0000 -0.9239
vn -0.0000 -1.0000 -0.0000
vn 0.2588 -0.0000 -0.9659
vn 0.7071 -0.0000 -0.7071
vn 0.9659 -0.0000 -0.2588
vn 0.9659 -0.0000 0.2588
vn 0.7071 -0.0000 0.7071
vn 0.2588 -0.0000 0.9659
vn -0.2588 -0.0000 0.9659
vn -0.7071 -0.0000 0.7071
vn -0.9659 -0.0000 0.2588
vn -0.9659 -0.0000 -0.2588
vn -0.7071 -0.0000 -0.7071
vn -0.2588 -0.0000 -0.9659
vn -0.8192 -0.0000 0.5736
vn -0.5736 -0.0000 -0.8192
vn 0.8192 -0.0000 -0.5736
vn 0.5736 -0.0000 0.8192
vn 0.8660 -0.0000 0.5000
vn -0.5000 -0.0000 0.8660
vn -0.8660 -0.0000 -0.5000
vn 0.5000 -0.0000 -0.8660
vn 0.3420 -0.0000 -0.9397
vn 0.9397 -0.0000 0.3420
vn -0.3420 -0.0000 0.9397
vn -0.9397 -0.0000 -0.3420
vn 0.1876 -0.7947 0.5774
vn 0.6071 -0.7947 -0.0000
vn -0.4911 -0.7947 0.3568
vn -0.4911 -0.7947 -0.3568
vn 0.1876 -0.7947 -0.5774
vn 0.9822 -0.1876 -0.0000
vn 0.3035 -0.1876 0.9342
vn -0.7946 -0.1876 0.5774
vn -0.7946 -0.1876 -0.5774
vn 0.3035 -0.1876 -0.9342
vn 0.7946 0.1876 0.5774
vn -0.3035 0.1876 0.9342
vn -0.9822 0.1876 -0.0000
vn -0.3035 0.1876 -0.9342
vn 0.7946 0.1876 -0.5774
vn 0.4911 0.7947 0.3568
vn -0.1876 0.7947 0.5774
vn -0.6071 0.7947 -0.0000
vn -0.1876 0.7947 -0.5774
vn 0.4911 0.7947 -0.3568
vn -1.0000 -0.0000 -0.0000
vn -0.0000 -0.0000 -1.0000
vn 1.0000 -0.0000 -0.0000
vn -0.0000 -0.0000 1.0000
vn -0.5123 0.8588 -0.0000
vn 0.5123 0.8588 -0.0000
vn -0.8588 -0.5123 -0.0000
vn 0.8588 0.5123 -0.0000
vn 0.5123 -0.8588 -0.0000
vn -0.8588 0.5123 -0.0000
vn 0.8588 -0.5123 -0.0000
vn -0.5123 -0.8588 -0.0000
vn -0.7947 -0.1876 -0.5774
vn 0.7947 0.1876 0.5774
vn -0.0000 -0.3827 -0.9239
vn -0.0000 -0.9239 -0.3827
vn -0.0000 -0.9239 0.3827
vn -0.0000 -0.3827 0.9239
vn -0.0000 0.3827 0.9239
vn -0.0000 0.9239 0.3827
vn -0.0000 0.9239 -0.3827
vn -0.0000 0.3827 -0.9239
vn -0.0000 -0.5000 -0.8660
vn -0.0000 -0.5000 0.8660
vn -0.0000 0.5000 0.8660
vn -0.0000 0.5000 -0.8660
vt 1.000000 0.500000
vt 1.000000 1.000000
vt 0.875000 1.000000
vt 0.875000 0.500000
vt 0.750000 1.000000
vt 0.750000 0.500000
vt 0.625000 1.000000
vt 0.625000 0.500000
vt 0.500000 1.000000
vt 0.500000 0.500000
vt 0.375000 1.000000
vt 0.375000 0.500000
vt 0.250000 1.000000
vt 0.250000 0.500000
vt 0.419706 0.419706
vt 0.250000 0.490000
vt 0.080294 0.419706
vt 0.010000 0.250000
vt 0.080294 0.080294
vt 0.250000 0.010000
vt 0.419706 0.080294
vt 0.490000 0.250000
vt 0.125000 1.000000
vt 0.125000 0.500000
vt 0.000000 1.000000
vt 0.000000 0.500000
vt 0.750000 0.490000
vt 0.919706 0.419706
vt 0.990000 0.250000
vt 0.919706 0.080294
vt 0.750000 0.010000
vt 0.580294 0.080294
vt 0.510000 0.250000
vt 0.580294 0.419706
vt 0.916667 1.000000
vt 0.916667 0.500000
vt 0.833333 1.000000
vt 0.833333 0.500000
vt 0.750000 1.000000
vt 0.750000 0.500000
vt 0.666667 1.000000
vt 0.666667 0.500000
vt 0.583333 1.000000
vt 0.583333 0.500000
vt 0.500000 1.000000
vt 0.500000 0.500000
vt 0.416667 1.000000
vt 0.416667 0.500000
vt 0.333333 1.000000
vt 0.333333 0.500000
vt 0.250000 1.000000
vt 0.250000 0.500000
vt 0.166667 1.000000
vt 0.166667 0.500000
vt 0.370000 0.457846
vt 0.130000 0.457846
vt 0.042154 0.370000
vt 0.010000 0.250000
vt 0.042154 0.130000
vt 0.130000 0.042154
vt 0.250000 0.010000
vt 0.370000 0.042154
vt 0.457846 0.130000
vt 0.457846 0.370000
vt 0.083333 1.000000
vt 0.083333 0.500000
vt 0.000000 1.000000
vt 0.000000 0.500000
vt 0.870000 0.457846
vt 0.957846 0.370000
vt 0.957846 0.130000
vt 0.870000 0.042154
vt 0.750000 0.010000
vt 0.630000 0.042154
vt 0.542154 0.130000
vt 0.542154 0.370000
vt 0.630000 0.457846
vt 0.370000 0.457846
vt 0.130000 0.457846
vt 0.042154 0.370000
vt 0.042154 0.130000
vt 0.130000 0.042154
vt 0.370000 0.042154
vt 0.457846 0.130000
vt 0.457846 0.370000
vt 0.870000 0.457846
vt 0.957846 0.370000
vt 0.957846 0.130000
vt 0.870000 0.042154
vt 0.630000 0.042154
vt 0.542154 0.130000
vt 0.542154 0.370000
vt 0.630000 0.457846
vt 0.375000 0.000000
vt 0.625000 0.000000
vt 0.625000 0.250000
vt 0.375000 0.250000
vt 0.625000 0.750000
vt 0.375000 0.750000
vt 0.125000 0.750000
vt 0.875000 0.750000
vt 0.181819 0.000000
vt 0.272728 0.157461
vt 0.090910 0.157461
vt 0.363637 0.000000
vt 0.454546 0.157461
vt 0.909091 0.000000
vt 1.000000 0.157461
vt 0.818182 0.157461
vt 0.727273 0.000000
vt 0.636364 0.157461
vt 0.545455 0.000000
vt 0.363637 0.314921
vt 0.181819 0.314921
vt 0.909091 0.314921
vt 0.727273 0.314921
vt 0.545455 0.314921
vt 0.000000 0.314921
vt 0.272728 0.472382
vt 0.090910 0.472382
vt 0.818182 0.472382
vt 0.636364 0.472382
vt 0.454546 0.472382
vt 0.000000 0.000000
vt 0.833333 1.000000
vt 0.833333 0.500000
vt 0.666667 1.000000
vt 0.666667 0.500000
vt 0.500000 1.000000
vt 0.500000 0.500000
vt 0.333333 1.000000
vt 0.333333 0.500000
vt 0.166667 1.000000
vt 0.166667 0.500000
vt -0.000000 1.000000
vt -0.000000 0.500000
vt 0.080294 0.419706
vt 0.080294 0.080294
vt 0.419706 0.080294
vt 0.919706 0.080294
vt 0.580294 0.080294
s 0
usemtl stone
f 1/1/1 2/2/1 4/3/1 3/4/1
f 3/4/2 4/3/2 6/5/2 5/6/2
f 5/6/3 6/5/3 8/7/3 7/8/3
f 7/8/4 8/7/4 10/9/4 9/10/4
f 9/10/5 10/9/5 12/11/5 11/12/5
f 11/12/6 12/11/6 14/13/6 13/14/6
f 4/15/7 2/16/7 16/17/7 14/18/7 12/19/7 10/20/7 8/21/7 6/22/7
f 13/14/8 14/13/8 16/23/8 15/24/8
f 15/24/9 16/23/9 2/25/9 1/26/9
f 1/27/10 3/28/10 5/29/10 7/30/10 9/31/10 11/32/10 13/33/10 15/34/10
f 49/1/1 50/2/1 52/3/1 51/4/1
f 51/4/2 52/3/2 54/5/2 53/6/2
f 53/6/3 54/5/3 56/7/3 55/8/3
f 55/8/4 56/7/4 58/9/4 57/10/4
f 57/10/5 58/9/5 60/11/5 59/12/5
f 59/12/6 60/11/6 62/13/6 61/14/6
f 52/15/7 50/16/7 64/17/7 62/18/7 60/19/7 58/20/7 56/21/7 54/22/7
f 61/14/8 62/13/8 64/23/8 63/24/8
f 63/24/9 64/23/9 50/25/9 49/26/9
f 49/27/10 51/28/10 53/29/10 55/30/10 57/31/10 59/32/10 61/33/10 63/34/10
usemtl stone_dk
f 17/1/1 18/2/1 20/3/1 19/4/1
f 19/4/2 20/3/2 22/5/2 21/6/2
f 21/6/3 22/5/3 24/7/3 23/8/3
f 23/8/4 24/7/4 26/9/4 25/10/4
f 25/10/5 26/9/5 28/11/5 27/12/5
f 27/12/6 28/11/6 30/13/6 29/14/6
f 20/15/7 18/16/7 32/17/7 30/18/7 28/19/7 26/20/7 24/21/7 22/22/7
f 29/14/8 30/13/8 32/23/8 31/24/8
f 31/24/9 32/23/9 18/25/9 17/26/9
f 17/27/10 19/28/10 21/29/10 23/30/10 25/31/10 27/32/10 29/33/10 31/34/10
f 33/1/1 34/2/1 36/3/1 35/4/1
f 35/4/2 36/3/2 38/5/2 37/6/2
f 37/6/3 38/5/3 40/7/3 39/8/3
f 39/8/4 40/7/4 42/9/4 41/10/4
f 41/10/5 42/9/5 44/11/5 43/12/5
f 43/12/6 44/11/6 46/13/6 45/14/6
f 36/15/7 34/16/7 48/17/7 46/18/7 44/19/7 42/20/7 40/21/7 38/22/7
f 45/14/8 46/13/8 48/23/8 47/24/8
f 47/24/9 48/23/9 34/25/9 33/26/9
f 33/27/10 35/28/10 37/29/10 39/30/10 41/31/10 43/32/10 45/33/10 47/34/10
f 275/94/61 276/95/61 278/96/61 277/97/61
f 277/97/56 278/96/56 282/8/56 281/12/56
f 281/12/62 282/8/62 280/98/62 279/99/62
f 279/99/58 280/98/58 276/7/58 275/11/58
f 277/24/63 281/12/63 279/99/63 275/100/63
f 282/8/59 278/4/59 276/101/59 280/98/59
f 283/94/64 284/95/64 286/96/64 285/97/64
f 285/97/56 286/96/56 290/8/56 289/12/56
f 289/12/65 290/8/65 288/98/65 287/99/65
f 287/99/58 288/98/58 284/7/58 283/11/58
f 285/24/66 289/12/66 287/99/66 283/100/66
f 290/8/60 286/4/60 284/101/60 288/98/60
f 291/94/61 292/95/61 294/96/61 293/97/61
f 293/97/56 294/96/56 298/8/56 297/12/56
f 297/12/62 298/8/62 296/98/62 295/99/62
f 295/99/58 296/98/58 292/7/58 291/11/58
f 293/24/63 297/12/63 295/99/63 291/100/63
f 298/8/59 294/4/59 292/101/59 296/98/59
f 299/94/64 300/95/64 302/96/64 301/97/64
f 301/97/56 302/96/56 306/8/56 305/12/56
f 305/12/65 306/8/65 304/98/65 303/99/65
f 303/99/58 304/98/58 300/7/58 299/11/58
f 301/24/66 305/12/66 303/99/66 299/100/66
f 306/8/60 302/4/60 300/101/60 304/98/60
f 307/94/61 308/95/61 310/96/61 309/97/61
f 309/97/56 310/96/56 314/8/56 313/12/56
f 313/12/62 314/8/62 312/98/62 311/99/62
f 311/99/58 312/98/58 308/7/58 307/11/58
f 309/24/63 313/12/63 311/99/63 307/100/63
f 314/8/59 310/4/59 308/101/59 312/98/59
f 315/94/64 316/95/64 318/96/64 317/97/64
f 317/97/56 318/96/56 322/8/56 321/12/56
f 321/12/65 322/8/65 320/98/65 319/99/65
f 319/99/58 320/98/58 316/7/58 315/11/58
f 317/24/66 321/12/66 319/99/66 315/100/66
f 322/8/60 318/4/60 316/101/60 320/98/60
f 323/94/61 324/95/61 326/96/61 325/97/61
f 325/97/56 326/96/56 330/8/56 329/12/56
f 329/12/62 330/8/62 328/98/62 327/99/62
f 327/99/58 328/98/58 324/7/58 323/11/58
f 325/24/63 329/12/63 327/99/63 323/100/63
f 330/8/59 326/4/59 324/101/59 328/98/59
f 331/94/64 332/95/64 334/96/64 333/97/64
f 333/97/56 334/96/56 338/8/56 337/12/56
f 337/12/65 338/8/65 336/98/65 335/99/65
f 335/99/58 336/98/58 332/7/58 331/11/58
f 333/24/66 337/12/66 335/99/66 331/100/66
f 338/8/60 334/4/60 332/101/60 336/98/60
usemtl ghostfire
f 65/1/11 66/2/11 68/35/11 67/36/11
f 67/36/12 68/35/12 70/37/12 69/38/12
f 69/38/13 70/37/13 72/39/13 71/40/13
f 71/40/14 72/39/14 74/41/14 73/42/14
f 73/42/15 74/41/15 76/43/15 75/44/15
f 75/44/16 76/43/16 78/45/16 77/46/16
f 77/46/17 78/45/17 80/47/17 79/48/17
f 79/48/18 80/47/18 82/49/18 81/50/18
f 81/50/19 82/49/19 84/51/19 83/52/19
f 83/52/20 84/51/20 86/53/20 85/54/20
f 68/55/7 66/16/7 88/56/7 86/57/7 84/58/7 82/59/7 80/60/7 78/61/7 76/62/7 74/63/7 72/22/7 70/64/7
f 85/54/21 86/53/21 88/65/21 87/66/21
f 87/66/22 88/65/22 66/67/22 65/68/22
f 65/27/10 67/69/10 69/70/10 71/29/10 73/71/10 75/72/10 77/73/10 79/74/10 81/75/10 83/33/10 85/76/10 87/77/10
usemtl soot
f 89/1/11 90/2/11 92/35/11 91/36/11
f 91/36/12 92/35/12 94/37/12 93/38/12
f 93/38/13 94/37/13 96/39/13 95/40/13
f 95/40/14 96/39/14 98/41/14 97/42/14
f 97/42/15 98/41/15 100/43/15 99/44/15
f 99/44/16 100/43/16 102/45/16 101/46/16
f 101/46/17 102/45/17 104/47/17 103/48/17
f 103/48/18 104/47/18 106/49/18 105/50/18
f 105/50/19 106/49/19 108/51/19 107/52/19
f 107/52/20 108/51/20 110/53/20 109/54/20
f 92/78/7 90/16/7 112/79/7 110/80/7 108/18/7 106/81/7 104/82/7 102/20/7 100/83/7 98/84/7 96/22/7 94/85/7
f 109/54/21 110/53/21 112/65/21 111/66/21
f 111/66/22 112/65/22 90/67/22 89/68/22
f 89/27/10 91/86/10 93/87/10 95/29/10 97/88/10 99/89/10 101/31/10 103/90/10 105/91/10 107/33/10 109/92/10 111/93/10
f 113/94/23 114/95/23 116/96/23 115/97/23
f 115/97/24 116/96/24 120/8/24 119/12/24
f 119/12/25 120/8/25 118/98/25 117/99/25
f 117/99/26 118/98/26 114/7/26 113/11/26
f 115/24/10 119/12/10 117/99/10 113/100/10
f 120/8/7 116/4/7 114/101/7 118/98/7
f 121/94/27 122/95/27 124/96/27 123/97/27
f 123/97/28 124/96/28 128/8/28 127/12/28
f 127/12/29 128/8/29 126/98/29 125/99/29
f 125/99/30 126/98/30 122/7/30 121/11/30
f 123/24/10 127/12/10 125/99/10 121/100/10
f 128/8/7 124/4/7 122/101/7 126/98/7
f 129/94/31 130/95/31 132/96/31 131/97/31
f 131/97/32 132/96/32 136/8/32 135/12/32
f 135/12/33 136/8/33 134/98/33 133/99/33
f 133/99/34 134/98/34 130/7/34 129/11/34
f 131/24/10 135/12/10 133/99/10 129/100/10
f 136/8/7 132/4/7 130/101/7 134/98/7
f 531/94/55 532/95/55 534/96/55 533/97/55
f 533/97/56 534/96/56 538/8/56 537/12/56
f 537/12/57 538/8/57 536/98/57 535/99/57
f 535/99/58 536/98/58 532/7/58 531/11/58
f 533/24/10 537/12/10 535/99/10 531/100/10
f 538/8/7 534/4/7 532/101/7 536/98/7
f 539/94/55 540/95/55 542/96/55 541/97/55
f 541/97/56 542/96/56 546/8/56 545/12/56
f 545/12/57 546/8/57 544/98/57 543/99/57
f 543/99/58 544/98/58 540/7/58 539/11/58
f 541/24/10 545/12/10 543/99/10 539/100/10
f 546/8/7 542/4/7 540/101/7 544/98/7
f 547/94/55 548/95/55 550/96/55 549/97/55
f 549/97/56 550/96/56 554/8/56 553/12/56
f 553/12/57 554/8/57 552/98/57 551/99/57
f 551/99/58 552/98/58 548/7/58 547/11/58
f 549/24/10 553/12/10 551/99/10 547/100/10
f 554/8/7 550/4/7 548/101/7 552/98/7
f 555/94/55 556/95/55 558/96/55 557/97/55
f 557/97/56 558/96/56 562/8/56 561/12/56
f 561/12/57 562/8/57 560/98/57 559/99/57
f 559/99/58 560/98/58 556/7/58 555/11/58
f 557/24/10 561/12/10 559/99/10 555/100/10
f 562/8/7 558/4/7 556/101/7 560/98/7
f 563/94/55 564/95/55 566/96/55 565/97/55
f 565/97/56 566/96/56 570/8/56 569/12/56
f 569/12/57 570/8/57 568/98/57 567/99/57
f 567/99/58 568/98/58 564/7/58 563/11/58
f 565/24/10 569/12/10 567/99/10 563/100/10
f 570/8/7 566/4/7 564/101/7 568/98/7
f 571/94/55 572/95/55 574/96/55 573/97/55
f 573/97/56 574/96/56 578/8/56 577/12/56
f 577/12/57 578/8/57 576/98/57 575/99/57
f 575/99/58 576/98/58 572/7/58 571/11/58
f 573/24/10 577/12/10 575/99/10 571/100/10
f 578/8/7 574/4/7 572/101/7 576/98/7
f 579/94/55 580/95/55 582/96/55 581/97/55
f 581/97/56 582/96/56 586/8/56 585/12/56
f 585/12/57 586/8/57 584/98/57 583/99/57
f 583/99/58 584/98/58 580/7/58 579/11/58
f 581/24/10 585/12/10 583/99/10 579/100/10
f 586/8/7 582/4/7 580/101/7 584/98/7
usemtl leaf_dk
f 137/102/35 138/103/35 139/104/35
f 138/103/36 137/105/36 142/106/36
f 137/107/37 139/108/37 140/109/37
f 137/110/38 140/109/38 141/111/38
f 137/112/39 141/111/39 142/106/39
f 138/103/40 142/106/40 147/113/40
f 139/104/41 138/103/41 143/114/41
f 140/109/42 139/108/42 144/115/42
f 141/111/43 140/109/43 145/116/43
f 142/106/44 141/111/44 146/117/44
f 138/103/45 147/113/45 143/114/45
f 139/104/46 143/114/46 144/118/46
f 140/109/47 144/115/47 145/116/47
f 141/111/48 145/116/48 146/117/48
f 142/106/49 146/117/49 147/113/49
f 143/114/50 147/113/50 148/119/50
f 144/118/51 143/114/51 148/120/51
f 145/116/52 144/115/52 148/121/52
f 146/117/53 145/116/53 148/122/53
f 147/113/54 146/117/54 148/123/54
f 149/102/35 150/103/35 151/104/35
f 150/103/36 149/105/36 154/106/36
f 149/107/37 151/108/37 152/109/37
f 149/110/38 152/109/38 153/111/38
f 149/112/39 153/111/39 154/106/39
f 150/103/40 154/106/40 159/113/40
f 151/104/41 150/103/41 155/114/41
f 152/109/42 151/108/42 156/115/42
f 153/111/43 152/109/43 157/116/43
f 154/106/44 153/111/44 158/117/44
f 150/103/45 159/113/45 155/114/45
f 151/104/46 155/114/46 156/118/46
f 152/109/47 156/115/47 157/116/47
f 153/111/48 157/116/48 158/117/48
f 154/106/49 158/117/49 159/113/49
f 155/114/50 159/113/50 160/119/50
f 156/118/51 155/114/51 160/120/51
f 157/116/52 156/115/52 160/121/52
f 158/117/53 157/116/53 160/122/53
f 159/113/54 158/117/54 160/123/54
f 161/102/35 162/103/35 163/104/35
f 162/103/36 161/105/36 166/106/36
f 161/107/37 163/108/37 164/109/37
f 161/110/38 164/109/38 165/111/38
f 161/112/39 165/111/39 166/106/39
f 162/103/40 166/106/40 171/113/40
f 163/104/41 162/103/41 167/114/41
f 164/109/42 163/108/42 168/115/42
f 165/111/43 164/109/43 169/116/43
f 166/106/44 165/111/44 170/117/44
f 162/103/45 171/113/45 167/114/45
f 163/104/46 167/114/46 168/118/46
f 164/109/47 168/115/47 169/116/47
f 165/111/48 169/116/48 170/117/48
f 166/106/49 170/117/49 171/113/49
f 167/114/50 171/113/50 172/119/50
f 168/118/51 167/114/51 172/120/51
f 169/116/52 168/115/52 172/121/52
f 170/117/53 169/116/53 172/122/53
f 171/113/54 170/117/54 172/123/54
f 173/102/35 174/103/35 175/104/35
f 174/103/36 173/105/36 178/106/36
f 173/107/37 175/108/37 176/109/37
f 173/110/38 176/109/38 177/111/38
f 173/112/39 177/111/39 178/106/39
f 174/103/40 178/106/40 183/113/40
f 175/104/41 174/103/41 179/114/41
f 176/109/42 175/108/42 180/115/42
f 177/111/43 176/109/43 181/116/43
f 178/106/44 177/111/44 182/117/44
f 174/103/45 183/113/45 179/114/45
f 175/104/46 179/114/46 180/118/46
f 176/109/47 180/115/47 181/116/47
f 177/111/48 181/116/48 182/117/48
f 178/106/49 182/117/49 183/113/49
f 179/114/50 183/113/50 184/119/50
f 180/118/51 179/114/51 184/120/51
f 181/116/52 180/115/52 184/121/52
f 182/117/53 181/116/53 184/122/53
f 183/113/54 182/117/54 184/123/54
f 185/102/35 186/103/35 187/104/35
f 186/103/36 185/105/36 190/106/36
f 185/107/37 187/108/37 188/109/37
f 185/110/38 188/109/38 189/111/38
f 185/112/39 189/111/39 190/106/39
f 186/103/40 190/106/40 195/113/40
f 187/104/41 186/103/41 191/114/41
f 188/109/42 187/108/42 192/115/42
f 189/111/43 188/109/43 193/116/43
f 190/106/44 189/111/44 194/117/44
f 186/103/45 195/113/45 191/114/45
f 187/104/46 191/114/46 192/118/46
f 188/109/47 192/115/47 193/116/47
f 189/111/48 193/116/48 194/117/48
f 190/106/49 194/117/49 195/113/49
f 191/114/50 195/113/50 196/119/50
f 192/118/51 191/114/51 196/120/51
f 193/116/52 192/115/52 196/121/52
f 194/117/53 193/116/53 196/122/53
f 195/113/54 194/117/54 196/123/54
f 197/102/35 198/103/35 199/104/35
f 198/103/36 197/105/36 202/106/36
f 197/107/37 199/108/37 200/109/37
f 197/110/38 200/109/38 201/111/38
f 197/112/39 201/111/39 202/106/39
f 198/103/40 202/106/40 207/113/40
f 199/104/41 198/103/41 203/114/41
f 200/109/42 199/108/42 204/115/42
f 201/111/43 200/109/43 205/116/43
f 202/106/44 201/111/44 206/117/44
f 198/103/45 207/113/45 203/114/45
f 199/104/46 203/114/46 204/118/46
f 200/109/47 204/115/47 205/116/47
f 201/111/48 205/116/48 206/117/48
f 202/106/49 206/117/49 207/113/49
f 203/114/50 207/113/50 208/119/50
f 204/118/51 203/114/51 208/120/51
f 205/116/52 204/115/52 208/121/52
f 206/117/53 205/116/53 208/122/53
f 207/113/54 206/117/54 208/123/54
f 209/102/35 210/103/35 211/104/35
f 210/103/36 209/105/36 214/106/36
f 209/107/37 211/108/37 212/109/37
f 209/110/38 212/109/38 213/111/38
f 209/112/39 213/111/39 214/106/39
f 210/103/40 214/106/40 219/113/40
f 211/104/41 210/103/41 215/114/41
f 212/109/42 211/108/42 216/115/42
f 213/111/43 212/109/43 217/116/43
f 214/106/44 213/111/44 218/117/44
f 210/103/45 219/113/45 215/114/45
f 211/104/46 215/114/46 216/118/46
f 212/109/47 216/115/47 217/116/47
f 213/111/48 217/116/48 218/117/48
f 214/106/49 218/117/49 219/113/49
f 215/114/50 219/113/50 220/119/50
f 216/118/51 215/114/51 220/120/51
f 217/116/52 216/115/52 220/121/52
f 218/117/53 217/116/53 220/122/53
f 219/113/54 218/117/54 220/123/54
f 221/102/35 222/103/35 223/104/35
f 222/103/36 221/105/36 226/106/36
f 221/107/37 223/108/37 224/109/37
f 221/110/38 224/109/38 225/111/38
f 221/112/39 225/111/39 226/106/39
f 222/103/40 226/106/40 231/113/40
f 223/104/41 222/103/41 227/114/41
f 224/109/42 223/108/42 228/115/42
f 225/111/43 224/109/43 229/116/43
f 226/106/44 225/111/44 230/117/44
f 222/103/45 231/113/45 227/114/45
f 223/104/46 227/114/46 228/118/46
f 224/109/47 228/115/47 229/116/47
f 225/111/48 229/116/48 230/117/48
f 226/106/49 230/117/49 231/113/49
f 227/114/50 231/113/50 232/119/50
f 228/118/51 227/114/51 232/120/51
f 229/116/52 228/115/52 232/121/52
f 230/117/53 229/116/53 232/122/53
f 231/113/54 230/117/54 232/123/54
f 233/102/35 234/103/35 235/104/35
f 234/103/36 233/105/36 238/106/36
f 233/107/37 235/108/37 236/109/37
f 233/110/38 236/109/38 237/111/38
f 233/112/39 237/111/39 238/106/39
f 234/103/40 238/106/40 243/113/40
f 235/104/41 234/103/41 239/114/41
f 236/109/42 235/108/42 240/115/42
f 237/111/43 236/109/43 241/116/43
f 238/106/44 237/111/44 242/117/44
f 234/103/45 243/113/45 239/114/45
f 235/104/46 239/114/46 240/118/46
f 236/109/47 240/115/47 241/116/47
f 237/111/48 241/116/48 242/117/48
f 238/106/49 242/117/49 243/113/49
f 239/114/50 243/113/50 244/119/50
f 240/118/51 239/114/51 244/120/51
f 241/116/52 240/115/52 244/121/52
f 242/117/53 241/116/53 244/122/53
f 243/113/54 242/117/54 244/123/54
f 339/102/35 340/103/35 341/104/35
f 340/103/36 339/105/36 344/106/36
f 339/107/37 341/108/37 342/109/37
f 339/110/38 342/109/38 343/111/38
f 339/112/39 343/111/39 344/106/39
f 340/103/40 344/106/40 349/113/40
f 341/104/41 340/103/41 345/114/41
f 342/109/42 341/108/42 346/115/42
f 343/111/67 342/109/67 347/116/67
f 344/106/44 343/111/44 348/117/44
f 340/103/45 349/113/45 345/114/45
f 341/104/46 345/114/46 346/118/46
f 342/109/47 346/115/47 347/116/47
f 343/111/48 347/116/48 348/117/48
f 344/106/49 348/117/49 349/113/49
f 345/114/50 349/113/50 350/119/50
f 346/118/51 345/114/51 350/120/51
f 347/116/52 346/115/52 350/121/52
f 348/117/53 347/116/53 350/122/53
f 349/113/54 348/117/54 350/123/54
f 351/102/35 352/103/35 353/104/35
f 352/103/36 351/105/36 356/106/36
f 351/107/37 353/108/37 354/109/37
f 351/110/38 354/109/38 355/111/38
f 351/112/39 355/111/39 356/106/39
f 352/103/40 356/106/40 361/113/40
f 353/104/41 352/103/41 357/114/41
f 354/109/42 353/108/42 358/115/42
f 355/111/43 354/109/43 359/116/43
f 356/106/44 355/111/44 360/117/44
f 352/103/45 361/113/45 357/114/45
f 353/104/46 357/114/46 358/118/46
f 354/109/47 358/115/47 359/116/47
f 355/111/48 359/116/48 360/117/48
f 356/106/49 360/117/49 361/113/49
f 357/114/50 361/113/50 362/119/50
f 358/118/51 357/114/51 362/120/51
f 359/116/52 358/115/52 362/121/52
f 360/117/53 359/116/53 362/122/53
f 361/113/54 360/117/54 362/123/54
f 363/102/35 364/103/35 365/104/35
f 364/103/36 363/105/36 368/106/36
f 363/107/37 365/108/37 366/109/37
f 363/110/38 366/109/38 367/111/38
f 363/112/39 367/111/39 368/106/39
f 364/103/40 368/106/40 373/113/40
f 365/104/41 364/103/41 369/114/41
f 366/109/42 365/108/42 370/115/42
f 367/111/43 366/109/43 371/116/43
f 368/106/44 367/111/44 372/117/44
f 364/103/68 373/113/68 369/114/68
f 365/104/46 369/114/46 370/118/46
f 366/109/47 370/115/47 371/116/47
f 367/111/48 371/116/48 372/117/48
f 368/106/49 372/117/49 373/113/49
f 369/114/50 373/113/50 374/119/50
f 370/118/51 369/114/51 374/120/51
f 371/116/52 370/115/52 374/121/52
f 372/117/53 371/116/53 374/122/53
f 373/113/54 372/117/54 374/123/54
f 375/102/35 376/103/35 377/104/35
f 376/103/36 375/105/36 380/106/36
f 375/107/37 377/108/37 378/109/37
f 375/110/38 378/109/38 379/111/38
f 375/112/39 379/111/39 380/106/39
f 376/103/40 380/106/40 385/113/40
f 377/104/41 376/103/41 381/114/41
f 378/109/42 377/108/42 382/115/42
f 379/111/43 378/109/43 383/116/43
f 380/106/44 379/111/44 384/117/44
f 376/103/45 385/113/45 381/114/45
f 377/104/46 381/114/46 382/118/46
f 378/109/47 382/115/47 383/116/47
f 379/111/48 383/116/48 384/117/48
f 380/106/49 384/117/49 385/113/49
f 381/114/50 385/113/50 386/119/50
f 382/118/51 381/114/51 386/120/51
f 383/116/52 382/115/52 386/121/52
f 384/117/53 383/116/53 386/122/53
f 385/113/54 384/117/54 386/123/54
usemtl charwood
f 245/94/55 246/95/55 248/96/55 247/97/55
f 247/97/56 248/96/56 252/8/56 251/12/56
f 251/12/57 252/8/57 250/98/57 249/99/57
f 249/99/58 250/98/58 246/7/58 245/11/58
f 247/24/10 251/12/10 249/99/10 245/100/10
f 252/8/7 248/4/7 246/101/7 250/98/7
f 253/94/55 254/95/55 256/96/55 255/97/55
f 255/97/56 256/96/56 260/8/56 259/12/56
f 259/12/57 260/8/57 258/98/57 257/99/57
f 257/99/58 258/98/58 254/7/58 253/11/58
f 255/24/10 259/12/10 257/99/10 253/100/10
f 260/8/7 256/4/7 254/101/7 258/98/7
f 261/94/55 262/95/55 264/96/55 263/97/55
f 263/97/56 264/96/56 268/8/56 267/12/56
f 267/12/57 268/8/57 266/98/57 265/99/57
f 265/99/58 266/98/58 262/7/58 261/11/58
f 263/24/10 267/12/10 265/99/10 261/100/10
f 268/8/7 264/4/7 262/101/7 266/98/7
usemtl slate
f 269/124/58 270/124/58 271/124/58
f 274/124/56 273/124/56 272/124/56
f 269/124/59 271/124/59 274/124/59 272/124/59
f 271/124/60 270/124/60 273/124/60 274/124/60
f 270/124/10 269/124/10 272/124/10 273/124/10
usemtl wood_dk
f 387/1/69 388/2/69 390/3/69 389/4/69
f 389/4/70 390/3/70 392/5/70 391/6/70
f 391/6/71 392/5/71 394/7/71 393/8/71
f 393/8/72 394/7/72 396/9/72 395/10/72
f 395/10/73 396/9/73 398/11/73 397/12/73
f 397/12/74 398/11/74 400/13/74 399/14/74
f 390/15/57 388/16/57 402/17/57 400/18/57 398/19/57 396/20/57 394/21/57 392/22/57
f 399/14/75 400/13/75 402/23/75 401/24/75
f 401/24/76 402/23/76 388/25/76 387/26/76
f 387/27/55 389/28/55 391/29/55 393/30/55 395/31/55 397/32/55 399/33/55 401/34/55
f 411/1/77 412/2/77 414/125/77 413/126/77
f 413/126/10 414/125/10 416/127/10 415/128/10
f 415/128/78 416/127/78 418/129/78 417/130/78
f 417/130/79 418/129/79 420/131/79 419/132/79
f 414/64/57 412/16/57 422/57/57 420/59/57 418/20/57 416/63/57
f 419/132/7 420/131/7 422/133/7 421/134/7
f 421/134/80 422/133/80 412/135/80 411/136/80
f 411/27/55 413/70/55 415/71/55 417/31/55 419/75/55 421/76/55
f 431/1/1 432/2/1 434/3/1 433/4/1
f 433/4/2 434/3/2 436/5/2 435/6/2
f 435/6/3 436/5/3 438/7/3 437/8/3
f 437/8/4 438/7/4 440/9/4 439/10/4
f 439/10/5 440/9/5 442/11/5 441/12/5
f 441/12/6 442/11/6 444/13/6 443/14/6
f 434/15/7 432/16/7 446/137/7 444/58/7 442/138/7 440/61/7 438/139/7 436/22/7
f 443/14/8 444/13/8 446/23/8 445/24/8
f 445/24/9 446/23/9 432/25/9 431/26/9
f 431/27/10 433/28/10 435/29/10 437/140/10 439/73/10 441/141/10 443/33/10 445/34/10
usemtl iron
f 403/94/55 404/95/55 406/96/55 405/97/55
f 405/97/56 406/96/56 410/8/56 409/12/56
f 409/12/57 410/8/57 408/98/57 407/99/57
f 407/99/58 408/98/58 404/7/58 403/11/58
f 405/24/10 409/12/10 407/99/10 403/100/10
f 410/8/7 406/4/7 404/101/7 408/98/7
f 447/1/1 448/2/1 450/3/1 449/4/1
f 449/4/2 450/3/2 452/5/2 451/6/2
f 451/6/3 452/5/3 454/7/3 453/8/3
f 453/8/4 454/7/4 456/9/4 455/10/4
f 455/10/5 456/9/5 458/11/5 457/12/5
f 457/12/6 458/11/6 460/13/6 459/14/6
f 450/15/7 448/16/7 462/17/7 460/18/7 458/19/7 456/20/7 454/21/7 452/22/7
f 459/14/8 460/13/8 462/23/8 461/24/8
f 461/24/9 462/23/9 448/25/9 447/26/9
f 447/27/10 449/28/10 451/29/10 453/30/10 455/31/10 457/32/10 459/33/10 461/34/10
f 463/1/1 464/2/1 466/3/1 465/4/1
f 465/4/2 466/3/2 468/5/2 467/6/2
f 467/6/3 468/5/3 470/7/3 469/8/3
f 469/8/4 470/7/4 472/9/4 471/10/4
f 471/10/5 472/9/5 474/11/5 473/12/5
f 473/12/6 474/11/6 476/13/6 475/14/6
f 466/15/7 464/16/7 478/17/7 476/18/7 474/19/7 472/20/7 470/21/7 468/22/7
f 475/14/8 476/13/8 478/23/8 477/24/8
f 477/24/9 478/23/9 464/25/9 463/26/9
f 463/27/10 465/28/10 467/29/10 469/30/10 471/31/10 473/32/10 475/33/10 477/34/10
f 479/94/55 480/95/55 482/96/55 481/97/55
f 481/97/56 482/96/56 486/8/56 485/12/56
f 485/12/57 486/8/57 484/98/57 483/99/57
f 483/99/58 484/98/58 480/7/58 479/11/58
f 481/24/10 485/12/10 483/99/10 479/100/10
f 486/8/7 482/4/7 480/101/7 484/98/7
f 487/94/55 488/95/55 490/96/55 489/97/55
f 489/97/56 490/96/56 494/8/56 493/12/56
f 493/12/57 494/8/57 492/98/57 491/99/57
f 491/99/58 492/98/58 488/7/58 487/11/58
f 489/24/10 493/12/10 491/99/10 487/100/10
f 494/8/7 490/4/7 488/101/7 492/98/7
f 495/94/55 496/95/55 498/96/55 497/97/55
f 497/97/56 498/96/56 502/8/56 501/12/56
f 501/12/57 502/8/57 500/98/57 499/99/57
f 499/99/58 500/98/58 496/7/58 495/11/58
f 497/24/10 501/12/10 499/99/10 495/100/10
f 502/8/7 498/4/7 496/101/7 500/98/7
f 587/94/55 588/95/55 590/96/55 589/97/55
f 589/97/56 590/96/56 594/8/56 593/12/56
f 593/12/57 594/8/57 592/98/57 591/99/57
f 591/99/58 592/98/58 588/7/58 587/11/58
f 589/24/10 593/12/10 591/99/10 587/100/10
f 594/8/7 590/4/7 588/101/7 592/98/7
f 595/94/55 596/95/55 598/96/55 597/97/55
f 597/97/56 598/96/56 602/8/56 601/12/56
f 601/12/57 602/8/57 600/98/57 599/99/57
f 599/99/58 600/98/58 596/7/58 595/11/58
f 597/24/10 601/12/10 599/99/10 595/100/10
f 602/8/7 598/4/7 596/101/7 600/98/7
f 603/94/55 604/95/55 606/96/55 605/97/55
f 605/97/56 606/96/56 610/8/56 609/12/56
f 609/12/57 610/8/57 608/98/57 607/99/57
f 607/99/58 608/98/58 604/7/58 603/11/58
f 605/24/10 609/12/10 607/99/10 603/100/10
f 610/8/7 606/4/7 604/101/7 608/98/7
usemtl ash
f 423/94/55 424/95/55 426/96/55 425/97/55
f 425/97/56 426/96/56 430/8/56 429/12/56
f 429/12/57 430/8/57 428/98/57 427/99/57
f 427/99/58 428/98/58 424/7/58 423/11/58
f 425/24/10 429/12/10 427/99/10 423/100/10
f 430/8/7 426/4/7 424/101/7 428/98/7
usemtl bone
f 503/102/35 504/103/35 505/104/35
f 504/103/36 503/105/36 508/106/36
f 503/107/37 505/108/37 506/109/37
f 503/110/38 506/109/38 507/111/38
f 503/112/39 507/111/39 508/106/39
f 504/103/40 508/106/40 513/113/40
f 505/104/41 504/103/41 509/114/41
f 506/109/42 505/108/42 510/115/42
f 507/111/43 506/109/43 511/116/43
f 508/106/44 507/111/44 512/117/44
f 504/103/45 513/113/45 509/114/45
f 505/104/46 509/114/46 510/118/46
f 506/109/47 510/115/47 511/116/47
f 507/111/48 511/116/48 512/117/48
f 508/106/49 512/117/49 513/113/49
f 509/114/50 513/113/50 514/119/50
f 510/118/51 509/114/51 514/120/51
f 511/116/52 510/115/52 514/121/52
f 512/117/53 511/116/53 514/122/53
f 513/113/54 512/117/54 514/123/54
f 515/94/55 516/95/55 518/96/55 517/97/55
f 517/97/56 518/96/56 522/8/56 521/12/56
f 521/12/57 522/8/57 520/98/57 519/99/57
f 519/99/58 520/98/58 516/7/58 515/11/58
f 517/24/10 521/12/10 519/99/10 515/100/10
f 522/8/7 518/4/7 516/101/7 520/98/7
f 523/94/55 524/95/55 526/96/55 525/97/55
f 525/97/56 526/96/56 530/8/56 529/12/56
f 529/12/57 530/8/57 528/98/57 527/99/57
f 527/99/58 528/98/58 524/7/58 523/11/58
f 525/24/10 529/12/10 527/99/10 523/100/10
f 530/8/7 526/4/7 524/101/7 528/98/7
