# Blender 5.0.1
# www.blender.org
mtllib windmill.mtl
o windmill
v 0.000000 0.000000 -0.620000
v 0.000000 0.950000 -0.620000
v 0.269008 0.000000 -0.558601
v 0.269008 0.950000 -0.558601
v 0.484735 0.000000 -0.386564
v 0.484735 0.950000 -0.386564
v 0.604455 0.000000 -0.137963
v 0.604455 0.950000 -0.137963
v 0.604455 0.000000 0.137963
v 0.604455 0.950000 0.137963
v 0.484735 0.000000 0.386564
v 0.484735 0.950000 0.386564
v 0.269008 0.000000 0.558601
v 0.269008 0.950000 0.558601
v 0.000000 0.000000 0.620000
v 0.000000 0.950000 0.620000
v -0.269008 0.000000 0.558601
v -0.269008 0.950000 0.558601
v -0.484735 0.000000 0.386564
v -0.484735 0.950000 0.386564
v -0.604455 0.000000 0.137963
v -0.604455 0.950000 0.137963
v -0.604455 0.000000 -0.137963
v -0.604455 0.950000 -0.137963
v -0.484735 0.000000 -0.386564
v -0.484735 0.950000 -0.386564
v -0.269008 0.000000 -0.558601
v -0.269008 0.950000 -0.558601
v 0.000000 0.275000 -0.630000
v 0.000000 0.325000 -0.630000
v 0.273347 0.275000 -0.567610
v 0.273347 0.325000 -0.567610
v 0.492554 0.275000 -0.392799
v 0.492554 0.325000 -0.392799
v 0.614205 0.275000 -0.140188
v 0.614205 0.325000 -0.140188
v 0.614205 0.275000 0.140188
v 0.614205 0.325000 0.140188
v 0.492554 0.275000 0.392799
v 0.492554 0.325000 0.392799
v 0.273347 0.275000 0.567610
v 0.273347 0.325000 0.567610
v 0.000000 0.275000 0.630000
v 0.000000 0.325000 0.630000
v -0.273347 0.275000 0.567610
v -0.273347 0.325000 0.567610
v -0.492554 0.275000 0.392799
v -0.492554 0.325000 0.392799
v -0.614205 0.275000 0.140188
v -0.614205 0.325000 0.140188
v -0.614205 0.275000 -0.140188
v -0.614205 0.325000 -0.140188
v -0.492554 0.275000 -0.392799
v -0.492554 0.325000 -0.392799
v -0.273347 0.275000 -0.567610
v -0.273347 0.325000 -0.567610
v 0.000000 0.575000 -0.630000
v 0.000000 0.625000 -0.630000
v 0.273347 0.575000 -0.567610
v 0.273347 0.625000 -0.567610
v 0.492554 0.575000 -0.392799
v 0.492554 0.625000 -0.392799
v 0.614205 0.575000 -0.140188
v 0.614205 0.625000 -0.140188
v 0.614205 0.575000 0.140188
v 0.614205 0.625000 0.140188
v 0.492554 0.575000 0.392799
v 0.492554 0.625000 0.392799
v 0.273347 0.575000 0.567610
v 0.273347 0.625000 0.567610
v 0.000000 0.575000 0.630000
v 0.000000 0.625000 0.630000
v -0.273347 0.575000 0.567610
v -0.273347 0.625000 0.567610
v -0.492554 0.575000 0.392799
v -0.492554 0.625000 0.392799
v -0.614205 0.575000 0.140188
v -0.614205 0.625000 0.140188
v -0.614205 0.575000 -0.140188
v -0.614205 0.625000 -0.140188
v -0.492554 0.575000 -0.392799
v -0.492554 0.625000 -0.392799
v -0.273347 0.575000 -0.567610
v -0.273347 0.625000 -0.567610
v -0.150000 0.025000 0.640000
v -0.150000 0.575000 0.640000
v -0.150000 0.025000 0.520000
v -0.150000 0.575000 0.520000
v 0.150000 0.025000 0.640000
v 0.150000 0.575000 0.640000
v 0.150000 0.025000 0.520000
v 0.150000 0.575000 0.520000
v 0.284146 0.520000 -0.431491
v 0.284146 0.680000 -0.431491
v 0.284146 0.520000 -0.551491
v 0.284146 0.680000 -0.551491
v 0.404146 0.520000 -0.431491
v 0.404146 0.680000 -0.431491
v 0.404146 0.520000 -0.551491
v 0.404146 0.680000 -0.551491
v 0.240000 0.520000 0.579615
v 0.240000 0.680000 0.579615
v 0.240000 0.520000 0.459615
v 0.240000 0.680000 0.459615
v 0.360000 0.520000 0.579615
v 0.360000 0.680000 0.579615
v 0.360000 0.520000 0.459615
v 0.360000 0.680000 0.459615
v 0.630000 0.742024 0.034339
v 0.630000 0.787986 0.072907
v 0.630000 0.832014 -0.072907
v 0.630000 0.877976 -0.034339
v 0.690000 0.742024 0.034339
v 0.690000 0.787986 0.072907
v 0.690000 0.832014 -0.072907
v 0.690000 0.877976 -0.034339
v 0.755000 0.960000 0.025000
v 0.755000 1.200000 0.025000
v 0.755000 0.960000 -0.025000
v 0.755000 1.200000 -0.025000
v 0.805000 0.960000 0.025000
v 0.805000 1.200000 0.025000
v 0.805000 0.960000 -0.025000
v 0.805000 1.200000 -0.025000
v 0.582510 0.742024 -0.242408
v 0.599243 0.787986 -0.207660
v 0.535977 0.832014 -0.339033
v 0.552711 0.877976 -0.304286
v 0.636568 0.742024 -0.268441
v 0.653302 0.787986 -0.233693
v 0.590035 0.832014 -0.365066
v 0.606769 0.877976 -0.330319
v 0.677756 0.960000 -0.313429
v 0.677756 1.200000 -0.313429
v 0.677756 0.960000 -0.363429
v 0.677756 1.200000 -0.363429
v 0.727756 0.960000 -0.313429
v 0.727756 1.200000 -0.313429
v 0.727756 0.960000 -0.363429
v 0.727756 1.200000 -0.363429
v 0.419646 0.742024 -0.471144
v 0.449799 0.787986 -0.447097
v 0.335798 0.832014 -0.538010
v 0.365951 0.877976 -0.513964
v 0.457056 0.742024 -0.518053
v 0.487209 0.787986 -0.494007
v 0.373207 0.832014 -0.584920
v 0.403360 0.877976 -0.560874
v 0.461322 0.960000 -0.584829
v 0.461322 1.200000 -0.584829
v 0.461322 0.960000 -0.634829
v 0.461322 1.200000 -0.634829
v 0.511322 0.960000 -0.584829
v 0.511322 1.200000 -0.584829
v 0.511322 0.960000 -0.634829
v 0.511322 1.200000 -0.634829
v 0.173667 0.742024 -0.606563
v 0.211267 0.787986 -0.597981
v 0.069109 0.832014 -0.630428
v 0.106710 0.877976 -0.621846
v 0.187018 0.742024 -0.665059
v 0.224618 0.787986 -0.656477
v 0.082461 0.832014 -0.688924
v 0.120061 0.877976 -0.680341
v 0.148566 0.960000 -0.735444
v 0.148566 1.200000 -0.735444
v 0.148566 0.960000 -0.785444
v 0.148566 1.200000 -0.785444
v 0.198566 0.960000 -0.735444
v 0.198566 1.200000 -0.735444
v 0.198566 0.960000 -0.785444
v 0.198566 1.200000 -0.785444
v -0.106710 0.742024 -0.621846
v -0.069109 0.787986 -0.630428
v -0.211267 0.832014 -0.597981
v -0.173667 0.877976 -0.606563
v -0.120061 0.742024 -0.680341
v -0.082461 0.787986 -0.688924
v -0.224618 0.832014 -0.656477
v -0.187018 0.877976 -0.665059
v -0.198566 0.960000 -0.735444
v -0.198566 1.200000 -0.735444
v -0.198566 0.960000 -0.785444
v -0.198566 1.200000 -0.785444
v -0.148566 0.960000 -0.735444
v -0.148566 1.200000 -0.735444
v -0.148566 0.960000 -0.785444
v -0.148566 1.200000 -0.785444
v -0.365951 0.742024 -0.513964
v -0.335798 0.787986 -0.538010
v -0.449799 0.832014 -0.447097
v -0.419646 0.877976 -0.471144
v -0.403360 0.742024 -0.560874
v -0.373207 0.787986 -0.584920
v -0.487209 0.832014 -0.494007
v -0.457056 0.877976 -0.518053
v -0.511322 0.960000 -0.584829
v -0.511322 1.200000 -0.584829
v -0.511322 0.960000 -0.634829
v -0.511322 1.200000 -0.634829
v -0.461322 0.960000 -0.584829
v -0.461322 1.200000 -0.584829
v -0.461322 0.960000 -0.634829
v -0.461322 1.200000 -0.634829
v -0.552711 0.742024 -0.304286
v -0.535977 0.787986 -0.339033
v -0.599243 0.832014 -0.207660
v -0.582510 0.877976 -0.242408
v -0.606769 0.742024 -0.330319
v -0.590035 0.787986 -0.365066
v -0.653302 0.832014 -0.233693
v -0.636568 0.877976 -0.268441
v -0.727756 0.960000 -0.313429
v -0.727756 1.200000 -0.313429
v -0.727756 0.960000 -0.363429
v -0.727756 1.200000 -0.363429
v -0.677756 0.960000 -0.313429
v -0.677756 1.200000 -0.313429
v -0.677756 0.960000 -0.363429
v -0.677756 1.200000 -0.363429
v -0.630000 0.742024 -0.034339
v -0.630000 0.787986 -0.072907
v -0.630000 0.832014 0.072907
v -0.630000 0.877976 0.034339
v -0.690000 0.742024 -0.034339
v -0.690000 0.787986 -0.072907
v -0.690000 0.832014 0.072907
v -0.690000 0.877976 0.034339
v -0.805000 0.960000 0.025000
v -0.805000 1.200000 0.025000
v -0.805000 0.960000 -0.025000
v -0.805000 1.200000 -0.025000
v -0.755000 0.960000 0.025000
v -0.755000 1.200000 0.025000
v -0.755000 0.960000 -0.025000
v -0.755000 1.200000 -0.025000
v -0.582510 0.742024 0.242408
v -0.599243 0.787986 0.207660
v -0.535977 0.832014 0.339033
v -0.552711 0.877976 0.304286
v -0.636568 0.742024 0.268441
v -0.653302 0.787986 0.233693
v -0.590035 0.832014 0.365066
v -0.606769 0.877976 0.330319
v -0.727756 0.960000 0.363429
v -0.727756 1.200000 0.363429
v -0.727756 0.960000 0.313429
v -0.727756 1.200000 0.313429
v -0.677756 0.960000 0.363429
v -0.677756 1.200000 0.363429
v -0.677756 0.960000 0.313429
v -0.677756 1.200000 0.313429
v -0.419646 0.742024 0.471144
v -0.449799 0.787986 0.447097
v -0.335798 0.832014 0.538010
v -0.365951 0.877976 0.513964
v -0.457056 0.742024 0.518053
v -0.487209 0.787986 0.494007
v -0.373207 0.832014 0.584920
v -0.403360 0.877976 0.560874
v -0.511322 0.960000 0.634829
v -0.511322 1.200000 0.634829
v -0.511322 0.960000 0.584829
v -0.511322 1.200000 0.584829
v -0.461322 0.960000 0.634829
v -0.461322 1.200000 0.634829
v -0.461322 0.960000 0.584829
v -0.461322 1.200000 0.584829
v -0.173667 0.742024 0.606563
v -0.211267 0.787986 0.597981
v -0.069109 0.832014 0.630428
v -0.106710 0.877976 0.621846
v -0.187018 0.742024 0.665059
v -0.224618 0.787986 0.656477
v -0.082461 0.832014 0.688924
v -0.120061 0.877976 0.680341
v -0.198566 0.960000 0.785444
v -0.198566 1.200000 0.785444
v -0.198566 0.960000 0.735444
v -0.198566 1.200000 0.735444
v -0.148566 0.960000 0.785444
v -0.148566 1.200000 0.785444
v -0.148566 0.960000 0.735444
v -0.148566 1.200000 0.735444
v 0.106710 0.742024 0.621846
v 0.069109 0.787986 0.630428
v 0.211267 0.832014 0.597981
v 0.173667 0.877976 0.606563
v 0.120061 0.742024 0.680341
v 0.082461 0.787986 0.688924
v 0.224618 0.832014 0.656477
v 0.187018 0.877976 0.665059
v 0.148566 0.960000 0.785444
v 0.148566 1.200000 0.785444
v 0.148566 0.960000 0.735444
v 0.148566 1.200000 0.735444
v 0.198566 0.960000 0.785444
v 0.198566 1.200000 0.785444
v 0.198566 0.960000 0.735444
v 0.198566 1.200000 0.735444
v 0.365951 0.742024 0.513964
v 0.335798 0.787986 0.538010
v 0.449799 0.832014 0.447097
v 0.419646 0.877976 0.471144
v 0.403360 0.742024 0.560874
v 0.373207 0.787986 0.584920
v 0.487209 0.832014 0.494007
v 0.457056 0.877976 0.518053
v 0.461322 0.960000 0.634829
v 0.461322 1.200000 0.634829
v 0.461322 0.960000 0.584829
v 0.461322 1.200000 0.584829
v 0.511322 0.960000 0.634829
v 0.511322 1.200000 0.634829
v 0.511322 0.960000 0.584829
v 0.511322 1.200000 0.584829
v 0.552711 0.742024 0.304286
v 0.535977 0.787986 0.339033
v 0.599243 0.832014 0.207660
v 0.582510 0.877976 0.242408
v 0.606769 0.742024 0.330319
v 0.590035 0.787986 0.365066
v 0.653302 0.832014 0.233693
v 0.636568 0.877976 0.268441
v 0.677756 0.960000 0.363429
v 0.677756 1.200000 0.363429
v 0.677756 0.960000 0.313429
v 0.677756 1.200000 0.313429
v 0.727756 0.960000 0.363429
v 0.727756 1.200000 0.363429
v 0.727756 0.960000 0.313429
v 0.727756 1.200000 0.313429
v 0.000000 0.920000 -0.820000
v 0.000000 0.980000 -0.820000
v 0.355785 0.920000 -0.738794
v 0.355785 0.980000 -0.738794
v 0.641102 0.920000 -0.511262
v 0.641102 0.980000 -0.511262
v 0.799441 0.920000 -0.182467
v 0.799441 0.980000 -0.182467
v 0.799441 0.920000 0.182467
v 0.799441 0.980000 0.182467
v 0.641102 0.920000 0.511262
v 0.641102 0.980000 0.511262
v 0.355785 0.920000 0.738794
v 0.355785 0.980000 0.738794
v 0.000000 0.920000 0.820000
v 0.000000 0.980000 0.820000
v -0.355785 0.920000 0.738794
v -0.355785 0.980000 0.738794
v -0.641102 0.920000 0.511262
v -0.641102 0.980000 0.511262
v -0.799441 0.920000 0.182467
v -0.799441 0.980000 0.182467
v -0.799441 0.920000 -0.182467
v -0.799441 0.980000 -0.182467
v -0.641102 0.920000 -0.511262
v -0.641102 0.980000 -0.511262
v -0.355785 0.920000 -0.738794
v -0.355785 0.980000 -0.738794
v 0.000000 1.170000 -0.800000
v 0.000000 1.210000 -0.800000
v 0.347107 1.170000 -0.720775
v 0.347107 1.210000 -0.720775
v 0.625465 1.170000 -0.498792
v 0.625465 1.210000 -0.498792
v 0.779942 1.170000 -0.178017
v 0.779942 1.210000 -0.178017
v 0.779942 1.170000 0.178017
v 0.779942 1.210000 0.178017
v 0.625465 1.170000 0.498792
v 0.625465 1.210000 0.498792
v 0.347107 1.170000 0.720775
v 0.347107 1.210000 0.720775
v 0.000000 1.170000 0.800000
v 0.000000 1.210000 0.800000
v -0.347107 1.170000 0.720775
v -0.347107 1.210000 0.720775
v -0.625465 1.170000 0.498792
v -0.625465 1.210000 0.498792
v -0.779942 1.170000 0.178017
v -0.779942 1.210000 0.178017
v -0.779942 1.170000 -0.178017
v -0.779942 1.210000 -0.178017
v -0.625465 1.170000 -0.498792
v -0.625465 1.210000 -0.498792
v -0.347107 1.170000 -0.720775
v -0.347107 1.210000 -0.720775
v 0.000000 0.950000 -0.580000
v 0.000000 2.650000 -0.160000
v 0.251653 0.950000 -0.522562
v 0.069421 2.650000 -0.144155
v 0.453462 0.950000 -0.361624
v 0.125093 2.650000 -0.099758
v 0.565458 0.950000 -0.129062
v 0.155988 2.650000 -0.035603
v 0.565458 0.950000 0.129062
v 0.155988 2.650000 0.035603
v 0.453462 0.950000 0.361624
v 0.125093 2.650000 0.099758
v 0.251653 0.950000 0.522562
v 0.069421 2.650000 0.144155
v 0.000000 0.950000 0.580000
v 0.000000 2.650000 0.160000
v -0.251653 0.950000 0.522562
v -0.069421 2.650000 0.144155
v -0.453462 0.950000 0.361624
v -0.125093 2.650000 0.099758
v -0.565458 0.950000 0.129062
v -0.155988 2.650000 0.035603
v -0.565458 0.950000 -0.129062
v -0.155988 2.650000 -0.035603
v -0.453462 0.950000 -0.361624
v -0.125093 2.650000 -0.099758
v -0.251653 0.950000 -0.522562
v -0.069421 2.650000 -0.144155
v 0.000000 1.355000 -0.490000
v 0.000000 1.395000 -0.490000
v 0.212603 1.355000 -0.441475
v 0.212603 1.395000 -0.441475
v 0.383097 1.355000 -0.305510
v 0.383097 1.395000 -0.305510
v 0.477715 1.355000 -0.109035
v 0.477715 1.395000 -0.109035
v 0.477715 1.355000 0.109035
v 0.477715 1.395000 0.109035
v 0.383097 1.355000 0.305510
v 0.383097 1.395000 0.305510
v 0.212603 1.355000 0.441475
v 0.212603 1.395000 0.441475
v 0.000000 1.355000 0.490000
v 0.000000 1.395000 0.490000
v -0.212603 1.355000 0.441475
v -0.212603 1.395000 0.441475
v -0.383097 1.355000 0.305510
v -0.383097 1.395000 0.305510
v -0.477715 1.355000 0.109035
v -0.477715 1.395000 0.109035
v -0.477715 1.355000 -0.109035
v -0.477715 1.395000 -0.109035
v -0.383097 1.355000 -0.305510
v -0.383097 1.395000 -0.305510
v -0.212603 1.355000 -0.441475
v -0.212603 1.395000 -0.441475
v 0.000000 1.780000 -0.385000
v 0.000000 1.820000 -0.385000
v 0.167045 1.780000 -0.346873
v 0.167045 1.820000 -0.346873
v 0.301005 1.780000 -0.240044
v 0.301005 1.820000 -0.240044
v 0.375347 1.780000 -0.085671
v 0.375347 1.820000 -0.085671
v 0.375347 1.780000 0.085671
v 0.375347 1.820000 0.085671
v 0.301005 1.780000 0.240044
v 0.301005 1.820000 0.240044
v 0.167045 1.780000 0.346873
v 0.167045 1.820000 0.346873
v 0.000000 1.780000 0.385000
v 0.000000 1.820000 0.385000
v -0.167045 1.780000 0.346873
v -0.167045 1.820000 0.346873
v -0.301005 1.780000 0.240044
v -0.301005 1.820000 0.240044
v -0.375347 1.780000 0.085671
v -0.375347 1.820000 0.085671
v -0.375347 1.780000 -0.085671
v -0.375347 1.820000 -0.085671
v -0.301005 1.780000 -0.240044
v -0.301005 1.820000 -0.240044
v -0.167045 1.780000 -0.346873
v -0.167045 1.820000 -0.346873
v 0.000000 2.205000 -0.280000
v 0.000000 2.245000 -0.280000
v 0.121487 2.205000 -0.252271
v 0.121487 2.245000 -0.252271
v 0.218913 2.205000 -0.174577
v 0.218913 2.245000 -0.174577
v 0.272980 2.205000 -0.062306
v 0.272980 2.245000 -0.062306
v 0.272980 2.205000 0.062306
v 0.272980 2.245000 0.062306
v 0.218913 2.205000 0.174577
v 0.218913 2.245000 0.174577
v 0.121487 2.205000 0.252271
v 0.121487 2.245000 0.252271
v 0.000000 2.205000 0.280000
v 0.000000 2.245000 0.280000
v -0.121487 2.205000 0.252271
v -0.121487 2.245000 0.252271
v -0.218913 2.205000 0.174577
v -0.218913 2.245000 0.174577
v -0.272980 2.205000 0.062306
v -0.272980 2.245000 0.062306
v -0.272980 2.205000 -0.062306
v -0.272980 2.245000 -0.062306
v -0.218913 2.205000 -0.174577
v -0.218913 2.245000 -0.174577
v -0.121487 2.205000 -0.252271
v -0.121487 2.245000 -0.252271
v 0.000000 2.600000 -0.180000
v 0.078099 2.600000 -0.162174
v 0.140730 2.600000 -0.112228
v 0.175487 2.600000 -0.040054
v 0.175487 2.600000 0.040054
v 0.140730 2.600000 0.112228
v 0.078099 2.600000 0.162174
v 0.000000 2.600000 0.180000
v -0.078099 2.600000 0.162174
v -0.140730 2.600000 0.112228
v -0.175487 2.600000 0.040054
v -0.175487 2.600000 -0.040054
v -0.140730 2.600000 -0.112228
v -0.078099 2.600000 -0.162174
v 0.000000 2.900000 0.000000
v 0.000000 2.880000 -0.030000
v 0.000000 3.120000 -0.030000
v 0.025981 2.880000 -0.015000
v 0.025981 3.120000 -0.015000
v 0.025981 2.880000 0.015000
v 0.025981 3.120000 0.015000
v 0.000000 2.880000 0.030000
v 0.000000 3.120000 0.030000
v -0.025981 2.880000 0.015000
v -0.025981 3.120000 0.015000
v -0.025981 2.880000 -0.015000
v -0.025981 3.120000 -0.015000
v -0.060000 2.190000 0.730000
v -0.060000 2.310000 0.730000
v -0.060000 2.190000 0.070000
v -0.060000 2.310000 0.070000
v 0.060000 2.190000 0.730000
v 0.060000 2.310000 0.730000
v 0.060000 2.190000 0.070000
v 0.060000 2.310000 0.070000
v 0.000000 2.360000 0.510000
v 0.000000 2.360000 0.690000
v 0.077782 2.327782 0.510000
v 0.077782 2.327782 0.690000
v 0.110000 2.250000 0.510000
v 0.110000 2.250000 0.690000
v 0.077782 2.172218 0.510000
v 0.077782 2.172218 0.690000
v 0.000000 2.140000 0.510000
v 0.000000 2.140000 0.690000
v -0.077782 2.172218 0.510000
v -0.077782 2.172218 0.690000
v -0.110000 2.250000 0.510000
v -0.110000 2.250000 0.690000
v -0.077782 2.327782 0.510000
v -0.077782 2.327782 0.690000
v -0.583363 1.701992 0.705000
v 0.548008 2.833363 0.705000
v -0.583363 1.701992 0.655000
v 0.548008 2.833363 0.655000
v -0.548008 1.666637 0.705000
v 0.583363 2.798008 0.705000
v -0.548008 1.666637 0.655000
v 0.583363 2.798008 0.655000
v -0.675287 1.793916 0.730000
v 0.456084 2.925287 0.730000
v -0.675287 1.793916 0.690000
v 0.456084 2.925287 0.690000
v -0.654074 1.772703 0.730000
v 0.477297 2.904074 0.730000
v -0.654074 1.772703 0.690000
v 0.477297 2.904074 0.690000
v -0.477297 1.595926 0.730000
v 0.654074 2.727297 0.730000
v -0.477297 1.595926 0.690000
v 0.654074 2.727297 0.690000
v -0.456084 1.574713 0.730000
v 0.675287 2.706084 0.730000
v -0.456084 1.574713 0.690000
v 0.675287 2.706084 0.690000
v -0.353553 1.924731 0.725000
v -0.325269 1.896447 0.725000
v -0.353553 1.924731 0.695000
v -0.325269 1.896447 0.695000
v -0.579828 1.698457 0.725000
v -0.551543 1.670172 0.725000
v -0.579828 1.698457 0.695000
v -0.551543 1.670172 0.695000
v -0.212132 2.066152 0.725000
v -0.183848 2.037868 0.725000
v -0.212132 2.066152 0.695000
v -0.183848 2.037868 0.695000
v -0.438406 1.839878 0.725000
v -0.410122 1.811594 0.725000
v -0.438406 1.839878 0.695000
v -0.410122 1.811594 0.695000
v -0.070711 2.207573 0.725000
v -0.042426 2.179289 0.725000
v -0.070711 2.207573 0.695000
v -0.042426 2.179289 0.695000
v -0.296985 1.981299 0.725000
v -0.268701 1.953015 0.725000
v -0.296985 1.981299 0.695000
v -0.268701 1.953015 0.695000
v 0.268701 2.546985 0.725000
v 0.296985 2.518700 0.725000
v 0.268701 2.546985 0.695000
v 0.296985 2.518700 0.695000
v 0.042426 2.320711 0.725000
v 0.070711 2.292426 0.725000
v 0.042426 2.320711 0.695000
v 0.070711 2.292426 0.695000
v 0.410122 2.688406 0.725000
v 0.438406 2.660122 0.725000
v 0.410122 2.688406 0.695000
v 0.438406 2.660122 0.695000
v 0.183848 2.462132 0.725000
v 0.212132 2.433848 0.725000
v 0.183848 2.462132 0.695000
v 0.212132 2.433848 0.695000
v 0.551543 2.829828 0.725000
v 0.579828 2.801543 0.725000
v 0.551543 2.829828 0.695000
v 0.579828 2.801543 0.695000
v 0.325269 2.603553 0.725000
v 0.353553 2.575269 0.725000
v 0.325269 2.603553 0.695000
v 0.353553 2.575269 0.695000
v -0.548008 2.833363 0.705000
v 0.583363 1.701992 0.705000
v -0.548008 2.833363 0.655000
v 0.583363 1.701992 0.655000
v -0.583363 2.798008 0.705000
v 0.548008 1.666637 0.705000
v -0.583363 2.798008 0.655000
v 0.548008 1.666637 0.655000
v -0.456084 2.925287 0.730000
v 0.675287 1.793916 0.730000
v -0.456084 2.925287 0.690000
v 0.675287 1.793916 0.690000
v -0.477297 2.904074 0.730000
v 0.654074 1.772703 0.730000
v -0.477297 2.904074 0.690000
v 0.654074 1.772703 0.690000
v -0.654074 2.727297 0.730000
v 0.477297 1.595926 0.730000
v -0.654074 2.727297 0.690000
v 0.477297 1.595926 0.690000
v -0.675287 2.706084 0.730000
v 0.456084 1.574713 0.730000
v -0.675287 2.706084 0.690000
v 0.456084 1.574713 0.690000
v -0.325269 2.603553 0.725000
v -0.353553 2.575269 0.725000
v -0.325269 2.603553 0.695000
v -0.353553 2.575269 0.695000
v -0.551543 2.829828 0.725000
v -0.579828 2.801543 0.725000
v -0.551543 2.829828 0.695000
v -0.579828 2.801543 0.695000
v -0.183848 2.462132 0.725000
v -0.212132 2.433848 0.725000
v -0.183848 2.462132 0.695000
v -0.212132 2.433848 0.695000
v -0.410122 2.688406 0.725000
v -0.438406 2.660122 0.725000
v -0.410122 2.688406 0.695000
v -0.438406 2.660122 0.695000
v -0.042426 2.320711 0.725000
v -0.070711 2.292426 0.725000
v -0.042426 2.320711 0.695000
v -0.070711 2.292426 0.695000
v -0.268701 2.546985 0.725000
v -0.296985 2.518700 0.725000
v -0.268701 2.546985 0.695000
v -0.296985 2.518700 0.695000
v 0.296985 1.981299 0.725000
v 0.268701 1.953015 0.725000
v 0.296985 1.981299 0.695000
v 0.268701 1.953015 0.695000
v 0.070711 2.207573 0.725000
v 0.042426 2.179289 0.725000
v 0.070711 2.207573 0.695000
v 0.042426 2.179289 0.695000
v 0.438406 1.839878 0.725000
v 0.410122 1.811594 0.725000
v 0.438406 1.839878 0.695000
v 0.410122 1.811594 0.695000
v 0.212132 2.066152 0.725000
v 0.183848 2.037868 0.725000
v 0.212132 2.066152 0.695000
v 0.183848 2.037868 0.695000
v 0.579828 1.698457 0.725000
v 0.551543 1.670172 0.725000
v 0.579828 1.698457 0.695000
v 0.551543 1.670172 0.695000
v 0.353553 1.924731 0.725000
v 0.325269 1.896447 0.725000
v 0.353553 1.924731 0.695000
v 0.325269 1.896447 0.695000
vn 0.2225 -0.0000 -0.9749
vn 0.6235 -0.0000 -0.7818
vn 0.9010 -0.0000 -0.4339
vn 1.0000 -0.0000 -0.0000
vn 0.9010 -0.0000 0.4339
vn 0.6235 -0.0000 0.7818
vn 0.2225 -0.0000 0.9749
vn -0.2225 -0.0000 0.9749
vn -0.6235 -0.0000 0.7818
vn -0.9010 -0.0000 0.4339
vn -1.0000 -0.0000 -0.0000
vn -0.9010 -0.0000 -0.4339
vn -0.0000 1.0000 -0.0000
vn -0.6235 -0.0000 -0.7818
vn -0.2225 -0.0000 -0.9749
vn -0.0000 -1.0000 -0.0000
vn -0.0000 -0.0000 -1.0000
vn -0.0000 -0.0000 1.0000
vn -0.0000 0.6428 -0.7660
vn -0.0000 -0.6428 0.7660
vn -0.0000 -0.7660 -0.6428
vn -0.0000 0.7660 0.6428
vn -0.3324 0.6428 -0.6902
vn 0.3324 -0.6428 0.6902
vn -0.2789 -0.7660 -0.5791
vn 0.2789 0.7660 0.5791
vn -0.5989 0.6428 -0.4776
vn 0.5989 -0.6428 0.4776
vn -0.5026 -0.7660 -0.4008
vn 0.5026 0.7660 0.4008
vn -0.7468 0.6428 -0.1705
vn 0.7468 -0.6428 0.1705
vn -0.6267 -0.7660 -0.1430
vn 0.6267 0.7660 0.1430
vn -0.7468 0.6428 0.1705
vn 0.7468 -0.6428 -0.1705
vn -0.6267 -0.7660 0.1430
vn 0.6267 0.7660 -0.1430
vn -0.5989 0.6428 0.4776
vn 0.5989 -0.6428 -0.4776
vn -0.5026 -0.7660 0.4008
vn 0.5026 0.7660 -0.4008
vn -0.3324 0.6428 0.6902
vn 0.3324 -0.6428 -0.6902
vn -0.2789 -0.7660 0.5791
vn 0.2789 0.7660 -0.5791
vn -0.0000 0.6428 0.7660
vn -0.0000 -0.6428 -0.7660
vn -0.0000 -0.7660 0.6428
vn -0.0000 0.7660 -0.6428
vn 0.3324 0.6428 0.6902
vn -0.3324 -0.6428 -0.6902
vn 0.2789 -0.7660 0.5791
vn -0.2789 0.7660 -0.5791
vn 0.5989 0.6428 0.4776
vn -0.5989 -0.6428 -0.4776
vn 0.5026 -0.7660 0.4008
vn -0.5026 0.7660 -0.4008
vn 0.7468 0.6428 0.1705
vn -0.7468 -0.6428 -0.1705
vn 0.6267 -0.7660 0.1430
vn -0.6267 0.7660 -0.1430
vn 0.7468 0.6428 -0.1705
vn -0.7468 -0.6428 0.1705
vn 0.6267 -0.7660 -0.1430
vn -0.6267 0.7660 0.1430
vn 0.5989 0.6428 -0.4776
vn -0.5989 -0.6428 0.4776
vn 0.5026 -0.7660 -0.4008
vn -0.5026 0.7660 0.4008
vn 0.3324 0.6428 -0.6902
vn -0.3324 -0.6428 0.6902
vn 0.2789 -0.7660 -0.5791
vn -0.2789 0.7660 0.5791
vn 0.2163 0.2342 -0.9478
vn 0.6062 0.2342 -0.7601
vn 0.8759 0.2342 -0.4218
vn 0.9722 0.2342 -0.0000
vn 0.8759 0.2342 0.4218
vn 0.6062 0.2342 0.7601
vn 0.2163 0.2342 0.9478
vn -0.2163 0.2342 0.9478
vn -0.6062 0.2342 0.7601
vn -0.8759 0.2342 0.4218
vn -0.9722 0.2342 -0.0000
vn -0.8759 0.2342 -0.4218
vn -0.6062 0.2342 -0.7601
vn -0.2163 0.2342 -0.9478
vn 0.1921 0.5049 -0.8415
vn 0.5382 0.5049 -0.6749
vn 0.7777 0.5049 -0.3745
vn 0.8632 0.5049 -0.0000
vn 0.7777 0.5049 0.3745
vn 0.5382 0.5049 0.6749
vn 0.1921 0.5049 0.8415
vn -0.1921 0.5049 0.8415
vn -0.5382 0.5049 0.6749
vn -0.7777 0.5049 0.3745
vn -0.8632 0.5049 -0.0000
vn -0.7777 0.5049 -0.3745
vn -0.5382 0.5049 -0.6749
vn -0.1921 0.5049 -0.8415
vn 0.5000 -0.0000 -0.8660
vn 0.5000 -0.0000 0.8660
vn -0.5000 -0.0000 0.8660
vn -0.5000 -0.0000 -0.8660
vn 0.3827 0.9239 -0.0000
vn 0.9239 0.3827 -0.0000
vn 0.9239 -0.3827 -0.0000
vn 0.3827 -0.9239 -0.0000
vn -0.3827 -0.9239 -0.0000
vn -0.9239 -0.3827 -0.0000
vn -0.9239 0.3827 -0.0000
vn -0.3827 0.9239 -0.0000
vn -0.7071 0.7071 -0.0000
vn 0.7071 -0.7071 -0.0000
vn -0.7071 -0.7071 -0.0000
vn 0.7071 0.7071 -0.0000
vt 1.000000 0.500000
vt 1.000000 1.000000
vt 0.928571 1.000000
vt 0.928571 0.500000
vt 0.857143 1.000000
vt 0.857143 0.500000
vt 0.785714 1.000000
vt 0.785714 0.500000
vt 0.714286 1.000000
vt 0.714286 0.500000
vt 0.642857 1.000000
vt 0.642857 0.500000
vt 0.571428 1.000000
vt 0.571428 0.500000
vt 0.500000 1.000000
vt 0.500000 0.500000
vt 0.428571 1.000000
vt 0.428571 0.500000
vt 0.357143 1.000000
vt 0.357143 0.500000
vt 0.285714 1.000000
vt 0.285714 0.500000
vt 0.214286 1.000000
vt 0.214286 0.500000
vt 0.142857 1.000000
vt 0.142857 0.500000
vt 0.354132 0.466233
vt 0.250000 0.490000
vt 0.145868 0.466233
vt 0.062360 0.399638
vt 0.016017 0.303405
vt 0.016017 0.196595
vt 0.062360 0.100362
vt 0.145868 0.033767
vt 0.250000 0.010000
vt 0.354132 0.033767
vt 0.437640 0.100362
vt 0.483983 0.196595
vt 0.483983 0.303405
vt 0.437640 0.399638
vt 0.071428 1.000000
vt 0.071428 0.500000
vt -0.000000 1.000000
vt -0.000000 0.500000
vt 0.750000 0.490000
vt 0.854132 0.466233
vt 0.937640 0.399638
vt 0.983983 0.303405
vt 0.983983 0.196595
vt 0.937640 0.100362
vt 0.854132 0.033767
vt 0.750000 0.010000
vt 0.645868 0.033767
vt 0.562360 0.100362
vt 0.516017 0.196595
vt 0.516017 0.303405
vt 0.562360 0.399638
vt 0.645868 0.466233
vt 0.354132 0.466233
vt 0.145868 0.466233
vt 0.062360 0.399638
vt 0.016017 0.303405
vt 0.016017 0.196595
vt 0.062360 0.100362
vt 0.145868 0.033767
vt 0.250000 0.010000
vt 0.354132 0.033767
vt 0.483983 0.196595
vt 0.483983 0.303405
vt 0.854132 0.466233
vt 0.983983 0.303405
vt 0.983983 0.196595
vt 0.854132 0.033767
vt 0.750000 0.010000
vt 0.645868 0.033767
vt 0.516017 0.196595
vt 0.516017 0.303405
vt 0.645868 0.466233
vt 0.375000 0.000000
vt 0.625000 0.000000
vt 0.625000 0.250000
vt 0.375000 0.250000
vt 0.625000 0.500000
vt 0.375000 0.500000
vt 0.625000 0.750000
vt 0.375000 0.750000
vt 0.625000 1.000000
vt 0.375000 1.000000
vt 0.125000 0.500000
vt 0.125000 0.750000
vt 0.875000 0.500000
vt 0.875000 0.750000
vt 0.354132 0.466233
vt 0.145868 0.466233
vt 0.145868 0.033767
vt 0.354132 0.033767
vt 0.016017 0.196595
vt 0.062360 0.399638
vt 0.062360 0.100362
vt 0.437640 0.100362
vt 0.437640 0.399638
vt 0.854132 0.033767
vt 0.645868 0.033767
vt 0.016017 0.303405
vt 0.354132 0.466232
vt 0.250000 0.490000
vt 0.145868 0.466232
vt 0.016017 0.196595
vt 0.145868 0.033768
vt 0.250000 0.010000
vt 0.354132 0.033768
vt 0.750000 0.490000
vt 0.854132 0.466232
vt 0.854132 0.033768
vt 0.750000 0.010000
vt 0.645868 0.033768
vt 0.645868 0.466232
vt 0.250000 0.250000
vt 0.354132 0.033767
vt 0.145868 0.033767
vt 0.833333 1.000000
vt 0.833333 0.500000
vt 0.666667 1.000000
vt 0.666667 0.500000
vt 0.500000 1.000000
vt 0.500000 0.500000
vt 0.333333 1.000000
vt 0.333333 0.500000
vt 0.457846 0.370000
vt 0.042154 0.370000
vt 0.042154 0.130000
vt 0.457846 0.130000
vt 0.166667 1.000000
vt 0.166667 0.500000
vt -0.000000 1.000000
vt -0.000000 0.500000
vt 0.957846 0.370000
vt 0.957846 0.130000
vt 0.542154 0.130000
vt 0.542154 0.370000
vt 0.875000 1.000000
vt 0.750000 1.000000
vt 0.750000 0.500000
vt 0.500000 1.000000
vt 0.500000 0.500000
vt 0.250000 1.000000
vt 0.250000 0.500000
vt 0.419706 0.419706
vt 0.080294 0.419706
vt 0.010000 0.250000
vt 0.080294 0.080294
vt 0.419706 0.080294
vt 0.490000 0.250000
vt 0.125000 1.000000
vt 0.000000 1.000000
vt 0.000000 0.500000
vt 0.919706 0.419706
vt 0.990000 0.250000
vt 0.919706 0.080294
vt 0.580294 0.080294
vt 0.510000 0.250000
vt 0.580294 0.419706
s 0
usemtl stone
f 1/1/1 2/2/1 4/3/1 3/4/1
f 3/4/2 4/3/2 6/5/2 5/6/2
f 5/6/3 6/5/3 8/7/3 7/8/3
f 7/8/4 8/7/4 10/9/4 9/10/4
f 9/10/5 10/9/5 12/11/5 11/12/5
f 11/12/6 12/11/6 14/13/6 13/14/6
f 13/14/7 14/13/7 16/15/7 15/16/7
f 15/16/8 16/15/8 18/17/8 17/18/8
f 17/18/9 18/17/9 20/19/9 19/20/9
f 19/20/10 20/19/10 22/21/10 21/22/10
f 21/22/11 22/21/11 24/23/11 23/24/11
f 23/24/12 24/23/12 26/25/12 25/26/12
f 4/27/13 2/28/13 28/29/13 26/30/13 24/31/13 22/32/13 20/33/13 18/34/13 16/35/13 14/36/13 12/37/13 10/38/13 8/39/13 6/40/13
f 25/26/14 26/25/14 28/41/14 27/42/14
f 27/42/15 28/41/15 2/43/15 1/44/15
f 1/45/16 3/46/16 5/47/16 7/48/16 9/49/16 11/50/16 13/51/16 15/52/16 17/53/16 19/54/16 21/55/16 23/56/16 25/57/16 27/58/16
usemtl stone_dk
f 29/1/1 30/2/1 32/3/1 31/4/1
f 31/4/2 32/3/2 34/5/2 33/6/2
f 33/6/3 34/5/3 36/7/3 35/8/3
f 35/8/4 36/7/4 38/9/4 37/10/4
f 37/10/5 38/9/5 40/11/5 39/12/5
f 39/12/6 40/11/6 42/13/6 41/14/6
f 41/14/7 42/13/7 44/15/7 43/16/7
f 43/16/8 44/15/8 46/17/8 45/18/8
f 45/18/9 46/17/9 48/19/9 47/20/9
f 47/20/10 48/19/10 50/21/10 49/22/10
f 49/22/11 50/21/11 52/23/11 51/24/11
f 51/24/12 52/23/12 54/25/12 53/26/12
f 32/59/13 30/28/13 56/60/13 54/61/13 52/62/13 50/63/13 48/64/13 46/65/13 44/66/13 42/67/13 40/37/13 38/68/13 36/69/13 34/40/13
f 53/26/14 54/25/14 56/41/14 55/42/14
f 55/42/15 56/41/15 30/43/15 29/44/15
f 29/45/16 31/70/16 33/47/16 35/71/16 37/72/16 39/50/16 41/73/16 43/74/16 45/75/16 47/54/16 49/76/16 51/77/16 53/57/16 55/78/16
f 57/1/1 58/2/1 60/3/1 59/4/1
f 59/4/2 60/3/2 62/5/2 61/6/2
f 61/6/3 62/5/3 64/7/3 63/8/3
f 63/8/4 64/7/4 66/9/4 65/10/4
f 65/10/5 66/9/5 68/11/5 67/12/5
f 67/12/6 68/11/6 70/13/6 69/14/6
f 69/14/7 70/13/7 72/15/7 71/16/7
f 71/16/8 72/15/8 74/17/8 73/18/8
f 73/18/9 74/17/9 76/19/9 75/20/9
f 75/20/10 76/19/10 78/21/10 77/22/10
f 77/22/11 78/21/11 80/23/11 79/24/11
f 79/24/12 80/23/12 82/25/12 81/26/12
f 60/59/13 58/28/13 84/60/13 82/61/13 80/62/13 78/63/13 76/64/13 74/65/13 72/66/13 70/67/13 68/37/13 66/68/13 64/69/13 62/40/13
f 81/26/14 82/25/14 84/41/14 83/42/14
f 83/42/15 84/41/15 58/43/15 57/44/15
f 57/45/16 59/70/16 61/47/16 63/71/16 65/72/16 67/50/16 69/73/16 71/74/16 73/75/16 75/54/16 77/76/16 79/77/16 81/57/16 83/78/16
usemtl charwood
f 85/79/11 86/80/11 88/81/11 87/82/11
f 87/82/17 88/81/17 92/83/17 91/84/17
f 91/84/4 92/83/4 90/85/4 89/86/4
f 89/86/18 90/85/18 86/87/18 85/88/18
f 87/89/16 91/84/16 89/86/16 85/90/16
f 92/83/13 88/91/13 86/92/13 90/85/13
usemtl soot
f 93/79/11 94/80/11 96/81/11 95/82/11
f 95/82/17 96/81/17 100/83/17 99/84/17
f 99/84/4 100/83/4 98/85/4 97/86/4
f 97/86/18 98/85/18 94/87/18 93/88/18
f 95/89/16 99/84/16 97/86/16 93/90/16
f 100/83/13 96/91/13 94/92/13 98/85/13
f 101/79/11 102/80/11 104/81/11 103/82/11
f 103/82/17 104/81/17 108/83/17 107/84/17
f 107/84/4 108/83/4 106/85/4 105/86/4
f 105/86/18 106/85/18 102/87/18 101/88/18
f 103/89/16 107/84/16 105/86/16 101/90/16
f 108/83/13 104/91/13 102/92/13 106/85/13
usemtl wood_dk
f 109/79/11 110/80/11 112/81/11 111/82/11
f 111/82/19 112/81/19 116/83/19 115/84/19
f 115/84/4 116/83/4 114/85/4 113/86/4
f 113/86/20 114/85/20 110/87/20 109/88/20
f 111/89/21 115/84/21 113/86/21 109/90/21
f 116/83/22 112/91/22 110/92/22 114/85/22
f 117/79/11 118/80/11 120/81/11 119/82/11
f 119/82/17 120/81/17 124/83/17 123/84/17
f 123/84/4 124/83/4 122/85/4 121/86/4
f 121/86/18 122/85/18 118/87/18 117/88/18
f 119/89/16 123/84/16 121/86/16 117/90/16
f 124/83/13 120/91/13 118/92/13 122/85/13
f 125/79/10 126/80/10 128/81/10 127/82/10
f 127/82/23 128/81/23 132/83/23 131/84/23
f 131/84/3 132/83/3 130/85/3 129/86/3
f 129/86/24 130/85/24 126/87/24 125/88/24
f 127/89/25 131/84/25 129/86/25 125/90/25
f 132/83/26 128/91/26 126/92/26 130/85/26
f 133/79/11 134/80/11 136/81/11 135/82/11
f 135/82/17 136/81/17 140/83/17 139/84/17
f 139/84/4 140/83/4 138/85/4 137/86/4
f 137/86/18 138/85/18 134/87/18 133/88/18
f 135/89/16 139/84/16 137/86/16 133/90/16
f 140/83/13 136/91/13 134/92/13 138/85/13
f 141/79/9 142/80/9 144/81/9 143/82/9
f 143/82/27 144/81/27 148/83/27 147/84/27
f 147/84/2 148/83/2 146/85/2 145/86/2
f 145/86/28 146/85/28 142/87/28 141/88/28
f 143/89/29 147/84/29 145/86/29 141/90/29
f 148/83/30 144/91/30 142/92/30 146/85/30
f 149/79/11 150/80/11 152/81/11 151/82/11
f 151/82/17 152/81/17 156/83/17 155/84/17
f 155/84/4 156/83/4 154/85/4 153/86/4
f 153/86/18 154/85/18 150/87/18 149/88/18
f 151/89/16 155/84/16 153/86/16 149/90/16
f 156/83/13 152/91/13 150/92/13 154/85/13
f 157/79/8 158/80/8 160/81/8 159/82/8
f 159/82/31 160/81/31 164/83/31 163/84/31
f 163/84/1 164/83/1 162/85/1 161/86/1
f 161/86/32 162/85/32 158/87/32 157/88/32
f 159/89/33 163/84/33 161/86/33 157/90/33
f 164/83/34 160/91/34 158/92/34 162/85/34
f 165/79/11 166/80/11 168/81/11 167/82/11
f 167/82/17 168/81/17 172/83/17 171/84/17
f 171/84/4 172/83/4 170/85/4 169/86/4
f 169/86/18 170/85/18 166/87/18 165/88/18
f 167/89/16 171/84/16 169/86/16 165/90/16
f 172/83/13 168/91/13 166/92/13 170/85/13
f 173/79/7 174/80/7 176/81/7 175/82/7
f 175/82/35 176/81/35 180/83/35 179/84/35
f 179/84/15 180/83/15 178/85/15 177/86/15
f 177/86/36 178/85/36 174/87/36 173/88/36
f 175/89/37 179/84/37 177/86/37 173/90/37
f 180/83/38 176/91/38 174/92/38 178/85/38
f 181/79/11 182/80/11 184/81/11 183/82/11
f 183/82/17 184/81/17 188/83/17 187/84/17
f 187/84/4 188/83/4 186/85/4 185/86/4
f 185/86/18 186/85/18 182/87/18 181/88/18
f 183/89/16 187/84/16 185/86/16 181/90/16
f 188/83/13 184/91/13 182/92/13 186/85/13
f 189/79/6 190/80/6 192/81/6 191/82/6
f 191/82/39 192/81/39 196/83/39 195/84/39
f 195/84/14 196/83/14 194/85/14 193/86/14
f 193/86/40 194/85/40 190/87/40 189/88/40
f 191/89/41 195/84/41 193/86/41 189/90/41
f 196/83/42 192/91/42 190/92/42 194/85/42
f 197/79/11 198/80/11 200/81/11 199/82/11
f 199/82/17 200/81/17 204/83/17 203/84/17
f 203/84/4 204/83/4 202/85/4 201/86/4
f 201/86/18 202/85/18 198/87/18 197/88/18
f 199/89/16 203/84/16 201/86/16 197/90/16
f 204/83/13 200/91/13 198/92/13 202/85/13
f 205/79/5 206/80/5 208/81/5 207/82/5
f 207/82/43 208/81/43 212/83/43 211/84/43
f 211/84/12 212/83/12 210/85/12 209/86/12
f 209/86/44 210/85/44 206/87/44 205/88/44
f 207/89/45 211/84/45 209/86/45 205/90/45
f 212/83/46 208/91/46 206/92/46 210/85/46
f 213/79/11 214/80/11 216/81/11 215/82/11
f 215/82/17 216/81/17 220/83/17 219/84/17
f 219/84/4 220/83/4 218/85/4 217/86/4
f 217/86/18 218/85/18 214/87/18 213/88/18
f 215/89/16 219/84/16 217/86/16 213/90/16
f 220/83/13 216/91/13 214/92/13 218/85/13
f 221/79/4 222/80/4 224/81/4 223/82/4
f 223/82/47 224/81/47 228/83/47 227/84/47
f 227/84/11 228/83/11 226/85/11 225/86/11
f 225/86/48 226/85/48 222/87/48 221/88/48
f 223/89/49 227/84/49 225/86/49 221/90/49
f 228/83/50 224/91/50 222/92/50 226/85/50
f 229/79/11 230/80/11 232/81/11 231/82/11
f 231/82/17 232/81/17 236/83/17 235/84/17
f 235/84/4 236/83/4 234/85/4 233/86/4
f 233/86/18 234/85/18 230/87/18 229/88/18
f 231/89/16 235/84/16 233/86/16 229/90/16
f 236/83/13 232/91/13 230/92/13 234/85/13
f 237/79/3 238/80/3 240/81/3 239/82/3
f 239/82/51 240/81/51 244/83/51 243/84/51
f 243/84/10 244/83/10 242/85/10 241/86/10
f 241/86/52 242/85/52 238/87/52 237/88/52
f 239/89/53 243/84/53 241/86/53 237/90/53
f 244/83/54 240/91/54 238/92/54 242/85/54
f 245/79/11 246/80/11 248/81/11 247/82/11
f 247/82/17 248/81/17 252/83/17 251/84/17
f 251/84/4 252/83/4 250/85/4 249/86/4
f 249/86/18 250/85/18 246/87/18 245/88/18
f 247/89/16 251/84/16 249/86/16 245/90/16
f 252/83/13 248/91/13 246/92/13 250/85/13
f 253/79/2 254/80/2 256/81/2 255/82/2
f 255/82/55 256/81/55 260/83/55 259/84/55
f 259/84/9 260/83/9 258/85/9 257/86/9
f 257/86/56 258/85/56 254/87/56 253/88/56
f 255/89/57 259/84/57 257/86/57 253/90/57
f 260/83/58 256/91/58 254/92/58 258/85/58
f 261/79/11 262/80/11 264/81/11 263/82/11
f 263/82/17 264/81/17 268/83/17 267/84/17
f 267/84/4 268/83/4 266/85/4 265/86/4
f 265/86/18 266/85/18 262/87/18 261/88/18
f 263/89/16 267/84/16 265/86/16 261/90/16
f 268/83/13 264/91/13 262/92/13 266/85/13
f 269/79/1 270/80/1 272/81/1 271/82/1
f 271/82/59 272/81/59 276/83/59 275/84/59
f 275/84/8 276/83/8 274/85/8 273/86/8
f 273/86/60 274/85/60 270/87/60 269/88/60
f 271/89/61 275/84/61 273/86/61 269/90/61
f 276/83/62 272/91/62 270/92/62 274/85/62
f 277/79/11 278/80/11 280/81/11 279/82/11
f 279/82/17 280/81/17 284/83/17 283/84/17
f 283/84/4 284/83/4 282/85/4 281/86/4
f 281/86/18 282/85/18 278/87/18 277/88/18
f 279/89/16 283/84/16 281/86/16 277/90/16
f 284/83/13 280/91/13 278/92/13 282/85/13
f 285/79/15 286/80/15 288/81/15 287/82/15
f 287/82/63 288/81/63 292/83/63 291/84/63
f 291/84/7 292/83/7 290/85/7 289/86/7
f 289/86/64 290/85/64 286/87/64 285/88/64
f 287/89/65 291/84/65 289/86/65 285/90/65
f 292/83/66 288/91/66 286/92/66 290/85/66
f 293/79/11 294/80/11 296/81/11 295/82/11
f 295/82/17 296/81/17 300/83/17 299/84/17
f 299/84/4 300/83/4 298/85/4 297/86/4
f 297/86/18 298/85/18 294/87/18 293/88/18
f 295/89/16 299/84/16 297/86/16 293/90/16
f 300/83/13 296/91/13 294/92/13 298/85/13
f 301/79/14 302/80/14 304/81/14 303/82/14
f 303/82/67 304/81/67 308/83/67 307/84/67
f 307/84/6 308/83/6 306/85/6 305/86/6
f 305/86/68 306/85/68 302/87/68 301/88/68
f 303/89/69 307/84/69 305/86/69 301/90/69
f 308/83/70 304/91/70 302/92/70 306/85/70
f 309/79/11 310/80/11 312/81/11 311/82/11
f 311/82/17 312/81/17 316/83/17 315/84/17
f 315/84/4 316/83/4 314/85/4 313/86/4
f 313/86/18 314/85/18 310/87/18 309/88/18
f 311/89/16 315/84/16 313/86/16 309/90/16
f 316/83/13 312/91/13 310/92/13 314/85/13
f 317/79/12 318/80/12 320/81/12 319/82/12
f 319/82/71 320/81/71 324/83/71 323/84/71
f 323/84/5 324/83/5 322/85/5 321/86/5
f 321/86/72 322/85/72 318/87/72 317/88/72
f 319/89/73 323/84/73 321/86/73 317/90/73
f 324/83/74 320/91/74 318/92/74 322/85/74
f 325/79/11 326/80/11 328/81/11 327/82/11
f 327/82/17 328/81/17 332/83/17 331/84/17
f 331/84/4 332/83/4 330/85/4 329/86/4
f 329/86/18 330/85/18 326/87/18 325/88/18
f 327/89/16 331/84/16 329/86/16 325/90/16
f 332/83/13 328/91/13 326/92/13 330/85/13
f 361/1/1 362/2/1 364/3/1 363/4/1
f 363/4/2 364/3/2 366/5/2 365/6/2
f 365/6/3 366/5/3 368/7/3 367/8/3
f 367/8/4 368/7/4 370/9/4 369/10/4
f 369/10/5 370/9/5 372/11/5 371/12/5
f 371/12/6 372/11/6 374/13/6 373/14/6
f 373/14/7 374/13/7 376/15/7 375/16/7
f 375/16/8 376/15/8 378/17/8 377/18/8
f 377/18/9 378/17/9 380/19/9 379/20/9
f 379/20/10 380/19/10 382/21/10 381/22/10
f 381/22/11 382/21/11 384/23/11 383/24/11
f 383/24/12 384/23/12 386/25/12 385/26/12
f 364/93/13 362/28/13 388/94/13 386/30/13 384/31/13 382/97/13 380/33/13 378/95/13 376/35/13 374/96/13 372/37/13 370/68/13 368/39/13 366/40/13
f 385/26/14 386/25/14 388/41/14 387/42/14
f 387/42/15 388/41/15 362/43/15 361/44/15
f 361/45/16 363/46/16 365/47/16 367/48/16 369/72/16 371/50/16 373/51/16 375/52/16 377/53/16 379/54/16 381/76/16 383/56/16 385/57/16 387/58/16
f 417/1/1 418/2/1 420/3/1 419/4/1
f 419/4/2 420/3/2 422/5/2 421/6/2
f 421/6/3 422/5/3 424/7/3 423/8/3
f 423/8/4 424/7/4 426/9/4 425/10/4
f 425/10/5 426/9/5 428/11/5 427/12/5
f 427/12/6 428/11/6 430/13/6 429/14/6
f 429/14/7 430/13/7 432/15/7 431/16/7
f 431/16/8 432/15/8 434/17/8 433/18/8
f 433/18/9 434/17/9 436/19/9 435/20/9
f 435/20/10 436/19/10 438/21/10 437/22/10
f 437/22/11 438/21/11 440/23/11 439/24/11
f 439/24/12 440/23/12 442/25/12 441/26/12
f 420/93/13 418/28/13 444/94/13 442/30/13 440/104/13 438/63/13 436/33/13 434/95/13 432/35/13 430/96/13 428/37/13 426/68/13 424/39/13 422/40/13
f 441/26/14 442/25/14 444/41/14 443/42/14
f 443/42/15 444/41/15 418/43/15 417/44/15
f 417/45/16 419/46/16 421/47/16 423/48/16 425/72/16 427/50/16 429/51/16 431/52/16 433/53/16 435/54/16 437/76/16 439/56/16 441/57/16 443/58/16
f 445/1/1 446/2/1 448/3/1 447/4/1
f 447/4/2 448/3/2 450/5/2 449/6/2
f 449/6/3 450/5/3 452/7/3 451/8/3
f 451/8/4 452/7/4 454/9/4 453/10/4
f 453/10/5 454/9/5 456/11/5 455/12/5
f 455/12/6 456/11/6 458/13/6 457/14/6
f 457/14/7 458/13/7 460/15/7 459/16/7
f 459/16/8 460/15/8 462/17/8 461/18/8
f 461/18/9 462/17/9 464/19/9 463/20/9
f 463/20/10 464/19/10 466/21/10 465/22/10
f 465/22/11 466/21/11 468/23/11 467/24/11
f 467/24/12 468/23/12 470/25/12 469/26/12
f 448/27/13 446/28/13 472/29/13 470/30/13 468/31/13 466/32/13 464/33/13 462/34/13 460/35/13 458/36/13 456/37/13 454/38/13 452/39/13 450/40/13
f 469/26/14 470/25/14 472/41/14 471/42/14
f 471/42/15 472/41/15 446/43/15 445/44/15
f 445/45/16 447/46/16 449/47/16 451/48/16 453/49/16 455/50/16 457/51/16 459/52/16 461/53/16 463/54/16 465/55/16 467/56/16 469/57/16 471/58/16
f 473/1/1 474/2/1 476/3/1 475/4/1
f 475/4/2 476/3/2 478/5/2 477/6/2
f 477/6/3 478/5/3 480/7/3 479/8/3
f 479/8/4 480/7/4 482/9/4 481/10/4
f 481/10/5 482/9/5 484/11/5 483/12/5
f 483/12/6 484/11/6 486/13/6 485/14/6
f 485/14/7 486/13/7 488/15/7 487/16/7
f 487/16/8 488/15/8 490/17/8 489/18/8
f 489/18/9 490/17/9 492/19/9 491/20/9
f 491/20/10 492/19/10 494/21/10 493/22/10
f 493/22/11 494/21/11 496/23/11 495/24/11
f 495/24/12 496/23/12 498/25/12 497/26/12
f 476/105/13 474/106/13 500/107/13 498/30/13 496/104/13 494/108/13 492/33/13 490/109/13 488/110/13 486/111/13 484/37/13 482/38/13 480/39/13 478/40/13
f 497/26/14 498/25/14 500/41/14 499/42/14
f 499/42/15 500/41/15 474/43/15 473/44/15
f 473/112/16 475/113/16 477/47/16 479/48/16 481/49/16 483/50/16 485/114/16 487/115/16 489/116/16 491/54/16 493/55/16 495/56/16 497/57/16 499/117/16
f 528/79/11 529/80/11 531/81/11 530/82/11
f 530/82/17 531/81/17 535/83/17 534/84/17
f 534/84/4 535/83/4 533/85/4 532/86/4
f 532/86/18 533/85/18 529/87/18 528/88/18
f 530/89/16 534/84/16 532/86/16 528/90/16
f 535/83/13 531/91/13 529/92/13 533/85/13
f 536/1/107 537/2/107 539/141/107 538/91/107
f 538/91/108 539/141/108 541/142/108 540/143/108
f 540/143/109 541/142/109 543/87/109 542/83/109
f 542/83/110 543/87/110 545/144/110 544/145/110
f 544/145/111 545/144/111 547/88/111 546/84/111
f 546/84/112 547/88/112 549/146/112 548/147/112
f 539/148/18 537/28/18 551/149/18 549/150/18 547/151/18 545/66/18 543/152/18 541/153/18
f 548/147/113 549/146/113 551/154/113 550/89/113
f 550/89/114 551/154/114 537/155/114 536/156/114
f 536/45/17 538/157/17 540/158/17 542/159/17 544/74/17 546/160/17 548/161/17 550/162/17
f 552/79/115 553/80/115 555/81/115 554/82/115
f 554/82/17 555/81/17 559/83/17 558/84/17
f 558/84/116 559/83/116 557/85/116 556/86/116
f 556/86/18 557/85/18 553/87/18 552/88/18
f 554/89/117 558/84/117 556/86/117 552/90/117
f 559/83/118 555/91/118 553/92/118 557/85/118
f 624/79/118 625/80/118 627/81/118 626/82/118
f 626/82/17 627/81/17 631/83/17 630/84/17
f 630/84/117 631/83/117 629/85/117 628/86/117
f 628/86/18 629/85/18 625/87/18 624/88/18
f 626/89/115 630/84/115 628/86/115 624/90/115
f 631/83/116 627/91/116 625/92/116 629/85/116
usemtl wood
f 333/1/1 334/2/1 336/3/1 335/4/1
f 335/4/2 336/3/2 338/5/2 337/6/2
f 337/6/3 338/5/3 340/7/3 339/8/3
f 339/8/4 340/7/4 342/9/4 341/10/4
f 341/10/5 342/9/5 344/11/5 343/12/5
f 343/12/6 344/11/6 346/13/6 345/14/6
f 345/14/7 346/13/7 348/15/7 347/16/7
f 347/16/8 348/15/8 350/17/8 349/18/8
f 349/18/9 350/17/9 352/19/9 351/20/9
f 351/20/10 352/19/10 354/21/10 353/22/10
f 353/22/11 354/21/11 356/23/11 355/24/11
f 355/24/12 356/23/12 358/25/12 357/26/12
f 336/93/13 334/28/13 360/94/13 358/30/13 356/31/13 354/32/13 352/33/13 350/95/13 348/35/13 346/96/13 344/37/13 342/38/13 340/39/13 338/40/13
f 357/26/14 358/25/14 360/41/14 359/42/14
f 359/42/15 360/41/15 334/43/15 333/44/15
f 333/45/16 335/46/16 337/47/16 339/48/16 341/49/16 343/50/16 345/51/16 347/52/16 349/53/16 351/54/16 353/55/16 355/56/16 357/57/16 359/58/16
f 560/79/115 561/80/115 563/81/115 562/82/115
f 562/82/17 563/81/17 567/83/17 566/84/17
f 566/84/116 567/83/116 565/85/116 564/86/116
f 564/86/18 565/85/18 561/87/18 560/88/18
f 562/89/117 566/84/117 564/86/117 560/90/117
f 567/83/118 563/91/118 561/92/118 565/85/118
f 568/79/115 569/80/115 571/81/115 570/82/115
f 570/82/17 571/81/17 575/83/17 574/84/17
f 574/84/116 575/83/116 573/85/116 572/86/116
f 572/86/18 573/85/18 569/87/18 568/88/18
f 570/89/117 574/84/117 572/86/117 568/90/117
f 575/83/118 571/91/118 569/92/118 573/85/118
f 576/79/118 577/80/118 579/81/118 578/82/118
f 578/82/17 579/81/17 583/83/17 582/84/17
f 582/84/117 583/83/117 581/85/117 580/86/117
f 580/86/18 581/85/18 577/87/18 576/88/18
f 578/89/115 582/84/115 580/86/115 576/90/115
f 583/83/116 579/91/116 577/92/116 581/85/116
f 584/79/118 585/80/118 587/81/118 586/82/118
f 586/82/17 587/81/17 591/83/17 590/84/17
f 590/84/117 591/83/117 589/85/117 588/86/117
f 588/86/18 589/85/18 585/87/18 584/88/18
f 586/89/115 590/84/115 588/86/115 584/90/115
f 591/83/116 587/91/116 585/92/116 589/85/116
f 592/79/118 593/80/118 595/81/118 594/82/118
f 594/82/17 595/81/17 599/83/17 598/84/17
f 598/84/117 599/83/117 597/85/117 596/86/117
f 596/86/18 597/85/18 593/87/18 592/88/18
f 594/89/115 598/84/115 596/86/115 592/90/115
f 599/83/116 595/91/116 593/92/116 597/85/116
f 600/79/118 601/80/118 603/81/118 602/82/118
f 602/82/17 603/81/17 607/83/17 606/84/17
f 606/84/117 607/83/117 605/85/117 604/86/117
f 604/86/18 605/85/18 601/87/18 600/88/18
f 602/89/115 606/84/115 604/86/115 600/90/115
f 607/83/116 603/91/116 601/92/116 605/85/116
f 608/79/118 609/80/118 611/81/118 610/82/118
f 610/82/17 611/81/17 615/83/17 614/84/17
f 614/84/117 615/83/117 613/85/117 612/86/117
f 612/86/18 613/85/18 609/87/18 608/88/18
f 610/89/115 614/84/115 612/86/115 608/90/115
f 615/83/116 611/91/116 609/92/116 613/85/116
f 616/79/118 617/80/118 619/81/118 618/82/118
f 618/82/17 619/81/17 623/83/17 622/84/17
f 622/84/117 623/83/117 621/85/117 620/86/117
f 620/86/18 621/85/18 617/87/18 616/88/18
f 618/89/115 622/84/115 620/86/115 616/90/115
f 623/83/116 619/91/116 617/92/116 621/85/116
f 632/79/118 633/80/118 635/81/118 634/82/118
f 634/82/17 635/81/17 639/83/17 638/84/17
f 638/84/117 639/83/117 637/85/117 636/86/117
f 636/86/18 637/85/18 633/87/18 632/88/18
f 634/89/115 638/84/115 636/86/115 632/90/115
f 639/83/116 635/91/116 633/92/116 637/85/116
f 640/79/118 641/80/118 643/81/118 642/82/118
f 642/82/17 643/81/17 647/83/17 646/84/17
f 646/84/117 647/83/117 645/85/117 644/86/117
f 644/86/18 645/85/18 641/87/18 640/88/18
f 642/89/115 646/84/115 644/86/115 640/90/115
f 647/83/116 643/91/116 641/92/116 645/85/116
f 648/79/116 649/80/116 651/81/116 650/82/116
f 650/82/17 651/81/17 655/83/17 654/84/17
f 654/84/115 655/83/115 653/85/115 652/86/115
f 652/86/18 653/85/18 649/87/18 648/88/18
f 650/89/118 654/84/118 652/86/118 648/90/118
f 655/83/117 651/91/117 649/92/117 653/85/117
f 656/79/116 657/80/116 659/81/116 658/82/116
f 658/82/17 659/81/17 663/83/17 662/84/17
f 662/84/115 663/83/115 661/85/115 660/86/115
f 660/86/18 661/85/18 657/87/18 656/88/18
f 658/89/118 662/84/118 660/86/118 656/90/118
f 663/83/117 659/91/117 657/92/117 661/85/117
f 664/79/116 665/80/116 667/81/116 666/82/116
f 666/82/17 667/81/17 671/83/17 670/84/17
f 670/84/115 671/83/115 669/85/115 668/86/115
f 668/86/18 669/85/18 665/87/18 664/88/18
f 666/89/118 670/84/118 668/86/118 664/90/118
f 671/83/117 667/91/117 665/92/117 669/85/117
f 672/79/116 673/80/116 675/81/116 674/82/116
f 674/82/17 675/81/17 679/83/17 678/84/17
f 678/84/115 679/83/115 677/85/115 676/86/115
f 676/86/18 677/85/18 673/87/18 672/88/18
f 674/89/118 678/84/118 676/86/118 672/90/118
f 679/83/117 675/91/117 673/92/117 677/85/117
f 680/79/116 681/80/116 683/81/116 682/82/116
f 682/82/17 683/81/17 687/83/17 686/84/17
f 686/84/115 687/83/115 685/85/115 684/86/115
f 684/86/18 685/85/18 681/87/18 680/88/18
f 682/89/118 686/84/118 684/86/118 680/90/118
f 687/83/117 683/91/117 681/92/117 685/85/117
f 688/79/116 689/80/116 691/81/116 690/82/116
f 690/82/17 691/81/17 695/83/17 694/84/17
f 694/84/115 695/83/115 693/85/115 692/86/115
f 692/86/18 693/85/18 689/87/18 688/88/18
f 690/89/118 694/84/118 692/86/118 688/90/118
f 695/83/117 691/91/117 689/92/117 693/85/117
usemtl roof_red
f 389/1/75 390/2/75 392/3/75 391/4/75
f 391/4/76 392/3/76 394/5/76 393/6/76
f 393/6/77 394/5/77 396/7/77 395/8/77
f 395/8/78 396/7/78 398/9/78 397/10/78
f 397/10/79 398/9/79 400/11/79 399/12/79
f 399/12/80 400/11/80 402/13/80 401/14/80
f 401/14/81 402/13/81 404/15/81 403/16/81
f 403/16/82 404/15/82 406/17/82 405/18/82
f 405/18/83 406/17/83 408/19/83 407/20/83
f 407/20/84 408/19/84 410/21/84 409/22/84
f 409/22/85 410/21/85 412/23/85 411/24/85
f 411/24/86 412/23/86 414/25/86 413/26/86
f 392/93/13 390/28/13 416/94/13 414/98/13 412/31/13 410/97/13 408/99/13 406/95/13 404/35/13 402/96/13 400/100/13 398/68/13 396/39/13 394/101/13
f 413/26/87 414/25/87 416/41/87 415/42/87
f 415/42/88 416/41/88 390/43/88 389/44/88
f 389/45/16 391/70/16 393/47/16 395/48/16 397/72/16 399/50/16 401/102/16 403/52/16 405/103/16 407/54/16 409/76/16 411/56/16 413/57/16 415/78/16
f 501/28/89 515/118/89 502/59/89
f 502/59/90 515/118/90 503/40/90
f 503/40/91 515/118/91 504/39/91
f 504/39/92 515/118/92 505/68/92
f 505/68/93 515/118/93 506/37/93
f 506/37/94 515/118/94 507/119/94
f 507/119/95 515/118/95 508/35/95
f 508/35/96 515/118/96 509/120/96
f 509/120/97 515/118/97 510/64/97
f 510/64/98 515/118/98 511/97/98
f 511/97/99 515/118/99 512/31/99
f 512/31/100 515/118/100 513/61/100
f 501/45/16 502/70/16 503/47/16 504/48/16 505/72/16 506/50/16 507/102/16 508/52/16 509/103/16 510/54/16 511/76/16 512/56/16 513/57/16 514/78/16
f 513/61/101 515/118/101 514/60/101
f 514/60/102 515/118/102 501/28/102
usemtl iron
f 516/1/103 517/2/103 519/121/103 518/122/103
f 518/122/4 519/121/4 521/123/4 520/124/4
f 520/124/104 521/123/104 523/125/104 522/126/104
f 522/126/105 523/125/105 525/127/105 524/128/105
f 519/129/13 517/28/13 527/130/13 525/131/13 523/35/13 521/132/13
f 524/128/11 525/127/11 527/133/11 526/134/11
f 526/134/106 527/133/106 517/135/106 516/136/106
f 516/45/16 518/137/16 520/138/16 522/52/16 524/139/16 526/140/16
