# Blender 5.0.1
# www.blender.org
mtllib canal_bridge.mtl
o canal_bridge
v -0.700000 -0.530000 1.200000
v -0.700000 -0.030000 1.200000
v -0.700000 -0.530000 -1.200000
v -0.700000 -0.030000 -1.200000
v 0.700000 -0.530000 1.200000
v 0.700000 -0.030000 1.200000
v 0.700000 -0.530000 -1.200000
v 0.700000 -0.030000 -1.200000
v -0.300000 -0.030000 0.560000
v -0.300000 -0.010000 0.560000
v -0.300000 -0.030000 0.440000
v -0.300000 -0.010000 0.440000
v 0.100000 -0.030000 0.560000
v 0.100000 -0.010000 0.560000
v 0.100000 -0.030000 0.440000
v 0.100000 -0.010000 0.440000
v -0.140000 -0.030000 -0.240000
v -0.140000 -0.010000 -0.240000
v -0.140000 -0.030000 -0.360000
v -0.140000 -0.010000 -0.360000
v 0.260000 -0.030000 -0.240000
v 0.260000 -0.010000 -0.240000
v 0.260000 -0.030000 -0.360000
v 0.260000 -0.010000 -0.360000
v -0.040000 -0.030000 -0.740000
v -0.040000 -0.010000 -0.740000
v -0.040000 -0.030000 -0.860000
v -0.040000 -0.010000 -0.860000
v 0.360000 -0.030000 -0.740000
v 0.360000 -0.010000 -0.740000
v 0.360000 -0.030000 -0.860000
v 0.360000 -0.010000 -0.860000
v -0.600000 -0.200000 1.200000
v -0.600000 0.400000 1.200000
v -0.600000 -0.200000 0.700000
v -0.600000 0.400000 0.700000
v 0.600000 -0.200000 1.200000
v 0.600000 0.400000 1.200000
v 0.600000 -0.200000 0.700000
v 0.600000 0.400000 0.700000
v -0.400000 0.300000 0.900000
v -0.327640 0.355279 0.952572
v -0.427639 0.355279 0.985064
v -0.489443 0.355279 0.900000
v -0.427639 0.355279 0.814936
v -0.327640 0.355279 0.847428
v -0.372361 0.444722 0.985064
v -0.472360 0.444722 0.952572
v -0.472360 0.444722 0.847428
v -0.372361 0.444722 0.814936
v -0.310558 0.444722 0.900000
v -0.400000 0.500000 0.900000
v 0.300000 0.300000 0.900000
v 0.372360 0.355279 0.952572
v 0.272362 0.355279 0.985064
v 0.210558 0.355279 0.900000
v 0.272362 0.355279 0.814936
v 0.372360 0.355279 0.847428
v 0.327639 0.444722 0.985064
v 0.227640 0.444722 0.952572
v 0.227640 0.444722 0.847428
v 0.327639 0.444722 0.814936
v 0.389443 0.444722 0.900000
v 0.300000 0.500000 0.900000
v -0.600000 -0.200000 -0.700000
v -0.600000 0.400000 -0.700000
v -0.600000 -0.200000 -1.200000
v -0.600000 0.400000 -1.200000
v 0.600000 -0.200000 -0.700000
v 0.600000 0.400000 -0.700000
v 0.600000 -0.200000 -1.200000
v 0.600000 0.400000 -1.200000
v -0.400000 0.300000 -0.900000
v -0.327640 0.355279 -0.847428
v -0.427639 0.355279 -0.814936
v -0.489443 0.355279 -0.900000
v -0.427639 0.355279 -0.985064
v -0.327640 0.355279 -0.952572
v -0.372361 0.444722 -0.814936
v -0.472360 0.444722 -0.847428
v -0.472360 0.444722 -0.952572
v -0.372361 0.444722 -0.985064
v -0.310558 0.444722 -0.900000
v -0.400000 0.500000 -0.900000
v 0.300000 0.300000 -0.900000
v 0.372360 0.355279 -0.847428
v 0.272362 0.355279 -0.814936
v 0.210558 0.355279 -0.900000
v 0.272362 0.355279 -0.985064
v 0.372360 0.355279 -0.952572
v 0.327639 0.444722 -0.814936
v 0.227640 0.444722 -0.847428
v 0.227640 0.444722 -0.952572
v 0.327639 0.444722 -0.985064
v 0.389443 0.444722 -0.900000
v 0.300000 0.500000 -0.900000
v -0.450000 0.320000 -0.340000
v 0.450000 0.320000 -0.340000
v -0.450000 0.150000 -0.294449
v 0.450000 0.150000 -0.294449
v -0.450000 0.025551 -0.170000
v 0.450000 0.025551 -0.170000
v -0.450000 -0.020000 0.000000
v 0.450000 -0.020000 0.000000
v -0.450000 0.025551 0.170000
v 0.450000 0.025551 0.170000
v -0.450000 0.150000 0.294449
v 0.450000 0.150000 0.294449
v -0.450000 0.320000 0.340000
v 0.450000 0.320000 0.340000
v -0.450000 0.490000 0.294449
v 0.450000 0.490000 0.294449
v -0.450000 0.614449 0.170000
v 0.450000 0.614449 0.170000
v -0.450000 0.660000 0.000000
v 0.450000 0.660000 0.000000
v -0.450000 0.614449 -0.170000
v 0.450000 0.614449 -0.170000
v -0.450000 0.490000 -0.294449
v 0.450000 0.490000 -0.294449
v -0.450000 0.520000 0.450000
v -0.450000 0.720000 0.450000
v -0.450000 0.520000 -0.450000
v -0.450000 0.720000 -0.450000
v 0.450000 0.520000 0.450000
v 0.450000 0.720000 0.450000
v 0.450000 0.520000 -0.450000
v 0.450000 0.720000 -0.450000
v -0.450000 0.348979 0.925719
v -0.450000 0.505483 0.958985
v -0.450000 0.494517 0.241015
v -0.450000 0.651021 0.274281
v 0.450000 0.348979 0.925719
v 0.450000 0.505483 0.958985
v 0.450000 0.494517 0.241015
v 0.450000 0.651021 0.274281
v -0.450000 0.494517 -0.241015
v -0.450000 0.651021 -0.274281
v -0.450000 0.348979 -0.925719
v -0.450000 0.505483 -0.958985
v 0.450000 0.494517 -0.241015
v 0.450000 0.651021 -0.274281
v 0.450000 0.348979 -0.925719
v 0.450000 0.505483 -0.958985
v -0.450000 0.750000 0.950000
v -0.450000 0.810000 0.950000
v -0.450000 0.750000 -0.950000
v -0.450000 0.810000 -0.950000
v -0.390000 0.750000 0.950000
v -0.390000 0.810000 0.950000
v -0.390000 0.750000 -0.950000
v -0.390000 0.810000 -0.950000
v -0.445000 0.560000 0.625000
v -0.445000 0.800000 0.625000
v -0.445000 0.560000 0.575000
v -0.445000 0.800000 0.575000
v -0.395000 0.560000 0.625000
v -0.395000 0.800000 0.625000
v -0.395000 0.560000 0.575000
v -0.395000 0.800000 0.575000
v -0.445000 0.560000 0.225000
v -0.445000 0.800000 0.225000
v -0.445000 0.560000 0.175000
v -0.445000 0.800000 0.175000
v -0.395000 0.560000 0.225000
v -0.395000 0.800000 0.225000
v -0.395000 0.560000 0.175000
v -0.395000 0.800000 0.175000
v -0.445000 0.560000 -0.175000
v -0.445000 0.800000 -0.175000
v -0.445000 0.560000 -0.225000
v -0.445000 0.800000 -0.225000
v -0.395000 0.560000 -0.175000
v -0.395000 0.800000 -0.175000
v -0.395000 0.560000 -0.225000
v -0.395000 0.800000 -0.225000
v -0.445000 0.560000 -0.575000
v -0.445000 0.800000 -0.575000
v -0.445000 0.560000 -0.625000
v -0.445000 0.800000 -0.625000
v -0.395000 0.560000 -0.575000
v -0.395000 0.800000 -0.575000
v -0.395000 0.560000 -0.625000
v -0.395000 0.800000 -0.625000
v 0.390000 0.750000 0.950000
v 0.390000 0.810000 0.950000
v 0.390000 0.750000 -0.950000
v 0.390000 0.810000 -0.950000
v 0.450000 0.750000 0.950000
v 0.450000 0.810000 0.950000
v 0.450000 0.750000 -0.950000
v 0.450000 0.810000 -0.950000
v 0.395000 0.560000 0.625000
v 0.395000 0.800000 0.625000
v 0.395000 0.560000 0.575000
v 0.395000 0.800000 0.575000
v 0.445000 0.560000 0.625000
v 0.445000 0.800000 0.625000
v 0.445000 0.560000 0.575000
v 0.445000 0.800000 0.575000
v 0.395000 0.560000 0.225000
v 0.395000 0.800000 0.225000
v 0.395000 0.560000 0.175000
v 0.395000 0.800000 0.175000
v 0.445000 0.560000 0.225000
v 0.445000 0.800000 0.225000
v 0.445000 0.560000 0.175000
v 0.445000 0.800000 0.175000
v 0.395000 0.560000 -0.175000
v 0.395000 0.800000 -0.175000
v 0.395000 0.560000 -0.225000
v 0.395000 0.800000 -0.225000
v 0.445000 0.560000 -0.175000
v 0.445000 0.800000 -0.175000
v 0.445000 0.560000 -0.225000
v 0.445000 0.800000 -0.225000
v 0.395000 0.560000 -0.575000
v 0.395000 0.800000 -0.575000
v 0.395000 0.560000 -0.625000
v 0.395000 0.800000 -0.625000
v 0.445000 0.560000 -0.575000
v 0.445000 0.800000 -0.575000
v 0.445000 0.560000 -0.625000
v 0.445000 0.800000 -0.625000
v 0.000000 0.560000 0.460000
v 0.072360 0.615279 0.512572
v -0.027639 0.615279 0.545064
v -0.089442 0.615279 0.460000
v -0.027639 0.615279 0.374936
v 0.072360 0.615279 0.407428
v 0.027639 0.704722 0.545064
v -0.072360 0.704722 0.512572
v -0.072360 0.704722 0.407428
v 0.027639 0.704722 0.374936
v 0.089442 0.704722 0.460000
v 0.000000 0.760000 0.460000
v -0.075000 0.547500 0.535000
v -0.075000 0.662500 0.535000
v -0.075000 0.547500 0.435000
v -0.075000 0.662500 0.435000
v 0.075000 0.547500 0.535000
v 0.075000 0.662500 0.535000
v 0.075000 0.547500 0.435000
v 0.075000 0.662500 0.435000
v -0.060000 0.530000 0.542500
v -0.060000 0.580000 0.542500
v -0.060000 0.530000 0.457500
v -0.060000 0.580000 0.457500
v 0.060000 0.530000 0.542500
v 0.060000 0.580000 0.542500
v 0.060000 0.530000 0.457500
v 0.060000 0.580000 0.457500
v -0.063000 0.612000 0.559000
v -0.063000 0.652000 0.559000
v -0.063000 0.612000 0.517000
v -0.063000 0.652000 0.517000
v -0.021000 0.612000 0.559000
v -0.021000 0.652000 0.559000
v -0.021000 0.612000 0.517000
v -0.021000 0.652000 0.517000
v 0.021000 0.612000 0.559000
v 0.021000 0.652000 0.559000
v 0.021000 0.612000 0.517000
v 0.021000 0.652000 0.517000
v 0.063000 0.612000 0.559000
v 0.063000 0.652000 0.559000
v 0.063000 0.612000 0.517000
v 0.063000 0.652000 0.517000
v -0.012000 0.578000 0.559000
v -0.012000 0.610000 0.559000
v -0.012000 0.578000 0.525000
v -0.012000 0.610000 0.525000
v 0.012000 0.578000 0.559000
v 0.012000 0.610000 0.559000
v 0.012000 0.578000 0.525000
v 0.012000 0.610000 0.525000
v -0.047500 0.535000 0.550000
v -0.047500 0.575000 0.550000
v -0.047500 0.535000 0.530000
v -0.047500 0.575000 0.530000
v -0.042500 0.535000 0.550000
v -0.042500 0.575000 0.550000
v -0.042500 0.535000 0.530000
v -0.042500 0.575000 0.530000
v -0.017500 0.535000 0.550000
v -0.017500 0.575000 0.550000
v -0.017500 0.535000 0.530000
v -0.017500 0.575000 0.530000
v -0.012500 0.535000 0.550000
v -0.012500 0.575000 0.550000
v -0.012500 0.535000 0.530000
v -0.012500 0.575000 0.530000
v 0.012500 0.535000 0.550000
v 0.012500 0.575000 0.550000
v 0.012500 0.535000 0.530000
v 0.012500 0.575000 0.530000
v 0.017500 0.535000 0.550000
v 0.017500 0.575000 0.550000
v 0.017500 0.535000 0.530000
v 0.017500 0.575000 0.530000
v 0.042500 0.535000 0.550000
v 0.042500 0.575000 0.550000
v 0.042500 0.535000 0.530000
v 0.042500 0.575000 0.530000
v 0.047500 0.535000 0.550000
v 0.047500 0.575000 0.550000
v 0.047500 0.535000 0.530000
v 0.047500 0.575000 0.530000
v 0.420000 0.650000 0.820000
v 0.420000 1.150000 0.820000
v 0.445981 0.650000 0.835000
v 0.445981 1.150000 0.835000
v 0.445981 0.650000 0.865000
v 0.445981 1.150000 0.865000
v 0.420000 0.650000 0.880000
v 0.420000 1.150000 0.880000
v 0.394019 0.650000 0.865000
v 0.394019 1.150000 0.865000
v 0.394019 0.650000 0.835000
v 0.394019 1.150000 0.835000
v 0.370000 1.120000 0.900000
v 0.370000 1.240000 0.900000
v 0.370000 1.120000 0.800000
v 0.370000 1.240000 0.800000
v 0.470000 1.120000 0.900000
v 0.470000 1.240000 0.900000
v 0.470000 1.120000 0.800000
v 0.470000 1.240000 0.800000
v 0.390000 1.140000 0.880000
v 0.390000 1.220000 0.880000
v 0.390000 1.140000 0.820000
v 0.390000 1.220000 0.820000
v 0.450000 1.140000 0.880000
v 0.450000 1.220000 0.880000
v 0.450000 1.140000 0.820000
v 0.450000 1.220000 0.820000
vn -1.0000 -0.0000 -0.0000
vn -0.0000 -0.0000 -1.0000
vn 1.0000 -0.0000 -0.0000
vn -0.0000 -0.0000 1.0000
vn -0.0000 -1.0000 -0.0000
vn -0.0000 1.0000 -0.0000
vn 0.1876 -0.7947 0.5774
vn 0.6071 -0.7947 -0.0000
vn -0.4911 -0.7947 0.3568
vn -0.4911 -0.7947 -0.3568
vn 0.1876 -0.7947 -0.5774
vn 0.9822 -0.1876 -0.0000
vn 0.3035 -0.1876 0.9342
vn -0.7946 -0.1876 0.5774
vn -0.7946 -0.1876 -0.5774
vn 0.3035 -0.1876 -0.9342
vn 0.7946 0.1876 0.5774
vn -0.3035 0.1876 0.9342
vn -0.9822 0.1876 -0.0000
vn -0.3035 0.1876 -0.9342
vn 0.7946 0.1876 -0.5774
vn 0.4911 0.7947 0.3568
vn -0.1876 0.7947 0.5774
vn -0.6071 0.7947 -0.0000
vn -0.1876 0.7947 -0.5774
vn 0.4911 0.7947 -0.3568
vn -0.0000 -0.2588 -0.9659
vn -0.0000 -0.7071 -0.7071
vn -0.0000 -0.9659 -0.2588
vn -0.0000 -0.9659 0.2588
vn -0.0000 -0.7071 0.7071
vn -0.0000 -0.2588 0.9659
vn -0.0000 0.2588 0.9659
vn -0.0000 0.7071 0.7071
vn -0.0000 0.9659 0.2588
vn -0.0000 0.9659 -0.2588
vn -0.0000 0.7071 -0.7071
vn -0.0000 0.2588 -0.9659
vn -0.0000 0.2079 -0.9781
vn -0.0000 -0.2079 0.9781
vn -0.0000 -0.9781 -0.2079
vn -0.0000 0.9781 0.2079
vn -0.0000 -0.2079 -0.9781
vn -0.0000 0.2079 0.9781
vn -0.0000 -0.9781 0.2079
vn -0.0000 0.9781 -0.2079
vn 0.5000 -0.0000 -0.8660
vn 0.5000 -0.0000 0.8660
vn -0.5000 -0.0000 0.8660
vn -0.5000 -0.0000 -0.8660
vt 0.375000 0.000000
vt 0.625000 0.000000
vt 0.625000 0.250000
vt 0.375000 0.250000
vt 0.625000 0.500000
vt 0.375000 0.500000
vt 0.625000 0.750000
vt 0.375000 0.750000
vt 0.625000 1.000000
vt 0.375000 1.000000
vt 0.125000 0.500000
vt 0.125000 0.750000
vt 0.875000 0.500000
vt 0.875000 0.750000
vt 0.181819 0.000000
vt 0.272728 0.157461
vt 0.090910 0.157461
vt 0.363637 0.000000
vt 0.454546 0.157461
vt 0.909091 0.000000
vt 1.000000 0.157461
vt 0.818182 0.157461
vt 0.727273 0.000000
vt 0.636364 0.157461
vt 0.545455 0.000000
vt 0.363637 0.314921
vt 0.181819 0.314921
vt 0.909091 0.314921
vt 0.727273 0.314921
vt 0.545455 0.314921
vt 0.000000 0.314921
vt 0.272728 0.472382
vt 0.090910 0.472382
vt 0.818182 0.472382
vt 0.636364 0.472382
vt 0.454546 0.472382
vt 1.000000 0.500000
vt 1.000000 1.000000
vt 0.916667 1.000000
vt 0.916667 0.500000
vt 0.833333 1.000000
vt 0.833333 0.500000
vt 0.750000 1.000000
vt 0.750000 0.500000
vt 0.666667 1.000000
vt 0.666667 0.500000
vt 0.583333 1.000000
vt 0.583333 0.500000
vt 0.500000 1.000000
vt 0.500000 0.500000
vt 0.416667 1.000000
vt 0.416667 0.500000
vt 0.333333 1.000000
vt 0.333333 0.500000
vt 0.250000 1.000000
vt 0.250000 0.500000
vt 0.166667 1.000000
vt 0.166667 0.500000
vt 0.370000 0.457846
vt 0.250000 0.490000
vt 0.130000 0.457846
vt 0.042154 0.370000
vt 0.010000 0.250000
vt 0.042154 0.130000
vt 0.130000 0.042154
vt 0.250000 0.010000
vt 0.370000 0.042154
vt 0.457846 0.130000
vt 0.490000 0.250000
vt 0.457846 0.370000
vt 0.083333 1.000000
vt 0.083333 0.500000
vt 0.000000 1.000000
vt 0.000000 0.500000
vt 0.750000 0.490000
vt 0.870000 0.457846
vt 0.957846 0.370000
vt 0.990000 0.250000
vt 0.957846 0.130000
vt 0.870000 0.042154
vt 0.750000 0.010000
vt 0.630000 0.042154
vt 0.542154 0.130000
vt 0.510000 0.250000
vt 0.542154 0.370000
vt 0.630000 0.457846
vt 0.833333 1.000000
vt 0.833333 0.500000
vt 0.666667 1.000000
vt 0.666667 0.500000
vt 0.500000 1.000000
vt 0.500000 0.500000
vt 0.333333 1.000000
vt 0.333333 0.500000
vt 0.166667 1.000000
vt 0.166667 0.500000
vt -0.000000 1.000000
vt -0.000000 0.500000
s 0
usemtl cloth
f 1/1/1 2/2/1 4/3/1 3/4/1
f 3/4/2 4/3/2 8/5/2 7/6/2
f 7/6/3 8/5/3 6/7/3 5/8/3
f 5/8/4 6/7/4 2/9/4 1/10/4
f 3/11/5 7/6/5 5/8/5 1/12/5
f 8/5/6 4/13/6 2/14/6 6/7/6
usemtl ghostfire
f 9/1/1 10/2/1 12/3/1 11/4/1
f 11/4/2 12/3/2 16/5/2 15/6/2
f 15/6/3 16/5/3 14/7/3 13/8/3
f 13/8/4 14/7/4 10/9/4 9/10/4
f 11/11/5 15/6/5 13/8/5 9/12/5
f 16/5/6 12/13/6 10/14/6 14/7/6
f 17/1/1 18/2/1 20/3/1 19/4/1
f 19/4/2 20/3/2 24/5/2 23/6/2
f 23/6/3 24/5/3 22/7/3 21/8/3
f 21/8/4 22/7/4 18/9/4 17/10/4
f 19/11/5 23/6/5 21/8/5 17/12/5
f 24/5/6 20/13/6 18/14/6 22/7/6
f 25/1/1 26/2/1 28/3/1 27/4/1
f 27/4/2 28/3/2 32/5/2 31/6/2
f 31/6/3 32/5/3 30/7/3 29/8/3
f 29/8/4 30/7/4 26/9/4 25/10/4
f 27/11/5 31/6/5 29/8/5 25/12/5
f 32/5/6 28/13/6 26/14/6 30/7/6
usemtl stone
f 33/1/1 34/2/1 36/3/1 35/4/1
f 35/4/2 36/3/2 40/5/2 39/6/2
f 39/6/3 40/5/3 38/7/3 37/8/3
f 37/8/4 38/7/4 34/9/4 33/10/4
f 35/11/5 39/6/5 37/8/5 33/12/5
f 40/5/6 36/13/6 34/14/6 38/7/6
f 65/1/1 66/2/1 68/3/1 67/4/1
f 67/4/2 68/3/2 72/5/2 71/6/2
f 71/6/3 72/5/3 70/7/3 69/8/3
f 69/8/4 70/7/4 66/9/4 65/10/4
f 67/11/5 71/6/5 69/8/5 65/12/5
f 72/5/6 68/13/6 66/14/6 70/7/6
f 121/1/1 122/2/1 124/3/1 123/4/1
f 123/4/2 124/3/2 128/5/2 127/6/2
f 127/6/3 128/5/3 126/7/3 125/8/3
f 125/8/4 126/7/4 122/9/4 121/10/4
f 123/11/5 127/6/5 125/8/5 121/12/5
f 128/5/6 124/13/6 122/14/6 126/7/6
f 129/1/1 130/2/1 132/3/1 131/4/1
f 131/4/39 132/3/39 136/5/39 135/6/39
f 135/6/3 136/5/3 134/7/3 133/8/3
f 133/8/40 134/7/40 130/9/40 129/10/40
f 131/11/41 135/6/41 133/8/41 129/12/41
f 136/5/42 132/13/42 130/14/42 134/7/42
f 137/1/1 138/2/1 140/3/1 139/4/1
f 139/4/43 140/3/43 144/5/43 143/6/43
f 143/6/3 144/5/3 142/7/3 141/8/3
f 141/8/44 142/7/44 138/9/44 137/10/44
f 139/11/45 143/6/45 141/8/45 137/12/45
f 144/5/46 140/13/46 138/14/46 142/7/46
f 145/1/1 146/2/1 148/3/1 147/4/1
f 147/4/2 148/3/2 152/5/2 151/6/2
f 151/6/3 152/5/3 150/7/3 149/8/3
f 149/8/4 150/7/4 146/9/4 145/10/4
f 147/11/5 151/6/5 149/8/5 145/12/5
f 152/5/6 148/13/6 146/14/6 150/7/6
f 185/1/1 186/2/1 188/3/1 187/4/1
f 187/4/2 188/3/2 192/5/2 191/6/2
f 191/6/3 192/5/3 190/7/3 189/8/3
f 189/8/4 190/7/4 186/9/4 185/10/4
f 187/11/5 191/6/5 189/8/5 185/12/5
f 192/5/6 188/13/6 186/14/6 190/7/6
usemtl leaf_dk
f 41/15/7 42/16/7 43/17/7
f 42/16/8 41/18/8 46/19/8
f 41/20/9 43/21/9 44/22/9
f 41/23/10 44/22/10 45/24/10
f 41/25/11 45/24/11 46/19/11
f 42/16/12 46/19/12 51/26/12
f 43/17/13 42/16/13 47/27/13
f 44/22/14 43/21/14 48/28/14
f 45/24/15 44/22/15 49/29/15
f 46/19/16 45/24/16 50/30/16
f 42/16/17 51/26/17 47/27/17
f 43/17/18 47/27/18 48/31/18
f 44/22/19 48/28/19 49/29/19
f 45/24/20 49/29/20 50/30/20
f 46/19/21 50/30/21 51/26/21
f 47/27/22 51/26/22 52/32/22
f 48/31/23 47/27/23 52/33/23
f 49/29/24 48/28/24 52/34/24
f 50/30/25 49/29/25 52/35/25
f 51/26/26 50/30/26 52/36/26
f 53/15/7 54/16/7 55/17/7
f 54/16/8 53/18/8 58/19/8
f 53/20/9 55/21/9 56/22/9
f 53/23/10 56/22/10 57/24/10
f 53/25/11 57/24/11 58/19/11
f 54/16/12 58/19/12 63/26/12
f 55/17/13 54/16/13 59/27/13
f 56/22/14 55/21/14 60/28/14
f 57/24/15 56/22/15 61/29/15
f 58/19/16 57/24/16 62/30/16
f 54/16/17 63/26/17 59/27/17
f 55/17/18 59/27/18 60/31/18
f 56/22/19 60/28/19 61/29/19
f 57/24/20 61/29/20 62/30/20
f 58/19/21 62/30/21 63/26/21
f 59/27/22 63/26/22 64/32/22
f 60/31/23 59/27/23 64/33/23
f 61/29/24 60/28/24 64/34/24
f 62/30/25 61/29/25 64/35/25
f 63/26/26 62/30/26 64/36/26
f 73/15/7 74/16/7 75/17/7
f 74/16/8 73/18/8 78/19/8
f 73/20/9 75/21/9 76/22/9
f 73/23/10 76/22/10 77/24/10
f 73/25/11 77/24/11 78/19/11
f 74/16/12 78/19/12 83/26/12
f 75/17/13 74/16/13 79/27/13
f 76/22/14 75/21/14 80/28/14
f 77/24/15 76/22/15 81/29/15
f 78/19/16 77/24/16 82/30/16
f 74/16/17 83/26/17 79/27/17
f 75/17/18 79/27/18 80/31/18
f 76/22/19 80/28/19 81/29/19
f 77/24/20 81/29/20 82/30/20
f 78/19/21 82/30/21 83/26/21
f 79/27/22 83/26/22 84/32/22
f 80/31/23 79/27/23 84/33/23
f 81/29/24 80/28/24 84/34/24
f 82/30/25 81/29/25 84/35/25
f 83/26/26 82/30/26 84/36/26
f 85/15/7 86/16/7 87/17/7
f 86/16/8 85/18/8 90/19/8
f 85/20/9 87/21/9 88/22/9
f 85/23/10 88/22/10 89/24/10
f 85/25/11 89/24/11 90/19/11
f 86/16/12 90/19/12 95/26/12
f 87/17/13 86/16/13 91/27/13
f 88/22/14 87/21/14 92/28/14
f 89/24/15 88/22/15 93/29/15
f 90/19/16 89/24/16 94/30/16
f 86/16/17 95/26/17 91/27/17
f 87/17/18 91/27/18 92/31/18
f 88/22/19 92/28/19 93/29/19
f 89/24/20 93/29/20 94/30/20
f 90/19/21 94/30/21 95/26/21
f 91/27/22 95/26/22 96/32/22
f 92/31/23 91/27/23 96/33/23
f 93/29/24 92/28/24 96/34/24
f 94/30/25 93/29/25 96/35/25
f 95/26/26 94/30/26 96/36/26
usemtl stone_dk
f 97/37/27 98/38/27 100/39/27 99/40/27
f 99/40/28 100/39/28 102/41/28 101/42/28
f 101/42/29 102/41/29 104/43/29 103/44/29
f 103/44/30 104/43/30 106/45/30 105/46/30
f 105/46/31 106/45/31 108/47/31 107/48/31
f 107/48/32 108/47/32 110/49/32 109/50/32
f 109/50/33 110/49/33 112/51/33 111/52/33
f 111/52/34 112/51/34 114/53/34 113/54/34
f 113/54/35 114/53/35 116/55/35 115/56/35
f 115/56/36 116/55/36 118/57/36 117/58/36
f 100/59/3 98/60/3 120/61/3 118/62/3 116/63/3 114/64/3 112/65/3 110/66/3 108/67/3 106/68/3 104/69/3 102/70/3
f 117/58/37 118/57/37 120/71/37 119/72/37
f 119/72/38 120/71/38 98/73/38 97/74/38
f 97/75/1 99/76/1 101/77/1 103/78/1 105/79/1 107/80/1 109/81/1 111/82/1 113/83/1 115/84/1 117/85/1 119/86/1
f 153/1/1 154/2/1 156/3/1 155/4/1
f 155/4/2 156/3/2 160/5/2 159/6/2
f 159/6/3 160/5/3 158/7/3 157/8/3
f 157/8/4 158/7/4 154/9/4 153/10/4
f 155/11/5 159/6/5 157/8/5 153/12/5
f 160/5/6 156/13/6 154/14/6 158/7/6
f 161/1/1 162/2/1 164/3/1 163/4/1
f 163/4/2 164/3/2 168/5/2 167/6/2
f 167/6/3 168/5/3 166/7/3 165/8/3
f 165/8/4 166/7/4 162/9/4 161/10/4
f 163/11/5 167/6/5 165/8/5 161/12/5
f 168/5/6 164/13/6 162/14/6 166/7/6
f 169/1/1 170/2/1 172/3/1 171/4/1
f 171/4/2 172/3/2 176/5/2 175/6/2
f 175/6/3 176/5/3 174/7/3 173/8/3
f 173/8/4 174/7/4 170/9/4 169/10/4
f 171/11/5 175/6/5 173/8/5 169/12/5
f 176/5/6 172/13/6 170/14/6 174/7/6
f 177/1/1 178/2/1 180/3/1 179/4/1
f 179/4/2 180/3/2 184/5/2 183/6/2
f 183/6/3 184/5/3 182/7/3 181/8/3
f 181/8/4 182/7/4 178/9/4 177/10/4
f 179/11/5 183/6/5 181/8/5 177/12/5
f 184/5/6 180/13/6 178/14/6 182/7/6
f 193/1/1 194/2/1 196/3/1 195/4/1
f 195/4/2 196/3/2 200/5/2 199/6/2
f 199/6/3 200/5/3 198/7/3 197/8/3
f 197/8/4 198/7/4 194/9/4 193/10/4
f 195/11/5 199/6/5 197/8/5 193/12/5
f 200/5/6 196/13/6 194/14/6 198/7/6
f 201/1/1 202/2/1 204/3/1 203/4/1
f 203/4/2 204/3/2 208/5/2 207/6/2
f 207/6/3 208/5/3 206/7/3 205/8/3
f 205/8/4 206/7/4 202/9/4 201/10/4
f 203/11/5 207/6/5 205/8/5 201/12/5
f 208/5/6 204/13/6 202/14/6 206/7/6
f 209/1/1 210/2/1 212/3/1 211/4/1
f 211/4/2 212/3/2 216/5/2 215/6/2
f 215/6/3 216/5/3 214/7/3 213/8/3
f 213/8/4 214/7/4 210/9/4 209/10/4
f 211/11/5 215/6/5 213/8/5 209/12/5
f 216/5/6 212/13/6 210/14/6 214/7/6
f 217/1/1 218/2/1 220/3/1 219/4/1
f 219/4/2 220/3/2 224/5/2 223/6/2
f 223/6/3 224/5/3 222/7/3 221/8/3
f 221/8/4 222/7/4 218/9/4 217/10/4
f 219/11/5 223/6/5 221/8/5 217/12/5
f 224/5/6 220/13/6 218/14/6 222/7/6
usemtl bone
f 225/15/7 226/16/7 227/17/7
f 226/16/8 225/18/8 230/19/8
f 225/20/9 227/21/9 228/22/9
f 225/23/10 228/22/10 229/24/10
f 225/25/11 229/24/11 230/19/11
f 226/16/12 230/19/12 235/26/12
f 227/17/13 226/16/13 231/27/13
f 228/22/14 227/21/14 232/28/14
f 229/24/15 228/22/15 233/29/15
f 230/19/16 229/24/16 234/30/16
f 226/16/17 235/26/17 231/27/17
f 227/17/18 231/27/18 232/31/18
f 228/22/19 232/28/19 233/29/19
f 229/24/20 233/29/20 234/30/20
f 230/19/21 234/30/21 235/26/21
f 231/27/22 235/26/22 236/32/22
f 232/31/23 231/27/23 236/33/23
f 233/29/24 232/28/24 236/34/24
f 234/30/25 233/29/25 236/35/25
f 235/26/26 234/30/26 236/36/26
f 237/1/1 238/2/1 240/3/1 239/4/1
f 239/4/2 240/3/2 244/5/2 243/6/2
f 243/6/3 244/5/3 242/7/3 241/8/3
f 241/8/4 242/7/4 238/9/4 237/10/4
f 239/11/5 243/6/5 241/8/5 237/12/5
f 244/5/6 240/13/6 238/14/6 242/7/6
f 245/1/1 246/2/1 248/3/1 247/4/1
f 247/4/2 248/3/2 252/5/2 251/6/2
f 251/6/3 252/5/3 250/7/3 249/8/3
f 249/8/4 250/7/4 246/9/4 245/10/4
f 247/11/5 251/6/5 249/8/5 245/12/5
f 252/5/6 248/13/6 246/14/6 250/7/6
usemtl soot
f 253/1/1 254/2/1 256/3/1 255/4/1
f 255/4/2 256/3/2 260/5/2 259/6/2
f 259/6/3 260/5/3 258/7/3 257/8/3
f 257/8/4 258/7/4 254/9/4 253/10/4
f 255/11/5 259/6/5 257/8/5 253/12/5
f 260/5/6 256/13/6 254/14/6 258/7/6
f 261/1/1 262/2/1 264/3/1 263/4/1
f 263/4/2 264/3/2 268/5/2 267/6/2
f 267/6/3 268/5/3 266/7/3 265/8/3
f 265/8/4 266/7/4 262/9/4 261/10/4
f 263/11/5 267/6/5 265/8/5 261/12/5
f 268/5/6 264/13/6 262/14/6 266/7/6
f 269/1/1 270/2/1 272/3/1 271/4/1
f 271/4/2 272/3/2 276/5/2 275/6/2
f 275/6/3 276/5/3 274/7/3 273/8/3
f 273/8/4 274/7/4 270/9/4 269/10/4
f 271/11/5 275/6/5 273/8/5 269/12/5
f 276/5/6 272/13/6 270/14/6 274/7/6
f 277/1/1 278/2/1 280/3/1 279/4/1
f 279/4/2 280/3/2 284/5/2 283/6/2
f 283/6/3 284/5/3 282/7/3 281/8/3
f 281/8/4 282/7/4 278/9/4 277/10/4
f 279/11/5 283/6/5 281/8/5 277/12/5
f 284/5/6 280/13/6 278/14/6 282/7/6
f 285/1/1 286/2/1 288/3/1 287/4/1
f 287/4/2 288/3/2 292/5/2 291/6/2
f 291/6/3 292/5/3 290/7/3 289/8/3
f 289/8/4 290/7/4 286/9/4 285/10/4
f 287/11/5 291/6/5 289/8/5 285/12/5
f 292/5/6 288/13/6 286/14/6 290/7/6
f 293/1/1 294/2/1 296/3/1 295/4/1
f 295/4/2 296/3/2 300/5/2 299/6/2
f 299/6/3 300/5/3 298/7/3 297/8/3
f 297/8/4 298/7/4 294/9/4 293/10/4
f 295/11/5 299/6/5 297/8/5 293/12/5
f 300/5/6 296/13/6 294/14/6 298/7/6
f 301/1/1 302/2/1 304/3/1 303/4/1
f 303/4/2 304/3/2 308/5/2 307/6/2
f 307/6/3 308/5/3 306/7/3 305/8/3
f 305/8/4 306/7/4 302/9/4 301/10/4
f 303/11/5 307/6/5 305/8/5 301/12/5
f 308/5/6 304/13/6 302/14/6 306/7/6
f 321/1/1 322/2/1 324/3/1 323/4/1
f 323/4/2 324/3/2 328/5/2 327/6/2
f 327/6/3 328/5/3 326/7/3 325/8/3
f 325/8/4 326/7/4 322/9/4 321/10/4
f 323/11/5 327/6/5 325/8/5 321/12/5
f 328/5/6 324/13/6 322/14/6 326/7/6
usemtl iron
f 309/37/47 310/38/47 312/87/47 311/88/47
f 311/88/3 312/87/3 314/89/3 313/90/3
f 313/90/48 314/89/48 316/91/48 315/92/48
f 315/92/49 316/91/49 318/93/49 317/94/49
f 312/70/6 310/60/6 320/62/6 318/64/6 316/66/6 314/68/6
f 317/94/1 318/93/1 320/95/1 319/96/1
f 319/96/50 320/95/50 310/97/50 309/98/50
f 309/75/5 311/77/5 313/79/5 315/81/5 317/83/5 319/85/5
usemtl amber
f 329/1/1 330/2/1 332/3/1 331/4/1
f 331/4/2 332/3/2 336/5/2 335/6/2
f 335/6/3 336/5/3 334/7/3 333/8/3
f 333/8/4 334/7/4 330/9/4 329/10/4
f 331/11/5 335/6/5 333/8/5 329/12/5
f 336/5/6 332/13/6 330/14/6 334/7/6
