# Blender 5.0.1
# www.blender.org
mtllib cathedral.mtl
o cathedral
v -0.800000 0.000000 1.300000
v -0.800000 0.300000 1.300000
v -0.800000 0.000000 -1.300000
v -0.800000 0.300000 -1.300000
v 0.800000 0.000000 1.300000
v 0.800000 0.300000 1.300000
v 0.800000 0.000000 -1.300000
v 0.800000 0.300000 -1.300000
v -0.700000 0.200000 1.200000
v -0.700000 2.200000 1.200000
v -0.700000 0.200000 -1.200000
v -0.700000 2.200000 -1.200000
v 0.700000 0.200000 1.200000
v 0.700000 2.200000 1.200000
v 0.700000 0.200000 -1.200000
v 0.700000 2.200000 -1.200000
v -0.810000 2.200000 1.310000
v 0.810000 2.200000 1.310000
v 0.000000 3.000000 1.310000
v -0.810000 2.200000 -1.310000
v 0.810000 2.200000 -1.310000
v 0.000000 3.000000 -1.310000
v -0.560105 2.411672 1.300000
v -0.595240 2.447247 1.300000
v -0.560105 2.411672 -1.300000
v -0.595240 2.447247 -1.300000
v -0.538760 2.432754 1.300000
v -0.573895 2.468328 1.300000
v -0.538760 2.432754 -1.300000
v -0.573895 2.468328 -1.300000
v 0.538760 2.432754 1.300000
v 0.573895 2.468328 1.300000
v 0.538760 2.432754 -1.300000
v 0.573895 2.468328 -1.300000
v 0.560105 2.411672 1.300000
v 0.595240 2.447247 1.300000
v 0.560105 2.411672 -1.300000
v 0.595240 2.447247 -1.300000
v -0.276605 2.691673 1.300000
v -0.311740 2.727247 1.300000
v -0.276605 2.691673 -1.300000
v -0.311740 2.727247 -1.300000
v -0.255260 2.712754 1.300000
v -0.290395 2.748328 1.300000
v -0.255260 2.712754 -1.300000
v -0.290395 2.748328 -1.300000
v 0.255260 2.712754 1.300000
v 0.290395 2.748328 1.300000
v 0.255260 2.712754 -1.300000
v 0.290395 2.748328 -1.300000
v 0.276605 2.691673 1.300000
v 0.311740 2.727247 1.300000
v 0.276605 2.691673 -1.300000
v 0.311740 2.727247 -1.300000
v -0.400000 0.000000 1.800000
v -0.400000 3.000000 1.800000
v -0.400000 0.000000 1.000000
v -0.400000 3.000000 1.000000
v 0.400000 0.000000 1.800000
v 0.400000 3.000000 1.800000
v 0.400000 0.000000 1.000000
v 0.400000 3.000000 1.000000
v -0.050000 1.950000 1.860000
v -0.050000 2.450000 1.860000
v -0.050000 1.950000 1.760000
v -0.050000 2.450000 1.760000
v 0.050000 1.950000 1.860000
v 0.050000 2.450000 1.860000
v 0.050000 1.950000 1.760000
v 0.050000 2.450000 1.760000
v -0.050000 2.450000 1.860000
v -0.050000 2.950000 1.860000
v -0.050000 2.450000 1.760000
v -0.050000 2.950000 1.760000
v 0.050000 2.450000 1.860000
v 0.050000 2.950000 1.860000
v 0.050000 2.450000 1.760000
v 0.050000 2.950000 1.760000
v -0.395980 3.000000 1.004020
v 0.395980 3.000000 1.004020
v 0.395980 3.000000 1.795980
v -0.395980 3.000000 1.795980
v 0.000000 4.300001 1.400000
v -0.040000 4.250000 1.440000
v -0.040000 4.750000 1.440000
v -0.040000 4.250000 1.360000
v -0.040000 4.750000 1.360000
v 0.040000 4.250000 1.440000
v 0.040000 4.750000 1.440000
v 0.040000 4.250000 1.360000
v 0.040000 4.750000 1.360000
v -0.150000 4.560000 1.440000
v -0.150000 4.640000 1.440000
v -0.150000 4.560000 1.360000
v -0.150000 4.640000 1.360000
v 0.150000 4.560000 1.440000
v 0.150000 4.640000 1.440000
v 0.150000 4.560000 1.360000
v 0.150000 4.640000 1.360000
v -0.920000 0.150000 0.700000
v -0.920000 1.750000 0.700000
v -0.920000 0.150000 0.500000
v -0.920000 1.750000 0.500000
v -0.720000 0.150000 0.700000
v -0.720000 1.750000 0.700000
v -0.720000 0.150000 0.500000
v -0.720000 1.750000 0.500000
v -0.920000 0.150000 -0.300000
v -0.920000 1.750000 -0.300000
v -0.920000 0.150000 -0.500000
v -0.920000 1.750000 -0.500000
v -0.720000 0.150000 -0.300000
v -0.720000 1.750000 -0.300000
v -0.720000 0.150000 -0.500000
v -0.720000 1.750000 -0.500000
v -0.765000 1.120000 0.500000
v -0.765000 1.680000 0.500000
v -0.765000 1.120000 0.300000
v -0.765000 1.680000 0.300000
v -0.715000 1.120000 0.500000
v -0.715000 1.680000 0.500000
v -0.715000 1.120000 0.300000
v -0.715000 1.680000 0.300000
v -0.775000 1.150000 0.460000
v -0.775000 1.650000 0.460000
v -0.775000 1.150000 0.340000
v -0.775000 1.650000 0.340000
v -0.735000 1.150000 0.460000
v -0.735000 1.650000 0.460000
v -0.735000 1.150000 0.340000
v -0.735000 1.650000 0.340000
v -0.755000 1.638000 0.316000
v -0.671000 1.638000 0.400000
v -0.755000 1.638000 0.484000
v -0.839000 1.638000 0.400000
v -0.755000 1.746000 0.400000
v -0.765000 1.120000 -0.300000
v -0.765000 1.680000 -0.300000
v -0.765000 1.120000 -0.500000
v -0.765000 1.680000 -0.500000
v -0.715000 1.120000 -0.300000
v -0.715000 1.680000 -0.300000
v -0.715000 1.120000 -0.500000
v -0.715000 1.680000 -0.500000
v -0.775000 1.150000 -0.340000
v -0.775000 1.650000 -0.340000
v -0.775000 1.150000 -0.460000
v -0.775000 1.650000 -0.460000
v -0.735000 1.150000 -0.340000
v -0.735000 1.650000 -0.340000
v -0.735000 1.150000 -0.460000
v -0.735000 1.650000 -0.460000
v -0.755000 1.638000 -0.484000
v -0.671000 1.638000 -0.400000
v -0.755000 1.638000 -0.316000
v -0.839000 1.638000 -0.400000
v -0.755000 1.746000 -0.400000
v -0.765000 1.120000 -0.900000
v -0.765000 1.680000 -0.900000
v -0.765000 1.120000 -1.100000
v -0.765000 1.680000 -1.100000
v -0.715000 1.120000 -0.900000
v -0.715000 1.680000 -0.900000
v -0.715000 1.120000 -1.100000
v -0.715000 1.680000 -1.100000
v -0.775000 1.150000 -0.940000
v -0.775000 1.650000 -0.940000
v -0.775000 1.150000 -1.060000
v -0.775000 1.650000 -1.060000
v -0.735000 1.150000 -0.940000
v -0.735000 1.650000 -0.940000
v -0.735000 1.150000 -1.060000
v -0.735000 1.650000 -1.060000
v -0.755000 1.638000 -1.084000
v -0.671000 1.638000 -1.000000
v -0.755000 1.638000 -0.916000
v -0.839000 1.638000 -1.000000
v -0.755000 1.746000 -1.000000
v 0.720000 0.150000 0.700000
v 0.720000 1.750000 0.700000
v 0.720000 0.150000 0.500000
v 0.720000 1.750000 0.500000
v 0.920000 0.150000 0.700000
v 0.920000 1.750000 0.700000
v 0.920000 0.150000 0.500000
v 0.920000 1.750000 0.500000
v 0.720000 0.150000 -0.300000
v 0.720000 1.750000 -0.300000
v 0.720000 0.150000 -0.500000
v 0.720000 1.750000 -0.500000
v 0.920000 0.150000 -0.300000
v 0.920000 1.750000 -0.300000
v 0.920000 0.150000 -0.500000
v 0.920000 1.750000 -0.500000
v 0.715000 1.120000 0.500000
v 0.715000 1.680000 0.500000
v 0.715000 1.120000 0.300000
v 0.715000 1.680000 0.300000
v 0.765000 1.120000 0.500000
v 0.765000 1.680000 0.500000
v 0.765000 1.120000 0.300000
v 0.765000 1.680000 0.300000
v 0.735000 1.150000 0.460000
v 0.735000 1.650000 0.460000
v 0.735000 1.150000 0.340000
v 0.735000 1.650000 0.340000
v 0.775000 1.150000 0.460000
v 0.775000 1.650000 0.460000
v 0.775000 1.150000 0.340000
v 0.775000 1.650000 0.340000
v 0.755000 1.638000 0.316000
v 0.839000 1.638000 0.400000
v 0.755000 1.638000 0.484000
v 0.671000 1.638000 0.400000
v 0.755000 1.746000 0.400000
v 0.715000 1.120000 -0.300000
v 0.715000 1.680000 -0.300000
v 0.715000 1.120000 -0.500000
v 0.715000 1.680000 -0.500000
v 0.765000 1.120000 -0.300000
v 0.765000 1.680000 -0.300000
v 0.765000 1.120000 -0.500000
v 0.765000 1.680000 -0.500000
v 0.735000 1.150000 -0.340000
v 0.735000 1.650000 -0.340000
v 0.735000 1.150000 -0.460000
v 0.735000 1.650000 -0.460000
v 0.775000 1.150000 -0.340000
v 0.775000 1.650000 -0.340000
v 0.775000 1.150000 -0.460000
v 0.775000 1.650000 -0.460000
v 0.755000 1.638000 -0.484000
v 0.839000 1.638000 -0.400000
v 0.755000 1.638000 -0.316000
v 0.671000 1.638000 -0.400000
v 0.755000 1.746000 -0.400000
v 0.715000 1.120000 -0.900000
v 0.715000 1.680000 -0.900000
v 0.715000 1.120000 -1.100000
v 0.715000 1.680000 -1.100000
v 0.765000 1.120000 -0.900000
v 0.765000 1.680000 -0.900000
v 0.765000 1.120000 -1.100000
v 0.765000 1.680000 -1.100000
v 0.735000 1.150000 -0.940000
v 0.735000 1.650000 -0.940000
v 0.735000 1.150000 -1.060000
v 0.735000 1.650000 -1.060000
v 0.775000 1.150000 -0.940000
v 0.775000 1.650000 -0.940000
v 0.775000 1.150000 -1.060000
v 0.775000 1.650000 -1.060000
v 0.755000 1.638000 -1.084000
v 0.839000 1.638000 -1.000000
v 0.755000 1.638000 -0.916000
v 0.671000 1.638000 -1.000000
v 0.755000 1.746000 -1.000000
v 0.000000 2.600000 1.770000
v 0.000000 2.600000 1.810000
v 0.212132 2.512132 1.770000
v 0.212132 2.512132 1.810000
v 0.300000 2.300000 1.770000
v 0.300000 2.300000 1.810000
v 0.212132 2.087868 1.770000
v 0.212132 2.087868 1.810000
v 0.000000 2.000000 1.770000
v 0.000000 2.000000 1.810000
v -0.212132 2.087868 1.770000
v -0.212132 2.087868 1.810000
v -0.300000 2.300000 1.770000
v -0.300000 2.300000 1.810000
v -0.212132 2.512132 1.770000
v -0.212132 2.512132 1.810000
v 0.000000 2.560000 1.780000
v 0.000000 2.560000 1.840000
v 0.183848 2.483848 1.780000
v 0.183848 2.483848 1.840000
v 0.260000 2.300000 1.780000
v 0.260000 2.300000 1.840000
v 0.183848 2.116152 1.780000
v 0.183848 2.116152 1.840000
v 0.000000 2.040000 1.780000
v 0.000000 2.040000 1.840000
v -0.183848 2.116152 1.780000
v -0.183848 2.116152 1.840000
v -0.260000 2.300000 1.780000
v -0.260000 2.300000 1.840000
v -0.183848 2.483848 1.780000
v -0.183848 2.483848 1.840000
v -0.250000 2.275000 1.850000
v -0.250000 2.325000 1.850000
v -0.250000 2.275000 1.810000
v -0.250000 2.325000 1.810000
v 0.250000 2.275000 1.850000
v 0.250000 2.325000 1.850000
v 0.250000 2.275000 1.810000
v 0.250000 2.325000 1.810000
v -0.025000 2.050000 1.850000
v -0.025000 2.550000 1.850000
v -0.025000 2.050000 1.810000
v -0.025000 2.550000 1.810000
v 0.025000 2.050000 1.850000
v 0.025000 2.550000 1.850000
v 0.025000 2.050000 1.810000
v 0.025000 2.550000 1.810000
v 0.630000 2.000000 1.290000
v 0.630000 2.120000 1.290000
v 0.630000 2.000000 1.110000
v 0.630000 2.120000 1.110000
v 0.810000 2.000000 1.290000
v 0.810000 2.120000 1.290000
v 0.810000 2.000000 1.110000
v 0.810000 2.120000 1.110000
v 0.755000 2.080000 1.265000
v 0.755000 2.240000 1.265000
v 0.755000 2.080000 1.135000
v 0.755000 2.240000 1.135000
v 0.885000 2.080000 1.265000
v 0.885000 2.240000 1.265000
v 0.885000 2.080000 1.135000
v 0.885000 2.240000 1.135000
v 0.890000 2.170000 1.250000
v 0.890000 2.270000 1.250000
v 0.890000 2.170000 1.150000
v 0.890000 2.270000 1.150000
v 0.990000 2.170000 1.250000
v 0.990000 2.270000 1.250000
v 0.990000 2.170000 1.150000
v 0.990000 2.270000 1.150000
v 0.980000 2.165000 1.230000
v 0.980000 2.215000 1.230000
v 0.980000 2.165000 1.170000
v 0.980000 2.215000 1.170000
v 1.100000 2.165000 1.230000
v 1.100000 2.215000 1.230000
v 1.100000 2.165000 1.170000
v 1.100000 2.215000 1.170000
v 0.940000 2.265000 1.220000
v 0.970000 2.265000 1.250000
v 0.940000 2.265000 1.280000
v 0.910000 2.265000 1.250000
v 0.940000 2.355000 1.250000
v 0.690000 2.100000 1.345000
v 0.690000 2.300000 1.345000
v 0.690000 2.100000 1.255000
v 0.690000 2.300000 1.255000
v 0.710000 2.100000 1.345000
v 0.710000 2.300000 1.345000
v 0.710000 2.100000 1.255000
v 0.710000 2.300000 1.255000
v 0.935000 1.980000 1.285000
v 0.935000 2.100000 1.285000
v 0.935000 1.980000 1.235000
v 0.935000 2.100000 1.235000
v 0.985000 1.980000 1.285000
v 0.985000 2.100000 1.285000
v 0.985000 1.980000 1.235000
v 0.985000 2.100000 1.235000
v 0.940000 2.265000 1.120000
v 0.970000 2.265000 1.150000
v 0.940000 2.265000 1.180000
v 0.910000 2.265000 1.150000
v 0.940000 2.355000 1.150000
v 0.690000 2.100000 1.145000
v 0.690000 2.300000 1.145000
v 0.690000 2.100000 1.055000
v 0.690000 2.300000 1.055000
v 0.710000 2.100000 1.145000
v 0.710000 2.300000 1.145000
v 0.710000 2.100000 1.055000
v 0.710000 2.300000 1.055000
v 0.935000 1.980000 1.165000
v 0.935000 2.100000 1.165000
v 0.935000 1.980000 1.115000
v 0.935000 2.100000 1.115000
v 0.985000 1.980000 1.165000
v 0.985000 2.100000 1.165000
v 0.985000 1.980000 1.115000
v 0.985000 2.100000 1.115000
v -0.810000 2.000000 1.290000
v -0.810000 2.120000 1.290000
v -0.810000 2.000000 1.110000
v -0.810000 2.120000 1.110000
v -0.630000 2.000000 1.290000
v -0.630000 2.120000 1.290000
v -0.630000 2.000000 1.110000
v -0.630000 2.120000 1.110000
v -0.755000 2.080000 1.135000
v -0.755000 2.240000 1.135000
v -0.755000 2.080000 1.265000
v -0.755000 2.240000 1.265000
v -0.885000 2.080000 1.135000
v -0.885000 2.240000 1.135000
v -0.885000 2.080000 1.265000
v -0.885000 2.240000 1.265000
v -0.890000 2.170000 1.150000
v -0.890000 2.270000 1.150000
v -0.890000 2.170000 1.250000
v -0.890000 2.270000 1.250000
v -0.990000 2.170000 1.150000
v -0.990000 2.270000 1.150000
v -0.990000 2.170000 1.250000
v -0.990000 2.270000 1.250000
v -0.980000 2.165000 1.170000
v -0.980000 2.215000 1.170000
v -0.980000 2.165000 1.230000
v -0.980000 2.215000 1.230000
v -1.100000 2.165000 1.170000
v -1.100000 2.215000 1.170000
v -1.100000 2.165000 1.230000
v -1.100000 2.215000 1.230000
v -0.940000 2.265000 1.120000
v -0.910000 2.265000 1.150000
v -0.940000 2.265000 1.180000
v -0.970000 2.265000 1.150000
v -0.940000 2.355000 1.150000
v -0.690000 2.100000 1.055000
v -0.690000 2.300000 1.055000
v -0.690000 2.100000 1.145000
v -0.690000 2.300000 1.145000
v -0.710000 2.100000 1.055000
v -0.710000 2.300000 1.055000
v -0.710000 2.100000 1.145000
v -0.710000 2.300000 1.145000
v -0.935000 1.980000 1.115000
v -0.935000 2.100000 1.115000
v -0.935000 1.980000 1.165000
v -0.935000 2.100000 1.165000
v -0.985000 1.980000 1.115000
v -0.985000 2.100000 1.115000
v -0.985000 1.980000 1.165000
v -0.985000 2.100000 1.165000
v -0.940000 2.265000 1.220000
v -0.910000 2.265000 1.250000
v -0.940000 2.265000 1.280000
v -0.970000 2.265000 1.250000
v -0.940000 2.355000 1.250000
v -0.690000 2.100000 1.255000
v -0.690000 2.300000 1.255000
v -0.690000 2.100000 1.345000
v -0.690000 2.300000 1.345000
v -0.710000 2.100000 1.255000
v -0.710000 2.300000 1.255000
v -0.710000 2.100000 1.345000
v -0.710000 2.300000 1.345000
v -0.935000 1.980000 1.235000
v -0.935000 2.100000 1.235000
v -0.935000 1.980000 1.285000
v -0.935000 2.100000 1.285000
v -0.985000 1.980000 1.235000
v -0.985000 2.100000 1.235000
v -0.985000 1.980000 1.285000
v -0.985000 2.100000 1.285000
v -0.230000 1.450000 1.815000
v -0.230000 1.500000 1.815000
v -0.230000 1.450000 1.765000
v -0.230000 1.500000 1.765000
v 0.230000 1.450000 1.815000
v 0.230000 1.500000 1.815000
v 0.230000 1.450000 1.765000
v 0.230000 1.500000 1.765000
v -0.200000 0.937500 1.860000
v -0.200000 1.462500 1.860000
v -0.200000 0.937500 1.840000
v -0.200000 1.462500 1.840000
v 0.200000 0.937500 1.860000
v 0.200000 1.462500 1.860000
v 0.200000 0.937500 1.840000
v 0.200000 1.462500 1.840000
v -0.190000 0.840000 1.860000
v -0.190000 0.940000 1.860000
v -0.190000 0.840000 1.840000
v -0.190000 0.940000 1.840000
v -0.110000 0.840000 1.860000
v -0.110000 0.940000 1.860000
v -0.110000 0.840000 1.840000
v -0.110000 0.940000 1.840000
v -0.090000 0.840000 1.860000
v -0.090000 0.940000 1.860000
v -0.090000 0.840000 1.840000
v -0.090000 0.940000 1.840000
v -0.010000 0.840000 1.860000
v -0.010000 0.940000 1.860000
v -0.010000 0.840000 1.840000
v -0.010000 0.940000 1.840000
v 0.010000 0.840000 1.860000
v 0.010000 0.940000 1.860000
v 0.010000 0.840000 1.840000
v 0.010000 0.940000 1.840000
v 0.090000 0.840000 1.860000
v 0.090000 0.940000 1.860000
v 0.090000 0.840000 1.840000
v 0.090000 0.940000 1.840000
v 0.110000 0.840000 1.860000
v 0.110000 0.940000 1.860000
v 0.110000 0.840000 1.840000
v 0.110000 0.940000 1.840000
v 0.190000 0.840000 1.860000
v 0.190000 0.940000 1.860000
v 0.190000 0.840000 1.840000
v 0.190000 0.940000 1.840000
v -0.060000 0.970000 1.880000
v -0.060000 1.010000 1.880000
v -0.060000 0.970000 1.860000
v -0.060000 1.010000 1.860000
v 0.000000 0.970000 1.880000
v 0.000000 1.010000 1.880000
v 0.000000 0.970000 1.860000
v 0.000000 1.010000 1.860000
v -0.080000 1.005000 1.880000
v -0.080000 1.045000 1.880000
v -0.080000 1.005000 1.860000
v -0.080000 1.045000 1.860000
v 0.020000 1.005000 1.880000
v 0.020000 1.045000 1.880000
v 0.020000 1.005000 1.860000
v 0.020000 1.045000 1.860000
v -0.090000 1.040000 1.880000
v -0.090000 1.080000 1.880000
v -0.090000 1.040000 1.860000
v -0.090000 1.080000 1.860000
v 0.030000 1.040000 1.880000
v 0.030000 1.080000 1.880000
v 0.030000 1.040000 1.860000
v 0.030000 1.080000 1.860000
v -0.085000 1.075000 1.880000
v -0.085000 1.115000 1.880000
v -0.085000 1.075000 1.860000
v -0.085000 1.115000 1.860000
v 0.025000 1.075000 1.880000
v 0.025000 1.115000 1.880000
v 0.025000 1.075000 1.860000
v 0.025000 1.115000 1.860000
v -0.050000 1.110000 1.880000
v -0.050000 1.150000 1.880000
v -0.050000 1.110000 1.860000
v -0.050000 1.150000 1.860000
v 0.030000 1.110000 1.880000
v 0.030000 1.150000 1.880000
v 0.030000 1.110000 1.860000
v 0.030000 1.150000 1.860000
v -0.015000 1.145000 1.880000
v -0.015000 1.185000 1.880000
v -0.015000 1.145000 1.860000
v -0.015000 1.185000 1.860000
v 0.035000 1.145000 1.880000
v 0.035000 1.185000 1.880000
v 0.035000 1.145000 1.860000
v 0.035000 1.185000 1.860000
v 0.017500 1.180000 1.880000
v 0.017500 1.220000 1.880000
v 0.017500 1.180000 1.860000
v 0.017500 1.220000 1.860000
v 0.042500 1.180000 1.880000
v 0.042500 1.220000 1.880000
v 0.042500 1.180000 1.860000
v 0.042500 1.220000 1.860000
v 0.070000 1.010000 1.880000
v 0.070000 1.050000 1.880000
v 0.070000 1.010000 1.860000
v 0.070000 1.050000 1.860000
v 0.110000 1.010000 1.880000
v 0.110000 1.050000 1.880000
v 0.110000 1.010000 1.860000
v 0.110000 1.050000 1.860000
v -0.060000 0.970000 1.840000
v -0.060000 1.010000 1.840000
v -0.060000 0.970000 1.820000
v -0.060000 1.010000 1.820000
v 0.000000 0.970000 1.840000
v 0.000000 1.010000 1.840000
v 0.000000 0.970000 1.820000
v 0.000000 1.010000 1.820000
v -0.080000 1.005000 1.840000
v -0.080000 1.045000 1.840000
v -0.080000 1.005000 1.820000
v -0.080000 1.045000 1.820000
v 0.020000 1.005000 1.840000
v 0.020000 1.045000 1.840000
v 0.020000 1.005000 1.820000
v 0.020000 1.045000 1.820000
v -0.090000 1.040000 1.840000
v -0.090000 1.080000 1.840000
v -0.090000 1.040000 1.820000
v -0.090000 1.080000 1.820000
v 0.030000 1.040000 1.840000
v 0.030000 1.080000 1.840000
v 0.030000 1.040000 1.820000
v 0.030000 1.080000 1.820000
v -0.085000 1.075000 1.840000
v -0.085000 1.115000 1.840000
v -0.085000 1.075000 1.820000
v -0.085000 1.115000 1.820000
v 0.025000 1.075000 1.840000
v 0.025000 1.115000 1.840000
v 0.025000 1.075000 1.820000
v 0.025000 1.115000 1.820000
v -0.050000 1.110000 1.840000
v -0.050000 1.150000 1.840000
v -0.050000 1.110000 1.820000
v -0.050000 1.150000 1.820000
v 0.030000 1.110000 1.840000
v 0.030000 1.150000 1.840000
v 0.030000 1.110000 1.820000
v 0.030000 1.150000 1.820000
v -0.015000 1.145000 1.840000
v -0.015000 1.185000 1.840000
v -0.015000 1.145000 1.820000
v -0.015000 1.185000 1.820000
v 0.035000 1.145000 1.840000
v 0.035000 1.185000 1.840000
v 0.035000 1.145000 1.820000
v 0.035000 1.185000 1.820000
v 0.017500 1.180000 1.840000
v 0.017500 1.220000 1.840000
v 0.017500 1.180000 1.820000
v 0.017500 1.220000 1.820000
v 0.042500 1.180000 1.840000
v 0.042500 1.220000 1.840000
v 0.042500 1.180000 1.820000
v 0.042500 1.220000 1.820000
v 0.070000 1.010000 1.840000
v 0.070000 1.050000 1.840000
v 0.070000 1.010000 1.820000
v 0.070000 1.050000 1.820000
v 0.110000 1.010000 1.840000
v 0.110000 1.050000 1.840000
v 0.110000 1.010000 1.820000
v 0.110000 1.050000 1.820000
v -0.700000 0.280000 1.200000
v -0.613168 0.346334 1.263086
v -0.733166 0.346334 1.302077
v -0.807331 0.346334 1.200000
v -0.733166 0.346334 1.097923
v -0.613168 0.346334 1.136914
v -0.666834 0.453666 1.302077
v -0.786832 0.453666 1.263086
v -0.786832 0.453666 1.136914
v -0.666834 0.453666 1.097923
v -0.592669 0.453666 1.200000
v -0.700000 0.520000 1.200000
v -0.700000 0.680000 1.200000
v -0.613168 0.746334 1.263086
v -0.733166 0.746334 1.302077
v -0.807331 0.746334 1.200000
v -0.733166 0.746334 1.097923
v -0.613168 0.746334 1.136914
v -0.666834 0.853666 1.302077
v -0.786832 0.853666 1.263086
v -0.786832 0.853666 1.136914
v -0.666834 0.853666 1.097923
v -0.592669 0.853666 1.200000
v -0.700000 0.920000 1.200000
v 0.700000 0.280000 1.200000
v 0.786832 0.346334 1.263086
v 0.666834 0.346334 1.302077
v 0.592669 0.346334 1.200000
v 0.666834 0.346334 1.097923
v 0.786832 0.346334 1.136914
v 0.733166 0.453666 1.302077
v 0.613168 0.453666 1.263086
v 0.613168 0.453666 1.136914
v 0.733166 0.453666 1.097923
v 0.807331 0.453666 1.200000
v 0.700000 0.520000 1.200000
v 0.700000 0.680000 1.200000
v 0.786832 0.746334 1.263086
v 0.666834 0.746334 1.302077
v 0.592669 0.746334 1.200000
v 0.666834 0.746334 1.097923
v 0.786832 0.746334 1.136914
v 0.733166 0.853666 1.302077
v 0.613168 0.853666 1.263086
v 0.613168 0.853666 1.136914
v 0.733166 0.853666 1.097923
v 0.807331 0.853666 1.200000
v 0.700000 0.920000 1.200000
vn -1.0000 -0.0000 -0.0000
vn -0.0000 -0.0000 -1.0000
vn 1.0000 -0.0000 -0.0000
vn -0.0000 -0.0000 1.0000
vn -0.0000 -1.0000 -0.0000
vn -0.0000 1.0000 -0.0000
vn -0.7027 0.7115 -0.0000
vn 0.7027 0.7115 -0.0000
vn -0.7115 -0.7027 -0.0000
vn 0.7115 0.7027 -0.0000
vn 0.7027 -0.7115 -0.0000
vn -0.7115 0.7027 -0.0000
vn 0.7115 -0.7027 -0.0000
vn -0.7027 -0.7115 -0.0000
vn -0.0000 0.2914 -0.9566
vn 0.9566 0.2914 -0.0000
vn -0.0000 0.2914 0.9566
vn -0.9566 0.2914 -0.0000
vn 0.6196 0.4819 -0.6196
vn 0.6196 0.4819 0.6196
vn -0.6196 0.4819 0.6196
vn -0.6196 0.4819 -0.6196
vn 0.3827 0.9239 -0.0000
vn 0.9239 0.3827 -0.0000
vn 0.9239 -0.3827 -0.0000
vn 0.3827 -0.9239 -0.0000
vn -0.3827 -0.9239 -0.0000
vn -0.9239 -0.3827 -0.0000
vn -0.9239 0.3827 -0.0000
vn -0.3827 0.9239 -0.0000
vn 0.6882 0.2294 -0.6882
vn 0.6882 0.2294 0.6882
vn -0.6882 0.2294 0.6882
vn -0.6882 0.2294 -0.6882
vn 0.1876 -0.7947 0.5774
vn 0.6071 -0.7947 -0.0000
vn -0.4911 -0.7947 0.3568
vn -0.4911 -0.7947 -0.3568
vn 0.1876 -0.7947 -0.5774
vn 0.9822 -0.1876 -0.0000
vn 0.3035 -0.1876 0.9342
vn -0.7946 -0.1876 0.5774
vn -0.7946 -0.1876 -0.5774
vn 0.3035 -0.1876 -0.9342
vn 0.7946 0.1876 0.5774
vn -0.3035 0.1876 0.9342
vn -0.9822 0.1876 -0.0000
vn -0.3035 0.1876 -0.9342
vn 0.7946 0.1876 -0.5774
vn 0.4911 0.7947 0.3568
vn -0.1876 0.7947 0.5774
vn -0.6071 0.7947 -0.0000
vn -0.1876 0.7947 -0.5774
vn 0.4911 0.7947 -0.3568
vt 0.126953 0.001953
vt 0.126953 0.164062
vt 0.248047 0.164062
vt 0.248047 0.001953
vt 0.001953 0.001953
vt 0.001953 0.164062
vt 0.123047 0.164062
vt 0.123047 0.001953
vt 0.376953 0.167969
vt 0.498047 0.167969
vt 0.437500 0.330078
vt 0.498047 0.330078
vt 0.376953 0.330078
vt 0.001953 0.832031
vt 0.001953 0.994141
vt 0.123047 0.994141
vt 0.123047 0.832031
vt 0.498047 0.249023
vt 0.437500 0.167969
vt 0.376953 0.249023
vt 0.876953 0.167969
vt 0.876953 0.330078
vt 0.998047 0.330078
vt 0.998047 0.167969
vt 0.062500 0.994141
vt 0.123047 0.913086
vt 0.062500 0.832031
vt 0.001953 0.913086
vt 0.230313 0.140322
vt 0.187500 0.164062
vt 0.144687 0.140322
vt 0.126953 0.083008
vt 0.144687 0.025693
vt 0.187500 0.001953
vt 0.230313 0.025693
vt 0.248047 0.083008
vt 0.251953 0.832031
vt 0.251953 0.994141
vt 0.373047 0.994141
vt 0.373047 0.832031
vt 0.355313 0.970400
vt 0.312500 0.994141
vt 0.269687 0.970400
vt 0.251953 0.913086
vt 0.269687 0.855772
vt 0.312500 0.832031
vt 0.355313 0.855772
vt 0.373047 0.913086
vt 0.001953 0.167969
vt 0.001953 0.330078
vt 0.123047 0.330078
vt 0.123047 0.167969
vt 0.126953 0.666016
vt 0.126953 0.828125
vt 0.248047 0.828125
vt 0.248047 0.666016
vt 0.126953 0.832031
vt 0.126953 0.994141
vt 0.248047 0.994141
vt 0.248047 0.832031
vt 0.535422 0.496094
vt 0.623047 0.395905
vt 0.501953 0.333984
vt 0.623047 0.333984
vt 0.501953 0.415039
vt 0.623047 0.496094
vt 0.585628 0.333984
vt 0.501953 0.496094
vt 0.585628 0.496094
vt 0.535422 0.333984
vt 0.623047 0.434173
vt 0.562500 0.496094
vt 0.568891 0.496094
vt 0.548207 0.496094
vt 0.576793 0.496094
vt 0.548207 0.333984
vt 0.556109 0.333984
vt 0.562500 0.333984
vt 0.576793 0.333984
vt 0.539372 0.333984
vt 0.501953 0.395905
vt 0.589578 0.496094
vt 0.623047 0.415039
vt 0.501953 0.434173
vt 0.589578 0.333984
vt 0.539372 0.496094
s 0
usemtl kit_atlas_mat
f 1/1/1 2/2/1 4/3/1 3/4/1
f 3/1/2 4/2/2 8/3/2 7/4/2
f 7/4/3 8/3/3 6/2/3 5/1/3
f 5/4/4 6/3/4 2/2/4 1/1/4
f 3/2/5 7/3/5 5/4/5 1/1/5
f 8/3/6 4/2/6 2/1/6 6/4/6
f 9/5/1 10/6/1 12/7/1 11/8/1
f 11/5/2 12/6/2 16/7/2 15/8/2
f 15/8/3 16/7/3 14/6/3 13/5/3
f 13/8/4 14/7/4 10/6/4 9/5/4
f 11/6/5 15/7/5 13/8/5 9/5/5
f 16/7/6 12/6/6 10/5/6 14/8/6
f 17/9/4 18/10/4 19/11/4
f 22/11/2 21/10/2 20/9/2
f 17/9/7 19/10/7 22/12/7 20/13/7
f 19/9/8 18/10/8 21/12/8 22/13/8
f 18/10/5 17/9/5 20/13/5 21/12/5
f 23/1/9 24/2/9 26/3/9 25/4/9
f 25/1/2 26/2/2 30/3/2 29/4/2
f 29/4/10 30/3/10 28/2/10 27/1/10
f 27/4/4 28/3/4 24/2/4 23/1/4
f 25/2/11 29/3/11 27/4/11 23/1/11
f 30/3/7 26/2/7 24/1/7 28/4/7
f 31/1/12 32/2/12 34/3/12 33/4/12
f 33/1/2 34/2/2 38/3/2 37/4/2
f 37/4/13 38/3/13 36/2/13 35/1/13
f 35/4/4 36/3/4 32/2/4 31/1/4
f 33/2/14 37/3/14 35/4/14 31/1/14
f 38/3/8 34/2/8 32/1/8 36/4/8
f 39/1/9 40/2/9 42/3/9 41/4/9
f 41/1/2 42/2/2 46/3/2 45/4/2
f 45/4/10 46/3/10 44/2/10 43/1/10
f 43/4/4 44/3/4 40/2/4 39/1/4
f 41/2/11 45/3/11 43/4/11 39/1/11
f 46/3/7 42/2/7 40/1/7 44/4/7
f 47/1/12 48/2/12 50/3/12 49/4/12
f 49/1/2 50/2/2 54/3/2 53/4/2
f 53/4/13 54/3/13 52/2/13 51/1/13
f 51/4/4 52/3/4 48/2/4 47/1/4
f 49/2/14 53/3/14 51/4/14 47/1/14
f 54/3/8 50/2/8 48/1/8 52/4/8
f 55/5/1 56/6/1 58/7/1 57/8/1
f 57/5/2 58/6/2 62/7/2 61/8/2
f 61/8/3 62/7/3 60/6/3 59/5/3
f 59/8/4 60/7/4 56/6/4 55/5/4
f 57/6/5 61/7/5 59/8/5 55/5/5
f 62/7/6 58/6/6 56/5/6 60/8/6
f 63/14/1 64/15/1 66/16/1 65/17/1
f 65/14/2 66/15/2 70/16/2 69/17/2
f 69/17/3 70/16/3 68/15/3 67/14/3
f 67/17/4 68/16/4 64/15/4 63/14/4
f 65/15/5 69/16/5 67/17/5 63/14/5
f 70/16/6 66/15/6 64/14/6 68/17/6
f 71/14/1 72/15/1 74/16/1 73/17/1
f 73/14/2 74/15/2 78/16/2 77/17/2
f 77/17/3 78/16/3 76/15/3 75/14/3
f 75/17/4 76/16/4 72/15/4 71/14/4
f 73/15/5 77/16/5 75/17/5 71/14/5
f 78/16/6 74/15/6 72/14/6 76/17/6
f 79/10/15 83/13/15 80/9/15
f 80/10/16 83/12/16 81/9/16
f 79/11/5 80/18/5 81/19/5 82/20/5
f 81/9/17 83/12/17 82/10/17
f 82/9/18 83/13/18 79/10/18
f 84/21/1 85/22/1 87/23/1 86/24/1
f 86/21/2 87/22/2 91/23/2 90/24/2
f 90/24/3 91/23/3 89/22/3 88/21/3
f 88/24/4 89/23/4 85/22/4 84/21/4
f 86/22/5 90/23/5 88/24/5 84/21/5
f 91/23/6 87/22/6 85/21/6 89/24/6
f 92/21/1 93/22/1 95/23/1 94/24/1
f 94/21/2 95/22/2 99/23/2 98/24/2
f 98/24/3 99/23/3 97/22/3 96/21/3
f 96/24/4 97/23/4 93/22/4 92/21/4
f 94/22/5 98/23/5 96/24/5 92/21/5
f 99/23/6 95/22/6 93/21/6 97/24/6
f 100/1/1 101/2/1 103/3/1 102/4/1
f 102/1/2 103/2/2 107/3/2 106/4/2
f 106/4/3 107/3/3 105/2/3 104/1/3
f 104/4/4 105/3/4 101/2/4 100/1/4
f 102/2/5 106/3/5 104/4/5 100/1/5
f 107/3/6 103/2/6 101/1/6 105/4/6
f 108/1/1 109/2/1 111/3/1 110/4/1
f 110/1/2 111/2/2 115/3/2 114/4/2
f 114/4/3 115/3/3 113/2/3 112/1/3
f 112/4/4 113/3/4 109/2/4 108/1/4
f 110/2/5 114/3/5 112/4/5 108/1/5
f 115/3/6 111/2/6 109/1/6 113/4/6
f 116/1/1 117/2/1 119/3/1 118/4/1
f 118/1/2 119/2/2 123/3/2 122/4/2
f 122/4/3 123/3/3 121/2/3 120/1/3
f 120/4/4 121/3/4 117/2/4 116/1/4
f 118/2/5 122/3/5 120/4/5 116/1/5
f 123/3/6 119/2/6 117/1/6 121/4/6
f 124/14/1 125/15/1 127/16/1 126/17/1
f 126/14/2 127/15/2 131/16/2 130/17/2
f 130/17/3 131/16/3 129/15/3 128/14/3
f 128/17/4 129/16/4 125/15/4 124/14/4
f 126/15/5 130/16/5 128/17/5 124/14/5
f 131/16/6 127/15/6 125/14/6 129/17/6
f 132/17/19 136/15/19 133/14/19
f 133/17/20 136/16/20 134/14/20
f 132/25/5 133/26/5 134/27/5 135/28/5
f 134/14/21 136/16/21 135/17/21
f 135/14/22 136/15/22 132/17/22
f 137/1/1 138/2/1 140/3/1 139/4/1
f 139/1/2 140/2/2 144/3/2 143/4/2
f 143/4/3 144/3/3 142/2/3 141/1/3
f 141/4/4 142/3/4 138/2/4 137/1/4
f 139/2/5 143/3/5 141/4/5 137/1/5
f 144/3/6 140/2/6 138/1/6 142/4/6
f 145/14/1 146/15/1 148/16/1 147/17/1
f 147/14/2 148/15/2 152/16/2 151/17/2
f 151/17/3 152/16/3 150/15/3 149/14/3
f 149/17/4 150/16/4 146/15/4 145/14/4
f 147/15/5 151/16/5 149/17/5 145/14/5
f 152/16/6 148/15/6 146/14/6 150/17/6
f 153/17/19 157/15/19 154/14/19
f 154/17/20 157/16/20 155/14/20
f 153/25/5 154/26/5 155/27/5 156/28/5
f 155/14/21 157/16/21 156/17/21
f 156/14/22 157/15/22 153/17/22
f 158/1/1 159/2/1 161/3/1 160/4/1
f 160/1/2 161/2/2 165/3/2 164/4/2
f 164/4/3 165/3/3 163/2/3 162/1/3
f 162/4/4 163/3/4 159/2/4 158/1/4
f 160/2/5 164/3/5 162/4/5 158/1/5
f 165/3/6 161/2/6 159/1/6 163/4/6
f 166/14/1 167/15/1 169/16/1 168/17/1
f 168/14/2 169/15/2 173/16/2 172/17/2
f 172/17/3 173/16/3 171/15/3 170/14/3
f 170/17/4 171/16/4 167/15/4 166/14/4
f 168/15/5 172/16/5 170/17/5 166/14/5
f 173/16/6 169/15/6 167/14/6 171/17/6
f 174/17/19 178/15/19 175/14/19
f 175/17/20 178/16/20 176/14/20
f 174/25/5 175/26/5 176/27/5 177/28/5
f 176/14/21 178/16/21 177/17/21
f 177/14/22 178/15/22 174/17/22
f 179/1/1 180/2/1 182/3/1 181/4/1
f 181/1/2 182/2/2 186/3/2 185/4/2
f 185/4/3 186/3/3 184/2/3 183/1/3
f 183/4/4 184/3/4 180/2/4 179/1/4
f 181/2/5 185/3/5 183/4/5 179/1/5
f 186/3/6 182/2/6 180/1/6 184/4/6
f 187/1/1 188/2/1 190/3/1 189/4/1
f 189/1/2 190/2/2 194/3/2 193/4/2
f 193/4/3 194/3/3 192/2/3 191/1/3
f 191/4/4 192/3/4 188/2/4 187/1/4
f 189/2/5 193/3/5 191/4/5 187/1/5
f 194/3/6 190/2/6 188/1/6 192/4/6
f 195/1/1 196/2/1 198/3/1 197/4/1
f 197/1/2 198/2/2 202/3/2 201/4/2
f 201/4/3 202/3/3 200/2/3 199/1/3
f 199/4/4 200/3/4 196/2/4 195/1/4
f 197/2/5 201/3/5 199/4/5 195/1/5
f 202/3/6 198/2/6 196/1/6 200/4/6
f 203/14/1 204/15/1 206/16/1 205/17/1
f 205/14/2 206/15/2 210/16/2 209/17/2
f 209/17/3 210/16/3 208/15/3 207/14/3
f 207/17/4 208/16/4 204/15/4 203/14/4
f 205/15/5 209/16/5 207/17/5 203/14/5
f 210/16/6 206/15/6 204/14/6 208/17/6
f 211/17/19 215/15/19 212/14/19
f 212/17/20 215/16/20 213/14/20
f 211/25/5 212/26/5 213/27/5 214/28/5
f 213/14/21 215/16/21 214/17/21
f 214/14/22 215/15/22 211/17/22
f 216/1/1 217/2/1 219/3/1 218/4/1
f 218/1/2 219/2/2 223/3/2 222/4/2
f 222/4/3 223/3/3 221/2/3 220/1/3
f 220/4/4 221/3/4 217/2/4 216/1/4
f 218/2/5 222/3/5 220/4/5 216/1/5
f 223/3/6 219/2/6 217/1/6 221/4/6
f 224/14/1 225/15/1 227/16/1 226/17/1
f 226/14/2 227/15/2 231/16/2 230/17/2
f 230/17/3 231/16/3 229/15/3 228/14/3
f 228/17/4 229/16/4 225/15/4 224/14/4
f 226/15/5 230/16/5 228/17/5 224/14/5
f 231/16/6 227/15/6 225/14/6 229/17/6
f 232/17/19 236/15/19 233/14/19
f 233/17/20 236/16/20 234/14/20
f 232/25/5 233/26/5 234/27/5 235/28/5
f 234/14/21 236/16/21 235/17/21
f 235/14/22 236/15/22 232/17/22
f 237/1/1 238/2/1 240/3/1 239/4/1
f 239/1/2 240/2/2 244/3/2 243/4/2
f 243/4/3 244/3/3 242/2/3 241/1/3
f 241/4/4 242/3/4 238/2/4 237/1/4
f 239/2/5 243/3/5 241/4/5 237/1/5
f 244/3/6 240/2/6 238/1/6 242/4/6
f 245/14/1 246/15/1 248/16/1 247/17/1
f 247/14/2 248/15/2 252/16/2 251/17/2
f 251/17/3 252/16/3 250/15/3 249/14/3
f 249/17/4 250/16/4 246/15/4 245/14/4
f 247/15/5 251/16/5 249/17/5 245/14/5
f 252/16/6 248/15/6 246/14/6 250/17/6
f 253/17/19 257/15/19 254/14/19
f 254/17/20 257/16/20 255/14/20
f 253/25/5 254/26/5 255/27/5 256/28/5
f 255/14/21 257/16/21 256/17/21
f 256/14/22 257/15/22 253/17/22
f 258/1/23 259/2/23 261/3/23 260/4/23
f 260/4/24 261/3/24 263/2/24 262/1/24
f 262/4/25 263/3/25 265/2/25 264/1/25
f 264/4/26 265/3/26 267/2/26 266/1/26
f 266/4/27 267/3/27 269/2/27 268/1/27
f 268/1/28 269/2/28 271/3/28 270/4/28
f 261/29/4 259/30/4 273/31/4 271/32/4 269/33/4 267/34/4 265/35/4 263/36/4
f 270/1/29 271/2/29 273/3/29 272/4/29
f 272/1/30 273/2/30 259/3/30 258/4/30
f 258/30/2 260/29/2 262/36/2 264/35/2 266/34/2 268/33/2 270/32/2 272/31/2
f 274/37/23 275/38/23 277/39/23 276/40/23
f 276/40/24 277/39/24 279/38/24 278/37/24
f 278/40/25 279/39/25 281/38/25 280/37/25
f 280/40/26 281/39/26 283/38/26 282/37/26
f 282/40/27 283/39/27 285/38/27 284/37/27
f 284/37/28 285/38/28 287/39/28 286/40/28
f 277/41/4 275/42/4 289/43/4 287/44/4 285/45/4 283/46/4 281/47/4 279/48/4
f 286/37/29 287/38/29 289/39/29 288/40/29
f 288/37/30 289/38/30 275/39/30 274/40/30
f 274/42/2 276/41/2 278/48/2 280/47/2 282/46/2 284/45/2 286/44/2 288/43/2
f 290/1/1 291/2/1 293/3/1 292/4/1
f 292/1/2 293/2/2 297/3/2 296/4/2
f 296/4/3 297/3/3 295/2/3 294/1/3
f 294/4/4 295/3/4 291/2/4 290/1/4
f 292/2/5 296/3/5 294/4/5 290/1/5
f 297/3/6 293/2/6 291/1/6 295/4/6
f 298/1/1 299/2/1 301/3/1 300/4/1
f 300/1/2 301/2/2 305/3/2 304/4/2
f 304/4/3 305/3/3 303/2/3 302/1/3
f 302/4/4 303/3/4 299/2/4 298/1/4
f 300/2/5 304/3/5 302/4/5 298/1/5
f 305/3/6 301/2/6 299/1/6 303/4/6
f 306/1/1 307/2/1 309/3/1 308/4/1
f 308/1/2 309/2/2 313/3/2 312/4/2
f 312/4/3 313/3/3 311/2/3 310/1/3
f 310/4/4 311/3/4 307/2/4 306/1/4
f 308/2/5 312/3/5 310/4/5 306/1/5
f 313/3/6 309/2/6 307/1/6 311/4/6
f 314/1/1 315/2/1 317/3/1 316/4/1
f 316/1/2 317/2/2 321/3/2 320/4/2
f 320/4/3 321/3/3 319/2/3 318/1/3
f 318/4/4 319/3/4 315/2/4 314/1/4
f 316/2/5 320/3/5 318/4/5 314/1/5
f 321/3/6 317/2/6 315/1/6 319/4/6
f 322/1/1 323/2/1 325/3/1 324/4/1
f 324/1/2 325/2/2 329/3/2 328/4/2
f 328/4/3 329/3/3 327/2/3 326/1/3
f 326/4/4 327/3/4 323/2/4 322/1/4
f 324/2/5 328/3/5 326/4/5 322/1/5
f 329/3/6 325/2/6 323/1/6 327/4/6
f 330/1/1 331/2/1 333/3/1 332/4/1
f 332/1/2 333/2/2 337/3/2 336/4/2
f 336/4/3 337/3/3 335/2/3 334/1/3
f 334/4/4 335/3/4 331/2/4 330/1/4
f 332/2/5 336/3/5 334/4/5 330/1/5
f 337/3/6 333/2/6 331/1/6 335/4/6
f 338/4/31 342/2/31 339/1/31
f 339/4/32 342/3/32 340/1/32
f 338/30/5 339/36/5 340/34/5 341/32/5
f 340/1/33 342/3/33 341/4/33
f 341/1/34 342/2/34 338/4/34
f 343/1/1 344/2/1 346/3/1 345/4/1
f 345/1/2 346/2/2 350/3/2 349/4/2
f 349/4/3 350/3/3 348/2/3 347/1/3
f 347/4/4 348/3/4 344/2/4 343/1/4
f 345/2/5 349/3/5 347/4/5 343/1/5
f 350/3/6 346/2/6 344/1/6 348/4/6
f 351/1/1 352/2/1 354/3/1 353/4/1
f 353/1/2 354/2/2 358/3/2 357/4/2
f 357/4/3 358/3/3 356/2/3 355/1/3
f 355/4/4 356/3/4 352/2/4 351/1/4
f 353/2/5 357/3/5 355/4/5 351/1/5
f 358/3/6 354/2/6 352/1/6 356/4/6
f 359/4/31 363/2/31 360/1/31
f 360/4/32 363/3/32 361/1/32
f 359/30/5 360/36/5 361/34/5 362/32/5
f 361/1/33 363/3/33 362/4/33
f 362/1/34 363/2/34 359/4/34
f 364/1/1 365/2/1 367/3/1 366/4/1
f 366/1/2 367/2/2 371/3/2 370/4/2
f 370/4/3 371/3/3 369/2/3 368/1/3
f 368/4/4 369/3/4 365/2/4 364/1/4
f 366/2/5 370/3/5 368/4/5 364/1/5
f 371/3/6 367/2/6 365/1/6 369/4/6
f 372/1/1 373/2/1 375/3/1 374/4/1
f 374/1/2 375/2/2 379/3/2 378/4/2
f 378/4/3 379/3/3 377/2/3 376/1/3
f 376/4/4 377/3/4 373/2/4 372/1/4
f 374/2/5 378/3/5 376/4/5 372/1/5
f 379/3/6 375/2/6 373/1/6 377/4/6
f 380/1/1 381/2/1 383/3/1 382/4/1
f 382/1/2 383/2/2 387/3/2 386/4/2
f 386/4/3 387/3/3 385/2/3 384/1/3
f 384/4/4 385/3/4 381/2/4 380/1/4
f 382/2/5 386/3/5 384/4/5 380/1/5
f 387/3/6 383/2/6 381/1/6 385/4/6
f 388/1/3 389/2/3 391/3/3 390/4/3
f 390/1/4 391/2/4 395/3/4 394/4/4
f 394/4/1 395/3/1 393/2/1 392/1/1
f 392/4/2 393/3/2 389/2/2 388/1/2
f 390/2/5 394/3/5 392/4/5 388/1/5
f 395/3/6 391/2/6 389/1/6 393/4/6
f 396/1/3 397/2/3 399/3/3 398/4/3
f 398/1/4 399/2/4 403/3/4 402/4/4
f 402/4/1 403/3/1 401/2/1 400/1/1
f 400/4/2 401/3/2 397/2/2 396/1/2
f 398/2/5 402/3/5 400/4/5 396/1/5
f 403/3/6 399/2/6 397/1/6 401/4/6
f 404/1/3 405/2/3 407/3/3 406/4/3
f 406/1/4 407/2/4 411/3/4 410/4/4
f 410/4/1 411/3/1 409/2/1 408/1/1
f 408/4/2 409/3/2 405/2/2 404/1/2
f 406/2/5 410/3/5 408/4/5 404/1/5
f 411/3/6 407/2/6 405/1/6 409/4/6
f 412/4/31 416/2/31 413/1/31
f 413/4/32 416/3/32 414/1/32
f 412/30/5 413/36/5 414/34/5 415/32/5
f 414/1/33 416/3/33 415/4/33
f 415/1/34 416/2/34 412/4/34
f 417/1/3 418/2/3 420/3/3 419/4/3
f 419/1/4 420/2/4 424/3/4 423/4/4
f 423/4/1 424/3/1 422/2/1 421/1/1
f 421/4/2 422/3/2 418/2/2 417/1/2
f 419/2/5 423/3/5 421/4/5 417/1/5
f 424/3/6 420/2/6 418/1/6 422/4/6
f 425/1/3 426/2/3 428/3/3 427/4/3
f 427/1/4 428/2/4 432/3/4 431/4/4
f 431/4/1 432/3/1 430/2/1 429/1/1
f 429/4/2 430/3/2 426/2/2 425/1/2
f 427/2/5 431/3/5 429/4/5 425/1/5
f 432/3/6 428/2/6 426/1/6 430/4/6
f 433/4/31 437/2/31 434/1/31
f 434/4/32 437/3/32 435/1/32
f 433/30/5 434/36/5 435/34/5 436/32/5
f 435/1/33 437/3/33 436/4/33
f 436/1/34 437/2/34 433/4/34
f 438/1/3 439/2/3 441/3/3 440/4/3
f 440/1/4 441/2/4 445/3/4 444/4/4
f 444/4/1 445/3/1 443/2/1 442/1/1
f 442/4/2 443/3/2 439/2/2 438/1/2
f 440/2/5 444/3/5 442/4/5 438/1/5
f 445/3/6 441/2/6 439/1/6 443/4/6
f 446/1/3 447/2/3 449/3/3 448/4/3
f 448/1/4 449/2/4 453/3/4 452/4/4
f 452/4/1 453/3/1 451/2/1 450/1/1
f 450/4/2 451/3/2 447/2/2 446/1/2
f 448/2/5 452/3/5 450/4/5 446/1/5
f 453/3/6 449/2/6 447/1/6 451/4/6
f 454/49/1 455/50/1 457/51/1 456/52/1
f 456/49/2 457/50/2 461/51/2 460/52/2
f 460/52/3 461/51/3 459/50/3 458/49/3
f 458/52/4 459/51/4 455/50/4 454/49/4
f 456/50/5 460/51/5 458/52/5 454/49/5
f 461/51/6 457/50/6 455/49/6 459/52/6
f 462/53/1 463/54/1 465/55/1 464/56/1
f 464/53/2 465/54/2 469/55/2 468/56/2
f 468/56/3 469/55/3 467/54/3 466/53/3
f 466/56/4 467/55/4 463/54/4 462/53/4
f 464/54/5 468/55/5 466/56/5 462/53/5
f 469/55/6 465/54/6 463/53/6 467/56/6
f 470/53/1 471/54/1 473/55/1 472/56/1
f 472/53/2 473/54/2 477/55/2 476/56/2
f 476/56/3 477/55/3 475/54/3 474/53/3
f 474/56/4 475/55/4 471/54/4 470/53/4
f 472/54/5 476/55/5 474/56/5 470/53/5
f 477/55/6 473/54/6 471/53/6 475/56/6
f 478/53/1 479/54/1 481/55/1 480/56/1
f 480/53/2 481/54/2 485/55/2 484/56/2
f 484/56/3 485/55/3 483/54/3 482/53/3
f 482/56/4 483/55/4 479/54/4 478/53/4
f 480/54/5 484/55/5 482/56/5 478/53/5
f 485/55/6 481/54/6 479/53/6 483/56/6
f 486/53/1 487/54/1 489/55/1 488/56/1
f 488/53/2 489/54/2 493/55/2 492/56/2
f 492/56/3 493/55/3 491/54/3 490/53/3
f 490/56/4 491/55/4 487/54/4 486/53/4
f 488/54/5 492/55/5 490/56/5 486/53/5
f 493/55/6 489/54/6 487/53/6 491/56/6
f 494/53/1 495/54/1 497/55/1 496/56/1
f 496/53/2 497/54/2 501/55/2 500/56/2
f 500/56/3 501/55/3 499/54/3 498/53/3
f 498/56/4 499/55/4 495/54/4 494/53/4
f 496/54/5 500/55/5 498/56/5 494/53/5
f 501/55/6 497/54/6 495/53/6 499/56/6
f 502/57/1 503/58/1 505/59/1 504/60/1
f 504/57/2 505/58/2 509/59/2 508/60/2
f 508/60/3 509/59/3 507/58/3 506/57/3
f 506/60/4 507/59/4 503/58/4 502/57/4
f 504/58/5 508/59/5 506/60/5 502/57/5
f 509/59/6 505/58/6 503/57/6 507/60/6
f 510/57/1 511/58/1 513/59/1 512/60/1
f 512/57/2 513/58/2 517/59/2 516/60/2
f 516/60/3 517/59/3 515/58/3 514/57/3
f 514/60/4 515/59/4 511/58/4 510/57/4
f 512/58/5 516/59/5 514/60/5 510/57/5
f 517/59/6 513/58/6 511/57/6 515/60/6
f 518/57/1 519/58/1 521/59/1 520/60/1
f 520/57/2 521/58/2 525/59/2 524/60/2
f 524/60/3 525/59/3 523/58/3 522/57/3
f 522/60/4 523/59/4 519/58/4 518/57/4
f 520/58/5 524/59/5 522/60/5 518/57/5
f 525/59/6 521/58/6 519/57/6 523/60/6
f 526/57/1 527/58/1 529/59/1 528/60/1
f 528/57/2 529/58/2 533/59/2 532/60/2
f 532/60/3 533/59/3 531/58/3 530/57/3
f 530/60/4 531/59/4 527/58/4 526/57/4
f 528/58/5 532/59/5 530/60/5 526/57/5
f 533/59/6 529/58/6 527/57/6 531/60/6
f 534/57/1 535/58/1 537/59/1 536/60/1
f 536/57/2 537/58/2 541/59/2 540/60/2
f 540/60/3 541/59/3 539/58/3 538/57/3
f 538/60/4 539/59/4 535/58/4 534/57/4
f 536/58/5 540/59/5 538/60/5 534/57/5
f 541/59/6 537/58/6 535/57/6 539/60/6
f 542/57/1 543/58/1 545/59/1 544/60/1
f 544/57/2 545/58/2 549/59/2 548/60/2
f 548/60/3 549/59/3 547/58/3 546/57/3
f 546/60/4 547/59/4 543/58/4 542/57/4
f 544/58/5 548/59/5 546/60/5 542/57/5
f 549/59/6 545/58/6 543/57/6 547/60/6
f 550/57/1 551/58/1 553/59/1 552/60/1
f 552/57/2 553/58/2 557/59/2 556/60/2
f 556/60/3 557/59/3 555/58/3 554/57/3
f 554/60/4 555/59/4 551/58/4 550/57/4
f 552/58/5 556/59/5 554/60/5 550/57/5
f 557/59/6 553/58/6 551/57/6 555/60/6
f 558/57/1 559/58/1 561/59/1 560/60/1
f 560/57/2 561/58/2 565/59/2 564/60/2
f 564/60/3 565/59/3 563/58/3 562/57/3
f 562/60/4 563/59/4 559/58/4 558/57/4
f 560/58/5 564/59/5 562/60/5 558/57/5
f 565/59/6 561/58/6 559/57/6 563/60/6
f 566/57/1 567/58/1 569/59/1 568/60/1
f 568/57/2 569/58/2 573/59/2 572/60/2
f 572/60/3 573/59/3 571/58/3 570/57/3
f 570/60/4 571/59/4 567/58/4 566/57/4
f 568/58/5 572/59/5 570/60/5 566/57/5
f 573/59/6 569/58/6 567/57/6 571/60/6
f 574/57/1 575/58/1 577/59/1 576/60/1
f 576/57/2 577/58/2 581/59/2 580/60/2
f 580/60/3 581/59/3 579/58/3 578/57/3
f 578/60/4 579/59/4 575/58/4 574/57/4
f 576/58/5 580/59/5 578/60/5 574/57/5
f 581/59/6 577/58/6 575/57/6 579/60/6
f 582/57/1 583/58/1 585/59/1 584/60/1
f 584/57/2 585/58/2 589/59/2 588/60/2
f 588/60/3 589/59/3 587/58/3 586/57/3
f 586/60/4 587/59/4 583/58/4 582/57/4
f 584/58/5 588/59/5 586/60/5 582/57/5
f 589/59/6 585/58/6 583/57/6 587/60/6
f 590/57/1 591/58/1 593/59/1 592/60/1
f 592/57/2 593/58/2 597/59/2 596/60/2
f 596/60/3 597/59/3 595/58/3 594/57/3
f 594/60/4 595/59/4 591/58/4 590/57/4
f 592/58/5 596/59/5 594/60/5 590/57/5
f 597/59/6 593/58/6 591/57/6 595/60/6
f 598/57/1 599/58/1 601/59/1 600/60/1
f 600/57/2 601/58/2 605/59/2 604/60/2
f 604/60/3 605/59/3 603/58/3 602/57/3
f 602/60/4 603/59/4 599/58/4 598/57/4
f 600/58/5 604/59/5 602/60/5 598/57/5
f 605/59/6 601/58/6 599/57/6 603/60/6
f 606/57/1 607/58/1 609/59/1 608/60/1
f 608/57/2 609/58/2 613/59/2 612/60/2
f 612/60/3 613/59/3 611/58/3 610/57/3
f 610/60/4 611/59/4 607/58/4 606/57/4
f 608/58/5 612/59/5 610/60/5 606/57/5
f 613/59/6 609/58/6 607/57/6 611/60/6
f 614/57/1 615/58/1 617/59/1 616/60/1
f 616/57/2 617/58/2 621/59/2 620/60/2
f 620/60/3 621/59/3 619/58/3 618/57/3
f 618/60/4 619/59/4 615/58/4 614/57/4
f 616/58/5 620/59/5 618/60/5 614/57/5
f 621/59/6 617/58/6 615/57/6 619/60/6
f 622/57/1 623/58/1 625/59/1 624/60/1
f 624/57/2 625/58/2 629/59/2 628/60/2
f 628/60/3 629/59/3 627/58/3 626/57/3
f 626/60/4 627/59/4 623/58/4 622/57/4
f 624/58/5 628/59/5 626/60/5 622/57/5
f 629/59/6 625/58/6 623/57/6 627/60/6
f 630/61/35 631/62/35 632/63/35
f 631/64/36 630/65/36 635/66/36
f 630/66/37 632/67/37 633/68/37
f 630/64/38 633/63/38 634/69/38
f 630/70/39 634/68/39 635/71/39
f 631/63/40 635/64/40 640/72/40
f 632/63/41 631/64/41 636/73/41
f 633/64/42 632/63/42 637/74/42
f 634/64/43 633/63/43 638/75/43
f 635/64/44 634/63/44 639/73/44
f 631/76/45 640/66/45 636/68/45
f 632/77/46 636/66/46 637/68/46
f 633/78/47 637/68/47 638/66/47
f 634/77/48 638/68/48 639/66/48
f 635/79/49 639/66/49 640/68/49
f 636/80/50 640/66/50 641/68/50
f 637/81/51 636/64/51 641/82/51
f 638/68/52 637/63/52 641/83/52
f 639/66/53 638/84/53 641/85/53
f 640/64/54 639/86/54 641/63/54
f 642/61/35 643/62/35 644/63/35
f 643/64/36 642/65/36 647/66/36
f 642/66/37 644/67/37 645/68/37
f 642/64/38 645/63/38 646/69/38
f 642/70/39 646/68/39 647/71/39
f 643/63/40 647/64/40 652/72/40
f 644/63/41 643/64/41 648/73/41
f 645/64/42 644/63/42 649/74/42
f 646/64/43 645/63/43 650/75/43
f 647/64/44 646/63/44 651/73/44
f 643/76/45 652/66/45 648/68/45
f 644/77/46 648/66/46 649/68/46
f 645/78/47 649/68/47 650/66/47
f 646/77/48 650/68/48 651/66/48
f 647/79/49 651/66/49 652/68/49
f 648/80/50 652/66/50 653/68/50
f 649/81/51 648/64/51 653/82/51
f 650/68/52 649/63/52 653/83/52
f 651/66/53 650/84/53 653/85/53
f 652/64/54 651/86/54 653/63/54
f 654/61/35 655/62/35 656/63/35
f 655/64/36 654/65/36 659/66/36
f 654/66/37 656/67/37 657/68/37
f 654/64/38 657/63/38 658/69/38
f 654/70/39 658/68/39 659/71/39
f 655/63/40 659/64/40 664/72/40
f 656/63/41 655/64/41 660/73/41
f 657/64/42 656/63/42 661/74/42
f 658/64/43 657/63/43 662/75/43
f 659/64/44 658/63/44 663/73/44
f 655/76/45 664/66/45 660/68/45
f 656/77/46 660/66/46 661/68/46
f 657/78/47 661/68/47 662/66/47
f 658/77/48 662/68/48 663/66/48
f 659/79/49 663/66/49 664/68/49
f 660/80/50 664/66/50 665/68/50
f 661/81/51 660/64/51 665/82/51
f 662/68/52 661/63/52 665/83/52
f 663/66/53 662/84/53 665/85/53
f 664/64/54 663/86/54 665/63/54
f 666/61/35 667/62/35 668/63/35
f 667/64/36 666/65/36 671/66/36
f 666/66/37 668/67/37 669/68/37
f 666/64/38 669/63/38 670/69/38
f 666/70/39 670/68/39 671/71/39
f 667/63/40 671/64/40 676/72/40
f 668/63/41 667/64/41 672/73/41
f 669/64/42 668/63/42 673/74/42
f 670/64/43 669/63/43 674/75/43
f 671/64/44 670/63/44 675/73/44
f 667/76/45 676/66/45 672/68/45
f 668/77/46 672/66/46 673/68/46
f 669/78/47 673/68/47 674/66/47
f 670/77/48 674/68/48 675/66/48
f 671/79/49 675/66/49 676/68/49
f 672/80/50 676/66/50 677/68/50
f 673/81/51 672/64/51 677/82/51
f 674/68/52 673/63/52 677/83/52
f 675/66/53 674/84/53 677/85/53
f 676/64/54 675/86/54 677/63/54
