# Blender 5.0.1
# www.blender.org
mtllib draped_statue.mtl
o draped_statue
v -0.400000 0.000000 0.400000
v -0.400000 0.300000 0.400000
v -0.400000 0.000000 -0.400000
v -0.400000 0.300000 -0.400000
v 0.400000 0.000000 0.400000
v 0.400000 0.300000 0.400000
v 0.400000 0.000000 -0.400000
v 0.400000 0.300000 -0.400000
v -0.320000 0.300000 0.320000
v -0.320000 0.800000 0.320000
v -0.320000 0.300000 -0.320000
v -0.320000 0.800000 -0.320000
v 0.320000 0.300000 0.320000
v 0.320000 0.800000 0.320000
v 0.320000 0.300000 -0.320000
v 0.320000 0.800000 -0.320000
v -0.260000 0.800000 0.260000
v -0.260000 0.900000 0.260000
v -0.260000 0.800000 -0.260000
v -0.260000 0.900000 -0.260000
v 0.260000 0.800000 0.260000
v 0.260000 0.900000 0.260000
v 0.260000 0.800000 -0.260000
v 0.260000 0.900000 -0.260000
v 0.235134 0.350000 -0.190692
v 0.235134 0.750000 -0.190692
v 0.235134 0.350000 -0.220692
v 0.235134 0.750000 -0.220692
v 0.255134 0.350000 -0.190692
v 0.255134 0.750000 -0.190692
v 0.255134 0.350000 -0.220692
v 0.255134 0.750000 -0.220692
v -0.287128 0.350000 0.175000
v -0.287128 0.750000 0.175000
v -0.287128 0.350000 0.145000
v -0.287128 0.750000 0.145000
v -0.267128 0.350000 0.175000
v -0.267128 0.750000 0.175000
v -0.267128 0.350000 0.145000
v -0.267128 0.750000 0.145000
v -0.072932 -0.040000 -0.413619
v -0.007808 0.009751 -0.366304
v -0.097807 0.009751 -0.337062
v -0.153430 0.009751 -0.413619
v -0.097807 0.009751 -0.490177
v -0.007808 0.009751 -0.460934
v -0.048058 0.090249 -0.337062
v -0.138056 0.090249 -0.366304
v -0.138056 0.090249 -0.460934
v -0.048058 0.090249 -0.490177
v 0.007566 0.090249 -0.413619
v -0.072932 0.140000 -0.413619
v 0.210000 -0.040000 0.363731
v 0.275124 0.009751 0.411045
v 0.185125 0.009751 0.440288
v 0.129502 0.009751 0.363731
v 0.185125 0.009751 0.287173
v 0.275124 0.009751 0.316416
v 0.234875 0.090249 0.440288
v 0.144876 0.090249 0.411045
v 0.144876 0.090249 0.316416
v 0.234875 0.090249 0.287173
v 0.290498 0.090249 0.363731
v 0.210000 0.140000 0.363731
v 0.000000 0.900000 -0.260000
v 0.000000 1.800000 -0.120000
v 0.183848 0.900000 -0.183848
v 0.084853 1.800000 -0.084853
v 0.260000 0.900000 0.000000
v 0.120000 1.800000 0.000000
v 0.183848 0.900000 0.183848
v 0.084853 1.800000 0.084853
v 0.000000 0.900000 0.260000
v 0.000000 1.800000 0.120000
v -0.183848 0.900000 0.183848
v -0.084853 1.800000 0.084853
v -0.260000 0.900000 0.000000
v -0.120000 1.800000 0.000000
v -0.183848 0.900000 -0.183848
v -0.084853 1.800000 -0.084853
v -0.250000 1.076780 0.078104
v -0.250000 1.561928 -0.042857
v -0.250000 1.038072 -0.077143
v -0.250000 1.523220 -0.198104
v -0.190000 1.076780 0.078104
v -0.190000 1.561928 -0.042857
v -0.190000 1.038072 -0.077143
v -0.190000 1.523220 -0.198104
v 0.190000 1.038072 -0.042857
v 0.190000 1.523220 0.078104
v 0.190000 1.076780 -0.198104
v 0.190000 1.561928 -0.077143
v 0.250000 1.038072 -0.042857
v 0.250000 1.523220 0.078104
v 0.250000 1.076780 -0.198104
v 0.250000 1.561928 -0.077143
v -0.100000 1.750000 0.070000
v -0.100000 2.050000 0.070000
v -0.100000 1.750000 -0.070000
v -0.100000 2.050000 -0.070000
v 0.100000 1.750000 0.070000
v 0.100000 2.050000 0.070000
v 0.100000 1.750000 -0.070000
v 0.100000 2.050000 -0.070000
v 0.000000 2.040000 0.020000
v 0.079596 2.100806 0.077829
v -0.030402 2.100806 0.113570
v -0.098387 2.100806 0.020000
v -0.030402 2.100806 -0.073570
v 0.079596 2.100806 -0.037829
v 0.030402 2.199194 0.113570
v -0.079596 2.199194 0.077829
v -0.079596 2.199194 -0.037829
v 0.030402 2.199194 -0.073570
v 0.098387 2.199194 0.020000
v 0.000000 2.260000 0.020000
v -0.100000 2.130000 0.135000
v -0.100000 2.190000 0.135000
v -0.100000 2.130000 0.085000
v -0.100000 2.190000 0.085000
v 0.100000 2.130000 0.135000
v 0.100000 2.190000 0.135000
v 0.100000 2.130000 0.085000
v 0.100000 2.190000 0.085000
v 0.073756 1.954019 0.080000
v 0.043756 2.005981 0.080000
v 0.073756 1.954019 0.020000
v 0.043756 2.005981 0.020000
v 0.316244 2.094019 0.080000
v 0.286244 2.145981 0.080000
v 0.316244 2.094019 0.020000
v 0.286244 2.145981 0.020000
v 0.220000 2.185000 0.070000
v 0.220000 2.215000 0.070000
v 0.220000 2.185000 0.030000
v 0.220000 2.215000 0.030000
v 0.460000 2.185000 0.070000
v 0.460000 2.215000 0.070000
v 0.460000 2.185000 0.030000
v 0.460000 2.215000 0.030000
v 0.230000 2.090000 0.060000
v 0.230000 2.190000 0.060000
v 0.230000 2.090000 0.040000
v 0.230000 2.190000 0.040000
v 0.250000 2.090000 0.060000
v 0.250000 2.190000 0.060000
v 0.250000 2.090000 0.040000
v 0.250000 2.190000 0.040000
v 0.240000 2.080000 0.000000
v 0.240000 2.100000 0.000000
v 0.283301 2.080000 0.025000
v 0.283301 2.100000 0.025000
v 0.283301 2.080000 0.075000
v 0.283301 2.100000 0.075000
v 0.240000 2.080000 0.100000
v 0.240000 2.100000 0.100000
v 0.196699 2.080000 0.075000
v 0.196699 2.100000 0.075000
v 0.196699 2.080000 0.025000
v 0.196699 2.100000 0.025000
v 0.430000 2.090000 0.060000
v 0.430000 2.190000 0.060000
v 0.430000 2.090000 0.040000
v 0.430000 2.190000 0.040000
v 0.450000 2.090000 0.060000
v 0.450000 2.190000 0.060000
v 0.450000 2.090000 0.040000
v 0.450000 2.190000 0.040000
v 0.440000 2.080000 0.000000
v 0.440000 2.100000 0.000000
v 0.483301 2.080000 0.025000
v 0.483301 2.100000 0.025000
v 0.483301 2.080000 0.075000
v 0.483301 2.100000 0.075000
v 0.440000 2.080000 0.100000
v 0.440000 2.100000 0.100000
v 0.396699 2.080000 0.075000
v 0.396699 2.100000 0.075000
v 0.396699 2.080000 0.025000
v 0.396699 2.100000 0.025000
v -0.230000 1.700000 0.080000
v -0.230000 2.000000 0.080000
v -0.230000 1.700000 0.020000
v -0.230000 2.000000 0.020000
v -0.170000 1.700000 0.080000
v -0.170000 2.000000 0.080000
v -0.170000 1.700000 0.020000
v -0.170000 2.000000 0.020000
v -0.255000 1.300000 0.100000
v -0.255000 1.800000 0.100000
v -0.255000 1.300000 0.060000
v -0.255000 1.800000 0.060000
v -0.225000 1.300000 0.100000
v -0.225000 1.800000 0.100000
v -0.225000 1.300000 0.060000
v -0.225000 1.800000 0.060000
v -0.310000 1.765000 0.100000
v -0.310000 1.795000 0.100000
v -0.310000 1.765000 0.060000
v -0.310000 1.795000 0.060000
v -0.170000 1.765000 0.100000
v -0.170000 1.795000 0.100000
v -0.170000 1.765000 0.060000
v -0.170000 1.795000 0.060000
vn -1.0000 -0.0000 -0.0000
vn -0.0000 -0.0000 -1.0000
vn 1.0000 -0.0000 -0.0000
vn -0.0000 -0.0000 1.0000
vn -0.0000 -1.0000 -0.0000
vn -0.0000 1.0000 -0.0000
vn 0.1876 -0.7947 0.5774
vn 0.6071 -0.7947 -0.0000
vn -0.4911 -0.7947 0.3568
vn -0.4911 -0.7947 -0.3568
vn 0.1876 -0.7947 -0.5774
vn 0.9822 -0.1876 -0.0000
vn 0.3035 -0.1876 0.9342
vn -0.7946 -0.1876 0.5774
vn -0.7946 -0.1876 -0.5774
vn 0.3035 -0.1876 -0.9342
vn 0.7946 0.1876 0.5774
vn -0.3035 0.1876 0.9342
vn -0.9822 0.1876 -0.0000
vn -0.3035 0.1876 -0.9342
vn 0.7946 0.1876 -0.5774
vn 0.4911 0.7947 0.3568
vn -0.1876 0.7947 0.5774
vn -0.6071 0.7947 -0.0000
vn -0.1876 0.7947 -0.5774
vn 0.4911 0.7947 -0.3568
vn 0.3788 0.1423 -0.9145
vn 0.9145 0.1423 -0.3788
vn 0.9145 0.1423 0.3788
vn 0.3788 0.1423 0.9145
vn -0.3788 0.1423 0.9145
vn -0.9145 0.1423 0.3788
vn -0.9145 0.1423 -0.3788
vn -0.3788 0.1423 -0.9145
vn -0.0000 -0.2419 -0.9703
vn -0.0000 0.2419 0.9703
vn -0.0000 -0.9703 0.2419
vn -0.0000 0.9703 -0.2419
vn -0.0000 0.2419 -0.9703
vn -0.0000 -0.2419 0.9703
vn -0.0000 -0.9703 -0.2419
vn -0.0000 0.9703 0.2419
vn -0.8660 -0.5000 -0.0000
vn 0.8660 0.5000 -0.0000
vn 0.5000 -0.8660 -0.0000
vn -0.5000 0.8660 -0.0000
vn 0.5000 -0.0000 -0.8660
vn 0.5000 -0.0000 0.8660
vn -0.5000 -0.0000 0.8660
vn -0.5000 -0.0000 -0.8660
vt 0.126953 0.001953
vt 0.126953 0.164062
vt 0.248047 0.164062
vt 0.248047 0.001953
vt 0.001953 0.001953
vt 0.001953 0.164062
vt 0.123047 0.164062
vt 0.123047 0.001953
vt 0.501953 0.500000
vt 0.501953 0.662109
vt 0.623047 0.662109
vt 0.623047 0.500000
vt 0.410422 0.496094
vt 0.498047 0.395905
vt 0.376953 0.333984
vt 0.498047 0.333984
vt 0.376953 0.415039
vt 0.498047 0.496094
vt 0.460628 0.333984
vt 0.376953 0.496094
vt 0.460628 0.496094
vt 0.410422 0.333984
vt 0.498047 0.434173
vt 0.437500 0.496094
vt 0.443891 0.496094
vt 0.423207 0.496094
vt 0.451793 0.496094
vt 0.423207 0.333984
vt 0.431109 0.333984
vt 0.437500 0.333984
vt 0.451793 0.333984
vt 0.414372 0.333984
vt 0.376953 0.395905
vt 0.464578 0.496094
vt 0.498047 0.415039
vt 0.376953 0.434173
vt 0.464578 0.333984
vt 0.414372 0.496094
vt 0.626953 0.333984
vt 0.626953 0.496094
vt 0.682843 0.496094
vt 0.748047 0.333984
vt 0.748047 0.496094
vt 0.692157 0.496094
vt 0.730313 0.472353
vt 0.687500 0.496094
vt 0.644687 0.472353
vt 0.626953 0.415039
vt 0.644687 0.357725
vt 0.687500 0.333984
vt 0.730313 0.357725
vt 0.748047 0.415039
vt 0.660422 0.496094
vt 0.748047 0.395905
vt 0.710628 0.333984
vt 0.710628 0.496094
vt 0.660422 0.333984
vt 0.748047 0.434173
vt 0.693891 0.496094
vt 0.673207 0.496094
vt 0.701793 0.496094
vt 0.673207 0.333984
vt 0.681109 0.333984
vt 0.701793 0.333984
vt 0.664372 0.333984
vt 0.626953 0.395905
vt 0.714578 0.496094
vt 0.626953 0.434173
vt 0.714578 0.333984
vt 0.664372 0.496094
vt 0.126953 0.500000
vt 0.126953 0.662109
vt 0.248047 0.662109
vt 0.248047 0.500000
vt 0.626953 0.167969
vt 0.626953 0.330078
vt 0.748047 0.330078
vt 0.748047 0.167969
vt 0.748047 0.289551
vt 0.687500 0.330078
vt 0.626953 0.289551
vt 0.626953 0.208496
vt 0.687500 0.167969
vt 0.748047 0.208496
vt 0.501953 0.666016
vt 0.501953 0.828125
vt 0.623047 0.828125
vt 0.623047 0.666016
s 0
usemtl kit_atlas_mat
f 1/1/1 2/2/1 4/3/1 3/4/1
f 3/1/2 4/2/2 8/3/2 7/4/2
f 7/4/3 8/3/3 6/2/3 5/1/3
f 5/4/4 6/3/4 2/2/4 1/1/4
f 3/2/5 7/3/5 5/4/5 1/1/5
f 8/3/6 4/2/6 2/1/6 6/4/6
f 9/5/1 10/6/1 12/7/1 11/8/1
f 11/5/2 12/6/2 16/7/2 15/8/2
f 15/8/3 16/7/3 14/6/3 13/5/3
f 13/8/4 14/7/4 10/6/4 9/5/4
f 11/6/5 15/7/5 13/8/5 9/5/5
f 16/7/6 12/6/6 10/5/6 14/8/6
f 17/1/1 18/2/1 20/3/1 19/4/1
f 19/1/2 20/2/2 24/3/2 23/4/2
f 23/4/3 24/3/3 22/2/3 21/1/3
f 21/4/4 22/3/4 18/2/4 17/1/4
f 19/2/5 23/3/5 21/4/5 17/1/5
f 24/3/6 20/2/6 18/1/6 22/4/6
f 25/9/1 26/10/1 28/11/1 27/12/1
f 27/9/2 28/10/2 32/11/2 31/12/2
f 31/12/3 32/11/3 30/10/3 29/9/3
f 29/12/4 30/11/4 26/10/4 25/9/4
f 27/10/5 31/11/5 29/12/5 25/9/5
f 32/11/6 28/10/6 26/9/6 30/12/6
f 33/9/1 34/10/1 36/11/1 35/12/1
f 35/9/2 36/10/2 40/11/2 39/12/2
f 39/12/3 40/11/3 38/10/3 37/9/3
f 37/12/4 38/11/4 34/10/4 33/9/4
f 35/10/5 39/11/5 37/12/5 33/9/5
f 40/11/6 36/10/6 34/9/6 38/12/6
f 41/13/7 42/14/7 43/15/7
f 42/16/8 41/17/8 46/18/8
f 41/18/9 43/19/9 44/20/9
f 41/16/10 44/15/10 45/21/10
f 41/22/11 45/20/11 46/23/11
f 42/15/12 46/16/12 51/24/12
f 43/15/13 42/16/13 47/25/13
f 44/16/14 43/15/14 48/26/14
f 45/16/15 44/15/15 49/27/15
f 46/16/16 45/15/16 50/25/16
f 42/28/17 51/18/17 47/20/17
f 43/29/18 47/18/18 48/20/18
f 44/30/19 48/20/19 49/18/19
f 45/29/20 49/20/20 50/18/20
f 46/31/21 50/18/21 51/20/21
f 47/32/22 51/18/22 52/20/22
f 48/33/23 47/16/23 52/34/23
f 49/20/24 48/15/24 52/35/24
f 50/18/25 49/36/25 52/37/25
f 51/16/26 50/38/26 52/15/26
f 53/13/7 54/14/7 55/15/7
f 54/16/8 53/17/8 58/18/8
f 53/18/9 55/19/9 56/20/9
f 53/16/10 56/15/10 57/21/10
f 53/22/11 57/20/11 58/23/11
f 54/15/12 58/16/12 63/24/12
f 55/15/13 54/16/13 59/25/13
f 56/16/14 55/15/14 60/26/14
f 57/16/15 56/15/15 61/27/15
f 58/16/16 57/15/16 62/25/16
f 54/28/17 63/18/17 59/20/17
f 55/29/18 59/18/18 60/20/18
f 56/30/19 60/20/19 61/18/19
f 57/29/20 61/20/20 62/18/20
f 58/31/21 62/18/21 63/20/21
f 59/32/22 63/18/22 64/20/22
f 60/33/23 59/16/23 64/34/23
f 61/20/24 60/15/24 64/35/24
f 62/18/25 61/36/25 64/37/25
f 63/16/26 62/38/26 64/15/26
f 65/39/27 66/40/27 68/41/27 67/42/27
f 67/42/28 68/41/28 70/40/28 69/39/28
f 69/42/29 70/43/29 72/44/29 71/39/29
f 71/42/30 72/41/30 74/40/30 73/39/30
f 73/42/31 74/43/31 76/44/31 75/39/31
f 75/39/32 76/44/32 78/43/32 77/42/32
f 68/45/6 66/46/6 80/47/6 78/48/6 76/49/6 74/50/6 72/51/6 70/52/6
f 77/39/33 78/40/33 80/41/33 79/42/33
f 79/39/34 80/44/34 66/43/34 65/42/34
f 65/46/5 67/45/5 69/52/5 71/51/5 73/50/5 75/49/5 77/48/5 79/47/5
f 81/39/1 82/40/1 84/43/1 83/42/1
f 83/39/35 84/40/35 88/43/35 87/42/35
f 87/42/3 88/43/3 86/40/3 85/39/3
f 85/42/36 86/43/36 82/40/36 81/39/36
f 83/40/37 87/43/37 85/42/37 81/39/37
f 88/43/38 84/40/38 82/39/38 86/42/38
f 89/39/1 90/40/1 92/43/1 91/42/1
f 91/39/39 92/40/39 96/43/39 95/42/39
f 95/42/3 96/43/3 94/40/3 93/39/3
f 93/42/40 94/43/40 90/40/40 89/39/40
f 91/40/41 95/43/41 93/42/41 89/39/41
f 96/43/42 92/40/42 90/39/42 94/42/42
f 97/39/1 98/40/1 100/43/1 99/42/1
f 99/39/2 100/40/2 104/43/2 103/42/2
f 103/42/3 104/43/3 102/40/3 101/39/3
f 101/42/4 102/43/4 98/40/4 97/39/4
f 99/40/5 103/43/5 101/42/5 97/39/5
f 104/43/6 100/40/6 98/39/6 102/42/6
f 105/53/7 106/54/7 107/39/7
f 106/42/8 105/48/8 110/43/8
f 105/43/9 107/55/9 108/40/9
f 105/42/10 108/39/10 109/56/10
f 105/57/11 109/40/11 110/58/11
f 106/39/12 110/42/12 115/46/12
f 107/39/13 106/42/13 111/59/13
f 108/42/14 107/39/14 112/60/14
f 109/42/15 108/39/15 113/61/15
f 110/42/16 109/39/16 114/59/16
f 106/62/17 115/43/17 111/40/17
f 107/63/18 111/43/18 112/40/18
f 108/50/19 112/40/19 113/43/19
f 109/63/20 113/40/20 114/43/20
f 110/64/21 114/43/21 115/40/21
f 111/65/22 115/43/22 116/40/22
f 112/66/23 111/42/23 116/67/23
f 113/40/24 112/39/24 116/52/24
f 114/43/25 113/68/25 116/69/25
f 115/42/26 114/70/26 116/39/26
f 117/71/1 118/72/1 120/73/1 119/74/1
f 119/71/2 120/72/2 124/73/2 123/74/2
f 123/74/3 124/73/3 122/72/3 121/71/3
f 121/74/4 122/73/4 118/72/4 117/71/4
f 119/72/5 123/73/5 121/74/5 117/71/5
f 124/73/6 120/72/6 118/71/6 122/74/6
f 125/39/43 126/40/43 128/43/43 127/42/43
f 127/39/2 128/40/2 132/43/2 131/42/2
f 131/42/44 132/43/44 130/40/44 129/39/44
f 129/42/4 130/43/4 126/40/4 125/39/4
f 127/40/45 131/43/45 129/42/45 125/39/45
f 132/43/46 128/40/46 126/39/46 130/42/46
f 133/75/1 134/76/1 136/77/1 135/78/1
f 135/75/2 136/76/2 140/77/2 139/78/2
f 139/78/3 140/77/3 138/76/3 137/75/3
f 137/78/4 138/77/4 134/76/4 133/75/4
f 135/76/5 139/77/5 137/78/5 133/75/5
f 140/77/6 136/76/6 134/75/6 138/78/6
f 141/75/1 142/76/1 144/77/1 143/78/1
f 143/75/2 144/76/2 148/77/2 147/78/2
f 147/78/3 148/77/3 146/76/3 145/75/3
f 145/78/4 146/77/4 142/76/4 141/75/4
f 143/76/5 147/77/5 145/78/5 141/75/5
f 148/77/6 144/76/6 142/75/6 146/78/6
f 149/75/47 150/76/47 152/77/47 151/78/47
f 151/78/3 152/77/3 154/76/3 153/75/3
f 153/78/48 154/77/48 156/76/48 155/75/48
f 155/78/49 156/77/49 158/76/49 157/75/49
f 152/79/6 150/80/6 160/81/6 158/82/6 156/83/6 154/84/6
f 157/75/1 158/76/1 160/77/1 159/78/1
f 159/75/50 160/76/50 150/77/50 149/78/50
f 149/80/5 151/79/5 153/84/5 155/83/5 157/82/5 159/81/5
f 161/75/1 162/76/1 164/77/1 163/78/1
f 163/75/2 164/76/2 168/77/2 167/78/2
f 167/78/3 168/77/3 166/76/3 165/75/3
f 165/78/4 166/77/4 162/76/4 161/75/4
f 163/76/5 167/77/5 165/78/5 161/75/5
f 168/77/6 164/76/6 162/75/6 166/78/6
f 169/75/47 170/76/47 172/77/47 171/78/47
f 171/78/3 172/77/3 174/76/3 173/75/3
f 173/78/48 174/77/48 176/76/48 175/75/48
f 175/78/49 176/77/49 178/76/49 177/75/49
f 172/79/6 170/80/6 180/81/6 178/82/6 176/83/6 174/84/6
f 177/75/1 178/76/1 180/77/1 179/78/1
f 179/75/50 180/76/50 170/77/50 169/78/50
f 169/80/5 171/79/5 173/84/5 175/83/5 177/82/5 179/81/5
f 181/39/1 182/40/1 184/43/1 183/42/1
f 183/39/2 184/40/2 188/43/2 187/42/2
f 187/42/3 188/43/3 186/40/3 185/39/3
f 185/42/4 186/43/4 182/40/4 181/39/4
f 183/40/5 187/43/5 185/42/5 181/39/5
f 188/43/6 184/40/6 182/39/6 186/42/6
f 189/85/1 190/86/1 192/87/1 191/88/1
f 191/85/2 192/86/2 196/87/2 195/88/2
f 195/88/3 196/87/3 194/86/3 193/85/3
f 193/88/4 194/87/4 190/86/4 189/85/4
f 191/86/5 195/87/5 193/88/5 189/85/5
f 196/87/6 192/86/6 190/85/6 194/88/6
f 197/75/1 198/76/1 200/77/1 199/78/1
f 199/75/2 200/76/2 204/77/2 203/78/2
f 203/78/3 204/77/3 202/76/3 201/75/3
f 201/78/4 202/77/4 198/76/4 197/75/4
f 199/76/5 203/77/5 201/78/5 197/75/5
f 204/77/6 200/76/6 198/75/6 202/78/6
