# Blender 5.0.1
# www.blender.org
mtllib fountain.mtl
o fountain
v 0.000000 0.000000 -0.800000
v 0.000000 0.300000 -0.800000
v 0.470228 0.000000 -0.647214
v 0.470228 0.300000 -0.647214
v 0.760845 0.000000 -0.247214
v 0.760845 0.300000 -0.247214
v 0.760845 0.000000 0.247214
v 0.760845 0.300000 0.247214
v 0.470228 0.000000 0.647214
v 0.470228 0.300000 0.647214
v 0.000000 0.000000 0.800000
v 0.000000 0.300000 0.800000
v -0.470228 0.000000 0.647214
v -0.470228 0.300000 0.647214
v -0.760845 0.000000 0.247214
v -0.760845 0.300000 0.247214
v -0.760845 0.000000 -0.247214
v -0.760845 0.300000 -0.247214
v -0.470228 0.000000 -0.647214
v -0.470228 0.300000 -0.647214
v 0.000000 0.260000 -0.840000
v 0.000000 0.340000 -0.840000
v 0.493740 0.260000 -0.679574
v 0.493740 0.340000 -0.679574
v 0.798887 0.260000 -0.259574
v 0.798887 0.340000 -0.259574
v 0.798887 0.260000 0.259574
v 0.798887 0.340000 0.259574
v 0.493740 0.260000 0.679574
v 0.493740 0.340000 0.679574
v 0.000000 0.260000 0.840000
v 0.000000 0.340000 0.840000
v -0.493740 0.260000 0.679574
v -0.493740 0.340000 0.679574
v -0.798887 0.260000 0.259574
v -0.798887 0.340000 0.259574
v -0.798887 0.260000 -0.259574
v -0.798887 0.340000 -0.259574
v -0.493740 0.260000 -0.679574
v -0.493740 0.340000 -0.679574
v 0.000000 0.255000 -0.700000
v 0.000000 0.305000 -0.700000
v 0.411450 0.255000 -0.566312
v 0.411450 0.305000 -0.566312
v 0.665740 0.255000 -0.216312
v 0.665740 0.305000 -0.216312
v 0.665740 0.255000 0.216312
v 0.665740 0.305000 0.216312
v 0.411450 0.255000 0.566312
v 0.411450 0.305000 0.566312
v 0.000000 0.255000 0.700000
v 0.000000 0.305000 0.700000
v -0.411450 0.255000 0.566312
v -0.411450 0.305000 0.566312
v -0.665740 0.255000 0.216312
v -0.665740 0.305000 0.216312
v -0.665740 0.255000 -0.216312
v -0.665740 0.305000 -0.216312
v -0.411450 0.255000 -0.566312
v -0.411450 0.305000 -0.566312
v 0.000000 0.290000 -0.500000
v 0.000000 0.310000 -0.500000
v 0.250000 0.290000 -0.433013
v 0.250000 0.310000 -0.433013
v 0.433013 0.290000 -0.250000
v 0.433013 0.310000 -0.250000
v 0.500000 0.290000 0.000000
v 0.500000 0.310000 0.000000
v 0.433013 0.290000 0.250000
v 0.433013 0.310000 0.250000
v 0.250000 0.290000 0.433013
v 0.250000 0.310000 0.433013
v 0.000000 0.290000 0.500000
v 0.000000 0.310000 0.500000
v -0.250000 0.290000 0.433013
v -0.250000 0.310000 0.433013
v -0.433013 0.290000 0.250000
v -0.433013 0.310000 0.250000
v -0.500000 0.290000 0.000000
v -0.500000 0.310000 0.000000
v -0.433013 0.290000 -0.250000
v -0.433013 0.310000 -0.250000
v -0.250000 0.290000 -0.433013
v -0.250000 0.310000 -0.433013
v 0.000000 0.250000 -0.180000
v 0.000000 1.050000 -0.180000
v 0.127279 0.250000 -0.127279
v 0.127279 1.050000 -0.127279
v 0.180000 0.250000 0.000000
v 0.180000 1.050000 0.000000
v 0.127279 0.250000 0.127279
v 0.127279 1.050000 0.127279
v 0.000000 0.250000 0.180000
v 0.000000 1.050000 0.180000
v -0.127279 0.250000 0.127279
v -0.127279 1.050000 0.127279
v -0.180000 0.250000 0.000000
v -0.180000 1.050000 0.000000
v -0.127279 0.250000 -0.127279
v -0.127279 1.050000 -0.127279
v 0.000000 0.960000 -0.340000
v 0.000000 1.040000 -0.340000
v 0.240416 0.960000 -0.240416
v 0.240416 1.040000 -0.240416
v 0.340000 0.960000 0.000000
v 0.340000 1.040000 0.000000
v 0.240416 0.960000 0.240416
v 0.240416 1.040000 0.240416
v 0.000000 0.960000 0.340000
v 0.000000 1.040000 0.340000
v -0.240416 0.960000 0.240416
v -0.240416 1.040000 0.240416
v -0.340000 0.960000 0.000000
v -0.340000 1.040000 0.000000
v -0.240416 0.960000 -0.240416
v -0.240416 1.040000 -0.240416
v 0.000000 1.030000 -0.260000
v 0.000000 1.070000 -0.260000
v 0.183848 1.030000 -0.183848
v 0.183848 1.070000 -0.183848
v 0.260000 1.030000 0.000000
v 0.260000 1.070000 0.000000
v 0.183848 1.030000 0.183848
v 0.183848 1.070000 0.183848
v 0.000000 1.030000 0.260000
v 0.000000 1.070000 0.260000
v -0.183848 1.030000 0.183848
v -0.183848 1.070000 0.183848
v -0.260000 1.030000 0.000000
v -0.260000 1.070000 0.000000
v -0.183848 1.030000 -0.183848
v -0.183848 1.070000 -0.183848
v 0.000000 1.062500 -0.200000
v 0.000000 1.077500 -0.200000
v 0.117557 1.062500 -0.161803
v 0.117557 1.077500 -0.161803
v 0.190211 1.062500 -0.061803
v 0.190211 1.077500 -0.061803
v 0.190211 1.062500 0.061803
v 0.190211 1.077500 0.061803
v 0.117557 1.062500 0.161803
v 0.117557 1.077500 0.161803
v 0.000000 1.062500 0.200000
v 0.000000 1.077500 0.200000
v -0.117557 1.062500 0.161803
v -0.117557 1.077500 0.161803
v -0.190211 1.062500 0.061803
v -0.190211 1.077500 0.061803
v -0.190211 1.062500 -0.061803
v -0.190211 1.077500 -0.061803
v -0.117557 1.062500 -0.161803
v -0.117557 1.077500 -0.161803
v 0.000000 0.600000 0.340000
v 0.086832 0.666334 0.403086
v -0.033166 0.666334 0.442077
v -0.107331 0.666334 0.340000
v -0.033166 0.666334 0.237923
v 0.086832 0.666334 0.276914
v 0.033166 0.773666 0.442077
v -0.086832 0.773666 0.403086
v -0.086832 0.773666 0.276914
v 0.033166 0.773666 0.237923
v 0.107331 0.773666 0.340000
v 0.000000 0.840000 0.340000
v -0.090000 0.585000 0.430000
v -0.090000 0.723000 0.430000
v -0.090000 0.585000 0.310000
v -0.090000 0.723000 0.310000
v 0.090000 0.585000 0.430000
v 0.090000 0.723000 0.430000
v 0.090000 0.585000 0.310000
v 0.090000 0.723000 0.310000
v -0.072000 0.564000 0.439000
v -0.072000 0.624000 0.439000
v -0.072000 0.564000 0.337000
v -0.072000 0.624000 0.337000
v 0.072000 0.564000 0.439000
v 0.072000 0.624000 0.439000
v 0.072000 0.564000 0.337000
v 0.072000 0.624000 0.337000
v -0.075600 0.662400 0.458800
v -0.075600 0.710400 0.458800
v -0.075600 0.662400 0.408400
v -0.075600 0.710400 0.408400
v -0.025200 0.662400 0.458800
v -0.025200 0.710400 0.458800
v -0.025200 0.662400 0.408400
v -0.025200 0.710400 0.408400
v 0.025200 0.662400 0.458800
v 0.025200 0.710400 0.458800
v 0.025200 0.662400 0.408400
v 0.025200 0.710400 0.408400
v 0.075600 0.662400 0.458800
v 0.075600 0.710400 0.458800
v 0.075600 0.662400 0.408400
v 0.075600 0.710400 0.408400
v -0.014400 0.621600 0.458800
v -0.014400 0.660000 0.458800
v -0.014400 0.621600 0.418000
v -0.014400 0.660000 0.418000
v 0.014400 0.621600 0.458800
v 0.014400 0.660000 0.458800
v 0.014400 0.621600 0.418000
v 0.014400 0.660000 0.418000
v -0.057000 0.570000 0.448000
v -0.057000 0.618000 0.448000
v -0.057000 0.570000 0.424000
v -0.057000 0.618000 0.424000
v -0.051000 0.570000 0.448000
v -0.051000 0.618000 0.448000
v -0.051000 0.570000 0.424000
v -0.051000 0.618000 0.424000
v -0.021000 0.570000 0.448000
v -0.021000 0.618000 0.448000
v -0.021000 0.570000 0.424000
v -0.021000 0.618000 0.424000
v -0.015000 0.570000 0.448000
v -0.015000 0.618000 0.448000
v -0.015000 0.570000 0.424000
v -0.015000 0.618000 0.424000
v 0.015000 0.570000 0.448000
v 0.015000 0.618000 0.448000
v 0.015000 0.570000 0.424000
v 0.015000 0.618000 0.424000
v 0.021000 0.570000 0.448000
v 0.021000 0.618000 0.448000
v 0.021000 0.570000 0.424000
v 0.021000 0.618000 0.424000
v 0.051000 0.570000 0.448000
v 0.051000 0.618000 0.448000
v 0.051000 0.570000 0.424000
v 0.051000 0.618000 0.424000
v 0.057000 0.570000 0.448000
v 0.057000 0.618000 0.448000
v 0.057000 0.570000 0.424000
v 0.057000 0.618000 0.424000
v 0.550859 0.220000 -0.280000
v 0.550859 0.340000 -0.280000
v 0.550859 0.220000 -0.460000
v 0.550859 0.340000 -0.460000
v 0.730859 0.220000 -0.280000
v 0.730859 0.340000 -0.280000
v 0.730859 0.220000 -0.460000
v 0.730859 0.340000 -0.460000
v 0.703670 0.300000 -0.331208
v 0.703670 0.460000 -0.331208
v 0.638670 0.300000 -0.443792
v 0.638670 0.460000 -0.443792
v 0.816253 0.300000 -0.396208
v 0.816253 0.460000 -0.396208
v 0.751253 0.300000 -0.508792
v 0.751253 0.460000 -0.508792
v 0.813083 0.390000 -0.411699
v 0.813083 0.490000 -0.411699
v 0.763083 0.390000 -0.498301
v 0.763083 0.490000 -0.498301
v 0.899686 0.390000 -0.461699
v 0.899686 0.490000 -0.461699
v 0.849686 0.390000 -0.548301
v 0.849686 0.490000 -0.548301
v 0.881025 0.385000 -0.474019
v 0.881025 0.435000 -0.474019
v 0.851025 0.385000 -0.525981
v 0.851025 0.435000 -0.525981
v 0.984948 0.385000 -0.534019
v 0.984948 0.435000 -0.534019
v 0.954948 0.385000 -0.585981
v 0.954948 0.435000 -0.585981
v 0.856384 0.485000 -0.466699
v 0.886384 0.485000 -0.436699
v 0.856384 0.485000 -0.406699
v 0.826384 0.485000 -0.436699
v 0.856384 0.575000 -0.436699
v 0.687378 0.320000 -0.229426
v 0.687378 0.520000 -0.229426
v 0.642378 0.320000 -0.307369
v 0.642378 0.520000 -0.307369
v 0.704699 0.320000 -0.239426
v 0.704699 0.520000 -0.239426
v 0.659699 0.320000 -0.317369
v 0.659699 0.520000 -0.317369
v 0.869554 0.200000 -0.403888
v 0.869554 0.320000 -0.403888
v 0.844554 0.200000 -0.447189
v 0.844554 0.320000 -0.447189
v 0.912856 0.200000 -0.428888
v 0.912856 0.320000 -0.428888
v 0.887856 0.200000 -0.472189
v 0.887856 0.320000 -0.472189
v 0.806384 0.485000 -0.553301
v 0.836384 0.485000 -0.523301
v 0.806384 0.485000 -0.493301
v 0.776384 0.485000 -0.523301
v 0.806384 0.575000 -0.523301
v 0.587378 0.320000 -0.402631
v 0.587378 0.520000 -0.402631
v 0.542378 0.320000 -0.480574
v 0.542378 0.520000 -0.480574
v 0.604699 0.320000 -0.412631
v 0.604699 0.520000 -0.412631
v 0.559699 0.320000 -0.490574
v 0.559699 0.520000 -0.490574
v 0.809554 0.200000 -0.507811
v 0.809554 0.320000 -0.507811
v 0.784554 0.200000 -0.551112
v 0.784554 0.320000 -0.551112
v 0.852856 0.200000 -0.532811
v 0.852856 0.320000 -0.532811
v 0.827856 0.200000 -0.576112
v 0.827856 0.320000 -0.576112
v 0.037744 -0.020000 -0.799109
v 0.110104 0.035278 -0.746537
v 0.010106 0.035278 -0.714045
v -0.051698 0.035278 -0.799109
v 0.010106 0.035278 -0.884173
v 0.110104 0.035278 -0.851681
v 0.065383 0.124721 -0.714045
v -0.034616 0.124721 -0.746537
v -0.034616 0.124721 -0.851681
v 0.065383 0.124721 -0.884173
v 0.127187 0.124721 -0.799109
v 0.037744 0.180000 -0.799109
v -0.730859 0.220000 -0.280000
v -0.730859 0.340000 -0.280000
v -0.730859 0.220000 -0.460000
v -0.730859 0.340000 -0.460000
v -0.550859 0.220000 -0.280000
v -0.550859 0.340000 -0.280000
v -0.550859 0.220000 -0.460000
v -0.550859 0.340000 -0.460000
v -0.638670 0.300000 -0.443792
v -0.638670 0.460000 -0.443792
v -0.703670 0.300000 -0.331208
v -0.703670 0.460000 -0.331208
v -0.751253 0.300000 -0.508792
v -0.751253 0.460000 -0.508792
v -0.816253 0.300000 -0.396208
v -0.816253 0.460000 -0.396208
v -0.763083 0.390000 -0.498301
v -0.763083 0.490000 -0.498301
v -0.813083 0.390000 -0.411699
v -0.813083 0.490000 -0.411699
v -0.849686 0.390000 -0.548301
v -0.849686 0.490000 -0.548301
v -0.899686 0.390000 -0.461699
v -0.899686 0.490000 -0.461699
v -0.851025 0.385000 -0.525981
v -0.851025 0.435000 -0.525981
v -0.881025 0.385000 -0.474019
v -0.881025 0.435000 -0.474019
v -0.954948 0.385000 -0.585981
v -0.954948 0.435000 -0.585981
v -0.984948 0.385000 -0.534019
v -0.984948 0.435000 -0.534019
v -0.806384 0.485000 -0.553301
v -0.776384 0.485000 -0.523301
v -0.806384 0.485000 -0.493301
v -0.836384 0.485000 -0.523301
v -0.806384 0.575000 -0.523301
v -0.542378 0.320000 -0.480574
v -0.542378 0.520000 -0.480574
v -0.587378 0.320000 -0.402631
v -0.587378 0.520000 -0.402631
v -0.559699 0.320000 -0.490574
v -0.559699 0.520000 -0.490574
v -0.604699 0.320000 -0.412631
v -0.604699 0.520000 -0.412631
v -0.784554 0.200000 -0.551112
v -0.784554 0.320000 -0.551112
v -0.809554 0.200000 -0.507811
v -0.809554 0.320000 -0.507811
v -0.827856 0.200000 -0.576112
v -0.827856 0.320000 -0.576112
v -0.852856 0.200000 -0.532811
v -0.852856 0.320000 -0.532811
v -0.856384 0.485000 -0.466699
v -0.826384 0.485000 -0.436699
v -0.856384 0.485000 -0.406699
v -0.886384 0.485000 -0.436699
v -0.856384 0.575000 -0.436699
v -0.642378 0.320000 -0.307369
v -0.642378 0.520000 -0.307369
v -0.687378 0.320000 -0.229426
v -0.687378 0.520000 -0.229426
v -0.659699 0.320000 -0.317369
v -0.659699 0.520000 -0.317369
v -0.704699 0.320000 -0.239426
v -0.704699 0.520000 -0.239426
v -0.844554 0.200000 -0.447189
v -0.844554 0.320000 -0.447189
v -0.869554 0.200000 -0.403888
v -0.869554 0.320000 -0.403888
v -0.887856 0.200000 -0.472189
v -0.887856 0.320000 -0.472189
v -0.912856 0.200000 -0.428888
v -0.912856 0.320000 -0.428888
v -0.710921 -0.020000 0.366867
v -0.638561 0.035278 0.419439
v -0.738559 0.035278 0.451931
v -0.800363 0.035278 0.366867
v -0.738559 0.035278 0.281803
v -0.638561 0.035278 0.314295
v -0.683282 0.124721 0.451931
v -0.783281 0.124721 0.419439
v -0.783281 0.124721 0.314295
v -0.683282 0.124721 0.281803
v -0.621478 0.124721 0.366867
v -0.710921 0.180000 0.366867
v -0.090000 0.220000 0.830000
v -0.090000 0.340000 0.830000
v -0.090000 0.220000 0.650000
v -0.090000 0.340000 0.650000
v 0.090000 0.220000 0.830000
v 0.090000 0.340000 0.830000
v 0.090000 0.220000 0.650000
v 0.090000 0.340000 0.650000
v -0.065000 0.300000 0.775000
v -0.065000 0.460000 0.775000
v 0.065000 0.300000 0.775000
v 0.065000 0.460000 0.775000
v -0.065000 0.300000 0.905000
v -0.065000 0.460000 0.905000
v 0.065000 0.300000 0.905000
v 0.065000 0.460000 0.905000
v -0.050000 0.390000 0.910000
v -0.050000 0.490000 0.910000
v 0.050000 0.390000 0.910000
v 0.050000 0.490000 0.910000
v -0.050000 0.390000 1.010000
v -0.050000 0.490000 1.010000
v 0.050000 0.390000 1.010000
v 0.050000 0.490000 1.010000
v -0.030000 0.385000 1.000000
v -0.030000 0.435000 1.000000
v 0.030000 0.385000 1.000000
v 0.030000 0.435000 1.000000
v -0.030000 0.385000 1.120000
v -0.030000 0.435000 1.120000
v 0.030000 0.385000 1.120000
v 0.030000 0.435000 1.120000
v -0.050000 0.485000 0.930000
v -0.020000 0.485000 0.960000
v -0.050000 0.485000 0.990000
v -0.080000 0.485000 0.960000
v -0.050000 0.575000 0.960000
v -0.145000 0.320000 0.710000
v -0.145000 0.520000 0.710000
v -0.055000 0.320000 0.710000
v -0.055000 0.520000 0.710000
v -0.145000 0.320000 0.730000
v -0.145000 0.520000 0.730000
v -0.055000 0.320000 0.730000
v -0.055000 0.520000 0.730000
v -0.085000 0.200000 0.955000
v -0.085000 0.320000 0.955000
v -0.035000 0.200000 0.955000
v -0.035000 0.320000 0.955000
v -0.085000 0.200000 1.005000
v -0.085000 0.320000 1.005000
v -0.035000 0.200000 1.005000
v -0.035000 0.320000 1.005000
v 0.050000 0.485000 0.930000
v 0.080000 0.485000 0.960000
v 0.050000 0.485000 0.990000
v 0.020000 0.485000 0.960000
v 0.050000 0.575000 0.960000
v 0.055000 0.320000 0.710000
v 0.055000 0.520000 0.710000
v 0.145000 0.320000 0.710000
v 0.145000 0.520000 0.710000
v 0.055000 0.320000 0.730000
v 0.055000 0.520000 0.730000
v 0.145000 0.320000 0.730000
v 0.145000 0.520000 0.730000
v 0.035000 0.200000 0.955000
v 0.035000 0.320000 0.955000
v 0.085000 0.200000 0.955000
v 0.085000 0.320000 0.955000
v 0.035000 0.200000 1.005000
v 0.035000 0.320000 1.005000
v 0.085000 0.200000 1.005000
v 0.085000 0.320000 1.005000
v 0.673177 -0.020000 0.432242
v 0.745537 0.035278 0.484814
v 0.645538 0.035278 0.517306
v 0.583734 0.035278 0.432242
v 0.645538 0.035278 0.347178
v 0.745537 0.035278 0.379670
v 0.700815 0.124721 0.517306
v 0.600817 0.124721 0.484814
v 0.600817 0.124721 0.379670
v 0.700815 0.124721 0.347178
v 0.762619 0.124721 0.432242
v 0.673177 0.180000 0.432242
vn 0.3090 -0.0000 -0.9511
vn 0.8090 -0.0000 -0.5878
vn 1.0000 -0.0000 -0.0000
vn 0.8090 -0.0000 0.5878
vn 0.3090 -0.0000 0.9511
vn -0.3090 -0.0000 0.9511
vn -0.8090 -0.0000 0.5878
vn -1.0000 -0.0000 -0.0000
vn -0.0000 1.0000 -0.0000
vn -0.8090 -0.0000 -0.5878
vn -0.3090 -0.0000 -0.9511
vn -0.0000 -1.0000 -0.0000
vn 0.2588 -0.0000 -0.9659
vn 0.7071 -0.0000 -0.7071
vn 0.9659 -0.0000 -0.2588
vn 0.9659 -0.0000 0.2588
vn 0.7071 -0.0000 0.7071
vn 0.2588 -0.0000 0.9659
vn -0.2588 -0.0000 0.9659
vn -0.7071 -0.0000 0.7071
vn -0.9659 -0.0000 0.2588
vn -0.9659 -0.0000 -0.2588
vn -0.7071 -0.0000 -0.7071
vn -0.2588 -0.0000 -0.9659
vn 0.3827 -0.0000 -0.9239
vn 0.9239 -0.0000 -0.3827
vn 0.9239 -0.0000 0.3827
vn 0.3827 -0.0000 0.9239
vn -0.3827 -0.0000 0.9239
vn -0.9239 -0.0000 0.3827
vn -0.9239 -0.0000 -0.3827
vn -0.3827 -0.0000 -0.9239
vn 0.1876 -0.7947 0.5774
vn 0.6071 -0.7947 -0.0000
vn -0.4911 -0.7947 0.3568
vn -0.4911 -0.7947 -0.3568
vn 0.1876 -0.7947 -0.5774
vn 0.9822 -0.1876 -0.0000
vn 0.3035 -0.1876 0.9342
vn -0.7946 -0.1876 0.5774
vn -0.7946 -0.1876 -0.5774
vn 0.3035 -0.1876 -0.9342
vn 0.7946 0.1876 0.5774
vn -0.3035 0.1876 0.9342
vn -0.9822 0.1876 -0.0000
vn -0.3035 0.1876 -0.9342
vn 0.7946 0.1876 -0.5774
vn 0.4911 0.7947 0.3568
vn -0.1876 0.7947 0.5774
vn -0.6071 0.7947 -0.0000
vn -0.1876 0.7947 -0.5774
vn 0.4911 0.7947 -0.3568
vn -0.0000 -0.0000 -1.0000
vn -0.0000 -0.0000 1.0000
vn -0.8660 -0.0000 0.5000
vn -0.5000 -0.0000 -0.8660
vn 0.8660 -0.0000 -0.5000
vn 0.5000 -0.0000 0.8660
vn 0.6882 0.2294 -0.6882
vn 0.6882 0.2294 0.6882
vn -0.6882 0.2294 0.6882
vn -0.6882 0.2294 -0.6882
vn 0.8660 -0.0000 0.5000
vn -0.5000 -0.0000 0.8660
vn -0.8660 -0.0000 -0.5000
vn 0.5000 -0.0000 -0.8660
vt 1.000000 0.500000
vt 1.000000 1.000000
vt 0.900000 1.000000
vt 0.900000 0.500000
vt 0.800000 1.000000
vt 0.800000 0.500000
vt 0.700000 1.000000
vt 0.700000 0.500000
vt 0.600000 1.000000
vt 0.600000 0.500000
vt 0.500000 1.000000
vt 0.500000 0.500000
vt 0.400000 1.000000
vt 0.400000 0.500000
vt 0.300000 1.000000
vt 0.300000 0.500000
vt 0.200000 1.000000
vt 0.200000 0.500000
vt 0.391068 0.444164
vt 0.250000 0.490000
vt 0.108932 0.444164
vt 0.021746 0.324164
vt 0.021746 0.175836
vt 0.108932 0.055836
vt 0.250000 0.010000
vt 0.391068 0.055836
vt 0.478254 0.175836
vt 0.478254 0.324164
vt 0.100000 1.000000
vt 0.100000 0.500000
vt -0.000000 1.000000
vt -0.000000 0.500000
vt 0.750000 0.490000
vt 0.891068 0.444164
vt 0.978254 0.324164
vt 0.978254 0.175836
vt 0.891068 0.055836
vt 0.750000 0.010000
vt 0.608932 0.055836
vt 0.521746 0.175836
vt 0.521746 0.324164
vt 0.608932 0.444164
vt 0.108932 0.444164
vt 0.021746 0.324164
vt 0.021746 0.175836
vt 0.108932 0.055836
vt 0.250000 0.010000
vt 0.478254 0.175836
vt 0.478254 0.324164
vt 0.978254 0.324164
vt 0.978254 0.175836
vt 0.750000 0.010000
vt 0.521746 0.175836
vt 0.521746 0.324164
vt 0.021746 0.324164
vt 0.021746 0.175836
vt 0.478254 0.175836
vt 0.478254 0.324164
vt 0.978254 0.175836
vt 0.521746 0.175836
vt 0.916667 1.000000
vt 0.916667 0.500000
vt 0.833333 1.000000
vt 0.833333 0.500000
vt 0.750000 1.000000
vt 0.750000 0.500000
vt 0.666667 1.000000
vt 0.666667 0.500000
vt 0.583333 1.000000
vt 0.583333 0.500000
vt 0.500000 1.000000
vt 0.500000 0.500000
vt 0.416667 1.000000
vt 0.416667 0.500000
vt 0.333333 1.000000
vt 0.333333 0.500000
vt 0.250000 1.000000
vt 0.250000 0.500000
vt 0.166667 1.000000
vt 0.166667 0.500000
vt 0.370000 0.457846
vt 0.130000 0.457846
vt 0.042154 0.370000
vt 0.010000 0.250000
vt 0.042154 0.130000
vt 0.130000 0.042154
vt 0.370000 0.042154
vt 0.457846 0.130000
vt 0.490000 0.250000
vt 0.457846 0.370000
vt 0.083333 1.000000
vt 0.083333 0.500000
vt 0.000000 1.000000
vt 0.000000 0.500000
vt 0.870000 0.457846
vt 0.957846 0.370000
vt 0.990000 0.250000
vt 0.957846 0.130000
vt 0.870000 0.042154
vt 0.630000 0.042154
vt 0.542154 0.130000
vt 0.510000 0.250000
vt 0.542154 0.370000
vt 0.630000 0.457846
vt 0.875000 1.000000
vt 0.875000 0.500000
vt 0.750000 1.000000
vt 0.750000 0.500000
vt 0.625000 1.000000
vt 0.625000 0.500000
vt 0.500000 1.000000
vt 0.500000 0.500000
vt 0.375000 1.000000
vt 0.375000 0.500000
vt 0.250000 1.000000
vt 0.250000 0.500000
vt 0.419706 0.419706
vt 0.080294 0.419706
vt 0.080294 0.080294
vt 0.419706 0.080294
vt 0.125000 1.000000
vt 0.125000 0.500000
vt 0.000000 1.000000
vt 0.000000 0.500000
vt 0.919706 0.419706
vt 0.919706 0.080294
vt 0.580294 0.080294
vt 0.580294 0.419706
vt 0.181819 0.000000
vt 0.272728 0.157461
vt 0.090910 0.157461
vt 0.363637 0.000000
vt 0.454546 0.157461
vt 0.909091 0.000000
vt 1.000000 0.157461
vt 0.818182 0.157461
vt 0.727273 0.000000
vt 0.636364 0.157461
vt 0.545455 0.000000
vt 0.363637 0.314921
vt 0.181819 0.314921
vt 0.909091 0.314921
vt 0.727273 0.314921
vt 0.545455 0.314921
vt 0.000000 0.314921
vt 0.272728 0.472382
vt 0.090910 0.472382
vt 0.818182 0.472382
vt 0.636364 0.472382
vt 0.454546 0.472382
vt 0.375000 0.000000
vt 0.625000 0.000000
vt 0.625000 0.250000
vt 0.375000 0.250000
vt 0.625000 0.750000
vt 0.375000 0.750000
vt 0.125000 0.750000
vt 0.875000 0.750000
vt 0.250000 0.250000
s 0
usemtl stone
f 1/1/1 2/2/1 4/3/1 3/4/1
f 3/4/2 4/3/2 6/5/2 5/6/2
f 5/6/3 6/5/3 8/7/3 7/8/3
f 7/8/4 8/7/4 10/9/4 9/10/4
f 9/10/5 10/9/5 12/11/5 11/12/5
f 11/12/6 12/11/6 14/13/6 13/14/6
f 13/14/7 14/13/7 16/15/7 15/16/7
f 15/16/8 16/15/8 18/17/8 17/18/8
f 4/19/9 2/20/9 20/21/9 18/22/9 16/23/9 14/24/9 12/25/9 10/26/9 8/27/9 6/28/9
f 17/18/10 18/17/10 20/29/10 19/30/10
f 19/30/11 20/29/11 2/31/11 1/32/11
f 1/33/12 3/34/12 5/35/12 7/36/12 9/37/12 11/38/12 13/39/12 15/40/12 17/41/12 19/42/12
f 101/1/25 102/2/25 104/105/25 103/106/25
f 103/106/26 104/105/26 106/107/26 105/108/26
f 105/108/27 106/107/27 108/109/27 107/110/27
f 107/110/28 108/109/28 110/111/28 109/112/28
f 109/112/29 110/111/29 112/113/29 111/114/29
f 111/114/30 112/113/30 114/115/30 113/116/30
f 104/117/9 102/20/9 116/118/9 114/84/9 112/119/9 110/25/9 108/120/9 106/89/9
f 113/116/31 114/115/31 116/121/31 115/122/31
f 115/122/32 116/121/32 102/123/32 101/124/32
f 101/33/12 103/125/12 105/97/12 107/126/12 109/38/12 111/127/12 113/102/12 115/128/12
usemtl stone_dk
f 21/1/1 22/2/1 24/3/1 23/4/1
f 23/4/2 24/3/2 26/5/2 25/6/2
f 25/6/3 26/5/3 28/7/3 27/8/3
f 27/8/4 28/7/4 30/9/4 29/10/4
f 29/10/5 30/9/5 32/11/5 31/12/5
f 31/12/6 32/11/6 34/13/6 33/14/6
f 33/14/7 34/13/7 36/15/7 35/16/7
f 35/16/8 36/15/8 38/17/8 37/18/8
f 24/19/9 22/20/9 40/43/9 38/44/9 36/45/9 34/46/9 32/47/9 30/26/9 28/48/9 26/49/9
f 37/18/10 38/17/10 40/29/10 39/30/10
f 39/30/11 40/29/11 22/31/11 21/32/11
f 21/33/12 23/34/12 25/50/12 27/51/12 29/37/12 31/52/12 33/39/12 35/53/12 37/54/12 39/42/12
f 85/1/25 86/2/25 88/105/25 87/106/25
f 87/106/26 88/105/26 90/107/26 89/108/26
f 89/108/27 90/107/27 92/109/27 91/110/27
f 91/110/28 92/109/28 94/111/28 93/112/28
f 93/112/29 94/111/29 96/113/29 95/114/29
f 95/114/30 96/113/30 98/115/30 97/116/30
f 88/117/9 86/20/9 100/118/9 98/84/9 96/119/9 94/25/9 92/120/9 90/89/9
f 97/116/31 98/115/31 100/121/31 99/122/31
f 99/122/32 100/121/32 86/123/32 85/124/32
f 85/33/12 87/125/12 89/97/12 91/126/12 93/38/12 95/127/12 97/102/12 99/128/12
f 237/151/8 238/152/8 240/153/8 239/154/8
f 239/154/53 240/153/53 244/110/53 243/114/53
f 243/114/3 244/110/3 242/155/3 241/156/3
f 241/156/54 242/155/54 238/109/54 237/113/54
f 239/122/12 243/114/12 241/156/12 237/157/12
f 244/110/9 240/106/9 238/158/9 242/155/9
f 245/151/55 246/152/55 248/153/55 247/154/55
f 247/154/56 248/153/56 252/110/56 251/114/56
f 251/114/57 252/110/57 250/155/57 249/156/57
f 249/156/58 250/155/58 246/109/58 245/113/58
f 247/122/12 251/114/12 249/156/12 245/157/12
f 252/110/9 248/106/9 246/158/9 250/155/9
f 253/151/55 254/152/55 256/153/55 255/154/55
f 255/154/56 256/153/56 260/110/56 259/114/56
f 259/114/57 260/110/57 258/155/57 257/156/57
f 257/156/58 258/155/58 254/109/58 253/113/58
f 255/122/12 259/114/12 257/156/12 253/157/12
f 260/110/9 256/106/9 254/158/9 258/155/9
f 261/151/55 262/152/55 264/153/55 263/154/55
f 263/154/56 264/153/56 268/110/56 267/114/56
f 267/114/57 268/110/57 266/155/57 265/156/57
f 265/156/58 266/155/58 262/109/58 261/113/58
f 263/122/12 267/114/12 265/156/12 261/157/12
f 268/110/9 264/106/9 262/158/9 266/155/9
f 269/20/59 273/159/59 270/89/59
f 270/89/60 273/159/60 271/25/60
f 269/33/12 270/97/12 271/38/12 272/102/12
f 271/25/61 273/159/61 272/84/61
f 272/84/62 273/159/62 269/20/62
f 274/151/55 275/152/55 277/153/55 276/154/55
f 276/154/56 277/153/56 281/110/56 280/114/56
f 280/114/57 281/110/57 279/155/57 278/156/57
f 278/156/58 279/155/58 275/109/58 274/113/58
f 276/122/12 280/114/12 278/156/12 274/157/12
f 281/110/9 277/106/9 275/158/9 279/155/9
f 282/151/55 283/152/55 285/153/55 284/154/55
f 284/154/56 285/153/56 289/110/56 288/114/56
f 288/114/57 289/110/57 287/155/57 286/156/57
f 286/156/58 287/155/58 283/109/58 282/113/58
f 284/122/12 288/114/12 286/156/12 282/157/12
f 289/110/9 285/106/9 283/158/9 287/155/9
f 290/20/59 294/159/59 291/89/59
f 291/89/60 294/159/60 292/25/60
f 290/33/12 291/97/12 292/38/12 293/102/12
f 292/25/61 294/159/61 293/84/61
f 293/84/62 294/159/62 290/20/62
f 295/151/55 296/152/55 298/153/55 297/154/55
f 297/154/56 298/153/56 302/110/56 301/114/56
f 301/114/57 302/110/57 300/155/57 299/156/57
f 299/156/58 300/155/58 296/109/58 295/113/58
f 297/122/12 301/114/12 299/156/12 295/157/12
f 302/110/9 298/106/9 296/158/9 300/155/9
f 303/151/55 304/152/55 306/153/55 305/154/55
f 305/154/56 306/153/56 310/110/56 309/114/56
f 309/114/57 310/110/57 308/155/57 307/156/57
f 307/156/58 308/155/58 304/109/58 303/113/58
f 305/122/12 309/114/12 307/156/12 303/157/12
f 310/110/9 306/106/9 304/158/9 308/155/9
f 323/151/8 324/152/8 326/153/8 325/154/8
f 325/154/53 326/153/53 330/110/53 329/114/53
f 329/114/3 330/110/3 328/155/3 327/156/3
f 327/156/54 328/155/54 324/109/54 323/113/54
f 325/122/12 329/114/12 327/156/12 323/157/12
f 330/110/9 326/106/9 324/158/9 328/155/9
f 331/151/63 332/152/63 334/153/63 333/154/63
f 333/154/64 334/153/64 338/110/64 337/114/64
f 337/114/65 338/110/65 336/155/65 335/156/65
f 335/156/66 336/155/66 332/109/66 331/113/66
f 333/122/12 337/114/12 335/156/12 331/157/12
f 338/110/9 334/106/9 332/158/9 336/155/9
f 339/151/63 340/152/63 342/153/63 341/154/63
f 341/154/64 342/153/64 346/110/64 345/114/64
f 345/114/65 346/110/65 344/155/65 343/156/65
f 343/156/66 344/155/66 340/109/66 339/113/66
f 341/122/12 345/114/12 343/156/12 339/157/12
f 346/110/9 342/106/9 340/158/9 344/155/9
f 347/151/63 348/152/63 350/153/63 349/154/63
f 349/154/64 350/153/64 354/110/64 353/114/64
f 353/114/65 354/110/65 352/155/65 351/156/65
f 351/156/66 352/155/66 348/109/66 347/113/66
f 349/122/12 353/114/12 351/156/12 347/157/12
f 354/110/9 350/106/9 348/158/9 352/155/9
f 355/20/59 359/159/59 356/89/59
f 356/89/60 359/159/60 357/25/60
f 355/33/12 356/97/12 357/38/12 358/102/12
f 357/25/61 359/159/61 358/84/61
f 358/84/62 359/159/62 355/20/62
f 360/151/63 361/152/63 363/153/63 362/154/63
f 362/154/64 363/153/64 367/110/64 366/114/64
f 366/114/65 367/110/65 365/155/65 364/156/65
f 364/156/66 365/155/66 361/109/66 360/113/66
f 362/122/12 366/114/12 364/156/12 360/157/12
f 367/110/9 363/106/9 361/158/9 365/155/9
f 368/151/63 369/152/63 371/153/63 370/154/63
f 370/154/64 371/153/64 375/110/64 374/114/64
f 374/114/65 375/110/65 373/155/65 372/156/65
f 372/156/66 373/155/66 369/109/66 368/113/66
f 370/122/12 374/114/12 372/156/12 368/157/12
f 375/110/9 371/106/9 369/158/9 373/155/9
f 376/20/59 380/159/59 377/89/59
f 377/89/60 380/159/60 378/25/60
f 376/33/12 377/97/12 378/38/12 379/102/12
f 378/25/61 380/159/61 379/84/61
f 379/84/62 380/159/62 376/20/62
f 381/151/63 382/152/63 384/153/63 383/154/63
f 383/154/64 384/153/64 388/110/64 387/114/64
f 387/114/65 388/110/65 386/155/65 385/156/65
f 385/156/66 386/155/66 382/109/66 381/113/66
f 383/122/12 387/114/12 385/156/12 381/157/12
f 388/110/9 384/106/9 382/158/9 386/155/9
f 389/151/63 390/152/63 392/153/63 391/154/63
f 391/154/64 392/153/64 396/110/64 395/114/64
f 395/114/65 396/110/65 394/155/65 393/156/65
f 393/156/66 394/155/66 390/109/66 389/113/66
f 391/122/12 395/114/12 393/156/12 389/157/12
f 396/110/9 392/106/9 390/158/9 394/155/9
f 409/151/8 410/152/8 412/153/8 411/154/8
f 411/154/53 412/153/53 416/110/53 415/114/53
f 415/114/3 416/110/3 414/155/3 413/156/3
f 413/156/54 414/155/54 410/109/54 409/113/54
f 411/122/12 415/114/12 413/156/12 409/157/12
f 416/110/9 412/106/9 410/158/9 414/155/9
f 417/151/53 418/152/53 420/153/53 419/154/53
f 419/154/3 420/153/3 424/110/3 423/114/3
f 423/114/54 424/110/54 422/155/54 421/156/54
f 421/156/8 422/155/8 418/109/8 417/113/8
f 419/122/12 423/114/12 421/156/12 417/157/12
f 424/110/9 420/106/9 418/158/9 422/155/9
f 425/151/53 426/152/53 428/153/53 427/154/53
f 427/154/3 428/153/3 432/110/3 431/114/3
f 431/114/54 432/110/54 430/155/54 429/156/54
f 429/156/8 430/155/8 426/109/8 425/113/8
f 427/122/12 431/114/12 429/156/12 425/157/12
f 432/110/9 428/106/9 426/158/9 430/155/9
f 433/151/53 434/152/53 436/153/53 435/154/53
f 435/154/3 436/153/3 440/110/3 439/114/3
f 439/114/54 440/110/54 438/155/54 437/156/54
f 437/156/8 438/155/8 434/109/8 433/113/8
f 435/122/12 439/114/12 437/156/12 433/157/12
f 440/110/9 436/106/9 434/158/9 438/155/9
f 441/20/59 445/159/59 442/89/59
f 442/89/60 445/159/60 443/25/60
f 441/33/12 442/97/12 443/38/12 444/102/12
f 443/25/61 445/159/61 444/84/61
f 444/84/62 445/159/62 441/20/62
f 446/151/53 447/152/53 449/153/53 448/154/53
f 448/154/3 449/153/3 453/110/3 452/114/3
f 452/114/54 453/110/54 451/155/54 450/156/54
f 450/156/8 451/155/8 447/109/8 446/113/8
f 448/122/12 452/114/12 450/156/12 446/157/12
f 453/110/9 449/106/9 447/158/9 451/155/9
f 454/151/53 455/152/53 457/153/53 456/154/53
f 456/154/3 457/153/3 461/110/3 460/114/3
f 460/114/54 461/110/54 459/155/54 458/156/54
f 458/156/8 459/155/8 455/109/8 454/113/8
f 456/122/12 460/114/12 458/156/12 454/157/12
f 461/110/9 457/106/9 455/158/9 459/155/9
f 462/20/59 466/159/59 463/89/59
f 463/89/60 466/159/60 464/25/60
f 462/33/12 463/97/12 464/38/12 465/102/12
f 464/25/61 466/159/61 465/84/61
f 465/84/62 466/159/62 462/20/62
f 467/151/53 468/152/53 470/153/53 469/154/53
f 469/154/3 470/153/3 474/110/3 473/114/3
f 473/114/54 474/110/54 472/155/54 471/156/54
f 471/156/8 472/155/8 468/109/8 467/113/8
f 469/122/12 473/114/12 471/156/12 467/157/12
f 474/110/9 470/106/9 468/158/9 472/155/9
f 475/151/53 476/152/53 478/153/53 477/154/53
f 477/154/3 478/153/3 482/110/3 481/114/3
f 481/114/54 482/110/54 480/155/54 479/156/54
f 479/156/8 480/155/8 476/109/8 475/113/8
f 477/122/12 481/114/12 479/156/12 475/157/12
f 482/110/9 478/106/9 476/158/9 480/155/9
usemtl cloth
f 41/1/1 42/2/1 44/3/1 43/4/1
f 43/4/2 44/3/2 46/5/2 45/6/2
f 45/6/3 46/5/3 48/7/3 47/8/3
f 47/8/4 48/7/4 50/9/4 49/10/4
f 49/10/5 50/9/5 52/11/5 51/12/5
f 51/12/6 52/11/6 54/13/6 53/14/6
f 53/14/7 54/13/7 56/15/7 55/16/7
f 55/16/8 56/15/8 58/17/8 57/18/8
f 44/19/9 42/20/9 60/43/9 58/55/9 56/56/9 54/46/9 52/47/9 50/26/9 48/57/9 46/58/9
f 57/18/10 58/17/10 60/29/10 59/30/10
f 59/30/11 60/29/11 42/31/11 41/32/11
f 41/33/12 43/34/12 45/50/12 47/59/12 49/37/12 51/52/12 53/39/12 55/60/12 57/54/12 59/42/12
f 117/1/25 118/2/25 120/105/25 119/106/25
f 119/106/26 120/105/26 122/107/26 121/108/26
f 121/108/27 122/107/27 124/109/27 123/110/27
f 123/110/28 124/109/28 126/111/28 125/112/28
f 125/112/29 126/111/29 128/113/29 127/114/29
f 127/114/30 128/113/30 130/115/30 129/116/30
f 120/117/9 118/20/9 132/118/9 130/84/9 128/119/9 126/25/9 124/120/9 122/89/9
f 129/116/31 130/115/31 132/121/31 131/122/31
f 131/122/32 132/121/32 118/123/32 117/124/32
f 117/33/12 119/125/12 121/97/12 123/126/12 125/38/12 127/127/12 129/102/12 131/128/12
usemtl ghostfire
f 61/1/13 62/2/13 64/61/13 63/62/13
f 63/62/14 64/61/14 66/63/14 65/64/14
f 65/64/15 66/63/15 68/65/15 67/66/15
f 67/66/16 68/65/16 70/67/16 69/68/16
f 69/68/17 70/67/17 72/69/17 71/70/17
f 71/70/18 72/69/18 74/71/18 73/72/18
f 73/72/19 74/71/19 76/73/19 75/74/19
f 75/74/20 76/73/20 78/75/20 77/76/20
f 77/76/21 78/75/21 80/77/21 79/78/21
f 79/78/22 80/77/22 82/79/22 81/80/22
f 64/81/9 62/20/9 84/82/9 82/83/9 80/84/9 78/85/9 76/86/9 74/25/9 72/87/9 70/88/9 68/89/9 66/90/9
f 81/80/23 82/79/23 84/91/23 83/92/23
f 83/92/24 84/91/24 62/93/24 61/94/24
f 61/33/12 63/95/12 65/96/12 67/97/12 69/98/12 71/99/12 73/38/12 75/100/12 77/101/12 79/102/12 81/103/12 83/104/12
f 133/1/1 134/2/1 136/3/1 135/4/1
f 135/4/2 136/3/2 138/5/2 137/6/2
f 137/6/3 138/5/3 140/7/3 139/8/3
f 139/8/4 140/7/4 142/9/4 141/10/4
f 141/10/5 142/9/5 144/11/5 143/12/5
f 143/12/6 144/11/6 146/13/6 145/14/6
f 145/14/7 146/13/7 148/15/7 147/16/7
f 147/16/8 148/15/8 150/17/8 149/18/8
f 136/19/9 134/20/9 152/21/9 150/22/9 148/23/9 146/24/9 144/25/9 142/26/9 140/27/9 138/28/9
f 149/18/10 150/17/10 152/29/10 151/30/10
f 151/30/11 152/29/11 134/31/11 133/32/11
f 133/33/12 135/34/12 137/35/12 139/36/12 141/37/12 143/38/12 145/39/12 147/40/12 149/41/12 151/42/12
usemtl bone
f 153/129/33 154/130/33 155/131/33
f 154/130/34 153/132/34 158/133/34
f 153/134/35 155/135/35 156/136/35
f 153/137/36 156/136/36 157/138/36
f 153/139/37 157/138/37 158/133/37
f 154/130/38 158/133/38 163/140/38
f 155/131/39 154/130/39 159/141/39
f 156/136/40 155/135/40 160/142/40
f 157/138/41 156/136/41 161/143/41
f 158/133/42 157/138/42 162/144/42
f 154/130/43 163/140/43 159/141/43
f 155/131/44 159/141/44 160/145/44
f 156/136/45 160/142/45 161/143/45
f 157/138/46 161/143/46 162/144/46
f 158/133/47 162/144/47 163/140/47
f 159/141/48 163/140/48 164/146/48
f 160/145/49 159/141/49 164/147/49
f 161/143/50 160/142/50 164/148/50
f 162/144/51 161/143/51 164/149/51
f 163/140/52 162/144/52 164/150/52
f 165/151/8 166/152/8 168/153/8 167/154/8
f 167/154/53 168/153/53 172/110/53 171/114/53
f 171/114/3 172/110/3 170/155/3 169/156/3
f 169/156/54 170/155/54 166/109/54 165/113/54
f 167/122/12 171/114/12 169/156/12 165/157/12
f 172/110/9 168/106/9 166/158/9 170/155/9
f 173/151/8 174/152/8 176/153/8 175/154/8
f 175/154/53 176/153/53 180/110/53 179/114/53
f 179/114/3 180/110/3 178/155/3 177/156/3
f 177/156/54 178/155/54 174/109/54 173/113/54
f 175/122/12 179/114/12 177/156/12 173/157/12
f 180/110/9 176/106/9 174/158/9 178/155/9
usemtl soot
f 181/151/8 182/152/8 184/153/8 183/154/8
f 183/154/53 184/153/53 188/110/53 187/114/53
f 187/114/3 188/110/3 186/155/3 185/156/3
f 185/156/54 186/155/54 182/109/54 181/113/54
f 183/122/12 187/114/12 185/156/12 181/157/12
f 188/110/9 184/106/9 182/158/9 186/155/9
f 189/151/8 190/152/8 192/153/8 191/154/8
f 191/154/53 192/153/53 196/110/53 195/114/53
f 195/114/3 196/110/3 194/155/3 193/156/3
f 193/156/54 194/155/54 190/109/54 189/113/54
f 191/122/12 195/114/12 193/156/12 189/157/12
f 196/110/9 192/106/9 190/158/9 194/155/9
f 197/151/8 198/152/8 200/153/8 199/154/8
f 199/154/53 200/153/53 204/110/53 203/114/53
f 203/114/3 204/110/3 202/155/3 201/156/3
f 201/156/54 202/155/54 198/109/54 197/113/54
f 199/122/12 203/114/12 201/156/12 197/157/12
f 204/110/9 200/106/9 198/158/9 202/155/9
f 205/151/8 206/152/8 208/153/8 207/154/8
f 207/154/53 208/153/53 212/110/53 211/114/53
f 211/114/3 212/110/3 210/155/3 209/156/3
f 209/156/54 210/155/54 206/109/54 205/113/54
f 207/122/12 211/114/12 209/156/12 205/157/12
f 212/110/9 208/106/9 206/158/9 210/155/9
f 213/151/8 214/152/8 216/153/8 215/154/8
f 215/154/53 216/153/53 220/110/53 219/114/53
f 219/114/3 220/110/3 218/155/3 217/156/3
f 217/156/54 218/155/54 214/109/54 213/113/54
f 215/122/12 219/114/12 217/156/12 213/157/12
f 220/110/9 216/106/9 214/158/9 218/155/9
f 221/151/8 222/152/8 224/153/8 223/154/8
f 223/154/53 224/153/53 228/110/53 227/114/53
f 227/114/3 228/110/3 226/155/3 225/156/3
f 225/156/54 226/155/54 222/109/54 221/113/54
f 223/122/12 227/114/12 225/156/12 221/157/12
f 228/110/9 224/106/9 222/158/9 226/155/9
f 229/151/8 230/152/8 232/153/8 231/154/8
f 231/154/53 232/153/53 236/110/53 235/114/53
f 235/114/3 236/110/3 234/155/3 233/156/3
f 233/156/54 234/155/54 230/109/54 229/113/54
f 231/122/12 235/114/12 233/156/12 229/157/12
f 236/110/9 232/106/9 230/158/9 234/155/9
usemtl leaf_dk
f 311/129/33 312/130/33 313/131/33
f 312/130/34 311/132/34 316/133/34
f 311/134/35 313/135/35 314/136/35
f 311/137/36 314/136/36 315/138/36
f 311/139/37 315/138/37 316/133/37
f 312/130/38 316/133/38 321/140/38
f 313/131/39 312/130/39 317/141/39
f 314/136/40 313/135/40 318/142/40
f 315/138/41 314/136/41 319/143/41
f 316/133/42 315/138/42 320/144/42
f 312/130/43 321/140/43 317/141/43
f 313/131/44 317/141/44 318/145/44
f 314/136/45 318/142/45 319/143/45
f 315/138/46 319/143/46 320/144/46
f 316/133/47 320/144/47 321/140/47
f 317/141/48 321/140/48 322/146/48
f 318/145/49 317/141/49 322/147/49
f 319/143/50 318/142/50 322/148/50
f 320/144/51 319/143/51 322/149/51
f 321/140/52 320/144/52 322/150/52
f 397/129/33 398/130/33 399/131/33
f 398/130/34 397/132/34 402/133/34
f 397/134/35 399/135/35 400/136/35
f 397/137/36 400/136/36 401/138/36
f 397/139/37 401/138/37 402/133/37
f 398/130/38 402/133/38 407/140/38
f 399/131/39 398/130/39 403/141/39
f 400/136/40 399/135/40 404/142/40
f 401/138/41 400/136/41 405/143/41
f 402/133/42 401/138/42 406/144/42
f 398/130/43 407/140/43 403/141/43
f 399/131/44 403/141/44 404/145/44
f 400/136/45 404/142/45 405/143/45
f 401/138/46 405/143/46 406/144/46
f 402/133/47 406/144/47 407/140/47
f 403/141/48 407/140/48 408/146/48
f 404/145/49 403/141/49 408/147/49
f 405/143/50 404/142/50 408/148/50
f 406/144/51 405/143/51 408/149/51
f 407/140/52 406/144/52 408/150/52
f 483/129/33 484/130/33 485/131/33
f 484/130/34 483/132/34 488/133/34
f 483/134/35 485/135/35 486/136/35
f 483/137/36 486/136/36 487/138/36
f 483/139/37 487/138/37 488/133/37
f 484/130/38 488/133/38 493/140/38
f 485/131/39 484/130/39 489/141/39
f 486/136/40 485/135/40 490/142/40
f 487/138/41 486/136/41 491/143/41
f 488/133/42 487/138/42 492/144/42
f 484/130/43 493/140/43 489/141/43
f 485/131/44 489/141/44 490/145/44
f 486/136/45 490/142/45 491/143/45
f 487/138/46 491/143/46 492/144/46
f 488/133/47 492/144/47 493/140/47
f 489/141/48 493/140/48 494/146/48
f 490/145/49 489/141/49 494/147/49
f 491/143/50 490/142/50 494/148/50
f 492/144/51 491/143/51 494/149/51
f 493/140/52 492/144/52 494/150/52
