# Blender 5.0.1
# www.blender.org
mtllib manor.mtl
o manor
v -1.200000 0.000000 0.900000
v -1.200000 0.240000 0.900000
v -1.200000 0.000000 -0.900000
v -1.200000 0.240000 -0.900000
v 1.200000 0.000000 0.900000
v 1.200000 0.240000 0.900000
v 1.200000 0.000000 -0.900000
v 1.200000 0.240000 -0.900000
v -1.100000 0.240000 0.800000
v -1.100000 2.140000 0.800000
v -1.100000 0.240000 -0.800000
v -1.100000 2.140000 -0.800000
v 1.100000 0.240000 0.800000
v 1.100000 2.140000 0.800000
v 1.100000 0.240000 -0.800000
v 1.100000 2.140000 -0.800000
v -1.130000 0.870000 0.830000
v -1.130000 0.930000 0.830000
v -1.130000 0.870000 -0.830000
v -1.130000 0.930000 -0.830000
v 1.130000 0.870000 0.830000
v 1.130000 0.930000 0.830000
v 1.130000 0.870000 -0.830000
v 1.130000 0.930000 -0.830000
v -1.130000 1.470000 0.830000
v -1.130000 1.530000 0.830000
v -1.130000 1.470000 -0.830000
v -1.130000 1.530000 -0.830000
v 1.130000 1.470000 0.830000
v 1.130000 1.530000 0.830000
v 1.130000 1.470000 -0.830000
v 1.130000 1.530000 -0.830000
v -1.150000 2.080000 0.850000
v -1.150000 2.200000 0.850000
v -1.150000 2.080000 -0.850000
v -1.150000 2.200000 -0.850000
v 1.150000 2.080000 0.850000
v 1.150000 2.200000 0.850000
v 1.150000 2.080000 -0.850000
v 1.150000 2.200000 -0.850000
v -1.051111 2.150000 0.860000
v -1.051111 2.410000 0.860000
v -1.051111 2.150000 0.740000
v -1.051111 2.410000 0.740000
v -0.904444 2.150000 0.860000
v -0.904444 2.410000 0.860000
v -0.904444 2.150000 0.740000
v -0.904444 2.410000 0.740000
v -0.806667 2.150000 0.860000
v -0.806667 2.410000 0.860000
v -0.806667 2.150000 0.740000
v -0.806667 2.410000 0.740000
v -0.660000 2.150000 0.860000
v -0.660000 2.410000 0.860000
v -0.660000 2.150000 0.740000
v -0.660000 2.410000 0.740000
v -0.562222 2.150000 0.860000
v -0.562222 2.410000 0.860000
v -0.562222 2.150000 0.740000
v -0.562222 2.410000 0.740000
v -0.415556 2.150000 0.860000
v -0.415556 2.410000 0.860000
v -0.415556 2.150000 0.740000
v -0.415556 2.410000 0.740000
v -0.317778 2.150000 0.860000
v -0.317778 2.410000 0.860000
v -0.317778 2.150000 0.740000
v -0.317778 2.410000 0.740000
v -0.171111 2.150000 0.860000
v -0.171111 2.410000 0.860000
v -0.171111 2.150000 0.740000
v -0.171111 2.410000 0.740000
v -0.073333 2.150000 0.860000
v -0.073333 2.410000 0.860000
v -0.073333 2.150000 0.740000
v -0.073333 2.410000 0.740000
v 0.073333 2.150000 0.860000
v 0.073333 2.410000 0.860000
v 0.073333 2.150000 0.740000
v 0.073333 2.410000 0.740000
v 0.171111 2.150000 0.860000
v 0.171111 2.410000 0.860000
v 0.171111 2.150000 0.740000
v 0.171111 2.410000 0.740000
v 0.317778 2.150000 0.860000
v 0.317778 2.410000 0.860000
v 0.317778 2.150000 0.740000
v 0.317778 2.410000 0.740000
v 0.415556 2.150000 0.860000
v 0.415556 2.410000 0.860000
v 0.415556 2.150000 0.740000
v 0.415556 2.410000 0.740000
v 0.562222 2.150000 0.860000
v 0.562222 2.410000 0.860000
v 0.562222 2.150000 0.740000
v 0.562222 2.410000 0.740000
v 0.660000 2.150000 0.860000
v 0.660000 2.410000 0.860000
v 0.660000 2.150000 0.740000
v 0.660000 2.410000 0.740000
v 0.806667 2.150000 0.860000
v 0.806667 2.410000 0.860000
v 0.806667 2.150000 0.740000
v 0.806667 2.410000 0.740000
v 0.904444 2.150000 0.860000
v 0.904444 2.410000 0.860000
v 0.904444 2.150000 0.740000
v 0.904444 2.410000 0.740000
v 1.051111 2.150000 0.860000
v 1.051111 2.410000 0.860000
v 1.051111 2.150000 0.740000
v 1.051111 2.410000 0.740000
v -1.051111 2.150000 -0.740000
v -1.051111 2.410000 -0.740000
v -1.051111 2.150000 -0.860000
v -1.051111 2.410000 -0.860000
v -0.904444 2.150000 -0.740000
v -0.904444 2.410000 -0.740000
v -0.904444 2.150000 -0.860000
v -0.904444 2.410000 -0.860000
v -0.806667 2.150000 -0.740000
v -0.806667 2.410000 -0.740000
v -0.806667 2.150000 -0.860000
v -0.806667 2.410000 -0.860000
v -0.660000 2.150000 -0.740000
v -0.660000 2.410000 -0.740000
v -0.660000 2.150000 -0.860000
v -0.660000 2.410000 -0.860000
v -0.562222 2.150000 -0.740000
v -0.562222 2.410000 -0.740000
v -0.562222 2.150000 -0.860000
v -0.562222 2.410000 -0.860000
v -0.415556 2.150000 -0.740000
v -0.415556 2.410000 -0.740000
v -0.415556 2.150000 -0.860000
v -0.415556 2.410000 -0.860000
v -0.317778 2.150000 -0.740000
v -0.317778 2.410000 -0.740000
v -0.317778 2.150000 -0.860000
v -0.317778 2.410000 -0.860000
v -0.171111 2.150000 -0.740000
v -0.171111 2.410000 -0.740000
v -0.171111 2.150000 -0.860000
v -0.171111 2.410000 -0.860000
v -0.073333 2.150000 -0.740000
v -0.073333 2.410000 -0.740000
v -0.073333 2.150000 -0.860000
v -0.073333 2.410000 -0.860000
v 0.073333 2.150000 -0.740000
v 0.073333 2.410000 -0.740000
v 0.073333 2.150000 -0.860000
v 0.073333 2.410000 -0.860000
v 0.171111 2.150000 -0.740000
v 0.171111 2.410000 -0.740000
v 0.171111 2.150000 -0.860000
v 0.171111 2.410000 -0.860000
v 0.317778 2.150000 -0.740000
v 0.317778 2.410000 -0.740000
v 0.317778 2.150000 -0.860000
v 0.317778 2.410000 -0.860000
v 0.415556 2.150000 -0.740000
v 0.415556 2.410000 -0.740000
v 0.415556 2.150000 -0.860000
v 0.415556 2.410000 -0.860000
v 0.562222 2.150000 -0.740000
v 0.562222 2.410000 -0.740000
v 0.562222 2.150000 -0.860000
v 0.562222 2.410000 -0.860000
v 0.660000 2.150000 -0.740000
v 0.660000 2.410000 -0.740000
v 0.660000 2.150000 -0.860000
v 0.660000 2.410000 -0.860000
v 0.806667 2.150000 -0.740000
v 0.806667 2.410000 -0.740000
v 0.806667 2.150000 -0.860000
v 0.806667 2.410000 -0.860000
v 0.904444 2.150000 -0.740000
v 0.904444 2.410000 -0.740000
v 0.904444 2.150000 -0.860000
v 0.904444 2.410000 -0.860000
v 1.051111 2.150000 -0.740000
v 1.051111 2.410000 -0.740000
v 1.051111 2.150000 -0.860000
v 1.051111 2.410000 -0.860000
v 0.000000 2.240000 -0.520000
v 0.000000 2.740000 -0.520000
v 0.260000 2.240000 -0.450333
v 0.260000 2.740000 -0.450333
v 0.450333 2.240000 -0.260000
v 0.450333 2.740000 -0.260000
v 0.520000 2.240000 0.000000
v 0.520000 2.740000 0.000000
v 0.450333 2.240000 0.260000
v 0.450333 2.740000 0.260000
v 0.260000 2.240000 0.450333
v 0.260000 2.740000 0.450333
v 0.000000 2.240000 0.520000
v 0.000000 2.740000 0.520000
v -0.260000 2.240000 0.450333
v -0.260000 2.740000 0.450333
v -0.450333 2.240000 0.260000
v -0.450333 2.740000 0.260000
v -0.520000 2.240000 0.000000
v -0.520000 2.740000 0.000000
v -0.450333 2.240000 -0.260000
v -0.450333 2.740000 -0.260000
v -0.260000 2.240000 -0.450333
v -0.260000 2.740000 -0.450333
v 0.410333 2.410000 -0.220000
v 0.410333 2.630000 -0.220000
v 0.410333 2.410000 -0.300000
v 0.410333 2.630000 -0.300000
v 0.490333 2.410000 -0.220000
v 0.490333 2.630000 -0.220000
v 0.490333 2.410000 -0.300000
v 0.490333 2.630000 -0.300000
v -0.040000 2.410000 -0.480000
v -0.040000 2.630000 -0.480000
v -0.040000 2.410000 -0.560000
v -0.040000 2.630000 -0.560000
v 0.040000 2.410000 -0.480000
v 0.040000 2.630000 -0.480000
v 0.040000 2.410000 -0.560000
v 0.040000 2.630000 -0.560000
v -0.490333 2.410000 -0.220000
v -0.490333 2.630000 -0.220000
v -0.490333 2.410000 -0.300000
v -0.490333 2.630000 -0.300000
v -0.410333 2.410000 -0.220000
v -0.410333 2.630000 -0.220000
v -0.410333 2.410000 -0.300000
v -0.410333 2.630000 -0.300000
v -0.490333 2.410000 0.300000
v -0.490333 2.630000 0.300000
v -0.490333 2.410000 0.220000
v -0.490333 2.630000 0.220000
v -0.410333 2.410000 0.300000
v -0.410333 2.630000 0.300000
v -0.410333 2.410000 0.220000
v -0.410333 2.630000 0.220000
v -0.040000 2.410000 0.560000
v -0.040000 2.630000 0.560000
v -0.040000 2.410000 0.480000
v -0.040000 2.630000 0.480000
v 0.040000 2.410000 0.560000
v 0.040000 2.630000 0.560000
v 0.040000 2.410000 0.480000
v 0.040000 2.630000 0.480000
v 0.410333 2.410000 0.300000
v 0.410333 2.630000 0.300000
v 0.410333 2.410000 0.220000
v 0.410333 2.630000 0.220000
v 0.490333 2.410000 0.300000
v 0.490333 2.630000 0.300000
v 0.490333 2.410000 0.220000
v 0.490333 2.630000 0.220000
v 0.000000 2.710000 -0.560000
v 0.000000 2.770000 -0.560000
v 0.280000 2.710000 -0.484974
v 0.280000 2.770000 -0.484974
v 0.484974 2.710000 -0.280000
v 0.484974 2.770000 -0.280000
v 0.560000 2.710000 0.000000
v 0.560000 2.770000 0.000000
v 0.484974 2.710000 0.280000
v 0.484974 2.770000 0.280000
v 0.280000 2.710000 0.484974
v 0.280000 2.770000 0.484974
v 0.000000 2.710000 0.560000
v 0.000000 2.770000 0.560000
v -0.280000 2.710000 0.484974
v -0.280000 2.770000 0.484974
v -0.484974 2.710000 0.280000
v -0.484974 2.770000 0.280000
v -0.560000 2.710000 0.000000
v -0.560000 2.770000 0.000000
v -0.484974 2.710000 -0.280000
v -0.484974 2.770000 -0.280000
v -0.280000 2.710000 -0.484974
v -0.280000 2.770000 -0.484974
v 0.000000 2.770000 -0.500000
v 0.000000 2.910000 -0.500000
v 0.250000 2.770000 -0.433013
v 0.250000 2.910000 -0.433013
v 0.433013 2.770000 -0.250000
v 0.433013 2.910000 -0.250000
v 0.500000 2.770000 0.000000
v 0.500000 2.910000 0.000000
v 0.433013 2.770000 0.250000
v 0.433013 2.910000 0.250000
v 0.250000 2.770000 0.433013
v 0.250000 2.910000 0.433013
v 0.000000 2.770000 0.500000
v 0.000000 2.910000 0.500000
v -0.250000 2.770000 0.433013
v -0.250000 2.910000 0.433013
v -0.433013 2.770000 0.250000
v -0.433013 2.910000 0.250000
v -0.500000 2.770000 0.000000
v -0.500000 2.910000 0.000000
v -0.433013 2.770000 -0.250000
v -0.433013 2.910000 -0.250000
v -0.250000 2.770000 -0.433013
v -0.250000 2.910000 -0.433013
v 0.000000 2.910000 -0.440000
v 0.000000 3.039999 -0.440000
v 0.220000 2.910000 -0.381051
v 0.220000 3.039999 -0.381051
v 0.381051 2.910000 -0.220000
v 0.381051 3.039999 -0.220000
v 0.440000 2.910000 0.000000
v 0.440000 3.039999 0.000000
v 0.381051 2.910000 0.220000
v 0.381051 3.039999 0.220000
v 0.220000 2.910000 0.381051
v 0.220000 3.039999 0.381051
v 0.000000 2.910000 0.440000
v 0.000000 3.039999 0.440000
v -0.220000 2.910000 0.381051
v -0.220000 3.039999 0.381051
v -0.381051 2.910000 0.220000
v -0.381051 3.039999 0.220000
v -0.440000 2.910000 0.000000
v -0.440000 3.039999 0.000000
v -0.381051 2.910000 -0.220000
v -0.381051 3.039999 -0.220000
v -0.220000 2.910000 -0.381051
v -0.220000 3.039999 -0.381051
v 0.000000 3.040000 -0.360000
v 0.000000 3.160000 -0.360000
v 0.180000 3.040000 -0.311769
v 0.180000 3.160000 -0.311769
v 0.311769 3.040000 -0.180000
v 0.311769 3.160000 -0.180000
v 0.360000 3.040000 0.000000
v 0.360000 3.160000 0.000000
v 0.311769 3.040000 0.180000
v 0.311769 3.160000 0.180000
v 0.180000 3.040000 0.311769
v 0.180000 3.160000 0.311769
v 0.000000 3.040000 0.360000
v 0.000000 3.160000 0.360000
v -0.180000 3.040000 0.311769
v -0.180000 3.160000 0.311769
v -0.311769 3.040000 0.180000
v -0.311769 3.160000 0.180000
v -0.360000 3.040000 0.000000
v -0.360000 3.160000 0.000000
v -0.311769 3.040000 -0.180000
v -0.311769 3.160000 -0.180000
v -0.180000 3.040000 -0.311769
v -0.180000 3.160000 -0.311769
v 0.000000 3.160000 -0.260000
v 0.000000 3.280000 -0.260000
v 0.130000 3.160000 -0.225167
v 0.130000 3.280000 -0.225167
v 0.225167 3.160000 -0.130000
v 0.225167 3.280000 -0.130000
v 0.260000 3.160000 0.000000
v 0.260000 3.280000 0.000000
v 0.225167 3.160000 0.130000
v 0.225167 3.280000 0.130000
v 0.130000 3.160000 0.225167
v 0.130000 3.280000 0.225167
v 0.000000 3.160000 0.260000
v 0.000000 3.280000 0.260000
v -0.130000 3.160000 0.225167
v -0.130000 3.280000 0.225167
v -0.225167 3.160000 0.130000
v -0.225167 3.280000 0.130000
v -0.260000 3.160000 0.000000
v -0.260000 3.280000 0.000000
v -0.225167 3.160000 -0.130000
v -0.225167 3.280000 -0.130000
v -0.130000 3.160000 -0.225167
v -0.130000 3.280000 -0.225167
v 0.000000 3.280000 -0.150000
v 0.000000 3.379999 -0.150000
v 0.075000 3.280000 -0.129904
v 0.075000 3.379999 -0.129904
v 0.129904 3.280000 -0.075000
v 0.129904 3.379999 -0.075000
v 0.150000 3.280000 0.000000
v 0.150000 3.379999 0.000000
v 0.129904 3.280000 0.075000
v 0.129904 3.379999 0.075000
v 0.075000 3.280000 0.129904
v 0.075000 3.379999 0.129904
v 0.000000 3.280000 0.150000
v 0.000000 3.379999 0.150000
v -0.075000 3.280000 0.129904
v -0.075000 3.379999 0.129904
v -0.129904 3.280000 0.075000
v -0.129904 3.379999 0.075000
v -0.150000 3.280000 0.000000
v -0.150000 3.379999 0.000000
v -0.129904 3.280000 -0.075000
v -0.129904 3.379999 -0.075000
v -0.075000 3.280000 -0.129904
v -0.075000 3.379999 -0.129904
v 0.425000 2.760000 0.015000
v 0.425000 3.100000 0.015000
v 0.425000 2.760000 -0.015000
v 0.425000 3.100000 -0.015000
v 0.455000 2.760000 0.015000
v 0.455000 3.100000 0.015000
v 0.455000 2.760000 -0.015000
v 0.455000 3.100000 -0.015000
v 0.296127 2.760000 -0.296127
v 0.296127 3.100000 -0.296127
v 0.296127 2.760000 -0.326127
v 0.296127 3.100000 -0.326127
v 0.326127 2.760000 -0.296127
v 0.326127 3.100000 -0.296127
v 0.326127 2.760000 -0.326127
v 0.326127 3.100000 -0.326127
v -0.015000 2.760000 -0.425000
v -0.015000 3.100000 -0.425000
v -0.015000 2.760000 -0.455000
v -0.015000 3.100000 -0.455000
v 0.015000 2.760000 -0.425000
v 0.015000 3.100000 -0.425000
v 0.015000 2.760000 -0.455000
v 0.015000 3.100000 -0.455000
v -0.326127 2.760000 -0.296127
v -0.326127 3.100000 -0.296127
v -0.326127 2.760000 -0.326127
v -0.326127 3.100000 -0.326127
v -0.296127 2.760000 -0.296127
v -0.296127 3.100000 -0.296127
v -0.296127 2.760000 -0.326127
v -0.296127 3.100000 -0.326127
v -0.455000 2.760000 0.015000
v -0.455000 3.100000 0.015000
v -0.455000 2.760000 -0.015000
v -0.455000 3.100000 -0.015000
v -0.425000 2.760000 0.015000
v -0.425000 3.100000 0.015000
v -0.425000 2.760000 -0.015000
v -0.425000 3.100000 -0.015000
v -0.326127 2.760000 0.326127
v -0.326127 3.100000 0.326127
v -0.326127 2.760000 0.296127
v -0.326127 3.100000 0.296127
v -0.296127 2.760000 0.326127
v -0.296127 3.100000 0.326127
v -0.296127 2.760000 0.296127
v -0.296127 3.100000 0.296127
v -0.015000 2.760000 0.455000
v -0.015000 3.100000 0.455000
v -0.015000 2.760000 0.425000
v -0.015000 3.100000 0.425000
v 0.015000 2.760000 0.455000
v 0.015000 3.100000 0.455000
v 0.015000 2.760000 0.425000
v 0.015000 3.100000 0.425000
v 0.296127 2.760000 0.326127
v 0.296127 3.100000 0.326127
v 0.296127 2.760000 0.296127
v 0.296127 3.100000 0.296127
v 0.326127 2.760000 0.326127
v 0.326127 3.100000 0.326127
v 0.326127 2.760000 0.296127
v 0.326127 3.100000 0.296127
v 0.000000 3.380000 -0.130000
v 0.000000 3.580000 -0.130000
v 0.091924 3.380000 -0.091924
v 0.091924 3.580000 -0.091924
v 0.130000 3.380000 0.000000
v 0.130000 3.580000 0.000000
v 0.091924 3.380000 0.091924
v 0.091924 3.580000 0.091924
v 0.000000 3.380000 0.130000
v 0.000000 3.580000 0.130000
v -0.091924 3.380000 0.091924
v -0.091924 3.580000 0.091924
v -0.130000 3.380000 0.000000
v -0.130000 3.580000 0.000000
v -0.091924 3.380000 -0.091924
v -0.091924 3.580000 -0.091924
v 0.000000 3.580000 -0.150000
v 0.106066 3.580000 -0.106066
v 0.150000 3.580000 0.000000
v 0.106066 3.580000 0.106066
v 0.000000 3.580000 0.150000
v -0.106066 3.580000 0.106066
v -0.150000 3.580000 0.000000
v -0.106066 3.580000 -0.106066
v 0.000000 3.820000 0.000000
v 0.000000 3.780000 -0.020000
v 0.000000 4.080000 -0.020000
v 0.017321 3.780000 -0.010000
v 0.017321 4.080000 -0.010000
v 0.017321 3.780000 0.010000
v 0.017321 4.080000 0.010000
v 0.000000 3.780000 0.020000
v 0.000000 4.080000 0.020000
v -0.017321 3.780000 0.010000
v -0.017321 4.080000 0.010000
v -0.017321 3.780000 -0.010000
v -0.017321 4.080000 -0.010000
v -1.160000 0.300000 0.600000
v -1.160000 2.390000 0.600000
v -1.004436 0.300000 0.664437
v -1.004436 2.390000 0.664437
v -0.940000 0.300000 0.820000
v -0.940000 2.390000 0.820000
v -1.004436 0.300000 0.975563
v -1.004436 2.390000 0.975563
v -1.160000 0.300000 1.040000
v -1.160000 2.390000 1.040000
v -1.315563 0.300000 0.975563
v -1.315563 2.390000 0.975563
v -1.380000 0.300000 0.820000
v -1.380000 2.390000 0.820000
v -1.315563 0.300000 0.664437
v -1.315563 2.390000 0.664437
v -1.160000 2.350000 0.570000
v -1.160000 2.430000 0.570000
v -0.983223 2.350000 0.643223
v -0.983223 2.430000 0.643223
v -0.910000 2.350000 0.820000
v -0.910000 2.430000 0.820000
v -0.983223 2.350000 0.996777
v -0.983223 2.430000 0.996777
v -1.160000 2.350000 1.070000
v -1.160000 2.430000 1.070000
v -1.336776 2.350000 0.996777
v -1.336776 2.430000 0.996777
v -1.410000 2.350000 0.820000
v -1.410000 2.430000 0.820000
v -1.336776 2.350000 0.643223
v -1.336776 2.430000 0.643223
v -1.160000 2.390000 0.540000
v -0.962010 2.390000 0.622010
v -0.880000 2.390000 0.820000
v -0.962010 2.390000 1.017990
v -1.160000 2.390000 1.100000
v -1.357990 2.390000 1.017990
v -1.440000 2.390000 0.820000
v -1.357990 2.390000 0.622010
v -1.160000 3.090000 0.820000
v -1.160000 3.060000 0.800000
v -1.160000 3.280000 0.800000
v -1.142679 3.060000 0.810000
v -1.142679 3.280000 0.810000
v -1.142679 3.060000 0.830000
v -1.142679 3.280000 0.830000
v -1.160000 3.060000 0.840000
v -1.160000 3.280000 0.840000
v -1.177320 3.060000 0.830000
v -1.177320 3.280000 0.830000
v -1.177320 3.060000 0.810000
v -1.177320 3.280000 0.810000
v -1.195000 1.454000 1.065000
v -1.195000 1.654000 1.065000
v -1.195000 1.454000 1.015000
v -1.195000 1.654000 1.015000
v -1.125000 1.454000 1.065000
v -1.125000 1.654000 1.065000
v -1.125000 1.454000 1.015000
v -1.125000 1.654000 1.015000
v -1.160000 0.300000 -1.040000
v -1.160000 2.390000 -1.040000
v -1.004436 0.300000 -0.975563
v -1.004436 2.390000 -0.975563
v -0.940000 0.300000 -0.820000
v -0.940000 2.390000 -0.820000
v -1.004436 0.300000 -0.664437
v -1.004436 2.390000 -0.664437
v -1.160000 0.300000 -0.600000
v -1.160000 2.390000 -0.600000
v -1.315563 0.300000 -0.664437
v -1.315563 2.390000 -0.664437
v -1.380000 0.300000 -0.820000
v -1.380000 2.390000 -0.820000
v -1.315563 0.300000 -0.975563
v -1.315563 2.390000 -0.975563
v -1.160000 2.350000 -1.070000
v -1.160000 2.430000 -1.070000
v -0.983223 2.350000 -0.996777
v -0.983223 2.430000 -0.996777
v -0.910000 2.350000 -0.820000
v -0.910000 2.430000 -0.820000
v -0.983223 2.350000 -0.643223
v -0.983223 2.430000 -0.643223
v -1.160000 2.350000 -0.570000
v -1.160000 2.430000 -0.570000
v -1.336776 2.350000 -0.643223
v -1.336776 2.430000 -0.643223
v -1.410000 2.350000 -0.820000
v -1.410000 2.430000 -0.820000
v -1.336776 2.350000 -0.996777
v -1.336776 2.430000 -0.996777
v -1.160000 2.390000 -1.100000
v -0.962010 2.390000 -1.017990
v -0.880000 2.390000 -0.820000
v -0.962010 2.390000 -0.622010
v -1.160000 2.390000 -0.540000
v -1.357990 2.390000 -0.622010
v -1.440000 2.390000 -0.820000
v -1.357990 2.390000 -1.017990
v -1.160000 3.090000 -0.820000
v -1.160000 3.060000 -0.840000
v -1.160000 3.280000 -0.840000
v -1.142679 3.060000 -0.830000
v -1.142679 3.280000 -0.830000
v -1.142679 3.060000 -0.810000
v -1.142679 3.280000 -0.810000
v -1.160000 3.060000 -0.800000
v -1.160000 3.280000 -0.800000
v -1.177320 3.060000 -0.810000
v -1.177320 3.280000 -0.810000
v -1.177320 3.060000 -0.830000
v -1.177320 3.280000 -0.830000
v -1.195000 1.454000 -0.575000
v -1.195000 1.654000 -0.575000
v -1.195000 1.454000 -0.625000
v -1.195000 1.654000 -0.625000
v -1.125000 1.454000 -0.575000
v -1.125000 1.654000 -0.575000
v -1.125000 1.454000 -0.625000
v -1.125000 1.654000 -0.625000
v 1.160000 0.300000 0.600000
v 1.160000 2.390000 0.600000
v 1.315563 0.300000 0.664437
v 1.315563 2.390000 0.664437
v 1.380000 0.300000 0.820000
v 1.380000 2.390000 0.820000
v 1.315563 0.300000 0.975563
v 1.315563 2.390000 0.975563
v 1.160000 0.300000 1.040000
v 1.160000 2.390000 1.040000
v 1.004436 0.300000 0.975563
v 1.004436 2.390000 0.975563
v 0.940000 0.300000 0.820000
v 0.940000 2.390000 0.820000
v 1.004436 0.300000 0.664437
v 1.004436 2.390000 0.664437
v 1.160000 2.350000 0.570000
v 1.160000 2.430000 0.570000
v 1.336776 2.350000 0.643223
v 1.336776 2.430000 0.643223
v 1.410000 2.350000 0.820000
v 1.410000 2.430000 0.820000
v 1.336776 2.350000 0.996777
v 1.336776 2.430000 0.996777
v 1.160000 2.350000 1.070000
v 1.160000 2.430000 1.070000
v 0.983223 2.350000 0.996777
v 0.983223 2.430000 0.996777
v 0.910000 2.350000 0.820000
v 0.910000 2.430000 0.820000
v 0.983223 2.350000 0.643223
v 0.983223 2.430000 0.643223
v 1.160000 2.390000 0.540000
v 1.357990 2.390000 0.622010
v 1.440000 2.390000 0.820000
v 1.357990 2.390000 1.017990
v 1.160000 2.390000 1.100000
v 0.962010 2.390000 1.017990
v 0.880000 2.390000 0.820000
v 0.962010 2.390000 0.622010
v 1.160000 3.090000 0.820000
v 1.160000 3.060000 0.800000
v 1.160000 3.280000 0.800000
v 1.177320 3.060000 0.810000
v 1.177320 3.280000 0.810000
v 1.177320 3.060000 0.830000
v 1.177320 3.280000 0.830000
v 1.160000 3.060000 0.840000
v 1.160000 3.280000 0.840000
v 1.142679 3.060000 0.830000
v 1.142679 3.280000 0.830000
v 1.142679 3.060000 0.810000
v 1.142679 3.280000 0.810000
v 1.125000 1.454000 1.065000
v 1.125000 1.654000 1.065000
v 1.125000 1.454000 1.015000
v 1.125000 1.654000 1.015000
v 1.195000 1.454000 1.065000
v 1.195000 1.654000 1.065000
v 1.195000 1.454000 1.015000
v 1.195000 1.654000 1.015000
v 1.160000 0.300000 -1.040000
v 1.160000 2.390000 -1.040000
v 1.315563 0.300000 -0.975563
v 1.315563 2.390000 -0.975563
v 1.380000 0.300000 -0.820000
v 1.380000 2.390000 -0.820000
v 1.315563 0.300000 -0.664437
v 1.315563 2.390000 -0.664437
v 1.160000 0.300000 -0.600000
v 1.160000 2.390000 -0.600000
v 1.004436 0.300000 -0.664437
v 1.004436 2.390000 -0.664437
v 0.940000 0.300000 -0.820000
v 0.940000 2.390000 -0.820000
v 1.004436 0.300000 -0.975563
v 1.004436 2.390000 -0.975563
v 1.160000 2.350000 -1.070000
v 1.160000 2.430000 -1.070000
v 1.336776 2.350000 -0.996777
v 1.336776 2.430000 -0.996777
v 1.410000 2.350000 -0.820000
v 1.410000 2.430000 -0.820000
v 1.336776 2.350000 -0.643223
v 1.336776 2.430000 -0.643223
v 1.160000 2.350000 -0.570000
v 1.160000 2.430000 -0.570000
v 0.983223 2.350000 -0.643223
v 0.983223 2.430000 -0.643223
v 0.910000 2.350000 -0.820000
v 0.910000 2.430000 -0.820000
v 0.983223 2.350000 -0.996777
v 0.983223 2.430000 -0.996777
v 1.160000 2.390000 -1.100000
v 1.357990 2.390000 -1.017990
v 1.440000 2.390000 -0.820000
v 1.357990 2.390000 -0.622010
v 1.160000 2.390000 -0.540000
v 0.962010 2.390000 -0.622010
v 0.880000 2.390000 -0.820000
v 0.962010 2.390000 -1.017990
v 1.160000 3.090000 -0.820000
v 1.160000 3.060000 -0.840000
v 1.160000 3.280000 -0.840000
v 1.177320 3.060000 -0.830000
v 1.177320 3.280000 -0.830000
v 1.177320 3.060000 -0.810000
v 1.177320 3.280000 -0.810000
v 1.160000 3.060000 -0.800000
v 1.160000 3.280000 -0.800000
v 1.142679 3.060000 -0.810000
v 1.142679 3.280000 -0.810000
v 1.142679 3.060000 -0.830000
v 1.142679 3.280000 -0.830000
v 1.125000 1.454000 -0.575000
v 1.125000 1.654000 -0.575000
v 1.125000 1.454000 -0.625000
v 1.125000 1.654000 -0.625000
v 1.195000 1.454000 -0.575000
v 1.195000 1.654000 -0.575000
v 1.195000 1.454000 -0.625000
v 1.195000 1.654000 -0.625000
v -0.830000 0.550000 0.795000
v -0.830000 0.950000 0.795000
v -0.830000 0.550000 0.745000
v -0.830000 0.950000 0.745000
v -0.570000 0.550000 0.795000
v -0.570000 0.950000 0.795000
v -0.570000 0.550000 0.745000
v -0.570000 0.950000 0.745000
v -0.790000 0.580000 0.810000
v -0.790000 0.920000 0.810000
v -0.790000 0.580000 0.770000
v -0.790000 0.920000 0.770000
v -0.610000 0.580000 0.810000
v -0.610000 0.920000 0.810000
v -0.610000 0.580000 0.770000
v -0.610000 0.920000 0.770000
v -0.700000 0.902000 0.664000
v -0.574000 0.902000 0.790000
v -0.700000 0.902000 0.916000
v -0.826000 0.902000 0.790000
v -0.700000 1.064000 0.790000
v -0.480000 0.550000 0.795000
v -0.480000 0.950000 0.795000
v -0.480000 0.550000 0.745000
v -0.480000 0.950000 0.745000
v -0.220000 0.550000 0.795000
v -0.220000 0.950000 0.795000
v -0.220000 0.550000 0.745000
v -0.220000 0.950000 0.745000
v -0.440000 0.580000 0.810000
v -0.440000 0.920000 0.810000
v -0.440000 0.580000 0.770000
v -0.440000 0.920000 0.770000
v -0.260000 0.580000 0.810000
v -0.260000 0.920000 0.810000
v -0.260000 0.580000 0.770000
v -0.260000 0.920000 0.770000
v -0.350000 0.902000 0.664000
v -0.224000 0.902000 0.790000
v -0.350000 0.902000 0.916000
v -0.476000 0.902000 0.790000
v -0.350000 1.064000 0.790000
v 0.220000 0.550000 0.795000
v 0.220000 0.950000 0.795000
v 0.220000 0.550000 0.745000
v 0.220000 0.950000 0.745000
v 0.480000 0.550000 0.795000
v 0.480000 0.950000 0.795000
v 0.480000 0.550000 0.745000
v 0.480000 0.950000 0.745000
v 0.260000 0.580000 0.810000
v 0.260000 0.920000 0.810000
v 0.260000 0.580000 0.770000
v 0.260000 0.920000 0.770000
v 0.440000 0.580000 0.810000
v 0.440000 0.920000 0.810000
v 0.440000 0.580000 0.770000
v 0.440000 0.920000 0.770000
v 0.350000 0.902000 0.664000
v 0.476000 0.902000 0.790000
v 0.350000 0.902000 0.916000
v 0.224000 0.902000 0.790000
v 0.350000 1.064000 0.790000
v 0.570000 0.550000 0.795000
v 0.570000 0.950000 0.795000
v 0.570000 0.550000 0.745000
v 0.570000 0.950000 0.745000
v 0.830000 0.550000 0.795000
v 0.830000 0.950000 0.795000
v 0.830000 0.550000 0.745000
v 0.830000 0.950000 0.745000
v 0.610000 0.580000 0.810000
v 0.610000 0.920000 0.810000
v 0.610000 0.580000 0.770000
v 0.610000 0.920000 0.770000
v 0.790000 0.580000 0.810000
v 0.790000 0.920000 0.810000
v 0.790000 0.580000 0.770000
v 0.790000 0.920000 0.770000
v 0.700000 0.902000 0.664000
v 0.826000 0.902000 0.790000
v 0.700000 0.902000 0.916000
v 0.574000 0.902000 0.790000
v 0.700000 1.064000 0.790000
v -0.830000 1.150000 0.795000
v -0.830000 1.550000 0.795000
v -0.830000 1.150000 0.745000
v -0.830000 1.550000 0.745000
v -0.570000 1.150000 0.795000
v -0.570000 1.550000 0.795000
v -0.570000 1.150000 0.745000
v -0.570000 1.550000 0.745000
v -0.790000 1.180000 0.810000
v -0.790000 1.520000 0.810000
v -0.790000 1.180000 0.770000
v -0.790000 1.520000 0.770000
v -0.610000 1.180000 0.810000
v -0.610000 1.520000 0.810000
v -0.610000 1.180000 0.770000
v -0.610000 1.520000 0.770000
v -0.700000 1.502000 0.664000
v -0.574000 1.502000 0.790000
v -0.700000 1.502000 0.916000
v -0.826000 1.502000 0.790000
v -0.700000 1.664000 0.790000
v -0.480000 1.150000 0.795000
v -0.480000 1.550000 0.795000
v -0.480000 1.150000 0.745000
v -0.480000 1.550000 0.745000
v -0.220000 1.150000 0.795000
v -0.220000 1.550000 0.795000
v -0.220000 1.150000 0.745000
v -0.220000 1.550000 0.745000
v -0.440000 1.180000 0.810000
v -0.440000 1.520000 0.810000
v -0.440000 1.180000 0.770000
v -0.440000 1.520000 0.770000
v -0.260000 1.180000 0.810000
v -0.260000 1.520000 0.810000
v -0.260000 1.180000 0.770000
v -0.260000 1.520000 0.770000
v -0.350000 1.502000 0.664000
v -0.224000 1.502000 0.790000
v -0.350000 1.502000 0.916000
v -0.476000 1.502000 0.790000
v -0.350000 1.664000 0.790000
v 0.220000 1.150000 0.795000
v 0.220000 1.550000 0.795000
v 0.220000 1.150000 0.745000
v 0.220000 1.550000 0.745000
v 0.480000 1.150000 0.795000
v 0.480000 1.550000 0.795000
v 0.480000 1.150000 0.745000
v 0.480000 1.550000 0.745000
v 0.260000 1.180000 0.810000
v 0.260000 1.520000 0.810000
v 0.260000 1.180000 0.770000
v 0.260000 1.520000 0.770000
v 0.440000 1.180000 0.810000
v 0.440000 1.520000 0.810000
v 0.440000 1.180000 0.770000
v 0.440000 1.520000 0.770000
v 0.350000 1.502000 0.664000
v 0.476000 1.502000 0.790000
v 0.350000 1.502000 0.916000
v 0.224000 1.502000 0.790000
v 0.350000 1.664000 0.790000
v 0.570000 1.150000 0.795000
v 0.570000 1.550000 0.795000
v 0.570000 1.150000 0.745000
v 0.570000 1.550000 0.745000
v 0.830000 1.150000 0.795000
v 0.830000 1.550000 0.795000
v 0.830000 1.150000 0.745000
v 0.830000 1.550000 0.745000
v 0.610000 1.180000 0.810000
v 0.610000 1.520000 0.810000
v 0.610000 1.180000 0.770000
v 0.610000 1.520000 0.770000
v 0.790000 1.180000 0.810000
v 0.790000 1.520000 0.810000
v 0.790000 1.180000 0.770000
v 0.790000 1.520000 0.770000
v 0.700000 1.502000 0.664000
v 0.826000 1.502000 0.790000
v 0.700000 1.502000 0.916000
v 0.574000 1.502000 0.790000
v 0.700000 1.664000 0.790000
v -1.145000 0.570000 0.520000
v -1.145000 0.930000 0.520000
v -1.145000 0.570000 0.280000
v -1.145000 0.930000 0.280000
v -1.095000 0.570000 0.520000
v -1.095000 0.930000 0.520000
v -1.095000 0.570000 0.280000
v -1.095000 0.930000 0.280000
v -1.155000 0.600000 0.480000
v -1.155000 0.900000 0.480000
v -1.155000 0.600000 0.320000
v -1.155000 0.900000 0.320000
v -1.115000 0.600000 0.480000
v -1.115000 0.900000 0.480000
v -1.115000 0.600000 0.320000
v -1.115000 0.900000 0.320000
v -1.135000 0.884000 0.288000
v -1.023000 0.884000 0.400000
v -1.135000 0.884000 0.512000
v -1.247000 0.884000 0.400000
v -1.135000 1.028000 0.400000
v -1.145000 1.170000 0.520000
v -1.145000 1.530000 0.520000
v -1.145000 1.170000 0.280000
v -1.145000 1.530000 0.280000
v -1.095000 1.170000 0.520000
v -1.095000 1.530000 0.520000
v -1.095000 1.170000 0.280000
v -1.095000 1.530000 0.280000
v -1.155000 1.200000 0.480000
v -1.155000 1.500000 0.480000
v -1.155000 1.200000 0.320000
v -1.155000 1.500000 0.320000
v -1.115000 1.200000 0.480000
v -1.115000 1.500000 0.480000
v -1.115000 1.200000 0.320000
v -1.115000 1.500000 0.320000
v -1.135000 1.484000 0.288000
v -1.023000 1.484000 0.400000
v -1.135000 1.484000 0.512000
v -1.247000 1.484000 0.400000
v -1.135000 1.628000 0.400000
v -1.145000 0.570000 -0.280000
v -1.145000 0.930000 -0.280000
v -1.145000 0.570000 -0.520000
v -1.145000 0.930000 -0.520000
v -1.095000 0.570000 -0.280000
v -1.095000 0.930000 -0.280000
v -1.095000 0.570000 -0.520000
v -1.095000 0.930000 -0.520000
v -1.155000 0.600000 -0.320000
v -1.155000 0.900000 -0.320000
v -1.155000 0.600000 -0.480000
v -1.155000 0.900000 -0.480000
v -1.115000 0.600000 -0.320000
v -1.115000 0.900000 -0.320000
v -1.115000 0.600000 -0.480000
v -1.115000 0.900000 -0.480000
v -1.135000 0.884000 -0.512000
v -1.023000 0.884000 -0.400000
v -1.135000 0.884000 -0.288000
v -1.247000 0.884000 -0.400000
v -1.135000 1.028000 -0.400000
v -1.145000 1.170000 -0.280000
v -1.145000 1.530000 -0.280000
v -1.145000 1.170000 -0.520000
v -1.145000 1.530000 -0.520000
v -1.095000 1.170000 -0.280000
v -1.095000 1.530000 -0.280000
v -1.095000 1.170000 -0.520000
v -1.095000 1.530000 -0.520000
v -1.155000 1.200000 -0.320000
v -1.155000 1.500000 -0.320000
v -1.155000 1.200000 -0.480000
v -1.155000 1.500000 -0.480000
v -1.115000 1.200000 -0.320000
v -1.115000 1.500000 -0.320000
v -1.115000 1.200000 -0.480000
v -1.115000 1.500000 -0.480000
v -1.135000 1.484000 -0.512000
v -1.023000 1.484000 -0.400000
v -1.135000 1.484000 -0.288000
v -1.247000 1.484000 -0.400000
v -1.135000 1.628000 -0.400000
v 1.095000 0.570000 0.520000
v 1.095000 0.930000 0.520000
v 1.095000 0.570000 0.280000
v 1.095000 0.930000 0.280000
v 1.145000 0.570000 0.520000
v 1.145000 0.930000 0.520000
v 1.145000 0.570000 0.280000
v 1.145000 0.930000 0.280000
v 1.115000 0.600000 0.480000
v 1.115000 0.900000 0.480000
v 1.115000 0.600000 0.320000
v 1.115000 0.900000 0.320000
v 1.155000 0.600000 0.480000
v 1.155000 0.900000 0.480000
v 1.155000 0.600000 0.320000
v 1.155000 0.900000 0.320000
v 1.135000 0.884000 0.288000
v 1.247000 0.884000 0.400000
v 1.135000 0.884000 0.512000
v 1.023000 0.884000 0.400000
v 1.135000 1.028000 0.400000
v 1.095000 1.170000 0.520000
v 1.095000 1.530000 0.520000
v 1.095000 1.170000 0.280000
v 1.095000 1.530000 0.280000
v 1.145000 1.170000 0.520000
v 1.145000 1.530000 0.520000
v 1.145000 1.170000 0.280000
v 1.145000 1.530000 0.280000
v 1.115000 1.200000 0.480000
v 1.115000 1.500000 0.480000
v 1.115000 1.200000 0.320000
v 1.115000 1.500000 0.320000
v 1.155000 1.200000 0.480000
v 1.155000 1.500000 0.480000
v 1.155000 1.200000 0.320000
v 1.155000 1.500000 0.320000
v 1.135000 1.484000 0.288000
v 1.247000 1.484000 0.400000
v 1.135000 1.484000 0.512000
v 1.023000 1.484000 0.400000
v 1.135000 1.628000 0.400000
v 1.095000 0.570000 -0.280000
v 1.095000 0.930000 -0.280000
v 1.095000 0.570000 -0.520000
v 1.095000 0.930000 -0.520000
v 1.145000 0.570000 -0.280000
v 1.145000 0.930000 -0.280000
v 1.145000 0.570000 -0.520000
v 1.145000 0.930000 -0.520000
v 1.115000 0.600000 -0.320000
v 1.115000 0.900000 -0.320000
v 1.115000 0.600000 -0.480000
v 1.115000 0.900000 -0.480000
v 1.155000 0.600000 -0.320000
v 1.155000 0.900000 -0.320000
v 1.155000 0.600000 -0.480000
v 1.155000 0.900000 -0.480000
v 1.135000 0.884000 -0.512000
v 1.247000 0.884000 -0.400000
v 1.135000 0.884000 -0.288000
v 1.023000 0.884000 -0.400000
v 1.135000 1.028000 -0.400000
v 1.095000 1.170000 -0.280000
v 1.095000 1.530000 -0.280000
v 1.095000 1.170000 -0.520000
v 1.095000 1.530000 -0.520000
v 1.145000 1.170000 -0.280000
v 1.145000 1.530000 -0.280000
v 1.145000 1.170000 -0.520000
v 1.145000 1.530000 -0.520000
v 1.115000 1.200000 -0.320000
v 1.115000 1.500000 -0.320000
v 1.115000 1.200000 -0.480000
v 1.115000 1.500000 -0.480000
v 1.155000 1.200000 -0.320000
v 1.155000 1.500000 -0.320000
v 1.155000 1.200000 -0.480000
v 1.155000 1.500000 -0.480000
v 1.135000 1.484000 -0.512000
v 1.247000 1.484000 -0.400000
v 1.135000 1.484000 -0.288000
v 1.023000 1.484000 -0.400000
v 1.135000 1.628000 -0.400000
v -0.590000 2.120000 0.910000
v -0.590000 2.240000 0.910000
v -0.590000 2.120000 0.730000
v -0.590000 2.240000 0.730000
v -0.410000 2.120000 0.910000
v -0.410000 2.240000 0.910000
v -0.410000 2.120000 0.730000
v -0.410000 2.240000 0.730000
v -0.565000 2.200000 0.855000
v -0.565000 2.359999 0.855000
v -0.435000 2.200000 0.855000
v -0.435000 2.359999 0.855000
v -0.565000 2.200000 0.985000
v -0.565000 2.359999 0.985000
v -0.435000 2.200000 0.985000
v -0.435000 2.359999 0.985000
v -0.550000 2.290000 0.990000
v -0.550000 2.390000 0.990000
v -0.450000 2.290000 0.990000
v -0.450000 2.390000 0.990000
v -0.550000 2.290000 1.090000
v -0.550000 2.390000 1.090000
v -0.450000 2.290000 1.090000
v -0.450000 2.390000 1.090000
v -0.530000 2.285000 1.080000
v -0.530000 2.335000 1.080000
v -0.470000 2.285000 1.080000
v -0.470000 2.335000 1.080000
v -0.530000 2.285000 1.200000
v -0.530000 2.335000 1.200000
v -0.470000 2.285000 1.200000
v -0.470000 2.335000 1.200000
v -0.550000 2.385000 1.010000
v -0.520000 2.385000 1.040000
v -0.550000 2.385000 1.070000
v -0.580000 2.385000 1.040000
v -0.550000 2.475000 1.040000
v -0.645000 2.220000 0.790000
v -0.645000 2.420000 0.790000
v -0.555000 2.220000 0.790000
v -0.555000 2.420000 0.790000
v -0.645000 2.220000 0.810000
v -0.645000 2.420000 0.810000
v -0.555000 2.220000 0.810000
v -0.555000 2.420000 0.810000
v -0.585000 2.100000 1.035000
v -0.585000 2.220000 1.035000
v -0.535000 2.100000 1.035000
v -0.535000 2.220000 1.035000
v -0.585000 2.100000 1.085000
v -0.585000 2.220000 1.085000
v -0.535000 2.100000 1.085000
v -0.535000 2.220000 1.085000
v -0.450000 2.385000 1.010000
v -0.420000 2.385000 1.040000
v -0.450000 2.385000 1.070000
v -0.480000 2.385000 1.040000
v -0.450000 2.475000 1.040000
v -0.445000 2.220000 0.790000
v -0.445000 2.420000 0.790000
v -0.355000 2.220000 0.790000
v -0.355000 2.420000 0.790000
v -0.445000 2.220000 0.810000
v -0.445000 2.420000 0.810000
v -0.355000 2.220000 0.810000
v -0.355000 2.420000 0.810000
v -0.465000 2.100000 1.035000
v -0.465000 2.220000 1.035000
v -0.415000 2.100000 1.035000
v -0.415000 2.220000 1.035000
v -0.465000 2.100000 1.085000
v -0.465000 2.220000 1.085000
v -0.415000 2.100000 1.085000
v -0.415000 2.220000 1.085000
v 0.410000 2.120000 0.910000
v 0.410000 2.240000 0.910000
v 0.410000 2.120000 0.730000
v 0.410000 2.240000 0.730000
v 0.590000 2.120000 0.910000
v 0.590000 2.240000 0.910000
v 0.590000 2.120000 0.730000
v 0.590000 2.240000 0.730000
v 0.435000 2.200000 0.855000
v 0.435000 2.359999 0.855000
v 0.565000 2.200000 0.855000
v 0.565000 2.359999 0.855000
v 0.435000 2.200000 0.985000
v 0.435000 2.359999 0.985000
v 0.565000 2.200000 0.985000
v 0.565000 2.359999 0.985000
v 0.450000 2.290000 0.990000
v 0.450000 2.390000 0.990000
v 0.550000 2.290000 0.990000
v 0.550000 2.390000 0.990000
v 0.450000 2.290000 1.090000
v 0.450000 2.390000 1.090000
v 0.550000 2.290000 1.090000
v 0.550000 2.390000 1.090000
v 0.470000 2.285000 1.080000
v 0.470000 2.335000 1.080000
v 0.530000 2.285000 1.080000
v 0.530000 2.335000 1.080000
v 0.470000 2.285000 1.200000
v 0.470000 2.335000 1.200000
v 0.530000 2.285000 1.200000
v 0.530000 2.335000 1.200000
v 0.450000 2.385000 1.010000
v 0.480000 2.385000 1.040000
v 0.450000 2.385000 1.070000
v 0.420000 2.385000 1.040000
v 0.450000 2.475000 1.040000
v 0.355000 2.220000 0.790000
v 0.355000 2.420000 0.790000
v 0.445000 2.220000 0.790000
v 0.445000 2.420000 0.790000
v 0.355000 2.220000 0.810000
v 0.355000 2.420000 0.810000
v 0.445000 2.220000 0.810000
v 0.445000 2.420000 0.810000
v 0.415000 2.100000 1.035000
v 0.415000 2.220000 1.035000
v 0.465000 2.100000 1.035000
v 0.465000 2.220000 1.035000
v 0.415000 2.100000 1.085000
v 0.415000 2.220000 1.085000
v 0.465000 2.100000 1.085000
v 0.465000 2.220000 1.085000
v 0.550000 2.385000 1.010000
v 0.580000 2.385000 1.040000
v 0.550000 2.385000 1.070000
v 0.520000 2.385000 1.040000
v 0.550000 2.475000 1.040000
v 0.555000 2.220000 0.790000
v 0.555000 2.420000 0.790000
v 0.645000 2.220000 0.790000
v 0.645000 2.420000 0.790000
v 0.555000 2.220000 0.810000
v 0.555000 2.420000 0.810000
v 0.645000 2.220000 0.810000
v 0.645000 2.420000 0.810000
v 0.535000 2.100000 1.035000
v 0.535000 2.220000 1.035000
v 0.585000 2.100000 1.035000
v 0.585000 2.220000 1.035000
v 0.535000 2.100000 1.085000
v 0.535000 2.220000 1.085000
v 0.585000 2.100000 1.085000
v 0.585000 2.220000 1.085000
v 1.030000 2.120000 0.090000
v 1.030000 2.240000 0.090000
v 1.030000 2.120000 -0.090000
v 1.030000 2.240000 -0.090000
v 1.210000 2.120000 0.090000
v 1.210000 2.240000 0.090000
v 1.210000 2.120000 -0.090000
v 1.210000 2.240000 -0.090000
v 1.155000 2.200000 0.065000
v 1.155000 2.359999 0.065000
v 1.155000 2.200000 -0.065000
v 1.155000 2.359999 -0.065000
v 1.285000 2.200000 0.065000
v 1.285000 2.359999 0.065000
v 1.285000 2.200000 -0.065000
v 1.285000 2.359999 -0.065000
v 1.290000 2.290000 0.050000
v 1.290000 2.390000 0.050000
v 1.290000 2.290000 -0.050000
v 1.290000 2.390000 -0.050000
v 1.390000 2.290000 0.050000
v 1.390000 2.390000 0.050000
v 1.390000 2.290000 -0.050000
v 1.390000 2.390000 -0.050000
v 1.380000 2.285000 0.030000
v 1.380000 2.335000 0.030000
v 1.380000 2.285000 -0.030000
v 1.380000 2.335000 -0.030000
v 1.500000 2.285000 0.030000
v 1.500000 2.335000 0.030000
v 1.500000 2.285000 -0.030000
v 1.500000 2.335000 -0.030000
v 1.340000 2.385000 0.020000
v 1.370000 2.385000 0.050000
v 1.340000 2.385000 0.080000
v 1.310000 2.385000 0.050000
v 1.340000 2.475000 0.050000
v 1.090000 2.220000 0.145000
v 1.090000 2.420000 0.145000
v 1.090000 2.220000 0.055000
v 1.090000 2.420000 0.055000
v 1.110000 2.220000 0.145000
v 1.110000 2.420000 0.145000
v 1.110000 2.220000 0.055000
v 1.110000 2.420000 0.055000
v 1.335000 2.100000 0.085000
v 1.335000 2.220000 0.085000
v 1.335000 2.100000 0.035000
v 1.335000 2.220000 0.035000
v 1.385000 2.100000 0.085000
v 1.385000 2.220000 0.085000
v 1.385000 2.100000 0.035000
v 1.385000 2.220000 0.035000
v 1.340000 2.385000 -0.080000
v 1.370000 2.385000 -0.050000
v 1.340000 2.385000 -0.020000
v 1.310000 2.385000 -0.050000
v 1.340000 2.475000 -0.050000
v 1.090000 2.220000 -0.055000
v 1.090000 2.420000 -0.055000
v 1.090000 2.220000 -0.145000
v 1.090000 2.420000 -0.145000
v 1.110000 2.220000 -0.055000
v 1.110000 2.420000 -0.055000
v 1.110000 2.220000 -0.145000
v 1.110000 2.420000 -0.145000
v 1.335000 2.100000 -0.035000
v 1.335000 2.220000 -0.035000
v 1.335000 2.100000 -0.085000
v 1.335000 2.220000 -0.085000
v 1.385000 2.100000 -0.035000
v 1.385000 2.220000 -0.035000
v 1.385000 2.100000 -0.085000
v 1.385000 2.220000 -0.085000
v -1.210000 2.120000 0.090000
v -1.210000 2.240000 0.090000
v -1.210000 2.120000 -0.090000
v -1.210000 2.240000 -0.090000
v -1.030000 2.120000 0.090000
v -1.030000 2.240000 0.090000
v -1.030000 2.120000 -0.090000
v -1.030000 2.240000 -0.090000
v -1.155000 2.200000 -0.065000
v -1.155000 2.359999 -0.065000
v -1.155000 2.200000 0.065000
v -1.155000 2.359999 0.065000
v -1.285000 2.200000 -0.065000
v -1.285000 2.359999 -0.065000
v -1.285000 2.200000 0.065000
v -1.285000 2.359999 0.065000
v -1.290000 2.290000 -0.050000
v -1.290000 2.390000 -0.050000
v -1.290000 2.290000 0.050000
v -1.290000 2.390000 0.050000
v -1.390000 2.290000 -0.050000
v -1.390000 2.390000 -0.050000
v -1.390000 2.290000 0.050000
v -1.390000 2.390000 0.050000
v -1.380000 2.285000 -0.030000
v -1.380000 2.335000 -0.030000
v -1.380000 2.285000 0.030000
v -1.380000 2.335000 0.030000
v -1.500000 2.285000 -0.030000
v -1.500000 2.335000 -0.030000
v -1.500000 2.285000 0.030000
v -1.500000 2.335000 0.030000
v -1.340000 2.385000 -0.080000
v -1.310000 2.385000 -0.050000
v -1.340000 2.385000 -0.020000
v -1.370000 2.385000 -0.050000
v -1.340000 2.475000 -0.050000
v -1.090000 2.220000 -0.145000
v -1.090000 2.420000 -0.145000
v -1.090000 2.220000 -0.055000
v -1.090000 2.420000 -0.055000
v -1.110000 2.220000 -0.145000
v -1.110000 2.420000 -0.145000
v -1.110000 2.220000 -0.055000
v -1.110000 2.420000 -0.055000
v -1.335000 2.100000 -0.085000
v -1.335000 2.220000 -0.085000
v -1.335000 2.100000 -0.035000
v -1.335000 2.220000 -0.035000
v -1.385000 2.100000 -0.085000
v -1.385000 2.220000 -0.085000
v -1.385000 2.100000 -0.035000
v -1.385000 2.220000 -0.035000
v -1.340000 2.385000 0.020000
v -1.310000 2.385000 0.050000
v -1.340000 2.385000 0.080000
v -1.370000 2.385000 0.050000
v -1.340000 2.475000 0.050000
v -1.090000 2.220000 0.055000
v -1.090000 2.420000 0.055000
v -1.090000 2.220000 0.145000
v -1.090000 2.420000 0.145000
v -1.110000 2.220000 0.055000
v -1.110000 2.420000 0.055000
v -1.110000 2.220000 0.145000
v -1.110000 2.420000 0.145000
v -1.335000 2.100000 0.035000
v -1.335000 2.220000 0.035000
v -1.335000 2.100000 0.085000
v -1.335000 2.220000 0.085000
v -1.385000 2.100000 0.035000
v -1.385000 2.220000 0.035000
v -1.385000 2.100000 0.085000
v -1.385000 2.220000 0.085000
v -0.250000 0.210000 0.810000
v -0.250000 1.110000 0.810000
v -0.250000 0.210000 0.750000
v -0.250000 1.110000 0.750000
v 0.250000 0.210000 0.810000
v 0.250000 1.110000 0.810000
v 0.250000 0.210000 0.750000
v 0.250000 1.110000 0.750000
v -0.170000 0.210000 0.840000
v -0.170000 0.910000 0.840000
v -0.170000 0.210000 0.780000
v -0.170000 0.910000 0.780000
v 0.170000 0.210000 0.840000
v 0.170000 0.910000 0.840000
v 0.170000 0.210000 0.780000
v 0.170000 0.910000 0.780000
v 0.000000 0.950000 0.530000
v 0.280000 0.950000 0.810000
v 0.000000 0.950000 1.090000
v -0.280000 0.950000 0.810000
v 0.000000 1.290000 0.810000
v -1.050000 0.280000 0.750000
v -0.963168 0.346334 0.813086
v -1.083166 0.346334 0.852077
v -1.157331 0.346334 0.750000
v -1.083166 0.346334 0.647923
v -0.963168 0.346334 0.686914
v -1.016834 0.453666 0.852077
v -1.136832 0.453666 0.813086
v -1.136832 0.453666 0.686914
v -1.016834 0.453666 0.647923
v -0.942669 0.453666 0.750000
v -1.050000 0.520000 0.750000
v -1.050000 0.580000 0.750000
v -0.963168 0.646334 0.813086
v -1.083166 0.646334 0.852077
v -1.157331 0.646334 0.750000
v -1.083166 0.646334 0.647923
v -0.963168 0.646334 0.686914
v -1.016834 0.753666 0.852077
v -1.136832 0.753666 0.813086
v -1.136832 0.753666 0.686914
v -1.016834 0.753666 0.647923
v -0.942669 0.753666 0.750000
v -1.050000 0.820000 0.750000
v -1.050000 0.880000 0.750000
v -0.963168 0.946334 0.813086
v -1.083166 0.946334 0.852077
v -1.157331 0.946334 0.750000
v -1.083166 0.946334 0.647923
v -0.963168 0.946334 0.686914
v -1.016834 1.053666 0.852077
v -1.136832 1.053666 0.813086
v -1.136832 1.053666 0.686914
v -1.016834 1.053666 0.647923
v -0.942669 1.053666 0.750000
v -1.050000 1.120000 0.750000
v 1.050000 0.280000 0.750000
v 1.136832 0.346334 0.813086
v 1.016834 0.346334 0.852077
v 0.942669 0.346334 0.750000
v 1.016834 0.346334 0.647923
v 1.136832 0.346334 0.686914
v 1.083166 0.453666 0.852077
v 0.963168 0.453666 0.813086
v 0.963168 0.453666 0.686914
v 1.083166 0.453666 0.647923
v 1.157331 0.453666 0.750000
v 1.050000 0.520000 0.750000
v 1.050000 0.580000 0.750000
v 1.136832 0.646334 0.813086
v 1.016834 0.646334 0.852077
v 0.942669 0.646334 0.750000
v 1.016834 0.646334 0.647923
v 1.136832 0.646334 0.686914
v 1.083166 0.753666 0.852077
v 0.963168 0.753666 0.813086
v 0.963168 0.753666 0.686914
v 1.083166 0.753666 0.647923
v 1.157331 0.753666 0.750000
v 1.050000 0.820000 0.750000
v 1.050000 0.880000 0.750000
v 1.136832 0.946334 0.813086
v 1.016834 0.946334 0.852077
v 0.942669 0.946334 0.750000
v 1.016834 0.946334 0.647923
v 1.136832 0.946334 0.686914
v 1.083166 1.053666 0.852077
v 0.963168 1.053666 0.813086
v 0.963168 1.053666 0.686914
v 1.083166 1.053666 0.647923
v 1.157331 1.053666 0.750000
v 1.050000 1.120000 0.750000
vn -1.0000 -0.0000 -0.0000
vn -0.0000 -0.0000 -1.0000
vn 1.0000 -0.0000 -0.0000
vn -0.0000 -0.0000 1.0000
vn -0.0000 -1.0000 -0.0000
vn -0.0000 1.0000 -0.0000
vn 0.2588 -0.0000 -0.9659
vn 0.7071 -0.0000 -0.7071
vn 0.9659 -0.0000 -0.2588
vn 0.9659 -0.0000 0.2588
vn 0.7071 -0.0000 0.7071
vn 0.2588 -0.0000 0.9659
vn -0.2588 -0.0000 0.9659
vn -0.7071 -0.0000 0.7071
vn -0.9659 -0.0000 0.2588
vn -0.9659 -0.0000 -0.2588
vn -0.7071 -0.0000 -0.7071
vn -0.2588 -0.0000 -0.9659
vn 0.3827 -0.0000 -0.9239
vn 0.9239 -0.0000 -0.3827
vn 0.9239 -0.0000 0.3827
vn 0.3827 -0.0000 0.9239
vn -0.3827 -0.0000 0.9239
vn -0.9239 -0.0000 0.3827
vn -0.9239 -0.0000 -0.3827
vn -0.3827 -0.0000 -0.9239
vn 0.3314 0.5000 -0.8001
vn 0.8001 0.5000 -0.3314
vn 0.8001 0.5000 0.3314
vn 0.3314 0.5000 0.8001
vn -0.3314 0.5000 0.8001
vn -0.8001 0.5000 0.3314
vn -0.8001 0.5000 -0.3314
vn -0.3314 0.5000 -0.8001
vn 0.5000 -0.0000 -0.8660
vn 0.5000 -0.0000 0.8660
vn -0.5000 -0.0000 0.8660
vn -0.5000 -0.0000 -0.8660
vn 0.3590 0.3466 -0.8666
vn 0.8666 0.3466 -0.3590
vn 0.8666 0.3466 0.3590
vn 0.3590 0.3466 0.8666
vn -0.3590 0.3466 0.8666
vn -0.8666 0.3466 0.3590
vn -0.8666 0.3466 -0.3590
vn -0.3590 0.3466 -0.8666
vn 0.6196 0.4819 -0.6196
vn 0.6196 0.4819 0.6196
vn -0.6196 0.4819 0.6196
vn -0.6196 0.4819 -0.6196
vn 0.6882 0.2294 -0.6882
vn 0.6882 0.2294 0.6882
vn -0.6882 0.2294 0.6882
vn -0.6882 0.2294 -0.6882
vn 0.6111 0.5032 -0.6111
vn 0.6111 0.5032 0.6111
vn -0.6111 0.5032 0.6111
vn -0.6111 0.5032 -0.6111
vn 0.1876 -0.7947 0.5774
vn 0.6071 -0.7947 -0.0000
vn -0.4911 -0.7947 0.3568
vn -0.4911 -0.7947 -0.3568
vn 0.1876 -0.7947 -0.5774
vn 0.9822 -0.1876 -0.0000
vn 0.3035 -0.1876 0.9342
vn -0.7946 -0.1876 0.5774
vn -0.7946 -0.1876 -0.5774
vn 0.3035 -0.1876 -0.9342
vn 0.7946 0.1876 0.5774
vn -0.3035 0.1876 0.9342
vn -0.9822 0.1876 -0.0000
vn -0.3035 0.1876 -0.9342
vn 0.7946 0.1876 -0.5774
vn 0.4911 0.7947 0.3568
vn -0.1876 0.7947 0.5774
vn -0.6071 0.7947 -0.0000
vn -0.1876 0.7947 -0.5774
vn 0.4911 0.7947 -0.3568
vt 0.126953 0.001953
vt 0.126953 0.164062
vt 0.248047 0.164062
vt 0.248047 0.001953
vt 0.001953 0.001953
vt 0.001953 0.164062
vt 0.123047 0.164062
vt 0.123047 0.001953
vt 0.092773 0.153203
vt 0.062500 0.164062
vt 0.032227 0.153203
vt 0.010065 0.123535
vt 0.001953 0.083008
vt 0.010065 0.042480
vt 0.032227 0.012812
vt 0.062500 0.001953
vt 0.092773 0.012812
vt 0.114935 0.042480
vt 0.123047 0.083008
vt 0.114935 0.123535
vt 0.001953 0.832031
vt 0.001953 0.994141
vt 0.123047 0.994141
vt 0.123047 0.832031
vt 0.217773 0.153203
vt 0.187500 0.164062
vt 0.157227 0.153203
vt 0.135065 0.123535
vt 0.126953 0.083008
vt 0.135065 0.042480
vt 0.157227 0.012812
vt 0.187500 0.001953
vt 0.217773 0.012812
vt 0.239935 0.042480
vt 0.248047 0.083008
vt 0.239935 0.123535
vt 0.376953 0.167969
vt 0.376953 0.330078
vt 0.498047 0.330078
vt 0.498047 0.167969
vt 0.467773 0.319219
vt 0.437500 0.330078
vt 0.407227 0.319219
vt 0.385065 0.289551
vt 0.376953 0.249023
vt 0.385065 0.208496
vt 0.407227 0.178828
vt 0.437500 0.167969
vt 0.467773 0.178828
vt 0.489935 0.208496
vt 0.498047 0.249023
vt 0.489935 0.289551
vt 0.105313 0.140322
vt 0.019687 0.140322
vt 0.019687 0.025693
vt 0.105313 0.025693
vt 0.480313 0.306338
vt 0.480313 0.191709
vt 0.394687 0.191709
vt 0.394687 0.306338
vt 0.751953 0.167969
vt 0.751953 0.330078
vt 0.873047 0.330078
vt 0.873047 0.167969
vt 0.873047 0.289551
vt 0.812500 0.330078
vt 0.751953 0.289551
vt 0.751953 0.208496
vt 0.812500 0.167969
vt 0.873047 0.208496
vt 0.019687 0.025693
vt 0.105313 0.025693
vt 0.230313 0.140322
vt 0.144687 0.140322
vt 0.144687 0.025693
vt 0.230313 0.025693
vt 0.062500 0.994141
vt 0.123047 0.913086
vt 0.062500 0.832031
vt 0.001953 0.913086
vt 0.501953 0.500000
vt 0.501953 0.662109
vt 0.623047 0.662109
vt 0.623047 0.500000
vt 0.535422 0.496094
vt 0.623047 0.395905
vt 0.501953 0.333984
vt 0.623047 0.333984
vt 0.501953 0.415039
vt 0.623047 0.496094
vt 0.585628 0.333984
vt 0.501953 0.496094
vt 0.585628 0.496094
vt 0.535422 0.333984
vt 0.623047 0.434173
vt 0.562500 0.496094
vt 0.568891 0.496094
vt 0.548207 0.496094
vt 0.576793 0.496094
vt 0.548207 0.333984
vt 0.556109 0.333984
vt 0.562500 0.333984
vt 0.576793 0.333984
vt 0.539372 0.333984
vt 0.501953 0.395905
vt 0.589578 0.496094
vt 0.623047 0.415039
vt 0.501953 0.434173
vt 0.589578 0.333984
vt 0.539372 0.496094
s 0
usemtl kit_atlas_mat
f 1/1/1 2/2/1 4/3/1 3/4/1
f 3/1/2 4/2/2 8/3/2 7/4/2
f 7/4/3 8/3/3 6/2/3 5/1/3
f 5/4/4 6/3/4 2/2/4 1/1/4
f 3/2/5 7/3/5 5/4/5 1/1/5
f 8/3/6 4/2/6 2/1/6 6/4/6
f 9/5/1 10/6/1 12/7/1 11/8/1
f 11/5/2 12/6/2 16/7/2 15/8/2
f 15/8/3 16/7/3 14/6/3 13/5/3
f 13/8/4 14/7/4 10/6/4 9/5/4
f 11/6/5 15/7/5 13/8/5 9/5/5
f 16/7/6 12/6/6 10/5/6 14/8/6
f 17/1/1 18/2/1 20/3/1 19/4/1
f 19/1/2 20/2/2 24/3/2 23/4/2
f 23/4/3 24/3/3 22/2/3 21/1/3
f 21/4/4 22/3/4 18/2/4 17/1/4
f 19/2/5 23/3/5 21/4/5 17/1/5
f 24/3/6 20/2/6 18/1/6 22/4/6
f 25/1/1 26/2/1 28/3/1 27/4/1
f 27/1/2 28/2/2 32/3/2 31/4/2
f 31/4/3 32/3/3 30/2/3 29/1/3
f 29/4/4 30/3/4 26/2/4 25/1/4
f 27/2/5 31/3/5 29/4/5 25/1/5
f 32/3/6 28/2/6 26/1/6 30/4/6
f 33/1/1 34/2/1 36/3/1 35/4/1
f 35/1/2 36/2/2 40/3/2 39/4/2
f 39/4/3 40/3/3 38/2/3 37/1/3
f 37/4/4 38/3/4 34/2/4 33/1/4
f 35/2/5 39/3/5 37/4/5 33/1/5
f 40/3/6 36/2/6 34/1/6 38/4/6
f 41/1/1 42/2/1 44/3/1 43/4/1
f 43/1/2 44/2/2 48/3/2 47/4/2
f 47/4/3 48/3/3 46/2/3 45/1/3
f 45/4/4 46/3/4 42/2/4 41/1/4
f 43/2/5 47/3/5 45/4/5 41/1/5
f 48/3/6 44/2/6 42/1/6 46/4/6
f 49/1/1 50/2/1 52/3/1 51/4/1
f 51/1/2 52/2/2 56/3/2 55/4/2
f 55/4/3 56/3/3 54/2/3 53/1/3
f 53/4/4 54/3/4 50/2/4 49/1/4
f 51/2/5 55/3/5 53/4/5 49/1/5
f 56/3/6 52/2/6 50/1/6 54/4/6
f 57/1/1 58/2/1 60/3/1 59/4/1
f 59/1/2 60/2/2 64/3/2 63/4/2
f 63/4/3 64/3/3 62/2/3 61/1/3
f 61/4/4 62/3/4 58/2/4 57/1/4
f 59/2/5 63/3/5 61/4/5 57/1/5
f 64/3/6 60/2/6 58/1/6 62/4/6
f 65/1/1 66/2/1 68/3/1 67/4/1
f 67/1/2 68/2/2 72/3/2 71/4/2
f 71/4/3 72/3/3 70/2/3 69/1/3
f 69/4/4 70/3/4 66/2/4 65/1/4
f 67/2/5 71/3/5 69/4/5 65/1/5
f 72/3/6 68/2/6 66/1/6 70/4/6
f 73/1/1 74/2/1 76/3/1 75/4/1
f 75/1/2 76/2/2 80/3/2 79/4/2
f 79/4/3 80/3/3 78/2/3 77/1/3
f 77/4/4 78/3/4 74/2/4 73/1/4
f 75/2/5 79/3/5 77/4/5 73/1/5
f 80/3/6 76/2/6 74/1/6 78/4/6
f 81/1/1 82/2/1 84/3/1 83/4/1
f 83/1/2 84/2/2 88/3/2 87/4/2
f 87/4/3 88/3/3 86/2/3 85/1/3
f 85/4/4 86/3/4 82/2/4 81/1/4
f 83/2/5 87/3/5 85/4/5 81/1/5
f 88/3/6 84/2/6 82/1/6 86/4/6
f 89/1/1 90/2/1 92/3/1 91/4/1
f 91/1/2 92/2/2 96/3/2 95/4/2
f 95/4/3 96/3/3 94/2/3 93/1/3
f 93/4/4 94/3/4 90/2/4 89/1/4
f 91/2/5 95/3/5 93/4/5 89/1/5
f 96/3/6 92/2/6 90/1/6 94/4/6
f 97/1/1 98/2/1 100/3/1 99/4/1
f 99/1/2 100/2/2 104/3/2 103/4/2
f 103/4/3 104/3/3 102/2/3 101/1/3
f 101/4/4 102/3/4 98/2/4 97/1/4
f 99/2/5 103/3/5 101/4/5 97/1/5
f 104/3/6 100/2/6 98/1/6 102/4/6
f 105/1/1 106/2/1 108/3/1 107/4/1
f 107/1/2 108/2/2 112/3/2 111/4/2
f 111/4/3 112/3/3 110/2/3 109/1/3
f 109/4/4 110/3/4 106/2/4 105/1/4
f 107/2/5 111/3/5 109/4/5 105/1/5
f 112/3/6 108/2/6 106/1/6 110/4/6
f 113/1/1 114/2/1 116/3/1 115/4/1
f 115/1/2 116/2/2 120/3/2 119/4/2
f 119/4/3 120/3/3 118/2/3 117/1/3
f 117/4/4 118/3/4 114/2/4 113/1/4
f 115/2/5 119/3/5 117/4/5 113/1/5
f 120/3/6 116/2/6 114/1/6 118/4/6
f 121/1/1 122/2/1 124/3/1 123/4/1
f 123/1/2 124/2/2 128/3/2 127/4/2
f 127/4/3 128/3/3 126/2/3 125/1/3
f 125/4/4 126/3/4 122/2/4 121/1/4
f 123/2/5 127/3/5 125/4/5 121/1/5
f 128/3/6 124/2/6 122/1/6 126/4/6
f 129/1/1 130/2/1 132/3/1 131/4/1
f 131/1/2 132/2/2 136/3/2 135/4/2
f 135/4/3 136/3/3 134/2/3 133/1/3
f 133/4/4 134/3/4 130/2/4 129/1/4
f 131/2/5 135/3/5 133/4/5 129/1/5
f 136/3/6 132/2/6 130/1/6 134/4/6
f 137/1/1 138/2/1 140/3/1 139/4/1
f 139/1/2 140/2/2 144/3/2 143/4/2
f 143/4/3 144/3/3 142/2/3 141/1/3
f 141/4/4 142/3/4 138/2/4 137/1/4
f 139/2/5 143/3/5 141/4/5 137/1/5
f 144/3/6 140/2/6 138/1/6 142/4/6
f 145/1/1 146/2/1 148/3/1 147/4/1
f 147/1/2 148/2/2 152/3/2 151/4/2
f 151/4/3 152/3/3 150/2/3 149/1/3
f 149/4/4 150/3/4 146/2/4 145/1/4
f 147/2/5 151/3/5 149/4/5 145/1/5
f 152/3/6 148/2/6 146/1/6 150/4/6
f 153/1/1 154/2/1 156/3/1 155/4/1
f 155/1/2 156/2/2 160/3/2 159/4/2
f 159/4/3 160/3/3 158/2/3 157/1/3
f 157/4/4 158/3/4 154/2/4 153/1/4
f 155/2/5 159/3/5 157/4/5 153/1/5
f 160/3/6 156/2/6 154/1/6 158/4/6
f 161/1/1 162/2/1 164/3/1 163/4/1
f 163/1/2 164/2/2 168/3/2 167/4/2
f 167/4/3 168/3/3 166/2/3 165/1/3
f 165/4/4 166/3/4 162/2/4 161/1/4
f 163/2/5 167/3/5 165/4/5 161/1/5
f 168/3/6 164/2/6 162/1/6 166/4/6
f 169/1/1 170/2/1 172/3/1 171/4/1
f 171/1/2 172/2/2 176/3/2 175/4/2
f 175/4/3 176/3/3 174/2/3 173/1/3
f 173/4/4 174/3/4 170/2/4 169/1/4
f 171/2/5 175/3/5 173/4/5 169/1/5
f 176/3/6 172/2/6 170/1/6 174/4/6
f 177/1/1 178/2/1 180/3/1 179/4/1
f 179/1/2 180/2/2 184/3/2 183/4/2
f 183/4/3 184/3/3 182/2/3 181/1/3
f 181/4/4 182/3/4 178/2/4 177/1/4
f 179/2/5 183/3/5 181/4/5 177/1/5
f 184/3/6 180/2/6 178/1/6 182/4/6
f 185/5/7 186/6/7 188/7/7 187/8/7
f 187/8/8 188/7/8 190/6/8 189/5/8
f 189/8/9 190/7/9 192/6/9 191/5/9
f 191/8/10 192/7/10 194/6/10 193/5/10
f 193/8/11 194/7/11 196/6/11 195/5/11
f 195/8/12 196/7/12 198/6/12 197/5/12
f 197/8/13 198/7/13 200/6/13 199/5/13
f 199/5/14 200/6/14 202/7/14 201/8/14
f 201/5/15 202/6/15 204/7/15 203/8/15
f 203/5/16 204/6/16 206/7/16 205/8/16
f 188/9/6 186/10/6 208/11/6 206/12/6 204/13/6 202/14/6 200/15/6 198/16/6 196/17/6 194/18/6 192/19/6 190/20/6
f 205/5/17 206/6/17 208/7/17 207/8/17
f 207/5/18 208/6/18 186/7/18 185/8/18
f 185/10/5 187/9/5 189/20/5 191/19/5 193/18/5 195/17/5 197/16/5 199/15/5 201/14/5 203/13/5 205/12/5 207/11/5
f 209/21/1 210/22/1 212/23/1 211/24/1
f 211/21/2 212/22/2 216/23/2 215/24/2
f 215/24/3 216/23/3 214/22/3 213/21/3
f 213/24/4 214/23/4 210/22/4 209/21/4
f 211/22/5 215/23/5 213/24/5 209/21/5
f 216/23/6 212/22/6 210/21/6 214/24/6
f 217/21/1 218/22/1 220/23/1 219/24/1
f 219/21/2 220/22/2 224/23/2 223/24/2
f 223/24/3 224/23/3 222/22/3 221/21/3
f 221/24/4 222/23/4 218/22/4 217/21/4
f 219/22/5 223/23/5 221/24/5 217/21/5
f 224/23/6 220/22/6 218/21/6 222/24/6
f 225/21/1 226/22/1 228/23/1 227/24/1
f 227/21/2 228/22/2 232/23/2 231/24/2
f 231/24/3 232/23/3 230/22/3 229/21/3
f 229/24/4 230/23/4 226/22/4 225/21/4
f 227/22/5 231/23/5 229/24/5 225/21/5
f 232/23/6 228/22/6 226/21/6 230/24/6
f 233/21/1 234/22/1 236/23/1 235/24/1
f 235/21/2 236/22/2 240/23/2 239/24/2
f 239/24/3 240/23/3 238/22/3 237/21/3
f 237/24/4 238/23/4 234/22/4 233/21/4
f 235/22/5 239/23/5 237/24/5 233/21/5
f 240/23/6 236/22/6 234/21/6 238/24/6
f 241/21/1 242/22/1 244/23/1 243/24/1
f 243/21/2 244/22/2 248/23/2 247/24/2
f 247/24/3 248/23/3 246/22/3 245/21/3
f 245/24/4 246/23/4 242/22/4 241/21/4
f 243/22/5 247/23/5 245/24/5 241/21/5
f 248/23/6 244/22/6 242/21/6 246/24/6
f 249/21/1 250/22/1 252/23/1 251/24/1
f 251/21/2 252/22/2 256/23/2 255/24/2
f 255/24/3 256/23/3 254/22/3 253/21/3
f 253/24/4 254/23/4 250/22/4 249/21/4
f 251/22/5 255/23/5 253/24/5 249/21/5
f 256/23/6 252/22/6 250/21/6 254/24/6
f 257/1/7 258/2/7 260/3/7 259/4/7
f 259/4/8 260/3/8 262/2/8 261/1/8
f 261/4/9 262/3/9 264/2/9 263/1/9
f 263/4/10 264/3/10 266/2/10 265/1/10
f 265/4/11 266/3/11 268/2/11 267/1/11
f 267/4/12 268/3/12 270/2/12 269/1/12
f 269/4/13 270/3/13 272/2/13 271/1/13
f 271/1/14 272/2/14 274/3/14 273/4/14
f 273/1/15 274/2/15 276/3/15 275/4/15
f 275/1/16 276/2/16 278/3/16 277/4/16
f 260/25/6 258/26/6 280/27/6 278/28/6 276/29/6 274/30/6 272/31/6 270/32/6 268/33/6 266/34/6 264/35/6 262/36/6
f 277/1/17 278/2/17 280/3/17 279/4/17
f 279/1/18 280/2/18 258/3/18 257/4/18
f 257/26/5 259/25/5 261/36/5 263/35/5 265/34/5 267/33/5 269/32/5 271/31/5 273/30/5 275/29/5 277/28/5 279/27/5
f 281/37/7 282/38/7 284/39/7 283/40/7
f 283/40/8 284/39/8 286/38/8 285/37/8
f 285/40/9 286/39/9 288/38/9 287/37/9
f 287/40/10 288/39/10 290/38/10 289/37/10
f 289/40/11 290/39/11 292/38/11 291/37/11
f 291/40/12 292/39/12 294/38/12 293/37/12
f 293/40/13 294/39/13 296/38/13 295/37/13
f 295/37/14 296/38/14 298/39/14 297/40/14
f 297/37/15 298/38/15 300/39/15 299/40/15
f 299/37/16 300/38/16 302/39/16 301/40/16
f 284/41/6 282/42/6 304/43/6 302/44/6 300/45/6 298/46/6 296/47/6 294/48/6 292/49/6 290/50/6 288/51/6 286/52/6
f 301/37/17 302/38/17 304/39/17 303/40/17
f 303/37/18 304/38/18 282/39/18 281/40/18
f 281/42/5 283/41/5 285/52/5 287/51/5 289/50/5 291/49/5 293/48/5 295/47/5 297/46/5 299/45/5 301/44/5 303/43/5
f 305/37/7 306/38/7 308/39/7 307/40/7
f 307/40/8 308/39/8 310/38/8 309/37/8
f 309/40/9 310/39/9 312/38/9 311/37/9
f 311/40/10 312/39/10 314/38/10 313/37/10
f 313/40/11 314/39/11 316/38/11 315/37/11
f 315/40/12 316/39/12 318/38/12 317/37/12
f 317/40/13 318/39/13 320/38/13 319/37/13
f 319/37/14 320/38/14 322/39/14 321/40/14
f 321/37/15 322/38/15 324/39/15 323/40/15
f 323/37/16 324/38/16 326/39/16 325/40/16
f 308/41/6 306/42/6 328/43/6 326/44/6 324/45/6 322/46/6 320/47/6 318/48/6 316/49/6 314/50/6 312/51/6 310/52/6
f 325/37/17 326/38/17 328/39/17 327/40/17
f 327/37/18 328/38/18 306/39/18 305/40/18
f 305/42/5 307/41/5 309/52/5 311/51/5 313/50/5 315/49/5 317/48/5 319/47/5 321/46/5 323/45/5 325/44/5 327/43/5
f 329/37/7 330/38/7 332/39/7 331/40/7
f 331/40/8 332/39/8 334/38/8 333/37/8
f 333/40/9 334/39/9 336/38/9 335/37/9
f 335/40/10 336/39/10 338/38/10 337/37/10
f 337/40/11 338/39/11 340/38/11 339/37/11
f 339/40/12 340/39/12 342/38/12 341/37/12
f 341/40/13 342/39/13 344/38/13 343/37/13
f 343/37/14 344/38/14 346/39/14 345/40/14
f 345/37/15 346/38/15 348/39/15 347/40/15
f 347/37/16 348/38/16 350/39/16 349/40/16
f 332/41/6 330/42/6 352/43/6 350/44/6 348/45/6 346/46/6 344/47/6 342/48/6 340/49/6 338/50/6 336/51/6 334/52/6
f 349/37/17 350/38/17 352/39/17 351/40/17
f 351/37/18 352/38/18 330/39/18 329/40/18
f 329/42/5 331/41/5 333/52/5 335/51/5 337/50/5 339/49/5 341/48/5 343/47/5 345/46/5 347/45/5 349/44/5 351/43/5
f 353/37/7 354/38/7 356/39/7 355/40/7
f 355/40/8 356/39/8 358/38/8 357/37/8
f 357/40/9 358/39/9 360/38/9 359/37/9
f 359/40/10 360/39/10 362/38/10 361/37/10
f 361/40/11 362/39/11 364/38/11 363/37/11
f 363/40/12 364/39/12 366/38/12 365/37/12
f 365/40/13 366/39/13 368/38/13 367/37/13
f 367/37/14 368/38/14 370/39/14 369/40/14
f 369/37/15 370/38/15 372/39/15 371/40/15
f 371/37/16 372/38/16 374/39/16 373/40/16
f 356/41/6 354/42/6 376/43/6 374/44/6 372/45/6 370/46/6 368/47/6 366/48/6 364/49/6 362/50/6 360/51/6 358/52/6
f 373/37/17 374/38/17 376/39/17 375/40/17
f 375/37/18 376/38/18 354/39/18 353/40/18
f 353/42/5 355/41/5 357/52/5 359/51/5 361/50/5 363/49/5 365/48/5 367/47/5 369/46/5 371/45/5 373/44/5 375/43/5
f 377/37/7 378/38/7 380/39/7 379/40/7
f 379/40/8 380/39/8 382/38/8 381/37/8
f 381/40/9 382/39/9 384/38/9 383/37/9
f 383/40/10 384/39/10 386/38/10 385/37/10
f 385/40/11 386/39/11 388/38/11 387/37/11
f 387/40/12 388/39/12 390/38/12 389/37/12
f 389/40/13 390/39/13 392/38/13 391/37/13
f 391/37/14 392/38/14 394/39/14 393/40/14
f 393/37/15 394/38/15 396/39/15 395/40/15
f 395/37/16 396/38/16 398/39/16 397/40/16
f 380/41/6 378/42/6 400/43/6 398/44/6 396/45/6 394/46/6 392/47/6 390/48/6 388/49/6 386/50/6 384/51/6 382/52/6
f 397/37/17 398/38/17 400/39/17 399/40/17
f 399/37/18 400/38/18 378/39/18 377/40/18
f 377/42/5 379/41/5 381/52/5 383/51/5 385/50/5 387/49/5 389/48/5 391/47/5 393/46/5 395/45/5 397/44/5 399/43/5
f 401/1/1 402/2/1 404/3/1 403/4/1
f 403/1/2 404/2/2 408/3/2 407/4/2
f 407/4/3 408/3/3 406/2/3 405/1/3
f 405/4/4 406/3/4 402/2/4 401/1/4
f 403/2/5 407/3/5 405/4/5 401/1/5
f 408/3/6 404/2/6 402/1/6 406/4/6
f 409/1/1 410/2/1 412/3/1 411/4/1
f 411/1/2 412/2/2 416/3/2 415/4/2
f 415/4/3 416/3/3 414/2/3 413/1/3
f 413/4/4 414/3/4 410/2/4 409/1/4
f 411/2/5 415/3/5 413/4/5 409/1/5
f 416/3/6 412/2/6 410/1/6 414/4/6
f 417/1/1 418/2/1 420/3/1 419/4/1
f 419/1/2 420/2/2 424/3/2 423/4/2
f 423/4/3 424/3/3 422/2/3 421/1/3
f 421/4/4 422/3/4 418/2/4 417/1/4
f 419/2/5 423/3/5 421/4/5 417/1/5
f 424/3/6 420/2/6 418/1/6 422/4/6
f 425/1/1 426/2/1 428/3/1 427/4/1
f 427/1/2 428/2/2 432/3/2 431/4/2
f 431/4/3 432/3/3 430/2/3 429/1/3
f 429/4/4 430/3/4 426/2/4 425/1/4
f 427/2/5 431/3/5 429/4/5 425/1/5
f 432/3/6 428/2/6 426/1/6 430/4/6
f 433/1/1 434/2/1 436/3/1 435/4/1
f 435/1/2 436/2/2 440/3/2 439/4/2
f 439/4/3 440/3/3 438/2/3 437/1/3
f 437/4/4 438/3/4 434/2/4 433/1/4
f 435/2/5 439/3/5 437/4/5 433/1/5
f 440/3/6 436/2/6 434/1/6 438/4/6
f 441/1/1 442/2/1 444/3/1 443/4/1
f 443/1/2 444/2/2 448/3/2 447/4/2
f 447/4/3 448/3/3 446/2/3 445/1/3
f 445/4/4 446/3/4 442/2/4 441/1/4
f 443/2/5 447/3/5 445/4/5 441/1/5
f 448/3/6 444/2/6 442/1/6 446/4/6
f 449/1/1 450/2/1 452/3/1 451/4/1
f 451/1/2 452/2/2 456/3/2 455/4/2
f 455/4/3 456/3/3 454/2/3 453/1/3
f 453/4/4 454/3/4 450/2/4 449/1/4
f 451/2/5 455/3/5 453/4/5 449/1/5
f 456/3/6 452/2/6 450/1/6 454/4/6
f 457/1/1 458/2/1 460/3/1 459/4/1
f 459/1/2 460/2/2 464/3/2 463/4/2
f 463/4/3 464/3/3 462/2/3 461/1/3
f 461/4/4 462/3/4 458/2/4 457/1/4
f 459/2/5 463/3/5 461/4/5 457/1/5
f 464/3/6 460/2/6 458/1/6 462/4/6
f 465/5/19 466/6/19 468/7/19 467/8/19
f 467/8/20 468/7/20 470/6/20 469/5/20
f 469/8/21 470/7/21 472/6/21 471/5/21
f 471/8/22 472/7/22 474/6/22 473/5/22
f 473/8/23 474/7/23 476/6/23 475/5/23
f 475/5/24 476/6/24 478/7/24 477/8/24
f 468/53/6 466/10/6 480/54/6 478/13/6 476/55/6 474/16/6 472/56/6 470/19/6
f 477/5/25 478/6/25 480/7/25 479/8/25
f 479/5/26 480/6/26 466/7/26 465/8/26
f 465/10/5 467/53/5 469/19/5 471/56/5 473/16/5 475/55/5 477/13/5 479/54/5
f 481/37/27 489/38/27 482/40/27
f 482/40/28 489/38/28 483/37/28
f 483/40/29 489/39/29 484/37/29
f 484/40/30 489/38/30 485/37/30
f 485/40/31 489/39/31 486/37/31
f 486/37/32 489/39/32 487/40/32
f 481/42/5 482/57/5 483/51/5 484/58/5 485/48/5 486/59/5 487/45/5 488/60/5
f 487/37/33 489/38/33 488/40/33
f 488/37/34 489/39/34 481/40/34
f 490/61/35 491/62/35 493/63/35 492/64/35
f 492/64/3 493/63/3 495/62/3 494/61/3
f 494/64/36 495/63/36 497/62/36 496/61/36
f 496/64/37 497/63/37 499/62/37 498/61/37
f 493/65/6 491/66/6 501/67/6 499/68/6 497/69/6 495/70/6
f 498/61/1 499/62/1 501/63/1 500/64/1
f 500/61/38 501/62/38 491/63/38 490/64/38
f 490/66/5 492/65/5 494/70/5 496/69/5 498/68/5 500/67/5
f 502/5/19 503/6/19 505/7/19 504/8/19
f 504/8/20 505/7/20 507/6/20 506/5/20
f 506/8/21 507/7/21 509/6/21 508/5/21
f 508/8/22 509/7/22 511/6/22 510/5/22
f 510/8/23 511/7/23 513/6/23 512/5/23
f 512/5/24 513/6/24 515/7/24 514/8/24
f 505/53/6 503/10/6 517/54/6 515/13/6 513/71/6 511/16/6 509/72/6 507/19/6
f 514/5/25 515/6/25 517/7/25 516/8/25
f 516/5/26 517/6/26 503/7/26 502/8/26
f 502/10/5 504/53/5 506/19/5 508/72/5 510/16/5 512/71/5 514/13/5 516/54/5
f 518/1/19 519/2/19 521/3/19 520/4/19
f 520/4/20 521/3/20 523/2/20 522/1/20
f 522/4/21 523/3/21 525/2/21 524/1/21
f 524/4/22 525/3/22 527/2/22 526/1/22
f 526/4/23 527/3/23 529/2/23 528/1/23
f 528/1/24 529/2/24 531/3/24 530/4/24
f 521/73/6 519/26/6 533/74/6 531/29/6 529/75/6 527/32/6 525/76/6 523/35/6
f 530/1/25 531/2/25 533/3/25 532/4/25
f 532/1/26 533/2/26 519/3/26 518/4/26
f 518/26/5 520/73/5 522/35/5 524/76/5 526/32/5 528/75/5 530/29/5 532/74/5
f 534/37/39 542/38/39 535/40/39
f 535/40/40 542/38/40 536/37/40
f 536/40/41 542/39/41 537/37/41
f 537/40/42 542/38/42 538/37/42
f 538/40/43 542/39/43 539/37/43
f 539/37/44 542/39/44 540/40/44
f 534/42/5 535/57/5 536/51/5 537/58/5 538/48/5 539/59/5 540/45/5 541/60/5
f 540/37/45 542/38/45 541/40/45
f 541/37/46 542/39/46 534/40/46
f 543/61/35 544/62/35 546/63/35 545/64/35
f 545/64/3 546/63/3 548/62/3 547/61/3
f 547/64/36 548/63/36 550/62/36 549/61/36
f 549/64/37 550/63/37 552/62/37 551/61/37
f 546/65/6 544/66/6 554/67/6 552/68/6 550/69/6 548/70/6
f 551/61/1 552/62/1 554/63/1 553/64/1
f 553/61/38 554/62/38 544/63/38 543/64/38
f 543/66/5 545/65/5 547/70/5 549/69/5 551/68/5 553/67/5
f 555/21/1 556/22/1 558/23/1 557/24/1
f 557/21/2 558/22/2 562/23/2 561/24/2
f 561/24/3 562/23/3 560/22/3 559/21/3
f 559/24/4 560/23/4 556/22/4 555/21/4
f 557/22/5 561/23/5 559/24/5 555/21/5
f 562/23/6 558/22/6 556/21/6 560/24/6
f 563/5/19 564/6/19 566/7/19 565/8/19
f 565/8/20 566/7/20 568/6/20 567/5/20
f 567/8/21 568/7/21 570/6/21 569/5/21
f 569/8/22 570/7/22 572/6/22 571/5/22
f 571/8/23 572/7/23 574/6/23 573/5/23
f 573/5/24 574/6/24 576/7/24 575/8/24
f 566/53/6 564/10/6 578/54/6 576/13/6 574/71/6 572/16/6 570/72/6 568/19/6
f 575/5/25 576/6/25 578/7/25 577/8/25
f 577/5/26 578/6/26 564/7/26 563/8/26
f 563/10/5 565/53/5 567/19/5 569/72/5 571/16/5 573/71/5 575/13/5 577/54/5
f 579/1/19 580/2/19 582/3/19 581/4/19
f 581/4/20 582/3/20 584/2/20 583/1/20
f 583/4/21 584/3/21 586/2/21 585/1/21
f 585/4/22 586/3/22 588/2/22 587/1/22
f 587/4/23 588/3/23 590/2/23 589/1/23
f 589/1/24 590/2/24 592/3/24 591/4/24
f 582/73/6 580/26/6 594/74/6 592/29/6 590/75/6 588/32/6 586/76/6 584/35/6
f 591/1/25 592/2/25 594/3/25 593/4/25
f 593/1/26 594/2/26 580/3/26 579/4/26
f 579/26/5 581/73/5 583/35/5 585/76/5 587/32/5 589/75/5 591/29/5 593/74/5
f 595/37/39 603/38/39 596/40/39
f 596/40/40 603/38/40 597/37/40
f 597/40/41 603/39/41 598/37/41
f 598/40/42 603/38/42 599/37/42
f 599/40/43 603/39/43 600/37/43
f 600/37/44 603/39/44 601/40/44
f 595/42/5 596/57/5 597/51/5 598/58/5 599/48/5 600/59/5 601/45/5 602/60/5
f 601/37/45 603/38/45 602/40/45
f 602/37/46 603/39/46 595/40/46
f 604/61/35 605/62/35 607/63/35 606/64/35
f 606/64/3 607/63/3 609/62/3 608/61/3
f 608/64/36 609/63/36 611/62/36 610/61/36
f 610/64/37 611/63/37 613/62/37 612/61/37
f 607/65/6 605/66/6 615/67/6 613/68/6 611/69/6 609/70/6
f 612/61/1 613/62/1 615/63/1 614/64/1
f 614/61/38 615/62/38 605/63/38 604/64/38
f 604/66/5 606/65/5 608/70/5 610/69/5 612/68/5 614/67/5
f 616/21/1 617/22/1 619/23/1 618/24/1
f 618/21/2 619/22/2 623/23/2 622/24/2
f 622/24/3 623/23/3 621/22/3 620/21/3
f 620/24/4 621/23/4 617/22/4 616/21/4
f 618/22/5 622/23/5 620/24/5 616/21/5
f 623/23/6 619/22/6 617/21/6 621/24/6
f 624/5/19 625/6/19 627/7/19 626/8/19
f 626/8/20 627/7/20 629/6/20 628/5/20
f 628/8/21 629/7/21 631/6/21 630/5/21
f 630/8/22 631/7/22 633/6/22 632/5/22
f 632/8/23 633/7/23 635/6/23 634/5/23
f 634/5/24 635/6/24 637/7/24 636/8/24
f 627/53/6 625/10/6 639/54/6 637/13/6 635/71/6 633/16/6 631/72/6 629/19/6
f 636/5/25 637/6/25 639/7/25 638/8/25
f 638/5/26 639/6/26 625/7/26 624/8/26
f 624/10/5 626/53/5 628/19/5 630/72/5 632/16/5 634/71/5 636/13/5 638/54/5
f 640/1/19 641/2/19 643/3/19 642/4/19
f 642/4/20 643/3/20 645/2/20 644/1/20
f 644/4/21 645/3/21 647/2/21 646/1/21
f 646/4/22 647/3/22 649/2/22 648/1/22
f 648/4/23 649/3/23 651/2/23 650/1/23
f 650/1/24 651/2/24 653/3/24 652/4/24
f 643/73/6 641/26/6 655/74/6 653/29/6 651/75/6 649/32/6 647/76/6 645/35/6
f 652/1/25 653/2/25 655/3/25 654/4/25
f 654/1/26 655/2/26 641/3/26 640/4/26
f 640/26/5 642/73/5 644/35/5 646/76/5 648/32/5 650/75/5 652/29/5 654/74/5
f 656/37/39 664/38/39 657/40/39
f 657/40/40 664/38/40 658/37/40
f 658/40/41 664/39/41 659/37/41
f 659/40/42 664/38/42 660/37/42
f 660/40/43 664/39/43 661/37/43
f 661/37/44 664/39/44 662/40/44
f 656/42/5 657/57/5 658/51/5 659/58/5 660/48/5 661/59/5 662/45/5 663/60/5
f 662/37/45 664/38/45 663/40/45
f 663/37/46 664/39/46 656/40/46
f 665/61/35 666/62/35 668/63/35 667/64/35
f 667/64/3 668/63/3 670/62/3 669/61/3
f 669/64/36 670/63/36 672/62/36 671/61/36
f 671/64/37 672/63/37 674/62/37 673/61/37
f 668/65/6 666/66/6 676/67/6 674/68/6 672/69/6 670/70/6
f 673/61/1 674/62/1 676/63/1 675/64/1
f 675/61/38 676/62/38 666/63/38 665/64/38
f 665/66/5 667/65/5 669/70/5 671/69/5 673/68/5 675/67/5
f 677/21/1 678/22/1 680/23/1 679/24/1
f 679/21/2 680/22/2 684/23/2 683/24/2
f 683/24/3 684/23/3 682/22/3 681/21/3
f 681/24/4 682/23/4 678/22/4 677/21/4
f 679/22/5 683/23/5 681/24/5 677/21/5
f 684/23/6 680/22/6 678/21/6 682/24/6
f 685/5/19 686/6/19 688/7/19 687/8/19
f 687/8/20 688/7/20 690/6/20 689/5/20
f 689/8/21 690/7/21 692/6/21 691/5/21
f 691/8/22 692/7/22 694/6/22 693/5/22
f 693/8/23 694/7/23 696/6/23 695/5/23
f 695/5/24 696/6/24 698/7/24 697/8/24
f 688/53/6 686/10/6 700/54/6 698/13/6 696/71/6 694/16/6 692/72/6 690/19/6
f 697/5/25 698/6/25 700/7/25 699/8/25
f 699/5/26 700/6/26 686/7/26 685/8/26
f 685/10/5 687/53/5 689/19/5 691/72/5 693/16/5 695/71/5 697/13/5 699/54/5
f 701/1/19 702/2/19 704/3/19 703/4/19
f 703/4/20 704/3/20 706/2/20 705/1/20
f 705/4/21 706/3/21 708/2/21 707/1/21
f 707/4/22 708/3/22 710/2/22 709/1/22
f 709/4/23 710/3/23 712/2/23 711/1/23
f 711/1/24 712/2/24 714/3/24 713/4/24
f 704/73/6 702/26/6 716/74/6 714/29/6 712/75/6 710/32/6 708/76/6 706/35/6
f 713/1/25 714/2/25 716/3/25 715/4/25
f 715/1/26 716/2/26 702/3/26 701/4/26
f 701/26/5 703/73/5 705/35/5 707/76/5 709/32/5 711/75/5 713/29/5 715/74/5
f 717/37/39 725/38/39 718/40/39
f 718/40/40 725/38/40 719/37/40
f 719/40/41 725/39/41 720/37/41
f 720/40/42 725/38/42 721/37/42
f 721/40/43 725/39/43 722/37/43
f 722/37/44 725/39/44 723/40/44
f 717/42/5 718/57/5 719/51/5 720/58/5 721/48/5 722/59/5 723/45/5 724/60/5
f 723/37/45 725/38/45 724/40/45
f 724/37/46 725/39/46 717/40/46
f 726/61/35 727/62/35 729/63/35 728/64/35
f 728/64/3 729/63/3 731/62/3 730/61/3
f 730/64/36 731/63/36 733/62/36 732/61/36
f 732/64/37 733/63/37 735/62/37 734/61/37
f 729/65/6 727/66/6 737/67/6 735/68/6 733/69/6 731/70/6
f 734/61/1 735/62/1 737/63/1 736/64/1
f 736/61/38 737/62/38 727/63/38 726/64/38
f 726/66/5 728/65/5 730/70/5 732/69/5 734/68/5 736/67/5
f 738/21/1 739/22/1 741/23/1 740/24/1
f 740/21/2 741/22/2 745/23/2 744/24/2
f 744/24/3 745/23/3 743/22/3 742/21/3
f 742/24/4 743/23/4 739/22/4 738/21/4
f 740/22/5 744/23/5 742/24/5 738/21/5
f 745/23/6 741/22/6 739/21/6 743/24/6
f 746/1/1 747/2/1 749/3/1 748/4/1
f 748/1/2 749/2/2 753/3/2 752/4/2
f 752/4/3 753/3/3 751/2/3 750/1/3
f 750/4/4 751/3/4 747/2/4 746/1/4
f 748/2/5 752/3/5 750/4/5 746/1/5
f 753/3/6 749/2/6 747/1/6 751/4/6
f 754/21/1 755/22/1 757/23/1 756/24/1
f 756/21/2 757/22/2 761/23/2 760/24/2
f 760/24/3 761/23/3 759/22/3 758/21/3
f 758/24/4 759/23/4 755/22/4 754/21/4
f 756/22/5 760/23/5 758/24/5 754/21/5
f 761/23/6 757/22/6 755/21/6 759/24/6
f 762/24/47 766/22/47 763/21/47
f 763/24/48 766/23/48 764/21/48
f 762/77/5 763/78/5 764/79/5 765/80/5
f 764/21/49 766/23/49 765/24/49
f 765/21/50 766/22/50 762/24/50
f 767/1/1 768/2/1 770/3/1 769/4/1
f 769/1/2 770/2/2 774/3/2 773/4/2
f 773/4/3 774/3/3 772/2/3 771/1/3
f 771/4/4 772/3/4 768/2/4 767/1/4
f 769/2/5 773/3/5 771/4/5 767/1/5
f 774/3/6 770/2/6 768/1/6 772/4/6
f 775/21/1 776/22/1 778/23/1 777/24/1
f 777/21/2 778/22/2 782/23/2 781/24/2
f 781/24/3 782/23/3 780/22/3 779/21/3
f 779/24/4 780/23/4 776/22/4 775/21/4
f 777/22/5 781/23/5 779/24/5 775/21/5
f 782/23/6 778/22/6 776/21/6 780/24/6
f 783/24/47 787/22/47 784/21/47
f 784/24/48 787/23/48 785/21/48
f 783/77/5 784/78/5 785/79/5 786/80/5
f 785/21/49 787/23/49 786/24/49
f 786/21/50 787/22/50 783/24/50
f 788/1/1 789/2/1 791/3/1 790/4/1
f 790/1/2 791/2/2 795/3/2 794/4/2
f 794/4/3 795/3/3 793/2/3 792/1/3
f 792/4/4 793/3/4 789/2/4 788/1/4
f 790/2/5 794/3/5 792/4/5 788/1/5
f 795/3/6 791/2/6 789/1/6 793/4/6
f 796/21/1 797/22/1 799/23/1 798/24/1
f 798/21/2 799/22/2 803/23/2 802/24/2
f 802/24/3 803/23/3 801/22/3 800/21/3
f 800/24/4 801/23/4 797/22/4 796/21/4
f 798/22/5 802/23/5 800/24/5 796/21/5
f 803/23/6 799/22/6 797/21/6 801/24/6
f 804/24/47 808/22/47 805/21/47
f 805/24/48 808/23/48 806/21/48
f 804/77/5 805/78/5 806/79/5 807/80/5
f 806/21/49 808/23/49 807/24/49
f 807/21/50 808/22/50 804/24/50
f 809/1/1 810/2/1 812/3/1 811/4/1
f 811/1/2 812/2/2 816/3/2 815/4/2
f 815/4/3 816/3/3 814/2/3 813/1/3
f 813/4/4 814/3/4 810/2/4 809/1/4
f 811/2/5 815/3/5 813/4/5 809/1/5
f 816/3/6 812/2/6 810/1/6 814/4/6
f 817/21/1 818/22/1 820/23/1 819/24/1
f 819/21/2 820/22/2 824/23/2 823/24/2
f 823/24/3 824/23/3 822/22/3 821/21/3
f 821/24/4 822/23/4 818/22/4 817/21/4
f 819/22/5 823/23/5 821/24/5 817/21/5
f 824/23/6 820/22/6 818/21/6 822/24/6
f 825/24/47 829/22/47 826/21/47
f 826/24/48 829/23/48 827/21/48
f 825/77/5 826/78/5 827/79/5 828/80/5
f 827/21/49 829/23/49 828/24/49
f 828/21/50 829/22/50 825/24/50
f 830/1/1 831/2/1 833/3/1 832/4/1
f 832/1/2 833/2/2 837/3/2 836/4/2
f 836/4/3 837/3/3 835/2/3 834/1/3
f 834/4/4 835/3/4 831/2/4 830/1/4
f 832/2/5 836/3/5 834/4/5 830/1/5
f 837/3/6 833/2/6 831/1/6 835/4/6
f 838/21/1 839/22/1 841/23/1 840/24/1
f 840/21/2 841/22/2 845/23/2 844/24/2
f 844/24/3 845/23/3 843/22/3 842/21/3
f 842/24/4 843/23/4 839/22/4 838/21/4
f 840/22/5 844/23/5 842/24/5 838/21/5
f 845/23/6 841/22/6 839/21/6 843/24/6
f 846/24/47 850/22/47 847/21/47
f 847/24/48 850/23/48 848/21/48
f 846/77/5 847/78/5 848/79/5 849/80/5
f 848/21/49 850/23/49 849/24/49
f 849/21/50 850/22/50 846/24/50
f 851/1/1 852/2/1 854/3/1 853/4/1
f 853/1/2 854/2/2 858/3/2 857/4/2
f 857/4/3 858/3/3 856/2/3 855/1/3
f 855/4/4 856/3/4 852/2/4 851/1/4
f 853/2/5 857/3/5 855/4/5 851/1/5
f 858/3/6 854/2/6 852/1/6 856/4/6
f 859/21/1 860/22/1 862/23/1 861/24/1
f 861/21/2 862/22/2 866/23/2 865/24/2
f 865/24/3 866/23/3 864/22/3 863/21/3
f 863/24/4 864/23/4 860/22/4 859/21/4
f 861/22/5 865/23/5 863/24/5 859/21/5
f 866/23/6 862/22/6 860/21/6 864/24/6
f 867/24/47 871/22/47 868/21/47
f 868/24/48 871/23/48 869/21/48
f 867/77/5 868/78/5 869/79/5 870/80/5
f 869/21/49 871/23/49 870/24/49
f 870/21/50 871/22/50 867/24/50
f 872/1/1 873/2/1 875/3/1 874/4/1
f 874/1/2 875/2/2 879/3/2 878/4/2
f 878/4/3 879/3/3 877/2/3 876/1/3
f 876/4/4 877/3/4 873/2/4 872/1/4
f 874/2/5 878/3/5 876/4/5 872/1/5
f 879/3/6 875/2/6 873/1/6 877/4/6
f 880/21/1 881/22/1 883/23/1 882/24/1
f 882/21/2 883/22/2 887/23/2 886/24/2
f 886/24/3 887/23/3 885/22/3 884/21/3
f 884/24/4 885/23/4 881/22/4 880/21/4
f 882/22/5 886/23/5 884/24/5 880/21/5
f 887/23/6 883/22/6 881/21/6 885/24/6
f 888/24/47 892/22/47 889/21/47
f 889/24/48 892/23/48 890/21/48
f 888/77/5 889/78/5 890/79/5 891/80/5
f 890/21/49 892/23/49 891/24/49
f 891/21/50 892/22/50 888/24/50
f 893/1/1 894/2/1 896/3/1 895/4/1
f 895/1/2 896/2/2 900/3/2 899/4/2
f 899/4/3 900/3/3 898/2/3 897/1/3
f 897/4/4 898/3/4 894/2/4 893/1/4
f 895/2/5 899/3/5 897/4/5 893/1/5
f 900/3/6 896/2/6 894/1/6 898/4/6
f 901/21/1 902/22/1 904/23/1 903/24/1
f 903/21/2 904/22/2 908/23/2 907/24/2
f 907/24/3 908/23/3 906/22/3 905/21/3
f 905/24/4 906/23/4 902/22/4 901/21/4
f 903/22/5 907/23/5 905/24/5 901/21/5
f 908/23/6 904/22/6 902/21/6 906/24/6
f 909/24/47 913/22/47 910/21/47
f 910/24/48 913/23/48 911/21/48
f 909/77/5 910/78/5 911/79/5 912/80/5
f 911/21/49 913/23/49 912/24/49
f 912/21/50 913/22/50 909/24/50
f 914/1/1 915/2/1 917/3/1 916/4/1
f 916/1/2 917/2/2 921/3/2 920/4/2
f 920/4/3 921/3/3 919/2/3 918/1/3
f 918/4/4 919/3/4 915/2/4 914/1/4
f 916/2/5 920/3/5 918/4/5 914/1/5
f 921/3/6 917/2/6 915/1/6 919/4/6
f 922/21/1 923/22/1 925/23/1 924/24/1
f 924/21/2 925/22/2 929/23/2 928/24/2
f 928/24/3 929/23/3 927/22/3 926/21/3
f 926/24/4 927/23/4 923/22/4 922/21/4
f 924/22/5 928/23/5 926/24/5 922/21/5
f 929/23/6 925/22/6 923/21/6 927/24/6
f 930/24/47 934/22/47 931/21/47
f 931/24/48 934/23/48 932/21/48
f 930/77/5 931/78/5 932/79/5 933/80/5
f 932/21/49 934/23/49 933/24/49
f 933/21/50 934/22/50 930/24/50
f 935/1/1 936/2/1 938/3/1 937/4/1
f 937/1/2 938/2/2 942/3/2 941/4/2
f 941/4/3 942/3/3 940/2/3 939/1/3
f 939/4/4 940/3/4 936/2/4 935/1/4
f 937/2/5 941/3/5 939/4/5 935/1/5
f 942/3/6 938/2/6 936/1/6 940/4/6
f 943/21/1 944/22/1 946/23/1 945/24/1
f 945/21/2 946/22/2 950/23/2 949/24/2
f 949/24/3 950/23/3 948/22/3 947/21/3
f 947/24/4 948/23/4 944/22/4 943/21/4
f 945/22/5 949/23/5 947/24/5 943/21/5
f 950/23/6 946/22/6 944/21/6 948/24/6
f 951/24/47 955/22/47 952/21/47
f 952/24/48 955/23/48 953/21/48
f 951/77/5 952/78/5 953/79/5 954/80/5
f 953/21/49 955/23/49 954/24/49
f 954/21/50 955/22/50 951/24/50
f 956/1/1 957/2/1 959/3/1 958/4/1
f 958/1/2 959/2/2 963/3/2 962/4/2
f 962/4/3 963/3/3 961/2/3 960/1/3
f 960/4/4 961/3/4 957/2/4 956/1/4
f 958/2/5 962/3/5 960/4/5 956/1/5
f 963/3/6 959/2/6 957/1/6 961/4/6
f 964/21/1 965/22/1 967/23/1 966/24/1
f 966/21/2 967/22/2 971/23/2 970/24/2
f 970/24/3 971/23/3 969/22/3 968/21/3
f 968/24/4 969/23/4 965/22/4 964/21/4
f 966/22/5 970/23/5 968/24/5 964/21/5
f 971/23/6 967/22/6 965/21/6 969/24/6
f 972/24/47 976/22/47 973/21/47
f 973/24/48 976/23/48 974/21/48
f 972/77/5 973/78/5 974/79/5 975/80/5
f 974/21/49 976/23/49 975/24/49
f 975/21/50 976/22/50 972/24/50
f 977/1/1 978/2/1 980/3/1 979/4/1
f 979/1/2 980/2/2 984/3/2 983/4/2
f 983/4/3 984/3/3 982/2/3 981/1/3
f 981/4/4 982/3/4 978/2/4 977/1/4
f 979/2/5 983/3/5 981/4/5 977/1/5
f 984/3/6 980/2/6 978/1/6 982/4/6
f 985/21/1 986/22/1 988/23/1 987/24/1
f 987/21/2 988/22/2 992/23/2 991/24/2
f 991/24/3 992/23/3 990/22/3 989/21/3
f 989/24/4 990/23/4 986/22/4 985/21/4
f 987/22/5 991/23/5 989/24/5 985/21/5
f 992/23/6 988/22/6 986/21/6 990/24/6
f 993/24/47 997/22/47 994/21/47
f 994/24/48 997/23/48 995/21/48
f 993/77/5 994/78/5 995/79/5 996/80/5
f 995/21/49 997/23/49 996/24/49
f 996/21/50 997/22/50 993/24/50
f 998/1/1 999/2/1 1001/3/1 1000/4/1
f 1000/1/2 1001/2/2 1005/3/2 1004/4/2
f 1004/4/3 1005/3/3 1003/2/3 1002/1/3
f 1002/4/4 1003/3/4 999/2/4 998/1/4
f 1000/2/5 1004/3/5 1002/4/5 998/1/5
f 1005/3/6 1001/2/6 999/1/6 1003/4/6
f 1006/21/1 1007/22/1 1009/23/1 1008/24/1
f 1008/21/2 1009/22/2 1013/23/2 1012/24/2
f 1012/24/3 1013/23/3 1011/22/3 1010/21/3
f 1010/24/4 1011/23/4 1007/22/4 1006/21/4
f 1008/22/5 1012/23/5 1010/24/5 1006/21/5
f 1013/23/6 1009/22/6 1007/21/6 1011/24/6
f 1014/24/47 1018/22/47 1015/21/47
f 1015/24/48 1018/23/48 1016/21/48
f 1014/77/5 1015/78/5 1016/79/5 1017/80/5
f 1016/21/49 1018/23/49 1017/24/49
f 1017/21/50 1018/22/50 1014/24/50
f 1019/1/1 1020/2/1 1022/3/1 1021/4/1
f 1021/1/2 1022/2/2 1026/3/2 1025/4/2
f 1025/4/3 1026/3/3 1024/2/3 1023/1/3
f 1023/4/4 1024/3/4 1020/2/4 1019/1/4
f 1021/2/5 1025/3/5 1023/4/5 1019/1/5
f 1026/3/6 1022/2/6 1020/1/6 1024/4/6
f 1027/21/1 1028/22/1 1030/23/1 1029/24/1
f 1029/21/2 1030/22/2 1034/23/2 1033/24/2
f 1033/24/3 1034/23/3 1032/22/3 1031/21/3
f 1031/24/4 1032/23/4 1028/22/4 1027/21/4
f 1029/22/5 1033/23/5 1031/24/5 1027/21/5
f 1034/23/6 1030/22/6 1028/21/6 1032/24/6
f 1035/24/47 1039/22/47 1036/21/47
f 1036/24/48 1039/23/48 1037/21/48
f 1035/77/5 1036/78/5 1037/79/5 1038/80/5
f 1037/21/49 1039/23/49 1038/24/49
f 1038/21/50 1039/22/50 1035/24/50
f 1040/1/1 1041/2/1 1043/3/1 1042/4/1
f 1042/1/2 1043/2/2 1047/3/2 1046/4/2
f 1046/4/3 1047/3/3 1045/2/3 1044/1/3
f 1044/4/4 1045/3/4 1041/2/4 1040/1/4
f 1042/2/5 1046/3/5 1044/4/5 1040/1/5
f 1047/3/6 1043/2/6 1041/1/6 1045/4/6
f 1048/21/1 1049/22/1 1051/23/1 1050/24/1
f 1050/21/2 1051/22/2 1055/23/2 1054/24/2
f 1054/24/3 1055/23/3 1053/22/3 1052/21/3
f 1052/24/4 1053/23/4 1049/22/4 1048/21/4
f 1050/22/5 1054/23/5 1052/24/5 1048/21/5
f 1055/23/6 1051/22/6 1049/21/6 1053/24/6
f 1056/24/47 1060/22/47 1057/21/47
f 1057/24/48 1060/23/48 1058/21/48
f 1056/77/5 1057/78/5 1058/79/5 1059/80/5
f 1058/21/49 1060/23/49 1059/24/49
f 1059/21/50 1060/22/50 1056/24/50
f 1061/1/1 1062/2/1 1064/3/1 1063/4/1
f 1063/1/2 1064/2/2 1068/3/2 1067/4/2
f 1067/4/3 1068/3/3 1066/2/3 1065/1/3
f 1065/4/4 1066/3/4 1062/2/4 1061/1/4
f 1063/2/5 1067/3/5 1065/4/5 1061/1/5
f 1068/3/6 1064/2/6 1062/1/6 1066/4/6
f 1069/21/1 1070/22/1 1072/23/1 1071/24/1
f 1071/21/2 1072/22/2 1076/23/2 1075/24/2
f 1075/24/3 1076/23/3 1074/22/3 1073/21/3
f 1073/24/4 1074/23/4 1070/22/4 1069/21/4
f 1071/22/5 1075/23/5 1073/24/5 1069/21/5
f 1076/23/6 1072/22/6 1070/21/6 1074/24/6
f 1077/24/47 1081/22/47 1078/21/47
f 1078/24/48 1081/23/48 1079/21/48
f 1077/77/5 1078/78/5 1079/79/5 1080/80/5
f 1079/21/49 1081/23/49 1080/24/49
f 1080/21/50 1081/22/50 1077/24/50
f 1082/1/1 1083/2/1 1085/3/1 1084/4/1
f 1084/1/2 1085/2/2 1089/3/2 1088/4/2
f 1088/4/3 1089/3/3 1087/2/3 1086/1/3
f 1086/4/4 1087/3/4 1083/2/4 1082/1/4
f 1084/2/5 1088/3/5 1086/4/5 1082/1/5
f 1089/3/6 1085/2/6 1083/1/6 1087/4/6
f 1090/1/2 1091/2/2 1093/3/2 1092/4/2
f 1092/1/3 1093/2/3 1097/3/3 1096/4/3
f 1096/4/4 1097/3/4 1095/2/4 1094/1/4
f 1094/4/1 1095/3/1 1091/2/1 1090/1/1
f 1092/2/5 1096/3/5 1094/4/5 1090/1/5
f 1097/3/6 1093/2/6 1091/1/6 1095/4/6
f 1098/1/2 1099/2/2 1101/3/2 1100/4/2
f 1100/1/3 1101/2/3 1105/3/3 1104/4/3
f 1104/4/4 1105/3/4 1103/2/4 1102/1/4
f 1102/4/1 1103/3/1 1099/2/1 1098/1/1
f 1100/2/5 1104/3/5 1102/4/5 1098/1/5
f 1105/3/6 1101/2/6 1099/1/6 1103/4/6
f 1106/1/2 1107/2/2 1109/3/2 1108/4/2
f 1108/1/3 1109/2/3 1113/3/3 1112/4/3
f 1112/4/4 1113/3/4 1111/2/4 1110/1/4
f 1110/4/1 1111/3/1 1107/2/1 1106/1/1
f 1108/2/5 1112/3/5 1110/4/5 1106/1/5
f 1113/3/6 1109/2/6 1107/1/6 1111/4/6
f 1114/4/51 1118/2/51 1115/1/51
f 1115/4/52 1118/3/52 1116/1/52
f 1114/26/5 1115/35/5 1116/32/5 1117/29/5
f 1116/1/53 1118/3/53 1117/4/53
f 1117/1/54 1118/2/54 1114/4/54
f 1119/1/2 1120/2/2 1122/3/2 1121/4/2
f 1121/1/3 1122/2/3 1126/3/3 1125/4/3
f 1125/4/4 1126/3/4 1124/2/4 1123/1/4
f 1123/4/1 1124/3/1 1120/2/1 1119/1/1
f 1121/2/5 1125/3/5 1123/4/5 1119/1/5
f 1126/3/6 1122/2/6 1120/1/6 1124/4/6
f 1127/1/2 1128/2/2 1130/3/2 1129/4/2
f 1129/1/3 1130/2/3 1134/3/3 1133/4/3
f 1133/4/4 1134/3/4 1132/2/4 1131/1/4
f 1131/4/1 1132/3/1 1128/2/1 1127/1/1
f 1129/2/5 1133/3/5 1131/4/5 1127/1/5
f 1134/3/6 1130/2/6 1128/1/6 1132/4/6
f 1135/4/51 1139/2/51 1136/1/51
f 1136/4/52 1139/3/52 1137/1/52
f 1135/26/5 1136/35/5 1137/32/5 1138/29/5
f 1137/1/53 1139/3/53 1138/4/53
f 1138/1/54 1139/2/54 1135/4/54
f 1140/1/2 1141/2/2 1143/3/2 1142/4/2
f 1142/1/3 1143/2/3 1147/3/3 1146/4/3
f 1146/4/4 1147/3/4 1145/2/4 1144/1/4
f 1144/4/1 1145/3/1 1141/2/1 1140/1/1
f 1142/2/5 1146/3/5 1144/4/5 1140/1/5
f 1147/3/6 1143/2/6 1141/1/6 1145/4/6
f 1148/1/2 1149/2/2 1151/3/2 1150/4/2
f 1150/1/3 1151/2/3 1155/3/3 1154/4/3
f 1154/4/4 1155/3/4 1153/2/4 1152/1/4
f 1152/4/1 1153/3/1 1149/2/1 1148/1/1
f 1150/2/5 1154/3/5 1152/4/5 1148/1/5
f 1155/3/6 1151/2/6 1149/1/6 1153/4/6
f 1156/1/1 1157/2/1 1159/3/1 1158/4/1
f 1158/1/2 1159/2/2 1163/3/2 1162/4/2
f 1162/4/3 1163/3/3 1161/2/3 1160/1/3
f 1160/4/4 1161/3/4 1157/2/4 1156/1/4
f 1158/2/5 1162/3/5 1160/4/5 1156/1/5
f 1163/3/6 1159/2/6 1157/1/6 1161/4/6
f 1164/1/2 1165/2/2 1167/3/2 1166/4/2
f 1166/1/3 1167/2/3 1171/3/3 1170/4/3
f 1170/4/4 1171/3/4 1169/2/4 1168/1/4
f 1168/4/1 1169/3/1 1165/2/1 1164/1/1
f 1166/2/5 1170/3/5 1168/4/5 1164/1/5
f 1171/3/6 1167/2/6 1165/1/6 1169/4/6
f 1172/1/2 1173/2/2 1175/3/2 1174/4/2
f 1174/1/3 1175/2/3 1179/3/3 1178/4/3
f 1178/4/4 1179/3/4 1177/2/4 1176/1/4
f 1176/4/1 1177/3/1 1173/2/1 1172/1/1
f 1174/2/5 1178/3/5 1176/4/5 1172/1/5
f 1179/3/6 1175/2/6 1173/1/6 1177/4/6
f 1180/1/2 1181/2/2 1183/3/2 1182/4/2
f 1182/1/3 1183/2/3 1187/3/3 1186/4/3
f 1186/4/4 1187/3/4 1185/2/4 1184/1/4
f 1184/4/1 1185/3/1 1181/2/1 1180/1/1
f 1182/2/5 1186/3/5 1184/4/5 1180/1/5
f 1187/3/6 1183/2/6 1181/1/6 1185/4/6
f 1188/4/51 1192/2/51 1189/1/51
f 1189/4/52 1192/3/52 1190/1/52
f 1188/26/5 1189/35/5 1190/32/5 1191/29/5
f 1190/1/53 1192/3/53 1191/4/53
f 1191/1/54 1192/2/54 1188/4/54
f 1193/1/2 1194/2/2 1196/3/2 1195/4/2
f 1195/1/3 1196/2/3 1200/3/3 1199/4/3
f 1199/4/4 1200/3/4 1198/2/4 1197/1/4
f 1197/4/1 1198/3/1 1194/2/1 1193/1/1
f 1195/2/5 1199/3/5 1197/4/5 1193/1/5
f 1200/3/6 1196/2/6 1194/1/6 1198/4/6
f 1201/1/2 1202/2/2 1204/3/2 1203/4/2
f 1203/1/3 1204/2/3 1208/3/3 1207/4/3
f 1207/4/4 1208/3/4 1206/2/4 1205/1/4
f 1205/4/1 1206/3/1 1202/2/1 1201/1/1
f 1203/2/5 1207/3/5 1205/4/5 1201/1/5
f 1208/3/6 1204/2/6 1202/1/6 1206/4/6
f 1209/4/51 1213/2/51 1210/1/51
f 1210/4/52 1213/3/52 1211/1/52
f 1209/26/5 1210/35/5 1211/32/5 1212/29/5
f 1211/1/53 1213/3/53 1212/4/53
f 1212/1/54 1213/2/54 1209/4/54
f 1214/1/2 1215/2/2 1217/3/2 1216/4/2
f 1216/1/3 1217/2/3 1221/3/3 1220/4/3
f 1220/4/4 1221/3/4 1219/2/4 1218/1/4
f 1218/4/1 1219/3/1 1215/2/1 1214/1/1
f 1216/2/5 1220/3/5 1218/4/5 1214/1/5
f 1221/3/6 1217/2/6 1215/1/6 1219/4/6
f 1222/1/2 1223/2/2 1225/3/2 1224/4/2
f 1224/1/3 1225/2/3 1229/3/3 1228/4/3
f 1228/4/4 1229/3/4 1227/2/4 1226/1/4
f 1226/4/1 1227/3/1 1223/2/1 1222/1/1
f 1224/2/5 1228/3/5 1226/4/5 1222/1/5
f 1229/3/6 1225/2/6 1223/1/6 1227/4/6
f 1230/1/1 1231/2/1 1233/3/1 1232/4/1
f 1232/1/2 1233/2/2 1237/3/2 1236/4/2
f 1236/4/3 1237/3/3 1235/2/3 1234/1/3
f 1234/4/4 1235/3/4 1231/2/4 1230/1/4
f 1232/2/5 1236/3/5 1234/4/5 1230/1/5
f 1237/3/6 1233/2/6 1231/1/6 1235/4/6
f 1238/1/1 1239/2/1 1241/3/1 1240/4/1
f 1240/1/2 1241/2/2 1245/3/2 1244/4/2
f 1244/4/3 1245/3/3 1243/2/3 1242/1/3
f 1242/4/4 1243/3/4 1239/2/4 1238/1/4
f 1240/2/5 1244/3/5 1242/4/5 1238/1/5
f 1245/3/6 1241/2/6 1239/1/6 1243/4/6
f 1246/1/1 1247/2/1 1249/3/1 1248/4/1
f 1248/1/2 1249/2/2 1253/3/2 1252/4/2
f 1252/4/3 1253/3/3 1251/2/3 1250/1/3
f 1250/4/4 1251/3/4 1247/2/4 1246/1/4
f 1248/2/5 1252/3/5 1250/4/5 1246/1/5
f 1253/3/6 1249/2/6 1247/1/6 1251/4/6
f 1254/1/1 1255/2/1 1257/3/1 1256/4/1
f 1256/1/2 1257/2/2 1261/3/2 1260/4/2
f 1260/4/3 1261/3/3 1259/2/3 1258/1/3
f 1258/4/4 1259/3/4 1255/2/4 1254/1/4
f 1256/2/5 1260/3/5 1258/4/5 1254/1/5
f 1261/3/6 1257/2/6 1255/1/6 1259/4/6
f 1262/4/51 1266/2/51 1263/1/51
f 1263/4/52 1266/3/52 1264/1/52
f 1262/26/5 1263/35/5 1264/32/5 1265/29/5
f 1264/1/53 1266/3/53 1265/4/53
f 1265/1/54 1266/2/54 1262/4/54
f 1267/1/1 1268/2/1 1270/3/1 1269/4/1
f 1269/1/2 1270/2/2 1274/3/2 1273/4/2
f 1273/4/3 1274/3/3 1272/2/3 1271/1/3
f 1271/4/4 1272/3/4 1268/2/4 1267/1/4
f 1269/2/5 1273/3/5 1271/4/5 1267/1/5
f 1274/3/6 1270/2/6 1268/1/6 1272/4/6
f 1275/1/1 1276/2/1 1278/3/1 1277/4/1
f 1277/1/2 1278/2/2 1282/3/2 1281/4/2
f 1281/4/3 1282/3/3 1280/2/3 1279/1/3
f 1279/4/4 1280/3/4 1276/2/4 1275/1/4
f 1277/2/5 1281/3/5 1279/4/5 1275/1/5
f 1282/3/6 1278/2/6 1276/1/6 1280/4/6
f 1283/4/51 1287/2/51 1284/1/51
f 1284/4/52 1287/3/52 1285/1/52
f 1283/26/5 1284/35/5 1285/32/5 1286/29/5
f 1285/1/53 1287/3/53 1286/4/53
f 1286/1/54 1287/2/54 1283/4/54
f 1288/1/1 1289/2/1 1291/3/1 1290/4/1
f 1290/1/2 1291/2/2 1295/3/2 1294/4/2
f 1294/4/3 1295/3/3 1293/2/3 1292/1/3
f 1292/4/4 1293/3/4 1289/2/4 1288/1/4
f 1290/2/5 1294/3/5 1292/4/5 1288/1/5
f 1295/3/6 1291/2/6 1289/1/6 1293/4/6
f 1296/1/1 1297/2/1 1299/3/1 1298/4/1
f 1298/1/2 1299/2/2 1303/3/2 1302/4/2
f 1302/4/3 1303/3/3 1301/2/3 1300/1/3
f 1300/4/4 1301/3/4 1297/2/4 1296/1/4
f 1298/2/5 1302/3/5 1300/4/5 1296/1/5
f 1303/3/6 1299/2/6 1297/1/6 1301/4/6
f 1304/1/1 1305/2/1 1307/3/1 1306/4/1
f 1306/1/2 1307/2/2 1311/3/2 1310/4/2
f 1310/4/3 1311/3/3 1309/2/3 1308/1/3
f 1308/4/4 1309/3/4 1305/2/4 1304/1/4
f 1306/2/5 1310/3/5 1308/4/5 1304/1/5
f 1311/3/6 1307/2/6 1305/1/6 1309/4/6
f 1312/1/3 1313/2/3 1315/3/3 1314/4/3
f 1314/1/4 1315/2/4 1319/3/4 1318/4/4
f 1318/4/1 1319/3/1 1317/2/1 1316/1/1
f 1316/4/2 1317/3/2 1313/2/2 1312/1/2
f 1314/2/5 1318/3/5 1316/4/5 1312/1/5
f 1319/3/6 1315/2/6 1313/1/6 1317/4/6
f 1320/1/3 1321/2/3 1323/3/3 1322/4/3
f 1322/1/4 1323/2/4 1327/3/4 1326/4/4
f 1326/4/1 1327/3/1 1325/2/1 1324/1/1
f 1324/4/2 1325/3/2 1321/2/2 1320/1/2
f 1322/2/5 1326/3/5 1324/4/5 1320/1/5
f 1327/3/6 1323/2/6 1321/1/6 1325/4/6
f 1328/1/3 1329/2/3 1331/3/3 1330/4/3
f 1330/1/4 1331/2/4 1335/3/4 1334/4/4
f 1334/4/1 1335/3/1 1333/2/1 1332/1/1
f 1332/4/2 1333/3/2 1329/2/2 1328/1/2
f 1330/2/5 1334/3/5 1332/4/5 1328/1/5
f 1335/3/6 1331/2/6 1329/1/6 1333/4/6
f 1336/4/51 1340/2/51 1337/1/51
f 1337/4/52 1340/3/52 1338/1/52
f 1336/26/5 1337/35/5 1338/32/5 1339/29/5
f 1338/1/53 1340/3/53 1339/4/53
f 1339/1/54 1340/2/54 1336/4/54
f 1341/1/3 1342/2/3 1344/3/3 1343/4/3
f 1343/1/4 1344/2/4 1348/3/4 1347/4/4
f 1347/4/1 1348/3/1 1346/2/1 1345/1/1
f 1345/4/2 1346/3/2 1342/2/2 1341/1/2
f 1343/2/5 1347/3/5 1345/4/5 1341/1/5
f 1348/3/6 1344/2/6 1342/1/6 1346/4/6
f 1349/1/3 1350/2/3 1352/3/3 1351/4/3
f 1351/1/4 1352/2/4 1356/3/4 1355/4/4
f 1355/4/1 1356/3/1 1354/2/1 1353/1/1
f 1353/4/2 1354/3/2 1350/2/2 1349/1/2
f 1351/2/5 1355/3/5 1353/4/5 1349/1/5
f 1356/3/6 1352/2/6 1350/1/6 1354/4/6
f 1357/4/51 1361/2/51 1358/1/51
f 1358/4/52 1361/3/52 1359/1/52
f 1357/26/5 1358/35/5 1359/32/5 1360/29/5
f 1359/1/53 1361/3/53 1360/4/53
f 1360/1/54 1361/2/54 1357/4/54
f 1362/1/3 1363/2/3 1365/3/3 1364/4/3
f 1364/1/4 1365/2/4 1369/3/4 1368/4/4
f 1368/4/1 1369/3/1 1367/2/1 1366/1/1
f 1366/4/2 1367/3/2 1363/2/2 1362/1/2
f 1364/2/5 1368/3/5 1366/4/5 1362/1/5
f 1369/3/6 1365/2/6 1363/1/6 1367/4/6
f 1370/1/3 1371/2/3 1373/3/3 1372/4/3
f 1372/1/4 1373/2/4 1377/3/4 1376/4/4
f 1376/4/1 1377/3/1 1375/2/1 1374/1/1
f 1374/4/2 1375/3/2 1371/2/2 1370/1/2
f 1372/2/5 1376/3/5 1374/4/5 1370/1/5
f 1377/3/6 1373/2/6 1371/1/6 1375/4/6
f 1378/1/1 1379/2/1 1381/3/1 1380/4/1
f 1380/1/2 1381/2/2 1385/3/2 1384/4/2
f 1384/4/3 1385/3/3 1383/2/3 1382/1/3
f 1382/4/4 1383/3/4 1379/2/4 1378/1/4
f 1380/2/5 1384/3/5 1382/4/5 1378/1/5
f 1385/3/6 1381/2/6 1379/1/6 1383/4/6
f 1386/81/1 1387/82/1 1389/83/1 1388/84/1
f 1388/81/2 1389/82/2 1393/83/2 1392/84/2
f 1392/84/3 1393/83/3 1391/82/3 1390/81/3
f 1390/84/4 1391/83/4 1387/82/4 1386/81/4
f 1388/82/5 1392/83/5 1390/84/5 1386/81/5
f 1393/83/6 1389/82/6 1387/81/6 1391/84/6
f 1394/4/55 1398/2/55 1395/1/55
f 1395/4/56 1398/3/56 1396/1/56
f 1394/26/5 1395/35/5 1396/32/5 1397/29/5
f 1396/1/57 1398/3/57 1397/4/57
f 1397/1/58 1398/2/58 1394/4/58
f 1399/85/59 1400/86/59 1401/87/59
f 1400/88/60 1399/89/60 1404/90/60
f 1399/90/61 1401/91/61 1402/92/61
f 1399/88/62 1402/87/62 1403/93/62
f 1399/94/63 1403/92/63 1404/95/63
f 1400/87/64 1404/88/64 1409/96/64
f 1401/87/65 1400/88/65 1405/97/65
f 1402/88/66 1401/87/66 1406/98/66
f 1403/88/67 1402/87/67 1407/99/67
f 1404/88/68 1403/87/68 1408/97/68
f 1400/100/69 1409/90/69 1405/92/69
f 1401/101/70 1405/90/70 1406/92/70
f 1402/102/71 1406/92/71 1407/90/71
f 1403/101/72 1407/92/72 1408/90/72
f 1404/103/73 1408/90/73 1409/92/73
f 1405/104/74 1409/90/74 1410/92/74
f 1406/105/75 1405/88/75 1410/106/75
f 1407/92/76 1406/87/76 1410/107/76
f 1408/90/77 1407/108/77 1410/109/77
f 1409/88/78 1408/110/78 1410/87/78
f 1411/85/59 1412/86/59 1413/87/59
f 1412/88/60 1411/89/60 1416/90/60
f 1411/90/61 1413/91/61 1414/92/61
f 1411/88/62 1414/87/62 1415/93/62
f 1411/94/63 1415/92/63 1416/95/63
f 1412/87/64 1416/88/64 1421/96/64
f 1413/87/65 1412/88/65 1417/97/65
f 1414/88/66 1413/87/66 1418/98/66
f 1415/88/67 1414/87/67 1419/99/67
f 1416/88/68 1415/87/68 1420/97/68
f 1412/100/69 1421/90/69 1417/92/69
f 1413/101/70 1417/90/70 1418/92/70
f 1414/102/71 1418/92/71 1419/90/71
f 1415/101/72 1419/92/72 1420/90/72
f 1416/103/73 1420/90/73 1421/92/73
f 1417/104/74 1421/90/74 1422/92/74
f 1418/105/75 1417/88/75 1422/106/75
f 1419/92/76 1418/87/76 1422/107/76
f 1420/90/77 1419/108/77 1422/109/77
f 1421/88/78 1420/110/78 1422/87/78
f 1423/85/59 1424/86/59 1425/87/59
f 1424/88/60 1423/89/60 1428/90/60
f 1423/90/61 1425/91/61 1426/92/61
f 1423/88/62 1426/87/62 1427/93/62
f 1423/94/63 1427/92/63 1428/95/63
f 1424/87/64 1428/88/64 1433/96/64
f 1425/87/65 1424/88/65 1429/97/65
f 1426/88/66 1425/87/66 1430/98/66
f 1427/88/67 1426/87/67 1431/99/67
f 1428/88/68 1427/87/68 1432/97/68
f 1424/100/69 1433/90/69 1429/92/69
f 1425/101/70 1429/90/70 1430/92/70
f 1426/102/71 1430/92/71 1431/90/71
f 1427/101/72 1431/92/72 1432/90/72
f 1428/103/73 1432/90/73 1433/92/73
f 1429/104/74 1433/90/74 1434/92/74
f 1430/105/75 1429/88/75 1434/106/75
f 1431/92/76 1430/87/76 1434/107/76
f 1432/90/77 1431/108/77 1434/109/77
f 1433/88/78 1432/110/78 1434/87/78
f 1435/85/59 1436/86/59 1437/87/59
f 1436/88/60 1435/89/60 1440/90/60
f 1435/90/61 1437/91/61 1438/92/61
f 1435/88/62 1438/87/62 1439/93/62
f 1435/94/63 1439/92/63 1440/95/63
f 1436/87/64 1440/88/64 1445/96/64
f 1437/87/65 1436/88/65 1441/97/65
f 1438/88/66 1437/87/66 1442/98/66
f 1439/88/67 1438/87/67 1443/99/67
f 1440/88/68 1439/87/68 1444/97/68
f 1436/100/69 1445/90/69 1441/92/69
f 1437/101/70 1441/90/70 1442/92/70
f 1438/102/71 1442/92/71 1443/90/71
f 1439/101/72 1443/92/72 1444/90/72
f 1440/103/73 1444/90/73 1445/92/73
f 1441/104/74 1445/90/74 1446/92/74
f 1442/105/75 1441/88/75 1446/106/75
f 1443/92/76 1442/87/76 1446/107/76
f 1444/90/77 1443/108/77 1446/109/77
f 1445/88/78 1444/110/78 1446/87/78
f 1447/85/59 1448/86/59 1449/87/59
f 1448/88/60 1447/89/60 1452/90/60
f 1447/90/61 1449/91/61 1450/92/61
f 1447/88/62 1450/87/62 1451/93/62
f 1447/94/63 1451/92/63 1452/95/63
f 1448/87/64 1452/88/64 1457/96/64
f 1449/87/65 1448/88/65 1453/97/65
f 1450/88/66 1449/87/66 1454/98/66
f 1451/88/67 1450/87/67 1455/99/67
f 1452/88/68 1451/87/68 1456/97/68
f 1448/100/69 1457/90/69 1453/92/69
f 1449/101/70 1453/90/70 1454/92/70
f 1450/102/71 1454/92/71 1455/90/71
f 1451/101/72 1455/92/72 1456/90/72
f 1452/103/73 1456/90/73 1457/92/73
f 1453/104/74 1457/90/74 1458/92/74
f 1454/105/75 1453/88/75 1458/106/75
f 1455/92/76 1454/87/76 1458/107/76
f 1456/90/77 1455/108/77 1458/109/77
f 1457/88/78 1456/110/78 1458/87/78
f 1459/85/59 1460/86/59 1461/87/59
f 1460/88/60 1459/89/60 1464/90/60
f 1459/90/61 1461/91/61 1462/92/61
f 1459/88/62 1462/87/62 1463/93/62
f 1459/94/63 1463/92/63 1464/95/63
f 1460/87/64 1464/88/64 1469/96/64
f 1461/87/65 1460/88/65 1465/97/65
f 1462/88/66 1461/87/66 1466/98/66
f 1463/88/67 1462/87/67 1467/99/67
f 1464/88/68 1463/87/68 1468/97/68
f 1460/100/69 1469/90/69 1465/92/69
f 1461/101/70 1465/90/70 1466/92/70
f 1462/102/71 1466/92/71 1467/90/71
f 1463/101/72 1467/92/72 1468/90/72
f 1464/103/73 1468/90/73 1469/92/73
f 1465/104/74 1469/90/74 1470/92/74
f 1466/105/75 1465/88/75 1470/106/75
f 1467/92/76 1466/87/76 1470/107/76
f 1468/90/77 1467/108/77 1470/109/77
f 1469/88/78 1468/110/78 1470/87/78
