# Blender 5.0.1
# www.blender.org
mtllib plague_column.mtl
o plague_column
v -0.600000 0.000000 0.600000
v -0.600000 0.240000 0.600000
v -0.600000 0.000000 -0.600000
v -0.600000 0.240000 -0.600000
v 0.600000 0.000000 0.600000
v 0.600000 0.240000 0.600000
v 0.600000 0.000000 -0.600000
v 0.600000 0.240000 -0.600000
v -0.620000 0.215000 0.620000
v -0.620000 0.265000 0.620000
v -0.620000 0.215000 -0.620000
v -0.620000 0.265000 -0.620000
v 0.620000 0.215000 0.620000
v 0.620000 0.265000 0.620000
v 0.620000 0.215000 -0.620000
v 0.620000 0.265000 -0.620000
v -0.460000 0.240000 0.460000
v -0.460000 0.480000 0.460000
v -0.460000 0.240000 -0.460000
v -0.460000 0.480000 -0.460000
v 0.460000 0.240000 0.460000
v 0.460000 0.480000 0.460000
v 0.460000 0.240000 -0.460000
v 0.460000 0.480000 -0.460000
v -0.480000 0.455000 0.480000
v -0.480000 0.505000 0.480000
v -0.480000 0.455000 -0.480000
v -0.480000 0.505000 -0.480000
v 0.480000 0.455000 0.480000
v 0.480000 0.505000 0.480000
v 0.480000 0.455000 -0.480000
v 0.480000 0.505000 -0.480000
v -0.340000 0.480000 0.340000
v -0.340000 0.720000 0.340000
v -0.340000 0.480000 -0.340000
v -0.340000 0.720000 -0.340000
v 0.340000 0.480000 0.340000
v 0.340000 0.720000 0.340000
v 0.340000 0.480000 -0.340000
v 0.340000 0.720000 -0.340000
v -0.360000 0.695000 0.360000
v -0.360000 0.745000 0.360000
v -0.360000 0.695000 -0.360000
v -0.360000 0.745000 -0.360000
v 0.360000 0.695000 0.360000
v 0.360000 0.745000 0.360000
v 0.360000 0.695000 -0.360000
v 0.360000 0.745000 -0.360000
v -0.300000 0.140000 0.620000
v -0.227640 0.195278 0.672572
v -0.327639 0.195278 0.705064
v -0.389443 0.195278 0.620000
v -0.327639 0.195278 0.534936
v -0.227640 0.195278 0.567428
v -0.272362 0.284721 0.705064
v -0.372360 0.284721 0.672572
v -0.372360 0.284721 0.567428
v -0.272362 0.284721 0.534936
v -0.210558 0.284721 0.620000
v -0.300000 0.340000 0.620000
v -0.375000 0.127500 0.695000
v -0.375000 0.242500 0.695000
v -0.375000 0.127500 0.595000
v -0.375000 0.242500 0.595000
v -0.225000 0.127500 0.695000
v -0.225000 0.242500 0.695000
v -0.225000 0.127500 0.595000
v -0.225000 0.242500 0.595000
v -0.360000 0.110000 0.702500
v -0.360000 0.160000 0.702500
v -0.360000 0.110000 0.617500
v -0.360000 0.160000 0.617500
v -0.240000 0.110000 0.702500
v -0.240000 0.160000 0.702500
v -0.240000 0.110000 0.617500
v -0.240000 0.160000 0.617500
v -0.363000 0.192000 0.719000
v -0.363000 0.232000 0.719000
v -0.363000 0.192000 0.677000
v -0.363000 0.232000 0.677000
v -0.321000 0.192000 0.719000
v -0.321000 0.232000 0.719000
v -0.321000 0.192000 0.677000
v -0.321000 0.232000 0.677000
v -0.279000 0.192000 0.719000
v -0.279000 0.232000 0.719000
v -0.279000 0.192000 0.677000
v -0.279000 0.232000 0.677000
v -0.237000 0.192000 0.719000
v -0.237000 0.232000 0.719000
v -0.237000 0.192000 0.677000
v -0.237000 0.232000 0.677000
v -0.312000 0.158000 0.719000
v -0.312000 0.190000 0.719000
v -0.312000 0.158000 0.685000
v -0.312000 0.190000 0.685000
v -0.288000 0.158000 0.719000
v -0.288000 0.190000 0.719000
v -0.288000 0.158000 0.685000
v -0.288000 0.190000 0.685000
v -0.347500 0.115000 0.710000
v -0.347500 0.155000 0.710000
v -0.347500 0.115000 0.690000
v -0.347500 0.155000 0.690000
v -0.342500 0.115000 0.710000
v -0.342500 0.155000 0.710000
v -0.342500 0.115000 0.690000
v -0.342500 0.155000 0.690000
v -0.317500 0.115000 0.710000
v -0.317500 0.155000 0.710000
v -0.317500 0.115000 0.690000
v -0.317500 0.155000 0.690000
v -0.312500 0.115000 0.710000
v -0.312500 0.155000 0.710000
v -0.312500 0.115000 0.690000
v -0.312500 0.155000 0.690000
v -0.287500 0.115000 0.710000
v -0.287500 0.155000 0.710000
v -0.287500 0.115000 0.690000
v -0.287500 0.155000 0.690000
v -0.282500 0.115000 0.710000
v -0.282500 0.155000 0.710000
v -0.282500 0.115000 0.690000
v -0.282500 0.155000 0.690000
v -0.257500 0.115000 0.710000
v -0.257500 0.155000 0.710000
v -0.257500 0.115000 0.690000
v -0.257500 0.155000 0.690000
v -0.252500 0.115000 0.710000
v -0.252500 0.155000 0.710000
v -0.252500 0.115000 0.690000
v -0.252500 0.155000 0.690000
v 0.300000 0.140000 0.620000
v 0.372360 0.195278 0.672572
v 0.272362 0.195278 0.705064
v 0.210558 0.195278 0.620000
v 0.272362 0.195278 0.534936
v 0.372360 0.195278 0.567428
v 0.327639 0.284721 0.705064
v 0.227640 0.284721 0.672572
v 0.227640 0.284721 0.567428
v 0.327639 0.284721 0.534936
v 0.389443 0.284721 0.620000
v 0.300000 0.340000 0.620000
v 0.225000 0.127500 0.695000
v 0.225000 0.242500 0.695000
v 0.225000 0.127500 0.595000
v 0.225000 0.242500 0.595000
v 0.375000 0.127500 0.695000
v 0.375000 0.242500 0.695000
v 0.375000 0.127500 0.595000
v 0.375000 0.242500 0.595000
v 0.240000 0.110000 0.702500
v 0.240000 0.160000 0.702500
v 0.240000 0.110000 0.617500
v 0.240000 0.160000 0.617500
v 0.360000 0.110000 0.702500
v 0.360000 0.160000 0.702500
v 0.360000 0.110000 0.617500
v 0.360000 0.160000 0.617500
v 0.237000 0.192000 0.719000
v 0.237000 0.232000 0.719000
v 0.237000 0.192000 0.677000
v 0.237000 0.232000 0.677000
v 0.279000 0.192000 0.719000
v 0.279000 0.232000 0.719000
v 0.279000 0.192000 0.677000
v 0.279000 0.232000 0.677000
v 0.321000 0.192000 0.719000
v 0.321000 0.232000 0.719000
v 0.321000 0.192000 0.677000
v 0.321000 0.232000 0.677000
v 0.363000 0.192000 0.719000
v 0.363000 0.232000 0.719000
v 0.363000 0.192000 0.677000
v 0.363000 0.232000 0.677000
v 0.288000 0.158000 0.719000
v 0.288000 0.190000 0.719000
v 0.288000 0.158000 0.685000
v 0.288000 0.190000 0.685000
v 0.312000 0.158000 0.719000
v 0.312000 0.190000 0.719000
v 0.312000 0.158000 0.685000
v 0.312000 0.190000 0.685000
v 0.252500 0.115000 0.710000
v 0.252500 0.155000 0.710000
v 0.252500 0.115000 0.690000
v 0.252500 0.155000 0.690000
v 0.257500 0.115000 0.710000
v 0.257500 0.155000 0.710000
v 0.257500 0.115000 0.690000
v 0.257500 0.155000 0.690000
v 0.282500 0.115000 0.710000
v 0.282500 0.155000 0.710000
v 0.282500 0.115000 0.690000
v 0.282500 0.155000 0.690000
v 0.287500 0.115000 0.710000
v 0.287500 0.155000 0.710000
v 0.287500 0.115000 0.690000
v 0.287500 0.155000 0.690000
v 0.312500 0.115000 0.710000
v 0.312500 0.155000 0.710000
v 0.312500 0.115000 0.690000
v 0.312500 0.155000 0.690000
v 0.317500 0.115000 0.710000
v 0.317500 0.155000 0.710000
v 0.317500 0.115000 0.690000
v 0.317500 0.155000 0.690000
v 0.342500 0.115000 0.710000
v 0.342500 0.155000 0.710000
v 0.342500 0.115000 0.690000
v 0.342500 0.155000 0.690000
v 0.347500 0.115000 0.710000
v 0.347500 0.155000 0.710000
v 0.347500 0.115000 0.690000
v 0.347500 0.155000 0.690000
v 0.000000 0.410000 0.480000
v 0.065124 0.459751 0.527315
v -0.024875 0.459751 0.556558
v -0.080498 0.459751 0.480000
v -0.024875 0.459751 0.403442
v 0.065124 0.459751 0.432685
v 0.024875 0.540249 0.556558
v -0.065124 0.540249 0.527315
v -0.065124 0.540249 0.432685
v 0.024875 0.540249 0.403442
v 0.080498 0.540249 0.480000
v 0.000000 0.590000 0.480000
v -0.067500 0.398750 0.547500
v -0.067500 0.502250 0.547500
v -0.067500 0.398750 0.457500
v -0.067500 0.502250 0.457500
v 0.067500 0.398750 0.547500
v 0.067500 0.502250 0.547500
v 0.067500 0.398750 0.457500
v 0.067500 0.502250 0.457500
v -0.054000 0.383000 0.554250
v -0.054000 0.428000 0.554250
v -0.054000 0.383000 0.477750
v -0.054000 0.428000 0.477750
v 0.054000 0.383000 0.554250
v 0.054000 0.428000 0.554250
v 0.054000 0.383000 0.477750
v 0.054000 0.428000 0.477750
v -0.056700 0.456800 0.569100
v -0.056700 0.492800 0.569100
v -0.056700 0.456800 0.531300
v -0.056700 0.492800 0.531300
v -0.018900 0.456800 0.569100
v -0.018900 0.492800 0.569100
v -0.018900 0.456800 0.531300
v -0.018900 0.492800 0.531300
v 0.018900 0.456800 0.569100
v 0.018900 0.492800 0.569100
v 0.018900 0.456800 0.531300
v 0.018900 0.492800 0.531300
v 0.056700 0.456800 0.569100
v 0.056700 0.492800 0.569100
v 0.056700 0.456800 0.531300
v 0.056700 0.492800 0.531300
v -0.010800 0.426200 0.569100
v -0.010800 0.455000 0.569100
v -0.010800 0.426200 0.538500
v -0.010800 0.455000 0.538500
v 0.010800 0.426200 0.569100
v 0.010800 0.455000 0.569100
v 0.010800 0.426200 0.538500
v 0.010800 0.455000 0.538500
v -0.042750 0.387500 0.561000
v -0.042750 0.423500 0.561000
v -0.042750 0.387500 0.543000
v -0.042750 0.423500 0.543000
v -0.038250 0.387500 0.561000
v -0.038250 0.423500 0.561000
v -0.038250 0.387500 0.543000
v -0.038250 0.423500 0.543000
v -0.015750 0.387500 0.561000
v -0.015750 0.423500 0.561000
v -0.015750 0.387500 0.543000
v -0.015750 0.423500 0.543000
v -0.011250 0.387500 0.561000
v -0.011250 0.423500 0.561000
v -0.011250 0.387500 0.543000
v -0.011250 0.423500 0.543000
v 0.011250 0.387500 0.561000
v 0.011250 0.423500 0.561000
v 0.011250 0.387500 0.543000
v 0.011250 0.423500 0.543000
v 0.015750 0.387500 0.561000
v 0.015750 0.423500 0.561000
v 0.015750 0.387500 0.543000
v 0.015750 0.423500 0.543000
v 0.038250 0.387500 0.561000
v 0.038250 0.423500 0.561000
v 0.038250 0.387500 0.543000
v 0.038250 0.423500 0.543000
v 0.042750 0.387500 0.561000
v 0.042750 0.423500 0.561000
v 0.042750 0.387500 0.543000
v 0.042750 0.423500 0.543000
v 0.000000 0.900000 -0.180000
v 0.000000 2.500000 -0.180000
v 0.127279 0.900000 -0.127279
v 0.127279 2.500000 -0.127279
v 0.180000 0.900000 0.000000
v 0.180000 2.500000 0.000000
v 0.127279 0.900000 0.127279
v 0.127279 2.500000 0.127279
v 0.000000 0.900000 0.180000
v 0.000000 2.500000 0.180000
v -0.127279 0.900000 0.127279
v -0.127279 2.500000 0.127279
v -0.180000 0.900000 0.000000
v -0.180000 2.500000 0.000000
v -0.127279 0.900000 -0.127279
v -0.127279 2.500000 -0.127279
v 0.000000 1.080000 -0.200000
v 0.000000 1.120000 -0.200000
v 0.141421 1.080000 -0.141421
v 0.141421 1.120000 -0.141421
v 0.200000 1.080000 0.000000
v 0.200000 1.120000 0.000000
v 0.141421 1.080000 0.141421
v 0.141421 1.120000 0.141421
v 0.000000 1.080000 0.200000
v 0.000000 1.120000 0.200000
v -0.141421 1.080000 0.141421
v -0.141421 1.120000 0.141421
v -0.200000 1.080000 0.000000
v -0.200000 1.120000 0.000000
v -0.141421 1.080000 -0.141421
v -0.141421 1.120000 -0.141421
v 0.000000 1.480000 -0.200000
v 0.000000 1.520000 -0.200000
v 0.141421 1.480000 -0.141421
v 0.141421 1.520000 -0.141421
v 0.200000 1.480000 0.000000
v 0.200000 1.520000 0.000000
v 0.141421 1.480000 0.141421
v 0.141421 1.520000 0.141421
v 0.000000 1.480000 0.200000
v 0.000000 1.520000 0.200000
v -0.141421 1.480000 0.141421
v -0.141421 1.520000 0.141421
v -0.200000 1.480000 0.000000
v -0.200000 1.520000 0.000000
v -0.141421 1.480000 -0.141421
v -0.141421 1.520000 -0.141421
v 0.000000 1.880000 -0.200000
v 0.000000 1.920000 -0.200000
v 0.141421 1.880000 -0.141421
v 0.141421 1.920000 -0.141421
v 0.200000 1.880000 0.000000
v 0.200000 1.920000 0.000000
v 0.141421 1.880000 0.141421
v 0.141421 1.920000 0.141421
v 0.000000 1.880000 0.200000
v 0.000000 1.920000 0.200000
v -0.141421 1.880000 0.141421
v -0.141421 1.920000 0.141421
v -0.200000 1.880000 0.000000
v -0.200000 1.920000 0.000000
v -0.141421 1.880000 -0.141421
v -0.141421 1.920000 -0.141421
v 0.000000 2.280000 -0.200000
v 0.000000 2.320000 -0.200000
v 0.141421 2.280000 -0.141421
v 0.141421 2.320000 -0.141421
v 0.200000 2.280000 0.000000
v 0.200000 2.320000 0.000000
v 0.141421 2.280000 0.141421
v 0.141421 2.320000 0.141421
v 0.000000 2.280000 0.200000
v 0.000000 2.320000 0.200000
v -0.141421 2.280000 0.141421
v -0.141421 2.320000 0.141421
v -0.200000 2.280000 0.000000
v -0.200000 2.320000 0.000000
v -0.141421 2.280000 -0.141421
v -0.141421 2.320000 -0.141421
v 0.000000 2.500000 -0.260000
v 0.000000 2.599999 -0.260000
v 0.183848 2.500000 -0.183848
v 0.183848 2.599999 -0.183848
v 0.260000 2.500000 0.000000
v 0.260000 2.599999 0.000000
v 0.183848 2.500000 0.183848
v 0.183848 2.599999 0.183848
v 0.000000 2.500000 0.260000
v 0.000000 2.599999 0.260000
v -0.183848 2.500000 0.183848
v -0.183848 2.599999 0.183848
v -0.260000 2.500000 0.000000
v -0.260000 2.599999 0.000000
v -0.183848 2.500000 -0.183848
v -0.183848 2.599999 -0.183848
v -0.150000 2.590000 0.150000
v -0.150000 2.690000 0.150000
v -0.150000 2.590000 -0.150000
v -0.150000 2.690000 -0.150000
v 0.150000 2.590000 0.150000
v 0.150000 2.690000 0.150000
v 0.150000 2.590000 -0.150000
v 0.150000 2.690000 -0.150000
v 0.000000 2.730000 0.000000
v 0.086832 2.796334 0.063086
v -0.033166 2.796334 0.102077
v -0.107331 2.796334 0.000000
v -0.033166 2.796334 -0.102077
v 0.086832 2.796334 -0.063086
v 0.033166 2.903665 0.102077
v -0.086832 2.903665 0.063086
v -0.086832 2.903665 -0.063086
v 0.033166 2.903665 -0.102077
v 0.107331 2.903665 0.000000
v 0.000000 2.970000 0.000000
v 0.100000 2.830000 0.020000
v 0.100000 2.869999 0.020000
v 0.100000 2.830000 -0.020000
v 0.100000 2.869999 -0.020000
v 0.260000 2.830000 0.020000
v 0.260000 2.869999 0.020000
v 0.260000 2.830000 -0.020000
v 0.260000 2.869999 -0.020000
v 0.084853 2.830000 -0.056569
v 0.084853 2.869999 -0.056569
v 0.056569 2.830000 -0.084853
v 0.056569 2.869999 -0.084853
v 0.197990 2.830000 -0.169706
v 0.197990 2.869999 -0.169706
v 0.169706 2.830000 -0.197990
v 0.169706 2.869999 -0.197990
v 0.020000 2.830000 -0.100000
v 0.020000 2.869999 -0.100000
v -0.020000 2.830000 -0.100000
v -0.020000 2.869999 -0.100000
v 0.020000 2.830000 -0.260000
v 0.020000 2.869999 -0.260000
v -0.020000 2.830000 -0.260000
v -0.020000 2.869999 -0.260000
v -0.056569 2.830000 -0.084853
v -0.056569 2.869999 -0.084853
v -0.084853 2.830000 -0.056569
v -0.084853 2.869999 -0.056569
v -0.169706 2.830000 -0.197990
v -0.169706 2.869999 -0.197990
v -0.197990 2.830000 -0.169706
v -0.197990 2.869999 -0.169706
v -0.100000 2.830000 -0.020000
v -0.100000 2.869999 -0.020000
v -0.100000 2.830000 0.020000
v -0.100000 2.869999 0.020000
v -0.260000 2.830000 -0.020000
v -0.260000 2.869999 -0.020000
v -0.260000 2.830000 0.020000
v -0.260000 2.869999 0.020000
v -0.084853 2.830000 0.056569
v -0.084853 2.869999 0.056569
v -0.056569 2.830000 0.084853
v -0.056569 2.869999 0.084853
v -0.197990 2.830000 0.169706
v -0.197990 2.869999 0.169706
v -0.169706 2.830000 0.197990
v -0.169706 2.869999 0.197990
v -0.020000 2.830000 0.100000
v -0.020000 2.869999 0.100000
v 0.020000 2.830000 0.100000
v 0.020000 2.869999 0.100000
v -0.020000 2.830000 0.260000
v -0.020000 2.869999 0.260000
v 0.020000 2.830000 0.260000
v 0.020000 2.869999 0.260000
v 0.056569 2.830000 0.084853
v 0.056569 2.869999 0.084853
v 0.084853 2.830000 0.056569
v 0.084853 2.869999 0.056569
v 0.169706 2.830000 0.197990
v 0.169706 2.869999 0.197990
v 0.197990 2.830000 0.169706
v 0.197990 2.869999 0.169706
v 0.000000 2.900000 -0.020000
v 0.000000 3.200000 -0.020000
v 0.017321 2.900000 -0.010000
v 0.017321 3.200000 -0.010000
v 0.017321 2.900000 0.010000
v 0.017321 3.200000 0.010000
v 0.000000 2.900000 0.020000
v 0.000000 3.200000 0.020000
v -0.017321 2.900000 0.010000
v -0.017321 3.200000 0.010000
v -0.017321 2.900000 -0.010000
v -0.017321 3.200000 -0.010000
v 0.000000 2.692500 -0.140000
v 0.000000 2.707500 -0.140000
v 0.082290 2.692500 -0.113262
v 0.082290 2.707500 -0.113262
v 0.133148 2.692500 -0.043262
v 0.133148 2.707500 -0.043262
v 0.133148 2.692500 0.043262
v 0.133148 2.707500 0.043262
v 0.082290 2.692500 0.113262
v 0.082290 2.707500 0.113262
v 0.000000 2.692500 0.140000
v 0.000000 2.707500 0.140000
v -0.082290 2.692500 0.113262
v -0.082290 2.707500 0.113262
v -0.133148 2.692500 0.043262
v -0.133148 2.707500 0.043262
v -0.133148 2.692500 -0.043262
v -0.133148 2.707500 -0.043262
v -0.082290 2.692500 -0.113262
v -0.082290 2.707500 -0.113262
v 0.300000 -0.030000 -0.519615
v 0.365124 0.019751 -0.472300
v 0.275125 0.019751 -0.443058
v 0.219502 0.019751 -0.519615
v 0.275125 0.019751 -0.596173
v 0.365124 0.019751 -0.566930
v 0.324875 0.100249 -0.443058
v 0.234876 0.100249 -0.472300
v 0.234876 0.100249 -0.566930
v 0.324875 0.100249 -0.596173
v 0.380498 0.100249 -0.519615
v 0.300000 0.150000 -0.519615
v -0.563816 -0.030000 0.205212
v -0.498692 0.019751 0.252527
v -0.588690 0.019751 0.281770
v -0.644314 0.019751 0.205212
v -0.588690 0.019751 0.128654
v -0.498692 0.019751 0.157897
v -0.538941 0.100249 0.281770
v -0.628940 0.100249 0.252527
v -0.628940 0.100249 0.157897
v -0.538941 0.100249 0.128654
v -0.483317 0.100249 0.205212
v -0.563816 0.150000 0.205212
v 0.459627 -0.030000 0.385673
v 0.524751 0.019751 0.432987
v 0.434752 0.019751 0.462230
v 0.379128 0.019751 0.385673
v 0.434752 0.019751 0.309115
v 0.524751 0.019751 0.338358
v 0.484501 0.100249 0.462230
v 0.394503 0.100249 0.432987
v 0.394503 0.100249 0.338358
v 0.484501 0.100249 0.309115
v 0.540125 0.100249 0.385673
v 0.459627 0.150000 0.385673
vn -1.0000 -0.0000 -0.0000
vn -0.0000 -0.0000 -1.0000
vn 1.0000 -0.0000 -0.0000
vn -0.0000 -0.0000 1.0000
vn -0.0000 -1.0000 -0.0000
vn -0.0000 1.0000 -0.0000
vn 0.1876 -0.7947 0.5774
vn 0.6071 -0.7947 -0.0000
vn -0.4911 -0.7947 0.3568
vn -0.4911 -0.7947 -0.3568
vn 0.1876 -0.7947 -0.5774
vn 0.9822 -0.1876 -0.0000
vn 0.3035 -0.1876 0.9342
vn -0.7946 -0.1876 0.5774
vn -0.7946 -0.1876 -0.5774
vn 0.3035 -0.1876 -0.9342
vn 0.7946 0.1876 0.5774
vn -0.3035 0.1876 0.9342
vn -0.9822 0.1876 -0.0000
vn -0.3035 0.1876 -0.9342
vn 0.7946 0.1876 -0.5774
vn 0.4911 0.7947 0.3568
vn -0.1876 0.7947 0.5774
vn -0.6071 0.7947 -0.0000
vn -0.1876 0.7947 -0.5774
vn 0.4911 0.7947 -0.3568
vn 0.3827 -0.0000 -0.9239
vn 0.9239 -0.0000 -0.3827
vn 0.9239 -0.0000 0.3827
vn 0.3827 -0.0000 0.9239
vn -0.3827 -0.0000 0.9239
vn -0.9239 -0.0000 0.3827
vn -0.9239 -0.0000 -0.3827
vn -0.3827 -0.0000 -0.9239
vn -0.7947 -0.1876 0.5774
vn -0.7947 -0.1876 -0.5774
vn -0.7071 -0.0000 0.7071
vn -0.7071 -0.0000 -0.7071
vn 0.7071 -0.0000 -0.7071
vn 0.7071 -0.0000 0.7071
vn 0.5000 -0.0000 -0.8660
vn 0.5000 -0.0000 0.8660
vn -0.5000 -0.0000 0.8660
vn -0.5000 -0.0000 -0.8660
vn 0.3090 -0.0000 -0.9511
vn 0.8090 -0.0000 -0.5878
vn 0.8090 -0.0000 0.5878
vn 0.3090 -0.0000 0.9511
vn -0.3090 -0.0000 0.9511
vn -0.8090 -0.0000 0.5878
vn -0.8090 -0.0000 -0.5878
vn -0.3090 -0.0000 -0.9511
vt 0.375000 0.000000
vt 0.625000 0.000000
vt 0.625000 0.250000
vt 0.375000 0.250000
vt 0.625000 0.500000
vt 0.375000 0.500000
vt 0.625000 0.750000
vt 0.375000 0.750000
vt 0.625000 1.000000
vt 0.375000 1.000000
vt 0.125000 0.500000
vt 0.125000 0.750000
vt 0.875000 0.500000
vt 0.875000 0.750000
vt 0.181819 0.000000
vt 0.272728 0.157461
vt 0.090910 0.157461
vt 0.363637 0.000000
vt 0.454546 0.157461
vt 0.909091 0.000000
vt 1.000000 0.157461
vt 0.818182 0.157461
vt 0.727273 0.000000
vt 0.636364 0.157461
vt 0.545455 0.000000
vt 0.363637 0.314921
vt 0.181819 0.314921
vt 0.909091 0.314921
vt 0.727273 0.314921
vt 0.545455 0.314921
vt 0.000000 0.314921
vt 0.272728 0.472382
vt 0.090910 0.472382
vt 0.818182 0.472382
vt 0.636364 0.472382
vt 0.454546 0.472382
vt 1.000000 0.500000
vt 1.000000 1.000000
vt 0.875000 1.000000
vt 0.750000 1.000000
vt 0.750000 0.500000
vt 0.500000 1.000000
vt 0.500000 0.500000
vt 0.250000 1.000000
vt 0.250000 0.500000
vt 0.419706 0.419706
vt 0.250000 0.490000
vt 0.080294 0.419706
vt 0.010000 0.250000
vt 0.080294 0.080294
vt 0.250000 0.010000
vt 0.419706 0.080294
vt 0.490000 0.250000
vt 0.125000 1.000000
vt 0.000000 1.000000
vt 0.000000 0.500000
vt 0.750000 0.490000
vt 0.919706 0.419706
vt 0.990000 0.250000
vt 0.919706 0.080294
vt 0.750000 0.010000
vt 0.580294 0.080294
vt 0.510000 0.250000
vt 0.580294 0.419706
vt 0.080294 0.419706
vt 0.080294 0.080294
vt 0.419706 0.080294
vt 0.919706 0.080294
vt 0.580294 0.080294
vt 0.833333 1.000000
vt 0.833333 0.500000
vt 0.666667 1.000000
vt 0.666667 0.500000
vt 0.500000 1.000000
vt 0.500000 0.500000
vt 0.333333 1.000000
vt 0.333333 0.500000
vt 0.457846 0.370000
vt 0.042154 0.370000
vt 0.042154 0.130000
vt 0.457846 0.130000
vt 0.166667 1.000000
vt 0.166667 0.500000
vt -0.000000 1.000000
vt -0.000000 0.500000
vt 0.957846 0.370000
vt 0.957846 0.130000
vt 0.542154 0.130000
vt 0.542154 0.370000
vt 0.900000 1.000000
vt 0.900000 0.500000
vt 0.800000 1.000000
vt 0.800000 0.500000
vt 0.700000 1.000000
vt 0.700000 0.500000
vt 0.600000 1.000000
vt 0.600000 0.500000
vt 0.500000 1.000000
vt 0.500000 0.500000
vt 0.400000 1.000000
vt 0.400000 0.500000
vt 0.300000 1.000000
vt 0.300000 0.500000
vt 0.200000 1.000000
vt 0.200000 0.500000
vt 0.391068 0.444164
vt 0.250000 0.490000
vt 0.108932 0.444164
vt 0.021746 0.324164
vt 0.021746 0.175836
vt 0.108932 0.055836
vt 0.250000 0.010000
vt 0.391068 0.055836
vt 0.478254 0.175836
vt 0.478254 0.324164
vt 0.100000 1.000000
vt 0.100000 0.500000
vt -0.000000 1.000000
vt -0.000000 0.500000
vt 0.750000 0.490000
vt 0.891068 0.444164
vt 0.978254 0.324164
vt 0.978254 0.175836
vt 0.891068 0.055836
vt 0.750000 0.010000
vt 0.608932 0.055836
vt 0.521746 0.175836
vt 0.521746 0.324164
vt 0.608932 0.444164
s 0
usemtl stone
f 1/1/1 2/2/1 4/3/1 3/4/1
f 3/4/2 4/3/2 8/5/2 7/6/2
f 7/6/3 8/5/3 6/7/3 5/8/3
f 5/8/4 6/7/4 2/9/4 1/10/4
f 3/11/5 7/6/5 5/8/5 1/12/5
f 8/5/6 4/13/6 2/14/6 6/7/6
f 17/1/1 18/2/1 20/3/1 19/4/1
f 19/4/2 20/3/2 24/5/2 23/6/2
f 23/6/3 24/5/3 22/7/3 21/8/3
f 21/8/4 22/7/4 18/9/4 17/10/4
f 19/11/5 23/6/5 21/8/5 17/12/5
f 24/5/6 20/13/6 18/14/6 22/7/6
f 33/1/1 34/2/1 36/3/1 35/4/1
f 35/4/2 36/3/2 40/5/2 39/6/2
f 39/6/3 40/5/3 38/7/3 37/8/3
f 37/8/4 38/7/4 34/9/4 33/10/4
f 35/11/5 39/6/5 37/8/5 33/12/5
f 40/5/6 36/13/6 34/14/6 38/7/6
f 301/37/27 302/38/27 304/39/27 303/13/27
f 303/13/28 304/39/28 306/40/28 305/41/28
f 305/41/29 306/40/29 308/9/29 307/5/29
f 307/5/30 308/9/30 310/42/30 309/43/30
f 309/43/31 310/42/31 312/10/31 311/6/31
f 311/6/32 312/10/32 314/44/32 313/45/32
f 304/46/6 302/47/6 316/48/6 314/49/6 312/50/6 310/51/6 308/52/6 306/53/6
f 313/45/33 314/44/33 316/54/33 315/11/33
f 315/11/34 316/54/34 302/55/34 301/56/34
f 301/57/5 303/58/5 305/59/5 307/60/5 309/61/5 311/62/5 313/63/5 315/64/5
f 381/37/27 382/38/27 384/39/27 383/13/27
f 383/13/28 384/39/28 386/40/28 385/41/28
f 385/41/29 386/40/29 388/9/29 387/5/29
f 387/5/30 388/9/30 390/42/30 389/43/30
f 389/43/31 390/42/31 392/10/31 391/6/31
f 391/6/32 392/10/32 394/44/32 393/45/32
f 384/46/6 382/47/6 396/48/6 394/49/6 392/50/6 390/51/6 388/52/6 386/53/6
f 393/45/33 394/44/33 396/54/33 395/11/33
f 395/11/34 396/54/34 382/55/34 381/56/34
f 381/57/5 383/58/5 385/59/5 387/60/5 389/61/5 391/62/5 393/63/5 395/64/5
usemtl stone_dk
f 9/1/1 10/2/1 12/3/1 11/4/1
f 11/4/2 12/3/2 16/5/2 15/6/2
f 15/6/3 16/5/3 14/7/3 13/8/3
f 13/8/4 14/7/4 10/9/4 9/10/4
f 11/11/5 15/6/5 13/8/5 9/12/5
f 16/5/6 12/13/6 10/14/6 14/7/6
f 25/1/1 26/2/1 28/3/1 27/4/1
f 27/4/2 28/3/2 32/5/2 31/6/2
f 31/6/3 32/5/3 30/7/3 29/8/3
f 29/8/4 30/7/4 26/9/4 25/10/4
f 27/11/5 31/6/5 29/8/5 25/12/5
f 32/5/6 28/13/6 26/14/6 30/7/6
f 41/1/1 42/2/1 44/3/1 43/4/1
f 43/4/2 44/3/2 48/5/2 47/6/2
f 47/6/3 48/5/3 46/7/3 45/8/3
f 45/8/4 46/7/4 42/9/4 41/10/4
f 43/11/5 47/6/5 45/8/5 41/12/5
f 48/5/6 44/13/6 42/14/6 46/7/6
f 317/37/27 318/38/27 320/39/27 319/13/27
f 319/13/28 320/39/28 322/40/28 321/41/28
f 321/41/29 322/40/29 324/9/29 323/5/29
f 323/5/30 324/9/30 326/42/30 325/43/30
f 325/43/31 326/42/31 328/10/31 327/6/31
f 327/6/32 328/10/32 330/44/32 329/45/32
f 320/46/6 318/47/6 332/65/6 330/49/6 328/66/6 326/51/6 324/67/6 322/53/6
f 329/45/33 330/44/33 332/54/33 331/11/33
f 331/11/34 332/54/34 318/55/34 317/56/34
f 317/57/5 319/58/5 321/59/5 323/68/5 325/61/5 327/69/5 329/63/5 331/64/5
f 333/37/27 334/38/27 336/39/27 335/13/27
f 335/13/28 336/39/28 338/40/28 337/41/28
f 337/41/29 338/40/29 340/9/29 339/5/29
f 339/5/30 340/9/30 342/42/30 341/43/30
f 341/43/31 342/42/31 344/10/31 343/6/31
f 343/6/32 344/10/32 346/44/32 345/45/32
f 336/46/6 334/47/6 348/65/6 346/49/6 344/66/6 342/51/6 340/67/6 338/53/6
f 345/45/33 346/44/33 348/54/33 347/11/33
f 347/11/34 348/54/34 334/55/34 333/56/34
f 333/57/5 335/58/5 337/59/5 339/68/5 341/61/5 343/69/5 345/63/5 347/64/5
f 349/37/27 350/38/27 352/39/27 351/13/27
f 351/13/28 352/39/28 354/40/28 353/41/28
f 353/41/29 354/40/29 356/9/29 355/5/29
f 355/5/30 356/9/30 358/42/30 357/43/30
f 357/43/31 358/42/31 360/10/31 359/6/31
f 359/6/32 360/10/32 362/44/32 361/45/32
f 352/46/6 350/47/6 364/65/6 362/49/6 360/66/6 358/51/6 356/67/6 354/53/6
f 361/45/33 362/44/33 364/54/33 363/11/33
f 363/11/34 364/54/34 350/55/34 349/56/34
f 349/57/5 351/58/5 353/59/5 355/68/5 357/61/5 359/69/5 361/63/5 363/64/5
f 365/37/27 366/38/27 368/39/27 367/13/27
f 367/13/28 368/39/28 370/40/28 369/41/28
f 369/41/29 370/40/29 372/9/29 371/5/29
f 371/5/30 372/9/30 374/42/30 373/43/30
f 373/43/31 374/42/31 376/10/31 375/6/31
f 375/6/32 376/10/32 378/44/32 377/45/32
f 368/46/6 366/47/6 380/65/6 378/49/6 376/66/6 374/51/6 372/67/6 370/53/6
f 377/45/33 378/44/33 380/54/33 379/11/33
f 379/11/34 380/54/34 366/55/34 365/56/34
f 365/57/5 367/58/5 369/59/5 371/68/5 373/61/5 375/69/5 377/63/5 379/64/5
f 397/1/1 398/2/1 400/3/1 399/4/1
f 399/4/2 400/3/2 404/5/2 403/6/2
f 403/6/3 404/5/3 402/7/3 401/8/3
f 401/8/4 402/7/4 398/9/4 397/10/4
f 399/11/5 403/6/5 401/8/5 397/12/5
f 404/5/6 400/13/6 398/14/6 402/7/6
usemtl bone
f 49/15/7 50/16/7 51/17/7
f 50/16/8 49/18/8 54/19/8
f 49/20/9 51/21/9 52/22/9
f 49/23/10 52/22/10 53/24/10
f 49/25/11 53/24/11 54/19/11
f 50/16/12 54/19/12 59/26/12
f 51/17/13 50/16/13 55/27/13
f 52/22/14 51/21/14 56/28/14
f 53/24/15 52/22/15 57/29/15
f 54/19/16 53/24/16 58/30/16
f 50/16/17 59/26/17 55/27/17
f 51/17/18 55/27/18 56/31/18
f 52/22/19 56/28/19 57/29/19
f 53/24/20 57/29/20 58/30/20
f 54/19/21 58/30/21 59/26/21
f 55/27/22 59/26/22 60/32/22
f 56/31/23 55/27/23 60/33/23
f 57/29/24 56/28/24 60/34/24
f 58/30/25 57/29/25 60/35/25
f 59/26/26 58/30/26 60/36/26
f 61/1/1 62/2/1 64/3/1 63/4/1
f 63/4/2 64/3/2 68/5/2 67/6/2
f 67/6/3 68/5/3 66/7/3 65/8/3
f 65/8/4 66/7/4 62/9/4 61/10/4
f 63/11/5 67/6/5 65/8/5 61/12/5
f 68/5/6 64/13/6 62/14/6 66/7/6
f 69/1/1 70/2/1 72/3/1 71/4/1
f 71/4/2 72/3/2 76/5/2 75/6/2
f 75/6/3 76/5/3 74/7/3 73/8/3
f 73/8/4 74/7/4 70/9/4 69/10/4
f 71/11/5 75/6/5 73/8/5 69/12/5
f 76/5/6 72/13/6 70/14/6 74/7/6
f 133/15/7 134/16/7 135/17/7
f 134/16/8 133/18/8 138/19/8
f 133/20/9 135/21/9 136/22/9
f 133/23/10 136/22/10 137/24/10
f 133/25/11 137/24/11 138/19/11
f 134/16/12 138/19/12 143/26/12
f 135/17/13 134/16/13 139/27/13
f 136/22/14 135/21/14 140/28/14
f 137/24/15 136/22/15 141/29/15
f 138/19/16 137/24/16 142/30/16
f 134/16/17 143/26/17 139/27/17
f 135/17/18 139/27/18 140/31/18
f 136/22/19 140/28/19 141/29/19
f 137/24/20 141/29/20 142/30/20
f 138/19/21 142/30/21 143/26/21
f 139/27/22 143/26/22 144/32/22
f 140/31/23 139/27/23 144/33/23
f 141/29/24 140/28/24 144/34/24
f 142/30/25 141/29/25 144/35/25
f 143/26/26 142/30/26 144/36/26
f 145/1/1 146/2/1 148/3/1 147/4/1
f 147/4/2 148/3/2 152/5/2 151/6/2
f 151/6/3 152/5/3 150/7/3 149/8/3
f 149/8/4 150/7/4 146/9/4 145/10/4
f 147/11/5 151/6/5 149/8/5 145/12/5
f 152/5/6 148/13/6 146/14/6 150/7/6
f 153/1/1 154/2/1 156/3/1 155/4/1
f 155/4/2 156/3/2 160/5/2 159/6/2
f 159/6/3 160/5/3 158/7/3 157/8/3
f 157/8/4 158/7/4 154/9/4 153/10/4
f 155/11/5 159/6/5 157/8/5 153/12/5
f 160/5/6 156/13/6 154/14/6 158/7/6
f 217/15/7 218/16/7 219/17/7
f 218/16/8 217/18/8 222/19/8
f 217/20/9 219/21/9 220/22/9
f 217/23/10 220/22/10 221/24/10
f 217/25/11 221/24/11 222/19/11
f 218/16/12 222/19/12 227/26/12
f 219/17/13 218/16/13 223/27/13
f 220/22/14 219/21/14 224/28/14
f 221/24/15 220/22/15 225/29/15
f 222/19/16 221/24/16 226/30/16
f 218/16/17 227/26/17 223/27/17
f 219/17/18 223/27/18 224/31/18
f 220/22/19 224/28/19 225/29/19
f 221/24/20 225/29/20 226/30/20
f 222/19/21 226/30/21 227/26/21
f 223/27/22 227/26/22 228/32/22
f 224/31/23 223/27/23 228/33/23
f 225/29/24 224/28/24 228/34/24
f 226/30/25 225/29/25 228/35/25
f 227/26/26 226/30/26 228/36/26
f 229/1/1 230/2/1 232/3/1 231/4/1
f 231/4/2 232/3/2 236/5/2 235/6/2
f 235/6/3 236/5/3 234/7/3 233/8/3
f 233/8/4 234/7/4 230/9/4 229/10/4
f 231/11/5 235/6/5 233/8/5 229/12/5
f 236/5/6 232/13/6 230/14/6 234/7/6
f 237/1/1 238/2/1 240/3/1 239/4/1
f 239/4/2 240/3/2 244/5/2 243/6/2
f 243/6/3 244/5/3 242/7/3 241/8/3
f 241/8/4 242/7/4 238/9/4 237/10/4
f 239/11/5 243/6/5 241/8/5 237/12/5
f 244/5/6 240/13/6 238/14/6 242/7/6
usemtl soot
f 77/1/1 78/2/1 80/3/1 79/4/1
f 79/4/2 80/3/2 84/5/2 83/6/2
f 83/6/3 84/5/3 82/7/3 81/8/3
f 81/8/4 82/7/4 78/9/4 77/10/4
f 79/11/5 83/6/5 81/8/5 77/12/5
f 84/5/6 80/13/6 78/14/6 82/7/6
f 85/1/1 86/2/1 88/3/1 87/4/1
f 87/4/2 88/3/2 92/5/2 91/6/2
f 91/6/3 92/5/3 90/7/3 89/8/3
f 89/8/4 90/7/4 86/9/4 85/10/4
f 87/11/5 91/6/5 89/8/5 85/12/5
f 92/5/6 88/13/6 86/14/6 90/7/6
f 93/1/1 94/2/1 96/3/1 95/4/1
f 95/4/2 96/3/2 100/5/2 99/6/2
f 99/6/3 100/5/3 98/7/3 97/8/3
f 97/8/4 98/7/4 94/9/4 93/10/4
f 95/11/5 99/6/5 97/8/5 93/12/5
f 100/5/6 96/13/6 94/14/6 98/7/6
f 101/1/1 102/2/1 104/3/1 103/4/1
f 103/4/2 104/3/2 108/5/2 107/6/2
f 107/6/3 108/5/3 106/7/3 105/8/3
f 105/8/4 106/7/4 102/9/4 101/10/4
f 103/11/5 107/6/5 105/8/5 101/12/5
f 108/5/6 104/13/6 102/14/6 106/7/6
f 109/1/1 110/2/1 112/3/1 111/4/1
f 111/4/2 112/3/2 116/5/2 115/6/2
f 115/6/3 116/5/3 114/7/3 113/8/3
f 113/8/4 114/7/4 110/9/4 109/10/4
f 111/11/5 115/6/5 113/8/5 109/12/5
f 116/5/6 112/13/6 110/14/6 114/7/6
f 117/1/1 118/2/1 120/3/1 119/4/1
f 119/4/2 120/3/2 124/5/2 123/6/2
f 123/6/3 124/5/3 122/7/3 121/8/3
f 121/8/4 122/7/4 118/9/4 117/10/4
f 119/11/5 123/6/5 121/8/5 117/12/5
f 124/5/6 120/13/6 118/14/6 122/7/6
f 125/1/1 126/2/1 128/3/1 127/4/1
f 127/4/2 128/3/2 132/5/2 131/6/2
f 131/6/3 132/5/3 130/7/3 129/8/3
f 129/8/4 130/7/4 126/9/4 125/10/4
f 127/11/5 131/6/5 129/8/5 125/12/5
f 132/5/6 128/13/6 126/14/6 130/7/6
f 161/1/1 162/2/1 164/3/1 163/4/1
f 163/4/2 164/3/2 168/5/2 167/6/2
f 167/6/3 168/5/3 166/7/3 165/8/3
f 165/8/4 166/7/4 162/9/4 161/10/4
f 163/11/5 167/6/5 165/8/5 161/12/5
f 168/5/6 164/13/6 162/14/6 166/7/6
f 169/1/1 170/2/1 172/3/1 171/4/1
f 171/4/2 172/3/2 176/5/2 175/6/2
f 175/6/3 176/5/3 174/7/3 173/8/3
f 173/8/4 174/7/4 170/9/4 169/10/4
f 171/11/5 175/6/5 173/8/5 169/12/5
f 176/5/6 172/13/6 170/14/6 174/7/6
f 177/1/1 178/2/1 180/3/1 179/4/1
f 179/4/2 180/3/2 184/5/2 183/6/2
f 183/6/3 184/5/3 182/7/3 181/8/3
f 181/8/4 182/7/4 178/9/4 177/10/4
f 179/11/5 183/6/5 181/8/5 177/12/5
f 184/5/6 180/13/6 178/14/6 182/7/6
f 185/1/1 186/2/1 188/3/1 187/4/1
f 187/4/2 188/3/2 192/5/2 191/6/2
f 191/6/3 192/5/3 190/7/3 189/8/3
f 189/8/4 190/7/4 186/9/4 185/10/4
f 187/11/5 191/6/5 189/8/5 185/12/5
f 192/5/6 188/13/6 186/14/6 190/7/6
f 193/1/1 194/2/1 196/3/1 195/4/1
f 195/4/2 196/3/2 200/5/2 199/6/2
f 199/6/3 200/5/3 198/7/3 197/8/3
f 197/8/4 198/7/4 194/9/4 193/10/4
f 195/11/5 199/6/5 197/8/5 193/12/5
f 200/5/6 196/13/6 194/14/6 198/7/6
f 201/1/1 202/2/1 204/3/1 203/4/1
f 203/4/2 204/3/2 208/5/2 207/6/2
f 207/6/3 208/5/3 206/7/3 205/8/3
f 205/8/4 206/7/4 202/9/4 201/10/4
f 203/11/5 207/6/5 205/8/5 201/12/5
f 208/5/6 204/13/6 202/14/6 206/7/6
f 209/1/1 210/2/1 212/3/1 211/4/1
f 211/4/2 212/3/2 216/5/2 215/6/2
f 215/6/3 216/5/3 214/7/3 213/8/3
f 213/8/4 214/7/4 210/9/4 209/10/4
f 211/11/5 215/6/5 213/8/5 209/12/5
f 216/5/6 212/13/6 210/14/6 214/7/6
f 245/1/1 246/2/1 248/3/1 247/4/1
f 247/4/2 248/3/2 252/5/2 251/6/2
f 251/6/3 252/5/3 250/7/3 249/8/3
f 249/8/4 250/7/4 246/9/4 245/10/4
f 247/11/5 251/6/5 249/8/5 245/12/5
f 252/5/6 248/13/6 246/14/6 250/7/6
f 253/1/1 254/2/1 256/3/1 255/4/1
f 255/4/2 256/3/2 260/5/2 259/6/2
f 259/6/3 260/5/3 258/7/3 257/8/3
f 257/8/4 258/7/4 254/9/4 253/10/4
f 255/11/5 259/6/5 257/8/5 253/12/5
f 260/5/6 256/13/6 254/14/6 258/7/6
f 261/1/1 262/2/1 264/3/1 263/4/1
f 263/4/2 264/3/2 268/5/2 267/6/2
f 267/6/3 268/5/3 266/7/3 265/8/3
f 265/8/4 266/7/4 262/9/4 261/10/4
f 263/11/5 267/6/5 265/8/5 261/12/5
f 268/5/6 264/13/6 262/14/6 266/7/6
f 269/1/1 270/2/1 272/3/1 271/4/1
f 271/4/2 272/3/2 276/5/2 275/6/2
f 275/6/3 276/5/3 274/7/3 273/8/3
f 273/8/4 274/7/4 270/9/4 269/10/4
f 271/11/5 275/6/5 273/8/5 269/12/5
f 276/5/6 272/13/6 270/14/6 274/7/6
f 277/1/1 278/2/1 280/3/1 279/4/1
f 279/4/2 280/3/2 284/5/2 283/6/2
f 283/6/3 284/5/3 282/7/3 281/8/3
f 281/8/4 282/7/4 278/9/4 277/10/4
f 279/11/5 283/6/5 281/8/5 277/12/5
f 284/5/6 280/13/6 278/14/6 282/7/6
f 285/1/1 286/2/1 288/3/1 287/4/1
f 287/4/2 288/3/2 292/5/2 291/6/2
f 291/6/3 292/5/3 290/7/3 289/8/3
f 289/8/4 290/7/4 286/9/4 285/10/4
f 287/11/5 291/6/5 289/8/5 285/12/5
f 292/5/6 288/13/6 286/14/6 290/7/6
f 293/1/1 294/2/1 296/3/1 295/4/1
f 295/4/2 296/3/2 300/5/2 299/6/2
f 299/6/3 300/5/3 298/7/3 297/8/3
f 297/8/4 298/7/4 294/9/4 293/10/4
f 295/11/5 299/6/5 297/8/5 293/12/5
f 300/5/6 296/13/6 294/14/6 298/7/6
usemtl gold
f 405/15/7 406/16/7 407/17/7
f 406/16/8 405/18/8 410/19/8
f 405/20/9 407/21/9 408/22/9
f 405/23/10 408/22/10 409/24/10
f 405/25/11 409/24/11 410/19/11
f 406/16/12 410/19/12 415/26/12
f 407/17/13 406/16/13 411/27/13
f 408/22/35 407/21/35 412/28/35
f 409/24/36 408/22/36 413/29/36
f 410/19/16 409/24/16 414/30/16
f 406/16/17 415/26/17 411/27/17
f 407/17/18 411/27/18 412/31/18
f 408/22/19 412/28/19 413/29/19
f 409/24/20 413/29/20 414/30/20
f 410/19/21 414/30/21 415/26/21
f 411/27/22 415/26/22 416/32/22
f 412/31/23 411/27/23 416/33/23
f 413/29/24 412/28/24 416/34/24
f 414/30/25 413/29/25 416/35/25
f 415/26/26 414/30/26 416/36/26
f 417/1/1 418/2/1 420/3/1 419/4/1
f 419/4/2 420/3/2 424/5/2 423/6/2
f 423/6/3 424/5/3 422/7/3 421/8/3
f 421/8/4 422/7/4 418/9/4 417/10/4
f 419/11/5 423/6/5 421/8/5 417/12/5
f 424/5/6 420/13/6 418/14/6 422/7/6
f 425/1/37 426/2/37 428/3/37 427/4/37
f 427/4/38 428/3/38 432/5/38 431/6/38
f 431/6/39 432/5/39 430/7/39 429/8/39
f 429/8/40 430/7/40 426/9/40 425/10/40
f 427/11/5 431/6/5 429/8/5 425/12/5
f 432/5/6 428/13/6 426/14/6 430/7/6
f 433/1/4 434/2/4 436/3/4 435/4/4
f 435/4/1 436/3/1 440/5/1 439/6/1
f 439/6/2 440/5/2 438/7/2 437/8/2
f 437/8/3 438/7/3 434/9/3 433/10/3
f 435/11/5 439/6/5 437/8/5 433/12/5
f 440/5/6 436/13/6 434/14/6 438/7/6
f 441/1/40 442/2/40 444/3/40 443/4/40
f 443/4/37 444/3/37 448/5/37 447/6/37
f 447/6/38 448/5/38 446/7/38 445/8/38
f 445/8/39 446/7/39 442/9/39 441/10/39
f 443/11/5 447/6/5 445/8/5 441/12/5
f 448/5/6 444/13/6 442/14/6 446/7/6
f 449/1/3 450/2/3 452/3/3 451/4/3
f 451/4/4 452/3/4 456/5/4 455/6/4
f 455/6/1 456/5/1 454/7/1 453/8/1
f 453/8/2 454/7/2 450/9/2 449/10/2
f 451/11/5 455/6/5 453/8/5 449/12/5
f 456/5/6 452/13/6 450/14/6 454/7/6
f 457/1/39 458/2/39 460/3/39 459/4/39
f 459/4/40 460/3/40 464/5/40 463/6/40
f 463/6/37 464/5/37 462/7/37 461/8/37
f 461/8/38 462/7/38 458/9/38 457/10/38
f 459/11/5 463/6/5 461/8/5 457/12/5
f 464/5/6 460/13/6 458/14/6 462/7/6
f 465/1/2 466/2/2 468/3/2 467/4/2
f 467/4/3 468/3/3 472/5/3 471/6/3
f 471/6/4 472/5/4 470/7/4 469/8/4
f 469/8/1 470/7/1 466/9/1 465/10/1
f 467/11/5 471/6/5 469/8/5 465/12/5
f 472/5/6 468/13/6 466/14/6 470/7/6
f 473/1/38 474/2/38 476/3/38 475/4/38
f 475/4/39 476/3/39 480/5/39 479/6/39
f 479/6/40 480/5/40 478/7/40 477/8/40
f 477/8/37 478/7/37 474/9/37 473/10/37
f 475/11/5 479/6/5 477/8/5 473/12/5
f 480/5/6 476/13/6 474/14/6 478/7/6
usemtl iron
f 481/37/41 482/38/41 484/70/41 483/71/41
f 483/71/3 484/70/3 486/72/3 485/73/3
f 485/73/42 486/72/42 488/74/42 487/75/42
f 487/75/43 488/74/43 490/76/43 489/77/43
f 484/78/6 482/47/6 492/79/6 490/80/6 488/51/6 486/81/6
f 489/77/1 490/76/1 492/82/1 491/83/1
f 491/83/44 492/82/44 482/84/44 481/85/44
f 481/57/5 483/86/5 485/87/5 487/61/5 489/88/5 491/89/5
usemtl ghostfire
f 493/37/45 494/38/45 496/90/45 495/91/45
f 495/91/46 496/90/46 498/92/46 497/93/46
f 497/93/3 498/92/3 500/94/3 499/95/3
f 499/95/47 500/94/47 502/96/47 501/97/47
f 501/97/48 502/96/48 504/98/48 503/99/48
f 503/99/49 504/98/49 506/100/49 505/101/49
f 505/101/50 506/100/50 508/102/50 507/103/50
f 507/103/1 508/102/1 510/104/1 509/105/1
f 496/106/6 494/107/6 512/108/6 510/109/6 508/110/6 506/111/6 504/112/6 502/113/6 500/114/6 498/115/6
f 509/105/51 510/104/51 512/116/51 511/117/51
f 511/117/52 512/116/52 494/118/52 493/119/52
f 493/120/5 495/121/5 497/122/5 499/123/5 501/124/5 503/125/5 505/126/5 507/127/5 509/128/5 511/129/5
usemtl leaf_dk
f 513/15/7 514/16/7 515/17/7
f 514/16/8 513/18/8 518/19/8
f 513/20/9 515/21/9 516/22/9
f 513/23/10 516/22/10 517/24/10
f 513/25/11 517/24/11 518/19/11
f 514/16/12 518/19/12 523/26/12
f 515/17/13 514/16/13 519/27/13
f 516/22/14 515/21/14 520/28/14
f 517/24/15 516/22/15 521/29/15
f 518/19/16 517/24/16 522/30/16
f 514/16/17 523/26/17 519/27/17
f 515/17/18 519/27/18 520/31/18
f 516/22/19 520/28/19 521/29/19
f 517/24/20 521/29/20 522/30/20
f 518/19/21 522/30/21 523/26/21
f 519/27/22 523/26/22 524/32/22
f 520/31/23 519/27/23 524/33/23
f 521/29/24 520/28/24 524/34/24
f 522/30/25 521/29/25 524/35/25
f 523/26/26 522/30/26 524/36/26
f 525/15/7 526/16/7 527/17/7
f 526/16/8 525/18/8 530/19/8
f 525/20/9 527/21/9 528/22/9
f 525/23/10 528/22/10 529/24/10
f 525/25/11 529/24/11 530/19/11
f 526/16/12 530/19/12 535/26/12
f 527/17/13 526/16/13 531/27/13
f 528/22/14 527/21/14 532/28/14
f 529/24/15 528/22/15 533/29/15
f 530/19/16 529/24/16 534/30/16
f 526/16/17 535/26/17 531/27/17
f 527/17/18 531/27/18 532/31/18
f 528/22/19 532/28/19 533/29/19
f 529/24/20 533/29/20 534/30/20
f 530/19/21 534/30/21 535/26/21
f 531/27/22 535/26/22 536/32/22
f 532/31/23 531/27/23 536/33/23
f 533/29/24 532/28/24 536/34/24
f 534/30/25 533/29/25 536/35/25
f 535/26/26 534/30/26 536/36/26
f 537/15/7 538/16/7 539/17/7
f 538/16/8 537/18/8 542/19/8
f 537/20/9 539/21/9 540/22/9
f 537/23/10 540/22/10 541/24/10
f 537/25/11 541/24/11 542/19/11
f 538/16/12 542/19/12 547/26/12
f 539/17/13 538/16/13 543/27/13
f 540/22/14 539/21/14 544/28/14
f 541/24/15 540/22/15 545/29/15
f 542/19/16 541/24/16 546/30/16
f 538/16/17 547/26/17 543/27/17
f 539/17/18 543/27/18 544/31/18
f 540/22/19 544/28/19 545/29/19
f 541/24/20 545/29/20 546/30/20
f 542/19/21 546/30/21 547/26/21
f 543/27/22 547/26/22 548/32/22
f 544/31/23 543/27/23 548/33/23
f 545/29/24 544/28/24 548/34/24
f 546/30/25 545/29/25 548/35/25
f 547/26/26 546/30/26 548/36/26
