# Blender 5.0.1
# www.blender.org
mtllib rowhouse.mtl
o rowhouse
v -0.560000 0.000000 0.510000
v -0.560000 0.200000 0.510000
v -0.560000 0.000000 -0.510000
v -0.560000 0.200000 -0.510000
v 0.560000 0.000000 0.510000
v 0.560000 0.200000 0.510000
v 0.560000 0.000000 -0.510000
v 0.560000 0.200000 -0.510000
v -0.500000 0.200000 0.450000
v -0.500000 2.600000 0.450000
v -0.500000 0.200000 -0.450000
v -0.500000 2.600000 -0.450000
v 0.500000 0.200000 0.450000
v 0.500000 2.600000 0.450000
v 0.500000 0.200000 -0.450000
v 0.500000 2.600000 -0.450000
v -0.520000 0.875000 0.470000
v -0.520000 0.925000 0.470000
v -0.520000 0.875000 -0.470000
v -0.520000 0.925000 -0.470000
v 0.520000 0.875000 0.470000
v 0.520000 0.925000 0.470000
v 0.520000 0.875000 -0.470000
v 0.520000 0.925000 -0.470000
v -0.520000 1.525000 0.470000
v -0.520000 1.575000 0.470000
v -0.520000 1.525000 -0.470000
v -0.520000 1.575000 -0.470000
v 0.520000 1.525000 0.470000
v 0.520000 1.575000 0.470000
v 0.520000 1.525000 -0.470000
v 0.520000 1.575000 -0.470000
v -0.520000 2.175000 0.470000
v -0.520000 2.225000 0.470000
v -0.520000 2.175000 -0.470000
v -0.520000 2.225000 -0.470000
v 0.520000 2.175000 0.470000
v 0.520000 2.225000 0.470000
v 0.520000 2.175000 -0.470000
v 0.520000 2.225000 -0.470000
v -0.500000 2.600000 0.460000
v -0.500000 2.760000 0.460000
v -0.500000 2.600000 -0.460000
v -0.500000 2.760000 -0.460000
v 0.500000 2.600000 0.460000
v 0.500000 2.760000 0.460000
v 0.500000 2.600000 -0.460000
v 0.500000 2.760000 -0.460000
v -0.360000 2.760000 0.460000
v -0.360000 2.920000 0.460000
v -0.360000 2.760000 -0.460000
v -0.360000 2.920000 -0.460000
v 0.360000 2.760000 0.460000
v 0.360000 2.920000 0.460000
v 0.360000 2.760000 -0.460000
v 0.360000 2.920000 -0.460000
v -0.230000 2.920000 0.460000
v -0.230000 3.080000 0.460000
v -0.230000 2.920000 -0.460000
v -0.230000 3.080000 -0.460000
v 0.230000 2.920000 0.460000
v 0.230000 3.080000 0.460000
v 0.230000 2.920000 -0.460000
v 0.230000 3.080000 -0.460000
v -0.110000 3.080000 0.460000
v -0.110000 3.240000 0.460000
v -0.110000 3.080000 -0.460000
v -0.110000 3.240000 -0.460000
v 0.110000 3.080000 0.460000
v 0.110000 3.240000 0.460000
v 0.110000 3.080000 -0.460000
v 0.110000 3.240000 -0.460000
v 0.000000 3.240000 -0.100000
v 0.086603 3.240000 -0.050000
v 0.086603 3.240000 0.050000
v 0.000000 3.240000 0.100000
v -0.086603 3.240000 0.050000
v -0.086603 3.240000 -0.050000
v 0.000000 3.440000 0.000000
v -0.210000 0.340000 0.445000
v -0.210000 0.900000 0.445000
v -0.210000 0.340000 0.395000
v -0.210000 0.900000 0.395000
v 0.210000 0.340000 0.445000
v 0.210000 0.900000 0.445000
v 0.210000 0.340000 0.395000
v 0.210000 0.900000 0.395000
v -0.170000 0.370000 0.460000
v -0.170000 0.870000 0.460000
v -0.170000 0.370000 0.420000
v -0.170000 0.870000 0.420000
v 0.170000 0.370000 0.460000
v 0.170000 0.870000 0.460000
v 0.170000 0.370000 0.420000
v 0.170000 0.870000 0.420000
v 0.000000 0.836000 0.202000
v 0.238000 0.836000 0.440000
v 0.000000 0.836000 0.678000
v -0.238000 0.836000 0.440000
v 0.000000 1.142000 0.440000
v -0.360000 1.110000 0.445000
v -0.360000 1.490000 0.445000
v -0.360000 1.110000 0.395000
v -0.360000 1.490000 0.395000
v -0.120000 1.110000 0.445000
v -0.120000 1.490000 0.445000
v -0.120000 1.110000 0.395000
v -0.120000 1.490000 0.395000
v -0.320000 1.140000 0.460000
v -0.320000 1.460000 0.460000
v -0.320000 1.140000 0.420000
v -0.320000 1.460000 0.420000
v -0.160000 1.140000 0.460000
v -0.160000 1.460000 0.460000
v -0.160000 1.140000 0.420000
v -0.160000 1.460000 0.420000
v -0.240000 1.444000 0.328000
v -0.128000 1.444000 0.440000
v -0.240000 1.444000 0.552000
v -0.352000 1.444000 0.440000
v -0.240000 1.588000 0.440000
v 0.120000 1.110000 0.445000
v 0.120000 1.490000 0.445000
v 0.120000 1.110000 0.395000
v 0.120000 1.490000 0.395000
v 0.360000 1.110000 0.445000
v 0.360000 1.490000 0.445000
v 0.360000 1.110000 0.395000
v 0.360000 1.490000 0.395000
v 0.160000 1.140000 0.460000
v 0.160000 1.460000 0.460000
v 0.160000 1.140000 0.420000
v 0.160000 1.460000 0.420000
v 0.320000 1.140000 0.460000
v 0.320000 1.460000 0.460000
v 0.320000 1.140000 0.420000
v 0.320000 1.460000 0.420000
v 0.240000 1.444000 0.328000
v 0.352000 1.444000 0.440000
v 0.240000 1.444000 0.552000
v 0.128000 1.444000 0.440000
v 0.240000 1.588000 0.440000
v -0.550000 1.040000 0.525000
v -0.550000 1.080000 0.525000
v -0.550000 1.040000 0.475000
v -0.550000 1.080000 0.475000
v 0.550000 1.040000 0.525000
v 0.550000 1.080000 0.525000
v 0.550000 1.040000 0.475000
v 0.550000 1.080000 0.475000
v -0.360000 1.070000 0.530000
v -0.360000 1.210000 0.530000
v -0.360000 1.070000 0.510000
v -0.360000 1.210000 0.510000
v -0.340000 1.070000 0.530000
v -0.340000 1.210000 0.530000
v -0.340000 1.070000 0.510000
v -0.340000 1.210000 0.510000
v -0.010000 1.070000 0.530000
v -0.010000 1.210000 0.530000
v -0.010000 1.070000 0.510000
v -0.010000 1.210000 0.510000
v 0.010000 1.070000 0.530000
v 0.010000 1.210000 0.530000
v 0.010000 1.070000 0.510000
v 0.010000 1.210000 0.510000
v 0.340000 1.070000 0.530000
v 0.340000 1.210000 0.530000
v 0.340000 1.070000 0.510000
v 0.340000 1.210000 0.510000
v 0.360000 1.070000 0.530000
v 0.360000 1.210000 0.530000
v 0.360000 1.070000 0.510000
v 0.360000 1.210000 0.510000
v -0.550000 1.190000 0.530000
v -0.550000 1.210000 0.530000
v -0.550000 1.190000 0.510000
v -0.550000 1.210000 0.510000
v 0.550000 1.190000 0.530000
v 0.550000 1.210000 0.530000
v 0.550000 1.190000 0.510000
v 0.550000 1.210000 0.510000
v -0.360000 1.760000 0.445000
v -0.360000 2.140000 0.445000
v -0.360000 1.760000 0.395000
v -0.360000 2.140000 0.395000
v -0.120000 1.760000 0.445000
v -0.120000 2.140000 0.445000
v -0.120000 1.760000 0.395000
v -0.120000 2.140000 0.395000
v -0.320000 1.790000 0.460000
v -0.320000 2.110000 0.460000
v -0.320000 1.790000 0.420000
v -0.320000 2.110000 0.420000
v -0.160000 1.790000 0.460000
v -0.160000 2.110000 0.460000
v -0.160000 1.790000 0.420000
v -0.160000 2.110000 0.420000
v -0.240000 2.094000 0.328000
v -0.128000 2.094000 0.440000
v -0.240000 2.094000 0.552000
v -0.352000 2.094000 0.440000
v -0.240000 2.238000 0.440000
v 0.120000 1.760000 0.445000
v 0.120000 2.140000 0.445000
v 0.120000 1.760000 0.395000
v 0.120000 2.140000 0.395000
v 0.360000 1.760000 0.445000
v 0.360000 2.140000 0.445000
v 0.360000 1.760000 0.395000
v 0.360000 2.140000 0.395000
v 0.160000 1.790000 0.460000
v 0.160000 2.110000 0.460000
v 0.160000 1.790000 0.420000
v 0.160000 2.110000 0.420000
v 0.320000 1.790000 0.460000
v 0.320000 2.110000 0.460000
v 0.320000 1.790000 0.420000
v 0.320000 2.110000 0.420000
v 0.240000 2.094000 0.328000
v 0.352000 2.094000 0.440000
v 0.240000 2.094000 0.552000
v 0.128000 2.094000 0.440000
v 0.240000 2.238000 0.440000
v -0.550000 1.690000 0.525000
v -0.550000 1.730000 0.525000
v -0.550000 1.690000 0.475000
v -0.550000 1.730000 0.475000
v 0.550000 1.690000 0.525000
v 0.550000 1.730000 0.525000
v 0.550000 1.690000 0.475000
v 0.550000 1.730000 0.475000
v -0.360000 1.720000 0.530000
v -0.360000 1.860000 0.530000
v -0.360000 1.720000 0.510000
v -0.360000 1.860000 0.510000
v -0.340000 1.720000 0.530000
v -0.340000 1.860000 0.530000
v -0.340000 1.720000 0.510000
v -0.340000 1.860000 0.510000
v -0.010000 1.720000 0.530000
v -0.010000 1.860000 0.530000
v -0.010000 1.720000 0.510000
v -0.010000 1.860000 0.510000
v 0.010000 1.720000 0.530000
v 0.010000 1.860000 0.530000
v 0.010000 1.720000 0.510000
v 0.010000 1.860000 0.510000
v 0.340000 1.720000 0.530000
v 0.340000 1.860000 0.530000
v 0.340000 1.720000 0.510000
v 0.340000 1.860000 0.510000
v 0.360000 1.720000 0.530000
v 0.360000 1.860000 0.530000
v 0.360000 1.720000 0.510000
v 0.360000 1.860000 0.510000
v -0.550000 1.840000 0.530000
v -0.550000 1.860000 0.530000
v -0.550000 1.840000 0.510000
v -0.550000 1.860000 0.510000
v 0.550000 1.840000 0.530000
v 0.550000 1.860000 0.530000
v 0.550000 1.840000 0.510000
v 0.550000 1.860000 0.510000
v -0.545000 0.540000 0.105000
v -0.545000 0.860000 0.105000
v -0.545000 0.540000 -0.105000
v -0.545000 0.860000 -0.105000
v -0.495000 0.540000 0.105000
v -0.495000 0.860000 0.105000
v -0.495000 0.540000 -0.105000
v -0.495000 0.860000 -0.105000
v -0.555000 0.570000 0.065000
v -0.555000 0.830000 0.065000
v -0.555000 0.570000 -0.065000
v -0.555000 0.830000 -0.065000
v -0.515000 0.570000 0.065000
v -0.515000 0.830000 0.065000
v -0.515000 0.570000 -0.065000
v -0.515000 0.830000 -0.065000
v -0.535000 0.817000 -0.091000
v -0.444000 0.817000 0.000000
v -0.535000 0.817000 0.091000
v -0.626000 0.817000 0.000000
v -0.535000 0.934000 0.000000
v -0.545000 1.140000 0.105000
v -0.545000 1.460000 0.105000
v -0.545000 1.140000 -0.105000
v -0.545000 1.460000 -0.105000
v -0.495000 1.140000 0.105000
v -0.495000 1.460000 0.105000
v -0.495000 1.140000 -0.105000
v -0.495000 1.460000 -0.105000
v -0.555000 1.170000 0.065000
v -0.555000 1.430000 0.065000
v -0.555000 1.170000 -0.065000
v -0.555000 1.430000 -0.065000
v -0.515000 1.170000 0.065000
v -0.515000 1.430000 0.065000
v -0.515000 1.170000 -0.065000
v -0.515000 1.430000 -0.065000
v -0.535000 1.417000 -0.091000
v -0.444000 1.417000 0.000000
v -0.535000 1.417000 0.091000
v -0.626000 1.417000 0.000000
v -0.535000 1.534000 0.000000
v -0.545000 1.790000 0.105000
v -0.545000 2.110000 0.105000
v -0.545000 1.790000 -0.105000
v -0.545000 2.110000 -0.105000
v -0.495000 1.790000 0.105000
v -0.495000 2.110000 0.105000
v -0.495000 1.790000 -0.105000
v -0.495000 2.110000 -0.105000
v -0.555000 1.820000 0.065000
v -0.555000 2.080000 0.065000
v -0.555000 1.820000 -0.065000
v -0.555000 2.080000 -0.065000
v -0.515000 1.820000 0.065000
v -0.515000 2.080000 0.065000
v -0.515000 1.820000 -0.065000
v -0.515000 2.080000 -0.065000
v -0.535000 2.067000 -0.091000
v -0.444000 2.067000 0.000000
v -0.535000 2.067000 0.091000
v -0.626000 2.067000 0.000000
v -0.535000 2.184000 0.000000
v 0.495000 0.540000 0.105000
v 0.495000 0.860000 0.105000
v 0.495000 0.540000 -0.105000
v 0.495000 0.860000 -0.105000
v 0.545000 0.540000 0.105000
v 0.545000 0.860000 0.105000
v 0.545000 0.540000 -0.105000
v 0.545000 0.860000 -0.105000
v 0.515000 0.570000 0.065000
v 0.515000 0.830000 0.065000
v 0.515000 0.570000 -0.065000
v 0.515000 0.830000 -0.065000
v 0.555000 0.570000 0.065000
v 0.555000 0.830000 0.065000
v 0.555000 0.570000 -0.065000
v 0.555000 0.830000 -0.065000
v 0.535000 0.817000 -0.091000
v 0.626000 0.817000 0.000000
v 0.535000 0.817000 0.091000
v 0.444000 0.817000 0.000000
v 0.535000 0.934000 0.000000
v 0.495000 1.140000 0.105000
v 0.495000 1.460000 0.105000
v 0.495000 1.140000 -0.105000
v 0.495000 1.460000 -0.105000
v 0.545000 1.140000 0.105000
v 0.545000 1.460000 0.105000
v 0.545000 1.140000 -0.105000
v 0.545000 1.460000 -0.105000
v 0.515000 1.170000 0.065000
v 0.515000 1.430000 0.065000
v 0.515000 1.170000 -0.065000
v 0.515000 1.430000 -0.065000
v 0.555000 1.170000 0.065000
v 0.555000 1.430000 0.065000
v 0.555000 1.170000 -0.065000
v 0.555000 1.430000 -0.065000
v 0.535000 1.417000 -0.091000
v 0.626000 1.417000 0.000000
v 0.535000 1.417000 0.091000
v 0.444000 1.417000 0.000000
v 0.535000 1.534000 0.000000
v 0.495000 1.790000 0.105000
v 0.495000 2.110000 0.105000
v 0.495000 1.790000 -0.105000
v 0.495000 2.110000 -0.105000
v 0.545000 1.790000 0.105000
v 0.545000 2.110000 0.105000
v 0.545000 1.790000 -0.105000
v 0.545000 2.110000 -0.105000
v 0.515000 1.820000 0.065000
v 0.515000 2.080000 0.065000
v 0.515000 1.820000 -0.065000
v 0.515000 2.080000 -0.065000
v 0.555000 1.820000 0.065000
v 0.555000 2.080000 0.065000
v 0.555000 1.820000 -0.065000
v 0.555000 2.080000 -0.065000
v 0.535000 2.067000 -0.091000
v 0.626000 2.067000 0.000000
v 0.535000 2.067000 0.091000
v 0.444000 2.067000 0.000000
v 0.535000 2.184000 0.000000
v -0.150000 0.200000 0.450000
v -0.150000 0.860000 0.450000
v -0.150000 0.200000 0.370000
v -0.150000 0.860000 0.370000
v 0.150000 0.200000 0.450000
v 0.150000 0.860000 0.450000
v 0.150000 0.200000 0.370000
v 0.150000 0.860000 0.370000
v 0.800000 0.000000 0.580000
v 0.800000 0.500000 0.580000
v 0.884853 0.000000 0.615147
v 0.884853 0.500000 0.615147
v 0.920000 0.000000 0.700000
v 0.920000 0.500000 0.700000
v 0.884853 0.000000 0.784853
v 0.884853 0.500000 0.784853
v 0.800000 0.000000 0.820000
v 0.800000 0.500000 0.820000
v 0.715147 0.000000 0.784853
v 0.715147 0.500000 0.784853
v 0.680000 0.000000 0.700000
v 0.680000 0.500000 0.700000
v 0.715147 0.000000 0.615147
v 0.715147 0.500000 0.615147
v 0.800000 0.500000 0.570000
v 0.800000 0.600000 0.660000
v 0.891924 0.500000 0.608076
v 0.828284 0.600000 0.671716
v 0.930000 0.500000 0.700000
v 0.840000 0.600000 0.700000
v 0.891924 0.500000 0.791924
v 0.828284 0.600000 0.728284
v 0.800000 0.500000 0.830000
v 0.800000 0.600000 0.740000
v 0.708076 0.500000 0.791924
v 0.771716 0.600000 0.728284
v 0.670000 0.500000 0.700000
v 0.760000 0.600000 0.700000
v 0.708076 0.500000 0.608076
v 0.771716 0.600000 0.671716
v 0.760000 0.435000 0.830000
v 0.760000 0.465000 0.830000
v 0.760000 0.435000 0.810000
v 0.760000 0.465000 0.810000
v 0.840000 0.435000 0.830000
v 0.840000 0.465000 0.830000
v 0.840000 0.435000 0.810000
v 0.840000 0.465000 0.810000
v -0.480000 0.400000 0.400000
v -0.407640 0.455278 0.452572
v -0.507638 0.455278 0.485064
v -0.569442 0.455278 0.400000
v -0.507638 0.455278 0.314936
v -0.407640 0.455278 0.347428
v -0.452361 0.544722 0.485064
v -0.552360 0.544722 0.452572
v -0.552360 0.544722 0.347428
v -0.452361 0.544722 0.314936
v -0.390557 0.544722 0.400000
v -0.480000 0.600000 0.400000
v -0.480000 0.900000 0.400000
v -0.407640 0.955279 0.452572
v -0.507638 0.955279 0.485064
v -0.569442 0.955279 0.400000
v -0.507638 0.955279 0.314936
v -0.407640 0.955279 0.347428
v -0.452361 1.044721 0.485064
v -0.552360 1.044721 0.452572
v -0.552360 1.044721 0.347428
v -0.452361 1.044721 0.314936
v -0.390557 1.044721 0.400000
v -0.480000 1.100000 0.400000
v 0.480000 0.400000 0.400000
v 0.552360 0.455278 0.452572
v 0.452361 0.455278 0.485064
v 0.390557 0.455278 0.400000
v 0.452361 0.455278 0.314936
v 0.552360 0.455278 0.347428
v 0.507638 0.544722 0.485064
v 0.407640 0.544722 0.452572
v 0.407640 0.544722 0.347428
v 0.507638 0.544722 0.314936
v 0.569442 0.544722 0.400000
v 0.480000 0.600000 0.400000
v 0.480000 0.900000 0.400000
v 0.552360 0.955279 0.452572
v 0.452361 0.955279 0.485064
v 0.390557 0.955279 0.400000
v 0.452361 0.955279 0.314936
v 0.552360 0.955279 0.347428
v 0.507638 1.044721 0.485064
v 0.407640 1.044721 0.452572
v 0.407640 1.044721 0.347428
v 0.507638 1.044721 0.314936
v 0.569442 1.044721 0.400000
v 0.480000 1.100000 0.400000
vn -1.0000 -0.0000 -0.0000
vn -0.0000 -0.0000 -1.0000
vn 1.0000 -0.0000 -0.0000
vn -0.0000 -0.0000 1.0000
vn -0.0000 -1.0000 -0.0000
vn -0.0000 1.0000 -0.0000
vn 0.4588 0.3974 -0.7947
vn 0.9177 0.3974 -0.0000
vn 0.4588 0.3974 0.7947
vn -0.4588 0.3974 0.7947
vn -0.9177 0.3974 -0.0000
vn -0.4588 0.3974 -0.7947
vn 0.6196 0.4819 -0.6196
vn 0.6196 0.4819 0.6196
vn -0.6196 0.4819 0.6196
vn -0.6196 0.4819 -0.6196
vn 0.3827 -0.0000 -0.9239
vn 0.9239 -0.0000 -0.3827
vn 0.9239 -0.0000 0.3827
vn 0.3827 -0.0000 0.9239
vn -0.3827 -0.0000 0.9239
vn -0.9239 -0.0000 0.3827
vn -0.9239 -0.0000 -0.3827
vn -0.3827 -0.0000 -0.9239
vn 0.2943 0.6393 -0.7104
vn 0.7104 0.6393 -0.2943
vn 0.7104 0.6393 0.2943
vn 0.2943 0.6393 0.7104
vn -0.2943 0.6393 0.7104
vn -0.7104 0.6393 0.2943
vn -0.7104 0.6393 -0.2943
vn -0.2943 0.6393 -0.7104
vn 0.1876 -0.7947 0.5774
vn 0.6071 -0.7947 -0.0000
vn -0.4911 -0.7947 0.3568
vn -0.4911 -0.7947 -0.3568
vn 0.1876 -0.7947 -0.5774
vn 0.9822 -0.1876 -0.0000
vn 0.3035 -0.1876 0.9342
vn -0.7946 -0.1876 0.5774
vn -0.7946 -0.1876 -0.5774
vn 0.3035 -0.1876 -0.9342
vn 0.7946 0.1876 0.5774
vn -0.3035 0.1876 0.9342
vn -0.9822 0.1876 -0.0000
vn -0.3035 0.1876 -0.9342
vn 0.7946 0.1876 -0.5774
vn 0.4911 0.7947 0.3568
vn -0.1876 0.7947 0.5774
vn -0.6071 0.7947 -0.0000
vn -0.1876 0.7947 -0.5774
vn 0.4911 0.7947 -0.3568
vt 0.126953 0.001953
vt 0.126953 0.164062
vt 0.248047 0.164062
vt 0.248047 0.001953
vt 0.001953 0.001953
vt 0.001953 0.164062
vt 0.123047 0.164062
vt 0.123047 0.001953
vt 0.187500 0.164062
vt 0.248047 0.123535
vt 0.248047 0.042480
vt 0.187500 0.001953
vt 0.126953 0.042480
vt 0.126953 0.123535
vt 0.001953 0.832031
vt 0.001953 0.994141
vt 0.123047 0.994141
vt 0.123047 0.832031
vt 0.062500 0.994141
vt 0.123047 0.913086
vt 0.062500 0.832031
vt 0.001953 0.913086
vt 0.751953 0.167969
vt 0.751953 0.330078
vt 0.873047 0.330078
vt 0.873047 0.167969
vt 0.001953 0.167969
vt 0.001953 0.330078
vt 0.123047 0.330078
vt 0.123047 0.167969
vt 0.376953 0.666016
vt 0.376953 0.828125
vt 0.498047 0.828125
vt 0.498047 0.666016
vt 0.480313 0.804385
vt 0.437500 0.828125
vt 0.394687 0.804385
vt 0.376953 0.747070
vt 0.394687 0.689756
vt 0.437500 0.666016
vt 0.480313 0.689756
vt 0.498047 0.747070
vt 0.414213 0.828125
vt 0.460787 0.828125
vt 0.626953 0.500000
vt 0.626953 0.662109
vt 0.748047 0.662109
vt 0.748047 0.500000
vt 0.535422 0.496094
vt 0.623047 0.395905
vt 0.501953 0.333984
vt 0.623047 0.333984
vt 0.501953 0.415039
vt 0.623047 0.496094
vt 0.585628 0.333984
vt 0.501953 0.496094
vt 0.585628 0.496094
vt 0.535422 0.333984
vt 0.623047 0.434173
vt 0.562500 0.496094
vt 0.568891 0.496094
vt 0.548207 0.496094
vt 0.576793 0.496094
vt 0.548207 0.333984
vt 0.556109 0.333984
vt 0.562500 0.333984
vt 0.576793 0.333984
vt 0.539372 0.333984
vt 0.501953 0.395905
vt 0.589578 0.496094
vt 0.623047 0.415039
vt 0.501953 0.434173
vt 0.589578 0.333984
vt 0.539372 0.496094
s 0
usemtl kit_atlas_mat
f 1/1/1 2/2/1 4/3/1 3/4/1
f 3/1/2 4/2/2 8/3/2 7/4/2
f 7/4/3 8/3/3 6/2/3 5/1/3
f 5/4/4 6/3/4 2/2/4 1/1/4
f 3/2/5 7/3/5 5/4/5 1/1/5
f 8/3/6 4/2/6 2/1/6 6/4/6
f 9/5/1 10/6/1 12/7/1 11/8/1
f 11/5/2 12/6/2 16/7/2 15/8/2
f 15/8/3 16/7/3 14/6/3 13/5/3
f 13/8/4 14/7/4 10/6/4 9/5/4
f 11/6/5 15/7/5 13/8/5 9/5/5
f 16/7/6 12/6/6 10/5/6 14/8/6
f 17/1/1 18/2/1 20/3/1 19/4/1
f 19/1/2 20/2/2 24/3/2 23/4/2
f 23/4/3 24/3/3 22/2/3 21/1/3
f 21/4/4 22/3/4 18/2/4 17/1/4
f 19/2/5 23/3/5 21/4/5 17/1/5
f 24/3/6 20/2/6 18/1/6 22/4/6
f 25/1/1 26/2/1 28/3/1 27/4/1
f 27/1/2 28/2/2 32/3/2 31/4/2
f 31/4/3 32/3/3 30/2/3 29/1/3
f 29/4/4 30/3/4 26/2/4 25/1/4
f 27/2/5 31/3/5 29/4/5 25/1/5
f 32/3/6 28/2/6 26/1/6 30/4/6
f 33/1/1 34/2/1 36/3/1 35/4/1
f 35/1/2 36/2/2 40/3/2 39/4/2
f 39/4/3 40/3/3 38/2/3 37/1/3
f 37/4/4 38/3/4 34/2/4 33/1/4
f 35/2/5 39/3/5 37/4/5 33/1/5
f 40/3/6 36/2/6 34/1/6 38/4/6
f 41/5/1 42/6/1 44/7/1 43/8/1
f 43/5/2 44/6/2 48/7/2 47/8/2
f 47/8/3 48/7/3 46/6/3 45/5/3
f 45/8/4 46/7/4 42/6/4 41/5/4
f 43/6/5 47/7/5 45/8/5 41/5/5
f 48/7/6 44/6/6 42/5/6 46/8/6
f 49/5/1 50/6/1 52/7/1 51/8/1
f 51/5/2 52/6/2 56/7/2 55/8/2
f 55/8/3 56/7/3 54/6/3 53/5/3
f 53/8/4 54/7/4 50/6/4 49/5/4
f 51/6/5 55/7/5 53/8/5 49/5/5
f 56/7/6 52/6/6 50/5/6 54/8/6
f 57/5/1 58/6/1 60/7/1 59/8/1
f 59/5/2 60/6/2 64/7/2 63/8/2
f 63/8/3 64/7/3 62/6/3 61/5/3
f 61/8/4 62/7/4 58/6/4 57/5/4
f 59/6/5 63/7/5 61/8/5 57/5/5
f 64/7/6 60/6/6 58/5/6 62/8/6
f 65/5/1 66/6/1 68/7/1 67/8/1
f 67/5/2 68/6/2 72/7/2 71/8/2
f 71/8/3 72/7/3 70/6/3 69/5/3
f 69/8/4 70/7/4 66/6/4 65/5/4
f 67/6/5 71/7/5 69/8/5 65/5/5
f 72/7/6 68/6/6 66/5/6 70/8/6
f 73/1/7 79/2/7 74/4/7
f 74/4/8 79/9/8 75/1/8
f 75/4/9 79/2/9 76/1/9
f 76/4/10 79/3/10 77/1/10
f 73/9/5 74/10/5 75/11/5 76/12/5 77/13/5 78/14/5
f 77/1/11 79/9/11 78/4/11
f 78/1/12 79/3/12 73/4/12
f 80/1/1 81/2/1 83/3/1 82/4/1
f 82/1/2 83/2/2 87/3/2 86/4/2
f 86/4/3 87/3/3 85/2/3 84/1/3
f 84/4/4 85/3/4 81/2/4 80/1/4
f 82/2/5 86/3/5 84/4/5 80/1/5
f 87/3/6 83/2/6 81/1/6 85/4/6
f 88/15/1 89/16/1 91/17/1 90/18/1
f 90/15/2 91/16/2 95/17/2 94/18/2
f 94/18/3 95/17/3 93/16/3 92/15/3
f 92/18/4 93/17/4 89/16/4 88/15/4
f 90/16/5 94/17/5 92/18/5 88/15/5
f 95/17/6 91/16/6 89/15/6 93/18/6
f 96/18/13 100/16/13 97/15/13
f 97/18/14 100/17/14 98/15/14
f 96/19/5 97/20/5 98/21/5 99/22/5
f 98/15/15 100/17/15 99/18/15
f 99/15/16 100/16/16 96/18/16
f 101/1/1 102/2/1 104/3/1 103/4/1
f 103/1/2 104/2/2 108/3/2 107/4/2
f 107/4/3 108/3/3 106/2/3 105/1/3
f 105/4/4 106/3/4 102/2/4 101/1/4
f 103/2/5 107/3/5 105/4/5 101/1/5
f 108/3/6 104/2/6 102/1/6 106/4/6
f 109/15/1 110/16/1 112/17/1 111/18/1
f 111/15/2 112/16/2 116/17/2 115/18/2
f 115/18/3 116/17/3 114/16/3 113/15/3
f 113/18/4 114/17/4 110/16/4 109/15/4
f 111/16/5 115/17/5 113/18/5 109/15/5
f 116/17/6 112/16/6 110/15/6 114/18/6
f 117/18/13 121/16/13 118/15/13
f 118/18/14 121/17/14 119/15/14
f 117/19/5 118/20/5 119/21/5 120/22/5
f 119/15/15 121/17/15 120/18/15
f 120/15/16 121/16/16 117/18/16
f 122/1/1 123/2/1 125/3/1 124/4/1
f 124/1/2 125/2/2 129/3/2 128/4/2
f 128/4/3 129/3/3 127/2/3 126/1/3
f 126/4/4 127/3/4 123/2/4 122/1/4
f 124/2/5 128/3/5 126/4/5 122/1/5
f 129/3/6 125/2/6 123/1/6 127/4/6
f 130/15/1 131/16/1 133/17/1 132/18/1
f 132/15/2 133/16/2 137/17/2 136/18/2
f 136/18/3 137/17/3 135/16/3 134/15/3
f 134/18/4 135/17/4 131/16/4 130/15/4
f 132/16/5 136/17/5 134/18/5 130/15/5
f 137/17/6 133/16/6 131/15/6 135/18/6
f 138/18/13 142/16/13 139/15/13
f 139/18/14 142/17/14 140/15/14
f 138/19/5 139/20/5 140/21/5 141/22/5
f 140/15/15 142/17/15 141/18/15
f 141/15/16 142/16/16 138/18/16
f 143/23/1 144/24/1 146/25/1 145/26/1
f 145/23/2 146/24/2 150/25/2 149/26/2
f 149/26/3 150/25/3 148/24/3 147/23/3
f 147/26/4 148/25/4 144/24/4 143/23/4
f 145/24/5 149/25/5 147/26/5 143/23/5
f 150/25/6 146/24/6 144/23/6 148/26/6
f 151/23/1 152/24/1 154/25/1 153/26/1
f 153/23/2 154/24/2 158/25/2 157/26/2
f 157/26/3 158/25/3 156/24/3 155/23/3
f 155/26/4 156/25/4 152/24/4 151/23/4
f 153/24/5 157/25/5 155/26/5 151/23/5
f 158/25/6 154/24/6 152/23/6 156/26/6
f 159/23/1 160/24/1 162/25/1 161/26/1
f 161/23/2 162/24/2 166/25/2 165/26/2
f 165/26/3 166/25/3 164/24/3 163/23/3
f 163/26/4 164/25/4 160/24/4 159/23/4
f 161/24/5 165/25/5 163/26/5 159/23/5
f 166/25/6 162/24/6 160/23/6 164/26/6
f 167/23/1 168/24/1 170/25/1 169/26/1
f 169/23/2 170/24/2 174/25/2 173/26/2
f 173/26/3 174/25/3 172/24/3 171/23/3
f 171/26/4 172/25/4 168/24/4 167/23/4
f 169/24/5 173/25/5 171/26/5 167/23/5
f 174/25/6 170/24/6 168/23/6 172/26/6
f 175/23/1 176/24/1 178/25/1 177/26/1
f 177/23/2 178/24/2 182/25/2 181/26/2
f 181/26/3 182/25/3 180/24/3 179/23/3
f 179/26/4 180/25/4 176/24/4 175/23/4
f 177/24/5 181/25/5 179/26/5 175/23/5
f 182/25/6 178/24/6 176/23/6 180/26/6
f 183/1/1 184/2/1 186/3/1 185/4/1
f 185/1/2 186/2/2 190/3/2 189/4/2
f 189/4/3 190/3/3 188/2/3 187/1/3
f 187/4/4 188/3/4 184/2/4 183/1/4
f 185/2/5 189/3/5 187/4/5 183/1/5
f 190/3/6 186/2/6 184/1/6 188/4/6
f 191/15/1 192/16/1 194/17/1 193/18/1
f 193/15/2 194/16/2 198/17/2 197/18/2
f 197/18/3 198/17/3 196/16/3 195/15/3
f 195/18/4 196/17/4 192/16/4 191/15/4
f 193/16/5 197/17/5 195/18/5 191/15/5
f 198/17/6 194/16/6 192/15/6 196/18/6
f 199/18/13 203/16/13 200/15/13
f 200/18/14 203/17/14 201/15/14
f 199/19/5 200/20/5 201/21/5 202/22/5
f 201/15/15 203/17/15 202/18/15
f 202/15/16 203/16/16 199/18/16
f 204/1/1 205/2/1 207/3/1 206/4/1
f 206/1/2 207/2/2 211/3/2 210/4/2
f 210/4/3 211/3/3 209/2/3 208/1/3
f 208/4/4 209/3/4 205/2/4 204/1/4
f 206/2/5 210/3/5 208/4/5 204/1/5
f 211/3/6 207/2/6 205/1/6 209/4/6
f 212/15/1 213/16/1 215/17/1 214/18/1
f 214/15/2 215/16/2 219/17/2 218/18/2
f 218/18/3 219/17/3 217/16/3 216/15/3
f 216/18/4 217/17/4 213/16/4 212/15/4
f 214/16/5 218/17/5 216/18/5 212/15/5
f 219/17/6 215/16/6 213/15/6 217/18/6
f 220/18/13 224/16/13 221/15/13
f 221/18/14 224/17/14 222/15/14
f 220/19/5 221/20/5 222/21/5 223/22/5
f 222/15/15 224/17/15 223/18/15
f 223/15/16 224/16/16 220/18/16
f 225/23/1 226/24/1 228/25/1 227/26/1
f 227/23/2 228/24/2 232/25/2 231/26/2
f 231/26/3 232/25/3 230/24/3 229/23/3
f 229/26/4 230/25/4 226/24/4 225/23/4
f 227/24/5 231/25/5 229/26/5 225/23/5
f 232/25/6 228/24/6 226/23/6 230/26/6
f 233/23/1 234/24/1 236/25/1 235/26/1
f 235/23/2 236/24/2 240/25/2 239/26/2
f 239/26/3 240/25/3 238/24/3 237/23/3
f 237/26/4 238/25/4 234/24/4 233/23/4
f 235/24/5 239/25/5 237/26/5 233/23/5
f 240/25/6 236/24/6 234/23/6 238/26/6
f 241/23/1 242/24/1 244/25/1 243/26/1
f 243/23/2 244/24/2 248/25/2 247/26/2
f 247/26/3 248/25/3 246/24/3 245/23/3
f 245/26/4 246/25/4 242/24/4 241/23/4
f 243/24/5 247/25/5 245/26/5 241/23/5
f 248/25/6 244/24/6 242/23/6 246/26/6
f 249/23/1 250/24/1 252/25/1 251/26/1
f 251/23/2 252/24/2 256/25/2 255/26/2
f 255/26/3 256/25/3 254/24/3 253/23/3
f 253/26/4 254/25/4 250/24/4 249/23/4
f 251/24/5 255/25/5 253/26/5 249/23/5
f 256/25/6 252/24/6 250/23/6 254/26/6
f 257/23/1 258/24/1 260/25/1 259/26/1
f 259/23/2 260/24/2 264/25/2 263/26/2
f 263/26/3 264/25/3 262/24/3 261/23/3
f 261/26/4 262/25/4 258/24/4 257/23/4
f 259/24/5 263/25/5 261/26/5 257/23/5
f 264/25/6 260/24/6 258/23/6 262/26/6
f 265/1/1 266/2/1 268/3/1 267/4/1
f 267/1/2 268/2/2 272/3/2 271/4/2
f 271/4/3 272/3/3 270/2/3 269/1/3
f 269/4/4 270/3/4 266/2/4 265/1/4
f 267/2/5 271/3/5 269/4/5 265/1/5
f 272/3/6 268/2/6 266/1/6 270/4/6
f 273/15/1 274/16/1 276/17/1 275/18/1
f 275/15/2 276/16/2 280/17/2 279/18/2
f 279/18/3 280/17/3 278/16/3 277/15/3
f 277/18/4 278/17/4 274/16/4 273/15/4
f 275/16/5 279/17/5 277/18/5 273/15/5
f 280/17/6 276/16/6 274/15/6 278/18/6
f 281/18/13 285/16/13 282/15/13
f 282/18/14 285/17/14 283/15/14
f 281/19/5 282/20/5 283/21/5 284/22/5
f 283/15/15 285/17/15 284/18/15
f 284/15/16 285/16/16 281/18/16
f 286/1/1 287/2/1 289/3/1 288/4/1
f 288/1/2 289/2/2 293/3/2 292/4/2
f 292/4/3 293/3/3 291/2/3 290/1/3
f 290/4/4 291/3/4 287/2/4 286/1/4
f 288/2/5 292/3/5 290/4/5 286/1/5
f 293/3/6 289/2/6 287/1/6 291/4/6
f 294/15/1 295/16/1 297/17/1 296/18/1
f 296/15/2 297/16/2 301/17/2 300/18/2
f 300/18/3 301/17/3 299/16/3 298/15/3
f 298/18/4 299/17/4 295/16/4 294/15/4
f 296/16/5 300/17/5 298/18/5 294/15/5
f 301/17/6 297/16/6 295/15/6 299/18/6
f 302/18/13 306/16/13 303/15/13
f 303/18/14 306/17/14 304/15/14
f 302/19/5 303/20/5 304/21/5 305/22/5
f 304/15/15 306/17/15 305/18/15
f 305/15/16 306/16/16 302/18/16
f 307/1/1 308/2/1 310/3/1 309/4/1
f 309/1/2 310/2/2 314/3/2 313/4/2
f 313/4/3 314/3/3 312/2/3 311/1/3
f 311/4/4 312/3/4 308/2/4 307/1/4
f 309/2/5 313/3/5 311/4/5 307/1/5
f 314/3/6 310/2/6 308/1/6 312/4/6
f 315/15/1 316/16/1 318/17/1 317/18/1
f 317/15/2 318/16/2 322/17/2 321/18/2
f 321/18/3 322/17/3 320/16/3 319/15/3
f 319/18/4 320/17/4 316/16/4 315/15/4
f 317/16/5 321/17/5 319/18/5 315/15/5
f 322/17/6 318/16/6 316/15/6 320/18/6
f 323/18/13 327/16/13 324/15/13
f 324/18/14 327/17/14 325/15/14
f 323/19/5 324/20/5 325/21/5 326/22/5
f 325/15/15 327/17/15 326/18/15
f 326/15/16 327/16/16 323/18/16
f 328/1/1 329/2/1 331/3/1 330/4/1
f 330/1/2 331/2/2 335/3/2 334/4/2
f 334/4/3 335/3/3 333/2/3 332/1/3
f 332/4/4 333/3/4 329/2/4 328/1/4
f 330/2/5 334/3/5 332/4/5 328/1/5
f 335/3/6 331/2/6 329/1/6 333/4/6
f 336/15/1 337/16/1 339/17/1 338/18/1
f 338/15/2 339/16/2 343/17/2 342/18/2
f 342/18/3 343/17/3 341/16/3 340/15/3
f 340/18/4 341/17/4 337/16/4 336/15/4
f 338/16/5 342/17/5 340/18/5 336/15/5
f 343/17/6 339/16/6 337/15/6 341/18/6
f 344/18/13 348/16/13 345/15/13
f 345/18/14 348/17/14 346/15/14
f 344/19/5 345/20/5 346/21/5 347/22/5
f 346/15/15 348/17/15 347/18/15
f 347/15/16 348/16/16 344/18/16
f 349/1/1 350/2/1 352/3/1 351/4/1
f 351/1/2 352/2/2 356/3/2 355/4/2
f 355/4/3 356/3/3 354/2/3 353/1/3
f 353/4/4 354/3/4 350/2/4 349/1/4
f 351/2/5 355/3/5 353/4/5 349/1/5
f 356/3/6 352/2/6 350/1/6 354/4/6
f 357/15/1 358/16/1 360/17/1 359/18/1
f 359/15/2 360/16/2 364/17/2 363/18/2
f 363/18/3 364/17/3 362/16/3 361/15/3
f 361/18/4 362/17/4 358/16/4 357/15/4
f 359/16/5 363/17/5 361/18/5 357/15/5
f 364/17/6 360/16/6 358/15/6 362/18/6
f 365/18/13 369/16/13 366/15/13
f 366/18/14 369/17/14 367/15/14
f 365/19/5 366/20/5 367/21/5 368/22/5
f 367/15/15 369/17/15 368/18/15
f 368/15/16 369/16/16 365/18/16
f 370/1/1 371/2/1 373/3/1 372/4/1
f 372/1/2 373/2/2 377/3/2 376/4/2
f 376/4/3 377/3/3 375/2/3 374/1/3
f 374/4/4 375/3/4 371/2/4 370/1/4
f 372/2/5 376/3/5 374/4/5 370/1/5
f 377/3/6 373/2/6 371/1/6 375/4/6
f 378/15/1 379/16/1 381/17/1 380/18/1
f 380/15/2 381/16/2 385/17/2 384/18/2
f 384/18/3 385/17/3 383/16/3 382/15/3
f 382/18/4 383/17/4 379/16/4 378/15/4
f 380/16/5 384/17/5 382/18/5 378/15/5
f 385/17/6 381/16/6 379/15/6 383/18/6
f 386/18/13 390/16/13 387/15/13
f 387/18/14 390/17/14 388/15/14
f 386/19/5 387/20/5 388/21/5 389/22/5
f 388/15/15 390/17/15 389/18/15
f 389/15/16 390/16/16 386/18/16
f 391/27/1 392/28/1 394/29/1 393/30/1
f 393/27/2 394/28/2 398/29/2 397/30/2
f 397/30/3 398/29/3 396/28/3 395/27/3
f 395/30/4 396/29/4 392/28/4 391/27/4
f 393/28/5 397/29/5 395/30/5 391/27/5
f 398/29/6 394/28/6 392/27/6 396/30/6
f 399/31/17 400/32/17 402/33/17 401/34/17
f 401/34/18 402/33/18 404/32/18 403/31/18
f 403/34/19 404/33/19 406/32/19 405/31/19
f 405/34/20 406/33/20 408/32/20 407/31/20
f 407/34/21 408/33/21 410/32/21 409/31/21
f 409/31/22 410/32/22 412/33/22 411/34/22
f 402/35/6 400/36/6 414/37/6 412/38/6 410/39/6 408/40/6 406/41/6 404/42/6
f 411/31/23 412/32/23 414/33/23 413/34/23
f 413/31/24 414/32/24 400/33/24 399/34/24
f 399/36/5 401/35/5 403/42/5 405/41/5 407/40/5 409/39/5 411/38/5 413/37/5
f 415/31/25 416/32/25 418/43/25 417/34/25
f 417/34/26 418/43/26 420/32/26 419/31/26
f 419/34/27 420/33/27 422/44/27 421/31/27
f 421/34/28 422/43/28 424/32/28 423/31/28
f 423/34/29 424/33/29 426/44/29 425/31/29
f 425/31/30 426/44/30 428/33/30 427/34/30
f 418/35/6 416/36/6 430/37/6 428/38/6 426/39/6 424/40/6 422/41/6 420/42/6
f 427/31/31 428/32/31 430/43/31 429/34/31
f 429/31/32 430/44/32 416/33/32 415/34/32
f 415/36/5 417/35/5 419/42/5 421/41/5 423/40/5 425/39/5 427/38/5 429/37/5
f 431/45/1 432/46/1 434/47/1 433/48/1
f 433/45/2 434/46/2 438/47/2 437/48/2
f 437/48/3 438/47/3 436/46/3 435/45/3
f 435/48/4 436/47/4 432/46/4 431/45/4
f 433/46/5 437/47/5 435/48/5 431/45/5
f 438/47/6 434/46/6 432/45/6 436/48/6
f 439/49/33 440/50/33 441/51/33
f 440/52/34 439/53/34 444/54/34
f 439/54/35 441/55/35 442/56/35
f 439/52/36 442/51/36 443/57/36
f 439/58/37 443/56/37 444/59/37
f 440/51/38 444/52/38 449/60/38
f 441/51/39 440/52/39 445/61/39
f 442/52/40 441/51/40 446/62/40
f 443/52/41 442/51/41 447/63/41
f 444/52/42 443/51/42 448/61/42
f 440/64/43 449/54/43 445/56/43
f 441/65/44 445/54/44 446/56/44
f 442/66/45 446/56/45 447/54/45
f 443/65/46 447/56/46 448/54/46
f 444/67/47 448/54/47 449/56/47
f 445/68/48 449/54/48 450/56/48
f 446/69/49 445/52/49 450/70/49
f 447/56/50 446/51/50 450/71/50
f 448/54/51 447/72/51 450/73/51
f 449/52/52 448/74/52 450/51/52
f 451/49/33 452/50/33 453/51/33
f 452/52/34 451/53/34 456/54/34
f 451/54/35 453/55/35 454/56/35
f 451/52/36 454/51/36 455/57/36
f 451/58/37 455/56/37 456/59/37
f 452/51/38 456/52/38 461/60/38
f 453/51/39 452/52/39 457/61/39
f 454/52/40 453/51/40 458/62/40
f 455/52/41 454/51/41 459/63/41
f 456/52/42 455/51/42 460/61/42
f 452/64/43 461/54/43 457/56/43
f 453/65/44 457/54/44 458/56/44
f 454/66/45 458/56/45 459/54/45
f 455/65/46 459/56/46 460/54/46
f 456/67/47 460/54/47 461/56/47
f 457/68/48 461/54/48 462/56/48
f 458/69/49 457/52/49 462/70/49
f 459/56/50 458/51/50 462/71/50
f 460/54/51 459/72/51 462/73/51
f 461/52/52 460/74/52 462/51/52
f 463/49/33 464/50/33 465/51/33
f 464/52/34 463/53/34 468/54/34
f 463/54/35 465/55/35 466/56/35
f 463/52/36 466/51/36 467/57/36
f 463/58/37 467/56/37 468/59/37
f 464/51/38 468/52/38 473/60/38
f 465/51/39 464/52/39 469/61/39
f 466/52/40 465/51/40 470/62/40
f 467/52/41 466/51/41 471/63/41
f 468/52/42 467/51/42 472/61/42
f 464/64/43 473/54/43 469/56/43
f 465/65/44 469/54/44 470/56/44
f 466/66/45 470/56/45 471/54/45
f 467/65/46 471/56/46 472/54/46
f 468/67/47 472/54/47 473/56/47
f 469/68/48 473/54/48 474/56/48
f 470/69/49 469/52/49 474/70/49
f 471/56/50 470/51/50 474/71/50
f 472/54/51 471/72/51 474/73/51
f 473/52/52 472/74/52 474/51/52
f 475/49/33 476/50/33 477/51/33
f 476/52/34 475/53/34 480/54/34
f 475/54/35 477/55/35 478/56/35
f 475/52/36 478/51/36 479/57/36
f 475/58/37 479/56/37 480/59/37
f 476/51/38 480/52/38 485/60/38
f 477/51/39 476/52/39 481/61/39
f 478/52/40 477/51/40 482/62/40
f 479/52/41 478/51/41 483/63/41
f 480/52/42 479/51/42 484/61/42
f 476/64/43 485/54/43 481/56/43
f 477/65/44 481/54/44 482/56/44
f 478/66/45 482/56/45 483/54/45
f 479/65/46 483/56/46 484/54/46
f 480/67/47 484/54/47 485/56/47
f 481/68/48 485/54/48 486/56/48
f 482/69/49 481/52/49 486/70/49
f 483/56/50 482/51/50 486/71/50
f 484/54/51 483/72/51 486/73/51
f 485/52/52 484/74/52 486/51/52
