# Blender 5.0.1
# www.blender.org
mtllib shopfront.mtl
o shopfront
v -1.050000 0.000000 1.500000
v -1.050000 0.140000 1.500000
v -1.050000 0.000000 -0.900000
v -1.050000 0.140000 -0.900000
v 1.050000 0.000000 1.500000
v 1.050000 0.140000 1.500000
v 1.050000 0.000000 -0.900000
v 1.050000 0.140000 -0.900000
v -0.900000 0.140000 0.600000
v -0.900000 1.440000 0.600000
v -0.900000 0.140000 -0.600000
v -0.900000 1.440000 -0.600000
v 0.900000 0.140000 0.600000
v 0.900000 1.440000 0.600000
v 0.900000 0.140000 -0.600000
v 0.900000 1.440000 -0.600000
v -0.915000 0.480000 0.615000
v -0.915000 0.520000 0.615000
v -0.915000 0.480000 -0.615000
v -0.915000 0.520000 -0.615000
v 0.915000 0.480000 0.615000
v 0.915000 0.520000 0.615000
v 0.915000 0.480000 -0.615000
v 0.915000 0.520000 -0.615000
v -0.915000 0.930000 0.615000
v -0.915000 0.970000 0.615000
v -0.915000 0.930000 -0.615000
v -0.915000 0.970000 -0.615000
v 0.915000 0.930000 0.615000
v 0.915000 0.970000 0.615000
v 0.915000 0.930000 -0.615000
v 0.915000 0.970000 -0.615000
v -1.000000 1.440000 0.700000
v 1.000000 1.440000 0.700000
v 0.000000 2.140000 0.700000
v -1.000000 1.440000 -0.700000
v 1.000000 1.440000 -0.700000
v 0.000000 2.140000 -0.700000
v -0.697952 1.620917 0.710000
v -0.726625 1.661879 0.710000
v -0.697952 1.620917 -0.710000
v -0.726625 1.661879 -0.710000
v -0.673375 1.638121 0.710000
v -0.702048 1.679083 0.710000
v -0.673375 1.638121 -0.710000
v -0.702048 1.679083 -0.710000
v 0.673375 1.638121 0.710000
v 0.702048 1.679083 0.710000
v 0.673375 1.638121 -0.710000
v 0.702048 1.679083 -0.710000
v 0.697952 1.620917 0.710000
v 0.726625 1.661879 0.710000
v 0.697952 1.620917 -0.710000
v 0.726625 1.661879 -0.710000
v -0.397952 1.830917 0.710000
v -0.426625 1.871879 0.710000
v -0.397952 1.830917 -0.710000
v -0.426625 1.871879 -0.710000
v -0.373375 1.848121 0.710000
v -0.402048 1.889083 0.710000
v -0.373375 1.848121 -0.710000
v -0.402048 1.889083 -0.710000
v 0.373375 1.848121 0.710000
v 0.402048 1.889083 0.710000
v 0.373375 1.848121 -0.710000
v 0.402048 1.889083 -0.710000
v 0.397952 1.830917 0.710000
v 0.426625 1.871879 0.710000
v 0.397952 1.830917 -0.710000
v 0.426625 1.871879 -0.710000
v -0.250000 1.560000 0.705000
v -0.250000 1.960000 0.705000
v -0.250000 1.560000 0.655000
v -0.250000 1.960000 0.655000
v 0.250000 1.560000 0.705000
v 0.250000 1.960000 0.705000
v 0.250000 1.560000 0.655000
v 0.250000 1.960000 0.655000
v 0.000000 2.020000 0.680000
v 0.000000 2.020000 0.720000
v 0.155563 1.955563 0.680000
v 0.155563 1.955563 0.720000
v 0.220000 1.800000 0.680000
v 0.220000 1.800000 0.720000
v 0.155563 1.644436 0.680000
v 0.155563 1.644436 0.720000
v 0.000000 1.580000 0.680000
v 0.000000 1.580000 0.720000
v -0.155563 1.644436 0.680000
v -0.155563 1.644436 0.720000
v -0.220000 1.800000 0.680000
v -0.220000 1.800000 0.720000
v -0.155563 1.955563 0.680000
v -0.155563 1.955563 0.720000
v -0.660000 1.380000 0.100000
v -0.660000 1.600000 0.100000
v -0.660000 1.380000 -0.100000
v -0.660000 1.600000 -0.100000
v -0.440000 1.380000 0.100000
v -0.440000 1.600000 0.100000
v -0.440000 1.380000 -0.100000
v -0.440000 1.600000 -0.100000
v 0.440000 1.380000 0.100000
v 0.440000 1.600000 0.100000
v 0.440000 1.380000 -0.100000
v 0.440000 1.600000 -0.100000
v 0.660000 1.380000 0.100000
v 0.660000 1.600000 0.100000
v 0.660000 1.380000 -0.100000
v 0.660000 1.600000 -0.100000
v -1.050000 0.910000 1.190000
v -1.050000 0.970000 1.190000
v -1.050000 0.910000 0.570000
v -1.050000 0.970000 0.570000
v 1.050000 0.910000 1.190000
v 1.050000 0.970000 1.190000
v 1.050000 0.910000 0.570000
v 1.050000 0.970000 0.570000
v -0.835000 0.020000 1.135000
v -0.835000 0.920000 1.135000
v -0.835000 0.020000 1.065000
v -0.835000 0.920000 1.065000
v -0.765000 0.020000 1.135000
v -0.765000 0.920000 1.135000
v -0.765000 0.020000 1.065000
v -0.765000 0.920000 1.065000
v -0.825000 0.120000 0.905000
v -0.825000 0.440000 0.905000
v -0.825000 0.120000 0.855000
v -0.825000 0.440000 0.855000
v -0.775000 0.120000 0.905000
v -0.775000 0.440000 0.905000
v -0.775000 0.120000 0.855000
v -0.775000 0.440000 0.855000
v -0.305000 0.020000 1.135000
v -0.305000 0.920000 1.135000
v -0.305000 0.020000 1.065000
v -0.305000 0.920000 1.065000
v -0.235000 0.020000 1.135000
v -0.235000 0.920000 1.135000
v -0.235000 0.020000 1.065000
v -0.235000 0.920000 1.065000
v -0.295000 0.120000 0.905000
v -0.295000 0.440000 0.905000
v -0.295000 0.120000 0.855000
v -0.295000 0.440000 0.855000
v -0.245000 0.120000 0.905000
v -0.245000 0.440000 0.905000
v -0.245000 0.120000 0.855000
v -0.245000 0.440000 0.855000
v 0.235000 0.020000 1.135000
v 0.235000 0.920000 1.135000
v 0.235000 0.020000 1.065000
v 0.235000 0.920000 1.065000
v 0.305000 0.020000 1.135000
v 0.305000 0.920000 1.135000
v 0.305000 0.020000 1.065000
v 0.305000 0.920000 1.065000
v 0.245000 0.120000 0.905000
v 0.245000 0.440000 0.905000
v 0.245000 0.120000 0.855000
v 0.245000 0.440000 0.855000
v 0.295000 0.120000 0.905000
v 0.295000 0.440000 0.905000
v 0.295000 0.120000 0.855000
v 0.295000 0.440000 0.855000
v 0.765000 0.020000 1.135000
v 0.765000 0.920000 1.135000
v 0.765000 0.020000 1.065000
v 0.765000 0.920000 1.065000
v 0.835000 0.020000 1.135000
v 0.835000 0.920000 1.135000
v 0.835000 0.020000 1.065000
v 0.835000 0.920000 1.065000
v 0.775000 0.120000 0.905000
v 0.775000 0.440000 0.905000
v 0.775000 0.120000 0.855000
v 0.775000 0.440000 0.855000
v 0.825000 0.120000 0.905000
v 0.825000 0.440000 0.905000
v 0.825000 0.120000 0.855000
v 0.825000 0.440000 0.855000
v -0.950000 0.400000 0.900000
v -0.950000 0.440000 0.900000
v -0.950000 0.400000 0.860000
v -0.950000 0.440000 0.860000
v 0.950000 0.400000 0.900000
v 0.950000 0.440000 0.900000
v 0.950000 0.400000 0.860000
v 0.950000 0.440000 0.860000
v -0.770000 0.410000 0.605000
v -0.770000 0.830000 0.605000
v -0.770000 0.410000 0.555000
v -0.770000 0.830000 0.555000
v -0.430000 0.410000 0.605000
v -0.430000 0.830000 0.605000
v -0.430000 0.410000 0.555000
v -0.430000 0.830000 0.555000
v 0.430000 0.410000 0.605000
v 0.430000 0.830000 0.605000
v 0.430000 0.410000 0.555000
v 0.430000 0.830000 0.555000
v 0.770000 0.410000 0.605000
v 0.770000 0.830000 0.605000
v 0.770000 0.410000 0.555000
v 0.770000 0.830000 0.555000
v -0.150000 0.140000 0.600000
v -0.150000 0.740000 0.600000
v -0.150000 0.140000 0.520000
v -0.150000 0.740000 0.520000
v 0.150000 0.140000 0.600000
v 0.150000 0.740000 0.600000
v 0.150000 0.140000 0.520000
v 0.150000 0.740000 0.520000
v 0.900000 0.960000 1.220000
v 0.900000 1.000000 1.220000
v 0.900000 0.960000 0.980000
v 0.900000 1.000000 0.980000
v 0.940000 0.960000 1.220000
v 0.940000 1.000000 1.220000
v 0.940000 0.960000 0.980000
v 0.940000 1.000000 0.980000
v 0.930000 0.820000 1.110000
v 0.930000 0.940000 1.110000
v 0.930000 0.820000 1.090000
v 0.930000 0.940000 1.090000
v 0.950000 0.820000 1.110000
v 0.950000 0.940000 1.110000
v 0.950000 0.820000 1.090000
v 0.950000 0.940000 1.090000
v 1.130000 0.820000 1.110000
v 1.130000 0.940000 1.110000
v 1.130000 0.820000 1.090000
v 1.130000 0.940000 1.090000
v 1.150000 0.820000 1.110000
v 1.150000 0.940000 1.110000
v 1.150000 0.820000 1.090000
v 1.150000 0.940000 1.090000
v 0.900000 0.670000 1.110000
v 0.900000 0.850000 1.110000
v 0.900000 0.670000 1.090000
v 0.900000 0.850000 1.090000
v 1.180000 0.670000 1.110000
v 1.180000 0.850000 1.110000
v 1.180000 0.670000 1.090000
v 1.180000 0.850000 1.090000
v -0.700000 0.140000 0.760000
v -0.700000 0.400000 0.760000
v -0.629466 0.140000 0.782918
v -0.629466 0.400000 0.782918
v -0.585873 0.140000 0.842918
v -0.585873 0.400000 0.842918
v -0.585873 0.140000 0.917082
v -0.585873 0.400000 0.917082
v -0.629466 0.140000 0.977082
v -0.629466 0.400000 0.977082
v -0.700000 0.140000 1.000000
v -0.700000 0.400000 1.000000
v -0.770534 0.140000 0.977082
v -0.770534 0.400000 0.977082
v -0.814127 0.140000 0.917082
v -0.814127 0.400000 0.917082
v -0.814127 0.140000 0.842918
v -0.814127 0.400000 0.842918
v -0.770534 0.140000 0.782918
v -0.770534 0.400000 0.782918
v -0.700000 0.330000 0.758000
v -0.700000 0.350000 0.758000
v -0.628290 0.330000 0.781300
v -0.628290 0.350000 0.781300
v -0.583971 0.330000 0.842300
v -0.583971 0.350000 0.842300
v -0.583971 0.330000 0.917700
v -0.583971 0.350000 0.917700
v -0.628290 0.330000 0.978700
v -0.628290 0.350000 0.978700
v -0.700000 0.330000 1.002000
v -0.700000 0.350000 1.002000
v -0.771710 0.330000 0.978700
v -0.771710 0.350000 0.978700
v -0.816029 0.330000 0.917700
v -0.816029 0.350000 0.917700
v -0.816029 0.330000 0.842300
v -0.816029 0.350000 0.842300
v -0.771710 0.330000 0.781300
v -0.771710 0.350000 0.781300
v 0.650000 0.140000 1.000000
v 0.650000 0.340000 1.000000
v 0.650000 0.140000 0.800000
v 0.650000 0.340000 0.800000
v 0.850000 0.140000 1.000000
v 0.850000 0.340000 1.000000
v 0.850000 0.140000 0.800000
v 0.850000 0.340000 0.800000
v 1.400000 0.000000 0.150000
v 1.400000 1.200000 0.150000
v 1.443301 0.000000 0.175000
v 1.443301 1.200000 0.175000
v 1.443301 0.000000 0.225000
v 1.443301 1.200000 0.225000
v 1.400000 0.000000 0.250000
v 1.400000 1.200000 0.250000
v 1.356699 0.000000 0.225000
v 1.356699 1.200000 0.225000
v 1.356699 0.000000 0.175000
v 1.356699 1.200000 0.175000
v 1.385000 0.822442 0.106737
v 1.385000 1.161661 0.318705
v 1.385000 0.838339 0.081295
v 1.385000 1.177558 0.293263
v 1.415000 0.822442 0.106737
v 1.415000 1.161661 0.318705
v 1.415000 0.838339 0.081295
v 1.415000 1.177558 0.293263
v 1.385000 0.961408 0.344973
v 1.385000 1.258666 0.077321
v 1.385000 0.941334 0.322679
v 1.385000 1.238592 0.055027
v 1.415000 0.961408 0.344973
v 1.415000 1.258666 0.077321
v 1.415000 0.941334 0.322679
v 1.415000 1.238592 0.055027
v 1.385000 1.051252 0.173090
v 1.385000 1.442511 0.256255
v 1.385000 1.057489 0.143745
v 1.385000 1.448748 0.226910
v 1.415000 1.051252 0.173090
v 1.415000 1.442511 0.256255
v 1.415000 1.057489 0.143745
v 1.415000 1.448748 0.226910
v -0.850000 0.200000 0.550000
v -0.777640 0.255278 0.602572
v -0.877638 0.255278 0.635064
v -0.939442 0.255278 0.550000
v -0.877638 0.255278 0.464936
v -0.777640 0.255278 0.497428
v -0.822361 0.344721 0.635064
v -0.922360 0.344721 0.602572
v -0.922360 0.344721 0.497428
v -0.822361 0.344721 0.464936
v -0.760557 0.344721 0.550000
v -0.850000 0.400000 0.550000
v -0.850000 0.500000 0.550000
v -0.777640 0.555278 0.602572
v -0.877638 0.555278 0.635064
v -0.939442 0.555278 0.550000
v -0.877638 0.555278 0.464936
v -0.777640 0.555278 0.497428
v -0.822361 0.644722 0.635064
v -0.922360 0.644722 0.602572
v -0.922360 0.644722 0.497428
v -0.822361 0.644722 0.464936
v -0.760557 0.644722 0.550000
v -0.850000 0.700000 0.550000
vn -1.0000 -0.0000 -0.0000
vn -0.0000 -0.0000 -1.0000
vn 1.0000 -0.0000 -0.0000
vn -0.0000 -0.0000 1.0000
vn -0.0000 -1.0000 -0.0000
vn -0.0000 1.0000 -0.0000
vn -0.5735 0.8192 -0.0000
vn 0.5735 0.8192 -0.0000
vn -0.8192 -0.5735 -0.0000
vn 0.8192 0.5735 -0.0000
vn 0.5735 -0.8192 -0.0000
vn -0.8192 0.5735 -0.0000
vn 0.8192 -0.5735 -0.0000
vn -0.5735 -0.8192 -0.0000
vn 0.3827 0.9239 -0.0000
vn 0.9239 0.3827 -0.0000
vn 0.9239 -0.3827 -0.0000
vn 0.3827 -0.9239 -0.0000
vn -0.3827 -0.9239 -0.0000
vn -0.9239 -0.3827 -0.0000
vn -0.9239 0.3827 -0.0000
vn -0.3827 0.9239 -0.0000
vn 0.3090 -0.0000 -0.9511
vn 0.8090 -0.0000 -0.5878
vn 0.8090 -0.0000 0.5878
vn 0.3090 -0.0000 0.9511
vn -0.3090 -0.0000 0.9511
vn -0.8090 -0.0000 0.5878
vn -0.8090 -0.0000 -0.5878
vn -0.3090 -0.0000 -0.9511
vn 0.5000 -0.0000 -0.8660
vn 0.5000 -0.0000 0.8660
vn -0.5000 -0.0000 0.8660
vn -0.5000 -0.0000 -0.8660
vn -0.0000 0.5299 -0.8480
vn -0.0000 -0.5299 0.8480
vn -0.0000 -0.8480 -0.5299
vn -0.0000 0.8480 0.5299
vn -0.0000 -0.6691 -0.7431
vn -0.0000 0.6691 0.7431
vn -0.0000 -0.7431 0.6691
vn -0.0000 0.7431 -0.6691
vn -0.0000 0.2079 -0.9781
vn -0.0000 -0.2079 0.9781
vn -0.0000 -0.9781 -0.2079
vn -0.0000 0.9781 0.2079
vn 0.1876 -0.7947 0.5774
vn 0.6071 -0.7947 -0.0000
vn -0.4911 -0.7947 0.3568
vn -0.4911 -0.7947 -0.3568
vn 0.1876 -0.7947 -0.5774
vn 0.9822 -0.1876 -0.0000
vn 0.3035 -0.1876 0.9342
vn -0.7946 -0.1876 0.5774
vn -0.7946 -0.1876 -0.5774
vn 0.3035 -0.1876 -0.9342
vn 0.7946 0.1876 0.5774
vn -0.3035 0.1876 0.9342
vn -0.9822 0.1876 -0.0000
vn -0.3035 0.1876 -0.9342
vn 0.7946 0.1876 -0.5774
vn 0.4911 0.7947 0.3568
vn -0.1876 0.7947 0.5774
vn -0.6071 0.7947 -0.0000
vn -0.1876 0.7947 -0.5774
vn 0.4911 0.7947 -0.3568
vt 0.126953 0.001953
vt 0.126953 0.164062
vt 0.248047 0.164062
vt 0.248047 0.001953
vt 0.251953 0.500000
vt 0.251953 0.662109
vt 0.373047 0.662109
vt 0.373047 0.500000
vt 0.876953 0.001953
vt 0.876953 0.164062
vt 0.998047 0.164062
vt 0.998047 0.001953
vt 0.251953 0.167969
vt 0.373047 0.167969
vt 0.312500 0.330078
vt 0.373047 0.330078
vt 0.251953 0.330078
vt 0.751953 0.666016
vt 0.751953 0.828125
vt 0.873047 0.828125
vt 0.873047 0.666016
vt 0.855313 0.804385
vt 0.812500 0.828125
vt 0.769687 0.804385
vt 0.751953 0.747070
vt 0.769687 0.689756
vt 0.812500 0.666016
vt 0.855313 0.689756
vt 0.873047 0.747070
vt 0.751953 0.001953
vt 0.751953 0.164062
vt 0.873047 0.164062
vt 0.873047 0.001953
vt 0.501953 0.167969
vt 0.501953 0.330078
vt 0.623047 0.330078
vt 0.623047 0.167969
vt 0.126953 0.666016
vt 0.126953 0.828125
vt 0.248047 0.828125
vt 0.248047 0.666016
vt 0.974920 0.148582
vt 0.937500 0.164062
vt 0.900080 0.148582
vt 0.876953 0.108055
vt 0.876953 0.057961
vt 0.900080 0.017433
vt 0.937500 0.001953
vt 0.974920 0.017433
vt 0.998047 0.057961
vt 0.998047 0.108055
vt 0.599920 0.314598
vt 0.562500 0.330078
vt 0.525080 0.314598
vt 0.501953 0.274071
vt 0.501953 0.223976
vt 0.525080 0.183449
vt 0.562500 0.167969
vt 0.599920 0.183449
vt 0.623047 0.223976
vt 0.623047 0.274071
vt 0.373047 0.621582
vt 0.312500 0.662109
vt 0.251953 0.621582
vt 0.251953 0.540527
vt 0.312500 0.500000
vt 0.373047 0.540527
vt 0.285422 0.496094
vt 0.373047 0.395905
vt 0.251953 0.333984
vt 0.373047 0.333984
vt 0.251953 0.415039
vt 0.373047 0.496094
vt 0.335628 0.333984
vt 0.251953 0.496094
vt 0.335628 0.496094
vt 0.285422 0.333984
vt 0.373047 0.434173
vt 0.312500 0.496094
vt 0.318891 0.496094
vt 0.298207 0.496094
vt 0.326793 0.496094
vt 0.298207 0.333984
vt 0.306109 0.333984
vt 0.312500 0.333984
vt 0.326793 0.333984
vt 0.289372 0.333984
vt 0.251953 0.395905
vt 0.339578 0.496094
vt 0.373047 0.415039
vt 0.251953 0.434173
vt 0.339578 0.333984
vt 0.289372 0.496094
s 0
usemtl kit_atlas_mat
f 1/1/1 2/2/1 4/3/1 3/4/1
f 3/1/2 4/2/2 8/3/2 7/4/2
f 7/4/3 8/3/3 6/2/3 5/1/3
f 5/4/4 6/3/4 2/2/4 1/1/4
f 3/2/5 7/3/5 5/4/5 1/1/5
f 8/3/6 4/2/6 2/1/6 6/4/6
f 9/5/1 10/6/1 12/7/1 11/8/1
f 11/5/2 12/6/2 16/7/2 15/8/2
f 15/8/3 16/7/3 14/6/3 13/5/3
f 13/8/4 14/7/4 10/6/4 9/5/4
f 11/6/5 15/7/5 13/8/5 9/5/5
f 16/7/6 12/6/6 10/5/6 14/8/6
f 17/9/1 18/10/1 20/11/1 19/12/1
f 19/9/2 20/10/2 24/11/2 23/12/2
f 23/12/3 24/11/3 22/10/3 21/9/3
f 21/12/4 22/11/4 18/10/4 17/9/4
f 19/10/5 23/11/5 21/12/5 17/9/5
f 24/11/6 20/10/6 18/9/6 22/12/6
f 25/9/1 26/10/1 28/11/1 27/12/1
f 27/9/2 28/10/2 32/11/2 31/12/2
f 31/12/3 32/11/3 30/10/3 29/9/3
f 29/12/4 30/11/4 26/10/4 25/9/4
f 27/10/5 31/11/5 29/12/5 25/9/5
f 32/11/6 28/10/6 26/9/6 30/12/6
f 33/13/4 34/14/4 35/15/4
f 38/15/2 37/14/2 36/13/2
f 33/13/7 35/14/7 38/16/7 36/17/7
f 35/13/8 34/14/8 37/16/8 38/17/8
f 34/14/5 33/13/5 36/17/5 37/16/5
f 39/1/9 40/2/9 42/3/9 41/4/9
f 41/1/2 42/2/2 46/3/2 45/4/2
f 45/4/10 46/3/10 44/2/10 43/1/10
f 43/4/4 44/3/4 40/2/4 39/1/4
f 41/2/11 45/3/11 43/4/11 39/1/11
f 46/3/7 42/2/7 40/1/7 44/4/7
f 47/1/12 48/2/12 50/3/12 49/4/12
f 49/1/2 50/2/2 54/3/2 53/4/2
f 53/4/13 54/3/13 52/2/13 51/1/13
f 51/4/4 52/3/4 48/2/4 47/1/4
f 49/2/14 53/3/14 51/4/14 47/1/14
f 54/3/8 50/2/8 48/1/8 52/4/8
f 55/1/9 56/2/9 58/3/9 57/4/9
f 57/1/2 58/2/2 62/3/2 61/4/2
f 61/4/10 62/3/10 60/2/10 59/1/10
f 59/4/4 60/3/4 56/2/4 55/1/4
f 57/2/11 61/3/11 59/4/11 55/1/11
f 62/3/7 58/2/7 56/1/7 60/4/7
f 63/1/12 64/2/12 66/3/12 65/4/12
f 65/1/2 66/2/2 70/3/2 69/4/2
f 69/4/13 70/3/13 68/2/13 67/1/13
f 67/4/4 68/3/4 64/2/4 63/1/4
f 65/2/14 69/3/14 67/4/14 63/1/14
f 70/3/8 66/2/8 64/1/8 68/4/8
f 71/1/1 72/2/1 74/3/1 73/4/1
f 73/1/2 74/2/2 78/3/2 77/4/2
f 77/4/3 78/3/3 76/2/3 75/1/3
f 75/4/4 76/3/4 72/2/4 71/1/4
f 73/2/5 77/3/5 75/4/5 71/1/5
f 78/3/6 74/2/6 72/1/6 76/4/6
f 79/18/15 80/19/15 82/20/15 81/21/15
f 81/21/16 82/20/16 84/19/16 83/18/16
f 83/21/17 84/20/17 86/19/17 85/18/17
f 85/21/18 86/20/18 88/19/18 87/18/18
f 87/21/19 88/20/19 90/19/19 89/18/19
f 89/18/20 90/19/20 92/20/20 91/21/20
f 82/22/4 80/23/4 94/24/4 92/25/4 90/26/4 88/27/4 86/28/4 84/29/4
f 91/18/21 92/19/21 94/20/21 93/21/21
f 93/18/22 94/19/22 80/20/22 79/21/22
f 79/23/2 81/22/2 83/29/2 85/28/2 87/27/2 89/26/2 91/25/2 93/24/2
f 95/5/1 96/6/1 98/7/1 97/8/1
f 97/5/2 98/6/2 102/7/2 101/8/2
f 101/8/3 102/7/3 100/6/3 99/5/3
f 99/8/4 100/7/4 96/6/4 95/5/4
f 97/6/5 101/7/5 99/8/5 95/5/5
f 102/7/6 98/6/6 96/5/6 100/8/6
f 103/5/1 104/6/1 106/7/1 105/8/1
f 105/5/2 106/6/2 110/7/2 109/8/2
f 109/8/3 110/7/3 108/6/3 107/5/3
f 107/8/4 108/7/4 104/6/4 103/5/4
f 105/6/5 109/7/5 107/8/5 103/5/5
f 110/7/6 106/6/6 104/5/6 108/8/6
f 111/30/1 112/31/1 114/32/1 113/33/1
f 113/30/2 114/31/2 118/32/2 117/33/2
f 117/33/3 118/32/3 116/31/3 115/30/3
f 115/33/4 116/32/4 112/31/4 111/30/4
f 113/31/5 117/32/5 115/33/5 111/30/5
f 118/32/6 114/31/6 112/30/6 116/33/6
f 119/9/1 120/10/1 122/11/1 121/12/1
f 121/9/2 122/10/2 126/11/2 125/12/2
f 125/12/3 126/11/3 124/10/3 123/9/3
f 123/12/4 124/11/4 120/10/4 119/9/4
f 121/10/5 125/11/5 123/12/5 119/9/5
f 126/11/6 122/10/6 120/9/6 124/12/6
f 127/9/1 128/10/1 130/11/1 129/12/1
f 129/9/2 130/10/2 134/11/2 133/12/2
f 133/12/3 134/11/3 132/10/3 131/9/3
f 131/12/4 132/11/4 128/10/4 127/9/4
f 129/10/5 133/11/5 131/12/5 127/9/5
f 134/11/6 130/10/6 128/9/6 132/12/6
f 135/9/1 136/10/1 138/11/1 137/12/1
f 137/9/2 138/10/2 142/11/2 141/12/2
f 141/12/3 142/11/3 140/10/3 139/9/3
f 139/12/4 140/11/4 136/10/4 135/9/4
f 137/10/5 141/11/5 139/12/5 135/9/5
f 142/11/6 138/10/6 136/9/6 140/12/6
f 143/9/1 144/10/1 146/11/1 145/12/1
f 145/9/2 146/10/2 150/11/2 149/12/2
f 149/12/3 150/11/3 148/10/3 147/9/3
f 147/12/4 148/11/4 144/10/4 143/9/4
f 145/10/5 149/11/5 147/12/5 143/9/5
f 150/11/6 146/10/6 144/9/6 148/12/6
f 151/9/1 152/10/1 154/11/1 153/12/1
f 153/9/2 154/10/2 158/11/2 157/12/2
f 157/12/3 158/11/3 156/10/3 155/9/3
f 155/12/4 156/11/4 152/10/4 151/9/4
f 153/10/5 157/11/5 155/12/5 151/9/5
f 158/11/6 154/10/6 152/9/6 156/12/6
f 159/9/1 160/10/1 162/11/1 161/12/1
f 161/9/2 162/10/2 166/11/2 165/12/2
f 165/12/3 166/11/3 164/10/3 163/9/3
f 163/12/4 164/11/4 160/10/4 159/9/4
f 161/10/5 165/11/5 163/12/5 159/9/5
f 166/11/6 162/10/6 160/9/6 164/12/6
f 167/9/1 168/10/1 170/11/1 169/12/1
f 169/9/2 170/10/2 174/11/2 173/12/2
f 173/12/3 174/11/3 172/10/3 171/9/3
f 171/12/4 172/11/4 168/10/4 167/9/4
f 169/10/5 173/11/5 171/12/5 167/9/5
f 174/11/6 170/10/6 168/9/6 172/12/6
f 175/9/1 176/10/1 178/11/1 177/12/1
f 177/9/2 178/10/2 182/11/2 181/12/2
f 181/12/3 182/11/3 180/10/3 179/9/3
f 179/12/4 180/11/4 176/10/4 175/9/4
f 177/10/5 181/11/5 179/12/5 175/9/5
f 182/11/6 178/10/6 176/9/6 180/12/6
f 183/9/1 184/10/1 186/11/1 185/12/1
f 185/9/2 186/10/2 190/11/2 189/12/2
f 189/12/3 190/11/3 188/10/3 187/9/3
f 187/12/4 188/11/4 184/10/4 183/9/4
f 185/10/5 189/11/5 187/12/5 183/9/5
f 190/11/6 186/10/6 184/9/6 188/12/6
f 191/18/1 192/19/1 194/20/1 193/21/1
f 193/18/2 194/19/2 198/20/2 197/21/2
f 197/21/3 198/20/3 196/19/3 195/18/3
f 195/21/4 196/20/4 192/19/4 191/18/4
f 193/19/5 197/20/5 195/21/5 191/18/5
f 198/20/6 194/19/6 192/18/6 196/21/6
f 199/18/1 200/19/1 202/20/1 201/21/1
f 201/18/2 202/19/2 206/20/2 205/21/2
f 205/21/3 206/20/3 204/19/3 203/18/3
f 203/21/4 204/20/4 200/19/4 199/18/4
f 201/19/5 205/20/5 203/21/5 199/18/5
f 206/20/6 202/19/6 200/18/6 204/21/6
f 207/9/1 208/10/1 210/11/1 209/12/1
f 209/9/2 210/10/2 214/11/2 213/12/2
f 213/12/3 214/11/3 212/10/3 211/9/3
f 211/12/4 212/11/4 208/10/4 207/9/4
f 209/10/5 213/11/5 211/12/5 207/9/5
f 214/11/6 210/10/6 208/9/6 212/12/6
f 215/34/1 216/35/1 218/36/1 217/37/1
f 217/34/2 218/35/2 222/36/2 221/37/2
f 221/37/3 222/36/3 220/35/3 219/34/3
f 219/37/4 220/36/4 216/35/4 215/34/4
f 217/35/5 221/36/5 219/37/5 215/34/5
f 222/36/6 218/35/6 216/34/6 220/37/6
f 223/34/1 224/35/1 226/36/1 225/37/1
f 225/34/2 226/35/2 230/36/2 229/37/2
f 229/37/3 230/36/3 228/35/3 227/34/3
f 227/37/4 228/36/4 224/35/4 223/34/4
f 225/35/5 229/36/5 227/37/5 223/34/5
f 230/36/6 226/35/6 224/34/6 228/37/6
f 231/34/1 232/35/1 234/36/1 233/37/1
f 233/34/2 234/35/2 238/36/2 237/37/2
f 237/37/3 238/36/3 236/35/3 235/34/3
f 235/37/4 236/36/4 232/35/4 231/34/4
f 233/35/5 237/36/5 235/37/5 231/34/5
f 238/36/6 234/35/6 232/34/6 236/37/6
f 239/38/1 240/39/1 242/40/1 241/41/1
f 241/38/2 242/39/2 246/40/2 245/41/2
f 245/41/3 246/40/3 244/39/3 243/38/3
f 243/41/4 244/40/4 240/39/4 239/38/4
f 241/39/5 245/40/5 243/41/5 239/38/5
f 246/40/6 242/39/6 240/38/6 244/41/6
f 247/9/23 248/10/23 250/11/23 249/12/23
f 249/12/24 250/11/24 252/10/24 251/9/24
f 251/12/3 252/11/3 254/10/3 253/9/3
f 253/12/25 254/11/25 256/10/25 255/9/25
f 255/12/26 256/11/26 258/10/26 257/9/26
f 257/12/27 258/11/27 260/10/27 259/9/27
f 259/9/28 260/10/28 262/11/28 261/12/28
f 261/9/1 262/10/1 264/11/1 263/12/1
f 250/42/6 248/43/6 266/44/6 264/45/6 262/46/6 260/47/6 258/48/6 256/49/6 254/50/6 252/51/6
f 263/9/29 264/10/29 266/11/29 265/12/29
f 265/9/30 266/10/30 248/11/30 247/12/30
f 247/43/5 249/42/5 251/51/5 253/50/5 255/49/5 257/48/5 259/47/5 261/46/5 263/45/5 265/44/5
f 267/34/23 268/35/23 270/36/23 269/37/23
f 269/37/24 270/36/24 272/35/24 271/34/24
f 271/37/3 272/36/3 274/35/3 273/34/3
f 273/37/25 274/36/25 276/35/25 275/34/25
f 275/37/26 276/36/26 278/35/26 277/34/26
f 277/37/27 278/36/27 280/35/27 279/34/27
f 279/34/28 280/35/28 282/36/28 281/37/28
f 281/34/1 282/35/1 284/36/1 283/37/1
f 270/52/6 268/53/6 286/54/6 284/55/6 282/56/6 280/57/6 278/58/6 276/59/6 274/60/6 272/61/6
f 283/34/29 284/35/29 286/36/29 285/37/29
f 285/34/30 286/35/30 268/36/30 267/37/30
f 267/53/5 269/52/5 271/61/5 273/60/5 275/59/5 277/58/5 279/57/5 281/56/5 283/55/5 285/54/5
f 287/30/1 288/31/1 290/32/1 289/33/1
f 289/30/2 290/31/2 294/32/2 293/33/2
f 293/33/3 294/32/3 292/31/3 291/30/3
f 291/33/4 292/32/4 288/31/4 287/30/4
f 289/31/5 293/32/5 291/33/5 287/30/5
f 294/32/6 290/31/6 288/30/6 292/33/6
f 295/5/31 296/6/31 298/7/31 297/8/31
f 297/8/3 298/7/3 300/6/3 299/5/3
f 299/8/32 300/7/32 302/6/32 301/5/32
f 301/8/33 302/7/33 304/6/33 303/5/33
f 298/62/6 296/63/6 306/64/6 304/65/6 302/66/6 300/67/6
f 303/5/1 304/6/1 306/7/1 305/8/1
f 305/5/34 306/6/34 296/7/34 295/8/34
f 295/63/5 297/62/5 299/67/5 301/66/5 303/65/5 305/64/5
f 307/5/1 308/6/1 310/7/1 309/8/1
f 309/5/35 310/6/35 314/7/35 313/8/35
f 313/8/3 314/7/3 312/6/3 311/5/3
f 311/8/36 312/7/36 308/6/36 307/5/36
f 309/6/37 313/7/37 311/8/37 307/5/37
f 314/7/38 310/6/38 308/5/38 312/8/38
f 315/5/1 316/6/1 318/7/1 317/8/1
f 317/5/39 318/6/39 322/7/39 321/8/39
f 321/8/3 322/7/3 320/6/3 319/5/3
f 319/8/40 320/7/40 316/6/40 315/5/40
f 317/6/41 321/7/41 319/8/41 315/5/41
f 322/7/42 318/6/42 316/5/42 320/8/42
f 323/5/1 324/6/1 326/7/1 325/8/1
f 325/5/43 326/6/43 330/7/43 329/8/43
f 329/8/3 330/7/3 328/6/3 327/5/3
f 327/8/44 328/7/44 324/6/44 323/5/44
f 325/6/45 329/7/45 327/8/45 323/5/45
f 330/7/46 326/6/46 324/5/46 328/8/46
f 331/68/47 332/69/47 333/70/47
f 332/71/48 331/72/48 336/73/48
f 331/73/49 333/74/49 334/75/49
f 331/71/50 334/70/50 335/76/50
f 331/77/51 335/75/51 336/78/51
f 332/70/52 336/71/52 341/79/52
f 333/70/53 332/71/53 337/80/53
f 334/71/54 333/70/54 338/81/54
f 335/71/55 334/70/55 339/82/55
f 336/71/56 335/70/56 340/80/56
f 332/83/57 341/73/57 337/75/57
f 333/84/58 337/73/58 338/75/58
f 334/85/59 338/75/59 339/73/59
f 335/84/60 339/75/60 340/73/60
f 336/86/61 340/73/61 341/75/61
f 337/87/62 341/73/62 342/75/62
f 338/88/63 337/71/63 342/89/63
f 339/75/64 338/70/64 342/90/64
f 340/73/65 339/91/65 342/92/65
f 341/71/66 340/93/66 342/70/66
f 343/68/47 344/69/47 345/70/47
f 344/71/48 343/72/48 348/73/48
f 343/73/49 345/74/49 346/75/49
f 343/71/50 346/70/50 347/76/50
f 343/77/51 347/75/51 348/78/51
f 344/70/52 348/71/52 353/79/52
f 345/70/53 344/71/53 349/80/53
f 346/71/54 345/70/54 350/81/54
f 347/71/55 346/70/55 351/82/55
f 348/71/56 347/70/56 352/80/56
f 344/83/57 353/73/57 349/75/57
f 345/84/58 349/73/58 350/75/58
f 346/85/59 350/75/59 351/73/59
f 347/84/60 351/75/60 352/73/60
f 348/86/61 352/73/61 353/75/61
f 349/87/62 353/73/62 354/75/62
f 350/88/63 349/71/63 354/89/63
f 351/75/64 350/70/64 354/90/64
f 352/73/65 351/91/65 354/92/65
f 353/71/66 352/93/66 354/70/66
