# Blender 5.0.1
# www.blender.org
mtllib street_kiosk.mtl
o street_kiosk
v -0.800000 0.000000 0.500000
v -0.800000 0.120000 0.500000
v -0.800000 0.000000 -0.500000
v -0.800000 0.120000 -0.500000
v 0.800000 0.000000 0.500000
v 0.800000 0.120000 0.500000
v 0.800000 0.000000 -0.500000
v 0.800000 0.120000 -0.500000
v -0.800000 0.120000 0.150000
v -0.800000 0.820000 0.150000
v -0.800000 0.120000 -0.350000
v -0.800000 0.820000 -0.350000
v -0.200000 0.120000 0.150000
v -0.200000 0.820000 0.150000
v -0.200000 0.120000 -0.350000
v -0.200000 0.820000 -0.350000
v -0.760000 0.560000 0.330000
v -0.760000 0.760000 0.330000
v -0.760000 0.560000 0.030000
v -0.760000 0.760000 0.030000
v -0.240000 0.560000 0.330000
v -0.240000 0.760000 0.330000
v -0.240000 0.560000 0.030000
v -0.240000 0.760000 0.030000
v -0.700000 0.590000 0.280000
v -0.700000 0.730000 0.280000
v -0.700000 0.590000 0.040000
v -0.700000 0.730000 0.040000
v -0.300000 0.590000 0.280000
v -0.300000 0.730000 0.280000
v -0.300000 0.590000 0.040000
v -0.300000 0.730000 0.040000
v -0.860000 0.778361 0.240233
v -0.860000 0.837450 0.250652
v -0.860000 0.882550 -0.350652
v -0.860000 0.941639 -0.340233
v -0.140000 0.778361 0.240233
v -0.140000 0.837450 0.250652
v -0.140000 0.882550 -0.350652
v -0.140000 0.941639 -0.340233
v -0.710000 0.590000 0.320000
v -0.710000 0.610000 0.320000
v -0.710000 0.590000 0.240000
v -0.710000 0.610000 0.240000
v -0.610000 0.590000 0.320000
v -0.610000 0.610000 0.320000
v -0.610000 0.590000 0.240000
v -0.610000 0.610000 0.240000
v -0.550000 0.590000 0.320000
v -0.550000 0.610000 0.320000
v -0.550000 0.590000 0.240000
v -0.550000 0.610000 0.240000
v -0.450000 0.590000 0.320000
v -0.450000 0.610000 0.320000
v -0.450000 0.590000 0.240000
v -0.450000 0.610000 0.240000
v -0.390000 0.590000 0.320000
v -0.390000 0.610000 0.320000
v -0.390000 0.590000 0.240000
v -0.390000 0.610000 0.240000
v -0.290000 0.590000 0.320000
v -0.290000 0.610000 0.320000
v -0.290000 0.590000 0.240000
v -0.290000 0.610000 0.240000
v 0.150000 0.060000 0.070000
v 0.150000 0.660000 0.070000
v 0.226412 0.060000 0.094828
v 0.226412 0.660000 0.094828
v 0.273637 0.060000 0.159828
v 0.273637 0.660000 0.159828
v 0.273637 0.060000 0.240172
v 0.273637 0.660000 0.240172
v 0.226412 0.060000 0.305172
v 0.226412 0.660000 0.305172
v 0.150000 0.060000 0.330000
v 0.150000 0.660000 0.330000
v 0.073588 0.060000 0.305172
v 0.073588 0.660000 0.305172
v 0.026363 0.060000 0.240172
v 0.026363 0.660000 0.240172
v 0.026363 0.060000 0.159828
v 0.026363 0.660000 0.159828
v 0.073588 0.060000 0.094828
v 0.073588 0.660000 0.094828
v 0.150000 0.630000 0.060000
v 0.150000 0.730000 0.150000
v 0.232290 0.630000 0.086738
v 0.179389 0.730000 0.159549
v 0.283148 0.630000 0.156738
v 0.197553 0.730000 0.184549
v 0.283148 0.630000 0.243262
v 0.197553 0.730000 0.215451
v 0.232290 0.630000 0.313262
v 0.179389 0.730000 0.240451
v 0.150000 0.630000 0.340000
v 0.150000 0.730000 0.250000
v 0.067710 0.630000 0.313262
v 0.120611 0.730000 0.240451
v 0.016852 0.630000 0.243262
v 0.102447 0.730000 0.215451
v 0.016852 0.630000 0.156738
v 0.102447 0.730000 0.184549
v 0.067710 0.630000 0.086738
v 0.120611 0.730000 0.159549
v 0.110000 0.485000 0.340000
v 0.110000 0.515000 0.340000
v 0.110000 0.485000 0.320000
v 0.110000 0.515000 0.320000
v 0.190000 0.485000 0.340000
v 0.190000 0.515000 0.340000
v 0.190000 0.485000 0.320000
v 0.190000 0.515000 0.320000
v 0.550000 0.060000 0.220000
v 0.550000 0.300000 0.220000
v 0.592426 0.060000 0.237574
v 0.592426 0.300000 0.237574
v 0.610000 0.060000 0.280000
v 0.610000 0.300000 0.280000
v 0.592426 0.060000 0.322426
v 0.592426 0.300000 0.322426
v 0.550000 0.060000 0.340000
v 0.550000 0.300000 0.340000
v 0.507574 0.060000 0.322426
v 0.507574 0.300000 0.322426
v 0.490000 0.060000 0.280000
v 0.490000 0.300000 0.280000
v 0.507574 0.060000 0.237574
v 0.507574 0.300000 0.237574
v 0.550000 0.290000 0.210000
v 0.550000 0.350000 0.250000
v 0.599497 0.290000 0.230503
v 0.571213 0.350000 0.258787
v 0.620000 0.290000 0.280000
v 0.580000 0.350000 0.280000
v 0.599497 0.290000 0.329497
v 0.571213 0.350000 0.301213
v 0.550000 0.290000 0.350000
v 0.550000 0.350000 0.310000
v 0.500503 0.290000 0.329497
v 0.528787 0.350000 0.301213
v 0.480000 0.290000 0.280000
v 0.520000 0.350000 0.280000
v 0.500503 0.290000 0.230503
v 0.528787 0.350000 0.258787
v 0.450000 0.220000 0.250000
v 0.510000 0.220000 0.250000
v 0.450000 0.194019 0.265000
v 0.510000 0.194019 0.265000
v 0.450000 0.194019 0.295000
v 0.510000 0.194019 0.295000
v 0.450000 0.220000 0.310000
v 0.510000 0.220000 0.310000
v 0.450000 0.245981 0.295000
v 0.510000 0.245981 0.295000
v 0.450000 0.245981 0.265000
v 0.510000 0.245981 0.265000
v 0.590000 0.220000 0.250000
v 0.650000 0.220000 0.250000
v 0.590000 0.194019 0.265000
v 0.650000 0.194019 0.265000
v 0.590000 0.194019 0.295000
v 0.650000 0.194019 0.295000
v 0.590000 0.220000 0.310000
v 0.650000 0.220000 0.310000
v 0.590000 0.245981 0.295000
v 0.650000 0.245981 0.295000
v 0.590000 0.245981 0.265000
v 0.650000 0.245981 0.265000
v 0.250000 0.240000 -0.220000
v 0.250000 0.280000 -0.220000
v 0.250000 0.240000 -0.380000
v 0.250000 0.280000 -0.380000
v 0.750000 0.240000 -0.220000
v 0.750000 0.280000 -0.220000
v 0.750000 0.240000 -0.380000
v 0.750000 0.280000 -0.380000
v 0.250000 0.280000 -0.350000
v 0.250000 0.440000 -0.350000
v 0.250000 0.280000 -0.390000
v 0.250000 0.440000 -0.390000
v 0.750000 0.280000 -0.350000
v 0.750000 0.440000 -0.350000
v 0.750000 0.280000 -0.390000
v 0.750000 0.440000 -0.390000
v 0.280000 0.020000 -0.230000
v 0.280000 0.260000 -0.230000
v 0.280000 0.020000 -0.370000
v 0.280000 0.260000 -0.370000
v 0.320000 0.020000 -0.230000
v 0.320000 0.260000 -0.230000
v 0.320000 0.020000 -0.370000
v 0.320000 0.260000 -0.370000
v 0.680000 0.020000 -0.230000
v 0.680000 0.260000 -0.230000
v 0.680000 0.020000 -0.370000
v 0.680000 0.260000 -0.370000
v 0.720000 0.020000 -0.230000
v 0.720000 0.260000 -0.230000
v 0.720000 0.020000 -0.370000
v 0.720000 0.260000 -0.370000
vn -1.0000 -0.0000 -0.0000
vn -0.0000 -0.0000 -1.0000
vn 1.0000 -0.0000 -0.0000
vn -0.0000 -0.0000 1.0000
vn -0.0000 -1.0000 -0.0000
vn -0.0000 1.0000 -0.0000
vn -0.0000 0.1736 -0.9848
vn -0.0000 -0.1736 0.9848
vn -0.0000 -0.9848 -0.1736
vn -0.0000 0.9848 0.1736
vn 0.3090 -0.0000 -0.9511
vn 0.8090 -0.0000 -0.5878
vn 0.8090 -0.0000 0.5878
vn 0.3090 -0.0000 0.9511
vn -0.3090 -0.0000 0.9511
vn -0.8090 -0.0000 0.5878
vn -0.8090 -0.0000 -0.5878
vn -0.3090 -0.0000 -0.9511
vn 0.2348 0.6503 -0.7225
vn 0.6146 0.6503 -0.4465
vn 0.7597 0.6503 -0.0000
vn 0.6146 0.6503 0.4465
vn 0.2348 0.6503 0.7225
vn -0.2348 0.6503 0.7225
vn -0.6146 0.6503 0.4465
vn -0.7597 0.6503 -0.0000
vn -0.6146 0.6503 -0.4465
vn -0.2348 0.6503 -0.7225
vn 0.3827 -0.0000 -0.9239
vn 0.9239 -0.0000 -0.3827
vn 0.9239 -0.0000 0.3827
vn 0.3827 -0.0000 0.9239
vn -0.3827 -0.0000 0.9239
vn -0.9239 -0.0000 0.3827
vn -0.9239 -0.0000 -0.3827
vn -0.3827 -0.0000 -0.9239
vn 0.3258 0.5244 -0.7866
vn 0.7866 0.5244 -0.3258
vn 0.7866 0.5244 0.3258
vn 0.3258 0.5244 0.7866
vn -0.3258 0.5244 0.7866
vn -0.7866 0.5244 0.3258
vn -0.7866 0.5244 -0.3258
vn -0.3258 0.5244 -0.7866
vn -0.0000 -0.5000 -0.8660
vn -0.0000 -0.5000 0.8660
vn -0.0000 0.5000 0.8660
vn -0.0000 0.5000 -0.8660
vt 0.375000 0.000000
vt 0.625000 0.000000
vt 0.625000 0.250000
vt 0.375000 0.250000
vt 0.625000 0.500000
vt 0.375000 0.500000
vt 0.625000 0.750000
vt 0.375000 0.750000
vt 0.625000 1.000000
vt 0.375000 1.000000
vt 0.125000 0.500000
vt 0.125000 0.750000
vt 0.875000 0.500000
vt 0.875000 0.750000
vt 1.000000 0.500000
vt 1.000000 1.000000
vt 0.900000 1.000000
vt 0.900000 0.500000
vt 0.800000 1.000000
vt 0.800000 0.500000
vt 0.700000 1.000000
vt 0.700000 0.500000
vt 0.600000 1.000000
vt 0.600000 0.500000
vt 0.500000 1.000000
vt 0.500000 0.500000
vt 0.400000 1.000000
vt 0.400000 0.500000
vt 0.300000 1.000000
vt 0.300000 0.500000
vt 0.200000 1.000000
vt 0.200000 0.500000
vt 0.391068 0.444164
vt 0.250000 0.490000
vt 0.108932 0.444164
vt 0.021746 0.324164
vt 0.021746 0.175836
vt 0.108932 0.055836
vt 0.250000 0.010000
vt 0.391068 0.055836
vt 0.478254 0.175836
vt 0.478254 0.324164
vt 0.100000 1.000000
vt 0.100000 0.500000
vt -0.000000 1.000000
vt -0.000000 0.500000
vt 0.750000 0.490000
vt 0.891068 0.444164
vt 0.978254 0.324164
vt 0.978254 0.175836
vt 0.891068 0.055836
vt 0.750000 0.010000
vt 0.608932 0.055836
vt 0.521746 0.175836
vt 0.521746 0.324164
vt 0.608932 0.444164
vt 0.108932 0.444164
vt 0.021746 0.324164
vt 0.021746 0.175836
vt 0.108932 0.055836
vt 0.478254 0.175836
vt 0.478254 0.324164
vt 0.750000 0.490000
vt 0.891068 0.444164
vt 0.978254 0.324164
vt 0.978254 0.175836
vt 0.891068 0.055836
vt 0.750000 0.010000
vt 0.608932 0.055836
vt 0.521746 0.175836
vt 0.521746 0.324164
vt 0.608932 0.444164
vt 0.875000 1.000000
vt 0.750000 1.000000
vt 0.750000 0.500000
vt 0.500000 1.000000
vt 0.500000 0.500000
vt 0.250000 1.000000
vt 0.250000 0.500000
vt 0.419706 0.419706
vt 0.080294 0.419706
vt 0.010000 0.250000
vt 0.080294 0.080294
vt 0.419706 0.080294
vt 0.490000 0.250000
vt 0.125000 1.000000
vt 0.000000 1.000000
vt 0.000000 0.500000
vt 0.919706 0.419706
vt 0.990000 0.250000
vt 0.919706 0.080294
vt 0.580294 0.080294
vt 0.510000 0.250000
vt 0.580294 0.419706
vt 0.833333 1.000000
vt 0.833333 0.500000
vt 0.666667 1.000000
vt 0.666667 0.500000
vt 0.500000 1.000000
vt 0.500000 0.500000
vt 0.333333 1.000000
vt 0.333333 0.500000
vt 0.457846 0.370000
vt 0.042154 0.370000
vt 0.042154 0.130000
vt 0.457846 0.130000
vt 0.166667 1.000000
vt 0.166667 0.500000
vt -0.000000 1.000000
vt -0.000000 0.500000
vt 0.957846 0.370000
vt 0.957846 0.130000
vt 0.542154 0.130000
vt 0.542154 0.370000
s 0
usemtl stone_dk
f 1/1/1 2/2/1 4/3/1 3/4/1
f 3/4/2 4/3/2 8/5/2 7/6/2
f 7/6/3 8/5/3 6/7/3 5/8/3
f 5/8/4 6/7/4 2/9/4 1/10/4
f 3/11/5 7/6/5 5/8/5 1/12/5
f 8/5/6 4/13/6 2/14/6 6/7/6
usemtl wood_dk
f 9/1/1 10/2/1 12/3/1 11/4/1
f 11/4/2 12/3/2 16/5/2 15/6/2
f 15/6/3 16/5/3 14/7/3 13/8/3
f 13/8/4 14/7/4 10/9/4 9/10/4
f 11/11/5 15/6/5 13/8/5 9/12/5
f 16/5/6 12/13/6 10/14/6 14/7/6
f 185/1/1 186/2/1 188/3/1 187/4/1
f 187/4/2 188/3/2 192/5/2 191/6/2
f 191/6/3 192/5/3 190/7/3 189/8/3
f 189/8/4 190/7/4 186/9/4 185/10/4
f 187/11/5 191/6/5 189/8/5 185/12/5
f 192/5/6 188/13/6 186/14/6 190/7/6
f 193/1/1 194/2/1 196/3/1 195/4/1
f 195/4/2 196/3/2 200/5/2 199/6/2
f 199/6/3 200/5/3 198/7/3 197/8/3
f 197/8/4 198/7/4 194/9/4 193/10/4
f 195/11/5 199/6/5 197/8/5 193/12/5
f 200/5/6 196/13/6 194/14/6 198/7/6
usemtl soot
f 17/1/1 18/2/1 20/3/1 19/4/1
f 19/4/2 20/3/2 24/5/2 23/6/2
f 23/6/3 24/5/3 22/7/3 21/8/3
f 21/8/4 22/7/4 18/9/4 17/10/4
f 19/11/5 23/6/5 21/8/5 17/12/5
f 24/5/6 20/13/6 18/14/6 22/7/6
f 105/1/1 106/2/1 108/3/1 107/4/1
f 107/4/2 108/3/2 112/5/2 111/6/2
f 111/6/3 112/5/3 110/7/3 109/8/3
f 109/8/4 110/7/4 106/9/4 105/10/4
f 107/11/5 111/6/5 109/8/5 105/12/5
f 112/5/6 108/13/6 106/14/6 110/7/6
usemtl amber
f 25/1/1 26/2/1 28/3/1 27/4/1
f 27/4/2 28/3/2 32/5/2 31/6/2
f 31/6/3 32/5/3 30/7/3 29/8/3
f 29/8/4 30/7/4 26/9/4 25/10/4
f 27/11/5 31/6/5 29/8/5 25/12/5
f 32/5/6 28/13/6 26/14/6 30/7/6
usemtl slate
f 33/1/1 34/2/1 36/3/1 35/4/1
f 35/4/7 36/3/7 40/5/7 39/6/7
f 39/6/3 40/5/3 38/7/3 37/8/3
f 37/8/8 38/7/8 34/9/8 33/10/8
f 35/11/9 39/6/9 37/8/9 33/12/9
f 40/5/10 36/13/10 34/14/10 38/7/10
usemtl crimson
f 41/1/1 42/2/1 44/3/1 43/4/1
f 43/4/2 44/3/2 48/5/2 47/6/2
f 47/6/3 48/5/3 46/7/3 45/8/3
f 45/8/4 46/7/4 42/9/4 41/10/4
f 43/11/5 47/6/5 45/8/5 41/12/5
f 48/5/6 44/13/6 42/14/6 46/7/6
f 57/1/1 58/2/1 60/3/1 59/4/1
f 59/4/2 60/3/2 64/5/2 63/6/2
f 63/6/3 64/5/3 62/7/3 61/8/3
f 61/8/4 62/7/4 58/9/4 57/10/4
f 59/11/5 63/6/5 61/8/5 57/12/5
f 64/5/6 60/13/6 58/14/6 62/7/6
f 65/15/11 66/16/11 68/17/11 67/18/11
f 67/18/12 68/17/12 70/19/12 69/20/12
f 69/20/3 70/19/3 72/21/3 71/22/3
f 71/22/13 72/21/13 74/23/13 73/24/13
f 73/24/14 74/23/14 76/25/14 75/26/14
f 75/26/15 76/25/15 78/27/15 77/28/15
f 77/28/16 78/27/16 80/29/16 79/30/16
f 79/30/1 80/29/1 82/31/1 81/32/1
f 68/33/6 66/34/6 84/35/6 82/36/6 80/37/6 78/38/6 76/39/6 74/40/6 72/41/6 70/42/6
f 81/32/17 82/31/17 84/43/17 83/44/17
f 83/44/18 84/43/18 66/45/18 65/46/18
f 65/47/5 67/48/5 69/49/5 71/50/5 73/51/5 75/52/5 77/53/5 79/54/5 81/55/5 83/56/5
f 85/15/19 86/16/19 88/17/19 87/18/19
f 87/18/20 88/17/20 90/19/20 89/20/20
f 89/20/21 90/19/21 92/21/21 91/22/21
f 91/22/22 92/21/22 94/23/22 93/24/22
f 93/24/23 94/23/23 96/25/23 95/26/23
f 95/26/24 96/25/24 98/27/24 97/28/24
f 97/28/25 98/27/25 100/29/25 99/30/25
f 99/30/26 100/29/26 102/31/26 101/32/26
f 88/33/6 86/34/6 104/57/6 102/58/6 100/59/6 98/60/6 96/39/6 94/40/6 92/61/6 90/62/6
f 101/32/27 102/31/27 104/43/27 103/44/27
f 103/44/28 104/43/28 86/45/28 85/46/28
f 85/63/5 87/64/5 89/65/5 91/66/5 93/67/5 95/68/5 97/69/5 99/70/5 101/71/5 103/72/5
usemtl bone
f 49/1/1 50/2/1 52/3/1 51/4/1
f 51/4/2 52/3/2 56/5/2 55/6/2
f 55/6/3 56/5/3 54/7/3 53/8/3
f 53/8/4 54/7/4 50/9/4 49/10/4
f 51/11/5 55/6/5 53/8/5 49/12/5
f 56/5/6 52/13/6 50/14/6 54/7/6
usemtl gunmetal
f 113/15/29 114/16/29 116/73/29 115/13/29
f 115/13/30 116/73/30 118/74/30 117/75/30
f 117/75/31 118/74/31 120/9/31 119/5/31
f 119/5/32 120/9/32 122/76/32 121/77/32
f 121/77/33 122/76/33 124/10/33 123/6/33
f 123/6/34 124/10/34 126/78/34 125/79/34
f 116/80/6 114/34/6 128/81/6 126/82/6 124/83/6 122/39/6 120/84/6 118/85/6
f 125/79/35 126/78/35 128/86/35 127/11/35
f 127/11/36 128/86/36 114/87/36 113/88/36
f 113/47/5 115/89/5 117/90/5 119/91/5 121/52/5 123/92/5 125/93/5 127/94/5
f 129/15/37 130/16/37 132/73/37 131/13/37
f 131/13/38 132/73/38 134/74/38 133/75/38
f 133/75/39 134/74/39 136/9/39 135/5/39
f 135/5/40 136/9/40 138/76/40 137/77/40
f 137/77/41 138/76/41 140/10/41 139/6/41
f 139/6/42 140/10/42 142/78/42 141/79/42
f 132/80/6 130/34/6 144/81/6 142/82/6 140/83/6 138/39/6 136/84/6 134/85/6
f 141/79/43 142/78/43 144/86/43 143/11/43
f 143/11/44 144/86/44 130/87/44 129/88/44
f 129/63/5 131/89/5 133/90/5 135/91/5 137/68/5 139/92/5 141/93/5 143/94/5
f 145/15/45 146/16/45 148/95/45 147/96/45
f 147/96/5 148/95/5 150/97/5 149/98/5
f 149/98/46 150/97/46 152/99/46 151/100/46
f 151/100/47 152/99/47 154/101/47 153/102/47
f 148/103/3 146/34/3 156/104/3 154/105/3 152/39/3 150/106/3
f 153/102/6 154/101/6 156/107/6 155/108/6
f 155/108/48 156/107/48 146/109/48 145/110/48
f 145/47/1 147/111/1 149/112/1 151/52/1 153/113/1 155/114/1
f 157/15/45 158/16/45 160/95/45 159/96/45
f 159/96/5 160/95/5 162/97/5 161/98/5
f 161/98/46 162/97/46 164/99/46 163/100/46
f 163/100/47 164/99/47 166/101/47 165/102/47
f 160/103/3 158/34/3 168/104/3 166/105/3 164/39/3 162/106/3
f 165/102/6 166/101/6 168/107/6 167/108/6
f 167/108/48 168/107/48 158/109/48 157/110/48
f 157/47/1 159/111/1 161/112/1 163/52/1 165/113/1 167/114/1
usemtl iron
f 169/1/1 170/2/1 172/3/1 171/4/1
f 171/4/2 172/3/2 176/5/2 175/6/2
f 175/6/3 176/5/3 174/7/3 173/8/3
f 173/8/4 174/7/4 170/9/4 169/10/4
f 171/11/5 175/6/5 173/8/5 169/12/5
f 176/5/6 172/13/6 170/14/6 174/7/6
f 177/1/1 178/2/1 180/3/1 179/4/1
f 179/4/2 180/3/2 184/5/2 183/6/2
f 183/6/3 184/5/3 182/7/3 181/8/3
f 181/8/4 182/7/4 178/9/4 177/10/4
f 179/11/5 183/6/5 181/8/5 177/12/5
f 184/5/6 180/13/6 178/14/6 182/7/6
