# Blender 5.0.1
# www.blender.org
mtllib streetlamp.mtl
o streetlamp
v -0.150000 0.000000 0.150000
v -0.150000 0.120000 0.150000
v -0.150000 0.000000 -0.150000
v -0.150000 0.120000 -0.150000
v 0.150000 0.000000 0.150000
v 0.150000 0.120000 0.150000
v 0.150000 0.000000 -0.150000
v 0.150000 0.120000 -0.150000
v 0.000000 0.100000 -0.090000
v 0.000000 0.260000 -0.090000
v 0.063640 0.100000 -0.063640
v 0.063640 0.260000 -0.063640
v 0.090000 0.100000 0.000000
v 0.090000 0.260000 0.000000
v 0.063640 0.100000 0.063640
v 0.063640 0.260000 0.063640
v 0.000000 0.100000 0.090000
v 0.000000 0.260000 0.090000
v -0.063640 0.100000 0.063640
v -0.063640 0.260000 0.063640
v -0.090000 0.100000 0.000000
v -0.090000 0.260000 0.000000
v -0.063640 0.100000 -0.063640
v -0.063640 0.260000 -0.063640
v 0.000000 0.200000 -0.050000
v 0.000000 1.600000 -0.050000
v 0.043301 0.200000 -0.025000
v 0.043301 1.600000 -0.025000
v 0.043301 0.200000 0.025000
v 0.043301 1.600000 0.025000
v 0.000000 0.200000 0.050000
v 0.000000 1.600000 0.050000
v -0.043301 0.200000 0.025000
v -0.043301 1.600000 0.025000
v -0.043301 0.200000 -0.025000
v -0.043301 1.600000 -0.025000
v 0.000000 0.920000 -0.070000
v 0.000000 0.980000 -0.070000
v 0.049497 0.920000 -0.049497
v 0.049497 0.980000 -0.049497
v 0.070000 0.920000 0.000000
v 0.070000 0.980000 0.000000
v 0.049497 0.920000 0.049497
v 0.049497 0.980000 0.049497
v 0.000000 0.920000 0.070000
v 0.000000 0.980000 0.070000
v -0.049497 0.920000 0.049497
v -0.049497 0.980000 0.049497
v -0.070000 0.920000 0.000000
v -0.070000 0.980000 0.000000
v -0.049497 0.920000 -0.049497
v -0.049497 0.980000 -0.049497
v -0.180000 1.585000 0.015000
v -0.180000 1.615000 0.015000
v -0.180000 1.585000 -0.015000
v -0.180000 1.615000 -0.015000
v 0.000000 1.585000 0.015000
v 0.000000 1.615000 0.015000
v 0.000000 1.585000 -0.015000
v 0.000000 1.615000 -0.015000
v 0.000000 1.585000 0.015000
v 0.000000 1.615000 0.015000
v 0.000000 1.585000 -0.015000
v 0.000000 1.615000 -0.015000
v 0.180000 1.585000 0.015000
v 0.180000 1.615000 0.015000
v 0.180000 1.585000 -0.015000
v 0.180000 1.615000 -0.015000
v -0.080000 1.640000 0.080000
v -0.080000 1.680000 0.080000
v -0.080000 1.640000 -0.080000
v -0.080000 1.680000 -0.080000
v 0.080000 1.640000 0.080000
v 0.080000 1.680000 0.080000
v 0.080000 1.640000 -0.080000
v 0.080000 1.680000 -0.080000
v -0.065000 1.680000 0.065000
v -0.065000 1.860000 0.065000
v -0.065000 1.680000 -0.065000
v -0.065000 1.860000 -0.065000
v 0.065000 1.680000 0.065000
v 0.065000 1.860000 0.065000
v 0.065000 1.680000 -0.065000
v 0.065000 1.860000 -0.065000
v -0.080000 1.670000 0.080000
v -0.080000 1.870000 0.080000
v -0.080000 1.670000 0.060000
v -0.080000 1.870000 0.060000
v -0.060000 1.670000 0.080000
v -0.060000 1.870000 0.080000
v -0.060000 1.670000 0.060000
v -0.060000 1.870000 0.060000
v -0.080000 1.670000 -0.060000
v -0.080000 1.870000 -0.060000
v -0.080000 1.670000 -0.080000
v -0.080000 1.870000 -0.080000
v -0.060000 1.670000 -0.060000
v -0.060000 1.870000 -0.060000
v -0.060000 1.670000 -0.080000
v -0.060000 1.870000 -0.080000
v 0.060000 1.670000 0.080000
v 0.060000 1.870000 0.080000
v 0.060000 1.670000 0.060000
v 0.060000 1.870000 0.060000
v 0.080000 1.670000 0.080000
v 0.080000 1.870000 0.080000
v 0.080000 1.670000 0.060000
v 0.080000 1.870000 0.060000
v 0.060000 1.670000 -0.060000
v 0.060000 1.870000 -0.060000
v 0.060000 1.670000 -0.080000
v 0.060000 1.870000 -0.080000
v 0.080000 1.670000 -0.060000
v 0.080000 1.870000 -0.060000
v 0.080000 1.670000 -0.080000
v 0.080000 1.870000 -0.080000
v 0.000000 1.860000 -0.120000
v 0.120000 1.860000 0.000000
v 0.000000 1.860000 0.120000
v -0.120000 1.860000 0.000000
v 0.000000 2.000000 0.000000
v 0.000000 1.980000 -0.015000
v 0.000000 2.120000 -0.015000
v 0.012990 1.980000 -0.007500
v 0.012990 2.120000 -0.007500
v 0.012990 1.980000 0.007500
v 0.012990 2.120000 0.007500
v 0.000000 1.980000 0.015000
v 0.000000 2.120000 0.015000
v -0.012990 1.980000 0.007500
v -0.012990 2.120000 0.007500
v -0.012990 1.980000 -0.007500
v -0.012990 2.120000 -0.007500
v 0.160000 1.560000 0.000000
v 0.203416 1.593167 0.031543
v 0.143417 1.593167 0.051038
v 0.106335 1.593167 0.000000
v 0.143417 1.593167 -0.051038
v 0.203416 1.593167 -0.031543
v 0.176583 1.646833 0.051038
v 0.116584 1.646833 0.031543
v 0.116584 1.646833 -0.031543
v 0.176583 1.646833 -0.051038
v 0.213666 1.646833 0.000000
v 0.160000 1.680000 0.000000
v 0.200000 1.620000 -0.030000
v 0.200000 1.590000 0.000000
v 0.200000 1.620000 0.030000
v 0.200000 1.650000 0.000000
v 0.280000 1.620000 0.000000
vn -1.0000 -0.0000 -0.0000
vn -0.0000 -0.0000 -1.0000
vn 1.0000 -0.0000 -0.0000
vn -0.0000 -0.0000 1.0000
vn -0.0000 -1.0000 -0.0000
vn -0.0000 1.0000 -0.0000
vn 0.3827 -0.0000 -0.9239
vn 0.9239 -0.0000 -0.3827
vn 0.9239 -0.0000 0.3827
vn 0.3827 -0.0000 0.9239
vn -0.3827 -0.0000 0.9239
vn -0.9239 -0.0000 0.3827
vn -0.9239 -0.0000 -0.3827
vn -0.3827 -0.0000 -0.9239
vn 0.5000 -0.0000 -0.8660
vn 0.5000 -0.0000 0.8660
vn -0.5000 -0.0000 0.8660
vn -0.5000 -0.0000 -0.8660
vn 0.6047 0.5183 -0.6047
vn 0.6047 0.5183 0.6047
vn -0.6047 0.5183 0.6047
vn -0.6047 0.5183 -0.6047
vn 0.1876 -0.7947 0.5774
vn 0.6071 -0.7947 -0.0000
vn -0.4911 -0.7947 0.3568
vn -0.4911 -0.7947 -0.3568
vn 0.1876 -0.7947 -0.5774
vn 0.9822 -0.1876 -0.0000
vn 0.3035 -0.1876 0.9342
vn -0.7946 -0.1876 0.5774
vn -0.7946 -0.1876 -0.5774
vn 0.3035 -0.1876 -0.9342
vn 0.7946 0.1876 0.5774
vn -0.3035 0.1876 0.9342
vn -0.9822 0.1876 -0.0000
vn -0.3035 0.1876 -0.9342
vn 0.7946 0.1876 -0.5774
vn 0.4911 0.7947 0.3568
vn -0.1876 0.7947 0.5774
vn -0.6071 0.7947 -0.0000
vn -0.1876 0.7947 -0.5774
vn 0.4911 0.7947 -0.3568
vn 0.2563 -0.6835 -0.6835
vn 0.2563 -0.6835 0.6835
vn 0.2563 0.6835 0.6835
vn 0.2563 0.6835 -0.6835
vt 0.126953 0.001953
vt 0.126953 0.164062
vt 0.248047 0.164062
vt 0.248047 0.001953
vt 0.626953 0.167969
vt 0.626953 0.330078
vt 0.748047 0.330078
vt 0.748047 0.167969
vt 0.730313 0.306338
vt 0.687500 0.330078
vt 0.644687 0.306338
vt 0.626953 0.249023
vt 0.644687 0.191709
vt 0.687500 0.167969
vt 0.730313 0.191709
vt 0.748047 0.249023
vt 0.748047 0.289551
vt 0.626953 0.289551
vt 0.626953 0.208496
vt 0.748047 0.208496
vt 0.001953 0.832031
vt 0.001953 0.994141
vt 0.123047 0.994141
vt 0.123047 0.832031
vt 0.501953 0.500000
vt 0.501953 0.662109
vt 0.623047 0.662109
vt 0.623047 0.500000
vt 0.498047 0.167969
vt 0.376953 0.330078
vt 0.376953 0.167969
vt 0.498047 0.330078
vt 0.437500 0.330078
vt 0.498047 0.249023
vt 0.437500 0.167969
vt 0.376953 0.249023
vt 0.535422 0.662109
vt 0.623047 0.561921
vt 0.501953 0.581055
vt 0.585628 0.500000
vt 0.585628 0.662109
vt 0.535422 0.500000
vt 0.623047 0.600188
vt 0.562500 0.662109
vt 0.568891 0.662109
vt 0.548207 0.662109
vt 0.576793 0.662109
vt 0.548207 0.500000
vt 0.556109 0.500000
vt 0.562500 0.500000
vt 0.576793 0.500000
vt 0.539372 0.500000
vt 0.501953 0.561921
vt 0.589578 0.662109
vt 0.623047 0.581055
vt 0.501953 0.600188
vt 0.589578 0.500000
vt 0.539372 0.662109
s 0
usemtl kit_atlas_mat
f 1/1/1 2/2/1 4/3/1 3/4/1
f 3/1/2 4/2/2 8/3/2 7/4/2
f 7/4/3 8/3/3 6/2/3 5/1/3
f 5/4/4 6/3/4 2/2/4 1/1/4
f 3/2/5 7/3/5 5/4/5 1/1/5
f 8/3/6 4/2/6 2/1/6 6/4/6
f 9/5/7 10/6/7 12/7/7 11/8/7
f 11/8/8 12/7/8 14/6/8 13/5/8
f 13/8/9 14/7/9 16/6/9 15/5/9
f 15/8/10 16/7/10 18/6/10 17/5/10
f 17/8/11 18/7/11 20/6/11 19/5/11
f 19/5/12 20/6/12 22/7/12 21/8/12
f 12/9/6 10/10/6 24/11/6 22/12/6 20/13/6 18/14/6 16/15/6 14/16/6
f 21/5/13 22/6/13 24/7/13 23/8/13
f 23/5/14 24/6/14 10/7/14 9/8/14
f 9/10/5 11/9/5 13/16/5 15/15/5 17/14/5 19/13/5 21/12/5 23/11/5
f 25/5/15 26/6/15 28/7/15 27/8/15
f 27/8/3 28/7/3 30/6/3 29/5/3
f 29/8/16 30/7/16 32/6/16 31/5/16
f 31/8/17 32/7/17 34/6/17 33/5/17
f 28/17/6 26/10/6 36/18/6 34/19/6 32/14/6 30/20/6
f 33/5/1 34/6/1 36/7/1 35/8/1
f 35/5/18 36/6/18 26/7/18 25/8/18
f 25/10/5 27/17/5 29/20/5 31/14/5 33/19/5 35/18/5
f 37/5/7 38/6/7 40/7/7 39/8/7
f 39/8/8 40/7/8 42/6/8 41/5/8
f 41/8/9 42/7/9 44/6/9 43/5/9
f 43/8/10 44/7/10 46/6/10 45/5/10
f 45/8/11 46/7/11 48/6/11 47/5/11
f 47/5/12 48/6/12 50/7/12 49/8/12
f 40/9/6 38/10/6 52/11/6 50/12/6 48/13/6 46/14/6 44/15/6 42/16/6
f 49/5/13 50/6/13 52/7/13 51/8/13
f 51/5/14 52/6/14 38/7/14 37/8/14
f 37/10/5 39/9/5 41/16/5 43/15/5 45/14/5 47/13/5 49/12/5 51/11/5
f 53/5/1 54/6/1 56/7/1 55/8/1
f 55/5/2 56/6/2 60/7/2 59/8/2
f 59/8/3 60/7/3 58/6/3 57/5/3
f 57/8/4 58/7/4 54/6/4 53/5/4
f 55/6/5 59/7/5 57/8/5 53/5/5
f 60/7/6 56/6/6 54/5/6 58/8/6
f 61/5/1 62/6/1 64/7/1 63/8/1
f 63/5/2 64/6/2 68/7/2 67/8/2
f 67/8/3 68/7/3 66/6/3 65/5/3
f 65/8/4 66/7/4 62/6/4 61/5/4
f 63/6/5 67/7/5 65/8/5 61/5/5
f 68/7/6 64/6/6 62/5/6 66/8/6
f 69/5/1 70/6/1 72/7/1 71/8/1
f 71/5/2 72/6/2 76/7/2 75/8/2
f 75/8/3 76/7/3 74/6/3 73/5/3
f 73/8/4 74/7/4 70/6/4 69/5/4
f 71/6/5 75/7/5 73/8/5 69/5/5
f 76/7/6 72/6/6 70/5/6 74/8/6
f 77/21/1 78/22/1 80/23/1 79/24/1
f 79/21/2 80/22/2 84/23/2 83/24/2
f 83/24/3 84/23/3 82/22/3 81/21/3
f 81/24/4 82/23/4 78/22/4 77/21/4
f 79/22/5 83/23/5 81/24/5 77/21/5
f 84/23/6 80/22/6 78/21/6 82/24/6
f 85/25/1 86/26/1 88/27/1 87/28/1
f 87/25/2 88/26/2 92/27/2 91/28/2
f 91/28/3 92/27/3 90/26/3 89/25/3
f 89/28/4 90/27/4 86/26/4 85/25/4
f 87/26/5 91/27/5 89/28/5 85/25/5
f 92/27/6 88/26/6 86/25/6 90/28/6
f 93/25/1 94/26/1 96/27/1 95/28/1
f 95/25/2 96/26/2 100/27/2 99/28/2
f 99/28/3 100/27/3 98/26/3 97/25/3
f 97/28/4 98/27/4 94/26/4 93/25/4
f 95/26/5 99/27/5 97/28/5 93/25/5
f 100/27/6 96/26/6 94/25/6 98/28/6
f 101/25/1 102/26/1 104/27/1 103/28/1
f 103/25/2 104/26/2 108/27/2 107/28/2
f 107/28/3 108/27/3 106/26/3 105/25/3
f 105/28/4 106/27/4 102/26/4 101/25/4
f 103/26/5 107/27/5 105/28/5 101/25/5
f 108/27/6 104/26/6 102/25/6 106/28/6
f 109/25/1 110/26/1 112/27/1 111/28/1
f 111/25/2 112/26/2 116/27/2 115/28/2
f 115/28/3 116/27/3 114/26/3 113/25/3
f 113/28/4 114/27/4 110/26/4 109/25/4
f 111/26/5 115/27/5 113/28/5 109/25/5
f 116/27/6 112/26/6 110/25/6 114/28/6
f 117/29/19 121/30/19 118/31/19
f 118/29/20 121/32/20 119/31/20
f 117/33/5 118/34/5 119/35/5 120/36/5
f 119/31/21 121/32/21 120/29/21
f 120/31/22 121/30/22 117/29/22
f 122/5/15 123/6/15 125/7/15 124/8/15
f 124/8/3 125/7/3 127/6/3 126/5/3
f 126/8/16 127/7/16 129/6/16 128/5/16
f 128/8/17 129/7/17 131/6/17 130/5/17
f 125/17/6 123/10/6 133/18/6 131/19/6 129/14/6 127/20/6
f 130/5/1 131/6/1 133/7/1 132/8/1
f 132/5/18 133/6/18 123/7/18 122/8/18
f 122/10/5 124/17/5 126/20/5 128/14/5 130/19/5 132/18/5
f 134/37/23 135/38/23 136/25/23
f 135/28/24 134/39/24 139/27/24
f 134/27/25 136/40/25 137/26/25
f 134/28/26 137/25/26 138/41/26
f 134/42/27 138/26/27 139/43/27
f 135/25/28 139/28/28 144/44/28
f 136/25/29 135/28/29 140/45/29
f 137/28/30 136/25/30 141/46/30
f 138/28/31 137/25/31 142/47/31
f 139/28/32 138/25/32 143/45/32
f 135/48/33 144/27/33 140/26/33
f 136/49/34 140/27/34 141/26/34
f 137/50/35 141/26/35 142/27/35
f 138/49/36 142/26/36 143/27/36
f 139/51/37 143/27/37 144/26/37
f 140/52/38 144/27/38 145/26/38
f 141/53/39 140/28/39 145/54/39
f 142/26/40 141/25/40 145/55/40
f 143/27/41 142/56/41 145/57/41
f 144/28/42 143/58/42 145/25/42
f 146/28/43 150/26/43 147/25/43
f 147/28/44 150/27/44 148/25/44
f 146/44/1 147/55/1 148/50/1 149/39/1
f 148/25/45 150/27/45 149/28/45
f 149/25/46 150/26/46 146/28/46
