# Blender 5.0.1
# www.blender.org
mtllib town_hall.mtl
o town_hall
v -1.400000 0.000000 0.850000
v -1.400000 0.240000 0.850000
v -1.400000 0.000000 -0.850000
v -1.400000 0.240000 -0.850000
v 1.400000 0.000000 0.850000
v 1.400000 0.240000 0.850000
v 1.400000 0.000000 -0.850000
v 1.400000 0.240000 -0.850000
v -1.300000 0.240000 0.750000
v -1.300000 1.940000 0.750000
v -1.300000 0.240000 -0.750000
v -1.300000 1.940000 -0.750000
v 1.300000 0.240000 0.750000
v 1.300000 1.940000 0.750000
v 1.300000 0.240000 -0.750000
v 1.300000 1.940000 -0.750000
v -1.325000 0.825000 0.775000
v -1.325000 0.875000 0.775000
v -1.325000 0.825000 -0.775000
v -1.325000 0.875000 -0.775000
v 1.325000 0.825000 0.775000
v 1.325000 0.875000 0.775000
v 1.325000 0.825000 -0.775000
v 1.325000 0.875000 -0.775000
v -1.325000 1.425000 0.775000
v -1.325000 1.475000 0.775000
v -1.325000 1.425000 -0.775000
v -1.325000 1.475000 -0.775000
v 1.325000 1.425000 0.775000
v 1.325000 1.475000 0.775000
v 1.325000 1.425000 -0.775000
v 1.325000 1.475000 -0.775000
v -1.300000 1.940000 0.750000
v -1.300000 2.400000 0.750000
v -1.300000 1.940000 -0.750000
v -1.300000 2.400000 -0.750000
v 1.300000 1.940000 0.750000
v 1.300000 2.400000 0.750000
v 1.300000 1.940000 -0.750000
v 1.300000 2.400000 -0.750000
v -1.000000 2.400000 0.500000
v -1.000000 2.540000 0.500000
v -1.000000 2.400000 -0.500000
v -1.000000 2.540000 -0.500000
v 1.000000 2.400000 0.500000
v 1.000000 2.540000 0.500000
v 1.000000 2.400000 -0.500000
v 1.000000 2.540000 -0.500000
v -0.980000 2.060000 0.790000
v -0.980000 2.300000 0.790000
v -0.980000 2.060000 0.590000
v -0.980000 2.300000 0.590000
v -0.720000 2.060000 0.790000
v -0.720000 2.300000 0.790000
v -0.720000 2.060000 0.590000
v -0.720000 2.300000 0.590000
v -1.020000 2.300000 0.830000
v -0.680000 2.300000 0.830000
v -0.850000 2.430000 0.830000
v -1.020000 2.300000 0.550000
v -0.680000 2.300000 0.550000
v -0.850000 2.430000 0.550000
v -0.910000 2.125000 0.795000
v -0.910000 2.275000 0.795000
v -0.910000 2.125000 0.745000
v -0.910000 2.275000 0.745000
v -0.790000 2.125000 0.795000
v -0.790000 2.275000 0.795000
v -0.790000 2.125000 0.745000
v -0.790000 2.275000 0.745000
v -0.130000 2.060000 0.790000
v -0.130000 2.300000 0.790000
v -0.130000 2.060000 0.590000
v -0.130000 2.300000 0.590000
v 0.130000 2.060000 0.790000
v 0.130000 2.300000 0.790000
v 0.130000 2.060000 0.590000
v 0.130000 2.300000 0.590000
v -0.170000 2.300000 0.830000
v 0.170000 2.300000 0.830000
v 0.000000 2.430000 0.830000
v -0.170000 2.300000 0.550000
v 0.170000 2.300000 0.550000
v 0.000000 2.430000 0.550000
v -0.060000 2.125000 0.795000
v -0.060000 2.275000 0.795000
v -0.060000 2.125000 0.745000
v -0.060000 2.275000 0.745000
v 0.060000 2.125000 0.795000
v 0.060000 2.275000 0.795000
v 0.060000 2.125000 0.745000
v 0.060000 2.275000 0.745000
v 0.720000 2.060000 0.790000
v 0.720000 2.300000 0.790000
v 0.720000 2.060000 0.590000
v 0.720000 2.300000 0.590000
v 0.980000 2.060000 0.790000
v 0.980000 2.300000 0.790000
v 0.980000 2.060000 0.590000
v 0.980000 2.300000 0.590000
v 0.680000 2.300000 0.830000
v 1.020000 2.300000 0.830000
v 0.850000 2.430000 0.830000
v 0.680000 2.300000 0.550000
v 1.020000 2.300000 0.550000
v 0.850000 2.430000 0.550000
v 0.790000 2.125000 0.795000
v 0.790000 2.275000 0.795000
v 0.790000 2.125000 0.745000
v 0.790000 2.275000 0.745000
v 0.910000 2.125000 0.795000
v 0.910000 2.275000 0.795000
v 0.910000 2.125000 0.745000
v 0.910000 2.275000 0.745000
v -0.330000 1.940000 0.430000
v -0.330000 2.940000 0.430000
v -0.330000 1.940000 -0.230000
v -0.330000 2.940000 -0.230000
v 0.330000 1.940000 0.430000
v 0.330000 2.940000 0.430000
v 0.330000 1.940000 -0.230000
v 0.330000 2.940000 -0.230000
v -0.370000 2.920000 0.470000
v -0.370000 3.000000 0.470000
v -0.370000 2.920000 -0.270000
v -0.370000 3.000000 -0.270000
v 0.370000 2.920000 0.470000
v 0.370000 3.000000 0.470000
v 0.370000 2.920000 -0.270000
v 0.370000 3.000000 -0.270000
v -0.373352 3.040000 -0.273352
v -0.070711 3.740000 0.029289
v 0.373352 3.040000 -0.273352
v 0.070711 3.740000 0.029289
v 0.373352 3.040000 0.473352
v 0.070711 3.740000 0.170711
v -0.373352 3.040000 0.473352
v -0.070711 3.740000 0.170711
v 0.000000 3.690000 0.080000
v 0.000000 3.990000 0.080000
v 0.017321 3.690000 0.090000
v 0.017321 3.990000 0.090000
v 0.017321 3.690000 0.110000
v 0.017321 3.990000 0.110000
v 0.000000 3.690000 0.120000
v 0.000000 3.990000 0.120000
v -0.017321 3.690000 0.110000
v -0.017321 3.990000 0.110000
v -0.017321 3.690000 0.090000
v -0.017321 3.990000 0.090000
v 0.000000 2.890000 0.425000
v 0.000000 2.890000 0.455000
v 0.100000 2.863205 0.425000
v 0.100000 2.863205 0.455000
v 0.173205 2.790000 0.425000
v 0.173205 2.790000 0.455000
v 0.200000 2.690000 0.425000
v 0.200000 2.690000 0.455000
v 0.173205 2.590000 0.425000
v 0.173205 2.590000 0.455000
v 0.100000 2.516795 0.425000
v 0.100000 2.516795 0.455000
v 0.000000 2.490000 0.425000
v 0.000000 2.490000 0.455000
v -0.100000 2.516795 0.425000
v -0.100000 2.516795 0.455000
v -0.173205 2.590000 0.425000
v -0.173205 2.590000 0.455000
v -0.200000 2.690000 0.425000
v -0.200000 2.690000 0.455000
v -0.173205 2.790000 0.425000
v -0.173205 2.790000 0.455000
v -0.100000 2.863205 0.425000
v -0.100000 2.863205 0.455000
v -0.010000 2.720000 0.390000
v -0.010000 2.720000 0.530000
v -0.010000 2.740000 0.390000
v -0.010000 2.740000 0.530000
v 0.010000 2.720000 0.390000
v 0.010000 2.720000 0.530000
v 0.010000 2.740000 0.390000
v 0.010000 2.740000 0.530000
v 0.000000 2.680000 0.470000
v 0.000000 2.700000 0.470000
v 0.000000 2.680000 0.450000
v 0.000000 2.700000 0.450000
v 0.100000 2.680000 0.470000
v 0.100000 2.700000 0.470000
v 0.100000 2.680000 0.450000
v 0.100000 2.700000 0.450000
v -0.250000 0.240000 0.950000
v -0.250000 1.040000 0.950000
v -0.207574 0.240000 0.967574
v -0.207574 1.040000 0.967574
v -0.190000 0.240000 1.010000
v -0.190000 1.040000 1.010000
v -0.207574 0.240000 1.052426
v -0.207574 1.040000 1.052426
v -0.250000 0.240000 1.070000
v -0.250000 1.040000 1.070000
v -0.292426 0.240000 1.052426
v -0.292426 1.040000 1.052426
v -0.310000 0.240000 1.010000
v -0.310000 1.040000 1.010000
v -0.292426 0.240000 0.967574
v -0.292426 1.040000 0.967574
v -0.550000 0.240000 0.950000
v -0.550000 1.040000 0.950000
v -0.507574 0.240000 0.967574
v -0.507574 1.040000 0.967574
v -0.490000 0.240000 1.010000
v -0.490000 1.040000 1.010000
v -0.507574 0.240000 1.052426
v -0.507574 1.040000 1.052426
v -0.550000 0.240000 1.070000
v -0.550000 1.040000 1.070000
v -0.592426 0.240000 1.052426
v -0.592426 1.040000 1.052426
v -0.610000 0.240000 1.010000
v -0.610000 1.040000 1.010000
v -0.592426 0.240000 0.967574
v -0.592426 1.040000 0.967574
v 0.250000 0.240000 0.950000
v 0.250000 1.040000 0.950000
v 0.292426 0.240000 0.967574
v 0.292426 1.040000 0.967574
v 0.310000 0.240000 1.010000
v 0.310000 1.040000 1.010000
v 0.292426 0.240000 1.052426
v 0.292426 1.040000 1.052426
v 0.250000 0.240000 1.070000
v 0.250000 1.040000 1.070000
v 0.207574 0.240000 1.052426
v 0.207574 1.040000 1.052426
v 0.190000 0.240000 1.010000
v 0.190000 1.040000 1.010000
v 0.207574 0.240000 0.967574
v 0.207574 1.040000 0.967574
v 0.550000 0.240000 0.950000
v 0.550000 1.040000 0.950000
v 0.592426 0.240000 0.967574
v 0.592426 1.040000 0.967574
v 0.610000 0.240000 1.010000
v 0.610000 1.040000 1.010000
v 0.592426 0.240000 1.052426
v 0.592426 1.040000 1.052426
v 0.550000 0.240000 1.070000
v 0.550000 1.040000 1.070000
v 0.507574 0.240000 1.052426
v 0.507574 1.040000 1.052426
v 0.490000 0.240000 1.010000
v 0.490000 1.040000 1.010000
v 0.507574 0.240000 0.967574
v 0.507574 1.040000 0.967574
v -0.650000 1.020000 1.220000
v -0.650000 1.140000 1.220000
v -0.650000 1.020000 0.800000
v -0.650000 1.140000 0.800000
v 0.650000 1.020000 1.220000
v 0.650000 1.140000 1.220000
v 0.650000 1.020000 0.800000
v 0.650000 1.140000 0.800000
v -0.250000 0.210000 0.760000
v -0.250000 1.110000 0.760000
v -0.250000 0.210000 0.660000
v -0.250000 1.110000 0.660000
v 0.250000 0.210000 0.760000
v 0.250000 1.110000 0.760000
v 0.250000 0.210000 0.660000
v 0.250000 1.110000 0.660000
v -1.080000 0.530000 0.795000
v -1.080000 0.870000 0.795000
v -1.080000 0.530000 0.745000
v -1.080000 0.870000 0.745000
v -0.920000 0.530000 0.795000
v -0.920000 0.870000 0.795000
v -0.920000 0.530000 0.745000
v -0.920000 0.870000 0.745000
v -0.680000 0.530000 0.795000
v -0.680000 0.870000 0.795000
v -0.680000 0.530000 0.745000
v -0.680000 0.870000 0.745000
v -0.520000 0.530000 0.795000
v -0.520000 0.870000 0.795000
v -0.520000 0.530000 0.745000
v -0.520000 0.870000 0.745000
v 0.520000 0.530000 0.795000
v 0.520000 0.870000 0.795000
v 0.520000 0.530000 0.745000
v 0.520000 0.870000 0.745000
v 0.680000 0.530000 0.795000
v 0.680000 0.870000 0.795000
v 0.680000 0.530000 0.745000
v 0.680000 0.870000 0.745000
v 0.920000 0.530000 0.795000
v 0.920000 0.870000 0.795000
v 0.920000 0.530000 0.745000
v 0.920000 0.870000 0.745000
v 1.080000 0.530000 0.795000
v 1.080000 0.870000 0.795000
v 1.080000 0.530000 0.745000
v 1.080000 0.870000 0.745000
v -1.080000 1.080000 0.795000
v -1.080000 1.420000 0.795000
v -1.080000 1.080000 0.745000
v -1.080000 1.420000 0.745000
v -0.920000 1.080000 0.795000
v -0.920000 1.420000 0.795000
v -0.920000 1.080000 0.745000
v -0.920000 1.420000 0.745000
v -0.680000 1.080000 0.795000
v -0.680000 1.420000 0.795000
v -0.680000 1.080000 0.745000
v -0.680000 1.420000 0.745000
v -0.520000 1.080000 0.795000
v -0.520000 1.420000 0.795000
v -0.520000 1.080000 0.745000
v -0.520000 1.420000 0.745000
v 0.520000 1.080000 0.795000
v 0.520000 1.420000 0.795000
v 0.520000 1.080000 0.745000
v 0.520000 1.420000 0.745000
v 0.680000 1.080000 0.795000
v 0.680000 1.420000 0.795000
v 0.680000 1.080000 0.745000
v 0.680000 1.420000 0.745000
v 0.920000 1.080000 0.795000
v 0.920000 1.420000 0.795000
v 0.920000 1.080000 0.745000
v 0.920000 1.420000 0.745000
v 1.080000 1.080000 0.795000
v 1.080000 1.420000 0.795000
v 1.080000 1.080000 0.745000
v 1.080000 1.420000 0.745000
v -1.340000 0.840000 0.480000
v -1.340000 1.160000 0.480000
v -1.340000 0.840000 0.320000
v -1.340000 1.160000 0.320000
v -1.300000 0.840000 0.480000
v -1.300000 1.160000 0.480000
v -1.300000 0.840000 0.320000
v -1.300000 1.160000 0.320000
v -1.340000 0.840000 -0.320000
v -1.340000 1.160000 -0.320000
v -1.340000 0.840000 -0.480000
v -1.340000 1.160000 -0.480000
v -1.300000 0.840000 -0.320000
v -1.300000 1.160000 -0.320000
v -1.300000 0.840000 -0.480000
v -1.300000 1.160000 -0.480000
v 1.300000 0.840000 0.480000
v 1.300000 1.160000 0.480000
v 1.300000 0.840000 0.320000
v 1.300000 1.160000 0.320000
v 1.340000 0.840000 0.480000
v 1.340000 1.160000 0.480000
v 1.340000 0.840000 0.320000
v 1.340000 1.160000 0.320000
v 1.300000 0.840000 -0.320000
v 1.300000 1.160000 -0.320000
v 1.300000 0.840000 -0.480000
v 1.300000 1.160000 -0.480000
v 1.340000 0.840000 -0.320000
v 1.340000 1.160000 -0.320000
v 1.340000 0.840000 -0.480000
v 1.340000 1.160000 -0.480000
v -1.410000 1.920000 0.090000
v -1.410000 2.040000 0.090000
v -1.410000 1.920000 -0.090000
v -1.410000 2.040000 -0.090000
v -1.230000 1.920000 0.090000
v -1.230000 2.040000 0.090000
v -1.230000 1.920000 -0.090000
v -1.230000 2.040000 -0.090000
v -1.355000 2.000000 -0.065000
v -1.355000 2.160000 -0.065000
v -1.355000 2.000000 0.065000
v -1.355000 2.160000 0.065000
v -1.485000 2.000000 -0.065000
v -1.485000 2.160000 -0.065000
v -1.485000 2.000000 0.065000
v -1.485000 2.160000 0.065000
v -1.490000 2.090000 -0.050000
v -1.490000 2.190000 -0.050000
v -1.490000 2.090000 0.050000
v -1.490000 2.190000 0.050000
v -1.590000 2.090000 -0.050000
v -1.590000 2.190000 -0.050000
v -1.590000 2.090000 0.050000
v -1.590000 2.190000 0.050000
v -1.580000 2.085000 -0.030000
v -1.580000 2.135000 -0.030000
v -1.580000 2.085000 0.030000
v -1.580000 2.135000 0.030000
v -1.700000 2.085000 -0.030000
v -1.700000 2.135000 -0.030000
v -1.700000 2.085000 0.030000
v -1.700000 2.135000 0.030000
v -1.540000 2.185000 -0.080000
v -1.510000 2.185000 -0.050000
v -1.540000 2.185000 -0.020000
v -1.570000 2.185000 -0.050000
v -1.540000 2.275000 -0.050000
v -1.290000 2.020000 -0.145000
v -1.290000 2.220000 -0.145000
v -1.290000 2.020000 -0.055000
v -1.290000 2.220000 -0.055000
v -1.310000 2.020000 -0.145000
v -1.310000 2.220000 -0.145000
v -1.310000 2.020000 -0.055000
v -1.310000 2.220000 -0.055000
v -1.535000 1.900000 -0.085000
v -1.535000 2.020000 -0.085000
v -1.535000 1.900000 -0.035000
v -1.535000 2.020000 -0.035000
v -1.585000 1.900000 -0.085000
v -1.585000 2.020000 -0.085000
v -1.585000 1.900000 -0.035000
v -1.585000 2.020000 -0.035000
v -1.540000 2.185000 0.020000
v -1.510000 2.185000 0.050000
v -1.540000 2.185000 0.080000
v -1.570000 2.185000 0.050000
v -1.540000 2.275000 0.050000
v -1.290000 2.020000 0.055000
v -1.290000 2.220000 0.055000
v -1.290000 2.020000 0.145000
v -1.290000 2.220000 0.145000
v -1.310000 2.020000 0.055000
v -1.310000 2.220000 0.055000
v -1.310000 2.020000 0.145000
v -1.310000 2.220000 0.145000
v -1.535000 1.900000 0.035000
v -1.535000 2.020000 0.035000
v -1.535000 1.900000 0.085000
v -1.535000 2.020000 0.085000
v -1.585000 1.900000 0.035000
v -1.585000 2.020000 0.035000
v -1.585000 1.900000 0.085000
v -1.585000 2.020000 0.085000
v 1.230000 1.920000 0.090000
v 1.230000 2.040000 0.090000
v 1.230000 1.920000 -0.090000
v 1.230000 2.040000 -0.090000
v 1.410000 1.920000 0.090000
v 1.410000 2.040000 0.090000
v 1.410000 1.920000 -0.090000
v 1.410000 2.040000 -0.090000
v 1.355000 2.000000 0.065000
v 1.355000 2.160000 0.065000
v 1.355000 2.000000 -0.065000
v 1.355000 2.160000 -0.065000
v 1.485000 2.000000 0.065000
v 1.485000 2.160000 0.065000
v 1.485000 2.000000 -0.065000
v 1.485000 2.160000 -0.065000
v 1.490000 2.090000 0.050000
v 1.490000 2.190000 0.050000
v 1.490000 2.090000 -0.050000
v 1.490000 2.190000 -0.050000
v 1.590000 2.090000 0.050000
v 1.590000 2.190000 0.050000
v 1.590000 2.090000 -0.050000
v 1.590000 2.190000 -0.050000
v 1.580000 2.085000 0.030000
v 1.580000 2.135000 0.030000
v 1.580000 2.085000 -0.030000
v 1.580000 2.135000 -0.030000
v 1.700000 2.085000 0.030000
v 1.700000 2.135000 0.030000
v 1.700000 2.085000 -0.030000
v 1.700000 2.135000 -0.030000
v 1.540000 2.185000 0.020000
v 1.570000 2.185000 0.050000
v 1.540000 2.185000 0.080000
v 1.510000 2.185000 0.050000
v 1.540000 2.275000 0.050000
v 1.290000 2.020000 0.145000
v 1.290000 2.220000 0.145000
v 1.290000 2.020000 0.055000
v 1.290000 2.220000 0.055000
v 1.310000 2.020000 0.145000
v 1.310000 2.220000 0.145000
v 1.310000 2.020000 0.055000
v 1.310000 2.220000 0.055000
v 1.535000 1.900000 0.085000
v 1.535000 2.020000 0.085000
v 1.535000 1.900000 0.035000
v 1.535000 2.020000 0.035000
v 1.585000 1.900000 0.085000
v 1.585000 2.020000 0.085000
v 1.585000 1.900000 0.035000
v 1.585000 2.020000 0.035000
v 1.540000 2.185000 -0.080000
v 1.570000 2.185000 -0.050000
v 1.540000 2.185000 -0.020000
v 1.510000 2.185000 -0.050000
v 1.540000 2.275000 -0.050000
v 1.290000 2.020000 -0.055000
v 1.290000 2.220000 -0.055000
v 1.290000 2.020000 -0.145000
v 1.290000 2.220000 -0.145000
v 1.310000 2.020000 -0.055000
v 1.310000 2.220000 -0.055000
v 1.310000 2.020000 -0.145000
v 1.310000 2.220000 -0.145000
v 1.535000 1.900000 -0.035000
v 1.535000 2.020000 -0.035000
v 1.535000 1.900000 -0.085000
v 1.535000 2.020000 -0.085000
v 1.585000 1.900000 -0.035000
v 1.585000 2.020000 -0.035000
v 1.585000 1.900000 -0.085000
v 1.585000 2.020000 -0.085000
v -0.230000 1.230000 0.995000
v -0.230000 1.280000 0.995000
v -0.230000 1.230000 0.945000
v -0.230000 1.280000 0.945000
v 0.230000 1.230000 0.995000
v 0.230000 1.280000 0.995000
v 0.230000 1.230000 0.945000
v 0.230000 1.280000 0.945000
v -0.200000 0.717500 1.040000
v -0.200000 1.242500 1.040000
v -0.200000 0.717500 1.020000
v -0.200000 1.242500 1.020000
v 0.200000 0.717500 1.040000
v 0.200000 1.242500 1.040000
v 0.200000 0.717500 1.020000
v 0.200000 1.242500 1.020000
v -0.190000 0.620000 1.040000
v -0.190000 0.720000 1.040000
v -0.190000 0.620000 1.020000
v -0.190000 0.720000 1.020000
v -0.110000 0.620000 1.040000
v -0.110000 0.720000 1.040000
v -0.110000 0.620000 1.020000
v -0.110000 0.720000 1.020000
v -0.090000 0.620000 1.040000
v -0.090000 0.720000 1.040000
v -0.090000 0.620000 1.020000
v -0.090000 0.720000 1.020000
v -0.010000 0.620000 1.040000
v -0.010000 0.720000 1.040000
v -0.010000 0.620000 1.020000
v -0.010000 0.720000 1.020000
v 0.010000 0.620000 1.040000
v 0.010000 0.720000 1.040000
v 0.010000 0.620000 1.020000
v 0.010000 0.720000 1.020000
v 0.090000 0.620000 1.040000
v 0.090000 0.720000 1.040000
v 0.090000 0.620000 1.020000
v 0.090000 0.720000 1.020000
v 0.110000 0.620000 1.040000
v 0.110000 0.720000 1.040000
v 0.110000 0.620000 1.020000
v 0.110000 0.720000 1.020000
v 0.190000 0.620000 1.040000
v 0.190000 0.720000 1.040000
v 0.190000 0.620000 1.020000
v 0.190000 0.720000 1.020000
v -0.060000 0.750000 1.060000
v -0.060000 0.790000 1.060000
v -0.060000 0.750000 1.040000
v -0.060000 0.790000 1.040000
v 0.000000 0.750000 1.060000
v 0.000000 0.790000 1.060000
v 0.000000 0.750000 1.040000
v 0.000000 0.790000 1.040000
v -0.080000 0.785000 1.060000
v -0.080000 0.825000 1.060000
v -0.080000 0.785000 1.040000
v -0.080000 0.825000 1.040000
v 0.020000 0.785000 1.060000
v 0.020000 0.825000 1.060000
v 0.020000 0.785000 1.040000
v 0.020000 0.825000 1.040000
v -0.090000 0.820000 1.060000
v -0.090000 0.860000 1.060000
v -0.090000 0.820000 1.040000
v -0.090000 0.860000 1.040000
v 0.030000 0.820000 1.060000
v 0.030000 0.860000 1.060000
v 0.030000 0.820000 1.040000
v 0.030000 0.860000 1.040000
v -0.085000 0.855000 1.060000
v -0.085000 0.895000 1.060000
v -0.085000 0.855000 1.040000
v -0.085000 0.895000 1.040000
v 0.025000 0.855000 1.060000
v 0.025000 0.895000 1.060000
v 0.025000 0.855000 1.040000
v 0.025000 0.895000 1.040000
v -0.050000 0.890000 1.060000
v -0.050000 0.930000 1.060000
v -0.050000 0.890000 1.040000
v -0.050000 0.930000 1.040000
v 0.030000 0.890000 1.060000
v 0.030000 0.930000 1.060000
v 0.030000 0.890000 1.040000
v 0.030000 0.930000 1.040000
v -0.015000 0.925000 1.060000
v -0.015000 0.965000 1.060000
v -0.015000 0.925000 1.040000
v -0.015000 0.965000 1.040000
v 0.035000 0.925000 1.060000
v 0.035000 0.965000 1.060000
v 0.035000 0.925000 1.040000
v 0.035000 0.965000 1.040000
v 0.017500 0.960000 1.060000
v 0.017500 1.000000 1.060000
v 0.017500 0.960000 1.040000
v 0.017500 1.000000 1.040000
v 0.042500 0.960000 1.060000
v 0.042500 1.000000 1.060000
v 0.042500 0.960000 1.040000
v 0.042500 1.000000 1.040000
v 0.070000 0.790000 1.060000
v 0.070000 0.830000 1.060000
v 0.070000 0.790000 1.040000
v 0.070000 0.830000 1.040000
v 0.110000 0.790000 1.060000
v 0.110000 0.830000 1.060000
v 0.110000 0.790000 1.040000
v 0.110000 0.830000 1.040000
v -0.060000 0.750000 1.020000
v -0.060000 0.790000 1.020000
v -0.060000 0.750000 1.000000
v -0.060000 0.790000 1.000000
v 0.000000 0.750000 1.020000
v 0.000000 0.790000 1.020000
v 0.000000 0.750000 1.000000
v 0.000000 0.790000 1.000000
v -0.080000 0.785000 1.020000
v -0.080000 0.825000 1.020000
v -0.080000 0.785000 1.000000
v -0.080000 0.825000 1.000000
v 0.020000 0.785000 1.020000
v 0.020000 0.825000 1.020000
v 0.020000 0.785000 1.000000
v 0.020000 0.825000 1.000000
v -0.090000 0.820000 1.020000
v -0.090000 0.860000 1.020000
v -0.090000 0.820000 1.000000
v -0.090000 0.860000 1.000000
v 0.030000 0.820000 1.020000
v 0.030000 0.860000 1.020000
v 0.030000 0.820000 1.000000
v 0.030000 0.860000 1.000000
v -0.085000 0.855000 1.020000
v -0.085000 0.895000 1.020000
v -0.085000 0.855000 1.000000
v -0.085000 0.895000 1.000000
v 0.025000 0.855000 1.020000
v 0.025000 0.895000 1.020000
v 0.025000 0.855000 1.000000
v 0.025000 0.895000 1.000000
v -0.050000 0.890000 1.020000
v -0.050000 0.930000 1.020000
v -0.050000 0.890000 1.000000
v -0.050000 0.930000 1.000000
v 0.030000 0.890000 1.020000
v 0.030000 0.930000 1.020000
v 0.030000 0.890000 1.000000
v 0.030000 0.930000 1.000000
v -0.015000 0.925000 1.020000
v -0.015000 0.965000 1.020000
v -0.015000 0.925000 1.000000
v -0.015000 0.965000 1.000000
v 0.035000 0.925000 1.020000
v 0.035000 0.965000 1.020000
v 0.035000 0.925000 1.000000
v 0.035000 0.965000 1.000000
v 0.017500 0.960000 1.020000
v 0.017500 1.000000 1.020000
v 0.017500 0.960000 1.000000
v 0.017500 1.000000 1.000000
v 0.042500 0.960000 1.020000
v 0.042500 1.000000 1.020000
v 0.042500 0.960000 1.000000
v 0.042500 1.000000 1.000000
v 0.070000 0.790000 1.020000
v 0.070000 0.830000 1.020000
v 0.070000 0.790000 1.000000
v 0.070000 0.830000 1.000000
v 0.110000 0.790000 1.020000
v 0.110000 0.830000 1.020000
v 0.110000 0.790000 1.000000
v 0.110000 0.830000 1.000000
v -1.250000 0.280000 0.700000
v -1.163168 0.346334 0.763086
v -1.283166 0.346334 0.802077
v -1.357331 0.346334 0.700000
v -1.283166 0.346334 0.597923
v -1.163168 0.346334 0.636914
v -1.216834 0.453666 0.802077
v -1.336832 0.453666 0.763086
v -1.336832 0.453666 0.636914
v -1.216834 0.453666 0.597923
v -1.142669 0.453666 0.700000
v -1.250000 0.520000 0.700000
v -1.250000 0.680000 0.700000
v -1.163168 0.746334 0.763086
v -1.283166 0.746334 0.802077
v -1.357331 0.746334 0.700000
v -1.283166 0.746334 0.597923
v -1.163168 0.746334 0.636914
v -1.216834 0.853666 0.802077
v -1.336832 0.853666 0.763086
v -1.336832 0.853666 0.636914
v -1.216834 0.853666 0.597923
v -1.142669 0.853666 0.700000
v -1.250000 0.920000 0.700000
v 1.250000 0.280000 0.700000
v 1.336832 0.346334 0.763086
v 1.216834 0.346334 0.802077
v 1.142669 0.346334 0.700000
v 1.216834 0.346334 0.597923
v 1.336832 0.346334 0.636914
v 1.283166 0.453666 0.802077
v 1.163168 0.453666 0.763086
v 1.163168 0.453666 0.636914
v 1.283166 0.453666 0.597923
v 1.357331 0.453666 0.700000
v 1.250000 0.520000 0.700000
v 1.250000 0.680000 0.700000
v 1.336832 0.746334 0.763086
v 1.216834 0.746334 0.802077
v 1.142669 0.746334 0.700000
v 1.216834 0.746334 0.597923
v 1.336832 0.746334 0.636914
v 1.283166 0.853666 0.802077
v 1.163168 0.853666 0.763086
v 1.163168 0.853666 0.636914
v 1.283166 0.853666 0.597923
v 1.357331 0.853666 0.700000
v 1.250000 0.920000 0.700000
vn -1.0000 -0.0000 -0.0000
vn -0.0000 -0.0000 -1.0000
vn 1.0000 -0.0000 -0.0000
vn -0.0000 -0.0000 1.0000
vn -0.0000 -1.0000 -0.0000
vn -0.0000 1.0000 -0.0000
vn -0.6074 0.7944 -0.0000
vn 0.6074 0.7944 -0.0000
vn -0.0000 0.3968 -0.9179
vn 0.9179 0.3968 -0.0000
vn -0.0000 0.3968 0.9179
vn -0.9179 0.3968 -0.0000
vn 0.5000 -0.0000 -0.8660
vn 0.5000 -0.0000 0.8660
vn -0.5000 -0.0000 0.8660
vn -0.5000 -0.0000 -0.8660
vn 0.2588 0.9659 -0.0000
vn 0.7071 0.7071 -0.0000
vn 0.9659 0.2588 -0.0000
vn 0.9659 -0.2588 -0.0000
vn 0.7071 -0.7071 -0.0000
vn 0.2588 -0.9659 -0.0000
vn -0.2588 -0.9659 -0.0000
vn -0.7071 -0.7071 -0.0000
vn -0.9659 -0.2588 -0.0000
vn -0.9659 0.2588 -0.0000
vn -0.7071 0.7071 -0.0000
vn -0.2588 0.9659 -0.0000
vn 0.3827 -0.0000 -0.9239
vn 0.9239 -0.0000 -0.3827
vn 0.9239 -0.0000 0.3827
vn 0.3827 -0.0000 0.9239
vn -0.3827 -0.0000 0.9239
vn -0.9239 -0.0000 0.3827
vn -0.9239 -0.0000 -0.3827
vn -0.3827 -0.0000 -0.9239
vn 0.6882 0.2294 -0.6882
vn 0.6882 0.2294 0.6882
vn -0.6882 0.2294 0.6882
vn -0.6882 0.2294 -0.6882
vn 0.1876 -0.7947 0.5774
vn 0.6071 -0.7947 -0.0000
vn -0.4911 -0.7947 0.3568
vn -0.4911 -0.7947 -0.3568
vn 0.1876 -0.7947 -0.5774
vn 0.9822 -0.1876 -0.0000
vn 0.3035 -0.1876 0.9342
vn -0.7946 -0.1876 0.5774
vn -0.7946 -0.1876 -0.5774
vn 0.3035 -0.1876 -0.9342
vn 0.7946 0.1876 0.5774
vn -0.3035 0.1876 0.9342
vn -0.9822 0.1876 -0.0000
vn -0.3035 0.1876 -0.9342
vn 0.7946 0.1876 -0.5774
vn 0.4911 0.7947 0.3568
vn -0.1876 0.7947 0.5774
vn -0.6071 0.7947 -0.0000
vn -0.1876 0.7947 -0.5774
vn 0.4911 0.7947 -0.3568
vt 0.375000 0.000000
vt 0.625000 0.000000
vt 0.625000 0.250000
vt 0.375000 0.250000
vt 0.625000 0.500000
vt 0.375000 0.500000
vt 0.625000 0.750000
vt 0.375000 0.750000
vt 0.625000 1.000000
vt 0.375000 1.000000
vt 0.125000 0.500000
vt 0.125000 0.750000
vt 0.875000 0.500000
vt 0.875000 0.750000
vt 0.000000 0.000000
vt 1.000000 0.500000
vt 1.000000 1.000000
vt 0.750000 1.000000
vt 0.750000 0.500000
vt 0.500000 1.000000
vt 0.500000 0.500000
vt 0.490000 0.250000
vt 0.250000 0.490000
vt 0.010000 0.250000
vt 0.250000 0.010000
vt 0.250000 1.000000
vt 0.250000 0.500000
vt 0.000000 1.000000
vt 0.000000 0.500000
vt 0.750000 0.490000
vt 0.990000 0.250000
vt 0.750000 0.010000
vt 0.510000 0.250000
vt 0.833333 1.000000
vt 0.833333 0.500000
vt 0.666667 1.000000
vt 0.666667 0.500000
vt 0.500000 1.000000
vt 0.500000 0.500000
vt 0.333333 1.000000
vt 0.333333 0.500000
vt 0.457846 0.370000
vt 0.042154 0.370000
vt 0.042154 0.130000
vt 0.457846 0.130000
vt 0.166667 1.000000
vt 0.166667 0.500000
vt -0.000000 1.000000
vt -0.000000 0.500000
vt 0.957846 0.370000
vt 0.957846 0.130000
vt 0.542154 0.130000
vt 0.542154 0.370000
vt 0.916667 1.000000
vt 0.916667 0.500000
vt 0.833333 1.000000
vt 0.833333 0.500000
vt 0.750000 1.000000
vt 0.750000 0.500000
vt 0.666667 1.000000
vt 0.666667 0.500000
vt 0.583333 1.000000
vt 0.583333 0.500000
vt 0.500000 1.000000
vt 0.500000 0.500000
vt 0.416667 1.000000
vt 0.416667 0.500000
vt 0.333333 1.000000
vt 0.333333 0.500000
vt 0.250000 1.000000
vt 0.250000 0.500000
vt 0.166667 1.000000
vt 0.166667 0.500000
vt 0.370000 0.457846
vt 0.130000 0.457846
vt 0.042154 0.370000
vt 0.042154 0.130000
vt 0.130000 0.042154
vt 0.370000 0.042154
vt 0.457846 0.130000
vt 0.457846 0.370000
vt 0.083333 1.000000
vt 0.083333 0.500000
vt 0.000000 1.000000
vt 0.000000 0.500000
vt 0.870000 0.457846
vt 0.957846 0.370000
vt 0.957846 0.130000
vt 0.870000 0.042154
vt 0.630000 0.042154
vt 0.542154 0.130000
vt 0.542154 0.370000
vt 0.630000 0.457846
vt 0.875000 1.000000
vt 0.419706 0.419706
vt 0.080294 0.419706
vt 0.080294 0.080294
vt 0.419706 0.080294
vt 0.125000 1.000000
vt 0.919706 0.419706
vt 0.919706 0.080294
vt 0.580294 0.080294
vt 0.580294 0.419706
vt 0.250000 0.250000
vt 0.181819 0.000000
vt 0.272728 0.157461
vt 0.090910 0.157461
vt 0.363637 0.000000
vt 0.454546 0.157461
vt 0.909091 0.000000
vt 1.000000 0.157461
vt 0.818182 0.157461
vt 0.727273 0.000000
vt 0.636364 0.157461
vt 0.545455 0.000000
vt 0.363637 0.314921
vt 0.181819 0.314921
vt 0.909091 0.314921
vt 0.727273 0.314921
vt 0.545455 0.314921
vt 0.000000 0.314921
vt 0.272728 0.472382
vt 0.090910 0.472382
vt 0.818182 0.472382
vt 0.636364 0.472382
vt 0.454546 0.472382
s 0
usemtl stone_dk
f 1/1/1 2/2/1 4/3/1 3/4/1
f 3/4/2 4/3/2 8/5/2 7/6/2
f 7/6/3 8/5/3 6/7/3 5/8/3
f 5/8/4 6/7/4 2/9/4 1/10/4
f 3/11/5 7/6/5 5/8/5 1/12/5
f 8/5/6 4/13/6 2/14/6 6/7/6
f 17/1/1 18/2/1 20/3/1 19/4/1
f 19/4/2 20/3/2 24/5/2 23/6/2
f 23/6/3 24/5/3 22/7/3 21/8/3
f 21/8/4 22/7/4 18/9/4 17/10/4
f 19/11/5 23/6/5 21/8/5 17/12/5
f 24/5/6 20/13/6 18/14/6 22/7/6
f 25/1/1 26/2/1 28/3/1 27/4/1
f 27/4/2 28/3/2 32/5/2 31/6/2
f 31/6/3 32/5/3 30/7/3 29/8/3
f 29/8/4 30/7/4 26/9/4 25/10/4
f 27/11/5 31/6/5 29/8/5 25/12/5
f 32/5/6 28/13/6 26/14/6 30/7/6
f 123/1/1 124/2/1 126/3/1 125/4/1
f 125/4/2 126/3/2 130/5/2 129/6/2
f 129/6/3 130/5/3 128/7/3 127/8/3
f 127/8/4 128/7/4 124/9/4 123/10/4
f 125/11/5 129/6/5 127/8/5 123/12/5
f 130/5/6 126/13/6 124/14/6 128/7/6
f 255/1/1 256/2/1 258/3/1 257/4/1
f 257/4/2 258/3/2 262/5/2 261/6/2
f 261/6/3 262/5/3 260/7/3 259/8/3
f 259/8/4 260/7/4 256/9/4 255/10/4
f 257/11/5 261/6/5 259/8/5 255/12/5
f 262/5/6 258/13/6 256/14/6 260/7/6
f 367/1/1 368/2/1 370/3/1 369/4/1
f 369/4/2 370/3/2 374/5/2 373/6/2
f 373/6/3 374/5/3 372/7/3 371/8/3
f 371/8/4 372/7/4 368/9/4 367/10/4
f 369/11/5 373/6/5 371/8/5 367/12/5
f 374/5/6 370/13/6 368/14/6 372/7/6
f 375/1/3 376/2/3 378/3/3 377/4/3
f 377/4/4 378/3/4 382/5/4 381/6/4
f 381/6/1 382/5/1 380/7/1 379/8/1
f 379/8/2 380/7/2 376/9/2 375/10/2
f 377/11/5 381/6/5 379/8/5 375/12/5
f 382/5/6 378/13/6 376/14/6 380/7/6
f 383/1/3 384/2/3 386/3/3 385/4/3
f 385/4/4 386/3/4 390/5/4 389/6/4
f 389/6/1 390/5/1 388/7/1 387/8/1
f 387/8/2 388/7/2 384/9/2 383/10/2
f 385/11/5 389/6/5 387/8/5 383/12/5
f 390/5/6 386/13/6 384/14/6 388/7/6
f 391/1/3 392/2/3 394/3/3 393/4/3
f 393/4/4 394/3/4 398/5/4 397/6/4
f 397/6/1 398/5/1 396/7/1 395/8/1
f 395/8/2 396/7/2 392/9/2 391/10/2
f 393/11/5 397/6/5 395/8/5 391/12/5
f 398/5/6 394/13/6 392/14/6 396/7/6
f 399/23/37 403/104/37 400/22/37
f 400/22/38 403/104/38 401/25/38
f 399/30/5 400/31/5 401/32/5 402/33/5
f 401/25/39 403/104/39 402/24/39
f 402/24/40 403/104/40 399/23/40
f 404/1/3 405/2/3 407/3/3 406/4/3
f 406/4/4 407/3/4 411/5/4 410/6/4
f 410/6/1 411/5/1 409/7/1 408/8/1
f 408/8/2 409/7/2 405/9/2 404/10/2
f 406/11/5 410/6/5 408/8/5 404/12/5
f 411/5/6 407/13/6 405/14/6 409/7/6
f 412/1/3 413/2/3 415/3/3 414/4/3
f 414/4/4 415/3/4 419/5/4 418/6/4
f 418/6/1 419/5/1 417/7/1 416/8/1
f 416/8/2 417/7/2 413/9/2 412/10/2
f 414/11/5 418/6/5 416/8/5 412/12/5
f 419/5/6 415/13/6 413/14/6 417/7/6
f 420/23/37 424/104/37 421/22/37
f 421/22/38 424/104/38 422/25/38
f 420/30/5 421/31/5 422/32/5 423/33/5
f 422/25/39 424/104/39 423/24/39
f 423/24/40 424/104/40 420/23/40
f 425/1/3 426/2/3 428/3/3 427/4/3
f 427/4/4 428/3/4 432/5/4 431/6/4
f 431/6/1 432/5/1 430/7/1 429/8/1
f 429/8/2 430/7/2 426/9/2 425/10/2
f 427/11/5 431/6/5 429/8/5 425/12/5
f 432/5/6 428/13/6 426/14/6 430/7/6
f 433/1/3 434/2/3 436/3/3 435/4/3
f 435/4/4 436/3/4 440/5/4 439/6/4
f 439/6/1 440/5/1 438/7/1 437/8/1
f 437/8/2 438/7/2 434/9/2 433/10/2
f 435/11/5 439/6/5 437/8/5 433/12/5
f 440/5/6 436/13/6 434/14/6 438/7/6
f 441/1/1 442/2/1 444/3/1 443/4/1
f 443/4/2 444/3/2 448/5/2 447/6/2
f 447/6/3 448/5/3 446/7/3 445/8/3
f 445/8/4 446/7/4 442/9/4 441/10/4
f 443/11/5 447/6/5 445/8/5 441/12/5
f 448/5/6 444/13/6 442/14/6 446/7/6
f 449/1/1 450/2/1 452/3/1 451/4/1
f 451/4/2 452/3/2 456/5/2 455/6/2
f 455/6/3 456/5/3 454/7/3 453/8/3
f 453/8/4 454/7/4 450/9/4 449/10/4
f 451/11/5 455/6/5 453/8/5 449/12/5
f 456/5/6 452/13/6 450/14/6 454/7/6
f 457/1/1 458/2/1 460/3/1 459/4/1
f 459/4/2 460/3/2 464/5/2 463/6/2
f 463/6/3 464/5/3 462/7/3 461/8/3
f 461/8/4 462/7/4 458/9/4 457/10/4
f 459/11/5 463/6/5 461/8/5 457/12/5
f 464/5/6 460/13/6 458/14/6 462/7/6
f 465/1/1 466/2/1 468/3/1 467/4/1
f 467/4/2 468/3/2 472/5/2 471/6/2
f 471/6/3 472/5/3 470/7/3 469/8/3
f 469/8/4 470/7/4 466/9/4 465/10/4
f 467/11/5 471/6/5 469/8/5 465/12/5
f 472/5/6 468/13/6 466/14/6 470/7/6
f 473/23/37 477/104/37 474/22/37
f 474/22/38 477/104/38 475/25/38
f 473/30/5 474/31/5 475/32/5 476/33/5
f 475/25/39 477/104/39 476/24/39
f 476/24/40 477/104/40 473/23/40
f 478/1/1 479/2/1 481/3/1 480/4/1
f 480/4/2 481/3/2 485/5/2 484/6/2
f 484/6/3 485/5/3 483/7/3 482/8/3
f 482/8/4 483/7/4 479/9/4 478/10/4
f 480/11/5 484/6/5 482/8/5 478/12/5
f 485/5/6 481/13/6 479/14/6 483/7/6
f 486/1/1 487/2/1 489/3/1 488/4/1
f 488/4/2 489/3/2 493/5/2 492/6/2
f 492/6/3 493/5/3 491/7/3 490/8/3
f 490/8/4 491/7/4 487/9/4 486/10/4
f 488/11/5 492/6/5 490/8/5 486/12/5
f 493/5/6 489/13/6 487/14/6 491/7/6
f 494/23/37 498/104/37 495/22/37
f 495/22/38 498/104/38 496/25/38
f 494/30/5 495/31/5 496/32/5 497/33/5
f 496/25/39 498/104/39 497/24/39
f 497/24/40 498/104/40 494/23/40
f 499/1/1 500/2/1 502/3/1 501/4/1
f 501/4/2 502/3/2 506/5/2 505/6/2
f 505/6/3 506/5/3 504/7/3 503/8/3
f 503/8/4 504/7/4 500/9/4 499/10/4
f 501/11/5 505/6/5 503/8/5 499/12/5
f 506/5/6 502/13/6 500/14/6 504/7/6
f 507/1/1 508/2/1 510/3/1 509/4/1
f 509/4/2 510/3/2 514/5/2 513/6/2
f 513/6/3 514/5/3 512/7/3 511/8/3
f 511/8/4 512/7/4 508/9/4 507/10/4
f 509/11/5 513/6/5 511/8/5 507/12/5
f 514/5/6 510/13/6 508/14/6 512/7/6
usemtl stone
f 9/1/1 10/2/1 12/3/1 11/4/1
f 11/4/2 12/3/2 16/5/2 15/6/2
f 15/6/3 16/5/3 14/7/3 13/8/3
f 13/8/4 14/7/4 10/9/4 9/10/4
f 11/11/5 15/6/5 13/8/5 9/12/5
f 16/5/6 12/13/6 10/14/6 14/7/6
f 49/1/1 50/2/1 52/3/1 51/4/1
f 51/4/2 52/3/2 56/5/2 55/6/2
f 55/6/3 56/5/3 54/7/3 53/8/3
f 53/8/4 54/7/4 50/9/4 49/10/4
f 51/11/5 55/6/5 53/8/5 49/12/5
f 56/5/6 52/13/6 50/14/6 54/7/6
f 71/1/1 72/2/1 74/3/1 73/4/1
f 73/4/2 74/3/2 78/5/2 77/6/2
f 77/6/3 78/5/3 76/7/3 75/8/3
f 75/8/4 76/7/4 72/9/4 71/10/4
f 73/11/5 77/6/5 75/8/5 71/12/5
f 78/5/6 74/13/6 72/14/6 76/7/6
f 93/1/1 94/2/1 96/3/1 95/4/1
f 95/4/2 96/3/2 100/5/2 99/6/2
f 99/6/3 100/5/3 98/7/3 97/8/3
f 97/8/4 98/7/4 94/9/4 93/10/4
f 95/11/5 99/6/5 97/8/5 93/12/5
f 100/5/6 96/13/6 94/14/6 98/7/6
f 115/1/1 116/2/1 118/3/1 117/4/1
f 117/4/2 118/3/2 122/5/2 121/6/2
f 121/6/3 122/5/3 120/7/3 119/8/3
f 119/8/4 120/7/4 116/9/4 115/10/4
f 117/11/5 121/6/5 119/8/5 115/12/5
f 122/5/6 118/13/6 116/14/6 120/7/6
f 191/16/29 192/17/29 194/94/29 193/13/29
f 193/13/30 194/94/30 196/18/30 195/19/30
f 195/19/31 196/18/31 198/9/31 197/5/31
f 197/5/32 198/9/32 200/20/32 199/21/32
f 199/21/33 200/20/33 202/10/33 201/6/33
f 201/6/34 202/10/34 204/26/34 203/27/34
f 194/95/6 192/23/6 206/96/6 204/24/6 202/97/6 200/25/6 198/98/6 196/22/6
f 203/27/35 204/26/35 206/99/35 205/11/35
f 205/11/36 206/99/36 192/28/36 191/29/36
f 191/30/5 193/100/5 195/31/5 197/101/5 199/32/5 201/102/5 203/33/5 205/103/5
f 207/16/29 208/17/29 210/94/29 209/13/29
f 209/13/30 210/94/30 212/18/30 211/19/30
f 211/19/31 212/18/31 214/9/31 213/5/31
f 213/5/32 214/9/32 216/20/32 215/21/32
f 215/21/33 216/20/33 218/10/33 217/6/33
f 217/6/34 218/10/34 220/26/34 219/27/34
f 210/95/6 208/23/6 222/96/6 220/24/6 218/97/6 216/25/6 214/98/6 212/22/6
f 219/27/35 220/26/35 222/99/35 221/11/35
f 221/11/36 222/99/36 208/28/36 207/29/36
f 207/30/5 209/100/5 211/31/5 213/101/5 215/32/5 217/102/5 219/33/5 221/103/5
f 223/16/29 224/17/29 226/94/29 225/13/29
f 225/13/30 226/94/30 228/18/30 227/19/30
f 227/19/31 228/18/31 230/9/31 229/5/31
f 229/5/32 230/9/32 232/20/32 231/21/32
f 231/21/33 232/20/33 234/10/33 233/6/33
f 233/6/34 234/10/34 236/26/34 235/27/34
f 226/95/6 224/23/6 238/96/6 236/24/6 234/97/6 232/25/6 230/98/6 228/22/6
f 235/27/35 236/26/35 238/99/35 237/11/35
f 237/11/36 238/99/36 224/28/36 223/29/36
f 223/30/5 225/100/5 227/31/5 229/101/5 231/32/5 233/102/5 235/33/5 237/103/5
f 239/16/29 240/17/29 242/94/29 241/13/29
f 241/13/30 242/94/30 244/18/30 243/19/30
f 243/19/31 244/18/31 246/9/31 245/5/31
f 245/5/32 246/9/32 248/20/32 247/21/32
f 247/21/33 248/20/33 250/10/33 249/6/33
f 249/6/34 250/10/34 252/26/34 251/27/34
f 242/95/6 240/23/6 254/96/6 252/24/6 250/97/6 248/25/6 246/98/6 244/22/6
f 251/27/35 252/26/35 254/99/35 253/11/35
f 253/11/36 254/99/36 240/28/36 239/29/36
f 239/30/5 241/100/5 243/31/5 245/101/5 247/32/5 249/102/5 251/33/5 253/103/5
usemtl slate
f 33/1/1 34/2/1 36/3/1 35/4/1
f 35/4/2 36/3/2 40/5/2 39/6/2
f 39/6/3 40/5/3 38/7/3 37/8/3
f 37/8/4 38/7/4 34/9/4 33/10/4
f 35/11/5 39/6/5 37/8/5 33/12/5
f 40/5/6 36/13/6 34/14/6 38/7/6
f 41/1/1 42/2/1 44/3/1 43/4/1
f 43/4/2 44/3/2 48/5/2 47/6/2
f 47/6/3 48/5/3 46/7/3 45/8/3
f 45/8/4 46/7/4 42/9/4 41/10/4
f 43/11/5 47/6/5 45/8/5 41/12/5
f 48/5/6 44/13/6 42/14/6 46/7/6
f 57/15/4 58/15/4 59/15/4
f 62/15/2 61/15/2 60/15/2
f 57/15/7 59/15/7 62/15/7 60/15/7
f 59/15/8 58/15/8 61/15/8 62/15/8
f 58/15/5 57/15/5 60/15/5 61/15/5
f 79/15/4 80/15/4 81/15/4
f 84/15/2 83/15/2 82/15/2
f 79/15/7 81/15/7 84/15/7 82/15/7
f 81/15/8 80/15/8 83/15/8 84/15/8
f 80/15/5 79/15/5 82/15/5 83/15/5
f 101/15/4 102/15/4 103/15/4
f 106/15/2 105/15/2 104/15/2
f 101/15/7 103/15/7 106/15/7 104/15/7
f 103/15/8 102/15/8 105/15/8 106/15/8
f 102/15/5 101/15/5 104/15/5 105/15/5
f 131/16/9 132/17/9 134/18/9 133/19/9
f 133/19/10 134/18/10 136/20/10 135/21/10
f 134/22/6 132/23/6 138/24/6 136/25/6
f 135/21/11 136/20/11 138/26/11 137/27/11
f 137/27/12 138/26/12 132/28/12 131/29/12
f 131/30/5 133/31/5 135/32/5 137/33/5
usemtl ember
f 63/1/1 64/2/1 66/3/1 65/4/1
f 65/4/2 66/3/2 70/5/2 69/6/2
f 69/6/3 70/5/3 68/7/3 67/8/3
f 67/8/4 68/7/4 64/9/4 63/10/4
f 65/11/5 69/6/5 67/8/5 63/12/5
f 70/5/6 66/13/6 64/14/6 68/7/6
f 85/1/1 86/2/1 88/3/1 87/4/1
f 87/4/2 88/3/2 92/5/2 91/6/2
f 91/6/3 92/5/3 90/7/3 89/8/3
f 89/8/4 90/7/4 86/9/4 85/10/4
f 87/11/5 91/6/5 89/8/5 85/12/5
f 92/5/6 88/13/6 86/14/6 90/7/6
f 107/1/1 108/2/1 110/3/1 109/4/1
f 109/4/2 110/3/2 114/5/2 113/6/2
f 113/6/3 114/5/3 112/7/3 111/8/3
f 111/8/4 112/7/4 108/9/4 107/10/4
f 109/11/5 113/6/5 111/8/5 107/12/5
f 114/5/6 110/13/6 108/14/6 112/7/6
f 271/1/1 272/2/1 274/3/1 273/4/1
f 273/4/2 274/3/2 278/5/2 277/6/2
f 277/6/3 278/5/3 276/7/3 275/8/3
f 275/8/4 276/7/4 272/9/4 271/10/4
f 273/11/5 277/6/5 275/8/5 271/12/5
f 278/5/6 274/13/6 272/14/6 276/7/6
f 279/1/1 280/2/1 282/3/1 281/4/1
f 281/4/2 282/3/2 286/5/2 285/6/2
f 285/6/3 286/5/3 284/7/3 283/8/3
f 283/8/4 284/7/4 280/9/4 279/10/4
f 281/11/5 285/6/5 283/8/5 279/12/5
f 286/5/6 282/13/6 280/14/6 284/7/6
f 287/1/1 288/2/1 290/3/1 289/4/1
f 289/4/2 290/3/2 294/5/2 293/6/2
f 293/6/3 294/5/3 292/7/3 291/8/3
f 291/8/4 292/7/4 288/9/4 287/10/4
f 289/11/5 293/6/5 291/8/5 287/12/5
f 294/5/6 290/13/6 288/14/6 292/7/6
f 295/1/1 296/2/1 298/3/1 297/4/1
f 297/4/2 298/3/2 302/5/2 301/6/2
f 301/6/3 302/5/3 300/7/3 299/8/3
f 299/8/4 300/7/4 296/9/4 295/10/4
f 297/11/5 301/6/5 299/8/5 295/12/5
f 302/5/6 298/13/6 296/14/6 300/7/6
f 303/1/1 304/2/1 306/3/1 305/4/1
f 305/4/2 306/3/2 310/5/2 309/6/2
f 309/6/3 310/5/3 308/7/3 307/8/3
f 307/8/4 308/7/4 304/9/4 303/10/4
f 305/11/5 309/6/5 307/8/5 303/12/5
f 310/5/6 306/13/6 304/14/6 308/7/6
f 311/1/1 312/2/1 314/3/1 313/4/1
f 313/4/2 314/3/2 318/5/2 317/6/2
f 317/6/3 318/5/3 316/7/3 315/8/3
f 315/8/4 316/7/4 312/9/4 311/10/4
f 313/11/5 317/6/5 315/8/5 311/12/5
f 318/5/6 314/13/6 312/14/6 316/7/6
f 319/1/1 320/2/1 322/3/1 321/4/1
f 321/4/2 322/3/2 326/5/2 325/6/2
f 325/6/3 326/5/3 324/7/3 323/8/3
f 323/8/4 324/7/4 320/9/4 319/10/4
f 321/11/5 325/6/5 323/8/5 319/12/5
f 326/5/6 322/13/6 320/14/6 324/7/6
f 327/1/1 328/2/1 330/3/1 329/4/1
f 329/4/2 330/3/2 334/5/2 333/6/2
f 333/6/3 334/5/3 332/7/3 331/8/3
f 331/8/4 332/7/4 328/9/4 327/10/4
f 329/11/5 333/6/5 331/8/5 327/12/5
f 334/5/6 330/13/6 328/14/6 332/7/6
f 335/1/1 336/2/1 338/3/1 337/4/1
f 337/4/2 338/3/2 342/5/2 341/6/2
f 341/6/3 342/5/3 340/7/3 339/8/3
f 339/8/4 340/7/4 336/9/4 335/10/4
f 337/11/5 341/6/5 339/8/5 335/12/5
f 342/5/6 338/13/6 336/14/6 340/7/6
f 343/1/1 344/2/1 346/3/1 345/4/1
f 345/4/2 346/3/2 350/5/2 349/6/2
f 349/6/3 350/5/3 348/7/3 347/8/3
f 347/8/4 348/7/4 344/9/4 343/10/4
f 345/11/5 349/6/5 347/8/5 343/12/5
f 350/5/6 346/13/6 344/14/6 348/7/6
f 351/1/1 352/2/1 354/3/1 353/4/1
f 353/4/2 354/3/2 358/5/2 357/6/2
f 357/6/3 358/5/3 356/7/3 355/8/3
f 355/8/4 356/7/4 352/9/4 351/10/4
f 353/11/5 357/6/5 355/8/5 351/12/5
f 358/5/6 354/13/6 352/14/6 356/7/6
f 359/1/1 360/2/1 362/3/1 361/4/1
f 361/4/2 362/3/2 366/5/2 365/6/2
f 365/6/3 366/5/3 364/7/3 363/8/3
f 363/8/4 364/7/4 360/9/4 359/10/4
f 361/11/5 365/6/5 363/8/5 359/12/5
f 366/5/6 362/13/6 360/14/6 364/7/6
usemtl iron
f 139/16/13 140/17/13 142/34/13 141/35/13
f 141/35/3 142/34/3 144/36/3 143/37/3
f 143/37/14 144/36/14 146/38/14 145/39/14
f 145/39/15 146/38/15 148/40/15 147/41/15
f 142/42/6 140/23/6 150/43/6 148/44/6 146/25/6 144/45/6
f 147/41/1 148/40/1 150/46/1 149/47/1
f 149/47/16 150/46/16 140/48/16 139/49/16
f 139/30/5 141/50/5 143/51/5 145/32/5 147/52/5 149/53/5
f 175/1/1 176/2/1 178/3/1 177/4/1
f 177/4/6 178/3/6 182/5/6 181/6/6
f 181/6/3 182/5/3 180/7/3 179/8/3
f 179/8/5 180/7/5 176/9/5 175/10/5
f 177/11/2 181/6/2 179/8/2 175/12/2
f 182/5/4 178/13/4 176/14/4 180/7/4
f 183/1/1 184/2/1 186/3/1 185/4/1
f 185/4/2 186/3/2 190/5/2 189/6/2
f 189/6/3 190/5/3 188/7/3 187/8/3
f 187/8/4 188/7/4 184/9/4 183/10/4
f 185/11/5 189/6/5 187/8/5 183/12/5
f 190/5/6 186/13/6 184/14/6 188/7/6
usemtl bone
f 151/16/17 152/17/17 154/54/17 153/55/17
f 153/55/18 154/54/18 156/56/18 155/57/18
f 155/57/19 156/56/19 158/58/19 157/59/19
f 157/59/20 158/58/20 160/60/20 159/61/20
f 159/61/21 160/60/21 162/62/21 161/63/21
f 161/63/22 162/62/22 164/64/22 163/65/22
f 163/65/23 164/64/23 166/66/23 165/67/23
f 165/67/24 166/66/24 168/68/24 167/69/24
f 167/69/25 168/68/25 170/70/25 169/71/25
f 169/71/26 170/70/26 172/72/26 171/73/26
f 154/74/4 152/23/4 174/75/4 172/76/4 170/24/4 168/77/4 166/78/4 164/25/4 162/79/4 160/80/4 158/22/4 156/81/4
f 171/73/27 172/72/27 174/82/27 173/83/27
f 173/83/28 174/82/28 152/84/28 151/85/28
f 151/30/2 153/86/2 155/87/2 157/31/2 159/88/2 161/89/2 163/32/2 165/90/2 167/91/2 169/33/2 171/92/2 173/93/2
usemtl charwood
f 263/1/1 264/2/1 266/3/1 265/4/1
f 265/4/2 266/3/2 270/5/2 269/6/2
f 269/6/3 270/5/3 268/7/3 267/8/3
f 267/8/4 268/7/4 264/9/4 263/10/4
f 265/11/5 269/6/5 267/8/5 263/12/5
f 270/5/6 266/13/6 264/14/6 268/7/6
usemtl wood_dk
f 515/1/1 516/2/1 518/3/1 517/4/1
f 517/4/2 518/3/2 522/5/2 521/6/2
f 521/6/3 522/5/3 520/7/3 519/8/3
f 519/8/4 520/7/4 516/9/4 515/10/4
f 517/11/5 521/6/5 519/8/5 515/12/5
f 522/5/6 518/13/6 516/14/6 520/7/6
usemtl blood
f 523/1/1 524/2/1 526/3/1 525/4/1
f 525/4/2 526/3/2 530/5/2 529/6/2
f 529/6/3 530/5/3 528/7/3 527/8/3
f 527/8/4 528/7/4 524/9/4 523/10/4
f 525/11/5 529/6/5 527/8/5 523/12/5
f 530/5/6 526/13/6 524/14/6 528/7/6
f 531/1/1 532/2/1 534/3/1 533/4/1
f 533/4/2 534/3/2 538/5/2 537/6/2
f 537/6/3 538/5/3 536/7/3 535/8/3
f 535/8/4 536/7/4 532/9/4 531/10/4
f 533/11/5 537/6/5 535/8/5 531/12/5
f 538/5/6 534/13/6 532/14/6 536/7/6
f 539/1/1 540/2/1 542/3/1 541/4/1
f 541/4/2 542/3/2 546/5/2 545/6/2
f 545/6/3 546/5/3 544/7/3 543/8/3
f 543/8/4 544/7/4 540/9/4 539/10/4
f 541/11/5 545/6/5 543/8/5 539/12/5
f 546/5/6 542/13/6 540/14/6 544/7/6
f 547/1/1 548/2/1 550/3/1 549/4/1
f 549/4/2 550/3/2 554/5/2 553/6/2
f 553/6/3 554/5/3 552/7/3 551/8/3
f 551/8/4 552/7/4 548/9/4 547/10/4
f 549/11/5 553/6/5 551/8/5 547/12/5
f 554/5/6 550/13/6 548/14/6 552/7/6
f 555/1/1 556/2/1 558/3/1 557/4/1
f 557/4/2 558/3/2 562/5/2 561/6/2
f 561/6/3 562/5/3 560/7/3 559/8/3
f 559/8/4 560/7/4 556/9/4 555/10/4
f 557/11/5 561/6/5 559/8/5 555/12/5
f 562/5/6 558/13/6 556/14/6 560/7/6
usemtl amber
f 563/1/1 564/2/1 566/3/1 565/4/1
f 565/4/2 566/3/2 570/5/2 569/6/2
f 569/6/3 570/5/3 568/7/3 567/8/3
f 567/8/4 568/7/4 564/9/4 563/10/4
f 565/11/5 569/6/5 567/8/5 563/12/5
f 570/5/6 566/13/6 564/14/6 568/7/6
f 571/1/1 572/2/1 574/3/1 573/4/1
f 573/4/2 574/3/2 578/5/2 577/6/2
f 577/6/3 578/5/3 576/7/3 575/8/3
f 575/8/4 576/7/4 572/9/4 571/10/4
f 573/11/5 577/6/5 575/8/5 571/12/5
f 578/5/6 574/13/6 572/14/6 576/7/6
f 579/1/1 580/2/1 582/3/1 581/4/1
f 581/4/2 582/3/2 586/5/2 585/6/2
f 585/6/3 586/5/3 584/7/3 583/8/3
f 583/8/4 584/7/4 580/9/4 579/10/4
f 581/11/5 585/6/5 583/8/5 579/12/5
f 586/5/6 582/13/6 580/14/6 584/7/6
f 587/1/1 588/2/1 590/3/1 589/4/1
f 589/4/2 590/3/2 594/5/2 593/6/2
f 593/6/3 594/5/3 592/7/3 591/8/3
f 591/8/4 592/7/4 588/9/4 587/10/4
f 589/11/5 593/6/5 591/8/5 587/12/5
f 594/5/6 590/13/6 588/14/6 592/7/6
f 595/1/1 596/2/1 598/3/1 597/4/1
f 597/4/2 598/3/2 602/5/2 601/6/2
f 601/6/3 602/5/3 600/7/3 599/8/3
f 599/8/4 600/7/4 596/9/4 595/10/4
f 597/11/5 601/6/5 599/8/5 595/12/5
f 602/5/6 598/13/6 596/14/6 600/7/6
f 603/1/1 604/2/1 606/3/1 605/4/1
f 605/4/2 606/3/2 610/5/2 609/6/2
f 609/6/3 610/5/3 608/7/3 607/8/3
f 607/8/4 608/7/4 604/9/4 603/10/4
f 605/11/5 609/6/5 607/8/5 603/12/5
f 610/5/6 606/13/6 604/14/6 608/7/6
f 611/1/1 612/2/1 614/3/1 613/4/1
f 613/4/2 614/3/2 618/5/2 617/6/2
f 617/6/3 618/5/3 616/7/3 615/8/3
f 615/8/4 616/7/4 612/9/4 611/10/4
f 613/11/5 617/6/5 615/8/5 611/12/5
f 618/5/6 614/13/6 612/14/6 616/7/6
f 619/1/1 620/2/1 622/3/1 621/4/1
f 621/4/2 622/3/2 626/5/2 625/6/2
f 625/6/3 626/5/3 624/7/3 623/8/3
f 623/8/4 624/7/4 620/9/4 619/10/4
f 621/11/5 625/6/5 623/8/5 619/12/5
f 626/5/6 622/13/6 620/14/6 624/7/6
f 627/1/1 628/2/1 630/3/1 629/4/1
f 629/4/2 630/3/2 634/5/2 633/6/2
f 633/6/3 634/5/3 632/7/3 631/8/3
f 631/8/4 632/7/4 628/9/4 627/10/4
f 629/11/5 633/6/5 631/8/5 627/12/5
f 634/5/6 630/13/6 628/14/6 632/7/6
f 635/1/1 636/2/1 638/3/1 637/4/1
f 637/4/2 638/3/2 642/5/2 641/6/2
f 641/6/3 642/5/3 640/7/3 639/8/3
f 639/8/4 640/7/4 636/9/4 635/10/4
f 637/11/5 641/6/5 639/8/5 635/12/5
f 642/5/6 638/13/6 636/14/6 640/7/6
f 643/1/1 644/2/1 646/3/1 645/4/1
f 645/4/2 646/3/2 650/5/2 649/6/2
f 649/6/3 650/5/3 648/7/3 647/8/3
f 647/8/4 648/7/4 644/9/4 643/10/4
f 645/11/5 649/6/5 647/8/5 643/12/5
f 650/5/6 646/13/6 644/14/6 648/7/6
f 651/1/1 652/2/1 654/3/1 653/4/1
f 653/4/2 654/3/2 658/5/2 657/6/2
f 657/6/3 658/5/3 656/7/3 655/8/3
f 655/8/4 656/7/4 652/9/4 651/10/4
f 653/11/5 657/6/5 655/8/5 651/12/5
f 658/5/6 654/13/6 652/14/6 656/7/6
f 659/1/1 660/2/1 662/3/1 661/4/1
f 661/4/2 662/3/2 666/5/2 665/6/2
f 665/6/3 666/5/3 664/7/3 663/8/3
f 663/8/4 664/7/4 660/9/4 659/10/4
f 661/11/5 665/6/5 663/8/5 659/12/5
f 666/5/6 662/13/6 660/14/6 664/7/6
f 667/1/1 668/2/1 670/3/1 669/4/1
f 669/4/2 670/3/2 674/5/2 673/6/2
f 673/6/3 674/5/3 672/7/3 671/8/3
f 671/8/4 672/7/4 668/9/4 667/10/4
f 669/11/5 673/6/5 671/8/5 667/12/5
f 674/5/6 670/13/6 668/14/6 672/7/6
f 675/1/1 676/2/1 678/3/1 677/4/1
f 677/4/2 678/3/2 682/5/2 681/6/2
f 681/6/3 682/5/3 680/7/3 679/8/3
f 679/8/4 680/7/4 676/9/4 675/10/4
f 677/11/5 681/6/5 679/8/5 675/12/5
f 682/5/6 678/13/6 676/14/6 680/7/6
f 683/1/1 684/2/1 686/3/1 685/4/1
f 685/4/2 686/3/2 690/5/2 689/6/2
f 689/6/3 690/5/3 688/7/3 687/8/3
f 687/8/4 688/7/4 684/9/4 683/10/4
f 685/11/5 689/6/5 687/8/5 683/12/5
f 690/5/6 686/13/6 684/14/6 688/7/6
usemtl leaf_dk
f 691/105/41 692/106/41 693/107/41
f 692/106/42 691/108/42 696/109/42
f 691/110/43 693/111/43 694/112/43
f 691/113/44 694/112/44 695/114/44
f 691/115/45 695/114/45 696/109/45
f 692/106/46 696/109/46 701/116/46
f 693/107/47 692/106/47 697/117/47
f 694/112/48 693/111/48 698/118/48
f 695/114/49 694/112/49 699/119/49
f 696/109/50 695/114/50 700/120/50
f 692/106/51 701/116/51 697/117/51
f 693/107/52 697/117/52 698/121/52
f 694/112/53 698/118/53 699/119/53
f 695/114/54 699/119/54 700/120/54
f 696/109/55 700/120/55 701/116/55
f 697/117/56 701/116/56 702/122/56
f 698/121/57 697/117/57 702/123/57
f 699/119/58 698/118/58 702/124/58
f 700/120/59 699/119/59 702/125/59
f 701/116/60 700/120/60 702/126/60
f 703/105/41 704/106/41 705/107/41
f 704/106/42 703/108/42 708/109/42
f 703/110/43 705/111/43 706/112/43
f 703/113/44 706/112/44 707/114/44
f 703/115/45 707/114/45 708/109/45
f 704/106/46 708/109/46 713/116/46
f 705/107/47 704/106/47 709/117/47
f 706/112/48 705/111/48 710/118/48
f 707/114/49 706/112/49 711/119/49
f 708/109/50 707/114/50 712/120/50
f 704/106/51 713/116/51 709/117/51
f 705/107/52 709/117/52 710/121/52
f 706/112/53 710/118/53 711/119/53
f 707/114/54 711/119/54 712/120/54
f 708/109/55 712/120/55 713/116/55
f 709/117/56 713/116/56 714/122/56
f 710/121/57 709/117/57 714/123/57
f 711/119/58 710/118/58 714/124/58
f 712/120/59 711/119/59 714/125/59
f 713/116/60 712/120/60 714/126/60
f 715/105/41 716/106/41 717/107/41
f 716/106/42 715/108/42 720/109/42
f 715/110/43 717/111/43 718/112/43
f 715/113/44 718/112/44 719/114/44
f 715/115/45 719/114/45 720/109/45
f 716/106/46 720/109/46 725/116/46
f 717/107/47 716/106/47 721/117/47
f 718/112/48 717/111/48 722/118/48
f 719/114/49 718/112/49 723/119/49
f 720/109/50 719/114/50 724/120/50
f 716/106/51 725/116/51 721/117/51
f 717/107/52 721/117/52 722/121/52
f 718/112/53 722/118/53 723/119/53
f 719/114/54 723/119/54 724/120/54
f 720/109/55 724/120/55 725/116/55
f 721/117/56 725/116/56 726/122/56
f 722/121/57 721/117/57 726/123/57
f 723/119/58 722/118/58 726/124/58
f 724/120/59 723/119/59 726/125/59
f 725/116/60 724/120/60 726/126/60
f 727/105/41 728/106/41 729/107/41
f 728/106/42 727/108/42 732/109/42
f 727/110/43 729/111/43 730/112/43
f 727/113/44 730/112/44 731/114/44
f 727/115/45 731/114/45 732/109/45
f 728/106/46 732/109/46 737/116/46
f 729/107/47 728/106/47 733/117/47
f 730/112/48 729/111/48 734/118/48
f 731/114/49 730/112/49 735/119/49
f 732/109/50 731/114/50 736/120/50
f 728/106/51 737/116/51 733/117/51
f 729/107/52 733/117/52 734/121/52
f 730/112/53 734/118/53 735/119/53
f 731/114/54 735/119/54 736/120/54
f 732/109/55 736/120/55 737/116/55
f 733/117/56 737/116/56 738/122/56
f 734/121/57 733/117/57 738/123/57
f 735/119/58 734/118/58 738/124/58
f 736/120/59 735/119/59 738/125/59
f 737/116/60 736/120/60 738/126/60
