# Blender 5.0.1
# www.blender.org
mtllib townhouse.mtl
o townhouse
v -0.620000 0.000000 0.570000
v -0.620000 0.300000 0.570000
v -0.620000 0.000000 -0.570000
v -0.620000 0.300000 -0.570000
v 0.620000 0.000000 0.570000
v 0.620000 0.300000 0.570000
v 0.620000 0.000000 -0.570000
v 0.620000 0.300000 -0.570000
v -0.550000 0.300000 0.500000
v -0.550000 2.400000 0.500000
v -0.550000 0.300000 -0.500000
v -0.550000 2.400000 -0.500000
v 0.550000 0.300000 0.500000
v 0.550000 2.400000 0.500000
v 0.550000 0.300000 -0.500000
v 0.550000 2.400000 -0.500000
v -0.565000 0.730000 0.515000
v -0.565000 0.770000 0.515000
v -0.565000 0.730000 -0.515000
v -0.565000 0.770000 -0.515000
v 0.565000 0.730000 0.515000
v 0.565000 0.770000 0.515000
v 0.565000 0.730000 -0.515000
v 0.565000 0.770000 -0.515000
v -0.565000 1.380000 0.515000
v -0.565000 1.420000 0.515000
v -0.565000 1.380000 -0.515000
v -0.565000 1.420000 -0.515000
v 0.565000 1.380000 0.515000
v 0.565000 1.420000 0.515000
v 0.565000 1.380000 -0.515000
v 0.565000 1.420000 -0.515000
v -0.565000 2.030000 0.515000
v -0.565000 2.070000 0.515000
v -0.565000 2.030000 -0.515000
v -0.565000 2.070000 -0.515000
v 0.565000 2.030000 0.515000
v 0.565000 2.070000 0.515000
v 0.565000 2.030000 -0.515000
v 0.565000 2.070000 -0.515000
v 0.000000 0.300000 0.320000
v 0.000000 1.800000 0.320000
v 0.197990 0.300000 0.402010
v 0.197990 1.800000 0.402010
v 0.280000 0.300000 0.600000
v 0.280000 1.800000 0.600000
v 0.197990 0.300000 0.797990
v 0.197990 1.800000 0.797990
v 0.000000 0.300000 0.880000
v 0.000000 1.800000 0.880000
v -0.197990 0.300000 0.797990
v -0.197990 1.800000 0.797990
v -0.280000 0.300000 0.600000
v -0.280000 1.800000 0.600000
v -0.197990 0.300000 0.402010
v -0.197990 1.800000 0.402010
v -0.205618 0.470000 0.825269
v -0.205618 0.730000 0.825269
v -0.184422 0.470000 0.791347
v -0.184422 0.730000 0.791347
v -0.112333 0.470000 0.883560
v -0.112333 0.730000 0.883560
v -0.091136 0.470000 0.849638
v -0.091136 0.730000 0.849638
v -0.055000 0.470000 0.900000
v -0.055000 0.730000 0.900000
v -0.055000 0.470000 0.860000
v -0.055000 0.730000 0.860000
v 0.055000 0.470000 0.900000
v 0.055000 0.730000 0.900000
v 0.055000 0.470000 0.860000
v 0.055000 0.730000 0.860000
v 0.112333 0.470000 0.883560
v 0.112333 0.730000 0.883560
v 0.091136 0.470000 0.849638
v 0.091136 0.730000 0.849638
v 0.205618 0.470000 0.825269
v 0.205618 0.730000 0.825269
v 0.184422 0.470000 0.791347
v 0.184422 0.730000 0.791347
v -0.205618 0.920000 0.825269
v -0.205618 1.180000 0.825269
v -0.184422 0.920000 0.791347
v -0.184422 1.180000 0.791347
v -0.112333 0.920000 0.883560
v -0.112333 1.180000 0.883560
v -0.091136 0.920000 0.849638
v -0.091136 1.180000 0.849638
v -0.055000 0.920000 0.900000
v -0.055000 1.180000 0.900000
v -0.055000 0.920000 0.860000
v -0.055000 1.180000 0.860000
v 0.055000 0.920000 0.900000
v 0.055000 1.180000 0.900000
v 0.055000 0.920000 0.860000
v 0.055000 1.180000 0.860000
v 0.112333 0.920000 0.883560
v 0.112333 1.180000 0.883560
v 0.091136 0.920000 0.849638
v 0.091136 1.180000 0.849638
v 0.205618 0.920000 0.825269
v 0.205618 1.180000 0.825269
v 0.184422 0.920000 0.791347
v 0.184422 1.180000 0.791347
v -0.205618 1.320000 0.825269
v -0.205618 1.580000 0.825269
v -0.184422 1.320000 0.791347
v -0.184422 1.580000 0.791347
v -0.112333 1.320000 0.883560
v -0.112333 1.580000 0.883560
v -0.091136 1.320000 0.849638
v -0.091136 1.580000 0.849638
v -0.055000 1.320000 0.900000
v -0.055000 1.580000 0.900000
v -0.055000 1.320000 0.860000
v -0.055000 1.580000 0.860000
v 0.055000 1.320000 0.900000
v 0.055000 1.580000 0.900000
v 0.055000 1.320000 0.860000
v 0.055000 1.580000 0.860000
v 0.112333 1.320000 0.883560
v 0.112333 1.580000 0.883560
v 0.091136 1.320000 0.849638
v 0.091136 1.580000 0.849638
v 0.205618 1.320000 0.825269
v 0.205618 1.580000 0.825269
v 0.184422 1.320000 0.791347
v 0.184422 1.580000 0.791347
v -0.640000 1.460000 0.575000
v -0.640000 1.500000 0.575000
v -0.640000 1.460000 0.525000
v -0.640000 1.500000 0.525000
v 0.640000 1.460000 0.575000
v 0.640000 1.500000 0.575000
v 0.640000 1.460000 0.525000
v 0.640000 1.500000 0.525000
v -0.460000 1.480000 0.590000
v -0.460000 1.640000 0.590000
v -0.460000 1.480000 0.570000
v -0.460000 1.640000 0.570000
v -0.440000 1.480000 0.590000
v -0.440000 1.640000 0.590000
v -0.440000 1.480000 0.570000
v -0.440000 1.640000 0.570000
v -0.160000 1.480000 0.590000
v -0.160000 1.640000 0.590000
v -0.160000 1.480000 0.570000
v -0.160000 1.640000 0.570000
v -0.140000 1.480000 0.590000
v -0.140000 1.640000 0.590000
v -0.140000 1.480000 0.570000
v -0.140000 1.640000 0.570000
v 0.140000 1.480000 0.590000
v 0.140000 1.640000 0.590000
v 0.140000 1.480000 0.570000
v 0.140000 1.640000 0.570000
v 0.160000 1.480000 0.590000
v 0.160000 1.640000 0.590000
v 0.160000 1.480000 0.570000
v 0.160000 1.640000 0.570000
v 0.440000 1.480000 0.590000
v 0.440000 1.640000 0.590000
v 0.440000 1.480000 0.570000
v 0.440000 1.640000 0.570000
v 0.460000 1.480000 0.590000
v 0.460000 1.640000 0.590000
v 0.460000 1.480000 0.570000
v 0.460000 1.640000 0.570000
v -0.640000 1.630000 0.590000
v -0.640000 1.650000 0.590000
v -0.640000 1.630000 0.570000
v -0.640000 1.650000 0.570000
v 0.640000 1.630000 0.590000
v 0.640000 1.650000 0.590000
v 0.640000 1.630000 0.570000
v 0.640000 1.650000 0.570000
v -0.640000 2.010000 0.575000
v -0.640000 2.050000 0.575000
v -0.640000 2.010000 0.525000
v -0.640000 2.050000 0.525000
v 0.640000 2.010000 0.575000
v 0.640000 2.050000 0.575000
v 0.640000 2.010000 0.525000
v 0.640000 2.050000 0.525000
v -0.460000 2.030000 0.590000
v -0.460000 2.190000 0.590000
v -0.460000 2.030000 0.570000
v -0.460000 2.190000 0.570000
v -0.440000 2.030000 0.590000
v -0.440000 2.190000 0.590000
v -0.440000 2.030000 0.570000
v -0.440000 2.190000 0.570000
v -0.160000 2.030000 0.590000
v -0.160000 2.190000 0.590000
v -0.160000 2.030000 0.570000
v -0.160000 2.190000 0.570000
v -0.140000 2.030000 0.590000
v -0.140000 2.190000 0.590000
v -0.140000 2.030000 0.570000
v -0.140000 2.190000 0.570000
v 0.140000 2.030000 0.590000
v 0.140000 2.190000 0.590000
v 0.140000 2.030000 0.570000
v 0.140000 2.190000 0.570000
v 0.160000 2.030000 0.590000
v 0.160000 2.190000 0.590000
v 0.160000 2.030000 0.570000
v 0.160000 2.190000 0.570000
v 0.440000 2.030000 0.590000
v 0.440000 2.190000 0.590000
v 0.440000 2.030000 0.570000
v 0.440000 2.190000 0.570000
v 0.460000 2.030000 0.590000
v 0.460000 2.190000 0.590000
v 0.460000 2.030000 0.570000
v 0.460000 2.190000 0.570000
v -0.640000 2.180000 0.590000
v -0.640000 2.200000 0.590000
v -0.640000 2.180000 0.570000
v -0.640000 2.200000 0.570000
v 0.640000 2.180000 0.590000
v 0.640000 2.200000 0.590000
v 0.640000 2.180000 0.570000
v 0.640000 2.200000 0.570000
v -0.590000 0.550000 -0.040000
v -0.590000 0.850000 -0.040000
v -0.590000 0.550000 -0.200000
v -0.590000 0.850000 -0.200000
v -0.550000 0.550000 -0.040000
v -0.550000 0.850000 -0.040000
v -0.550000 0.550000 -0.200000
v -0.550000 0.850000 -0.200000
v -0.590000 1.200000 -0.040000
v -0.590000 1.500000 -0.040000
v -0.590000 1.200000 -0.200000
v -0.590000 1.500000 -0.200000
v -0.550000 1.200000 -0.040000
v -0.550000 1.500000 -0.040000
v -0.550000 1.200000 -0.200000
v -0.550000 1.500000 -0.200000
v -0.590000 1.850000 -0.040000
v -0.590000 2.150000 -0.040000
v -0.590000 1.850000 -0.200000
v -0.590000 2.150000 -0.200000
v -0.550000 1.850000 -0.040000
v -0.550000 2.150000 -0.040000
v -0.550000 1.850000 -0.200000
v -0.550000 2.150000 -0.200000
v 0.550000 0.550000 -0.040000
v 0.550000 0.850000 -0.040000
v 0.550000 0.550000 -0.200000
v 0.550000 0.850000 -0.200000
v 0.590000 0.550000 -0.040000
v 0.590000 0.850000 -0.040000
v 0.590000 0.550000 -0.200000
v 0.590000 0.850000 -0.200000
v 0.550000 1.200000 -0.040000
v 0.550000 1.500000 -0.040000
v 0.550000 1.200000 -0.200000
v 0.550000 1.500000 -0.200000
v 0.590000 1.200000 -0.040000
v 0.590000 1.500000 -0.040000
v 0.590000 1.200000 -0.200000
v 0.590000 1.500000 -0.200000
v 0.550000 1.850000 -0.040000
v 0.550000 2.150000 -0.040000
v 0.550000 1.850000 -0.200000
v 0.550000 2.150000 -0.200000
v 0.590000 1.850000 -0.040000
v 0.590000 2.150000 -0.040000
v 0.590000 1.850000 -0.200000
v 0.590000 2.150000 -0.200000
v -0.580000 2.400000 0.530000
v -0.580000 2.900000 0.530000
v -0.580000 2.400000 -0.530000
v -0.580000 2.900000 -0.530000
v 0.580000 2.400000 0.530000
v 0.580000 2.900000 0.530000
v 0.580000 2.400000 -0.530000
v 0.580000 2.900000 -0.530000
v -0.410000 2.870000 0.360000
v -0.410000 3.030000 0.360000
v -0.410000 2.870000 -0.360000
v -0.410000 3.030000 -0.360000
v 0.410000 2.870000 0.360000
v 0.410000 3.030000 0.360000
v 0.410000 2.870000 -0.360000
v 0.410000 3.030000 -0.360000
v -0.380000 2.510000 0.470000
v -0.380000 2.730000 0.470000
v -0.380000 2.510000 0.290000
v -0.380000 2.730000 0.290000
v -0.180000 2.510000 0.470000
v -0.180000 2.730000 0.470000
v -0.180000 2.510000 0.290000
v -0.180000 2.730000 0.290000
v -0.415000 2.730000 0.495000
v -0.145000 2.730000 0.495000
v -0.280000 2.850000 0.495000
v -0.415000 2.730000 0.265000
v -0.145000 2.730000 0.265000
v -0.280000 2.850000 0.265000
v -0.330000 2.570000 0.495000
v -0.330000 2.710000 0.495000
v -0.330000 2.570000 0.445000
v -0.330000 2.710000 0.445000
v -0.230000 2.570000 0.495000
v -0.230000 2.710000 0.495000
v -0.230000 2.570000 0.445000
v -0.230000 2.710000 0.445000
v 0.180000 2.510000 0.470000
v 0.180000 2.730000 0.470000
v 0.180000 2.510000 0.290000
v 0.180000 2.730000 0.290000
v 0.380000 2.510000 0.470000
v 0.380000 2.730000 0.470000
v 0.380000 2.510000 0.290000
v 0.380000 2.730000 0.290000
v 0.145000 2.730000 0.495000
v 0.415000 2.730000 0.495000
v 0.280000 2.850000 0.495000
v 0.145000 2.730000 0.265000
v 0.415000 2.730000 0.265000
v 0.280000 2.850000 0.265000
v 0.230000 2.570000 0.495000
v 0.230000 2.710000 0.495000
v 0.230000 2.570000 0.445000
v 0.230000 2.710000 0.445000
v 0.330000 2.570000 0.495000
v 0.330000 2.710000 0.495000
v 0.330000 2.570000 0.445000
v 0.330000 2.710000 0.445000
v 0.260000 2.600000 -0.260000
v 0.260000 3.100000 -0.260000
v 0.260000 2.600000 -0.420000
v 0.260000 3.100000 -0.420000
v 0.420000 2.600000 -0.260000
v 0.420000 3.100000 -0.260000
v 0.420000 2.600000 -0.420000
v 0.420000 3.100000 -0.420000
v -0.250000 0.060000 0.800000
v -0.250000 0.140000 0.800000
v -0.250000 0.060000 0.640000
v -0.250000 0.140000 0.640000
v 0.250000 0.060000 0.800000
v 0.250000 0.140000 0.800000
v 0.250000 0.060000 0.640000
v 0.250000 0.140000 0.640000
v -0.220000 0.140000 0.750000
v -0.220000 0.220000 0.750000
v -0.220000 0.140000 0.590000
v -0.220000 0.220000 0.590000
v 0.220000 0.140000 0.750000
v 0.220000 0.220000 0.750000
v 0.220000 0.140000 0.590000
v 0.220000 0.220000 0.590000
v -0.190000 0.220000 0.700000
v -0.190000 0.300000 0.700000
v -0.190000 0.220000 0.540000
v -0.190000 0.300000 0.540000
v 0.190000 0.220000 0.700000
v 0.190000 0.300000 0.700000
v 0.190000 0.220000 0.540000
v 0.190000 0.300000 0.540000
v -0.140000 0.320000 0.480000
v -0.140000 0.920000 0.480000
v -0.140000 0.320000 0.400000
v -0.140000 0.920000 0.400000
v 0.140000 0.320000 0.480000
v 0.140000 0.920000 0.480000
v 0.140000 0.320000 0.400000
v 0.140000 0.920000 0.400000
v -0.530000 0.400000 0.450000
v -0.457640 0.455278 0.502572
v -0.557639 0.455278 0.535064
v -0.619442 0.455278 0.450000
v -0.557639 0.455278 0.364936
v -0.457640 0.455278 0.397428
v -0.502361 0.544721 0.535064
v -0.602360 0.544721 0.502572
v -0.602360 0.544721 0.397428
v -0.502361 0.544721 0.364936
v -0.440557 0.544721 0.450000
v -0.530000 0.600000 0.450000
v -0.530000 0.800000 0.450000
v -0.457640 0.855278 0.502572
v -0.557639 0.855278 0.535064
v -0.619442 0.855278 0.450000
v -0.557639 0.855278 0.364936
v -0.457640 0.855278 0.397428
v -0.502361 0.944721 0.535064
v -0.602360 0.944721 0.502572
v -0.602360 0.944721 0.397428
v -0.502361 0.944721 0.364936
v -0.440557 0.944721 0.450000
v -0.530000 1.000000 0.450000
v 0.530000 0.400000 0.450000
v 0.602360 0.455278 0.502572
v 0.502361 0.455278 0.535064
v 0.440557 0.455278 0.450000
v 0.502361 0.455278 0.364936
v 0.602360 0.455278 0.397428
v 0.557639 0.544721 0.535064
v 0.457640 0.544721 0.502572
v 0.457640 0.544721 0.397428
v 0.557639 0.544721 0.364936
v 0.619442 0.544721 0.450000
v 0.530000 0.600000 0.450000
v 0.530000 0.800000 0.450000
v 0.602360 0.855278 0.502572
v 0.502361 0.855278 0.535064
v 0.440557 0.855278 0.450000
v 0.502361 0.855278 0.364936
v 0.602360 0.855278 0.397428
v 0.557639 0.944721 0.535064
v 0.457640 0.944721 0.502572
v 0.457640 0.944721 0.397428
v 0.557639 0.944721 0.364936
v 0.619442 0.944721 0.450000
v 0.530000 1.000000 0.450000
vn -1.0000 -0.0000 -0.0000
vn -0.0000 -0.0000 -1.0000
vn 1.0000 -0.0000 -0.0000
vn -0.0000 -0.0000 1.0000
vn -0.0000 -1.0000 -0.0000
vn -0.0000 1.0000 -0.0000
vn 0.3827 -0.0000 -0.9239
vn 0.9239 -0.0000 -0.3827
vn 0.9239 -0.0000 0.3827
vn 0.3827 -0.0000 0.9239
vn -0.3827 -0.0000 0.9239
vn -0.9239 -0.0000 0.3827
vn -0.9239 -0.0000 -0.3827
vn -0.3827 -0.0000 -0.9239
vn -0.8480 -0.0000 -0.5299
vn 0.5299 -0.0000 -0.8480
vn 0.8480 -0.0000 0.5299
vn -0.5299 -0.0000 0.8480
vn -0.8480 -0.0000 0.5299
vn -0.5299 -0.0000 -0.8480
vn 0.8480 -0.0000 -0.5299
vn 0.5299 -0.0000 0.8480
vn -0.6644 0.7474 -0.0000
vn 0.6644 0.7474 -0.0000
vn 0.1876 -0.7947 0.5774
vn 0.6071 -0.7947 -0.0000
vn -0.4911 -0.7947 0.3568
vn -0.4911 -0.7947 -0.3568
vn 0.1876 -0.7947 -0.5774
vn 0.9822 -0.1876 -0.0000
vn 0.3035 -0.1876 0.9342
vn -0.7946 -0.1876 0.5774
vn -0.7946 -0.1876 -0.5774
vn 0.3035 -0.1876 -0.9342
vn 0.7946 0.1876 0.5774
vn -0.3035 0.1876 0.9342
vn -0.9822 0.1876 -0.0000
vn -0.3035 0.1876 -0.9342
vn 0.7946 0.1876 -0.5774
vn 0.4911 0.7947 0.3568
vn -0.1876 0.7947 0.5774
vn -0.6071 0.7947 -0.0000
vn -0.1876 0.7947 -0.5774
vn 0.4911 0.7947 -0.3568
vt 0.375000 0.000000
vt 0.625000 0.000000
vt 0.625000 0.250000
vt 0.375000 0.250000
vt 0.625000 0.500000
vt 0.375000 0.500000
vt 0.625000 0.750000
vt 0.375000 0.750000
vt 0.625000 1.000000
vt 0.375000 1.000000
vt 0.125000 0.500000
vt 0.125000 0.750000
vt 0.875000 0.500000
vt 0.875000 0.750000
vt 1.000000 0.500000
vt 1.000000 1.000000
vt 0.875000 1.000000
vt 0.750000 1.000000
vt 0.750000 0.500000
vt 0.500000 1.000000
vt 0.500000 0.500000
vt 0.250000 1.000000
vt 0.250000 0.500000
vt 0.419706 0.419706
vt 0.250000 0.490000
vt 0.080294 0.419706
vt 0.010000 0.250000
vt 0.080294 0.080294
vt 0.250000 0.010000
vt 0.419706 0.080294
vt 0.490000 0.250000
vt 0.125000 1.000000
vt 0.000000 1.000000
vt 0.000000 0.500000
vt 0.750000 0.490000
vt 0.919706 0.419706
vt 0.990000 0.250000
vt 0.919706 0.080294
vt 0.750000 0.010000
vt 0.580294 0.080294
vt 0.510000 0.250000
vt 0.580294 0.419706
vt 0.000000 0.000000
vt 0.181819 0.000000
vt 0.272728 0.157461
vt 0.090910 0.157461
vt 0.363637 0.000000
vt 0.454546 0.157461
vt 0.909091 0.000000
vt 1.000000 0.157461
vt 0.818182 0.157461
vt 0.727273 0.000000
vt 0.636364 0.157461
vt 0.545455 0.000000
vt 0.363637 0.314921
vt 0.181819 0.314921
vt 0.909091 0.314921
vt 0.727273 0.314921
vt 0.545455 0.314921
vt 0.000000 0.314921
vt 0.272728 0.472382
vt 0.090910 0.472382
vt 0.818182 0.472382
vt 0.636364 0.472382
vt 0.454546 0.472382
s 0
usemtl stone
f 1/1/1 2/2/1 4/3/1 3/4/1
f 3/4/2 4/3/2 8/5/2 7/6/2
f 7/6/3 8/5/3 6/7/3 5/8/3
f 5/8/4 6/7/4 2/9/4 1/10/4
f 3/11/5 7/6/5 5/8/5 1/12/5
f 8/5/6 4/13/6 2/14/6 6/7/6
f 341/1/1 342/2/1 344/3/1 343/4/1
f 343/4/2 344/3/2 348/5/2 347/6/2
f 347/6/3 348/5/3 346/7/3 345/8/3
f 345/8/4 346/7/4 342/9/4 341/10/4
f 343/11/5 347/6/5 345/8/5 341/12/5
f 348/5/6 344/13/6 342/14/6 346/7/6
f 349/1/1 350/2/1 352/3/1 351/4/1
f 351/4/2 352/3/2 356/5/2 355/6/2
f 355/6/3 356/5/3 354/7/3 353/8/3
f 353/8/4 354/7/4 350/9/4 349/10/4
f 351/11/5 355/6/5 353/8/5 349/12/5
f 356/5/6 352/13/6 350/14/6 354/7/6
f 357/1/1 358/2/1 360/3/1 359/4/1
f 359/4/2 360/3/2 364/5/2 363/6/2
f 363/6/3 364/5/3 362/7/3 361/8/3
f 361/8/4 362/7/4 358/9/4 357/10/4
f 359/11/5 363/6/5 361/8/5 357/12/5
f 364/5/6 360/13/6 358/14/6 362/7/6
usemtl charwood
f 9/1/1 10/2/1 12/3/1 11/4/1
f 11/4/2 12/3/2 16/5/2 15/6/2
f 15/6/3 16/5/3 14/7/3 13/8/3
f 13/8/4 14/7/4 10/9/4 9/10/4
f 11/11/5 15/6/5 13/8/5 9/12/5
f 16/5/6 12/13/6 10/14/6 14/7/6
f 41/15/7 42/16/7 44/17/7 43/13/7
f 43/13/8 44/17/8 46/18/8 45/19/8
f 45/19/9 46/18/9 48/9/9 47/5/9
f 47/5/10 48/9/10 50/20/10 49/21/10
f 49/21/11 50/20/11 52/10/11 51/6/11
f 51/6/12 52/10/12 54/22/12 53/23/12
f 44/24/6 42/25/6 56/26/6 54/27/6 52/28/6 50/29/6 48/30/6 46/31/6
f 53/23/13 54/22/13 56/32/13 55/11/13
f 55/11/14 56/32/14 42/33/14 41/34/14
f 41/35/5 43/36/5 45/37/5 47/38/5 49/39/5 51/40/5 53/41/5 55/42/5
f 289/1/1 290/2/1 292/3/1 291/4/1
f 291/4/2 292/3/2 296/5/2 295/6/2
f 295/6/3 296/5/3 294/7/3 293/8/3
f 293/8/4 294/7/4 290/9/4 289/10/4
f 291/11/5 295/6/5 293/8/5 289/12/5
f 296/5/6 292/13/6 290/14/6 294/7/6
f 311/1/1 312/2/1 314/3/1 313/4/1
f 313/4/2 314/3/2 318/5/2 317/6/2
f 317/6/3 318/5/3 316/7/3 315/8/3
f 315/8/4 316/7/4 312/9/4 311/10/4
f 313/11/5 317/6/5 315/8/5 311/12/5
f 318/5/6 314/13/6 312/14/6 316/7/6
usemtl wood_dk
f 17/1/1 18/2/1 20/3/1 19/4/1
f 19/4/2 20/3/2 24/5/2 23/6/2
f 23/6/3 24/5/3 22/7/3 21/8/3
f 21/8/4 22/7/4 18/9/4 17/10/4
f 19/11/5 23/6/5 21/8/5 17/12/5
f 24/5/6 20/13/6 18/14/6 22/7/6
f 25/1/1 26/2/1 28/3/1 27/4/1
f 27/4/2 28/3/2 32/5/2 31/6/2
f 31/6/3 32/5/3 30/7/3 29/8/3
f 29/8/4 30/7/4 26/9/4 25/10/4
f 27/11/5 31/6/5 29/8/5 25/12/5
f 32/5/6 28/13/6 26/14/6 30/7/6
f 33/1/1 34/2/1 36/3/1 35/4/1
f 35/4/2 36/3/2 40/5/2 39/6/2
f 39/6/3 40/5/3 38/7/3 37/8/3
f 37/8/4 38/7/4 34/9/4 33/10/4
f 35/11/5 39/6/5 37/8/5 33/12/5
f 40/5/6 36/13/6 34/14/6 38/7/6
f 365/1/1 366/2/1 368/3/1 367/4/1
f 367/4/2 368/3/2 372/5/2 371/6/2
f 371/6/3 372/5/3 370/7/3 369/8/3
f 369/8/4 370/7/4 366/9/4 365/10/4
f 367/11/5 371/6/5 369/8/5 365/12/5
f 372/5/6 368/13/6 366/14/6 370/7/6
usemtl ember
f 57/1/15 58/2/15 60/3/15 59/4/15
f 59/4/16 60/3/16 64/5/16 63/6/16
f 63/6/17 64/5/17 62/7/17 61/8/17
f 61/8/18 62/7/18 58/9/18 57/10/18
f 59/11/5 63/6/5 61/8/5 57/12/5
f 64/5/6 60/13/6 58/14/6 62/7/6
f 65/1/1 66/2/1 68/3/1 67/4/1
f 67/4/2 68/3/2 72/5/2 71/6/2
f 71/6/3 72/5/3 70/7/3 69/8/3
f 69/8/4 70/7/4 66/9/4 65/10/4
f 67/11/5 71/6/5 69/8/5 65/12/5
f 72/5/6 68/13/6 66/14/6 70/7/6
f 73/1/19 74/2/19 76/3/19 75/4/19
f 75/4/20 76/3/20 80/5/20 79/6/20
f 79/6/21 80/5/21 78/7/21 77/8/21
f 77/8/22 78/7/22 74/9/22 73/10/22
f 75/11/5 79/6/5 77/8/5 73/12/5
f 80/5/6 76/13/6 74/14/6 78/7/6
f 81/1/15 82/2/15 84/3/15 83/4/15
f 83/4/16 84/3/16 88/5/16 87/6/16
f 87/6/17 88/5/17 86/7/17 85/8/17
f 85/8/18 86/7/18 82/9/18 81/10/18
f 83/11/5 87/6/5 85/8/5 81/12/5
f 88/5/6 84/13/6 82/14/6 86/7/6
f 89/1/1 90/2/1 92/3/1 91/4/1
f 91/4/2 92/3/2 96/5/2 95/6/2
f 95/6/3 96/5/3 94/7/3 93/8/3
f 93/8/4 94/7/4 90/9/4 89/10/4
f 91/11/5 95/6/5 93/8/5 89/12/5
f 96/5/6 92/13/6 90/14/6 94/7/6
f 97/1/19 98/2/19 100/3/19 99/4/19
f 99/4/20 100/3/20 104/5/20 103/6/20
f 103/6/21 104/5/21 102/7/21 101/8/21
f 101/8/22 102/7/22 98/9/22 97/10/22
f 99/11/5 103/6/5 101/8/5 97/12/5
f 104/5/6 100/13/6 98/14/6 102/7/6
f 105/1/15 106/2/15 108/3/15 107/4/15
f 107/4/16 108/3/16 112/5/16 111/6/16
f 111/6/17 112/5/17 110/7/17 109/8/17
f 109/8/18 110/7/18 106/9/18 105/10/18
f 107/11/5 111/6/5 109/8/5 105/12/5
f 112/5/6 108/13/6 106/14/6 110/7/6
f 113/1/1 114/2/1 116/3/1 115/4/1
f 115/4/2 116/3/2 120/5/2 119/6/2
f 119/6/3 120/5/3 118/7/3 117/8/3
f 117/8/4 118/7/4 114/9/4 113/10/4
f 115/11/5 119/6/5 117/8/5 113/12/5
f 120/5/6 116/13/6 114/14/6 118/7/6
f 121/1/19 122/2/19 124/3/19 123/4/19
f 123/4/20 124/3/20 128/5/20 127/6/20
f 127/6/21 128/5/21 126/7/21 125/8/21
f 125/8/22 126/7/22 122/9/22 121/10/22
f 123/11/5 127/6/5 125/8/5 121/12/5
f 128/5/6 124/13/6 122/14/6 126/7/6
f 225/1/1 226/2/1 228/3/1 227/4/1
f 227/4/2 228/3/2 232/5/2 231/6/2
f 231/6/3 232/5/3 230/7/3 229/8/3
f 229/8/4 230/7/4 226/9/4 225/10/4
f 227/11/5 231/6/5 229/8/5 225/12/5
f 232/5/6 228/13/6 226/14/6 230/7/6
f 233/1/1 234/2/1 236/3/1 235/4/1
f 235/4/2 236/3/2 240/5/2 239/6/2
f 239/6/3 240/5/3 238/7/3 237/8/3
f 237/8/4 238/7/4 234/9/4 233/10/4
f 235/11/5 239/6/5 237/8/5 233/12/5
f 240/5/6 236/13/6 234/14/6 238/7/6
f 241/1/1 242/2/1 244/3/1 243/4/1
f 243/4/2 244/3/2 248/5/2 247/6/2
f 247/6/3 248/5/3 246/7/3 245/8/3
f 245/8/4 246/7/4 242/9/4 241/10/4
f 243/11/5 247/6/5 245/8/5 241/12/5
f 248/5/6 244/13/6 242/14/6 246/7/6
f 249/1/1 250/2/1 252/3/1 251/4/1
f 251/4/2 252/3/2 256/5/2 255/6/2
f 255/6/3 256/5/3 254/7/3 253/8/3
f 253/8/4 254/7/4 250/9/4 249/10/4
f 251/11/5 255/6/5 253/8/5 249/12/5
f 256/5/6 252/13/6 250/14/6 254/7/6
f 257/1/1 258/2/1 260/3/1 259/4/1
f 259/4/2 260/3/2 264/5/2 263/6/2
f 263/6/3 264/5/3 262/7/3 261/8/3
f 261/8/4 262/7/4 258/9/4 257/10/4
f 259/11/5 263/6/5 261/8/5 257/12/5
f 264/5/6 260/13/6 258/14/6 262/7/6
f 265/1/1 266/2/1 268/3/1 267/4/1
f 267/4/2 268/3/2 272/5/2 271/6/2
f 271/6/3 272/5/3 270/7/3 269/8/3
f 269/8/4 270/7/4 266/9/4 265/10/4
f 267/11/5 271/6/5 269/8/5 265/12/5
f 272/5/6 268/13/6 266/14/6 270/7/6
f 303/1/1 304/2/1 306/3/1 305/4/1
f 305/4/2 306/3/2 310/5/2 309/6/2
f 309/6/3 310/5/3 308/7/3 307/8/3
f 307/8/4 308/7/4 304/9/4 303/10/4
f 305/11/5 309/6/5 307/8/5 303/12/5
f 310/5/6 306/13/6 304/14/6 308/7/6
f 325/1/1 326/2/1 328/3/1 327/4/1
f 327/4/2 328/3/2 332/5/2 331/6/2
f 331/6/3 332/5/3 330/7/3 329/8/3
f 329/8/4 330/7/4 326/9/4 325/10/4
f 327/11/5 331/6/5 329/8/5 325/12/5
f 332/5/6 328/13/6 326/14/6 330/7/6
usemtl iron
f 129/1/1 130/2/1 132/3/1 131/4/1
f 131/4/2 132/3/2 136/5/2 135/6/2
f 135/6/3 136/5/3 134/7/3 133/8/3
f 133/8/4 134/7/4 130/9/4 129/10/4
f 131/11/5 135/6/5 133/8/5 129/12/5
f 136/5/6 132/13/6 130/14/6 134/7/6
f 137/1/1 138/2/1 140/3/1 139/4/1
f 139/4/2 140/3/2 144/5/2 143/6/2
f 143/6/3 144/5/3 142/7/3 141/8/3
f 141/8/4 142/7/4 138/9/4 137/10/4
f 139/11/5 143/6/5 141/8/5 137/12/5
f 144/5/6 140/13/6 138/14/6 142/7/6
f 145/1/1 146/2/1 148/3/1 147/4/1
f 147/4/2 148/3/2 152/5/2 151/6/2
f 151/6/3 152/5/3 150/7/3 149/8/3
f 149/8/4 150/7/4 146/9/4 145/10/4
f 147/11/5 151/6/5 149/8/5 145/12/5
f 152/5/6 148/13/6 146/14/6 150/7/6
f 153/1/1 154/2/1 156/3/1 155/4/1
f 155/4/2 156/3/2 160/5/2 159/6/2
f 159/6/3 160/5/3 158/7/3 157/8/3
f 157/8/4 158/7/4 154/9/4 153/10/4
f 155/11/5 159/6/5 157/8/5 153/12/5
f 160/5/6 156/13/6 154/14/6 158/7/6
f 161/1/1 162/2/1 164/3/1 163/4/1
f 163/4/2 164/3/2 168/5/2 167/6/2
f 167/6/3 168/5/3 166/7/3 165/8/3
f 165/8/4 166/7/4 162/9/4 161/10/4
f 163/11/5 167/6/5 165/8/5 161/12/5
f 168/5/6 164/13/6 162/14/6 166/7/6
f 169/1/1 170/2/1 172/3/1 171/4/1
f 171/4/2 172/3/2 176/5/2 175/6/2
f 175/6/3 176/5/3 174/7/3 173/8/3
f 173/8/4 174/7/4 170/9/4 169/10/4
f 171/11/5 175/6/5 173/8/5 169/12/5
f 176/5/6 172/13/6 170/14/6 174/7/6
f 177/1/1 178/2/1 180/3/1 179/4/1
f 179/4/2 180/3/2 184/5/2 183/6/2
f 183/6/3 184/5/3 182/7/3 181/8/3
f 181/8/4 182/7/4 178/9/4 177/10/4
f 179/11/5 183/6/5 181/8/5 177/12/5
f 184/5/6 180/13/6 178/14/6 182/7/6
f 185/1/1 186/2/1 188/3/1 187/4/1
f 187/4/2 188/3/2 192/5/2 191/6/2
f 191/6/3 192/5/3 190/7/3 189/8/3
f 189/8/4 190/7/4 186/9/4 185/10/4
f 187/11/5 191/6/5 189/8/5 185/12/5
f 192/5/6 188/13/6 186/14/6 190/7/6
f 193/1/1 194/2/1 196/3/1 195/4/1
f 195/4/2 196/3/2 200/5/2 199/6/2
f 199/6/3 200/5/3 198/7/3 197/8/3
f 197/8/4 198/7/4 194/9/4 193/10/4
f 195/11/5 199/6/5 197/8/5 193/12/5
f 200/5/6 196/13/6 194/14/6 198/7/6
f 201/1/1 202/2/1 204/3/1 203/4/1
f 203/4/2 204/3/2 208/5/2 207/6/2
f 207/6/3 208/5/3 206/7/3 205/8/3
f 205/8/4 206/7/4 202/9/4 201/10/4
f 203/11/5 207/6/5 205/8/5 201/12/5
f 208/5/6 204/13/6 202/14/6 206/7/6
f 209/1/1 210/2/1 212/3/1 211/4/1
f 211/4/2 212/3/2 216/5/2 215/6/2
f 215/6/3 216/5/3 214/7/3 213/8/3
f 213/8/4 214/7/4 210/9/4 209/10/4
f 211/11/5 215/6/5 213/8/5 209/12/5
f 216/5/6 212/13/6 210/14/6 214/7/6
f 217/1/1 218/2/1 220/3/1 219/4/1
f 219/4/2 220/3/2 224/5/2 223/6/2
f 223/6/3 224/5/3 222/7/3 221/8/3
f 221/8/4 222/7/4 218/9/4 217/10/4
f 219/11/5 223/6/5 221/8/5 217/12/5
f 224/5/6 220/13/6 218/14/6 222/7/6
usemtl slate
f 273/1/1 274/2/1 276/3/1 275/4/1
f 275/4/2 276/3/2 280/5/2 279/6/2
f 279/6/3 280/5/3 278/7/3 277/8/3
f 277/8/4 278/7/4 274/9/4 273/10/4
f 275/11/5 279/6/5 277/8/5 273/12/5
f 280/5/6 276/13/6 274/14/6 278/7/6
f 281/1/1 282/2/1 284/3/1 283/4/1
f 283/4/2 284/3/2 288/5/2 287/6/2
f 287/6/3 288/5/3 286/7/3 285/8/3
f 285/8/4 286/7/4 282/9/4 281/10/4
f 283/11/5 287/6/5 285/8/5 281/12/5
f 288/5/6 284/13/6 282/14/6 286/7/6
f 297/43/4 298/43/4 299/43/4
f 302/43/2 301/43/2 300/43/2
f 297/43/23 299/43/23 302/43/23 300/43/23
f 299/43/24 298/43/24 301/43/24 302/43/24
f 298/43/5 297/43/5 300/43/5 301/43/5
f 319/43/4 320/43/4 321/43/4
f 324/43/2 323/43/2 322/43/2
f 319/43/23 321/43/23 324/43/23 322/43/23
f 321/43/24 320/43/24 323/43/24 324/43/24
f 320/43/5 319/43/5 322/43/5 323/43/5
usemtl stone_dk
f 333/1/1 334/2/1 336/3/1 335/4/1
f 335/4/2 336/3/2 340/5/2 339/6/2
f 339/6/3 340/5/3 338/7/3 337/8/3
f 337/8/4 338/7/4 334/9/4 333/10/4
f 335/11/5 339/6/5 337/8/5 333/12/5
f 340/5/6 336/13/6 334/14/6 338/7/6
usemtl leaf_dk
f 373/44/25 374/45/25 375/46/25
f 374/45/26 373/47/26 378/48/26
f 373/49/27 375/50/27 376/51/27
f 373/52/28 376/51/28 377/53/28
f 373/54/29 377/53/29 378/48/29
f 374/45/30 378/48/30 383/55/30
f 375/46/31 374/45/31 379/56/31
f 376/51/32 375/50/32 380/57/32
f 377/53/33 376/51/33 381/58/33
f 378/48/34 377/53/34 382/59/34
f 374/45/35 383/55/35 379/56/35
f 375/46/36 379/56/36 380/60/36
f 376/51/37 380/57/37 381/58/37
f 377/53/38 381/58/38 382/59/38
f 378/48/39 382/59/39 383/55/39
f 379/56/40 383/55/40 384/61/40
f 380/60/41 379/56/41 384/62/41
f 381/58/42 380/57/42 384/63/42
f 382/59/43 381/58/43 384/64/43
f 383/55/44 382/59/44 384/65/44
f 385/44/25 386/45/25 387/46/25
f 386/45/26 385/47/26 390/48/26
f 385/49/27 387/50/27 388/51/27
f 385/52/28 388/51/28 389/53/28
f 385/54/29 389/53/29 390/48/29
f 386/45/30 390/48/30 395/55/30
f 387/46/31 386/45/31 391/56/31
f 388/51/32 387/50/32 392/57/32
f 389/53/33 388/51/33 393/58/33
f 390/48/34 389/53/34 394/59/34
f 386/45/35 395/55/35 391/56/35
f 387/46/36 391/56/36 392/60/36
f 388/51/37 392/57/37 393/58/37
f 389/53/38 393/58/38 394/59/38
f 390/48/39 394/59/39 395/55/39
f 391/56/40 395/55/40 396/61/40
f 392/60/41 391/56/41 396/62/41
f 393/58/42 392/57/42 396/63/42
f 394/59/43 393/58/43 396/64/43
f 395/55/44 394/59/44 396/65/44
f 397/44/25 398/45/25 399/46/25
f 398/45/26 397/47/26 402/48/26
f 397/49/27 399/50/27 400/51/27
f 397/52/28 400/51/28 401/53/28
f 397/54/29 401/53/29 402/48/29
f 398/45/30 402/48/30 407/55/30
f 399/46/31 398/45/31 403/56/31
f 400/51/32 399/50/32 404/57/32
f 401/53/33 400/51/33 405/58/33
f 402/48/34 401/53/34 406/59/34
f 398/45/35 407/55/35 403/56/35
f 399/46/36 403/56/36 404/60/36
f 400/51/37 404/57/37 405/58/37
f 401/53/38 405/58/38 406/59/38
f 402/48/39 406/59/39 407/55/39
f 403/56/40 407/55/40 408/61/40
f 404/60/41 403/56/41 408/62/41
f 405/58/42 404/57/42 408/63/42
f 406/59/43 405/58/43 408/64/43
f 407/55/44 406/59/44 408/65/44
f 409/44/25 410/45/25 411/46/25
f 410/45/26 409/47/26 414/48/26
f 409/49/27 411/50/27 412/51/27
f 409/52/28 412/51/28 413/53/28
f 409/54/29 413/53/29 414/48/29
f 410/45/30 414/48/30 419/55/30
f 411/46/31 410/45/31 415/56/31
f 412/51/32 411/50/32 416/57/32
f 413/53/33 412/51/33 417/58/33
f 414/48/34 413/53/34 418/59/34
f 410/45/35 419/55/35 415/56/35
f 411/46/36 415/56/36 416/60/36
f 412/51/37 416/57/37 417/58/37
f 413/53/38 417/58/38 418/59/38
f 414/48/39 418/59/39 419/55/39
f 415/56/40 419/55/40 420/61/40
f 416/60/41 415/56/41 420/62/41
f 417/58/42 416/57/42 420/63/42
f 418/59/43 417/58/43 420/64/43
f 419/55/44 418/59/44 420/65/44
