{
	"asset":{
		"generator":"Khronos glTF Blender I/O v5.0.21",
		"version":"2.0"
	},
	"scene":0,
	"scenes":[
		{
			"name":"Scene",
			"nodes":[
				0
			]
		}
	],
	"nodes":[
		{
			"mesh":0,
			"name":"bone_hound",
			"translation":[
				0,
				-0.2608582079410553,
				0
			]
		}
	],
	"materials":[
		{
			"doubleSided":true,
			"name":"lowpoly_tex.001",
			"pbrMetallicRoughness":{
				"baseColorTexture":{
					"index":0
				},
				"metallicFactor":0,
				"roughnessFactor":0.8999999761581421
			}
		}
	],
	"meshes":[
		{
			"name":"geometry_0.001",
			"primitives":[
				{
					"attributes":{
						"POSITION":0,
						"NORMAL":1,
						"TEXCOORD_0":2
					},
					"indices":3,
					"material":0
				}
			]
		}
	],
	"textures":[
		{
			"sampler":0,
			"source":0
		}
	],
	"images":[
		{
			"mimeType":"image/png",
			"name":"bone_hound_albedo",
			"uri":"bone_hound_albedo.png"
		}
	],
	"accessors":[
		{
			"bufferView":0,
			"componentType":5126,
			"count":8376,
			"max":[
				0.14451006054878235,
				0.5217164158821106,
				0.5
			],
			"min":[
				-0.14451006054878235,
				0,
				-0.5
			],
			"type":"VEC3"
		},
		{
			"bufferView":1,
			"componentType":5126,
			"count":8376,
			"type":"VEC3"
		},
		{
			"bufferView":2,
			"componentType":5126,
			"count":8376,
			"type":"VEC2"
		},
		{
			"bufferView":3,
			"componentType":5123,
			"count":8376,
			"type":"SCALAR"
		}
	],
	"bufferViews":[
		{
			"buffer":0,
			"byteLength":100512,
			"byteOffset":0,
			"target":34962
		},
		{
			"buffer":0,
			"byteLength":100512,
			"byteOffset":100512,
			"target":34962
		},
		{
			"buffer":0,
			"byteLength":67008,
			"byteOffset":201024,
			"target":34962
		},
		{
			"buffer":0,
			"byteLength":16752,
			"byteOffset":268032,
			"target":34963
		}
	],
	"samplers":[
		{
			"magFilter":9729,
			"minFilter":9987
		}
	],
	"buffers":[
		{
			"byteLength":284784,
			"uri":"bone_hound.bin"
		}
	]
}
