{
	"asset":{
		"generator":"Khronos glTF Blender I/O v5.0.21",
		"version":"2.0"
	},
	"scene":0,
	"scenes":[
		{
			"name":"Scene",
			"nodes":[
				0
			]
		}
	],
	"nodes":[
		{
			"mesh":0,
			"name":"bone_golem",
			"translation":[
				0,
				-0.5,
				0
			]
		}
	],
	"materials":[
		{
			"doubleSided":true,
			"name":"lowpoly_tex",
			"pbrMetallicRoughness":{
				"baseColorTexture":{
					"index":0
				},
				"metallicFactor":0,
				"roughnessFactor":0.8999999761581421
			}
		}
	],
	"meshes":[
		{
			"name":"geometry_0",
			"primitives":[
				{
					"attributes":{
						"POSITION":0,
						"NORMAL":1,
						"TEXCOORD_0":2
					},
					"indices":3,
					"material":0
				}
			]
		}
	],
	"textures":[
		{
			"sampler":0,
			"source":0
		}
	],
	"images":[
		{
			"mimeType":"image/png",
			"name":"bone_golem_albedo",
			"uri":"bone_golem_albedo.png"
		}
	],
	"accessors":[
		{
			"bufferView":0,
			"componentType":5126,
			"count":11964,
			"max":[
				0.35737594962120056,
				1,
				0.13312213122844696
			],
			"min":[
				-0.35737594962120056,
				0,
				-0.13312213122844696
			],
			"type":"VEC3"
		},
		{
			"bufferView":1,
			"componentType":5126,
			"count":11964,
			"type":"VEC3"
		},
		{
			"bufferView":2,
			"componentType":5126,
			"count":11964,
			"type":"VEC2"
		},
		{
			"bufferView":3,
			"componentType":5123,
			"count":11964,
			"type":"SCALAR"
		}
	],
	"bufferViews":[
		{
			"buffer":0,
			"byteLength":143568,
			"byteOffset":0,
			"target":34962
		},
		{
			"buffer":0,
			"byteLength":143568,
			"byteOffset":143568,
			"target":34962
		},
		{
			"buffer":0,
			"byteLength":95712,
			"byteOffset":287136,
			"target":34962
		},
		{
			"buffer":0,
			"byteLength":23928,
			"byteOffset":382848,
			"target":34963
		}
	],
	"samplers":[
		{
			"magFilter":9729,
			"minFilter":9987
		}
	],
	"buffers":[
		{
			"byteLength":406776,
			"uri":"bone_golem.bin"
		}
	]
}
