{
	"asset":{
		"generator":"Khronos glTF Blender I/O v5.0.21",
		"version":"2.0"
	},
	"scene":0,
	"scenes":[
		{
			"name":"Scene",
			"nodes":[
				0
			]
		}
	],
	"nodes":[
		{
			"mesh":0,
			"name":"cultist",
			"translation":[
				0,
				-0.4999999701976776,
				0
			]
		}
	],
	"materials":[
		{
			"doubleSided":true,
			"name":"lowpoly_tex.002",
			"pbrMetallicRoughness":{
				"baseColorTexture":{
					"index":0
				},
				"metallicFactor":0,
				"roughnessFactor":0.8999999761581421
			}
		}
	],
	"meshes":[
		{
			"name":"geometry_0.002",
			"primitives":[
				{
					"attributes":{
						"POSITION":0,
						"NORMAL":1,
						"TEXCOORD_0":2
					},
					"indices":3,
					"material":0
				}
			]
		}
	],
	"textures":[
		{
			"sampler":0,
			"source":0
		}
	],
	"images":[
		{
			"mimeType":"image/png",
			"name":"cultist_albedo",
			"uri":"cultist_albedo.png"
		}
	],
	"accessors":[
		{
			"bufferView":0,
			"componentType":5126,
			"count":7617,
			"max":[
				0.47190243005752563,
				0.9999999403953552,
				0.12863817811012268
			],
			"min":[
				-0.47190243005752563,
				0,
				-0.12863817811012268
			],
			"type":"VEC3"
		},
		{
			"bufferView":1,
			"componentType":5126,
			"count":7617,
			"type":"VEC3"
		},
		{
			"bufferView":2,
			"componentType":5126,
			"count":7617,
			"type":"VEC2"
		},
		{
			"bufferView":3,
			"componentType":5123,
			"count":7617,
			"type":"SCALAR"
		}
	],
	"bufferViews":[
		{
			"buffer":0,
			"byteLength":91404,
			"byteOffset":0,
			"target":34962
		},
		{
			"buffer":0,
			"byteLength":91404,
			"byteOffset":91404,
			"target":34962
		},
		{
			"buffer":0,
			"byteLength":60936,
			"byteOffset":182808,
			"target":34962
		},
		{
			"buffer":0,
			"byteLength":15234,
			"byteOffset":243744,
			"target":34963
		}
	],
	"samplers":[
		{
			"magFilter":9729,
			"minFilter":9987
		}
	],
	"buffers":[
		{
			"byteLength":258980,
			"uri":"cultist.bin"
		}
	]
}
