{
	"asset":{
		"generator":"Khronos glTF Blender I/O v5.0.21",
		"version":"2.0"
	},
	"scene":0,
	"scenes":[
		{
			"name":"Scene",
			"nodes":[
				0
			]
		}
	],
	"nodes":[
		{
			"mesh":0,
			"name":"dire_rat",
			"translation":[
				0,
				-0.25648531317710876,
				0
			]
		}
	],
	"materials":[
		{
			"doubleSided":true,
			"name":"lowpoly_tex.003",
			"pbrMetallicRoughness":{
				"baseColorTexture":{
					"index":0
				},
				"metallicFactor":0,
				"roughnessFactor":0.8999999761581421
			}
		}
	],
	"meshes":[
		{
			"name":"geometry_0.003",
			"primitives":[
				{
					"attributes":{
						"POSITION":0,
						"NORMAL":1,
						"TEXCOORD_0":2
					},
					"indices":3,
					"material":0
				}
			]
		}
	],
	"textures":[
		{
			"sampler":0,
			"source":0
		}
	],
	"images":[
		{
			"mimeType":"image/png",
			"name":"dire_rat_albedo",
			"uri":"dire_rat_albedo.png"
		}
	],
	"accessors":[
		{
			"bufferView":0,
			"componentType":5126,
			"count":7525,
			"max":[
				0.2673436999320984,
				0.5129706263542175,
				0.5
			],
			"min":[
				-0.2673436999320984,
				0,
				-0.5
			],
			"type":"VEC3"
		},
		{
			"bufferView":1,
			"componentType":5126,
			"count":7525,
			"type":"VEC3"
		},
		{
			"bufferView":2,
			"componentType":5126,
			"count":7525,
			"type":"VEC2"
		},
		{
			"bufferView":3,
			"componentType":5123,
			"count":7527,
			"type":"SCALAR"
		}
	],
	"bufferViews":[
		{
			"buffer":0,
			"byteLength":90300,
			"byteOffset":0,
			"target":34962
		},
		{
			"buffer":0,
			"byteLength":90300,
			"byteOffset":90300,
			"target":34962
		},
		{
			"buffer":0,
			"byteLength":60200,
			"byteOffset":180600,
			"target":34962
		},
		{
			"buffer":0,
			"byteLength":15054,
			"byteOffset":240800,
			"target":34963
		}
	],
	"samplers":[
		{
			"magFilter":9729,
			"minFilter":9987
		}
	],
	"buffers":[
		{
			"byteLength":255856,
			"uri":"dire_rat.bin"
		}
	]
}
