{
	"asset":{
		"generator":"Khronos glTF Blender I/O v5.0.21",
		"version":"2.0"
	},
	"scene":0,
	"scenes":[
		{
			"name":"Scene",
			"nodes":[
				0
			]
		}
	],
	"nodes":[
		{
			"mesh":0,
			"name":"ghoul",
			"translation":[
				0,
				-0.49903398752212524,
				0
			]
		}
	],
	"materials":[
		{
			"doubleSided":true,
			"name":"lowpoly_tex.004",
			"pbrMetallicRoughness":{
				"baseColorTexture":{
					"index":0
				},
				"metallicFactor":0,
				"roughnessFactor":0.8999999761581421
			}
		}
	],
	"meshes":[
		{
			"name":"geometry_0.004",
			"primitives":[
				{
					"attributes":{
						"POSITION":0,
						"NORMAL":1,
						"TEXCOORD_0":2
					},
					"indices":3,
					"material":0
				}
			]
		}
	],
	"textures":[
		{
			"sampler":0,
			"source":0
		}
	],
	"images":[
		{
			"mimeType":"image/png",
			"name":"ghoul_albedo",
			"uri":"ghoul_albedo.png"
		}
	],
	"accessors":[
		{
			"bufferView":0,
			"componentType":5126,
			"count":8997,
			"max":[
				0.5,
				0.9980679750442505,
				0.08925263583660126
			],
			"min":[
				-0.5,
				0,
				-0.08925263583660126
			],
			"type":"VEC3"
		},
		{
			"bufferView":1,
			"componentType":5126,
			"count":8997,
			"type":"VEC3"
		},
		{
			"bufferView":2,
			"componentType":5126,
			"count":8997,
			"type":"VEC2"
		},
		{
			"bufferView":3,
			"componentType":5123,
			"count":8997,
			"type":"SCALAR"
		}
	],
	"bufferViews":[
		{
			"buffer":0,
			"byteLength":107964,
			"byteOffset":0,
			"target":34962
		},
		{
			"buffer":0,
			"byteLength":107964,
			"byteOffset":107964,
			"target":34962
		},
		{
			"buffer":0,
			"byteLength":71976,
			"byteOffset":215928,
			"target":34962
		},
		{
			"buffer":0,
			"byteLength":17994,
			"byteOffset":287904,
			"target":34963
		}
	],
	"samplers":[
		{
			"magFilter":9729,
			"minFilter":9987
		}
	],
	"buffers":[
		{
			"byteLength":305900,
			"uri":"ghoul.bin"
		}
	]
}
