{
	"asset":{
		"generator":"Khronos glTF Blender I/O v5.0.21",
		"version":"2.0"
	},
	"scene":0,
	"scenes":[
		{
			"name":"Scene",
			"nodes":[
				0
			]
		}
	],
	"nodes":[
		{
			"mesh":0,
			"name":"grave_boar",
			"translation":[
				0,
				-0.3321573734283447,
				0
			]
		}
	],
	"materials":[
		{
			"doubleSided":true,
			"name":"lowpoly_tex.005",
			"pbrMetallicRoughness":{
				"baseColorTexture":{
					"index":0
				},
				"metallicFactor":0,
				"roughnessFactor":0.8999999761581421
			}
		}
	],
	"meshes":[
		{
			"name":"geometry_0.005",
			"primitives":[
				{
					"attributes":{
						"POSITION":0,
						"NORMAL":1,
						"TEXCOORD_0":2
					},
					"indices":3,
					"material":0
				}
			]
		}
	],
	"textures":[
		{
			"sampler":0,
			"source":0
		}
	],
	"images":[
		{
			"mimeType":"image/png",
			"name":"grave_boar_albedo",
			"uri":"grave_boar_albedo.png"
		}
	],
	"accessors":[
		{
			"bufferView":0,
			"componentType":5126,
			"count":8883,
			"max":[
				0.19933664798736572,
				0.6643147468566895,
				0.5
			],
			"min":[
				-0.19933664798736572,
				0,
				-0.5
			],
			"type":"VEC3"
		},
		{
			"bufferView":1,
			"componentType":5126,
			"count":8883,
			"type":"VEC3"
		},
		{
			"bufferView":2,
			"componentType":5126,
			"count":8883,
			"type":"VEC2"
		},
		{
			"bufferView":3,
			"componentType":5123,
			"count":8883,
			"type":"SCALAR"
		}
	],
	"bufferViews":[
		{
			"buffer":0,
			"byteLength":106596,
			"byteOffset":0,
			"target":34962
		},
		{
			"buffer":0,
			"byteLength":106596,
			"byteOffset":106596,
			"target":34962
		},
		{
			"buffer":0,
			"byteLength":71064,
			"byteOffset":213192,
			"target":34962
		},
		{
			"buffer":0,
			"byteLength":17766,
			"byteOffset":284256,
			"target":34963
		}
	],
	"samplers":[
		{
			"magFilter":9729,
			"minFilter":9987
		}
	],
	"buffers":[
		{
			"byteLength":302024,
			"uri":"grave_boar.bin"
		}
	]
}
