{
	"asset":{
		"generator":"Khronos glTF Blender I/O v5.0.21",
		"version":"2.0"
	},
	"scene":0,
	"scenes":[
		{
			"name":"Scene",
			"nodes":[
				0
			]
		}
	],
	"nodes":[
		{
			"mesh":0,
			"name":"hell_hound",
			"translation":[
				0,
				-0.41132500767707825,
				0
			]
		}
	],
	"materials":[
		{
			"doubleSided":true,
			"name":"lowpoly_tex.006",
			"pbrMetallicRoughness":{
				"baseColorTexture":{
					"index":0
				},
				"metallicFactor":0,
				"roughnessFactor":0.8999999761581421
			}
		}
	],
	"meshes":[
		{
			"name":"geometry_0.006",
			"primitives":[
				{
					"attributes":{
						"POSITION":0,
						"NORMAL":1,
						"TEXCOORD_0":2
					},
					"indices":3,
					"material":0
				}
			]
		}
	],
	"textures":[
		{
			"sampler":0,
			"source":0
		}
	],
	"images":[
		{
			"mimeType":"image/png",
			"name":"hell_hound_albedo",
			"uri":"hell_hound_albedo.png"
		}
	],
	"accessors":[
		{
			"bufferView":0,
			"componentType":5126,
			"count":8841,
			"max":[
				0.14731623232364655,
				0.8226500153541565,
				0.5
			],
			"min":[
				-0.14731623232364655,
				0,
				-0.5
			],
			"type":"VEC3"
		},
		{
			"bufferView":1,
			"componentType":5126,
			"count":8841,
			"type":"VEC3"
		},
		{
			"bufferView":2,
			"componentType":5126,
			"count":8841,
			"type":"VEC2"
		},
		{
			"bufferView":3,
			"componentType":5123,
			"count":8841,
			"type":"SCALAR"
		}
	],
	"bufferViews":[
		{
			"buffer":0,
			"byteLength":106092,
			"byteOffset":0,
			"target":34962
		},
		{
			"buffer":0,
			"byteLength":106092,
			"byteOffset":106092,
			"target":34962
		},
		{
			"buffer":0,
			"byteLength":70728,
			"byteOffset":212184,
			"target":34962
		},
		{
			"buffer":0,
			"byteLength":17682,
			"byteOffset":282912,
			"target":34963
		}
	],
	"samplers":[
		{
			"magFilter":9729,
			"minFilter":9987
		}
	],
	"buffers":[
		{
			"byteLength":300596,
			"uri":"hell_hound.bin"
		}
	]
}
