{
	"asset":{
		"generator":"Khronos glTF Blender I/O v5.0.21",
		"version":"2.0"
	},
	"scene":0,
	"scenes":[
		{
			"name":"Scene",
			"nodes":[
				0
			]
		}
	],
	"nodes":[
		{
			"mesh":0,
			"name":"imp",
			"translation":[
				0,
				-0.5,
				0
			]
		}
	],
	"materials":[
		{
			"doubleSided":true,
			"name":"lowpoly_tex.007",
			"pbrMetallicRoughness":{
				"baseColorTexture":{
					"index":0
				},
				"metallicFactor":0,
				"roughnessFactor":0.8999999761581421
			}
		}
	],
	"meshes":[
		{
			"name":"geometry_0.007",
			"primitives":[
				{
					"attributes":{
						"POSITION":0,
						"NORMAL":1,
						"TEXCOORD_0":2
					},
					"indices":3,
					"material":0
				}
			]
		}
	],
	"textures":[
		{
			"sampler":0,
			"source":0
		}
	],
	"images":[
		{
			"mimeType":"image/png",
			"name":"imp_albedo",
			"uri":"imp_albedo.png"
		}
	],
	"accessors":[
		{
			"bufferView":0,
			"componentType":5126,
			"count":5910,
			"max":[
				0.4899745583534241,
				1,
				0.2039640098810196
			],
			"min":[
				-0.4899745583534241,
				0,
				-0.2039640098810196
			],
			"type":"VEC3"
		},
		{
			"bufferView":1,
			"componentType":5126,
			"count":5910,
			"type":"VEC3"
		},
		{
			"bufferView":2,
			"componentType":5126,
			"count":5910,
			"type":"VEC2"
		},
		{
			"bufferView":3,
			"componentType":5123,
			"count":5910,
			"type":"SCALAR"
		}
	],
	"bufferViews":[
		{
			"buffer":0,
			"byteLength":70920,
			"byteOffset":0,
			"target":34962
		},
		{
			"buffer":0,
			"byteLength":70920,
			"byteOffset":70920,
			"target":34962
		},
		{
			"buffer":0,
			"byteLength":47280,
			"byteOffset":141840,
			"target":34962
		},
		{
			"buffer":0,
			"byteLength":11820,
			"byteOffset":189120,
			"target":34963
		}
	],
	"samplers":[
		{
			"magFilter":9729,
			"minFilter":9987
		}
	],
	"buffers":[
		{
			"byteLength":200940,
			"uri":"imp.bin"
		}
	]
}
