{
	"asset":{
		"generator":"Khronos glTF Blender I/O v5.0.21",
		"version":"2.0"
	},
	"scene":0,
	"scenes":[
		{
			"name":"Scene",
			"nodes":[
				0
			]
		}
	],
	"nodes":[
		{
			"mesh":0,
			"name":"lich_king",
			"translation":[
				0,
				-0.4999999701976776,
				0
			]
		}
	],
	"materials":[
		{
			"doubleSided":true,
			"name":"lowpoly_tex.008",
			"pbrMetallicRoughness":{
				"baseColorTexture":{
					"index":0
				},
				"metallicFactor":0,
				"roughnessFactor":0.8999999761581421
			}
		}
	],
	"meshes":[
		{
			"name":"geometry_0.008",
			"primitives":[
				{
					"attributes":{
						"POSITION":0,
						"NORMAL":1,
						"TEXCOORD_0":2
					},
					"indices":3,
					"material":0
				}
			]
		}
	],
	"textures":[
		{
			"sampler":0,
			"source":0
		}
	],
	"images":[
		{
			"mimeType":"image/png",
			"name":"lich_king_albedo",
			"uri":"lich_king_albedo.png"
		}
	],
	"accessors":[
		{
			"bufferView":0,
			"componentType":5126,
			"count":10933,
			"max":[
				0.436531126499176,
				0.9999999403953552,
				0.16764585673809052
			],
			"min":[
				-0.436531126499176,
				0,
				-0.16764585673809052
			],
			"type":"VEC3"
		},
		{
			"bufferView":1,
			"componentType":5126,
			"count":10933,
			"type":"VEC3"
		},
		{
			"bufferView":2,
			"componentType":5126,
			"count":10933,
			"type":"VEC2"
		},
		{
			"bufferView":3,
			"componentType":5123,
			"count":10935,
			"type":"SCALAR"
		}
	],
	"bufferViews":[
		{
			"buffer":0,
			"byteLength":131196,
			"byteOffset":0,
			"target":34962
		},
		{
			"buffer":0,
			"byteLength":131196,
			"byteOffset":131196,
			"target":34962
		},
		{
			"buffer":0,
			"byteLength":87464,
			"byteOffset":262392,
			"target":34962
		},
		{
			"buffer":0,
			"byteLength":21870,
			"byteOffset":349856,
			"target":34963
		}
	],
	"samplers":[
		{
			"magFilter":9729,
			"minFilter":9987
		}
	],
	"buffers":[
		{
			"byteLength":371728,
			"uri":"lich_king.bin"
		}
	]
}
