{
	"asset":{
		"generator":"Khronos glTF Blender I/O v5.0.21",
		"version":"2.0"
	},
	"scene":0,
	"scenes":[
		{
			"name":"Scene",
			"nodes":[
				0
			]
		}
	],
	"nodes":[
		{
			"mesh":0,
			"name":"necromancer",
			"translation":[
				0,
				-0.5,
				0
			]
		}
	],
	"materials":[
		{
			"doubleSided":true,
			"name":"lowpoly_tex.009",
			"pbrMetallicRoughness":{
				"baseColorTexture":{
					"index":0
				},
				"metallicFactor":0,
				"roughnessFactor":0.8999999761581421
			}
		}
	],
	"meshes":[
		{
			"name":"geometry_0.009",
			"primitives":[
				{
					"attributes":{
						"POSITION":0,
						"NORMAL":1,
						"TEXCOORD_0":2
					},
					"indices":3,
					"material":0
				}
			]
		}
	],
	"textures":[
		{
			"sampler":0,
			"source":0
		}
	],
	"images":[
		{
			"mimeType":"image/png",
			"name":"necromancer_albedo",
			"uri":"necromancer_albedo.png"
		}
	],
	"accessors":[
		{
			"bufferView":0,
			"componentType":5126,
			"count":8946,
			"max":[
				0.4867766797542572,
				1,
				0.12332221865653992
			],
			"min":[
				-0.4867766797542572,
				0,
				-0.12332221865653992
			],
			"type":"VEC3"
		},
		{
			"bufferView":1,
			"componentType":5126,
			"count":8946,
			"type":"VEC3"
		},
		{
			"bufferView":2,
			"componentType":5126,
			"count":8946,
			"type":"VEC2"
		},
		{
			"bufferView":3,
			"componentType":5123,
			"count":8946,
			"type":"SCALAR"
		}
	],
	"bufferViews":[
		{
			"buffer":0,
			"byteLength":107352,
			"byteOffset":0,
			"target":34962
		},
		{
			"buffer":0,
			"byteLength":107352,
			"byteOffset":107352,
			"target":34962
		},
		{
			"buffer":0,
			"byteLength":71568,
			"byteOffset":214704,
			"target":34962
		},
		{
			"buffer":0,
			"byteLength":17892,
			"byteOffset":286272,
			"target":34963
		}
	],
	"samplers":[
		{
			"magFilter":9729,
			"minFilter":9987
		}
	],
	"buffers":[
		{
			"byteLength":304164,
			"uri":"necromancer.bin"
		}
	]
}
