{
	"asset":{
		"generator":"Khronos glTF Blender I/O v5.0.21",
		"version":"2.0"
	},
	"scene":0,
	"scenes":[
		{
			"name":"Scene",
			"nodes":[
				0
			]
		}
	],
	"nodes":[
		{
			"mesh":0,
			"name":"plague_zombie",
			"translation":[
				0,
				-0.4816005229949951,
				0
			]
		}
	],
	"materials":[
		{
			"doubleSided":true,
			"name":"lowpoly_tex.010",
			"pbrMetallicRoughness":{
				"baseColorTexture":{
					"index":0
				},
				"metallicFactor":0,
				"roughnessFactor":0.8999999761581421
			}
		}
	],
	"meshes":[
		{
			"name":"geometry_0.010",
			"primitives":[
				{
					"attributes":{
						"POSITION":0,
						"NORMAL":1,
						"TEXCOORD_0":2
					},
					"indices":3,
					"material":0
				}
			]
		}
	],
	"textures":[
		{
			"sampler":0,
			"source":0
		}
	],
	"images":[
		{
			"mimeType":"image/png",
			"name":"plague_zombie_albedo",
			"uri":"plague_zombie_albedo.png"
		}
	],
	"accessors":[
		{
			"bufferView":0,
			"componentType":5126,
			"count":8862,
			"max":[
				0.5,
				0.9632010459899902,
				0.09358252584934235
			],
			"min":[
				-0.5,
				0,
				-0.09358252584934235
			],
			"type":"VEC3"
		},
		{
			"bufferView":1,
			"componentType":5126,
			"count":8862,
			"type":"VEC3"
		},
		{
			"bufferView":2,
			"componentType":5126,
			"count":8862,
			"type":"VEC2"
		},
		{
			"bufferView":3,
			"componentType":5123,
			"count":8862,
			"type":"SCALAR"
		}
	],
	"bufferViews":[
		{
			"buffer":0,
			"byteLength":106344,
			"byteOffset":0,
			"target":34962
		},
		{
			"buffer":0,
			"byteLength":106344,
			"byteOffset":106344,
			"target":34962
		},
		{
			"buffer":0,
			"byteLength":70896,
			"byteOffset":212688,
			"target":34962
		},
		{
			"buffer":0,
			"byteLength":17724,
			"byteOffset":283584,
			"target":34963
		}
	],
	"samplers":[
		{
			"magFilter":9729,
			"minFilter":9987
		}
	],
	"buffers":[
		{
			"byteLength":301308,
			"uri":"plague_zombie.bin"
		}
	]
}
