{
	"asset":{
		"generator":"Khronos glTF Blender I/O v5.0.21",
		"version":"2.0"
	},
	"scene":0,
	"scenes":[
		{
			"name":"Scene",
			"nodes":[
				0
			]
		}
	],
	"nodes":[
		{
			"mesh":0,
			"name":"revenant_knight",
			"translation":[
				0,
				-0.4873983860015869,
				0
			]
		}
	],
	"materials":[
		{
			"doubleSided":true,
			"name":"lowpoly_tex.011",
			"pbrMetallicRoughness":{
				"baseColorTexture":{
					"index":0
				},
				"metallicFactor":0,
				"roughnessFactor":0.8999999761581421
			}
		}
	],
	"meshes":[
		{
			"name":"geometry_0.011",
			"primitives":[
				{
					"attributes":{
						"POSITION":0,
						"NORMAL":1,
						"TEXCOORD_0":2
					},
					"indices":3,
					"material":0
				}
			]
		}
	],
	"textures":[
		{
			"sampler":0,
			"source":0
		}
	],
	"images":[
		{
			"mimeType":"image/png",
			"name":"revenant_knight_albedo",
			"uri":"revenant_knight_albedo.png"
		}
	],
	"accessors":[
		{
			"bufferView":0,
			"componentType":5126,
			"count":10161,
			"max":[
				0.4999999701976776,
				0.9747967720031738,
				0.1224113404750824
			],
			"min":[
				-0.4999999701976776,
				0,
				-0.1224113404750824
			],
			"type":"VEC3"
		},
		{
			"bufferView":1,
			"componentType":5126,
			"count":10161,
			"type":"VEC3"
		},
		{
			"bufferView":2,
			"componentType":5126,
			"count":10161,
			"type":"VEC2"
		},
		{
			"bufferView":3,
			"componentType":5123,
			"count":10161,
			"type":"SCALAR"
		}
	],
	"bufferViews":[
		{
			"buffer":0,
			"byteLength":121932,
			"byteOffset":0,
			"target":34962
		},
		{
			"buffer":0,
			"byteLength":121932,
			"byteOffset":121932,
			"target":34962
		},
		{
			"buffer":0,
			"byteLength":81288,
			"byteOffset":243864,
			"target":34962
		},
		{
			"buffer":0,
			"byteLength":20322,
			"byteOffset":325152,
			"target":34963
		}
	],
	"samplers":[
		{
			"magFilter":9729,
			"minFilter":9987
		}
	],
	"buffers":[
		{
			"byteLength":345476,
			"uri":"revenant_knight.bin"
		}
	]
}
