{
	"asset":{
		"generator":"Khronos glTF Blender I/O v5.0.21",
		"version":"2.0"
	},
	"scene":0,
	"scenes":[
		{
			"name":"Scene",
			"nodes":[
				0
			]
		}
	],
	"nodes":[
		{
			"mesh":0,
			"name":"skeleton_warrior",
			"translation":[
				0,
				-0.48842743039131165,
				0
			]
		}
	],
	"materials":[
		{
			"doubleSided":true,
			"name":"lowpoly_tex.013",
			"pbrMetallicRoughness":{
				"baseColorTexture":{
					"index":0
				},
				"metallicFactor":0,
				"roughnessFactor":0.8999999761581421
			}
		}
	],
	"meshes":[
		{
			"name":"geometry_0.013",
			"primitives":[
				{
					"attributes":{
						"POSITION":0,
						"NORMAL":1,
						"TEXCOORD_0":2
					},
					"indices":3,
					"material":0
				}
			]
		}
	],
	"textures":[
		{
			"sampler":0,
			"source":0
		}
	],
	"images":[
		{
			"mimeType":"image/png",
			"name":"skeleton_warrior_albedo",
			"uri":"skeleton_warrior_albedo.png"
		}
	],
	"accessors":[
		{
			"bufferView":0,
			"componentType":5126,
			"count":8982,
			"max":[
				0.5,
				0.9768548607826233,
				0.12161261588335037
			],
			"min":[
				-0.5,
				0,
				-0.12161261588335037
			],
			"type":"VEC3"
		},
		{
			"bufferView":1,
			"componentType":5126,
			"count":8982,
			"type":"VEC3"
		},
		{
			"bufferView":2,
			"componentType":5126,
			"count":8982,
			"type":"VEC2"
		},
		{
			"bufferView":3,
			"componentType":5123,
			"count":8982,
			"type":"SCALAR"
		}
	],
	"bufferViews":[
		{
			"buffer":0,
			"byteLength":107784,
			"byteOffset":0,
			"target":34962
		},
		{
			"buffer":0,
			"byteLength":107784,
			"byteOffset":107784,
			"target":34962
		},
		{
			"buffer":0,
			"byteLength":71856,
			"byteOffset":215568,
			"target":34962
		},
		{
			"buffer":0,
			"byteLength":17964,
			"byteOffset":287424,
			"target":34963
		}
	],
	"samplers":[
		{
			"magFilter":9729,
			"minFilter":9987
		}
	],
	"buffers":[
		{
			"byteLength":305388,
			"uri":"skeleton_warrior.bin"
		}
	]
}
