{
	"asset":{
		"generator":"Khronos glTF Blender I/O v5.0.21",
		"version":"2.0"
	},
	"scene":0,
	"scenes":[
		{
			"name":"Scene",
			"nodes":[
				0
			]
		}
	],
	"nodes":[
		{
			"mesh":0,
			"name":"skeleton_mage",
			"translation":[
				0,
				-0.5,
				0
			]
		}
	],
	"materials":[
		{
			"doubleSided":true,
			"name":"lowpoly_tex.012",
			"pbrMetallicRoughness":{
				"baseColorTexture":{
					"index":0
				},
				"metallicFactor":0,
				"roughnessFactor":0.8999999761581421
			}
		}
	],
	"meshes":[
		{
			"name":"geometry_0.012",
			"primitives":[
				{
					"attributes":{
						"POSITION":0,
						"NORMAL":1,
						"TEXCOORD_0":2
					},
					"indices":3,
					"material":0
				}
			]
		}
	],
	"textures":[
		{
			"sampler":0,
			"source":0
		}
	],
	"images":[
		{
			"mimeType":"image/png",
			"name":"skeleton_mage_albedo",
			"uri":"skeleton_mage_albedo.png"
		}
	],
	"accessors":[
		{
			"bufferView":0,
			"componentType":5126,
			"count":8523,
			"max":[
				0.4270646572113037,
				1,
				0.18852898478507996
			],
			"min":[
				-0.4270646572113037,
				0,
				-0.18852898478507996
			],
			"type":"VEC3"
		},
		{
			"bufferView":1,
			"componentType":5126,
			"count":8523,
			"type":"VEC3"
		},
		{
			"bufferView":2,
			"componentType":5126,
			"count":8523,
			"type":"VEC2"
		},
		{
			"bufferView":3,
			"componentType":5123,
			"count":8523,
			"type":"SCALAR"
		}
	],
	"bufferViews":[
		{
			"buffer":0,
			"byteLength":102276,
			"byteOffset":0,
			"target":34962
		},
		{
			"buffer":0,
			"byteLength":102276,
			"byteOffset":102276,
			"target":34962
		},
		{
			"buffer":0,
			"byteLength":68184,
			"byteOffset":204552,
			"target":34962
		},
		{
			"buffer":0,
			"byteLength":17046,
			"byteOffset":272736,
			"target":34963
		}
	],
	"samplers":[
		{
			"magFilter":9729,
			"minFilter":9987
		}
	],
	"buffers":[
		{
			"byteLength":289784,
			"uri":"skeleton_mage.bin"
		}
	]
}
