{
	"asset":{
		"generator":"Khronos glTF Blender I/O v5.0.21",
		"version":"2.0"
	},
	"scene":0,
	"scenes":[
		{
			"name":"Scene",
			"nodes":[
				0
			]
		}
	],
	"nodes":[
		{
			"mesh":0,
			"name":"wraith",
			"translation":[
				0,
				-0.5,
				0
			]
		}
	],
	"materials":[
		{
			"doubleSided":true,
			"name":"lowpoly_tex.014",
			"pbrMetallicRoughness":{
				"baseColorTexture":{
					"index":0
				},
				"metallicFactor":0,
				"roughnessFactor":0.8999999761581421
			}
		}
	],
	"meshes":[
		{
			"name":"geometry_0.014",
			"primitives":[
				{
					"attributes":{
						"POSITION":0,
						"NORMAL":1,
						"TEXCOORD_0":2
					},
					"indices":3,
					"material":0
				}
			]
		}
	],
	"textures":[
		{
			"sampler":0,
			"source":0
		}
	],
	"images":[
		{
			"mimeType":"image/png",
			"name":"wraith_albedo",
			"uri":"wraith_albedo.png"
		}
	],
	"accessors":[
		{
			"bufferView":0,
			"componentType":5126,
			"count":7374,
			"max":[
				0.4211183786392212,
				1,
				0.24564442038536072
			],
			"min":[
				-0.4211183786392212,
				0,
				-0.24564442038536072
			],
			"type":"VEC3"
		},
		{
			"bufferView":1,
			"componentType":5126,
			"count":7374,
			"type":"VEC3"
		},
		{
			"bufferView":2,
			"componentType":5126,
			"count":7374,
			"type":"VEC2"
		},
		{
			"bufferView":3,
			"componentType":5123,
			"count":7374,
			"type":"SCALAR"
		}
	],
	"bufferViews":[
		{
			"buffer":0,
			"byteLength":88488,
			"byteOffset":0,
			"target":34962
		},
		{
			"buffer":0,
			"byteLength":88488,
			"byteOffset":88488,
			"target":34962
		},
		{
			"buffer":0,
			"byteLength":58992,
			"byteOffset":176976,
			"target":34962
		},
		{
			"buffer":0,
			"byteLength":14748,
			"byteOffset":235968,
			"target":34963
		}
	],
	"samplers":[
		{
			"magFilter":9729,
			"minFilter":9987
		}
	],
	"buffers":[
		{
			"byteLength":250716,
			"uri":"wraith.bin"
		}
	]
}
