{
	"asset":{
		"generator":"Khronos glTF Blender I/O v5.0.21",
		"version":"2.0"
	},
	"extensionsUsed":[
		"KHR_materials_emissive_strength"
	],
	"scene":0,
	"scenes":[
		{
			"name":"Scene",
			"nodes":[
				0
			]
		}
	],
	"nodes":[
		{
			"mesh":0,
			"name":"dark_scarecrow",
			"rotation":[
				0.026167983189225197,
				0.0261679794639349,
				-0.0006852328078821301,
				0.9993147850036621
			],
			"scale":[
				0.09000000357627869,
				1.4999998807907104,
				0.08999999612569809
			],
			"translation":[
				0,
				0.7200000286102295,
				0
			]
		}
	],
	"materials":[
		{
			"doubleSided":true,
			"emissiveFactor":[
				1,
				1,
				1
			],
			"emissiveTexture":{
				"index":0
			},
			"extensions":{
				"KHR_materials_emissive_strength":{
					"emissiveStrength":1.600000023841858
				}
			},
			"name":"kit_atlas_mat",
			"pbrMetallicRoughness":{
				"baseColorTexture":{
					"index":1
				},
				"metallicFactor":0,
				"roughnessFactor":0.8999999761581421
			}
		}
	],
	"meshes":[
		{
			"name":"Cube.074",
			"primitives":[
				{
					"attributes":{
						"POSITION":0,
						"NORMAL":1,
						"TEXCOORD_0":2
					},
					"indices":3,
					"material":0
				}
			]
		}
	],
	"textures":[
		{
			"sampler":0,
			"source":0
		},
		{
			"sampler":0,
			"source":1
		}
	],
	"images":[
		{
			"mimeType":"image/png",
			"name":"atlas_emit",
			"uri":"atlas_emit.png"
		},
		{
			"mimeType":"image/png",
			"name":"atlas_color",
			"uri":"atlas_color.png"
		}
	],
	"accessors":[
		{
			"bufferView":0,
			"componentType":5126,
			"count":916,
			"max":[
				6.551990509033203,
				0.6397665739059448,
				3.6255695819854736
			],
			"min":[
				-6.5302276611328125,
				-0.5,
				-3.771965980529785
			],
			"type":"VEC3"
		},
		{
			"bufferView":1,
			"componentType":5126,
			"count":916,
			"type":"VEC3"
		},
		{
			"bufferView":2,
			"componentType":5126,
			"count":916,
			"type":"VEC2"
		},
		{
			"bufferView":3,
			"componentType":5123,
			"count":1338,
			"type":"SCALAR"
		}
	],
	"bufferViews":[
		{
			"buffer":0,
			"byteLength":10992,
			"byteOffset":0,
			"target":34962
		},
		{
			"buffer":0,
			"byteLength":10992,
			"byteOffset":10992,
			"target":34962
		},
		{
			"buffer":0,
			"byteLength":7328,
			"byteOffset":21984,
			"target":34962
		},
		{
			"buffer":0,
			"byteLength":2676,
			"byteOffset":29312,
			"target":34963
		}
	],
	"samplers":[
		{
			"magFilter":9728,
			"minFilter":9984
		}
	],
	"buffers":[
		{
			"byteLength":31988,
			"uri":"dark_scarecrow.bin"
		}
	]
}
