{
	"asset":{
		"generator":"Khronos glTF Blender I/O v5.0.21",
		"version":"2.0"
	},
	"extensionsUsed":[
		"KHR_materials_emissive_strength"
	],
	"scene":0,
	"scenes":[
		{
			"name":"Scene",
			"nodes":[
				0
			]
		}
	],
	"nodes":[
		{
			"mesh":0,
			"name":"summoning_circle",
			"scale":[
				1.600000023841858,
				0.029999999329447746,
				1.600000023841858
			],
			"translation":[
				0,
				0.014999999664723873,
				0
			]
		}
	],
	"materials":[
		{
			"doubleSided":true,
			"emissiveFactor":[
				1,
				1,
				1
			],
			"emissiveTexture":{
				"index":0
			},
			"extensions":{
				"KHR_materials_emissive_strength":{
					"emissiveStrength":2.200000047683716
				}
			},
			"name":"kit_atlas_mat",
			"pbrMetallicRoughness":{
				"baseColorTexture":{
					"index":1
				},
				"metallicFactor":0,
				"roughnessFactor":0.8999999761581421
			}
		}
	],
	"meshes":[
		{
			"name":"Cube.224",
			"primitives":[
				{
					"attributes":{
						"POSITION":0,
						"NORMAL":1,
						"TEXCOORD_0":2
					},
					"indices":3,
					"material":0
				}
			]
		}
	],
	"textures":[
		{
			"sampler":0,
			"source":0
		},
		{
			"sampler":0,
			"source":1
		}
	],
	"images":[
		{
			"mimeType":"image/png",
			"name":"atlas_emit",
			"uri":"atlas_emit.png"
		},
		{
			"mimeType":"image/png",
			"name":"atlas_color",
			"uri":"atlas_color.png"
		}
	],
	"accessors":[
		{
			"bufferView":0,
			"componentType":5126,
			"count":1096,
			"max":[
				0.5,
				10.833333969116211,
				0.5
			],
			"min":[
				-0.5,
				-0.5,
				-0.5
			],
			"type":"VEC3"
		},
		{
			"bufferView":1,
			"componentType":5126,
			"count":1096,
			"type":"VEC3"
		},
		{
			"bufferView":2,
			"componentType":5126,
			"count":1096,
			"type":"VEC2"
		},
		{
			"bufferView":3,
			"componentType":5123,
			"count":1644,
			"type":"SCALAR"
		}
	],
	"bufferViews":[
		{
			"buffer":0,
			"byteLength":13152,
			"byteOffset":0,
			"target":34962
		},
		{
			"buffer":0,
			"byteLength":13152,
			"byteOffset":13152,
			"target":34962
		},
		{
			"buffer":0,
			"byteLength":8768,
			"byteOffset":26304,
			"target":34962
		},
		{
			"buffer":0,
			"byteLength":3288,
			"byteOffset":35072,
			"target":34963
		}
	],
	"samplers":[
		{
			"magFilter":9728,
			"minFilter":9984
		}
	],
	"buffers":[
		{
			"byteLength":38360,
			"uri":"summoning_circle.bin"
		}
	]
}
