{
	"asset":{
		"generator":"Khronos glTF Blender I/O v5.0.21",
		"version":"2.0"
	},
	"extensionsUsed":[
		"KHR_materials_emissive_strength"
	],
	"scene":0,
	"scenes":[
		{
			"name":"Scene",
			"nodes":[
				0
			]
		}
	],
	"nodes":[
		{
			"mesh":0,
			"name":"chapel",
			"scale":[
				1.440000057220459,
				0.20000000298023224,
				2.240000009536743
			],
			"translation":[
				0,
				0.10000000149011612,
				-0.5
			]
		}
	],
	"materials":[
		{
			"doubleSided":true,
			"emissiveFactor":[
				1,
				1,
				1
			],
			"emissiveTexture":{
				"index":0
			},
			"extensions":{
				"KHR_materials_emissive_strength":{
					"emissiveStrength":2.200000047683716
				}
			},
			"name":"kit_atlas_mat",
			"pbrMetallicRoughness":{
				"baseColorTexture":{
					"index":1
				},
				"metallicFactor":0,
				"roughnessFactor":0.8999999761581421
			}
		}
	],
	"meshes":[
		{
			"name":"Cube.134",
			"primitives":[
				{
					"attributes":{
						"POSITION":0,
						"NORMAL":1,
						"TEXCOORD_0":2
					},
					"indices":3,
					"material":0
				}
			]
		}
	],
	"textures":[
		{
			"sampler":0,
			"source":0
		},
		{
			"sampler":0,
			"source":1
		}
	],
	"images":[
		{
			"mimeType":"image/png",
			"name":"atlas_emit",
			"uri":"atlas_emit.png"
		},
		{
			"mimeType":"image/png",
			"name":"atlas_color",
			"uri":"atlas_color.png"
		}
	],
	"accessors":[
		{
			"bufferView":0,
			"componentType":5126,
			"count":1570,
			"max":[
				0.5208332538604736,
				24.799997329711914,
				0.8683035373687744
			],
			"min":[
				-0.5208332538604736,
				-0.5,
				-0.5133928060531616
			],
			"type":"VEC3"
		},
		{
			"bufferView":1,
			"componentType":5126,
			"count":1570,
			"type":"VEC3"
		},
		{
			"bufferView":2,
			"componentType":5126,
			"count":1570,
			"type":"VEC2"
		},
		{
			"bufferView":3,
			"componentType":5123,
			"count":2358,
			"type":"SCALAR"
		}
	],
	"bufferViews":[
		{
			"buffer":0,
			"byteLength":18840,
			"byteOffset":0,
			"target":34962
		},
		{
			"buffer":0,
			"byteLength":18840,
			"byteOffset":18840,
			"target":34962
		},
		{
			"buffer":0,
			"byteLength":12560,
			"byteOffset":37680,
			"target":34962
		},
		{
			"buffer":0,
			"byteLength":4716,
			"byteOffset":50240,
			"target":34963
		}
	],
	"samplers":[
		{
			"magFilter":9728,
			"minFilter":9984
		}
	],
	"buffers":[
		{
			"byteLength":54956,
			"uri":"chapel.bin"
		}
	]
}
