{
	"asset":{
		"generator":"Khronos glTF Blender I/O v5.0.21",
		"version":"2.0"
	},
	"extensionsUsed":[
		"KHR_materials_emissive_strength"
	],
	"scene":0,
	"scenes":[
		{
			"name":"Scene",
			"nodes":[
				0
			]
		}
	],
	"nodes":[
		{
			"mesh":0,
			"name":"cottage",
			"rotation":[
				0.021811561658978462,
				0.01744825392961502,
				-0.0003807221946772188,
				0.9996097683906555
			],
			"scale":[
				1.2999999523162842,
				0.24000000953674316,
				1.100000023841858
			],
			"translation":[
				0,
				0.11999999731779099,
				0
			]
		}
	],
	"materials":[
		{
			"doubleSided":true,
			"emissiveFactor":[
				1,
				1,
				1
			],
			"emissiveTexture":{
				"index":0
			},
			"extensions":{
				"KHR_materials_emissive_strength":{
					"emissiveStrength":2.200000047683716
				}
			},
			"name":"kit_atlas_mat",
			"pbrMetallicRoughness":{
				"baseColorTexture":{
					"index":1
				},
				"metallicFactor":0,
				"roughnessFactor":0.8999999761581421
			}
		}
	],
	"meshes":[
		{
			"name":"Cube.038",
			"primitives":[
				{
					"attributes":{
						"POSITION":0,
						"NORMAL":1,
						"TEXCOORD_0":2
					},
					"indices":3,
					"material":0
				}
			]
		}
	],
	"textures":[
		{
			"sampler":0,
			"source":0
		},
		{
			"sampler":0,
			"source":1
		}
	],
	"images":[
		{
			"mimeType":"image/png",
			"name":"atlas_emit",
			"uri":"atlas_emit.png"
		},
		{
			"mimeType":"image/png",
			"name":"atlas_color",
			"uri":"atlas_color.png"
		}
	],
	"accessors":[
		{
			"bufferView":0,
			"componentType":5126,
			"count":762,
			"max":[
				0.569230854511261,
				7.333333969116211,
				1.0405871868133545
			],
			"min":[
				-0.569230854511261,
				-0.5,
				-0.800000011920929
			],
			"type":"VEC3"
		},
		{
			"bufferView":1,
			"componentType":5126,
			"count":762,
			"type":"VEC3"
		},
		{
			"bufferView":2,
			"componentType":5126,
			"count":762,
			"type":"VEC2"
		},
		{
			"bufferView":3,
			"componentType":5123,
			"count":1140,
			"type":"SCALAR"
		}
	],
	"bufferViews":[
		{
			"buffer":0,
			"byteLength":9144,
			"byteOffset":0,
			"target":34962
		},
		{
			"buffer":0,
			"byteLength":9144,
			"byteOffset":9144,
			"target":34962
		},
		{
			"buffer":0,
			"byteLength":6096,
			"byteOffset":18288,
			"target":34962
		},
		{
			"buffer":0,
			"byteLength":2280,
			"byteOffset":24384,
			"target":34963
		}
	],
	"samplers":[
		{
			"magFilter":9728,
			"minFilter":9984
		}
	],
	"buffers":[
		{
			"byteLength":26664,
			"uri":"cottage.bin"
		}
	]
}
