# Blender 5.0.1
# www.blender.org
mtllib bone_pile.mtl
o bone_pile
v -0.180000 0.020000 0.000000
v -0.078696 0.097390 0.073601
v -0.218694 0.097390 0.119090
v -0.305220 0.097390 0.000000
v -0.218694 0.097390 -0.119090
v -0.078696 0.097390 -0.073601
v -0.141306 0.222610 0.119090
v -0.281304 0.222610 0.073601
v -0.281304 0.222610 -0.073601
v -0.141306 0.222610 -0.119090
v -0.054781 0.222610 0.000000
v -0.180000 0.300000 0.000000
v -0.285000 0.002500 0.105000
v -0.285000 0.163500 0.105000
v -0.285000 0.002500 -0.035000
v -0.285000 0.163500 -0.035000
v -0.075000 0.002500 0.105000
v -0.075000 0.163500 0.105000
v -0.075000 0.002500 -0.035000
v -0.075000 0.163500 -0.035000
v -0.264000 -0.022000 0.115500
v -0.264000 0.048000 0.115500
v -0.264000 -0.022000 -0.003500
v -0.264000 0.048000 -0.003500
v -0.096000 -0.022000 0.115500
v -0.096000 0.048000 0.115500
v -0.096000 -0.022000 -0.003500
v -0.096000 0.048000 -0.003500
v -0.268200 0.092800 0.138600
v -0.268200 0.148800 0.138600
v -0.268200 0.092800 0.079800
v -0.268200 0.148800 0.079800
v -0.209400 0.092800 0.138600
v -0.209400 0.148800 0.138600
v -0.209400 0.092800 0.079800
v -0.209400 0.148800 0.079800
v -0.150600 0.092800 0.138600
v -0.150600 0.148800 0.138600
v -0.150600 0.092800 0.079800
v -0.150600 0.148800 0.079800
v -0.091800 0.092800 0.138600
v -0.091800 0.148800 0.138600
v -0.091800 0.092800 0.079800
v -0.091800 0.148800 0.079800
v -0.196800 0.045200 0.138600
v -0.196800 0.090000 0.138600
v -0.196800 0.045200 0.091000
v -0.196800 0.090000 0.091000
v -0.163200 0.045200 0.138600
v -0.163200 0.090000 0.138600
v -0.163200 0.045200 0.091000
v -0.163200 0.090000 0.091000
v -0.246500 -0.015000 0.126000
v -0.246500 0.041000 0.126000
v -0.246500 -0.015000 0.098000
v -0.246500 0.041000 0.098000
v -0.239500 -0.015000 0.126000
v -0.239500 0.041000 0.126000
v -0.239500 -0.015000 0.098000
v -0.239500 0.041000 0.098000
v -0.204500 -0.015000 0.126000
v -0.204500 0.041000 0.126000
v -0.204500 -0.015000 0.098000
v -0.204500 0.041000 0.098000
v -0.197500 -0.015000 0.126000
v -0.197500 0.041000 0.126000
v -0.197500 -0.015000 0.098000
v -0.197500 0.041000 0.098000
v -0.162500 -0.015000 0.126000
v -0.162500 0.041000 0.126000
v -0.162500 -0.015000 0.098000
v -0.162500 0.041000 0.098000
v -0.155500 -0.015000 0.126000
v -0.155500 0.041000 0.126000
v -0.155500 -0.015000 0.098000
v -0.155500 0.041000 0.098000
v -0.120500 -0.015000 0.126000
v -0.120500 0.041000 0.126000
v -0.120500 -0.015000 0.098000
v -0.120500 0.041000 0.098000
v -0.113500 -0.015000 0.126000
v -0.113500 0.041000 0.126000
v -0.113500 -0.015000 0.098000
v -0.113500 0.041000 0.098000
v 0.200000 0.040000 -0.120000
v 0.286832 0.106334 -0.056914
v 0.166834 0.106334 -0.017923
v 0.092669 0.106334 -0.120000
v 0.166834 0.106334 -0.222077
v 0.286832 0.106334 -0.183086
v 0.233166 0.213666 -0.017923
v 0.113168 0.213666 -0.056914
v 0.113168 0.213666 -0.183086
v 0.233166 0.213666 -0.222077
v 0.307331 0.213666 -0.120000
v 0.200000 0.280000 -0.120000
v 0.110000 0.025000 -0.030000
v 0.110000 0.163000 -0.030000
v 0.110000 0.025000 -0.150000
v 0.110000 0.163000 -0.150000
v 0.290000 0.025000 -0.030000
v 0.290000 0.163000 -0.030000
v 0.290000 0.025000 -0.150000
v 0.290000 0.163000 -0.150000
v 0.128000 0.004000 -0.021000
v 0.128000 0.064000 -0.021000
v 0.128000 0.004000 -0.123000
v 0.128000 0.064000 -0.123000
v 0.272000 0.004000 -0.021000
v 0.272000 0.064000 -0.021000
v 0.272000 0.004000 -0.123000
v 0.272000 0.064000 -0.123000
v 0.124400 0.102400 -0.001200
v 0.124400 0.150400 -0.001200
v 0.124400 0.102400 -0.051600
v 0.124400 0.150400 -0.051600
v 0.174800 0.102400 -0.001200
v 0.174800 0.150400 -0.001200
v 0.174800 0.102400 -0.051600
v 0.174800 0.150400 -0.051600
v 0.225200 0.102400 -0.001200
v 0.225200 0.150400 -0.001200
v 0.225200 0.102400 -0.051600
v 0.225200 0.150400 -0.051600
v 0.275600 0.102400 -0.001200
v 0.275600 0.150400 -0.001200
v 0.275600 0.102400 -0.051600
v 0.275600 0.150400 -0.051600
v 0.185600 0.061600 -0.001200
v 0.185600 0.100000 -0.001200
v 0.185600 0.061600 -0.042000
v 0.185600 0.100000 -0.042000
v 0.214400 0.061600 -0.001200
v 0.214400 0.100000 -0.001200
v 0.214400 0.061600 -0.042000
v 0.214400 0.100000 -0.042000
v 0.143000 0.010000 -0.012000
v 0.143000 0.058000 -0.012000
v 0.143000 0.010000 -0.036000
v 0.143000 0.058000 -0.036000
v 0.149000 0.010000 -0.012000
v 0.149000 0.058000 -0.012000
v 0.149000 0.010000 -0.036000
v 0.149000 0.058000 -0.036000
v 0.179000 0.010000 -0.012000
v 0.179000 0.058000 -0.012000
v 0.179000 0.010000 -0.036000
v 0.179000 0.058000 -0.036000
v 0.185000 0.010000 -0.012000
v 0.185000 0.058000 -0.012000
v 0.185000 0.010000 -0.036000
v 0.185000 0.058000 -0.036000
v 0.215000 0.010000 -0.012000
v 0.215000 0.058000 -0.012000
v 0.215000 0.010000 -0.036000
v 0.215000 0.058000 -0.036000
v 0.221000 0.010000 -0.012000
v 0.221000 0.058000 -0.012000
v 0.221000 0.010000 -0.036000
v 0.221000 0.058000 -0.036000
v 0.251000 0.010000 -0.012000
v 0.251000 0.058000 -0.012000
v 0.251000 0.010000 -0.036000
v 0.251000 0.058000 -0.036000
v 0.257000 0.010000 -0.012000
v 0.257000 0.058000 -0.012000
v 0.257000 0.010000 -0.036000
v 0.257000 0.058000 -0.036000
v 0.020000 0.250000 0.160000
v 0.099596 0.310806 0.217829
v -0.010402 0.310806 0.253570
v -0.078387 0.310806 0.160000
v -0.010402 0.310806 0.066430
v 0.099596 0.310806 0.102171
v 0.050402 0.409194 0.253570
v -0.059596 0.409194 0.217829
v -0.059596 0.409194 0.102171
v 0.050402 0.409194 0.066430
v 0.118387 0.409194 0.160000
v 0.020000 0.470000 0.160000
v -0.062500 0.236250 0.242500
v -0.062500 0.362750 0.242500
v -0.062500 0.236250 0.132500
v -0.062500 0.362750 0.132500
v 0.102500 0.236250 0.242500
v 0.102500 0.362750 0.242500
v 0.102500 0.236250 0.132500
v 0.102500 0.362750 0.132500
v -0.046000 0.217000 0.250750
v -0.046000 0.272000 0.250750
v -0.046000 0.217000 0.157250
v -0.046000 0.272000 0.157250
v 0.086000 0.217000 0.250750
v 0.086000 0.272000 0.250750
v 0.086000 0.217000 0.157250
v 0.086000 0.272000 0.157250
v -0.049300 0.307200 0.268900
v -0.049300 0.351200 0.268900
v -0.049300 0.307200 0.222700
v -0.049300 0.351200 0.222700
v -0.003100 0.307200 0.268900
v -0.003100 0.351200 0.268900
v -0.003100 0.307200 0.222700
v -0.003100 0.351200 0.222700
v 0.043100 0.307200 0.268900
v 0.043100 0.351200 0.268900
v 0.043100 0.307200 0.222700
v 0.043100 0.351200 0.222700
v 0.089300 0.307200 0.268900
v 0.089300 0.351200 0.268900
v 0.089300 0.307200 0.222700
v 0.089300 0.351200 0.222700
v 0.006800 0.269800 0.268900
v 0.006800 0.305000 0.268900
v 0.006800 0.269800 0.231500
v 0.006800 0.305000 0.231500
v 0.033200 0.269800 0.268900
v 0.033200 0.305000 0.268900
v 0.033200 0.269800 0.231500
v 0.033200 0.305000 0.231500
v -0.032250 0.222500 0.259000
v -0.032250 0.266500 0.259000
v -0.032250 0.222500 0.237000
v -0.032250 0.266500 0.237000
v -0.026750 0.222500 0.259000
v -0.026750 0.266500 0.259000
v -0.026750 0.222500 0.237000
v -0.026750 0.266500 0.237000
v 0.000750 0.222500 0.259000
v 0.000750 0.266500 0.259000
v 0.000750 0.222500 0.237000
v 0.000750 0.266500 0.237000
v 0.006250 0.222500 0.259000
v 0.006250 0.266500 0.259000
v 0.006250 0.222500 0.237000
v 0.006250 0.266500 0.237000
v 0.033750 0.222500 0.259000
v 0.033750 0.266500 0.259000
v 0.033750 0.222500 0.237000
v 0.033750 0.266500 0.237000
v 0.039250 0.222500 0.259000
v 0.039250 0.266500 0.259000
v 0.039250 0.222500 0.237000
v 0.039250 0.266500 0.237000
v 0.066750 0.222500 0.259000
v 0.066750 0.266500 0.259000
v 0.066750 0.222500 0.237000
v 0.066750 0.266500 0.237000
v 0.072250 0.222500 0.259000
v 0.072250 0.266500 0.259000
v 0.072250 0.222500 0.237000
v 0.072250 0.266500 0.237000
v -0.509797 -0.132132 -0.092985
v -0.116426 0.292132 -0.251917
v -0.483369 -0.153565 -0.084789
v -0.089998 0.270699 -0.243721
v -0.470257 -0.153565 -0.052337
v -0.076887 0.270699 -0.211269
v -0.483574 -0.132132 -0.028083
v -0.090203 0.292132 -0.187015
v -0.510002 -0.110699 -0.036279
v -0.116631 0.313565 -0.195211
v -0.523113 -0.110699 -0.068731
v -0.129743 0.313565 -0.227663
v 0.414289 -0.174414 -0.012005
v 0.119489 0.334414 0.107102
v 0.444678 -0.158352 -0.005408
v 0.149878 0.350477 0.113698
v 0.457789 -0.158352 0.027043
v 0.162989 0.350477 0.146150
v 0.440511 -0.174414 0.052898
v 0.145711 0.334414 0.172005
v 0.410122 -0.190477 0.046302
v 0.115323 0.318352 0.165408
v 0.397011 -0.190477 0.013850
v 0.102211 0.318352 0.132957
v -0.070943 -0.213444 -0.249086
v 0.044720 0.373444 -0.295817
v -0.036898 -0.219746 -0.243967
v 0.078766 0.367142 -0.290698
v -0.023786 -0.219746 -0.211515
v 0.091877 0.367142 -0.258246
v -0.044720 -0.213444 -0.184183
v 0.070943 0.373444 -0.230914
v -0.078766 -0.207142 -0.189302
v 0.036898 0.379746 -0.236033
v -0.091877 -0.207142 -0.221754
v 0.023786 0.379746 -0.268485
v -0.354492 -0.022606 0.113153
v 0.168269 0.182606 -0.098056
v -0.338324 -0.051089 0.125495
v 0.184437 0.154123 -0.085714
v -0.325213 -0.051089 0.157947
v 0.197548 0.154123 -0.053262
v -0.328269 -0.022606 0.178056
v 0.194492 0.182606 -0.033153
v -0.344437 0.005877 0.165714
v 0.178324 0.211089 -0.045495
v -0.357548 0.005877 0.133262
v 0.165213 0.211089 -0.077947
vn 0.1876 -0.7947 0.5774
vn 0.6071 -0.7947 -0.0000
vn -0.4911 -0.7947 0.3568
vn -0.4911 -0.7947 -0.3568
vn 0.1876 -0.7947 -0.5774
vn 0.9822 -0.1876 -0.0000
vn 0.3035 -0.1876 0.9342
vn -0.7946 -0.1876 0.5774
vn -0.7946 -0.1876 -0.5774
vn 0.3035 -0.1876 -0.9342
vn 0.7946 0.1876 0.5774
vn -0.3035 0.1876 0.9342
vn -0.9822 0.1876 -0.0000
vn -0.3035 0.1876 -0.9342
vn 0.7946 0.1876 -0.5774
vn 0.4911 0.7947 0.3568
vn -0.1876 0.7947 0.5774
vn -0.6071 0.7947 -0.0000
vn -0.1876 0.7947 -0.5774
vn 0.4911 0.7947 -0.3568
vn -1.0000 -0.0000 -0.0000
vn -0.0000 -0.0000 -1.0000
vn 1.0000 -0.0000 -0.0000
vn -0.0000 -0.0000 1.0000
vn -0.0000 -1.0000 -0.0000
vn -0.0000 1.0000 -0.0000
vn 0.0034 -0.3536 -0.9354
vn 0.6556 -0.7071 -0.2649
vn 0.6522 -0.3536 0.6705
vn -0.0034 0.3536 0.9354
vn 0.6556 0.7071 -0.2649
vn -0.6556 0.7071 0.2649
vn -0.6522 0.3536 -0.6705
vn -0.6556 -0.7071 0.2649
vn 0.0687 0.2650 -0.9618
vn 0.7863 0.5299 -0.3177
vn 0.7176 0.2650 0.6441
vn -0.0687 -0.2650 0.9618
vn -0.4913 0.8480 0.1985
vn -0.7863 -0.5299 0.3177
vn -0.7176 -0.2650 -0.6441
vn 0.4913 -0.8480 -0.1985
vn 0.1290 -0.1040 -0.9862
vn 0.9069 -0.2079 -0.3664
vn 0.7779 -0.1040 0.6198
vn -0.1290 0.1040 0.9862
vn 0.1928 0.9781 -0.0779
vn -0.9069 0.2079 0.3664
vn -0.7779 0.1040 -0.6198
vn -0.1928 -0.9781 0.0779
vn -0.1659 -0.4698 -0.8670
vn 0.3171 -0.9397 -0.1281
vn 0.4830 -0.4698 0.7389
vn 0.1659 0.4698 0.8670
vn 0.8713 0.3420 -0.3520
vn -0.3171 0.9397 0.1281
vn -0.4830 0.4698 -0.7389
vn -0.8713 -0.3420 0.3520
vt 0.181819 0.000000
vt 0.272728 0.157461
vt 0.090910 0.157461
vt 0.363637 0.000000
vt 0.454546 0.157461
vt 0.909091 0.000000
vt 1.000000 0.157461
vt 0.818182 0.157461
vt 0.727273 0.000000
vt 0.636364 0.157461
vt 0.545455 0.000000
vt 0.363637 0.314921
vt 0.181819 0.314921
vt 0.909091 0.314921
vt 0.727273 0.314921
vt 0.545455 0.314921
vt 0.000000 0.314921
vt 0.272728 0.472382
vt 0.090910 0.472382
vt 0.818182 0.472382
vt 0.636364 0.472382
vt 0.454546 0.472382
vt 0.375000 0.000000
vt 0.625000 0.000000
vt 0.625000 0.250000
vt 0.375000 0.250000
vt 0.625000 0.500000
vt 0.375000 0.500000
vt 0.625000 0.750000
vt 0.375000 0.750000
vt 0.625000 1.000000
vt 0.375000 1.000000
vt 0.125000 0.500000
vt 0.125000 0.750000
vt 0.875000 0.500000
vt 0.875000 0.750000
vt 1.000000 0.500000
vt 1.000000 1.000000
vt 0.833333 1.000000
vt 0.833333 0.500000
vt 0.666667 1.000000
vt 0.666667 0.500000
vt 0.500000 1.000000
vt 0.500000 0.500000
vt 0.333333 1.000000
vt 0.333333 0.500000
vt 0.457846 0.370000
vt 0.250000 0.490000
vt 0.042154 0.370000
vt 0.042154 0.130000
vt 0.250000 0.010000
vt 0.457846 0.130000
vt 0.166667 1.000000
vt 0.166667 0.500000
vt -0.000000 1.000000
vt -0.000000 0.500000
vt 0.750000 0.490000
vt 0.957846 0.370000
vt 0.957846 0.130000
vt 0.750000 0.010000
vt 0.542154 0.130000
vt 0.542154 0.370000
s 0
usemtl bone
f 1/1/1 2/2/1 3/3/1
f 2/2/2 1/4/2 6/5/2
f 1/6/3 3/7/3 4/8/3
f 1/9/4 4/8/4 5/10/4
f 1/11/5 5/10/5 6/5/5
f 2/2/6 6/5/6 11/12/6
f 3/3/7 2/2/7 7/13/7
f 4/8/8 3/7/8 8/14/8
f 5/10/9 4/8/9 9/15/9
f 6/5/10 5/10/10 10/16/10
f 2/2/11 11/12/11 7/13/11
f 3/3/12 7/13/12 8/17/12
f 4/8/13 8/14/13 9/15/13
f 5/10/14 9/15/14 10/16/14
f 6/5/15 10/16/15 11/12/15
f 7/13/16 11/12/16 12/18/16
f 8/17/17 7/13/17 12/19/17
f 9/15/18 8/14/18 12/20/18
f 10/16/19 9/15/19 12/21/19
f 11/12/20 10/16/20 12/22/20
f 13/23/21 14/24/21 16/25/21 15/26/21
f 15/26/22 16/25/22 20/27/22 19/28/22
f 19/28/23 20/27/23 18/29/23 17/30/23
f 17/30/24 18/29/24 14/31/24 13/32/24
f 15/33/25 19/28/25 17/30/25 13/34/25
f 20/27/26 16/35/26 14/36/26 18/29/26
f 21/23/21 22/24/21 24/25/21 23/26/21
f 23/26/22 24/25/22 28/27/22 27/28/22
f 27/28/23 28/27/23 26/29/23 25/30/23
f 25/30/24 26/29/24 22/31/24 21/32/24
f 23/33/25 27/28/25 25/30/25 21/34/25
f 28/27/26 24/35/26 22/36/26 26/29/26
f 85/1/1 86/2/1 87/3/1
f 86/2/2 85/4/2 90/5/2
f 85/6/3 87/7/3 88/8/3
f 85/9/4 88/8/4 89/10/4
f 85/11/5 89/10/5 90/5/5
f 86/2/6 90/5/6 95/12/6
f 87/3/7 86/2/7 91/13/7
f 88/8/8 87/7/8 92/14/8
f 89/10/9 88/8/9 93/15/9
f 90/5/10 89/10/10 94/16/10
f 86/2/11 95/12/11 91/13/11
f 87/3/12 91/13/12 92/17/12
f 88/8/13 92/14/13 93/15/13
f 89/10/14 93/15/14 94/16/14
f 90/5/15 94/16/15 95/12/15
f 91/13/16 95/12/16 96/18/16
f 92/17/17 91/13/17 96/19/17
f 93/15/18 92/14/18 96/20/18
f 94/16/19 93/15/19 96/21/19
f 95/12/20 94/16/20 96/22/20
f 97/23/21 98/24/21 100/25/21 99/26/21
f 99/26/22 100/25/22 104/27/22 103/28/22
f 103/28/23 104/27/23 102/29/23 101/30/23
f 101/30/24 102/29/24 98/31/24 97/32/24
f 99/33/25 103/28/25 101/30/25 97/34/25
f 104/27/26 100/35/26 98/36/26 102/29/26
f 105/23/21 106/24/21 108/25/21 107/26/21
f 107/26/22 108/25/22 112/27/22 111/28/22
f 111/28/23 112/27/23 110/29/23 109/30/23
f 109/30/24 110/29/24 106/31/24 105/32/24
f 107/33/25 111/28/25 109/30/25 105/34/25
f 112/27/26 108/35/26 106/36/26 110/29/26
f 169/1/1 170/2/1 171/3/1
f 170/2/2 169/4/2 174/5/2
f 169/6/3 171/7/3 172/8/3
f 169/9/4 172/8/4 173/10/4
f 169/11/5 173/10/5 174/5/5
f 170/2/6 174/5/6 179/12/6
f 171/3/7 170/2/7 175/13/7
f 172/8/8 171/7/8 176/14/8
f 173/10/9 172/8/9 177/15/9
f 174/5/10 173/10/10 178/16/10
f 170/2/11 179/12/11 175/13/11
f 171/3/12 175/13/12 176/17/12
f 172/8/13 176/14/13 177/15/13
f 173/10/14 177/15/14 178/16/14
f 174/5/15 178/16/15 179/12/15
f 175/13/16 179/12/16 180/18/16
f 176/17/17 175/13/17 180/19/17
f 177/15/18 176/14/18 180/20/18
f 178/16/19 177/15/19 180/21/19
f 179/12/20 178/16/20 180/22/20
f 181/23/21 182/24/21 184/25/21 183/26/21
f 183/26/22 184/25/22 188/27/22 187/28/22
f 187/28/23 188/27/23 186/29/23 185/30/23
f 185/30/24 186/29/24 182/31/24 181/32/24
f 183/33/25 187/28/25 185/30/25 181/34/25
f 188/27/26 184/35/26 182/36/26 186/29/26
f 189/23/21 190/24/21 192/25/21 191/26/21
f 191/26/22 192/25/22 196/27/22 195/28/22
f 195/28/23 196/27/23 194/29/23 193/30/23
f 193/30/24 194/29/24 190/31/24 189/32/24
f 191/33/25 195/28/25 193/30/25 189/34/25
f 196/27/26 192/35/26 190/36/26 194/29/26
f 253/37/27 254/38/27 256/39/27 255/40/27
f 255/40/28 256/39/28 258/41/28 257/42/28
f 257/42/29 258/41/29 260/43/29 259/44/29
f 259/44/30 260/43/30 262/45/30 261/46/30
f 256/47/31 254/48/31 264/49/31 262/50/31 260/51/31 258/52/31
f 261/46/32 262/45/32 264/53/32 263/54/32
f 263/54/33 264/53/33 254/55/33 253/56/33
f 253/57/34 255/58/34 257/59/34 259/60/34 261/61/34 263/62/34
f 265/37/35 266/38/35 268/39/35 267/40/35
f 267/40/36 268/39/36 270/41/36 269/42/36
f 269/42/37 270/41/37 272/43/37 271/44/37
f 271/44/38 272/43/38 274/45/38 273/46/38
f 268/47/39 266/48/39 276/49/39 274/50/39 272/51/39 270/52/39
f 273/46/40 274/45/40 276/53/40 275/54/40
f 275/54/41 276/53/41 266/55/41 265/56/41
f 265/57/42 267/58/42 269/59/42 271/60/42 273/61/42 275/62/42
f 277/37/43 278/38/43 280/39/43 279/40/43
f 279/40/44 280/39/44 282/41/44 281/42/44
f 281/42/45 282/41/45 284/43/45 283/44/45
f 283/44/46 284/43/46 286/45/46 285/46/46
f 280/47/47 278/48/47 288/49/47 286/50/47 284/51/47 282/52/47
f 285/46/48 286/45/48 288/53/48 287/54/48
f 287/54/49 288/53/49 278/55/49 277/56/49
f 277/57/50 279/58/50 281/59/50 283/60/50 285/61/50 287/62/50
f 289/37/51 290/38/51 292/39/51 291/40/51
f 291/40/52 292/39/52 294/41/52 293/42/52
f 293/42/53 294/41/53 296/43/53 295/44/53
f 295/44/54 296/43/54 298/45/54 297/46/54
f 292/47/55 290/48/55 300/49/55 298/50/55 296/51/55 294/52/55
f 297/46/56 298/45/56 300/53/56 299/54/56
f 299/54/57 300/53/57 290/55/57 289/56/57
f 289/57/58 291/58/58 293/59/58 295/60/58 297/61/58 299/62/58
usemtl soot
f 29/23/21 30/24/21 32/25/21 31/26/21
f 31/26/22 32/25/22 36/27/22 35/28/22
f 35/28/23 36/27/23 34/29/23 33/30/23
f 33/30/24 34/29/24 30/31/24 29/32/24
f 31/33/25 35/28/25 33/30/25 29/34/25
f 36/27/26 32/35/26 30/36/26 34/29/26
f 37/23/21 38/24/21 40/25/21 39/26/21
f 39/26/22 40/25/22 44/27/22 43/28/22
f 43/28/23 44/27/23 42/29/23 41/30/23
f 41/30/24 42/29/24 38/31/24 37/32/24
f 39/33/25 43/28/25 41/30/25 37/34/25
f 44/27/26 40/35/26 38/36/26 42/29/26
f 45/23/21 46/24/21 48/25/21 47/26/21
f 47/26/22 48/25/22 52/27/22 51/28/22
f 51/28/23 52/27/23 50/29/23 49/30/23
f 49/30/24 50/29/24 46/31/24 45/32/24
f 47/33/25 51/28/25 49/30/25 45/34/25
f 52/27/26 48/35/26 46/36/26 50/29/26
f 53/23/21 54/24/21 56/25/21 55/26/21
f 55/26/22 56/25/22 60/27/22 59/28/22
f 59/28/23 60/27/23 58/29/23 57/30/23
f 57/30/24 58/29/24 54/31/24 53/32/24
f 55/33/25 59/28/25 57/30/25 53/34/25
f 60/27/26 56/35/26 54/36/26 58/29/26
f 61/23/21 62/24/21 64/25/21 63/26/21
f 63/26/22 64/25/22 68/27/22 67/28/22
f 67/28/23 68/27/23 66/29/23 65/30/23
f 65/30/24 66/29/24 62/31/24 61/32/24
f 63/33/25 67/28/25 65/30/25 61/34/25
f 68/27/26 64/35/26 62/36/26 66/29/26
f 69/23/21 70/24/21 72/25/21 71/26/21
f 71/26/22 72/25/22 76/27/22 75/28/22
f 75/28/23 76/27/23 74/29/23 73/30/23
f 73/30/24 74/29/24 70/31/24 69/32/24
f 71/33/25 75/28/25 73/30/25 69/34/25
f 76/27/26 72/35/26 70/36/26 74/29/26
f 77/23/21 78/24/21 80/25/21 79/26/21
f 79/26/22 80/25/22 84/27/22 83/28/22
f 83/28/23 84/27/23 82/29/23 81/30/23
f 81/30/24 82/29/24 78/31/24 77/32/24
f 79/33/25 83/28/25 81/30/25 77/34/25
f 84/27/26 80/35/26 78/36/26 82/29/26
f 113/23/21 114/24/21 116/25/21 115/26/21
f 115/26/22 116/25/22 120/27/22 119/28/22
f 119/28/23 120/27/23 118/29/23 117/30/23
f 117/30/24 118/29/24 114/31/24 113/32/24
f 115/33/25 119/28/25 117/30/25 113/34/25
f 120/27/26 116/35/26 114/36/26 118/29/26
f 121/23/21 122/24/21 124/25/21 123/26/21
f 123/26/22 124/25/22 128/27/22 127/28/22
f 127/28/23 128/27/23 126/29/23 125/30/23
f 125/30/24 126/29/24 122/31/24 121/32/24
f 123/33/25 127/28/25 125/30/25 121/34/25
f 128/27/26 124/35/26 122/36/26 126/29/26
f 129/23/21 130/24/21 132/25/21 131/26/21
f 131/26/22 132/25/22 136/27/22 135/28/22
f 135/28/23 136/27/23 134/29/23 133/30/23
f 133/30/24 134/29/24 130/31/24 129/32/24
f 131/33/25 135/28/25 133/30/25 129/34/25
f 136/27/26 132/35/26 130/36/26 134/29/26
f 137/23/21 138/24/21 140/25/21 139/26/21
f 139/26/22 140/25/22 144/27/22 143/28/22
f 143/28/23 144/27/23 142/29/23 141/30/23
f 141/30/24 142/29/24 138/31/24 137/32/24
f 139/33/25 143/28/25 141/30/25 137/34/25
f 144/27/26 140/35/26 138/36/26 142/29/26
f 145/23/21 146/24/21 148/25/21 147/26/21
f 147/26/22 148/25/22 152/27/22 151/28/22
f 151/28/23 152/27/23 150/29/23 149/30/23
f 149/30/24 150/29/24 146/31/24 145/32/24
f 147/33/25 151/28/25 149/30/25 145/34/25
f 152/27/26 148/35/26 146/36/26 150/29/26
f 153/23/21 154/24/21 156/25/21 155/26/21
f 155/26/22 156/25/22 160/27/22 159/28/22
f 159/28/23 160/27/23 158/29/23 157/30/23
f 157/30/24 158/29/24 154/31/24 153/32/24
f 155/33/25 159/28/25 157/30/25 153/34/25
f 160/27/26 156/35/26 154/36/26 158/29/26
f 161/23/21 162/24/21 164/25/21 163/26/21
f 163/26/22 164/25/22 168/27/22 167/28/22
f 167/28/23 168/27/23 166/29/23 165/30/23
f 165/30/24 166/29/24 162/31/24 161/32/24
f 163/33/25 167/28/25 165/30/25 161/34/25
f 168/27/26 164/35/26 162/36/26 166/29/26
f 197/23/21 198/24/21 200/25/21 199/26/21
f 199/26/22 200/25/22 204/27/22 203/28/22
f 203/28/23 204/27/23 202/29/23 201/30/23
f 201/30/24 202/29/24 198/31/24 197/32/24
f 199/33/25 203/28/25 201/30/25 197/34/25
f 204/27/26 200/35/26 198/36/26 202/29/26
f 205/23/21 206/24/21 208/25/21 207/26/21
f 207/26/22 208/25/22 212/27/22 211/28/22
f 211/28/23 212/27/23 210/29/23 209/30/23
f 209/30/24 210/29/24 206/31/24 205/32/24
f 207/33/25 211/28/25 209/30/25 205/34/25
f 212/27/26 208/35/26 206/36/26 210/29/26
f 213/23/21 214/24/21 216/25/21 215/26/21
f 215/26/22 216/25/22 220/27/22 219/28/22
f 219/28/23 220/27/23 218/29/23 217/30/23
f 217/30/24 218/29/24 214/31/24 213/32/24
f 215/33/25 219/28/25 217/30/25 213/34/25
f 220/27/26 216/35/26 214/36/26 218/29/26
f 221/23/21 222/24/21 224/25/21 223/26/21
f 223/26/22 224/25/22 228/27/22 227/28/22
f 227/28/23 228/27/23 226/29/23 225/30/23
f 225/30/24 226/29/24 222/31/24 221/32/24
f 223/33/25 227/28/25 225/30/25 221/34/25
f 228/27/26 224/35/26 222/36/26 226/29/26
f 229/23/21 230/24/21 232/25/21 231/26/21
f 231/26/22 232/25/22 236/27/22 235/28/22
f 235/28/23 236/27/23 234/29/23 233/30/23
f 233/30/24 234/29/24 230/31/24 229/32/24
f 231/33/25 235/28/25 233/30/25 229/34/25
f 236/27/26 232/35/26 230/36/26 234/29/26
f 237/23/21 238/24/21 240/25/21 239/26/21
f 239/26/22 240/25/22 244/27/22 243/28/22
f 243/28/23 244/27/23 242/29/23 241/30/23
f 241/30/24 242/29/24 238/31/24 237/32/24
f 239/33/25 243/28/25 241/30/25 237/34/25
f 244/27/26 240/35/26 238/36/26 242/29/26
f 245/23/21 246/24/21 248/25/21 247/26/21
f 247/26/22 248/25/22 252/27/22 251/28/22
f 251/28/23 252/27/23 250/29/23 249/30/23
f 249/30/24 250/29/24 246/31/24 245/32/24
f 247/33/25 251/28/25 249/30/25 245/34/25
f 252/27/26 248/35/26 246/36/26 250/29/26
