# Blender 5.0.1
# www.blender.org
mtllib candle_shrine.mtl
o candle_shrine
v -0.275000 0.000000 0.275000
v -0.275000 0.100000 0.275000
v -0.275000 0.000000 -0.275000
v -0.275000 0.100000 -0.275000
v 0.275000 0.000000 0.275000
v 0.275000 0.100000 0.275000
v 0.275000 0.000000 -0.275000
v 0.275000 0.100000 -0.275000
v -0.040000 0.110000 -0.120000
v 0.039596 0.170806 -0.062171
v -0.070402 0.170806 -0.026430
v -0.138387 0.170806 -0.120000
v -0.070402 0.170806 -0.213570
v 0.039596 0.170806 -0.177829
v -0.009598 0.269194 -0.026430
v -0.119596 0.269194 -0.062171
v -0.119596 0.269194 -0.177829
v -0.009598 0.269194 -0.213570
v 0.058387 0.269194 -0.120000
v -0.040000 0.330000 -0.120000
v -0.122500 0.096250 -0.037500
v -0.122500 0.222750 -0.037500
v -0.122500 0.096250 -0.147500
v -0.122500 0.222750 -0.147500
v 0.042500 0.096250 -0.037500
v 0.042500 0.222750 -0.037500
v 0.042500 0.096250 -0.147500
v 0.042500 0.222750 -0.147500
v -0.106000 0.077000 -0.029250
v -0.106000 0.132000 -0.029250
v -0.106000 0.077000 -0.122750
v -0.106000 0.132000 -0.122750
v 0.026000 0.077000 -0.029250
v 0.026000 0.132000 -0.029250
v 0.026000 0.077000 -0.122750
v 0.026000 0.132000 -0.122750
v -0.109300 0.167200 -0.011100
v -0.109300 0.211200 -0.011100
v -0.109300 0.167200 -0.057300
v -0.109300 0.211200 -0.057300
v -0.063100 0.167200 -0.011100
v -0.063100 0.211200 -0.011100
v -0.063100 0.167200 -0.057300
v -0.063100 0.211200 -0.057300
v -0.016900 0.167200 -0.011100
v -0.016900 0.211200 -0.011100
v -0.016900 0.167200 -0.057300
v -0.016900 0.211200 -0.057300
v 0.029300 0.167200 -0.011100
v 0.029300 0.211200 -0.011100
v 0.029300 0.167200 -0.057300
v 0.029300 0.211200 -0.057300
v -0.053200 0.129800 -0.011100
v -0.053200 0.165000 -0.011100
v -0.053200 0.129800 -0.048500
v -0.053200 0.165000 -0.048500
v -0.026800 0.129800 -0.011100
v -0.026800 0.165000 -0.011100
v -0.026800 0.129800 -0.048500
v -0.026800 0.165000 -0.048500
v -0.092250 0.082500 -0.021000
v -0.092250 0.126500 -0.021000
v -0.092250 0.082500 -0.043000
v -0.092250 0.126500 -0.043000
v -0.086750 0.082500 -0.021000
v -0.086750 0.126500 -0.021000
v -0.086750 0.082500 -0.043000
v -0.086750 0.126500 -0.043000
v -0.059250 0.082500 -0.021000
v -0.059250 0.126500 -0.021000
v -0.059250 0.082500 -0.043000
v -0.059250 0.126500 -0.043000
v -0.053750 0.082500 -0.021000
v -0.053750 0.126500 -0.021000
v -0.053750 0.082500 -0.043000
v -0.053750 0.126500 -0.043000
v -0.026250 0.082500 -0.021000
v -0.026250 0.126500 -0.021000
v -0.026250 0.082500 -0.043000
v -0.026250 0.126500 -0.043000
v -0.020750 0.082500 -0.021000
v -0.020750 0.126500 -0.021000
v -0.020750 0.082500 -0.043000
v -0.020750 0.126500 -0.043000
v 0.006750 0.082500 -0.021000
v 0.006750 0.126500 -0.021000
v 0.006750 0.082500 -0.043000
v 0.006750 0.126500 -0.043000
v 0.012250 0.082500 -0.021000
v 0.012250 0.126500 -0.021000
v 0.012250 0.082500 -0.043000
v 0.012250 0.126500 -0.043000
v -0.160000 0.100000 0.060000
v -0.160000 0.420000 0.060000
v -0.125359 0.100000 0.080000
v -0.125359 0.420000 0.080000
v -0.125359 0.100000 0.120000
v -0.125359 0.420000 0.120000
v -0.160000 0.100000 0.140000
v -0.160000 0.420000 0.140000
v -0.194641 0.100000 0.120000
v -0.194641 0.420000 0.120000
v -0.194641 0.100000 0.080000
v -0.194641 0.420000 0.080000
v -0.160000 0.410000 0.060000
v -0.121958 0.410000 0.087639
v -0.136489 0.410000 0.132361
v -0.183511 0.410000 0.132361
v -0.198042 0.410000 0.087639
v -0.160000 0.490000 0.100000
v 0.120000 0.100000 -0.060000
v 0.120000 0.520000 -0.060000
v 0.154641 0.100000 -0.040000
v 0.154641 0.520000 -0.040000
v 0.154641 0.100000 0.000000
v 0.154641 0.520000 0.000000
v 0.120000 0.100000 0.020000
v 0.120000 0.520000 0.020000
v 0.085359 0.100000 0.000000
v 0.085359 0.520000 0.000000
v 0.085359 0.100000 -0.040000
v 0.085359 0.520000 -0.040000
v 0.120000 0.510000 -0.060000
v 0.158042 0.510000 -0.032361
v 0.143511 0.510000 0.012361
v 0.096489 0.510000 0.012361
v 0.081958 0.510000 -0.032361
v 0.120000 0.590000 -0.020000
v -0.020000 0.100000 -0.220000
v -0.020000 0.360000 -0.220000
v 0.014641 0.100000 -0.200000
v 0.014641 0.360000 -0.200000
v 0.014641 0.100000 -0.160000
v 0.014641 0.360000 -0.160000
v -0.020000 0.100000 -0.140000
v -0.020000 0.360000 -0.140000
v -0.054641 0.100000 -0.160000
v -0.054641 0.360000 -0.160000
v -0.054641 0.100000 -0.200000
v -0.054641 0.360000 -0.200000
v -0.020000 0.350000 -0.220000
v 0.018042 0.350000 -0.192361
v 0.003511 0.350000 -0.147639
v -0.043511 0.350000 -0.147639
v -0.058042 0.350000 -0.192361
v -0.020000 0.430000 -0.180000
v 0.180000 0.100000 0.100000
v 0.180000 0.460000 0.100000
v 0.214641 0.100000 0.120000
v 0.214641 0.460000 0.120000
v 0.214641 0.100000 0.160000
v 0.214641 0.460000 0.160000
v 0.180000 0.100000 0.180000
v 0.180000 0.460000 0.180000
v 0.145359 0.100000 0.160000
v 0.145359 0.460000 0.160000
v 0.145359 0.100000 0.120000
v 0.145359 0.460000 0.120000
v 0.180000 0.450000 0.100000
v 0.218042 0.450000 0.127639
v 0.203511 0.450000 0.172361
v 0.156489 0.450000 0.172361
v 0.141958 0.450000 0.127639
v 0.180000 0.530000 0.140000
vn -1.0000 -0.0000 -0.0000
vn -0.0000 -0.0000 -1.0000
vn 1.0000 -0.0000 -0.0000
vn -0.0000 -0.0000 1.0000
vn -0.0000 -1.0000 -0.0000
vn -0.0000 1.0000 -0.0000
vn 0.1876 -0.7947 0.5774
vn 0.6071 -0.7947 -0.0000
vn -0.4911 -0.7947 0.3568
vn -0.4911 -0.7947 -0.3568
vn 0.1876 -0.7947 -0.5774
vn 0.9822 -0.1876 -0.0000
vn 0.3035 -0.1876 0.9342
vn -0.7946 -0.1876 0.5774
vn -0.7946 -0.1876 -0.5774
vn 0.3035 -0.1876 -0.9342
vn 0.7946 0.1876 0.5774
vn -0.3035 0.1876 0.9342
vn -0.9822 0.1876 -0.0000
vn -0.3035 0.1876 -0.9342
vn 0.7946 0.1876 -0.5774
vn 0.4911 0.7947 0.3568
vn -0.1876 0.7947 0.5774
vn -0.6071 0.7947 -0.0000
vn -0.1876 0.7947 -0.5774
vn 0.4911 0.7947 -0.3568
vn 0.5000 -0.0000 -0.8660
vn 0.5000 -0.0000 0.8660
vn -0.5000 -0.0000 0.8660
vn -0.5000 -0.0000 -0.8660
vn 0.5449 0.3750 -0.7500
vn 0.8817 0.3750 0.2865
vn -0.0000 0.3750 0.9270
vn -0.8817 0.3750 0.2865
vn -0.5449 0.3750 -0.7500
vt 0.375000 0.000000
vt 0.625000 0.000000
vt 0.625000 0.250000
vt 0.375000 0.250000
vt 0.625000 0.500000
vt 0.375000 0.500000
vt 0.625000 0.750000
vt 0.375000 0.750000
vt 0.625000 1.000000
vt 0.375000 1.000000
vt 0.125000 0.500000
vt 0.125000 0.750000
vt 0.875000 0.500000
vt 0.875000 0.750000
vt 0.181819 0.000000
vt 0.272728 0.157461
vt 0.090910 0.157461
vt 0.363637 0.000000
vt 0.454546 0.157461
vt 0.909091 0.000000
vt 1.000000 0.157461
vt 0.818182 0.157461
vt 0.727273 0.000000
vt 0.636364 0.157461
vt 0.545455 0.000000
vt 0.363637 0.314921
vt 0.181819 0.314921
vt 0.909091 0.314921
vt 0.727273 0.314921
vt 0.545455 0.314921
vt 0.000000 0.314921
vt 0.272728 0.472382
vt 0.090910 0.472382
vt 0.818182 0.472382
vt 0.636364 0.472382
vt 0.454546 0.472382
vt 1.000000 0.500000
vt 1.000000 1.000000
vt 0.833333 1.000000
vt 0.833333 0.500000
vt 0.666667 1.000000
vt 0.666667 0.500000
vt 0.500000 1.000000
vt 0.500000 0.500000
vt 0.333333 1.000000
vt 0.333333 0.500000
vt 0.457846 0.370000
vt 0.250000 0.490000
vt 0.042154 0.370000
vt 0.042154 0.130000
vt 0.250000 0.010000
vt 0.457846 0.130000
vt 0.166667 1.000000
vt 0.166667 0.500000
vt -0.000000 1.000000
vt -0.000000 0.500000
vt 0.750000 0.490000
vt 0.957846 0.370000
vt 0.957846 0.130000
vt 0.750000 0.010000
vt 0.542154 0.130000
vt 0.542154 0.370000
vt 0.250000 0.250000
vt 0.478254 0.324164
vt 0.391068 0.055836
vt 0.108932 0.055836
vt 0.978254 0.324164
vt 0.891068 0.055836
vt 0.608932 0.055836
vt 0.521746 0.324164
vt 0.021746 0.324164
s 0
usemtl stone_dk
f 1/1/1 2/2/1 4/3/1 3/4/1
f 3/4/2 4/3/2 8/5/2 7/6/2
f 7/6/3 8/5/3 6/7/3 5/8/3
f 5/8/4 6/7/4 2/9/4 1/10/4
f 3/11/5 7/6/5 5/8/5 1/12/5
f 8/5/6 4/13/6 2/14/6 6/7/6
usemtl bone
f 9/15/7 10/16/7 11/17/7
f 10/16/8 9/18/8 14/19/8
f 9/20/9 11/21/9 12/22/9
f 9/23/10 12/22/10 13/24/10
f 9/25/11 13/24/11 14/19/11
f 10/16/12 14/19/12 19/26/12
f 11/17/13 10/16/13 15/27/13
f 12/22/14 11/21/14 16/28/14
f 13/24/15 12/22/15 17/29/15
f 14/19/16 13/24/16 18/30/16
f 10/16/17 19/26/17 15/27/17
f 11/17/18 15/27/18 16/31/18
f 12/22/19 16/28/19 17/29/19
f 13/24/20 17/29/20 18/30/20
f 14/19/21 18/30/21 19/26/21
f 15/27/22 19/26/22 20/32/22
f 16/31/23 15/27/23 20/33/23
f 17/29/24 16/28/24 20/34/24
f 18/30/25 17/29/25 20/35/25
f 19/26/26 18/30/26 20/36/26
f 21/1/1 22/2/1 24/3/1 23/4/1
f 23/4/2 24/3/2 28/5/2 27/6/2
f 27/6/3 28/5/3 26/7/3 25/8/3
f 25/8/4 26/7/4 22/9/4 21/10/4
f 23/11/5 27/6/5 25/8/5 21/12/5
f 28/5/6 24/13/6 22/14/6 26/7/6
f 29/1/1 30/2/1 32/3/1 31/4/1
f 31/4/2 32/3/2 36/5/2 35/6/2
f 35/6/3 36/5/3 34/7/3 33/8/3
f 33/8/4 34/7/4 30/9/4 29/10/4
f 31/11/5 35/6/5 33/8/5 29/12/5
f 36/5/6 32/13/6 30/14/6 34/7/6
f 93/37/27 94/38/27 96/39/27 95/40/27
f 95/40/3 96/39/3 98/41/3 97/42/3
f 97/42/28 98/41/28 100/43/28 99/44/28
f 99/44/29 100/43/29 102/45/29 101/46/29
f 96/47/6 94/48/6 104/49/6 102/50/6 100/51/6 98/52/6
f 101/46/1 102/45/1 104/53/1 103/54/1
f 103/54/30 104/53/30 94/55/30 93/56/30
f 93/57/5 95/58/5 97/59/5 99/60/5 101/61/5 103/62/5
f 111/37/27 112/38/27 114/39/27 113/40/27
f 113/40/3 114/39/3 116/41/3 115/42/3
f 115/42/28 116/41/28 118/43/28 117/44/28
f 117/44/29 118/43/29 120/45/29 119/46/29
f 114/47/6 112/48/6 122/49/6 120/50/6 118/51/6 116/52/6
f 119/46/1 120/45/1 122/53/1 121/54/1
f 121/54/30 122/53/30 112/55/30 111/56/30
f 111/57/5 113/58/5 115/59/5 117/60/5 119/61/5 121/62/5
f 129/37/27 130/38/27 132/39/27 131/40/27
f 131/40/3 132/39/3 134/41/3 133/42/3
f 133/42/28 134/41/28 136/43/28 135/44/28
f 135/44/29 136/43/29 138/45/29 137/46/29
f 132/47/6 130/48/6 140/49/6 138/50/6 136/51/6 134/52/6
f 137/46/1 138/45/1 140/53/1 139/54/1
f 139/54/30 140/53/30 130/55/30 129/56/30
f 129/57/5 131/58/5 133/59/5 135/60/5 137/61/5 139/62/5
f 147/37/27 148/38/27 150/39/27 149/40/27
f 149/40/3 150/39/3 152/41/3 151/42/3
f 151/42/28 152/41/28 154/43/28 153/44/28
f 153/44/29 154/43/29 156/45/29 155/46/29
f 150/47/6 148/48/6 158/49/6 156/50/6 154/51/6 152/52/6
f 155/46/1 156/45/1 158/53/1 157/54/1
f 157/54/30 158/53/30 148/55/30 147/56/30
f 147/57/5 149/58/5 151/59/5 153/60/5 155/61/5 157/62/5
usemtl soot
f 37/1/1 38/2/1 40/3/1 39/4/1
f 39/4/2 40/3/2 44/5/2 43/6/2
f 43/6/3 44/5/3 42/7/3 41/8/3
f 41/8/4 42/7/4 38/9/4 37/10/4
f 39/11/5 43/6/5 41/8/5 37/12/5
f 44/5/6 40/13/6 38/14/6 42/7/6
f 45/1/1 46/2/1 48/3/1 47/4/1
f 47/4/2 48/3/2 52/5/2 51/6/2
f 51/6/3 52/5/3 50/7/3 49/8/3
f 49/8/4 50/7/4 46/9/4 45/10/4
f 47/11/5 51/6/5 49/8/5 45/12/5
f 52/5/6 48/13/6 46/14/6 50/7/6
f 53/1/1 54/2/1 56/3/1 55/4/1
f 55/4/2 56/3/2 60/5/2 59/6/2
f 59/6/3 60/5/3 58/7/3 57/8/3
f 57/8/4 58/7/4 54/9/4 53/10/4
f 55/11/5 59/6/5 57/8/5 53/12/5
f 60/5/6 56/13/6 54/14/6 58/7/6
f 61/1/1 62/2/1 64/3/1 63/4/1
f 63/4/2 64/3/2 68/5/2 67/6/2
f 67/6/3 68/5/3 66/7/3 65/8/3
f 65/8/4 66/7/4 62/9/4 61/10/4
f 63/11/5 67/6/5 65/8/5 61/12/5
f 68/5/6 64/13/6 62/14/6 66/7/6
f 69/1/1 70/2/1 72/3/1 71/4/1
f 71/4/2 72/3/2 76/5/2 75/6/2
f 75/6/3 76/5/3 74/7/3 73/8/3
f 73/8/4 74/7/4 70/9/4 69/10/4
f 71/11/5 75/6/5 73/8/5 69/12/5
f 76/5/6 72/13/6 70/14/6 74/7/6
f 77/1/1 78/2/1 80/3/1 79/4/1
f 79/4/2 80/3/2 84/5/2 83/6/2
f 83/6/3 84/5/3 82/7/3 81/8/3
f 81/8/4 82/7/4 78/9/4 77/10/4
f 79/11/5 83/6/5 81/8/5 77/12/5
f 84/5/6 80/13/6 78/14/6 82/7/6
f 85/1/1 86/2/1 88/3/1 87/4/1
f 87/4/2 88/3/2 92/5/2 91/6/2
f 91/6/3 92/5/3 90/7/3 89/8/3
f 89/8/4 90/7/4 86/9/4 85/10/4
f 87/11/5 91/6/5 89/8/5 85/12/5
f 92/5/6 88/13/6 86/14/6 90/7/6
usemtl ember
f 105/48/31 110/63/31 106/64/31
f 106/64/32 110/63/32 107/65/32
f 107/65/33 110/63/33 108/66/33
f 105/57/5 106/67/5 107/68/5 108/69/5 109/70/5
f 108/66/34 110/63/34 109/71/34
f 109/71/35 110/63/35 105/48/35
f 123/48/31 128/63/31 124/64/31
f 124/64/32 128/63/32 125/65/32
f 125/65/33 128/63/33 126/66/33
f 123/57/5 124/67/5 125/68/5 126/69/5 127/70/5
f 126/66/34 128/63/34 127/71/34
f 127/71/35 128/63/35 123/48/35
f 141/48/31 146/63/31 142/64/31
f 142/64/32 146/63/32 143/65/32
f 143/65/33 146/63/33 144/66/33
f 141/57/5 142/67/5 143/68/5 144/69/5 145/70/5
f 144/66/34 146/63/34 145/71/34
f 145/71/35 146/63/35 141/48/35
f 159/48/31 164/63/31 160/64/31
f 160/64/32 164/63/32 161/65/32
f 161/65/33 164/63/33 162/66/33
f 159/57/5 160/67/5 161/68/5 162/69/5 163/70/5
f 162/66/34 164/63/34 163/71/34
f 163/71/35 164/63/35 159/48/35
