# Blender 5.0.1
# www.blender.org
mtllib cauldron.mtl
o cauldron
v -0.198316 0.191614 -0.040000
v -0.401684 0.648386 -0.040000
v -0.161774 0.207883 0.000000
v -0.365142 0.664656 0.000000
v -0.198316 0.191614 0.040000
v -0.401684 0.648386 0.040000
v -0.234858 0.175344 0.000000
v -0.438226 0.632117 0.000000
v 0.000000 0.175344 0.365142
v -0.000000 0.632117 0.161774
v 0.040000 0.191614 0.401684
v 0.040000 0.648386 0.198316
v 0.000000 0.207883 0.438226
v 0.000000 0.664656 0.234858
v -0.040000 0.191614 0.401684
v -0.040000 0.648386 0.198316
v 0.198316 0.191614 -0.040000
v 0.401684 0.648386 -0.040000
v 0.234858 0.175344 0.000000
v 0.438226 0.632117 0.000000
v 0.198316 0.191614 0.040000
v 0.401684 0.648386 0.040000
v 0.161774 0.207883 0.000000
v 0.365142 0.664656 0.000000
v 0.000000 0.207883 -0.438226
v 0.000000 0.664656 -0.234858
v 0.040000 0.191614 -0.401684
v 0.040000 0.648386 -0.198316
v 0.000000 0.175344 -0.365142
v -0.000000 0.632117 -0.161774
v -0.040000 0.191614 -0.401684
v -0.040000 0.648386 -0.198316
v 0.000000 0.040000 -0.220000
v 0.190526 0.040000 -0.110000
v 0.190526 0.040000 0.110000
v 0.000000 0.040000 0.220000
v -0.190526 0.040000 0.110000
v -0.190526 0.040000 -0.110000
v 0.000000 0.240000 0.000000
v -0.000000 0.390000 -0.200000
v -0.000000 0.510000 -0.200000
v 0.100000 0.390000 -0.173205
v 0.100000 0.510000 -0.173205
v 0.173205 0.390000 -0.100000
v 0.173205 0.510000 -0.100000
v 0.200000 0.390000 0.000000
v 0.200000 0.510000 0.000000
v 0.173205 0.390000 0.100000
v 0.173205 0.510000 0.100000
v 0.100000 0.390000 0.173205
v 0.100000 0.510000 0.173205
v -0.000000 0.390000 0.200000
v -0.000000 0.510000 0.200000
v -0.100000 0.390000 0.173205
v -0.100000 0.510000 0.173205
v -0.173205 0.390000 0.100000
v -0.173205 0.510000 0.100000
v -0.200000 0.390000 0.000000
v -0.200000 0.510000 0.000000
v -0.173205 0.390000 -0.100000
v -0.173205 0.510000 -0.100000
v -0.100000 0.390000 -0.173205
v -0.100000 0.510000 -0.173205
v -0.000000 0.490000 -0.340000
v -0.000000 0.630000 -0.340000
v 0.170000 0.490000 -0.294449
v 0.170000 0.630000 -0.294449
v 0.294449 0.490000 -0.170000
v 0.294449 0.630000 -0.170000
v 0.340000 0.490000 0.000000
v 0.340000 0.630000 0.000000
v 0.294449 0.490000 0.170000
v 0.294449 0.630000 0.170000
v 0.170000 0.490000 0.294449
v 0.170000 0.630000 0.294449
v -0.000000 0.490000 0.340000
v -0.000000 0.630000 0.340000
v -0.170000 0.490000 0.294449
v -0.170000 0.630000 0.294449
v -0.294449 0.490000 0.170000
v -0.294449 0.630000 0.170000
v -0.340000 0.490000 0.000000
v -0.340000 0.630000 0.000000
v -0.294449 0.490000 -0.170000
v -0.294449 0.630000 -0.170000
v -0.170000 0.490000 -0.294449
v -0.170000 0.630000 -0.294449
v 0.000000 0.620000 -0.410000
v 0.000000 0.780000 -0.410000
v 0.205000 0.620000 -0.355070
v 0.205000 0.780000 -0.355070
v 0.355070 0.620000 -0.205000
v 0.355070 0.780000 -0.205000
v 0.410000 0.620000 0.000000
v 0.410000 0.780000 0.000000
v 0.355070 0.620000 0.205000
v 0.355070 0.780000 0.205000
v 0.205000 0.620000 0.355070
v 0.205000 0.780000 0.355070
v 0.000000 0.620000 0.410000
v 0.000000 0.780000 0.410000
v -0.205000 0.620000 0.355070
v -0.205000 0.780000 0.355070
v -0.355070 0.620000 0.205000
v -0.355070 0.780000 0.205000
v -0.410000 0.620000 0.000000
v -0.410000 0.780000 0.000000
v -0.355070 0.620000 -0.205000
v -0.355070 0.780000 -0.205000
v -0.205000 0.620000 -0.355070
v -0.205000 0.780000 -0.355070
v 0.000000 0.780000 -0.340000
v 0.000000 0.900000 -0.340000
v 0.170000 0.780000 -0.294449
v 0.170000 0.900000 -0.294449
v 0.294449 0.780000 -0.170000
v 0.294449 0.900000 -0.170000
v 0.340000 0.780000 0.000000
v 0.340000 0.900000 0.000000
v 0.294449 0.780000 0.170000
v 0.294449 0.900000 0.170000
v 0.170000 0.780000 0.294449
v 0.170000 0.900000 0.294449
v 0.000000 0.780000 0.340000
v 0.000000 0.900000 0.340000
v -0.170000 0.780000 0.294449
v -0.170000 0.900000 0.294449
v -0.294449 0.780000 0.170000
v -0.294449 0.900000 0.170000
v -0.340000 0.780000 0.000000
v -0.340000 0.900000 0.000000
v -0.294449 0.780000 -0.170000
v -0.294449 0.900000 -0.170000
v -0.170000 0.780000 -0.294449
v -0.170000 0.900000 -0.294449
v 0.000000 0.890000 -0.430000
v 0.000000 0.970000 -0.430000
v 0.215000 0.890000 -0.372391
v 0.215000 0.970000 -0.372391
v 0.372391 0.890000 -0.215000
v 0.372391 0.970000 -0.215000
v 0.430000 0.890000 0.000000
v 0.430000 0.970000 0.000000
v 0.372391 0.890000 0.215000
v 0.372391 0.970000 0.215000
v 0.215000 0.890000 0.372391
v 0.215000 0.970000 0.372391
v 0.000000 0.890000 0.430000
v 0.000000 0.970000 0.430000
v -0.215000 0.890000 0.372391
v -0.215000 0.970000 0.372391
v -0.372391 0.890000 0.215000
v -0.372391 0.970000 0.215000
v -0.430000 0.890000 0.000000
v -0.430000 0.970000 0.000000
v -0.372391 0.890000 -0.215000
v -0.372391 0.970000 -0.215000
v -0.215000 0.890000 -0.372391
v -0.215000 0.970000 -0.372391
v 0.000000 0.950000 -0.330000
v -0.000000 0.990000 -0.330000
v 0.165000 0.950000 -0.285788
v 0.165000 0.990000 -0.285788
v 0.285788 0.950000 -0.165000
v 0.285788 0.990000 -0.165000
v 0.330000 0.950000 0.000000
v 0.330000 0.990000 0.000000
v 0.285788 0.950000 0.165000
v 0.285788 0.990000 0.165000
v 0.165000 0.950000 0.285788
v 0.165000 0.990000 0.285788
v 0.000000 0.950000 0.330000
v -0.000000 0.990000 0.330000
v -0.165000 0.950000 0.285788
v -0.165000 0.990000 0.285788
v -0.285788 0.950000 0.165000
v -0.285788 0.990000 0.165000
v -0.330000 0.950000 0.000000
v -0.330000 0.990000 0.000000
v -0.285788 0.950000 -0.165000
v -0.285788 0.990000 -0.165000
v -0.165000 0.950000 -0.285788
v -0.165000 0.990000 -0.285788
vn 0.6460 0.2876 -0.7071
vn 0.6460 0.2876 0.7071
vn -0.4067 0.9135 -0.0000
vn -0.6460 -0.2876 0.7071
vn -0.6460 -0.2876 -0.7071
vn 0.4067 -0.9135 -0.0000
vn 0.7071 -0.2876 -0.6460
vn 0.7071 0.2876 0.6460
vn -0.0000 0.9135 -0.4067
vn -0.7071 0.2876 0.6460
vn -0.7071 -0.2876 -0.6460
vn -0.0000 -0.9135 0.4067
vn 0.6460 -0.2876 -0.7071
vn 0.6460 -0.2876 0.7071
vn 0.4067 0.9135 -0.0000
vn -0.6460 0.2876 0.7071
vn -0.6460 0.2876 -0.7071
vn -0.4067 -0.9135 -0.0000
vn 0.7071 0.2876 -0.6460
vn 0.7071 -0.2876 0.6460
vn -0.0000 0.9135 0.4067
vn -0.7071 -0.2876 0.6460
vn -0.7071 0.2876 -0.6460
vn -0.0000 -0.9135 -0.4067
vn 0.3620 0.6897 -0.6270
vn 0.7240 0.6897 -0.0000
vn 0.3620 0.6897 0.6270
vn -0.3620 0.6897 0.6270
vn -0.0000 -1.0000 -0.0000
vn -0.7240 0.6897 -0.0000
vn -0.3620 0.6897 -0.6270
vn 0.2588 -0.0000 -0.9659
vn 0.7071 -0.0000 -0.7071
vn 0.9659 -0.0000 -0.2588
vn 0.9659 -0.0000 0.2588
vn 0.7071 -0.0000 0.7071
vn 0.2588 -0.0000 0.9659
vn -0.2588 -0.0000 0.9659
vn -0.7071 -0.0000 0.7071
vn -0.9659 -0.0000 0.2588
vn -0.9659 -0.0000 -0.2588
vn -0.0000 1.0000 -0.0000
vn -0.7071 -0.0000 -0.7071
vn -0.2588 -0.0000 -0.9659
vt 1.000000 0.500000
vt 1.000000 1.000000
vt 0.750000 1.000000
vt 0.750000 0.500000
vt 0.500000 1.000000
vt 0.500000 0.500000
vt 0.490000 0.250000
vt 0.250000 0.490000
vt 0.010000 0.250000
vt 0.250000 0.010000
vt 0.250000 1.000000
vt 0.250000 0.500000
vt 0.000000 1.000000
vt 0.000000 0.500000
vt 0.750000 0.490000
vt 0.990000 0.250000
vt 0.750000 0.010000
vt 0.510000 0.250000
vt 0.250000 0.250000
vt 0.457846 0.370000
vt 0.457846 0.130000
vt 0.250000 0.010000
vt 0.042154 0.130000
vt 0.957846 0.370000
vt 0.957846 0.130000
vt 0.750000 0.010000
vt 0.542154 0.130000
vt 0.542154 0.370000
vt 0.042154 0.370000
vt 0.916667 1.000000
vt 0.916667 0.500000
vt 0.833333 1.000000
vt 0.833333 0.500000
vt 0.750000 1.000000
vt 0.750000 0.500000
vt 0.666667 1.000000
vt 0.666667 0.500000
vt 0.583333 1.000000
vt 0.583333 0.500000
vt 0.500000 1.000000
vt 0.500000 0.500000
vt 0.416667 1.000000
vt 0.416667 0.500000
vt 0.333333 1.000000
vt 0.333333 0.500000
vt 0.250000 1.000000
vt 0.250000 0.500000
vt 0.166667 1.000000
vt 0.166667 0.500000
vt 0.370000 0.457846
vt 0.130000 0.457846
vt 0.042154 0.370000
vt 0.042154 0.130000
vt 0.130000 0.042154
vt 0.370000 0.042154
vt 0.457846 0.130000
vt 0.457846 0.370000
vt 0.083333 1.000000
vt 0.083333 0.500000
vt 0.000000 1.000000
vt 0.000000 0.500000
vt 0.870000 0.457846
vt 0.957846 0.370000
vt 0.957846 0.130000
vt 0.870000 0.042154
vt 0.630000 0.042154
vt 0.542154 0.130000
vt 0.542154 0.370000
vt 0.630000 0.457846
vt 0.370000 0.457846
vt 0.130000 0.457846
vt 0.042154 0.370000
vt 0.042154 0.130000
vt 0.130000 0.042154
vt 0.370000 0.042154
vt 0.870000 0.457846
vt 0.870000 0.042154
vt 0.630000 0.042154
vt 0.630000 0.457846
s 0
usemtl iron
f 1/1/1 2/2/1 4/3/1 3/4/1
f 3/4/2 4/3/2 6/5/2 5/6/2
f 4/7/3 2/8/3 8/9/3 6/10/3
f 5/6/4 6/5/4 8/11/4 7/12/4
f 7/12/5 8/11/5 2/13/5 1/14/5
f 1/15/6 3/16/6 5/17/6 7/18/6
f 9/1/7 10/2/7 12/3/7 11/4/7
f 11/4/8 12/3/8 14/5/8 13/6/8
f 12/7/9 10/8/9 16/9/9 14/10/9
f 13/6/10 14/5/10 16/11/10 15/12/10
f 15/12/11 16/11/11 10/13/11 9/14/11
f 9/15/12 11/16/12 13/17/12 15/18/12
f 17/1/13 18/2/13 20/3/13 19/4/13
f 19/4/14 20/3/14 22/5/14 21/6/14
f 20/7/15 18/8/15 24/9/15 22/10/15
f 21/6/16 22/5/16 24/11/16 23/12/16
f 23/12/17 24/11/17 18/13/17 17/14/17
f 17/15/18 19/16/18 21/17/18 23/18/18
f 25/1/19 26/2/19 28/3/19 27/4/19
f 27/4/20 28/3/20 30/5/20 29/6/20
f 28/7/21 26/8/21 32/9/21 30/10/21
f 29/6/22 30/5/22 32/11/22 31/12/22
f 31/12/23 32/11/23 26/13/23 25/14/23
f 25/15/24 27/16/24 29/17/24 31/18/24
usemtl ember
f 33/8/25 39/19/25 34/20/25
f 34/20/26 39/19/26 35/21/26
f 35/21/27 39/19/27 36/22/27
f 36/22/28 39/19/28 37/23/28
f 33/15/29 34/24/29 35/25/29 36/26/29 37/27/29 38/28/29
f 37/23/30 39/19/30 38/29/30
f 38/29/31 39/19/31 33/8/31
usemtl gunmetal
f 40/1/32 41/2/32 43/30/32 42/31/32
f 42/31/33 43/30/33 45/32/33 44/33/33
f 44/33/34 45/32/34 47/34/34 46/35/34
f 46/35/35 47/34/35 49/36/35 48/37/35
f 48/37/36 49/36/36 51/38/36 50/39/36
f 50/39/37 51/38/37 53/40/37 52/41/37
f 52/41/38 53/40/38 55/42/38 54/43/38
f 54/43/39 55/42/39 57/44/39 56/45/39
f 56/45/40 57/44/40 59/46/40 58/47/40
f 58/47/41 59/46/41 61/48/41 60/49/41
f 43/50/42 41/8/42 63/51/42 61/52/42 59/9/42 57/53/42 55/54/42 53/10/42 51/55/42 49/56/42 47/7/42 45/57/42
f 60/49/43 61/48/43 63/58/43 62/59/43
f 62/59/44 63/58/44 41/60/44 40/61/44
f 40/15/29 42/62/29 44/63/29 46/16/29 48/64/29 50/65/29 52/17/29 54/66/29 56/67/29 58/18/29 60/68/29 62/69/29
f 64/1/32 65/2/32 67/30/32 66/31/32
f 66/31/33 67/30/33 69/32/33 68/33/33
f 68/33/34 69/32/34 71/34/34 70/35/34
f 70/35/35 71/34/35 73/36/35 72/37/35
f 72/37/36 73/36/36 75/38/36 74/39/36
f 74/39/37 75/38/37 77/40/37 76/41/37
f 76/41/38 77/40/38 79/42/38 78/43/38
f 78/43/39 79/42/39 81/44/39 80/45/39
f 80/45/40 81/44/40 83/46/40 82/47/40
f 82/47/41 83/46/41 85/48/41 84/49/41
f 67/70/42 65/8/42 87/71/42 85/72/42 83/9/42 81/73/42 79/74/42 77/10/42 75/75/42 73/21/42 71/7/42 69/20/42
f 84/49/43 85/48/43 87/58/43 86/59/43
f 86/59/44 87/58/44 65/60/44 64/61/44
f 64/15/29 66/76/29 68/24/29 70/16/29 72/25/29 74/77/29 76/17/29 78/78/29 80/27/29 82/18/29 84/28/29 86/79/29
f 88/1/32 89/2/32 91/30/32 90/31/32
f 90/31/33 91/30/33 93/32/33 92/33/33
f 92/33/34 93/32/34 95/34/34 94/35/34
f 94/35/35 95/34/35 97/36/35 96/37/35
f 96/37/36 97/36/36 99/38/36 98/39/36
f 98/39/37 99/38/37 101/40/37 100/41/37
f 100/41/38 101/40/38 103/42/38 102/43/38
f 102/43/39 103/42/39 105/44/39 104/45/39
f 104/45/40 105/44/40 107/46/40 106/47/40
f 106/47/41 107/46/41 109/48/41 108/49/41
f 91/70/42 89/8/42 111/71/42 109/72/42 107/9/42 105/73/42 103/74/42 101/10/42 99/75/42 97/21/42 95/7/42 93/20/42
f 108/49/43 109/48/43 111/58/43 110/59/43
f 110/59/44 111/58/44 89/60/44 88/61/44
f 88/15/29 90/76/29 92/24/29 94/16/29 96/25/29 98/77/29 100/17/29 102/78/29 104/27/29 106/18/29 108/28/29 110/79/29
f 112/1/32 113/2/32 115/30/32 114/31/32
f 114/31/33 115/30/33 117/32/33 116/33/33
f 116/33/34 117/32/34 119/34/34 118/35/34
f 118/35/35 119/34/35 121/36/35 120/37/35
f 120/37/36 121/36/36 123/38/36 122/39/36
f 122/39/37 123/38/37 125/40/37 124/41/37
f 124/41/38 125/40/38 127/42/38 126/43/38
f 126/43/39 127/42/39 129/44/39 128/45/39
f 128/45/40 129/44/40 131/46/40 130/47/40
f 130/47/41 131/46/41 133/48/41 132/49/41
f 115/70/42 113/8/42 135/71/42 133/72/42 131/9/42 129/73/42 127/74/42 125/10/42 123/75/42 121/21/42 119/7/42 117/20/42
f 132/49/43 133/48/43 135/58/43 134/59/43
f 134/59/44 135/58/44 113/60/44 112/61/44
f 112/15/29 114/76/29 116/24/29 118/16/29 120/25/29 122/77/29 124/17/29 126/78/29 128/27/29 130/18/29 132/28/29 134/79/29
f 136/1/32 137/2/32 139/30/32 138/31/32
f 138/31/33 139/30/33 141/32/33 140/33/33
f 140/33/34 141/32/34 143/34/34 142/35/34
f 142/35/35 143/34/35 145/36/35 144/37/35
f 144/37/36 145/36/36 147/38/36 146/39/36
f 146/39/37 147/38/37 149/40/37 148/41/37
f 148/41/38 149/40/38 151/42/38 150/43/38
f 150/43/39 151/42/39 153/44/39 152/45/39
f 152/45/40 153/44/40 155/46/40 154/47/40
f 154/47/41 155/46/41 157/48/41 156/49/41
f 139/70/42 137/8/42 159/71/42 157/72/42 155/9/42 153/73/42 151/74/42 149/10/42 147/75/42 145/21/42 143/7/42 141/20/42
f 156/49/43 157/48/43 159/58/43 158/59/43
f 158/59/44 159/58/44 137/60/44 136/61/44
f 136/15/29 138/76/29 140/24/29 142/16/29 144/25/29 146/77/29 148/17/29 150/78/29 152/27/29 154/18/29 156/28/29 158/79/29
usemtl witchlight
f 160/1/32 161/2/32 163/30/32 162/31/32
f 162/31/33 163/30/33 165/32/33 164/33/33
f 164/33/34 165/32/34 167/34/34 166/35/34
f 166/35/35 167/34/35 169/36/35 168/37/35
f 168/37/36 169/36/36 171/38/36 170/39/36
f 170/39/37 171/38/37 173/40/37 172/41/37
f 172/41/38 173/40/38 175/42/38 174/43/38
f 174/43/39 175/42/39 177/44/39 176/45/39
f 176/45/40 177/44/40 179/46/40 178/47/40
f 178/47/41 179/46/41 181/48/41 180/49/41
f 163/70/42 161/8/42 183/71/42 181/72/42 179/9/42 177/73/42 175/74/42 173/10/42 171/75/42 169/21/42 167/7/42 165/20/42
f 180/49/43 181/48/43 183/58/43 182/59/43
f 182/59/44 183/58/44 161/60/44 160/61/44
f 160/15/29 162/76/29 164/24/29 166/16/29 168/25/29 170/77/29 172/17/29 174/78/29 176/27/29 178/18/29 180/28/29 182/79/29
