# Blender 5.0.1
# www.blender.org
mtllib creepy_barn.mtl
o creepy_barn
v -1.650000 0.000000 2.050000
v -1.650000 0.100000 2.050000
v -1.650000 0.000000 -2.050000
v -1.650000 0.100000 -2.050000
v 1.650000 0.000000 2.050000
v 1.650000 0.100000 2.050000
v 1.650000 0.000000 -2.050000
v 1.650000 0.100000 -2.050000
v -1.350000 0.050000 1.750000
v -1.350000 2.350000 1.750000
v -1.350000 0.050000 -1.750000
v -1.350000 2.350000 -1.750000
v 1.350000 0.050000 1.750000
v 1.350000 2.350000 1.750000
v 1.350000 0.050000 -1.750000
v 1.350000 2.350000 -1.750000
v -0.600000 0.100000 0.300000
v -0.600000 1.000000 0.300000
v -0.600000 0.100000 -0.900000
v -0.600000 1.000000 -0.900000
v 0.600000 0.100000 0.300000
v 0.600000 1.000000 0.300000
v 0.600000 0.100000 -0.900000
v 0.600000 1.000000 -0.900000
v -1.500000 0.000000 -1.810000
v -1.500000 2.400000 -1.810000
v -1.500000 0.000000 -1.990000
v -1.500000 2.400000 -1.990000
v 1.500000 0.000000 -1.810000
v 1.500000 2.400000 -1.810000
v 1.500000 0.000000 -1.990000
v 1.500000 2.400000 -1.990000
v -1.590000 0.000000 1.900000
v -1.590000 2.400000 1.900000
v -1.590000 0.000000 -1.900000
v -1.590000 2.400000 -1.900000
v -1.410000 0.000000 1.900000
v -1.410000 2.400000 1.900000
v -1.410000 0.000000 -1.900000
v -1.410000 2.400000 -1.900000
v 1.410000 0.000000 1.900000
v 1.410000 2.400000 1.900000
v 1.410000 0.000000 -1.900000
v 1.410000 2.400000 -1.900000
v 1.590000 0.000000 1.900000
v 1.590000 2.400000 1.900000
v 1.590000 0.000000 -1.900000
v 1.590000 2.400000 -1.900000
v -1.500000 0.000000 1.990000
v -1.500000 2.400000 1.990000
v -1.500000 0.000000 1.810000
v -1.500000 2.400000 1.810000
v -0.650000 0.000000 1.990000
v -0.650000 2.400000 1.990000
v -0.650000 0.000000 1.810000
v -0.650000 2.400000 1.810000
v 0.650000 0.000000 1.990000
v 0.650000 2.400000 1.990000
v 0.650000 0.000000 1.810000
v 0.650000 2.400000 1.810000
v 1.500000 0.000000 1.990000
v 1.500000 2.400000 1.990000
v 1.500000 0.000000 1.810000
v 1.500000 2.400000 1.810000
v -0.750000 1.950000 2.000000
v -0.750000 2.400000 2.000000
v -0.750000 1.950000 1.800000
v -0.750000 2.400000 1.800000
v 0.750000 1.950000 2.000000
v 0.750000 2.400000 2.000000
v 0.750000 1.950000 1.800000
v 0.750000 2.400000 1.800000
v -1.405000 0.050000 2.020000
v -1.405000 2.350000 2.020000
v -1.405000 0.050000 1.980000
v -1.405000 2.350000 1.980000
v -1.335000 0.050000 2.020000
v -1.335000 2.350000 2.020000
v -1.335000 0.050000 1.980000
v -1.335000 2.350000 1.980000
v -1.110000 0.050000 2.020000
v -1.110000 2.350000 2.020000
v -1.110000 0.050000 1.980000
v -1.110000 2.350000 1.980000
v -1.040000 0.050000 2.020000
v -1.040000 2.350000 2.020000
v -1.040000 0.050000 1.980000
v -1.040000 2.350000 1.980000
v -0.815000 0.050000 2.020000
v -0.815000 2.350000 2.020000
v -0.815000 0.050000 1.980000
v -0.815000 2.350000 1.980000
v -0.745000 0.050000 2.020000
v -0.745000 2.350000 2.020000
v -0.745000 0.050000 1.980000
v -0.745000 2.350000 1.980000
v -1.620000 0.050000 1.535000
v -1.620000 2.350000 1.535000
v -1.620000 0.050000 1.465000
v -1.620000 2.350000 1.465000
v -1.580000 0.050000 1.535000
v -1.580000 2.350000 1.535000
v -1.580000 0.050000 1.465000
v -1.580000 2.350000 1.465000
v -1.620000 0.050000 0.785000
v -1.620000 2.350000 0.785000
v -1.620000 0.050000 0.715000
v -1.620000 2.350000 0.715000
v -1.580000 0.050000 0.785000
v -1.580000 2.350000 0.785000
v -1.580000 0.050000 0.715000
v -1.580000 2.350000 0.715000
v -1.620000 0.050000 0.035000
v -1.620000 2.350000 0.035000
v -1.620000 0.050000 -0.035000
v -1.620000 2.350000 -0.035000
v -1.580000 0.050000 0.035000
v -1.580000 2.350000 0.035000
v -1.580000 0.050000 -0.035000
v -1.580000 2.350000 -0.035000
v -1.620000 0.050000 -0.715000
v -1.620000 2.350000 -0.715000
v -1.620000 0.050000 -0.785000
v -1.620000 2.350000 -0.785000
v -1.580000 0.050000 -0.715000
v -1.580000 2.350000 -0.715000
v -1.580000 0.050000 -0.785000
v -1.580000 2.350000 -0.785000
v -1.620000 0.050000 -1.465000
v -1.620000 2.350000 -1.465000
v -1.620000 0.050000 -1.535000
v -1.620000 2.350000 -1.535000
v -1.580000 0.050000 -1.465000
v -1.580000 2.350000 -1.465000
v -1.580000 0.050000 -1.535000
v -1.580000 2.350000 -1.535000
v 0.745000 0.050000 2.020000
v 0.745000 2.350000 2.020000
v 0.745000 0.050000 1.980000
v 0.745000 2.350000 1.980000
v 0.815000 0.050000 2.020000
v 0.815000 2.350000 2.020000
v 0.815000 0.050000 1.980000
v 0.815000 2.350000 1.980000
v 1.040000 0.050000 2.020000
v 1.040000 2.350000 2.020000
v 1.040000 0.050000 1.980000
v 1.040000 2.350000 1.980000
v 1.110000 0.050000 2.020000
v 1.110000 2.350000 2.020000
v 1.110000 0.050000 1.980000
v 1.110000 2.350000 1.980000
v 1.335000 0.050000 2.020000
v 1.335000 2.350000 2.020000
v 1.335000 0.050000 1.980000
v 1.335000 2.350000 1.980000
v 1.405000 0.050000 2.020000
v 1.405000 2.350000 2.020000
v 1.405000 0.050000 1.980000
v 1.405000 2.350000 1.980000
v 1.580000 0.050000 1.535000
v 1.580000 2.350000 1.535000
v 1.580000 0.050000 1.465000
v 1.580000 2.350000 1.465000
v 1.620000 0.050000 1.535000
v 1.620000 2.350000 1.535000
v 1.620000 0.050000 1.465000
v 1.620000 2.350000 1.465000
v 1.580000 0.050000 0.785000
v 1.580000 2.350000 0.785000
v 1.580000 0.050000 0.715000
v 1.580000 2.350000 0.715000
v 1.620000 0.050000 0.785000
v 1.620000 2.350000 0.785000
v 1.620000 0.050000 0.715000
v 1.620000 2.350000 0.715000
v 1.580000 0.050000 0.035000
v 1.580000 2.350000 0.035000
v 1.580000 0.050000 -0.035000
v 1.580000 2.350000 -0.035000
v 1.620000 0.050000 0.035000
v 1.620000 2.350000 0.035000
v 1.620000 0.050000 -0.035000
v 1.620000 2.350000 -0.035000
v 1.580000 0.050000 -0.715000
v 1.580000 2.350000 -0.715000
v 1.580000 0.050000 -0.785000
v 1.580000 2.350000 -0.785000
v 1.620000 0.050000 -0.715000
v 1.620000 2.350000 -0.715000
v 1.620000 0.050000 -0.785000
v 1.620000 2.350000 -0.785000
v 1.580000 0.050000 -1.465000
v 1.580000 2.350000 -1.465000
v 1.580000 0.050000 -1.535000
v 1.580000 2.350000 -1.535000
v 1.620000 0.050000 -1.465000
v 1.620000 2.350000 -1.465000
v 1.620000 0.050000 -1.535000
v 1.620000 2.350000 -1.535000
v 1.525000 0.640000 0.685000
v 1.525000 1.360000 0.685000
v 1.525000 0.640000 0.065000
v 1.525000 1.360000 0.065000
v 1.575000 0.640000 0.685000
v 1.575000 1.360000 0.685000
v 1.575000 0.640000 0.065000
v 1.575000 1.360000 0.065000
v 1.550000 0.700000 0.625000
v 1.550000 1.300000 0.625000
v 1.550000 0.700000 0.125000
v 1.550000 1.300000 0.125000
v 1.590000 0.700000 0.625000
v 1.590000 1.300000 0.625000
v 1.590000 0.700000 0.125000
v 1.590000 1.300000 0.125000
v 1.515000 1.250000 0.705000
v 1.515000 1.750000 0.705000
v 1.515000 1.250000 0.045000
v 1.515000 1.750000 0.045000
v 1.565000 1.250000 0.705000
v 1.565000 1.750000 0.705000
v 1.565000 1.250000 0.045000
v 1.565000 1.750000 0.045000
v -0.640000 0.050000 1.975000
v -0.640000 2.000000 1.975000
v -0.640000 0.050000 1.905000
v -0.640000 2.000000 1.905000
v -0.040000 0.050000 1.975000
v -0.040000 2.000000 1.975000
v -0.040000 0.050000 1.905000
v -0.040000 2.000000 1.905000
v -0.640000 0.115000 2.025000
v -0.640000 0.205000 2.025000
v -0.640000 0.115000 1.975000
v -0.640000 0.205000 1.975000
v -0.040000 0.115000 2.025000
v -0.040000 0.205000 2.025000
v -0.040000 0.115000 1.975000
v -0.040000 0.205000 1.975000
v -0.640000 1.865000 2.025000
v -0.640000 1.955000 2.025000
v -0.640000 1.865000 1.975000
v -0.640000 1.955000 1.975000
v -0.040000 1.865000 2.025000
v -0.040000 1.955000 2.025000
v -0.040000 1.865000 1.975000
v -0.040000 1.955000 1.975000
v -0.635000 0.050000 2.025000
v -0.635000 2.000000 2.025000
v -0.635000 0.050000 1.975000
v -0.635000 2.000000 1.975000
v -0.565000 0.050000 2.025000
v -0.565000 2.000000 2.025000
v -0.565000 0.050000 1.975000
v -0.565000 2.000000 1.975000
v -0.115000 0.050000 2.025000
v -0.115000 2.000000 2.025000
v -0.115000 0.050000 1.975000
v -0.115000 2.000000 1.975000
v -0.045000 0.050000 2.025000
v -0.045000 2.000000 2.025000
v -0.045000 0.050000 1.975000
v -0.045000 2.000000 1.975000
v -0.673147 1.898763 2.045000
v -0.606853 1.921236 2.045000
v -0.673147 1.898763 1.995000
v -0.606853 1.921236 1.995000
v -0.073147 0.128764 2.045000
v -0.006853 0.151236 2.045000
v -0.073147 0.128764 1.995000
v -0.006853 0.151236 1.995000
v -0.606853 0.128764 2.045000
v -0.673147 0.151236 2.045000
v -0.606853 0.128764 1.995000
v -0.673147 0.151236 1.995000
v -0.006853 1.898763 2.045000
v -0.073147 1.921236 2.045000
v -0.006853 1.898763 1.995000
v -0.073147 1.921236 1.995000
v 0.040000 0.050000 1.975000
v 0.040000 2.000000 1.975000
v 0.040000 0.050000 1.905000
v 0.040000 2.000000 1.905000
v 0.640000 0.050000 1.975000
v 0.640000 2.000000 1.975000
v 0.640000 0.050000 1.905000
v 0.640000 2.000000 1.905000
v 0.040000 0.115000 2.025000
v 0.040000 0.205000 2.025000
v 0.040000 0.115000 1.975000
v 0.040000 0.205000 1.975000
v 0.640000 0.115000 2.025000
v 0.640000 0.205000 2.025000
v 0.640000 0.115000 1.975000
v 0.640000 0.205000 1.975000
v 0.040000 1.865000 2.025000
v 0.040000 1.955000 2.025000
v 0.040000 1.865000 1.975000
v 0.040000 1.955000 1.975000
v 0.640000 1.865000 2.025000
v 0.640000 1.955000 2.025000
v 0.640000 1.865000 1.975000
v 0.640000 1.955000 1.975000
v 0.045000 0.050000 2.025000
v 0.045000 2.000000 2.025000
v 0.045000 0.050000 1.975000
v 0.045000 2.000000 1.975000
v 0.115000 0.050000 2.025000
v 0.115000 2.000000 2.025000
v 0.115000 0.050000 1.975000
v 0.115000 2.000000 1.975000
v 0.565000 0.050000 2.025000
v 0.565000 2.000000 2.025000
v 0.565000 0.050000 1.975000
v 0.565000 2.000000 1.975000
v 0.635000 0.050000 2.025000
v 0.635000 2.000000 2.025000
v 0.635000 0.050000 1.975000
v 0.635000 2.000000 1.975000
v 0.006853 1.898763 2.045000
v 0.073147 1.921236 2.045000
v 0.006853 1.898763 1.995000
v 0.073147 1.921236 1.995000
v 0.606853 0.128764 2.045000
v 0.673147 0.151236 2.045000
v 0.606853 0.128764 1.995000
v 0.673147 0.151236 1.995000
v 0.073147 0.128764 2.045000
v 0.006853 0.151236 2.045000
v 0.073147 0.128764 1.995000
v 0.006853 0.151236 1.995000
v 0.673147 1.898763 2.045000
v 0.606853 1.921236 2.045000
v 0.673147 1.898763 1.995000
v 0.606853 1.921236 1.995000
v -0.720000 0.050000 1.980000
v -0.720000 2.000000 1.980000
v -0.720000 0.050000 1.860000
v -0.720000 2.000000 1.860000
v -0.620000 0.050000 1.980000
v -0.620000 2.000000 1.980000
v -0.620000 0.050000 1.860000
v -0.620000 2.000000 1.860000
v 0.620000 0.050000 1.980000
v 0.620000 2.000000 1.980000
v 0.620000 0.050000 1.860000
v 0.620000 2.000000 1.860000
v 0.720000 0.050000 1.980000
v 0.720000 2.000000 1.980000
v 0.720000 0.050000 1.860000
v 0.720000 2.000000 1.860000
v -0.800000 1.750000 1.990000
v -0.800000 2.450000 1.990000
v -0.800000 1.750000 1.890000
v -0.800000 2.450000 1.890000
v 0.800000 1.750000 1.990000
v 0.800000 2.450000 1.990000
v 0.800000 1.750000 1.890000
v 0.800000 2.450000 1.890000
v -1.155000 0.450000 2.050000
v -1.155000 2.150000 2.050000
v -1.155000 0.450000 1.990000
v -1.155000 2.150000 1.990000
v -0.995000 0.450000 2.050000
v -0.995000 2.150000 2.050000
v -0.995000 0.450000 1.990000
v -0.995000 2.150000 1.990000
v 0.970000 0.920000 2.020000
v 1.064068 0.991862 2.088344
v 0.934070 0.991862 2.130583
v 0.853725 0.991862 2.020000
v 0.934070 0.991862 1.909417
v 1.064068 0.991862 1.951656
v 1.005930 1.108138 2.130583
v 0.875932 1.108138 2.088344
v 0.875932 1.108138 1.951656
v 1.005930 1.108138 1.909417
v 1.086275 1.108138 2.020000
v 0.970000 1.180000 2.020000
v 0.872500 0.903750 2.117500
v 0.872500 1.053250 2.117500
v 0.872500 0.903750 1.987500
v 0.872500 1.053250 1.987500
v 1.067500 0.903750 2.117500
v 1.067500 1.053250 2.117500
v 1.067500 0.903750 1.987500
v 1.067500 1.053250 1.987500
v 0.892000 0.881000 2.127250
v 0.892000 0.946000 2.127250
v 0.892000 0.881000 2.016750
v 0.892000 0.946000 2.016750
v 1.048000 0.881000 2.127250
v 1.048000 0.946000 2.127250
v 1.048000 0.881000 2.016750
v 1.048000 0.946000 2.016750
v 0.888100 0.987600 2.148700
v 0.888100 1.039600 2.148700
v 0.888100 0.987600 2.094100
v 0.888100 1.039600 2.094100
v 0.942700 0.987600 2.148700
v 0.942700 1.039600 2.148700
v 0.942700 0.987600 2.094100
v 0.942700 1.039600 2.094100
v 0.997300 0.987600 2.148700
v 0.997300 1.039600 2.148700
v 0.997300 0.987600 2.094100
v 0.997300 1.039600 2.094100
v 1.051900 0.987600 2.148700
v 1.051900 1.039600 2.148700
v 1.051900 0.987600 2.094100
v 1.051900 1.039600 2.094100
v 0.954400 0.943400 2.148700
v 0.954400 0.985000 2.148700
v 0.954400 0.943400 2.104500
v 0.954400 0.985000 2.104500
v 0.985600 0.943400 2.148700
v 0.985600 0.985000 2.148700
v 0.985600 0.943400 2.104500
v 0.985600 0.985000 2.104500
v 0.908250 0.887500 2.137000
v 0.908250 0.939500 2.137000
v 0.908250 0.887500 2.111000
v 0.908250 0.939500 2.111000
v 0.914750 0.887500 2.137000
v 0.914750 0.939500 2.137000
v 0.914750 0.887500 2.111000
v 0.914750 0.939500 2.111000
v 0.947250 0.887500 2.137000
v 0.947250 0.939500 2.137000
v 0.947250 0.887500 2.111000
v 0.947250 0.939500 2.111000
v 0.953750 0.887500 2.137000
v 0.953750 0.939500 2.137000
v 0.953750 0.887500 2.111000
v 0.953750 0.939500 2.111000
v 0.986250 0.887500 2.137000
v 0.986250 0.939500 2.137000
v 0.986250 0.887500 2.111000
v 0.986250 0.939500 2.111000
v 0.992750 0.887500 2.137000
v 0.992750 0.939500 2.137000
v 0.992750 0.887500 2.111000
v 0.992750 0.939500 2.111000
v 1.025250 0.887500 2.137000
v 1.025250 0.939500 2.137000
v 1.025250 0.887500 2.111000
v 1.025250 0.939500 2.111000
v 1.031750 0.887500 2.137000
v 1.031750 0.939500 2.137000
v 1.031750 0.887500 2.111000
v 1.031750 0.939500 2.111000
v -1.650000 2.400000 2.050000
v 1.650000 2.400000 2.050000
v 0.000000 3.900000 2.050000
v -1.650000 2.400000 -2.050000
v 1.650000 2.400000 -2.050000
v 0.000000 3.900000 -2.050000
v -0.060000 3.840000 2.100000
v -0.060000 3.960000 2.100000
v -0.060000 3.840000 -2.100000
v -0.060000 3.960000 -2.100000
v 0.060000 3.840000 2.100000
v 0.060000 3.960000 2.100000
v 0.060000 3.840000 -2.100000
v 0.060000 3.960000 -2.100000
v -1.710000 2.370000 2.100000
v -1.710000 2.510000 2.100000
v -1.710000 2.370000 -2.100000
v -1.710000 2.510000 -2.100000
v -1.610000 2.370000 2.100000
v -1.610000 2.510000 2.100000
v -1.610000 2.370000 -2.100000
v -1.610000 2.510000 -2.100000
v -1.721398 2.237336 1.630000
v -1.761546 2.281924 1.630000
v -1.721398 2.237336 1.570000
v -1.761546 2.281924 1.570000
v -1.498454 2.438075 1.630000
v -1.538602 2.482664 1.630000
v -1.498454 2.438075 1.570000
v -1.538602 2.482664 1.570000
v -1.721398 2.237336 0.990000
v -1.761546 2.281924 0.990000
v -1.721398 2.237336 0.930000
v -1.761546 2.281924 0.930000
v -1.498454 2.438075 0.990000
v -1.538602 2.482664 0.990000
v -1.498454 2.438075 0.930000
v -1.538602 2.482664 0.930000
v -1.721398 2.237336 0.350000
v -1.761546 2.281924 0.350000
v -1.721398 2.237336 0.290000
v -1.761546 2.281924 0.290000
v -1.498454 2.438075 0.350000
v -1.538602 2.482664 0.350000
v -1.498454 2.438075 0.290000
v -1.538602 2.482664 0.290000
v -1.721398 2.237336 -0.290000
v -1.761546 2.281924 -0.290000
v -1.721398 2.237336 -0.350000
v -1.761546 2.281924 -0.350000
v -1.498454 2.438075 -0.290000
v -1.538602 2.482664 -0.290000
v -1.498454 2.438075 -0.350000
v -1.538602 2.482664 -0.350000
v -1.721398 2.237336 -0.930000
v -1.761546 2.281924 -0.930000
v -1.721398 2.237336 -0.990000
v -1.761546 2.281924 -0.990000
v -1.498454 2.438075 -0.930000
v -1.538602 2.482664 -0.930000
v -1.498454 2.438075 -0.990000
v -1.538602 2.482664 -0.990000
v -1.721398 2.237336 -1.570000
v -1.761546 2.281924 -1.570000
v -1.721398 2.237336 -1.630000
v -1.761546 2.281924 -1.630000
v -1.498454 2.438075 -1.570000
v -1.538602 2.482664 -1.570000
v -1.498454 2.438075 -1.630000
v -1.538602 2.482664 -1.630000
v 1.610000 2.370000 2.100000
v 1.610000 2.510000 2.100000
v 1.610000 2.370000 -2.100000
v 1.610000 2.510000 -2.100000
v 1.710000 2.370000 2.100000
v 1.710000 2.510000 2.100000
v 1.710000 2.370000 -2.100000
v 1.710000 2.510000 -2.100000
v 1.498454 2.438075 1.630000
v 1.538602 2.482664 1.630000
v 1.498454 2.438075 1.570000
v 1.538602 2.482664 1.570000
v 1.721398 2.237336 1.630000
v 1.761546 2.281924 1.630000
v 1.721398 2.237336 1.570000
v 1.761546 2.281924 1.570000
v 1.498454 2.438075 0.990000
v 1.538602 2.482664 0.990000
v 1.498454 2.438075 0.930000
v 1.538602 2.482664 0.930000
v 1.721398 2.237336 0.990000
v 1.761546 2.281924 0.990000
v 1.721398 2.237336 0.930000
v 1.761546 2.281924 0.930000
v 1.498454 2.438075 0.350000
v 1.538602 2.482664 0.350000
v 1.498454 2.438075 0.290000
v 1.538602 2.482664 0.290000
v 1.721398 2.237336 0.350000
v 1.761546 2.281924 0.350000
v 1.721398 2.237336 0.290000
v 1.761546 2.281924 0.290000
v 1.498454 2.438075 -0.290000
v 1.538602 2.482664 -0.290000
v 1.498454 2.438075 -0.350000
v 1.538602 2.482664 -0.350000
v 1.721398 2.237336 -0.290000
v 1.761546 2.281924 -0.290000
v 1.721398 2.237336 -0.350000
v 1.761546 2.281924 -0.350000
v 1.498454 2.438075 -0.930000
v 1.538602 2.482664 -0.930000
v 1.498454 2.438075 -0.990000
v 1.538602 2.482664 -0.990000
v 1.721398 2.237336 -0.930000
v 1.761546 2.281924 -0.930000
v 1.721398 2.237336 -0.990000
v 1.761546 2.281924 -0.990000
v 1.498454 2.438075 -1.570000
v 1.538602 2.482664 -1.570000
v 1.498454 2.438075 -1.630000
v 1.538602 2.482664 -1.630000
v 1.721398 2.237336 -1.570000
v 1.761546 2.281924 -1.570000
v 1.721398 2.237336 -1.630000
v 1.761546 2.281924 -1.630000
v -0.400000 2.500000 2.000000
v -0.400000 3.300000 2.000000
v -0.400000 2.500000 1.860000
v -0.400000 3.300000 1.860000
v 0.400000 2.500000 2.000000
v 0.400000 3.300000 2.000000
v 0.400000 2.500000 1.860000
v 0.400000 3.300000 1.860000
v -0.250000 2.650000 2.080000
v -0.250000 3.150000 2.080000
v -0.250000 2.650000 2.030000
v -0.250000 3.150000 2.030000
v 0.250000 2.650000 2.080000
v 0.250000 3.150000 2.080000
v 0.250000 2.650000 2.030000
v 0.250000 3.150000 2.030000
v -0.060000 3.340000 2.850000
v -0.060000 3.460000 2.850000
v -0.060000 3.340000 2.050000
v -0.060000 3.460000 2.050000
v 0.060000 3.340000 2.850000
v 0.060000 3.460000 2.850000
v 0.060000 3.340000 2.050000
v 0.060000 3.460000 2.050000
v -0.170000 2.895000 2.685000
v -0.170000 3.445000 2.685000
v -0.170000 2.895000 2.655000
v -0.170000 3.445000 2.655000
v 0.170000 2.895000 2.685000
v 0.170000 3.445000 2.685000
v 0.170000 2.895000 2.655000
v 0.170000 3.445000 2.655000
vn -1.0000 -0.0000 -0.0000
vn -0.0000 -0.0000 -1.0000
vn 1.0000 -0.0000 -0.0000
vn -0.0000 -0.0000 1.0000
vn -0.0000 -1.0000 -0.0000
vn -0.0000 1.0000 -0.0000
vn -0.3210 0.9471 -0.0000
vn 0.3210 -0.9471 -0.0000
vn -0.9471 -0.3210 -0.0000
vn 0.9471 0.3210 -0.0000
vn -0.3210 -0.9471 -0.0000
vn 0.3210 0.9471 -0.0000
vn 0.9471 -0.3210 -0.0000
vn -0.9471 0.3210 -0.0000
vn 0.1876 -0.7947 0.5774
vn 0.6071 -0.7947 -0.0000
vn -0.4911 -0.7947 0.3568
vn -0.4911 -0.7947 -0.3568
vn 0.1876 -0.7947 -0.5774
vn 0.9822 -0.1876 -0.0000
vn 0.3035 -0.1876 0.9342
vn -0.7946 -0.1876 0.5774
vn -0.7946 -0.1876 -0.5774
vn 0.3035 -0.1876 -0.9342
vn 0.7946 0.1876 0.5774
vn -0.3035 0.1876 0.9342
vn -0.9822 0.1876 -0.0000
vn -0.3035 0.1876 -0.9342
vn 0.7946 0.1876 -0.5774
vn 0.4911 0.7947 0.3568
vn -0.1876 0.7947 0.5774
vn -0.6071 0.7947 -0.0000
vn -0.1876 0.7947 -0.5774
vn 0.4911 0.7947 -0.3568
vn -0.6727 0.7399 -0.0000
vn 0.6727 0.7399 -0.0000
vn -0.7431 -0.6691 -0.0000
vn 0.7431 0.6691 -0.0000
vn 0.6691 -0.7431 -0.0000
vn -0.6691 0.7431 -0.0000
vn -0.7431 0.6691 -0.0000
vn 0.7431 -0.6691 -0.0000
vn -0.6691 -0.7431 -0.0000
vn 0.6691 0.7431 -0.0000
vt 0.375000 0.000000
vt 0.625000 0.000000
vt 0.625000 0.250000
vt 0.375000 0.250000
vt 0.625000 0.500000
vt 0.375000 0.500000
vt 0.625000 0.750000
vt 0.375000 0.750000
vt 0.625000 1.000000
vt 0.375000 1.000000
vt 0.125000 0.500000
vt 0.125000 0.750000
vt 0.875000 0.500000
vt 0.875000 0.750000
vt 0.181819 0.000000
vt 0.272728 0.157461
vt 0.090910 0.157461
vt 0.363637 0.000000
vt 0.454546 0.157461
vt 0.909091 0.000000
vt 1.000000 0.157461
vt 0.818182 0.157461
vt 0.727273 0.000000
vt 0.636364 0.157461
vt 0.545455 0.000000
vt 0.363637 0.314921
vt 0.181819 0.314921
vt 0.909091 0.314921
vt 0.727273 0.314921
vt 0.545455 0.314921
vt 0.000000 0.314921
vt 0.272728 0.472382
vt 0.090910 0.472382
vt 0.818182 0.472382
vt 0.636364 0.472382
vt 0.454546 0.472382
vt 0.000000 0.000000
s 0
usemtl rot
f 1/1/1 2/2/1 4/3/1 3/4/1
f 3/4/2 4/3/2 8/5/2 7/6/2
f 7/6/3 8/5/3 6/7/3 5/8/3
f 5/8/4 6/7/4 2/9/4 1/10/4
f 3/11/5 7/6/5 5/8/5 1/12/5
f 8/5/6 4/13/6 2/14/6 6/7/6
usemtl shroud
f 9/1/1 10/2/1 12/3/1 11/4/1
f 11/4/2 12/3/2 16/5/2 15/6/2
f 15/6/3 16/5/3 14/7/3 13/8/3
f 13/8/4 14/7/4 10/9/4 9/10/4
f 11/11/5 15/6/5 13/8/5 9/12/5
f 16/5/6 12/13/6 10/14/6 14/7/6
usemtl ember
f 17/1/1 18/2/1 20/3/1 19/4/1
f 19/4/2 20/3/2 24/5/2 23/6/2
f 23/6/3 24/5/3 22/7/3 21/8/3
f 21/8/4 22/7/4 18/9/4 17/10/4
f 19/11/5 23/6/5 21/8/5 17/12/5
f 24/5/6 20/13/6 18/14/6 22/7/6
f 209/1/1 210/2/1 212/3/1 211/4/1
f 211/4/2 212/3/2 216/5/2 215/6/2
f 215/6/3 216/5/3 214/7/3 213/8/3
f 213/8/4 214/7/4 210/9/4 209/10/4
f 211/11/5 215/6/5 213/8/5 209/12/5
f 216/5/6 212/13/6 210/14/6 214/7/6
f 587/1/1 588/2/1 590/3/1 589/4/1
f 589/4/2 590/3/2 594/5/2 593/6/2
f 593/6/3 594/5/3 592/7/3 591/8/3
f 591/8/4 592/7/4 588/9/4 587/10/4
f 589/11/5 593/6/5 591/8/5 587/12/5
f 594/5/6 590/13/6 588/14/6 592/7/6
usemtl charwood
f 25/1/1 26/2/1 28/3/1 27/4/1
f 27/4/2 28/3/2 32/5/2 31/6/2
f 31/6/3 32/5/3 30/7/3 29/8/3
f 29/8/4 30/7/4 26/9/4 25/10/4
f 27/11/5 31/6/5 29/8/5 25/12/5
f 32/5/6 28/13/6 26/14/6 30/7/6
f 33/1/1 34/2/1 36/3/1 35/4/1
f 35/4/2 36/3/2 40/5/2 39/6/2
f 39/6/3 40/5/3 38/7/3 37/8/3
f 37/8/4 38/7/4 34/9/4 33/10/4
f 35/11/5 39/6/5 37/8/5 33/12/5
f 40/5/6 36/13/6 34/14/6 38/7/6
f 41/1/1 42/2/1 44/3/1 43/4/1
f 43/4/2 44/3/2 48/5/2 47/6/2
f 47/6/3 48/5/3 46/7/3 45/8/3
f 45/8/4 46/7/4 42/9/4 41/10/4
f 43/11/5 47/6/5 45/8/5 41/12/5
f 48/5/6 44/13/6 42/14/6 46/7/6
f 49/1/1 50/2/1 52/3/1 51/4/1
f 51/4/2 52/3/2 56/5/2 55/6/2
f 55/6/3 56/5/3 54/7/3 53/8/3
f 53/8/4 54/7/4 50/9/4 49/10/4
f 51/11/5 55/6/5 53/8/5 49/12/5
f 56/5/6 52/13/6 50/14/6 54/7/6
f 57/1/1 58/2/1 60/3/1 59/4/1
f 59/4/2 60/3/2 64/5/2 63/6/2
f 63/6/3 64/5/3 62/7/3 61/8/3
f 61/8/4 62/7/4 58/9/4 57/10/4
f 59/11/5 63/6/5 61/8/5 57/12/5
f 64/5/6 60/13/6 58/14/6 62/7/6
f 65/1/1 66/2/1 68/3/1 67/4/1
f 67/4/2 68/3/2 72/5/2 71/6/2
f 71/6/3 72/5/3 70/7/3 69/8/3
f 69/8/4 70/7/4 66/9/4 65/10/4
f 67/11/5 71/6/5 69/8/5 65/12/5
f 72/5/6 68/13/6 66/14/6 70/7/6
f 459/1/1 460/2/1 462/3/1 461/4/1
f 461/4/2 462/3/2 466/5/2 465/6/2
f 465/6/3 466/5/3 464/7/3 463/8/3
f 463/8/4 464/7/4 460/9/4 459/10/4
f 461/11/5 465/6/5 463/8/5 459/12/5
f 466/5/6 462/13/6 460/14/6 464/7/6
f 467/1/1 468/2/1 470/3/1 469/4/1
f 469/4/2 470/3/2 474/5/2 473/6/2
f 473/6/3 474/5/3 472/7/3 471/8/3
f 471/8/4 472/7/4 468/9/4 467/10/4
f 469/11/5 473/6/5 471/8/5 467/12/5
f 474/5/6 470/13/6 468/14/6 472/7/6
f 475/1/37 476/2/37 478/3/37 477/4/37
f 477/4/2 478/3/2 482/5/2 481/6/2
f 481/6/38 482/5/38 480/7/38 479/8/38
f 479/8/4 480/7/4 476/9/4 475/10/4
f 477/11/39 481/6/39 479/8/39 475/12/39
f 482/5/40 478/13/40 476/14/40 480/7/40
f 483/1/37 484/2/37 486/3/37 485/4/37
f 485/4/2 486/3/2 490/5/2 489/6/2
f 489/6/38 490/5/38 488/7/38 487/8/38
f 487/8/4 488/7/4 484/9/4 483/10/4
f 485/11/39 489/6/39 487/8/39 483/12/39
f 490/5/40 486/13/40 484/14/40 488/7/40
f 491/1/37 492/2/37 494/3/37 493/4/37
f 493/4/2 494/3/2 498/5/2 497/6/2
f 497/6/38 498/5/38 496/7/38 495/8/38
f 495/8/4 496/7/4 492/9/4 491/10/4
f 493/11/39 497/6/39 495/8/39 491/12/39
f 498/5/40 494/13/40 492/14/40 496/7/40
f 499/1/37 500/2/37 502/3/37 501/4/37
f 501/4/2 502/3/2 506/5/2 505/6/2
f 505/6/38 506/5/38 504/7/38 503/8/38
f 503/8/4 504/7/4 500/9/4 499/10/4
f 501/11/39 505/6/39 503/8/39 499/12/39
f 506/5/40 502/13/40 500/14/40 504/7/40
f 507/1/37 508/2/37 510/3/37 509/4/37
f 509/4/2 510/3/2 514/5/2 513/6/2
f 513/6/38 514/5/38 512/7/38 511/8/38
f 511/8/4 512/7/4 508/9/4 507/10/4
f 509/11/39 513/6/39 511/8/39 507/12/39
f 514/5/40 510/13/40 508/14/40 512/7/40
f 515/1/37 516/2/37 518/3/37 517/4/37
f 517/4/2 518/3/2 522/5/2 521/6/2
f 521/6/38 522/5/38 520/7/38 519/8/38
f 519/8/4 520/7/4 516/9/4 515/10/4
f 517/11/39 521/6/39 519/8/39 515/12/39
f 522/5/40 518/13/40 516/14/40 520/7/40
f 523/1/1 524/2/1 526/3/1 525/4/1
f 525/4/2 526/3/2 530/5/2 529/6/2
f 529/6/3 530/5/3 528/7/3 527/8/3
f 527/8/4 528/7/4 524/9/4 523/10/4
f 525/11/5 529/6/5 527/8/5 523/12/5
f 530/5/6 526/13/6 524/14/6 528/7/6
f 531/1/41 532/2/41 534/3/41 533/4/41
f 533/4/2 534/3/2 538/5/2 537/6/2
f 537/6/42 538/5/42 536/7/42 535/8/42
f 535/8/4 536/7/4 532/9/4 531/10/4
f 533/11/43 537/6/43 535/8/43 531/12/43
f 538/5/44 534/13/44 532/14/44 536/7/44
f 539/1/41 540/2/41 542/3/41 541/4/41
f 541/4/2 542/3/2 546/5/2 545/6/2
f 545/6/42 546/5/42 544/7/42 543/8/42
f 543/8/4 544/7/4 540/9/4 539/10/4
f 541/11/43 545/6/43 543/8/43 539/12/43
f 546/5/44 542/13/44 540/14/44 544/7/44
f 547/1/41 548/2/41 550/3/41 549/4/41
f 549/4/2 550/3/2 554/5/2 553/6/2
f 553/6/42 554/5/42 552/7/42 551/8/42
f 551/8/4 552/7/4 548/9/4 547/10/4
f 549/11/43 553/6/43 551/8/43 547/12/43
f 554/5/44 550/13/44 548/14/44 552/7/44
f 555/1/41 556/2/41 558/3/41 557/4/41
f 557/4/2 558/3/2 562/5/2 561/6/2
f 561/6/42 562/5/42 560/7/42 559/8/42
f 559/8/4 560/7/4 556/9/4 555/10/4
f 557/11/43 561/6/43 559/8/43 555/12/43
f 562/5/44 558/13/44 556/14/44 560/7/44
f 563/1/41 564/2/41 566/3/41 565/4/41
f 565/4/2 566/3/2 570/5/2 569/6/2
f 569/6/42 570/5/42 568/7/42 567/8/42
f 567/8/4 568/7/4 564/9/4 563/10/4
f 565/11/43 569/6/43 567/8/43 563/12/43
f 570/5/44 566/13/44 564/14/44 568/7/44
f 571/1/41 572/2/41 574/3/41 573/4/41
f 573/4/2 574/3/2 578/5/2 577/6/2
f 577/6/42 578/5/42 576/7/42 575/8/42
f 575/8/4 576/7/4 572/9/4 571/10/4
f 573/11/43 577/6/43 575/8/43 571/12/43
f 578/5/44 574/13/44 572/14/44 576/7/44
f 579/1/1 580/2/1 582/3/1 581/4/1
f 581/4/2 582/3/2 586/5/2 585/6/2
f 585/6/3 586/5/3 584/7/3 583/8/3
f 583/8/4 584/7/4 580/9/4 579/10/4
f 581/11/5 585/6/5 583/8/5 579/12/5
f 586/5/6 582/13/6 580/14/6 584/7/6
usemtl wood_dk
f 73/1/1 74/2/1 76/3/1 75/4/1
f 75/4/2 76/3/2 80/5/2 79/6/2
f 79/6/3 80/5/3 78/7/3 77/8/3
f 77/8/4 78/7/4 74/9/4 73/10/4
f 75/11/5 79/6/5 77/8/5 73/12/5
f 80/5/6 76/13/6 74/14/6 78/7/6
f 81/1/1 82/2/1 84/3/1 83/4/1
f 83/4/2 84/3/2 88/5/2 87/6/2
f 87/6/3 88/5/3 86/7/3 85/8/3
f 85/8/4 86/7/4 82/9/4 81/10/4
f 83/11/5 87/6/5 85/8/5 81/12/5
f 88/5/6 84/13/6 82/14/6 86/7/6
f 89/1/1 90/2/1 92/3/1 91/4/1
f 91/4/2 92/3/2 96/5/2 95/6/2
f 95/6/3 96/5/3 94/7/3 93/8/3
f 93/8/4 94/7/4 90/9/4 89/10/4
f 91/11/5 95/6/5 93/8/5 89/12/5
f 96/5/6 92/13/6 90/14/6 94/7/6
f 97/1/1 98/2/1 100/3/1 99/4/1
f 99/4/2 100/3/2 104/5/2 103/6/2
f 103/6/3 104/5/3 102/7/3 101/8/3
f 101/8/4 102/7/4 98/9/4 97/10/4
f 99/11/5 103/6/5 101/8/5 97/12/5
f 104/5/6 100/13/6 98/14/6 102/7/6
f 105/1/1 106/2/1 108/3/1 107/4/1
f 107/4/2 108/3/2 112/5/2 111/6/2
f 111/6/3 112/5/3 110/7/3 109/8/3
f 109/8/4 110/7/4 106/9/4 105/10/4
f 107/11/5 111/6/5 109/8/5 105/12/5
f 112/5/6 108/13/6 106/14/6 110/7/6
f 113/1/1 114/2/1 116/3/1 115/4/1
f 115/4/2 116/3/2 120/5/2 119/6/2
f 119/6/3 120/5/3 118/7/3 117/8/3
f 117/8/4 118/7/4 114/9/4 113/10/4
f 115/11/5 119/6/5 117/8/5 113/12/5
f 120/5/6 116/13/6 114/14/6 118/7/6
f 121/1/1 122/2/1 124/3/1 123/4/1
f 123/4/2 124/3/2 128/5/2 127/6/2
f 127/6/3 128/5/3 126/7/3 125/8/3
f 125/8/4 126/7/4 122/9/4 121/10/4
f 123/11/5 127/6/5 125/8/5 121/12/5
f 128/5/6 124/13/6 122/14/6 126/7/6
f 129/1/1 130/2/1 132/3/1 131/4/1
f 131/4/2 132/3/2 136/5/2 135/6/2
f 135/6/3 136/5/3 134/7/3 133/8/3
f 133/8/4 134/7/4 130/9/4 129/10/4
f 131/11/5 135/6/5 133/8/5 129/12/5
f 136/5/6 132/13/6 130/14/6 134/7/6
f 137/1/1 138/2/1 140/3/1 139/4/1
f 139/4/2 140/3/2 144/5/2 143/6/2
f 143/6/3 144/5/3 142/7/3 141/8/3
f 141/8/4 142/7/4 138/9/4 137/10/4
f 139/11/5 143/6/5 141/8/5 137/12/5
f 144/5/6 140/13/6 138/14/6 142/7/6
f 145/1/1 146/2/1 148/3/1 147/4/1
f 147/4/2 148/3/2 152/5/2 151/6/2
f 151/6/3 152/5/3 150/7/3 149/8/3
f 149/8/4 150/7/4 146/9/4 145/10/4
f 147/11/5 151/6/5 149/8/5 145/12/5
f 152/5/6 148/13/6 146/14/6 150/7/6
f 153/1/1 154/2/1 156/3/1 155/4/1
f 155/4/2 156/3/2 160/5/2 159/6/2
f 159/6/3 160/5/3 158/7/3 157/8/3
f 157/8/4 158/7/4 154/9/4 153/10/4
f 155/11/5 159/6/5 157/8/5 153/12/5
f 160/5/6 156/13/6 154/14/6 158/7/6
f 161/1/1 162/2/1 164/3/1 163/4/1
f 163/4/2 164/3/2 168/5/2 167/6/2
f 167/6/3 168/5/3 166/7/3 165/8/3
f 165/8/4 166/7/4 162/9/4 161/10/4
f 163/11/5 167/6/5 165/8/5 161/12/5
f 168/5/6 164/13/6 162/14/6 166/7/6
f 169/1/1 170/2/1 172/3/1 171/4/1
f 171/4/2 172/3/2 176/5/2 175/6/2
f 175/6/3 176/5/3 174/7/3 173/8/3
f 173/8/4 174/7/4 170/9/4 169/10/4
f 171/11/5 175/6/5 173/8/5 169/12/5
f 176/5/6 172/13/6 170/14/6 174/7/6
f 177/1/1 178/2/1 180/3/1 179/4/1
f 179/4/2 180/3/2 184/5/2 183/6/2
f 183/6/3 184/5/3 182/7/3 181/8/3
f 181/8/4 182/7/4 178/9/4 177/10/4
f 179/11/5 183/6/5 181/8/5 177/12/5
f 184/5/6 180/13/6 178/14/6 182/7/6
f 185/1/1 186/2/1 188/3/1 187/4/1
f 187/4/2 188/3/2 192/5/2 191/6/2
f 191/6/3 192/5/3 190/7/3 189/8/3
f 189/8/4 190/7/4 186/9/4 185/10/4
f 187/11/5 191/6/5 189/8/5 185/12/5
f 192/5/6 188/13/6 186/14/6 190/7/6
f 193/1/1 194/2/1 196/3/1 195/4/1
f 195/4/2 196/3/2 200/5/2 199/6/2
f 199/6/3 200/5/3 198/7/3 197/8/3
f 197/8/4 198/7/4 194/9/4 193/10/4
f 195/11/5 199/6/5 197/8/5 193/12/5
f 200/5/6 196/13/6 194/14/6 198/7/6
f 225/1/1 226/2/1 228/3/1 227/4/1
f 227/4/2 228/3/2 232/5/2 231/6/2
f 231/6/3 232/5/3 230/7/3 229/8/3
f 229/8/4 230/7/4 226/9/4 225/10/4
f 227/11/5 231/6/5 229/8/5 225/12/5
f 232/5/6 228/13/6 226/14/6 230/7/6
f 281/1/1 282/2/1 284/3/1 283/4/1
f 283/4/2 284/3/2 288/5/2 287/6/2
f 287/6/3 288/5/3 286/7/3 285/8/3
f 285/8/4 286/7/4 282/9/4 281/10/4
f 283/11/5 287/6/5 285/8/5 281/12/5
f 288/5/6 284/13/6 282/14/6 286/7/6
f 595/1/1 596/2/1 598/3/1 597/4/1
f 597/4/2 598/3/2 602/5/2 601/6/2
f 601/6/3 602/5/3 600/7/3 599/8/3
f 599/8/4 600/7/4 596/9/4 595/10/4
f 597/11/5 601/6/5 599/8/5 595/12/5
f 602/5/6 598/13/6 596/14/6 600/7/6
usemtl soot
f 201/1/1 202/2/1 204/3/1 203/4/1
f 203/4/2 204/3/2 208/5/2 207/6/2
f 207/6/3 208/5/3 206/7/3 205/8/3
f 205/8/4 206/7/4 202/9/4 201/10/4
f 203/11/5 207/6/5 205/8/5 201/12/5
f 208/5/6 204/13/6 202/14/6 206/7/6
f 217/1/1 218/2/1 220/3/1 219/4/1
f 219/4/2 220/3/2 224/5/2 223/6/2
f 223/6/3 224/5/3 222/7/3 221/8/3
f 221/8/4 222/7/4 218/9/4 217/10/4
f 219/11/5 223/6/5 221/8/5 217/12/5
f 224/5/6 220/13/6 218/14/6 222/7/6
f 337/1/1 338/2/1 340/3/1 339/4/1
f 339/4/2 340/3/2 344/5/2 343/6/2
f 343/6/3 344/5/3 342/7/3 341/8/3
f 341/8/4 342/7/4 338/9/4 337/10/4
f 339/11/5 343/6/5 341/8/5 337/12/5
f 344/5/6 340/13/6 338/14/6 342/7/6
f 345/1/1 346/2/1 348/3/1 347/4/1
f 347/4/2 348/3/2 352/5/2 351/6/2
f 351/6/3 352/5/3 350/7/3 349/8/3
f 349/8/4 350/7/4 346/9/4 345/10/4
f 347/11/5 351/6/5 349/8/5 345/12/5
f 352/5/6 348/13/6 346/14/6 350/7/6
f 353/1/1 354/2/1 356/3/1 355/4/1
f 355/4/2 356/3/2 360/5/2 359/6/2
f 359/6/3 360/5/3 358/7/3 357/8/3
f 357/8/4 358/7/4 354/9/4 353/10/4
f 355/11/5 359/6/5 357/8/5 353/12/5
f 360/5/6 356/13/6 354/14/6 358/7/6
f 361/1/1 362/2/1 364/3/1 363/4/1
f 363/4/2 364/3/2 368/5/2 367/6/2
f 367/6/3 368/5/3 366/7/3 365/8/3
f 365/8/4 366/7/4 362/9/4 361/10/4
f 363/11/5 367/6/5 365/8/5 361/12/5
f 368/5/6 364/13/6 362/14/6 366/7/6
f 397/1/1 398/2/1 400/3/1 399/4/1
f 399/4/2 400/3/2 404/5/2 403/6/2
f 403/6/3 404/5/3 402/7/3 401/8/3
f 401/8/4 402/7/4 398/9/4 397/10/4
f 399/11/5 403/6/5 401/8/5 397/12/5
f 404/5/6 400/13/6 398/14/6 402/7/6
f 405/1/1 406/2/1 408/3/1 407/4/1
f 407/4/2 408/3/2 412/5/2 411/6/2
f 411/6/3 412/5/3 410/7/3 409/8/3
f 409/8/4 410/7/4 406/9/4 405/10/4
f 407/11/5 411/6/5 409/8/5 405/12/5
f 412/5/6 408/13/6 406/14/6 410/7/6
f 413/1/1 414/2/1 416/3/1 415/4/1
f 415/4/2 416/3/2 420/5/2 419/6/2
f 419/6/3 420/5/3 418/7/3 417/8/3
f 417/8/4 418/7/4 414/9/4 413/10/4
f 415/11/5 419/6/5 417/8/5 413/12/5
f 420/5/6 416/13/6 414/14/6 418/7/6
f 421/1/1 422/2/1 424/3/1 423/4/1
f 423/4/2 424/3/2 428/5/2 427/6/2
f 427/6/3 428/5/3 426/7/3 425/8/3
f 425/8/4 426/7/4 422/9/4 421/10/4
f 423/11/5 427/6/5 425/8/5 421/12/5
f 428/5/6 424/13/6 422/14/6 426/7/6
f 429/1/1 430/2/1 432/3/1 431/4/1
f 431/4/2 432/3/2 436/5/2 435/6/2
f 435/6/3 436/5/3 434/7/3 433/8/3
f 433/8/4 434/7/4 430/9/4 429/10/4
f 431/11/5 435/6/5 433/8/5 429/12/5
f 436/5/6 432/13/6 430/14/6 434/7/6
f 437/1/1 438/2/1 440/3/1 439/4/1
f 439/4/2 440/3/2 444/5/2 443/6/2
f 443/6/3 444/5/3 442/7/3 441/8/3
f 441/8/4 442/7/4 438/9/4 437/10/4
f 439/11/5 443/6/5 441/8/5 437/12/5
f 444/5/6 440/13/6 438/14/6 442/7/6
f 445/1/1 446/2/1 448/3/1 447/4/1
f 447/4/2 448/3/2 452/5/2 451/6/2
f 451/6/3 452/5/3 450/7/3 449/8/3
f 449/8/4 450/7/4 446/9/4 445/10/4
f 447/11/5 451/6/5 449/8/5 445/12/5
f 452/5/6 448/13/6 446/14/6 450/7/6
usemtl plaster
f 233/1/1 234/2/1 236/3/1 235/4/1
f 235/4/2 236/3/2 240/5/2 239/6/2
f 239/6/3 240/5/3 238/7/3 237/8/3
f 237/8/4 238/7/4 234/9/4 233/10/4
f 235/11/5 239/6/5 237/8/5 233/12/5
f 240/5/6 236/13/6 234/14/6 238/7/6
f 241/1/1 242/2/1 244/3/1 243/4/1
f 243/4/2 244/3/2 248/5/2 247/6/2
f 247/6/3 248/5/3 246/7/3 245/8/3
f 245/8/4 246/7/4 242/9/4 241/10/4
f 243/11/5 247/6/5 245/8/5 241/12/5
f 248/5/6 244/13/6 242/14/6 246/7/6
f 249/1/1 250/2/1 252/3/1 251/4/1
f 251/4/2 252/3/2 256/5/2 255/6/2
f 255/6/3 256/5/3 254/7/3 253/8/3
f 253/8/4 254/7/4 250/9/4 249/10/4
f 251/11/5 255/6/5 253/8/5 249/12/5
f 256/5/6 252/13/6 250/14/6 254/7/6
f 257/1/1 258/2/1 260/3/1 259/4/1
f 259/4/2 260/3/2 264/5/2 263/6/2
f 263/6/3 264/5/3 262/7/3 261/8/3
f 261/8/4 262/7/4 258/9/4 257/10/4
f 259/11/5 263/6/5 261/8/5 257/12/5
f 264/5/6 260/13/6 258/14/6 262/7/6
f 265/1/7 266/2/7 268/3/7 267/4/7
f 267/4/2 268/3/2 272/5/2 271/6/2
f 271/6/8 272/5/8 270/7/8 269/8/8
f 269/8/4 270/7/4 266/9/4 265/10/4
f 267/11/9 271/6/9 269/8/9 265/12/9
f 272/5/10 268/13/10 266/14/10 270/7/10
f 273/1/11 274/2/11 276/3/11 275/4/11
f 275/4/2 276/3/2 280/5/2 279/6/2
f 279/6/12 280/5/12 278/7/12 277/8/12
f 277/8/4 278/7/4 274/9/4 273/10/4
f 275/11/13 279/6/13 277/8/13 273/12/13
f 280/5/14 276/13/14 274/14/14 278/7/14
f 289/1/1 290/2/1 292/3/1 291/4/1
f 291/4/2 292/3/2 296/5/2 295/6/2
f 295/6/3 296/5/3 294/7/3 293/8/3
f 293/8/4 294/7/4 290/9/4 289/10/4
f 291/11/5 295/6/5 293/8/5 289/12/5
f 296/5/6 292/13/6 290/14/6 294/7/6
f 297/1/1 298/2/1 300/3/1 299/4/1
f 299/4/2 300/3/2 304/5/2 303/6/2
f 303/6/3 304/5/3 302/7/3 301/8/3
f 301/8/4 302/7/4 298/9/4 297/10/4
f 299/11/5 303/6/5 301/8/5 297/12/5
f 304/5/6 300/13/6 298/14/6 302/7/6
f 305/1/1 306/2/1 308/3/1 307/4/1
f 307/4/2 308/3/2 312/5/2 311/6/2
f 311/6/3 312/5/3 310/7/3 309/8/3
f 309/8/4 310/7/4 306/9/4 305/10/4
f 307/11/5 311/6/5 309/8/5 305/12/5
f 312/5/6 308/13/6 306/14/6 310/7/6
f 313/1/1 314/2/1 316/3/1 315/4/1
f 315/4/2 316/3/2 320/5/2 319/6/2
f 319/6/3 320/5/3 318/7/3 317/8/3
f 317/8/4 318/7/4 314/9/4 313/10/4
f 315/11/5 319/6/5 317/8/5 313/12/5
f 320/5/6 316/13/6 314/14/6 318/7/6
f 321/1/7 322/2/7 324/3/7 323/4/7
f 323/4/2 324/3/2 328/5/2 327/6/2
f 327/6/8 328/5/8 326/7/8 325/8/8
f 325/8/4 326/7/4 322/9/4 321/10/4
f 323/11/9 327/6/9 325/8/9 321/12/9
f 328/5/10 324/13/10 322/14/10 326/7/10
f 329/1/11 330/2/11 332/3/11 331/4/11
f 331/4/2 332/3/2 336/5/2 335/6/2
f 335/6/12 336/5/12 334/7/12 333/8/12
f 333/8/4 334/7/4 330/9/4 329/10/4
f 331/11/13 335/6/13 333/8/13 329/12/13
f 336/5/14 332/13/14 330/14/14 334/7/14
usemtl bone
f 369/15/15 370/16/15 371/17/15
f 370/16/16 369/18/16 374/19/16
f 369/20/17 371/21/17 372/22/17
f 369/23/18 372/22/18 373/24/18
f 369/25/19 373/24/19 374/19/19
f 370/16/20 374/19/20 379/26/20
f 371/17/21 370/16/21 375/27/21
f 372/22/22 371/21/22 376/28/22
f 373/24/23 372/22/23 377/29/23
f 374/19/24 373/24/24 378/30/24
f 370/16/25 379/26/25 375/27/25
f 371/17/26 375/27/26 376/31/26
f 372/22/27 376/28/27 377/29/27
f 373/24/28 377/29/28 378/30/28
f 374/19/29 378/30/29 379/26/29
f 375/27/30 379/26/30 380/32/30
f 376/31/31 375/27/31 380/33/31
f 377/29/32 376/28/32 380/34/32
f 378/30/33 377/29/33 380/35/33
f 379/26/34 378/30/34 380/36/34
f 381/1/1 382/2/1 384/3/1 383/4/1
f 383/4/2 384/3/2 388/5/2 387/6/2
f 387/6/3 388/5/3 386/7/3 385/8/3
f 385/8/4 386/7/4 382/9/4 381/10/4
f 383/11/5 387/6/5 385/8/5 381/12/5
f 388/5/6 384/13/6 382/14/6 386/7/6
f 389/1/1 390/2/1 392/3/1 391/4/1
f 391/4/2 392/3/2 396/5/2 395/6/2
f 395/6/3 396/5/3 394/7/3 393/8/3
f 393/8/4 394/7/4 390/9/4 389/10/4
f 391/11/5 395/6/5 393/8/5 389/12/5
f 396/5/6 392/13/6 390/14/6 394/7/6
usemtl ash
f 453/37/4 454/37/4 455/37/4
f 458/37/2 457/37/2 456/37/2
f 453/37/35 455/37/35 458/37/35 456/37/35
f 455/37/36 454/37/36 457/37/36 458/37/36
f 454/37/5 453/37/5 456/37/5 457/37/5
usemtl crimson
f 603/1/1 604/2/1 606/3/1 605/4/1
f 605/4/2 606/3/2 610/5/2 609/6/2
f 609/6/3 610/5/3 608/7/3 607/8/3
f 607/8/4 608/7/4 604/9/4 603/10/4
f 605/11/5 609/6/5 607/8/5 603/12/5
f 610/5/6 606/13/6 604/14/6 608/7/6
