# Blender 5.0.1
# www.blender.org
mtllib crypt_entrance.mtl
o crypt_entrance
v -1.200000 0.000000 1.050000
v -1.200000 0.180000 1.050000
v -1.200000 0.000000 -1.150000
v -1.200000 0.180000 -1.150000
v 1.200000 0.000000 1.050000
v 1.200000 0.180000 1.050000
v 1.200000 0.000000 -1.150000
v 1.200000 0.180000 -1.150000
v -1.025000 0.180000 0.950000
v -1.025000 0.340000 0.950000
v -1.025000 0.180000 -0.950000
v -1.025000 0.340000 -0.950000
v 1.025000 0.180000 0.950000
v 1.025000 0.340000 0.950000
v 1.025000 0.180000 -0.950000
v 1.025000 0.340000 -0.950000
v -0.950000 0.180000 0.530000
v -0.950000 1.880000 0.530000
v -0.950000 0.180000 -0.770000
v -0.950000 1.880000 -0.770000
v 0.950000 0.180000 0.530000
v 0.950000 1.880000 0.530000
v 0.950000 0.180000 -0.770000
v 0.950000 1.880000 -0.770000
v -0.965000 0.525000 0.545000
v -0.965000 0.575000 0.545000
v -0.965000 0.525000 -0.785000
v -0.965000 0.575000 -0.785000
v 0.965000 0.525000 0.545000
v 0.965000 0.575000 0.545000
v 0.965000 0.525000 -0.785000
v 0.965000 0.575000 -0.785000
v -0.965000 0.895000 0.545000
v -0.965000 0.945000 0.545000
v -0.965000 0.895000 -0.785000
v -0.965000 0.945000 -0.785000
v 0.965000 0.895000 0.545000
v 0.965000 0.945000 0.545000
v 0.965000 0.895000 -0.785000
v 0.965000 0.945000 -0.785000
v -0.965000 1.265000 0.545000
v -0.965000 1.315000 0.545000
v -0.965000 1.265000 -0.785000
v -0.965000 1.315000 -0.785000
v 0.965000 1.265000 0.545000
v 0.965000 1.315000 0.545000
v 0.965000 1.265000 -0.785000
v 0.965000 1.315000 -0.785000
v -0.965000 1.635000 0.545000
v -0.965000 1.685000 0.545000
v -0.965000 1.635000 -0.785000
v -0.965000 1.685000 -0.785000
v 0.965000 1.635000 0.545000
v 0.965000 1.685000 0.545000
v 0.965000 1.635000 -0.785000
v 0.965000 1.685000 -0.785000
v -0.970000 0.240000 0.155000
v -0.970000 1.820000 0.155000
v -0.970000 0.240000 0.105000
v -0.970000 1.820000 0.105000
v -0.930000 0.240000 0.155000
v -0.930000 1.820000 0.155000
v -0.930000 0.240000 0.105000
v -0.930000 1.820000 0.105000
v -0.970000 0.240000 -0.495000
v -0.970000 1.820000 -0.495000
v -0.970000 0.240000 -0.545000
v -0.970000 1.820000 -0.545000
v -0.930000 0.240000 -0.495000
v -0.930000 1.820000 -0.495000
v -0.930000 0.240000 -0.545000
v -0.930000 1.820000 -0.545000
v 0.930000 0.240000 0.155000
v 0.930000 1.820000 0.155000
v 0.930000 0.240000 0.105000
v 0.930000 1.820000 0.105000
v 0.970000 0.240000 0.155000
v 0.970000 1.820000 0.155000
v 0.970000 0.240000 0.105000
v 0.970000 1.820000 0.105000
v 0.930000 0.240000 -0.495000
v 0.930000 1.820000 -0.495000
v 0.930000 0.240000 -0.545000
v 0.930000 1.820000 -0.545000
v 0.970000 0.240000 -0.495000
v 0.970000 1.820000 -0.495000
v 0.970000 0.240000 -0.545000
v 0.970000 1.820000 -0.545000
v -1.100000 1.960000 0.680000
v -1.100000 2.200000 0.680000
v -1.100000 1.960000 -0.920000
v -1.100000 2.200000 -0.920000
v 1.100000 1.960000 0.680000
v 1.100000 2.200000 0.680000
v 1.100000 1.960000 -0.920000
v 1.100000 2.200000 -0.920000
v -0.550000 2.210000 0.330000
v -0.550000 2.550000 0.330000
v -0.550000 2.210000 -0.570000
v -0.550000 2.550000 -0.570000
v 0.550000 2.210000 0.330000
v 0.550000 2.550000 0.330000
v 0.550000 2.210000 -0.570000
v 0.550000 2.550000 -0.570000
v -0.060000 2.500000 -0.060000
v -0.060000 3.000000 -0.060000
v -0.060000 2.500000 -0.180000
v -0.060000 3.000000 -0.180000
v 0.060000 2.500000 -0.060000
v 0.060000 3.000000 -0.060000
v 0.060000 2.500000 -0.180000
v 0.060000 3.000000 -0.180000
v -0.190000 2.780000 -0.060000
v -0.190000 2.900000 -0.060000
v -0.190000 2.780000 -0.180000
v -0.190000 2.900000 -0.180000
v 0.190000 2.780000 -0.060000
v 0.190000 2.900000 -0.060000
v 0.190000 2.780000 -0.180000
v 0.190000 2.900000 -0.180000
v -0.930000 0.180000 -0.660000
v -0.930000 1.680000 -0.660000
v -0.930000 0.180000 -0.960000
v -0.930000 1.680000 -0.960000
v -0.690000 0.180000 -0.660000
v -0.690000 1.680000 -0.660000
v -0.690000 0.180000 -0.960000
v -0.690000 1.680000 -0.960000
v 0.690000 0.180000 -0.660000
v 0.690000 1.680000 -0.660000
v 0.690000 0.180000 -0.960000
v 0.690000 1.680000 -0.960000
v 0.930000 0.180000 -0.660000
v 0.930000 1.680000 -0.660000
v 0.930000 0.180000 -0.960000
v 0.930000 1.680000 -0.960000
v -0.450000 0.650000 -0.780000
v -0.450000 1.650000 -0.780000
v -0.450000 0.650000 -0.840000
v -0.450000 1.650000 -0.840000
v 0.450000 0.650000 -0.780000
v 0.450000 1.650000 -0.780000
v 0.450000 0.650000 -0.840000
v 0.450000 1.650000 -0.840000
v -0.040000 1.090000 -0.810000
v -0.040000 1.510000 -0.810000
v -0.040000 1.090000 -0.870000
v -0.040000 1.510000 -0.870000
v 0.040000 1.090000 -0.810000
v 0.040000 1.510000 -0.810000
v 0.040000 1.090000 -0.870000
v 0.040000 1.510000 -0.870000
v -0.160000 1.340000 -0.810000
v -0.160000 1.420000 -0.810000
v -0.160000 1.340000 -0.870000
v -0.160000 1.420000 -0.870000
v 0.160000 1.340000 -0.810000
v 0.160000 1.420000 -0.810000
v 0.160000 1.340000 -0.870000
v 0.160000 1.420000 -0.870000
v -0.180000 0.410000 -0.750000
v -0.180000 0.830000 -0.750000
v -0.180000 0.410000 -0.830000
v -0.180000 0.830000 -0.830000
v 0.180000 0.410000 -0.750000
v 0.180000 0.830000 -0.750000
v 0.180000 0.410000 -0.830000
v 0.180000 0.830000 -0.830000
v -0.115000 0.410000 -0.810000
v -0.115000 0.830000 -0.810000
v -0.115000 0.410000 -0.870000
v -0.115000 0.830000 -0.870000
v -0.085000 0.410000 -0.810000
v -0.085000 0.830000 -0.810000
v -0.085000 0.410000 -0.870000
v -0.085000 0.830000 -0.870000
v -0.015000 0.410000 -0.810000
v -0.015000 0.830000 -0.810000
v -0.015000 0.410000 -0.870000
v -0.015000 0.830000 -0.870000
v 0.015000 0.410000 -0.810000
v 0.015000 0.830000 -0.810000
v 0.015000 0.410000 -0.870000
v 0.015000 0.830000 -0.870000
v 0.085000 0.410000 -0.810000
v 0.085000 0.830000 -0.810000
v 0.085000 0.410000 -0.870000
v 0.085000 0.830000 -0.870000
v 0.115000 0.410000 -0.810000
v 0.115000 0.830000 -0.810000
v 0.115000 0.410000 -0.870000
v 0.115000 0.830000 -0.870000
v -0.740000 0.150000 0.310000
v -0.740000 1.750000 0.310000
v -0.619792 0.150000 0.359792
v -0.619792 1.750000 0.359792
v -0.570000 0.150000 0.480000
v -0.570000 1.750000 0.480000
v -0.619792 0.150000 0.600208
v -0.619792 1.750000 0.600208
v -0.740000 0.150000 0.650000
v -0.740000 1.750000 0.650000
v -0.860208 0.150000 0.600208
v -0.860208 1.750000 0.600208
v -0.910000 0.150000 0.480000
v -0.910000 1.750000 0.480000
v -0.860208 0.150000 0.359792
v -0.860208 1.750000 0.359792
v -0.740000 1.660000 0.260000
v -0.740000 1.780000 0.260000
v -0.584437 1.660000 0.324436
v -0.584437 1.780000 0.324436
v -0.520000 1.660000 0.480000
v -0.520000 1.780000 0.480000
v -0.584437 1.660000 0.635564
v -0.584437 1.780000 0.635564
v -0.740000 1.660000 0.700000
v -0.740000 1.780000 0.700000
v -0.895564 1.660000 0.635564
v -0.895564 1.780000 0.635564
v -0.960000 1.660000 0.480000
v -0.960000 1.780000 0.480000
v -0.895564 1.660000 0.324436
v -0.895564 1.780000 0.324436
v -0.740000 0.160000 0.260000
v -0.740000 0.280000 0.260000
v -0.584437 0.160000 0.324436
v -0.584437 0.280000 0.324436
v -0.520000 0.160000 0.480000
v -0.520000 0.280000 0.480000
v -0.584437 0.160000 0.635564
v -0.584437 0.280000 0.635564
v -0.740000 0.160000 0.700000
v -0.740000 0.280000 0.700000
v -0.895564 0.160000 0.635564
v -0.895564 0.280000 0.635564
v -0.960000 0.160000 0.480000
v -0.960000 0.280000 0.480000
v -0.895564 0.160000 0.324436
v -0.895564 0.280000 0.324436
v 0.740000 0.150000 0.310000
v 0.740000 1.750000 0.310000
v 0.860208 0.150000 0.359792
v 0.860208 1.750000 0.359792
v 0.910000 0.150000 0.480000
v 0.910000 1.750000 0.480000
v 0.860208 0.150000 0.600208
v 0.860208 1.750000 0.600208
v 0.740000 0.150000 0.650000
v 0.740000 1.750000 0.650000
v 0.619792 0.150000 0.600208
v 0.619792 1.750000 0.600208
v 0.570000 0.150000 0.480000
v 0.570000 1.750000 0.480000
v 0.619792 0.150000 0.359792
v 0.619792 1.750000 0.359792
v 0.740000 1.660000 0.260000
v 0.740000 1.780000 0.260000
v 0.895564 1.660000 0.324436
v 0.895564 1.780000 0.324436
v 0.960000 1.660000 0.480000
v 0.960000 1.780000 0.480000
v 0.895564 1.660000 0.635564
v 0.895564 1.780000 0.635564
v 0.740000 1.660000 0.700000
v 0.740000 1.780000 0.700000
v 0.584437 1.660000 0.635564
v 0.584437 1.780000 0.635564
v 0.520000 1.660000 0.480000
v 0.520000 1.780000 0.480000
v 0.584437 1.660000 0.324436
v 0.584437 1.780000 0.324436
v 0.740000 0.160000 0.260000
v 0.740000 0.280000 0.260000
v 0.895564 0.160000 0.324436
v 0.895564 0.280000 0.324436
v 0.960000 0.160000 0.480000
v 0.960000 0.280000 0.480000
v 0.895564 0.160000 0.635564
v 0.895564 0.280000 0.635564
v 0.740000 0.160000 0.700000
v 0.740000 0.280000 0.700000
v 0.584437 0.160000 0.635564
v 0.584437 0.280000 0.635564
v 0.520000 0.160000 0.480000
v 0.520000 0.280000 0.480000
v 0.584437 0.160000 0.324436
v 0.584437 0.280000 0.324436
v 0.545000 0.850000 0.555000
v 0.545000 1.050000 0.555000
v 0.545000 0.850000 0.425000
v 0.545000 1.050000 0.425000
v 0.695000 0.850000 0.555000
v 0.695000 1.050000 0.555000
v 0.695000 0.850000 0.425000
v 0.695000 1.050000 0.425000
v 0.528389 1.087264 0.578753
v 0.528389 1.287264 0.578753
v 0.478640 1.087264 0.458649
v 0.478640 1.287264 0.458649
v 0.666971 1.087264 0.521351
v 0.666971 1.287264 0.521351
v 0.617222 1.087264 0.401247
v 0.617222 1.287264 0.401247
v 0.431335 1.288406 0.588995
v 0.431335 1.488406 0.588995
v 0.339411 1.288406 0.497071
v 0.339411 1.488406 0.497071
v 0.537401 1.288406 0.482929
v 0.537401 1.488406 0.482929
v 0.445477 1.288406 0.391005
v 0.445477 1.488406 0.391005
v 0.268615 1.422805 0.584165
v 0.268615 1.622805 0.584165
v 0.148510 1.422805 0.534417
v 0.148510 1.622805 0.534417
v 0.326017 1.422805 0.445584
v 0.326017 1.622805 0.445584
v 0.205913 1.422805 0.395835
v 0.205913 1.622805 0.395835
v 0.065000 1.470000 0.565000
v 0.065000 1.670000 0.565000
v -0.065000 1.470000 0.565000
v -0.065000 1.670000 0.565000
v 0.065000 1.470000 0.415000
v 0.065000 1.670000 0.415000
v -0.065000 1.470000 0.415000
v -0.065000 1.670000 0.415000
v -0.148510 1.422805 0.534417
v -0.148510 1.622805 0.534417
v -0.268615 1.422805 0.584165
v -0.268615 1.622805 0.584165
v -0.205913 1.422805 0.395835
v -0.205913 1.622805 0.395835
v -0.326017 1.422805 0.445583
v -0.326017 1.622805 0.445583
v -0.339411 1.288406 0.497071
v -0.339411 1.488406 0.497071
v -0.431335 1.288406 0.588995
v -0.431335 1.488406 0.588995
v -0.445477 1.288406 0.391005
v -0.445477 1.488406 0.391005
v -0.537401 1.288406 0.482929
v -0.537401 1.488406 0.482929
v -0.478640 1.087264 0.458649
v -0.478640 1.287264 0.458649
v -0.528389 1.087264 0.578753
v -0.528389 1.287264 0.578753
v -0.617222 1.087264 0.401247
v -0.617222 1.287264 0.401247
v -0.666971 1.087264 0.521351
v -0.666971 1.287264 0.521351
v -0.545000 0.850000 0.425000
v -0.545000 1.050000 0.425000
v -0.545000 0.850000 0.555000
v -0.545000 1.050000 0.555000
v -0.695000 0.850000 0.425000
v -0.695000 1.050000 0.425000
v -0.695000 0.850000 0.555000
v -0.695000 1.050000 0.555000
v 0.425000 0.850000 0.445000
v 0.425000 1.050000 0.445000
v 0.425000 0.850000 0.315000
v 0.425000 1.050000 0.315000
v 0.575000 0.850000 0.445000
v 0.575000 1.050000 0.445000
v 0.575000 0.850000 0.315000
v 0.575000 1.050000 0.315000
v 0.417523 1.041342 0.468753
v 0.417523 1.241342 0.468753
v 0.367774 1.041342 0.348649
v 0.367774 1.241342 0.348649
v 0.556105 1.041342 0.411351
v 0.556105 1.241342 0.411351
v 0.506356 1.041342 0.291247
v 0.506356 1.241342 0.291247
v 0.346482 1.203554 0.478995
v 0.346482 1.403553 0.478995
v 0.254558 1.203554 0.387071
v 0.254558 1.403553 0.387071
v 0.452548 1.203554 0.372929
v 0.452548 1.403553 0.372929
v 0.360625 1.203554 0.281005
v 0.360625 1.403553 0.281005
v 0.222693 1.311940 0.474165
v 0.222693 1.511940 0.474165
v 0.102588 1.311940 0.424417
v 0.102588 1.511940 0.424417
v 0.280095 1.311940 0.335583
v 0.280095 1.511940 0.335583
v 0.159991 1.311940 0.285835
v 0.159991 1.511940 0.285835
v 0.065000 1.350000 0.455000
v 0.065000 1.550000 0.455000
v -0.065000 1.350000 0.455000
v -0.065000 1.550000 0.455000
v 0.065000 1.350000 0.305000
v 0.065000 1.550000 0.305000
v -0.065000 1.350000 0.305000
v -0.065000 1.550000 0.305000
v -0.102588 1.311940 0.424417
v -0.102588 1.511940 0.424417
v -0.222693 1.311940 0.474165
v -0.222693 1.511940 0.474165
v -0.159991 1.311940 0.285835
v -0.159991 1.511940 0.285835
v -0.280095 1.311940 0.335583
v -0.280095 1.511940 0.335583
v -0.254558 1.203554 0.387071
v -0.254558 1.403553 0.387071
v -0.346482 1.203554 0.478995
v -0.346482 1.403553 0.478995
v -0.360625 1.203554 0.281005
v -0.360625 1.403553 0.281005
v -0.452548 1.203554 0.372929
v -0.452548 1.403553 0.372929
v -0.367774 1.041342 0.348649
v -0.367774 1.241342 0.348649
v -0.417523 1.041342 0.468753
v -0.417523 1.241342 0.468753
v -0.506356 1.041342 0.291247
v -0.506356 1.241342 0.291247
v -0.556105 1.041342 0.411351
v -0.556105 1.241342 0.411351
v -0.425000 0.850000 0.315000
v -0.425000 1.050000 0.315000
v -0.425000 0.850000 0.445000
v -0.425000 1.050000 0.445000
v -0.575000 0.850000 0.315000
v -0.575000 1.050000 0.315000
v -0.575000 0.850000 0.445000
v -0.575000 1.050000 0.445000
v 0.325000 0.850000 0.335000
v 0.325000 1.050000 0.335000
v 0.325000 0.850000 0.205000
v 0.325000 1.050000 0.205000
v 0.475000 0.850000 0.335000
v 0.475000 1.050000 0.335000
v 0.475000 0.850000 0.205000
v 0.475000 1.050000 0.205000
v 0.325135 1.003073 0.358753
v 0.325135 1.203074 0.358753
v 0.275386 1.003073 0.238649
v 0.275386 1.203074 0.238649
v 0.463717 1.003073 0.301351
v 0.463717 1.203074 0.301351
v 0.413968 1.003073 0.181247
v 0.413968 1.203074 0.181247
v 0.275772 1.132843 0.368995
v 0.275772 1.332843 0.368995
v 0.183848 1.132843 0.277071
v 0.183848 1.332843 0.277071
v 0.381838 1.132843 0.262929
v 0.381838 1.332843 0.262929
v 0.289914 1.132843 0.171005
v 0.289914 1.332843 0.171005
v 0.184424 1.219552 0.364165
v 0.184424 1.419552 0.364165
v 0.064320 1.219552 0.314417
v 0.064320 1.419552 0.314417
v 0.241827 1.219552 0.225583
v 0.241827 1.419552 0.225583
v 0.121722 1.219552 0.175835
v 0.121722 1.419552 0.175835
v 0.065000 1.250000 0.345000
v 0.065000 1.450000 0.345000
v -0.065000 1.250000 0.345000
v -0.065000 1.450000 0.345000
v 0.065000 1.250000 0.195000
v 0.065000 1.450000 0.195000
v -0.065000 1.250000 0.195000
v -0.065000 1.450000 0.195000
v -0.064320 1.219552 0.314417
v -0.064320 1.419552 0.314417
v -0.184424 1.219552 0.364165
v -0.184424 1.419552 0.364165
v -0.121722 1.219552 0.175835
v -0.121722 1.419552 0.175835
v -0.241827 1.219552 0.225583
v -0.241827 1.419552 0.225583
v -0.183848 1.132843 0.277071
v -0.183848 1.332843 0.277071
v -0.275772 1.132843 0.368995
v -0.275772 1.332843 0.368995
v -0.289914 1.132843 0.171005
v -0.289914 1.332843 0.171005
v -0.381838 1.132843 0.262929
v -0.381838 1.332843 0.262929
v -0.275386 1.003073 0.238649
v -0.275386 1.203074 0.238649
v -0.325135 1.003073 0.358753
v -0.325135 1.203074 0.358753
v -0.413968 1.003073 0.181247
v -0.413968 1.203074 0.181247
v -0.463717 1.003073 0.301351
v -0.463717 1.203074 0.301351
v -0.325000 0.850000 0.205000
v -0.325000 1.050000 0.205000
v -0.325000 0.850000 0.335000
v -0.325000 1.050000 0.335000
v -0.475000 0.850000 0.205000
v -0.475000 1.050000 0.205000
v -0.475000 0.850000 0.335000
v -0.475000 1.050000 0.335000
v -0.400000 0.075000 0.550000
v -0.400000 1.125000 0.550000
v -0.400000 0.075000 -0.050000
v -0.400000 1.125000 -0.050000
v 0.400000 0.075000 0.550000
v 0.400000 1.125000 0.550000
v 0.400000 0.075000 -0.050000
v 0.400000 1.125000 -0.050000
v -0.200000 0.210000 0.575000
v -0.200000 0.910000 0.575000
v -0.200000 0.210000 0.525000
v -0.200000 0.910000 0.525000
v 0.200000 0.210000 0.575000
v 0.200000 0.910000 0.575000
v 0.200000 0.210000 0.525000
v 0.200000 0.910000 0.525000
v -0.600000 0.030000 0.800000
v -0.600000 0.090000 0.800000
v -0.600000 0.030000 0.000000
v -0.600000 0.090000 0.000000
v 0.600000 0.030000 0.800000
v 0.600000 0.090000 0.800000
v 0.600000 0.030000 0.000000
v 0.600000 0.090000 0.000000
vn -1.0000 -0.0000 -0.0000
vn -0.0000 -0.0000 -1.0000
vn 1.0000 -0.0000 -0.0000
vn -0.0000 -0.0000 1.0000
vn -0.0000 -1.0000 -0.0000
vn -0.0000 1.0000 -0.0000
vn 0.3827 -0.0000 -0.9239
vn 0.9239 -0.0000 -0.3827
vn 0.9239 -0.0000 0.3827
vn 0.3827 -0.0000 0.9239
vn -0.3827 -0.0000 0.9239
vn -0.9239 -0.0000 0.3827
vn -0.9239 -0.0000 -0.3827
vn -0.3827 -0.0000 -0.9239
vn -0.7071 -0.0000 0.7071
vn -0.7071 -0.0000 -0.7071
vn 0.7071 -0.0000 -0.7071
vn 0.7071 -0.0000 0.7071
vt 0.375000 0.000000
vt 0.625000 0.000000
vt 0.625000 0.250000
vt 0.375000 0.250000
vt 0.625000 0.500000
vt 0.375000 0.500000
vt 0.625000 0.750000
vt 0.375000 0.750000
vt 0.625000 1.000000
vt 0.375000 1.000000
vt 0.125000 0.500000
vt 0.125000 0.750000
vt 0.875000 0.500000
vt 0.875000 0.750000
vt 1.000000 0.500000
vt 1.000000 1.000000
vt 0.875000 1.000000
vt 0.750000 1.000000
vt 0.750000 0.500000
vt 0.500000 1.000000
vt 0.500000 0.500000
vt 0.250000 1.000000
vt 0.250000 0.500000
vt 0.419706 0.419706
vt 0.250000 0.490000
vt 0.080294 0.419706
vt 0.010000 0.250000
vt 0.080294 0.080294
vt 0.250000 0.010000
vt 0.419706 0.080294
vt 0.490000 0.250000
vt 0.125000 1.000000
vt 0.000000 1.000000
vt 0.000000 0.500000
vt 0.750000 0.490000
vt 0.919706 0.419706
vt 0.990000 0.250000
vt 0.919706 0.080294
vt 0.750000 0.010000
vt 0.580294 0.080294
vt 0.510000 0.250000
vt 0.580294 0.419706
vt 0.080294 0.419706
vt 0.010000 0.250000
vt 0.080294 0.080294
vt 0.250000 0.010000
vt 0.419706 0.080294
vt 0.919706 0.080294
vt 0.750000 0.010000
vt 0.580294 0.080294
s 0
usemtl stone_dk
f 1/1/1 2/2/1 4/3/1 3/4/1
f 3/4/2 4/3/2 8/5/2 7/6/2
f 7/6/3 8/5/3 6/7/3 5/8/3
f 5/8/4 6/7/4 2/9/4 1/10/4
f 3/11/5 7/6/5 5/8/5 1/12/5
f 8/5/6 4/13/6 2/14/6 6/7/6
f 25/1/1 26/2/1 28/3/1 27/4/1
f 27/4/2 28/3/2 32/5/2 31/6/2
f 31/6/3 32/5/3 30/7/3 29/8/3
f 29/8/4 30/7/4 26/9/4 25/10/4
f 27/11/5 31/6/5 29/8/5 25/12/5
f 32/5/6 28/13/6 26/14/6 30/7/6
f 33/1/1 34/2/1 36/3/1 35/4/1
f 35/4/2 36/3/2 40/5/2 39/6/2
f 39/6/3 40/5/3 38/7/3 37/8/3
f 37/8/4 38/7/4 34/9/4 33/10/4
f 35/11/5 39/6/5 37/8/5 33/12/5
f 40/5/6 36/13/6 34/14/6 38/7/6
f 41/1/1 42/2/1 44/3/1 43/4/1
f 43/4/2 44/3/2 48/5/2 47/6/2
f 47/6/3 48/5/3 46/7/3 45/8/3
f 45/8/4 46/7/4 42/9/4 41/10/4
f 43/11/5 47/6/5 45/8/5 41/12/5
f 48/5/6 44/13/6 42/14/6 46/7/6
f 49/1/1 50/2/1 52/3/1 51/4/1
f 51/4/2 52/3/2 56/5/2 55/6/2
f 55/6/3 56/5/3 54/7/3 53/8/3
f 53/8/4 54/7/4 50/9/4 49/10/4
f 51/11/5 55/6/5 53/8/5 49/12/5
f 56/5/6 52/13/6 50/14/6 54/7/6
f 57/1/1 58/2/1 60/3/1 59/4/1
f 59/4/2 60/3/2 64/5/2 63/6/2
f 63/6/3 64/5/3 62/7/3 61/8/3
f 61/8/4 62/7/4 58/9/4 57/10/4
f 59/11/5 63/6/5 61/8/5 57/12/5
f 64/5/6 60/13/6 58/14/6 62/7/6
f 65/1/1 66/2/1 68/3/1 67/4/1
f 67/4/2 68/3/2 72/5/2 71/6/2
f 71/6/3 72/5/3 70/7/3 69/8/3
f 69/8/4 70/7/4 66/9/4 65/10/4
f 67/11/5 71/6/5 69/8/5 65/12/5
f 72/5/6 68/13/6 66/14/6 70/7/6
f 73/1/1 74/2/1 76/3/1 75/4/1
f 75/4/2 76/3/2 80/5/2 79/6/2
f 79/6/3 80/5/3 78/7/3 77/8/3
f 77/8/4 78/7/4 74/9/4 73/10/4
f 75/11/5 79/6/5 77/8/5 73/12/5
f 80/5/6 76/13/6 74/14/6 78/7/6
f 81/1/1 82/2/1 84/3/1 83/4/1
f 83/4/2 84/3/2 88/5/2 87/6/2
f 87/6/3 88/5/3 86/7/3 85/8/3
f 85/8/4 86/7/4 82/9/4 81/10/4
f 83/11/5 87/6/5 85/8/5 81/12/5
f 88/5/6 84/13/6 82/14/6 86/7/6
f 89/1/1 90/2/1 92/3/1 91/4/1
f 91/4/2 92/3/2 96/5/2 95/6/2
f 95/6/3 96/5/3 94/7/3 93/8/3
f 93/8/4 94/7/4 90/9/4 89/10/4
f 91/11/5 95/6/5 93/8/5 89/12/5
f 96/5/6 92/13/6 90/14/6 94/7/6
f 121/1/1 122/2/1 124/3/1 123/4/1
f 123/4/2 124/3/2 128/5/2 127/6/2
f 127/6/3 128/5/3 126/7/3 125/8/3
f 125/8/4 126/7/4 122/9/4 121/10/4
f 123/11/5 127/6/5 125/8/5 121/12/5
f 128/5/6 124/13/6 122/14/6 126/7/6
f 129/1/1 130/2/1 132/3/1 131/4/1
f 131/4/2 132/3/2 136/5/2 135/6/2
f 135/6/3 136/5/3 134/7/3 133/8/3
f 133/8/4 134/7/4 130/9/4 129/10/4
f 131/11/5 135/6/5 133/8/5 129/12/5
f 136/5/6 132/13/6 130/14/6 134/7/6
f 137/1/1 138/2/1 140/3/1 139/4/1
f 139/4/2 140/3/2 144/5/2 143/6/2
f 143/6/3 144/5/3 142/7/3 141/8/3
f 141/8/4 142/7/4 138/9/4 137/10/4
f 139/11/5 143/6/5 141/8/5 137/12/5
f 144/5/6 140/13/6 138/14/6 142/7/6
f 193/15/7 194/16/7 196/17/7 195/13/7
f 195/13/8 196/17/8 198/18/8 197/19/8
f 197/19/9 198/18/9 200/9/9 199/5/9
f 199/5/10 200/9/10 202/20/10 201/21/10
f 201/21/11 202/20/11 204/10/11 203/6/11
f 203/6/12 204/10/12 206/22/12 205/23/12
f 196/24/6 194/25/6 208/26/6 206/27/6 204/28/6 202/29/6 200/30/6 198/31/6
f 205/23/13 206/22/13 208/32/13 207/11/13
f 207/11/14 208/32/14 194/33/14 193/34/14
f 193/35/5 195/36/5 197/37/5 199/38/5 201/39/5 203/40/5 205/41/5 207/42/5
f 241/15/7 242/16/7 244/17/7 243/13/7
f 243/13/8 244/17/8 246/18/8 245/19/8
f 245/19/9 246/18/9 248/9/9 247/5/9
f 247/5/10 248/9/10 250/20/10 249/21/10
f 249/21/11 250/20/11 252/10/11 251/6/11
f 251/6/12 252/10/12 254/22/12 253/23/12
f 244/24/6 242/25/6 256/26/6 254/27/6 252/28/6 250/29/6 248/30/6 246/31/6
f 253/23/13 254/22/13 256/32/13 255/11/13
f 255/11/14 256/32/14 242/33/14 241/34/14
f 241/35/5 243/36/5 245/37/5 247/38/5 249/39/5 251/40/5 253/41/5 255/42/5
f 361/1/1 362/2/1 364/3/1 363/4/1
f 363/4/2 364/3/2 368/5/2 367/6/2
f 367/6/3 368/5/3 366/7/3 365/8/3
f 365/8/4 366/7/4 362/9/4 361/10/4
f 363/11/5 367/6/5 365/8/5 361/12/5
f 368/5/6 364/13/6 362/14/6 366/7/6
f 369/1/12 370/2/12 372/3/12 371/4/12
f 371/4/14 372/3/14 376/5/14 375/6/14
f 375/6/8 376/5/8 374/7/8 373/8/8
f 373/8/10 374/7/10 370/9/10 369/10/10
f 371/11/5 375/6/5 373/8/5 369/12/5
f 376/5/6 372/13/6 370/14/6 374/7/6
f 377/1/15 378/2/15 380/3/15 379/4/15
f 379/4/16 380/3/16 384/5/16 383/6/16
f 383/6/17 384/5/17 382/7/17 381/8/17
f 381/8/18 382/7/18 378/9/18 377/10/18
f 379/11/5 383/6/5 381/8/5 377/12/5
f 384/5/6 380/13/6 378/14/6 382/7/6
f 385/1/11 386/2/11 388/3/11 387/4/11
f 387/4/13 388/3/13 392/5/13 391/6/13
f 391/6/7 392/5/7 390/7/7 389/8/7
f 389/8/9 390/7/9 386/9/9 385/10/9
f 387/11/5 391/6/5 389/8/5 385/12/5
f 392/5/6 388/13/6 386/14/6 390/7/6
f 393/1/4 394/2/4 396/3/4 395/4/4
f 395/4/1 396/3/1 400/5/1 399/6/1
f 399/6/2 400/5/2 398/7/2 397/8/2
f 397/8/3 398/7/3 394/9/3 393/10/3
f 395/11/5 399/6/5 397/8/5 393/12/5
f 400/5/6 396/13/6 394/14/6 398/7/6
f 401/1/10 402/2/10 404/3/10 403/4/10
f 403/4/12 404/3/12 408/5/12 407/6/12
f 407/6/14 408/5/14 406/7/14 405/8/14
f 405/8/8 406/7/8 402/9/8 401/10/8
f 403/11/5 407/6/5 405/8/5 401/12/5
f 408/5/6 404/13/6 402/14/6 406/7/6
f 409/1/18 410/2/18 412/3/18 411/4/18
f 411/4/15 412/3/15 416/5/15 415/6/15
f 415/6/16 416/5/16 414/7/16 413/8/16
f 413/8/17 414/7/17 410/9/17 409/10/17
f 411/11/5 415/6/5 413/8/5 409/12/5
f 416/5/6 412/13/6 410/14/6 414/7/6
f 417/1/9 418/2/9 420/3/9 419/4/9
f 419/4/11 420/3/11 424/5/11 423/6/11
f 423/6/13 424/5/13 422/7/13 421/8/13
f 421/8/7 422/7/7 418/9/7 417/10/7
f 419/11/5 423/6/5 421/8/5 417/12/5
f 424/5/6 420/13/6 418/14/6 422/7/6
f 425/1/3 426/2/3 428/3/3 427/4/3
f 427/4/4 428/3/4 432/5/4 431/6/4
f 431/6/1 432/5/1 430/7/1 429/8/1
f 429/8/2 430/7/2 426/9/2 425/10/2
f 427/11/5 431/6/5 429/8/5 425/12/5
f 432/5/6 428/13/6 426/14/6 430/7/6
usemtl stone
f 9/1/1 10/2/1 12/3/1 11/4/1
f 11/4/2 12/3/2 16/5/2 15/6/2
f 15/6/3 16/5/3 14/7/3 13/8/3
f 13/8/4 14/7/4 10/9/4 9/10/4
f 11/11/5 15/6/5 13/8/5 9/12/5
f 16/5/6 12/13/6 10/14/6 14/7/6
f 17/1/1 18/2/1 20/3/1 19/4/1
f 19/4/2 20/3/2 24/5/2 23/6/2
f 23/6/3 24/5/3 22/7/3 21/8/3
f 21/8/4 22/7/4 18/9/4 17/10/4
f 19/11/5 23/6/5 21/8/5 17/12/5
f 24/5/6 20/13/6 18/14/6 22/7/6
f 97/1/1 98/2/1 100/3/1 99/4/1
f 99/4/2 100/3/2 104/5/2 103/6/2
f 103/6/3 104/5/3 102/7/3 101/8/3
f 101/8/4 102/7/4 98/9/4 97/10/4
f 99/11/5 103/6/5 101/8/5 97/12/5
f 104/5/6 100/13/6 98/14/6 102/7/6
f 105/1/1 106/2/1 108/3/1 107/4/1
f 107/4/2 108/3/2 112/5/2 111/6/2
f 111/6/3 112/5/3 110/7/3 109/8/3
f 109/8/4 110/7/4 106/9/4 105/10/4
f 107/11/5 111/6/5 109/8/5 105/12/5
f 112/5/6 108/13/6 106/14/6 110/7/6
f 113/1/1 114/2/1 116/3/1 115/4/1
f 115/4/2 116/3/2 120/5/2 119/6/2
f 119/6/3 120/5/3 118/7/3 117/8/3
f 117/8/4 118/7/4 114/9/4 113/10/4
f 115/11/5 119/6/5 117/8/5 113/12/5
f 120/5/6 116/13/6 114/14/6 118/7/6
f 145/1/1 146/2/1 148/3/1 147/4/1
f 147/4/2 148/3/2 152/5/2 151/6/2
f 151/6/3 152/5/3 150/7/3 149/8/3
f 149/8/4 150/7/4 146/9/4 145/10/4
f 147/11/5 151/6/5 149/8/5 145/12/5
f 152/5/6 148/13/6 146/14/6 150/7/6
f 153/1/1 154/2/1 156/3/1 155/4/1
f 155/4/2 156/3/2 160/5/2 159/6/2
f 159/6/3 160/5/3 158/7/3 157/8/3
f 157/8/4 158/7/4 154/9/4 153/10/4
f 155/11/5 159/6/5 157/8/5 153/12/5
f 160/5/6 156/13/6 154/14/6 158/7/6
f 209/15/7 210/16/7 212/17/7 211/13/7
f 211/13/8 212/17/8 214/18/8 213/19/8
f 213/19/9 214/18/9 216/9/9 215/5/9
f 215/5/10 216/9/10 218/20/10 217/21/10
f 217/21/11 218/20/11 220/10/11 219/6/11
f 219/6/12 220/10/12 222/22/12 221/23/12
f 212/24/6 210/25/6 224/43/6 222/44/6 220/45/6 218/46/6 216/47/6 214/31/6
f 221/23/13 222/22/13 224/32/13 223/11/13
f 223/11/14 224/32/14 210/33/14 209/34/14
f 209/35/5 211/36/5 213/37/5 215/48/5 217/49/5 219/50/5 221/41/5 223/42/5
f 225/15/7 226/16/7 228/17/7 227/13/7
f 227/13/8 228/17/8 230/18/8 229/19/8
f 229/19/9 230/18/9 232/9/9 231/5/9
f 231/5/10 232/9/10 234/20/10 233/21/10
f 233/21/11 234/20/11 236/10/11 235/6/11
f 235/6/12 236/10/12 238/22/12 237/23/12
f 228/24/6 226/25/6 240/43/6 238/44/6 236/45/6 234/46/6 232/47/6 230/31/6
f 237/23/13 238/22/13 240/32/13 239/11/13
f 239/11/14 240/32/14 226/33/14 225/34/14
f 225/35/5 227/36/5 229/37/5 231/48/5 233/49/5 235/50/5 237/41/5 239/42/5
f 257/15/7 258/16/7 260/17/7 259/13/7
f 259/13/8 260/17/8 262/18/8 261/19/8
f 261/19/9 262/18/9 264/9/9 263/5/9
f 263/5/10 264/9/10 266/20/10 265/21/10
f 265/21/11 266/20/11 268/10/11 267/6/11
f 267/6/12 268/10/12 270/22/12 269/23/12
f 260/24/6 258/25/6 272/43/6 270/44/6 268/45/6 266/46/6 264/47/6 262/31/6
f 269/23/13 270/22/13 272/32/13 271/11/13
f 271/11/14 272/32/14 258/33/14 257/34/14
f 257/35/5 259/36/5 261/37/5 263/48/5 265/49/5 267/50/5 269/41/5 271/42/5
f 273/15/7 274/16/7 276/17/7 275/13/7
f 275/13/8 276/17/8 278/18/8 277/19/8
f 277/19/9 278/18/9 280/9/9 279/5/9
f 279/5/10 280/9/10 282/20/10 281/21/10
f 281/21/11 282/20/11 284/10/11 283/6/11
f 283/6/12 284/10/12 286/22/12 285/23/12
f 276/24/6 274/25/6 288/43/6 286/44/6 284/45/6 282/46/6 280/47/6 278/31/6
f 285/23/13 286/22/13 288/32/13 287/11/13
f 287/11/14 288/32/14 274/33/14 273/34/14
f 273/35/5 275/36/5 277/37/5 279/48/5 281/49/5 283/50/5 285/41/5 287/42/5
f 289/1/1 290/2/1 292/3/1 291/4/1
f 291/4/2 292/3/2 296/5/2 295/6/2
f 295/6/3 296/5/3 294/7/3 293/8/3
f 293/8/4 294/7/4 290/9/4 289/10/4
f 291/11/5 295/6/5 293/8/5 289/12/5
f 296/5/6 292/13/6 290/14/6 294/7/6
f 297/1/12 298/2/12 300/3/12 299/4/12
f 299/4/14 300/3/14 304/5/14 303/6/14
f 303/6/8 304/5/8 302/7/8 301/8/8
f 301/8/10 302/7/10 298/9/10 297/10/10
f 299/11/5 303/6/5 301/8/5 297/12/5
f 304/5/6 300/13/6 298/14/6 302/7/6
f 305/1/15 306/2/15 308/3/15 307/4/15
f 307/4/16 308/3/16 312/5/16 311/6/16
f 311/6/17 312/5/17 310/7/17 309/8/17
f 309/8/18 310/7/18 306/9/18 305/10/18
f 307/11/5 311/6/5 309/8/5 305/12/5
f 312/5/6 308/13/6 306/14/6 310/7/6
f 313/1/11 314/2/11 316/3/11 315/4/11
f 315/4/13 316/3/13 320/5/13 319/6/13
f 319/6/7 320/5/7 318/7/7 317/8/7
f 317/8/9 318/7/9 314/9/9 313/10/9
f 315/11/5 319/6/5 317/8/5 313/12/5
f 320/5/6 316/13/6 314/14/6 318/7/6
f 321/1/4 322/2/4 324/3/4 323/4/4
f 323/4/1 324/3/1 328/5/1 327/6/1
f 327/6/2 328/5/2 326/7/2 325/8/2
f 325/8/3 326/7/3 322/9/3 321/10/3
f 323/11/5 327/6/5 325/8/5 321/12/5
f 328/5/6 324/13/6 322/14/6 326/7/6
f 329/1/10 330/2/10 332/3/10 331/4/10
f 331/4/12 332/3/12 336/5/12 335/6/12
f 335/6/14 336/5/14 334/7/14 333/8/14
f 333/8/8 334/7/8 330/9/8 329/10/8
f 331/11/5 335/6/5 333/8/5 329/12/5
f 336/5/6 332/13/6 330/14/6 334/7/6
f 337/1/18 338/2/18 340/3/18 339/4/18
f 339/4/15 340/3/15 344/5/15 343/6/15
f 343/6/16 344/5/16 342/7/16 341/8/16
f 341/8/17 342/7/17 338/9/17 337/10/17
f 339/11/5 343/6/5 341/8/5 337/12/5
f 344/5/6 340/13/6 338/14/6 342/7/6
f 345/1/9 346/2/9 348/3/9 347/4/9
f 347/4/11 348/3/11 352/5/11 351/6/11
f 351/6/13 352/5/13 350/7/13 349/8/13
f 349/8/7 350/7/7 346/9/7 345/10/7
f 347/11/5 351/6/5 349/8/5 345/12/5
f 352/5/6 348/13/6 346/14/6 350/7/6
f 353/1/3 354/2/3 356/3/3 355/4/3
f 355/4/4 356/3/4 360/5/4 359/6/4
f 359/6/1 360/5/1 358/7/1 357/8/1
f 357/8/2 358/7/2 354/9/2 353/10/2
f 355/11/5 359/6/5 357/8/5 353/12/5
f 360/5/6 356/13/6 354/14/6 358/7/6
f 433/1/1 434/2/1 436/3/1 435/4/1
f 435/4/2 436/3/2 440/5/2 439/6/2
f 439/6/3 440/5/3 438/7/3 437/8/3
f 437/8/4 438/7/4 434/9/4 433/10/4
f 435/11/5 439/6/5 437/8/5 433/12/5
f 440/5/6 436/13/6 434/14/6 438/7/6
f 441/1/12 442/2/12 444/3/12 443/4/12
f 443/4/14 444/3/14 448/5/14 447/6/14
f 447/6/8 448/5/8 446/7/8 445/8/8
f 445/8/10 446/7/10 442/9/10 441/10/10
f 443/11/5 447/6/5 445/8/5 441/12/5
f 448/5/6 444/13/6 442/14/6 446/7/6
f 449/1/15 450/2/15 452/3/15 451/4/15
f 451/4/16 452/3/16 456/5/16 455/6/16
f 455/6/17 456/5/17 454/7/17 453/8/17
f 453/8/18 454/7/18 450/9/18 449/10/18
f 451/11/5 455/6/5 453/8/5 449/12/5
f 456/5/6 452/13/6 450/14/6 454/7/6
f 457/1/11 458/2/11 460/3/11 459/4/11
f 459/4/13 460/3/13 464/5/13 463/6/13
f 463/6/7 464/5/7 462/7/7 461/8/7
f 461/8/9 462/7/9 458/9/9 457/10/9
f 459/11/5 463/6/5 461/8/5 457/12/5
f 464/5/6 460/13/6 458/14/6 462/7/6
f 465/1/4 466/2/4 468/3/4 467/4/4
f 467/4/1 468/3/1 472/5/1 471/6/1
f 471/6/2 472/5/2 470/7/2 469/8/2
f 469/8/3 470/7/3 466/9/3 465/10/3
f 467/11/5 471/6/5 469/8/5 465/12/5
f 472/5/6 468/13/6 466/14/6 470/7/6
f 473/1/10 474/2/10 476/3/10 475/4/10
f 475/4/12 476/3/12 480/5/12 479/6/12
f 479/6/14 480/5/14 478/7/14 477/8/14
f 477/8/8 478/7/8 474/9/8 473/10/8
f 475/11/5 479/6/5 477/8/5 473/12/5
f 480/5/6 476/13/6 474/14/6 478/7/6
f 481/1/18 482/2/18 484/3/18 483/4/18
f 483/4/15 484/3/15 488/5/15 487/6/15
f 487/6/16 488/5/16 486/7/16 485/8/16
f 485/8/17 486/7/17 482/9/17 481/10/17
f 483/11/5 487/6/5 485/8/5 481/12/5
f 488/5/6 484/13/6 482/14/6 486/7/6
f 489/1/9 490/2/9 492/3/9 491/4/9
f 491/4/11 492/3/11 496/5/11 495/6/11
f 495/6/13 496/5/13 494/7/13 493/8/13
f 493/8/7 494/7/7 490/9/7 489/10/7
f 491/11/5 495/6/5 493/8/5 489/12/5
f 496/5/6 492/13/6 490/14/6 494/7/6
f 497/1/3 498/2/3 500/3/3 499/4/3
f 499/4/4 500/3/4 504/5/4 503/6/4
f 503/6/1 504/5/1 502/7/1 501/8/1
f 501/8/2 502/7/2 498/9/2 497/10/2
f 499/11/5 503/6/5 501/8/5 497/12/5
f 504/5/6 500/13/6 498/14/6 502/7/6
usemtl soot
f 161/1/1 162/2/1 164/3/1 163/4/1
f 163/4/2 164/3/2 168/5/2 167/6/2
f 167/6/3 168/5/3 166/7/3 165/8/3
f 165/8/4 166/7/4 162/9/4 161/10/4
f 163/11/5 167/6/5 165/8/5 161/12/5
f 168/5/6 164/13/6 162/14/6 166/7/6
f 505/1/1 506/2/1 508/3/1 507/4/1
f 507/4/2 508/3/2 512/5/2 511/6/2
f 511/6/3 512/5/3 510/7/3 509/8/3
f 509/8/4 510/7/4 506/9/4 505/10/4
f 507/11/5 511/6/5 509/8/5 505/12/5
f 512/5/6 508/13/6 506/14/6 510/7/6
usemtl iron
f 169/1/1 170/2/1 172/3/1 171/4/1
f 171/4/2 172/3/2 176/5/2 175/6/2
f 175/6/3 176/5/3 174/7/3 173/8/3
f 173/8/4 174/7/4 170/9/4 169/10/4
f 171/11/5 175/6/5 173/8/5 169/12/5
f 176/5/6 172/13/6 170/14/6 174/7/6
f 177/1/1 178/2/1 180/3/1 179/4/1
f 179/4/2 180/3/2 184/5/2 183/6/2
f 183/6/3 184/5/3 182/7/3 181/8/3
f 181/8/4 182/7/4 178/9/4 177/10/4
f 179/11/5 183/6/5 181/8/5 177/12/5
f 184/5/6 180/13/6 178/14/6 182/7/6
f 185/1/1 186/2/1 188/3/1 187/4/1
f 187/4/2 188/3/2 192/5/2 191/6/2
f 191/6/3 192/5/3 190/7/3 189/8/3
f 189/8/4 190/7/4 186/9/4 185/10/4
f 187/11/5 191/6/5 189/8/5 185/12/5
f 192/5/6 188/13/6 186/14/6 190/7/6
usemtl ghostfire
f 513/1/1 514/2/1 516/3/1 515/4/1
f 515/4/2 516/3/2 520/5/2 519/6/2
f 519/6/3 520/5/3 518/7/3 517/8/3
f 517/8/4 518/7/4 514/9/4 513/10/4
f 515/11/5 519/6/5 517/8/5 513/12/5
f 520/5/6 516/13/6 514/14/6 518/7/6
usemtl moss
f 521/1/1 522/2/1 524/3/1 523/4/1
f 523/4/2 524/3/2 528/5/2 527/6/2
f 527/6/3 528/5/3 526/7/3 525/8/3
f 525/8/4 526/7/4 522/9/4 521/10/4
f 523/11/5 527/6/5 525/8/5 521/12/5
f 528/5/6 524/13/6 522/14/6 526/7/6
