# Blender 5.0.1
# www.blender.org
mtllib dark_scarecrow.mtl
o dark_scarecrow
v -0.044641 -0.031327 0.008034
v -0.040532 1.466617 0.086430
v -0.049345 -0.026617 -0.081720
v -0.045236 1.471327 -0.003323
v 0.045236 -0.031327 0.003323
v 0.049345 1.466617 0.081720
v 0.040532 -0.026617 -0.086430
v 0.044641 1.471327 -0.008034
v -0.501584 1.063730 0.040000
v -0.494611 1.143426 0.040000
v -0.501584 1.063730 -0.040000
v -0.494611 1.143426 -0.040000
v 0.494611 0.976574 0.040000
v 0.501584 1.056270 0.040000
v 0.494611 0.976574 -0.040000
v 0.501584 1.056270 -0.040000
v -0.180000 0.730000 0.110000
v -0.180000 1.190000 0.110000
v -0.180000 0.730000 -0.110000
v -0.180000 1.190000 -0.110000
v 0.180000 0.730000 0.110000
v 0.180000 1.190000 0.110000
v 0.180000 0.730000 -0.110000
v 0.180000 1.190000 -0.110000
v -0.170000 0.540000 0.120000
v -0.170000 0.780000 0.120000
v -0.170000 0.540000 0.080000
v -0.170000 0.780000 0.080000
v -0.090000 0.540000 0.120000
v -0.090000 0.780000 0.120000
v -0.090000 0.540000 0.080000
v -0.090000 0.780000 0.080000
v 0.010000 0.500000 0.120000
v 0.010000 0.740000 0.120000
v 0.010000 0.500000 0.080000
v 0.010000 0.740000 0.080000
v 0.090000 0.500000 0.120000
v 0.090000 0.740000 0.120000
v 0.090000 0.500000 0.080000
v 0.090000 0.740000 0.080000
v 0.100000 0.560000 0.120000
v 0.100000 0.800000 0.120000
v 0.100000 0.560000 0.080000
v 0.100000 0.800000 0.080000
v 0.180000 0.560000 0.120000
v 0.180000 0.800000 0.120000
v 0.180000 0.560000 0.080000
v 0.180000 0.800000 0.080000
v -0.170000 0.698817 -0.135654
v -0.170000 1.195090 -0.074719
v -0.170000 0.704910 -0.185281
v -0.170000 1.201183 -0.124346
v 0.170000 0.698817 -0.135654
v 0.170000 1.195090 -0.074719
v 0.170000 0.704910 -0.185281
v 0.170000 1.201183 -0.124346
v -0.170000 0.470000 -0.120000
v -0.170000 0.730000 -0.120000
v -0.170000 0.470000 -0.160000
v -0.170000 0.730000 -0.160000
v -0.070000 0.470000 -0.120000
v -0.070000 0.730000 -0.120000
v -0.070000 0.470000 -0.160000
v -0.070000 0.730000 -0.160000
v 0.080000 0.440000 -0.120000
v 0.080000 0.700000 -0.120000
v 0.080000 0.440000 -0.160000
v 0.080000 0.700000 -0.160000
v 0.180000 0.440000 -0.120000
v 0.180000 0.700000 -0.120000
v 0.180000 0.440000 -0.160000
v 0.180000 0.700000 -0.160000
v -0.550000 1.060000 -0.030000
v -0.050000 1.060000 -0.030000
v -0.550000 1.031468 -0.009271
v -0.050000 1.031468 -0.009271
v -0.550000 1.042366 0.024271
v -0.050000 1.042366 0.024271
v -0.550000 1.077634 0.024271
v -0.050000 1.077634 0.024271
v -0.550000 1.088532 -0.009271
v -0.050000 1.088532 -0.009271
v -0.575954 1.080000 -0.052258
v -0.409061 1.080000 0.015171
v -0.581131 1.060979 -0.039445
v -0.414238 1.060979 0.027984
v -0.589508 1.068244 -0.018712
v -0.422615 1.068244 0.048717
v -0.589508 1.091756 -0.018712
v -0.422615 1.091756 0.048717
v -0.581131 1.099021 -0.039445
v -0.414238 1.099021 0.027984
v 0.050000 1.060000 -0.030000
v 0.550000 1.060000 -0.030000
v 0.050000 1.031468 -0.009271
v 0.550000 1.031468 -0.009271
v 0.050000 1.042366 0.024271
v 0.550000 1.042366 0.024271
v 0.050000 1.077634 0.024271
v 0.550000 1.077633 0.024271
v 0.050000 1.088532 -0.009271
v 0.550000 1.088531 -0.009271
v 0.409061 1.080000 0.015171
v 0.575954 1.080000 -0.052258
v 0.414238 1.060979 0.027984
v 0.581131 1.060979 -0.039445
v 0.422615 1.068244 0.048717
v 0.589508 1.068244 -0.018712
v 0.422615 1.091756 0.048717
v 0.589508 1.091756 -0.018712
v 0.414238 1.099021 0.027984
v 0.581131 1.099021 -0.039445
v 0.000000 1.180000 0.000000
v 0.115776 1.268445 0.084115
v -0.044222 1.268445 0.136102
v -0.143108 1.268445 0.000000
v -0.044222 1.268446 -0.136102
v 0.115776 1.268445 -0.084115
v 0.044222 1.411554 0.136102
v -0.115776 1.411554 0.084115
v -0.115776 1.411554 -0.084115
v 0.044222 1.411554 -0.136102
v 0.143108 1.411554 0.000000
v 0.000000 1.500000 0.000000
v -0.120000 1.160000 0.120000
v -0.120000 1.344000 0.120000
v -0.120000 1.160000 -0.040000
v -0.120000 1.344000 -0.040000
v 0.120000 1.160000 0.120000
v 0.120000 1.344000 0.120000
v 0.120000 1.160000 -0.040000
v 0.120000 1.344000 -0.040000
v -0.096000 1.132000 0.132000
v -0.096000 1.212000 0.132000
v -0.096000 1.132000 -0.004000
v -0.096000 1.212000 -0.004000
v 0.096000 1.132000 0.132000
v 0.096000 1.212000 0.132000
v 0.096000 1.132000 -0.004000
v 0.096000 1.212000 -0.004000
v -0.100800 1.263200 0.158400
v -0.100800 1.327200 0.158400
v -0.100800 1.263200 0.091200
v -0.100800 1.327200 0.091200
v -0.033600 1.263200 0.158400
v -0.033600 1.327200 0.158400
v -0.033600 1.263200 0.091200
v -0.033600 1.327200 0.091200
v 0.033600 1.263200 0.158400
v 0.033600 1.327200 0.158400
v 0.033600 1.263200 0.091200
v 0.033600 1.327200 0.091200
v 0.100800 1.263200 0.158400
v 0.100800 1.327200 0.158400
v 0.100800 1.263200 0.091200
v 0.100800 1.327200 0.091200
v -0.019200 1.208800 0.158400
v -0.019200 1.260000 0.158400
v -0.019200 1.208800 0.104000
v -0.019200 1.260000 0.104000
v 0.019200 1.208800 0.158400
v 0.019200 1.260000 0.158400
v 0.019200 1.208800 0.104000
v 0.019200 1.260000 0.104000
v -0.044000 1.130400 0.160000
v -0.044000 1.245600 0.160000
v -0.044000 1.130400 0.096000
v -0.044000 1.245600 0.096000
v 0.044000 1.130400 0.160000
v 0.044000 1.245600 0.160000
v 0.044000 1.130400 0.096000
v 0.044000 1.245600 0.096000
v 0.000000 1.450000 -0.300000
v 0.000000 1.490000 -0.300000
v 0.234549 1.450000 -0.187047
v 0.234549 1.490000 -0.187047
v 0.292478 1.450000 0.066756
v 0.292478 1.490000 0.066756
v 0.130165 1.450000 0.270291
v 0.130165 1.490000 0.270291
v -0.130165 1.450000 0.270291
v -0.130165 1.490000 0.270291
v -0.292478 1.450000 0.066756
v -0.292478 1.490000 0.066756
v -0.234549 1.450000 -0.187047
v -0.234549 1.490000 -0.187047
v 0.000000 1.480000 -0.170000
v -0.000000 1.680000 -0.020000
v 0.132911 1.480000 -0.105993
v 0.015637 1.680000 -0.012470
v 0.165738 1.480000 0.037829
v 0.019499 1.680000 0.004450
v 0.073760 1.480000 0.153165
v 0.008678 1.680000 0.018019
v -0.073760 1.480000 0.153165
v -0.008678 1.680000 0.018019
v -0.165738 1.480000 0.037829
v -0.019499 1.680000 0.004450
v -0.132911 1.480000 -0.105993
v -0.015637 1.680000 -0.012470
v 0.430000 1.080000 -0.002000
v 0.430000 1.180000 -0.002000
v 0.442000 1.080000 0.010000
v 0.442000 1.180000 0.010000
v 0.430000 1.080000 0.022000
v 0.430000 1.180000 0.022000
v 0.418000 1.080000 0.010000
v 0.418000 1.180000 0.010000
v 0.490000 1.080000 -0.002000
v 0.490000 1.180000 -0.002000
v 0.502000 1.080000 0.010000
v 0.502000 1.180000 0.010000
v 0.490000 1.080000 0.022000
v 0.490000 1.180000 0.022000
v 0.478000 1.080000 0.010000
v 0.478000 1.180000 0.010000
v 0.410000 1.140000 0.090000
v 0.410000 1.260000 0.090000
v 0.410000 1.140000 -0.150000
v 0.410000 1.260000 -0.150000
v 0.510000 1.140000 0.090000
v 0.510000 1.260000 0.090000
v 0.510000 1.140000 -0.150000
v 0.510000 1.260000 -0.150000
v 0.460000 1.210000 0.130000
v 0.503416 1.243167 0.161543
v 0.443417 1.243167 0.181038
v 0.406334 1.243167 0.130000
v 0.443417 1.243167 0.078962
v 0.503416 1.243167 0.098457
v 0.476583 1.296833 0.181038
v 0.416584 1.296833 0.161543
v 0.416584 1.296833 0.098457
v 0.476583 1.296833 0.078962
v 0.513665 1.296833 0.130000
v 0.460000 1.330000 0.130000
v 0.460000 1.290000 0.160000
v 0.490000 1.260000 0.160000
v 0.460000 1.230000 0.160000
v 0.430000 1.260000 0.160000
v 0.460000 1.260000 0.280000
v 0.420000 1.182680 -0.120718
v 0.420000 1.217320 -0.100718
v 0.420000 1.262679 -0.259282
v 0.420000 1.297320 -0.239282
v 0.500000 1.182679 -0.120718
v 0.500000 1.217321 -0.100718
v 0.500000 1.262679 -0.259282
v 0.500000 1.297320 -0.239282
v 0.414000 1.279000 0.161000
v 0.414000 1.301000 0.161000
v 0.414000 1.279000 0.139000
v 0.414000 1.301000 0.139000
v 0.436000 1.279000 0.161000
v 0.436000 1.301000 0.161000
v 0.436000 1.279000 0.139000
v 0.436000 1.301000 0.139000
v 0.484000 1.279000 0.161000
v 0.484000 1.301000 0.161000
v 0.484000 1.279000 0.139000
v 0.484000 1.301000 0.139000
v 0.506000 1.279000 0.161000
v 0.506000 1.301000 0.161000
v 0.506000 1.279000 0.139000
v 0.506000 1.301000 0.139000
v -0.275000 0.000000 0.275000
v -0.275000 0.030000 0.275000
v -0.275000 0.000000 -0.275000
v -0.275000 0.030000 -0.275000
v 0.275000 -0.000000 0.275000
v 0.275000 0.030000 0.275000
v 0.275000 -0.000000 -0.275000
v 0.275000 0.030000 -0.275000
v -0.200000 0.020000 0.200000
v -0.200000 0.040000 0.200000
v -0.200000 0.020000 -0.200000
v -0.200000 0.040000 -0.200000
v 0.200000 0.020000 0.200000
v 0.200000 0.040000 0.200000
v 0.200000 0.020000 -0.200000
v 0.200000 0.040000 -0.200000
v -0.110000 0.030000 0.110000
v -0.110000 0.050000 0.110000
v -0.110000 0.030000 -0.110000
v -0.110000 0.050000 -0.110000
v 0.110000 0.030000 0.110000
v 0.110000 0.050000 0.110000
v 0.110000 0.030000 -0.110000
v 0.110000 0.050000 -0.110000
vn -0.9986 -0.0000 0.0523
vn -0.0523 0.0523 -0.9973
vn 0.9986 -0.0000 -0.0523
vn 0.0523 -0.0523 0.9973
vn -0.0027 -0.9986 -0.0523
vn 0.0027 0.9986 0.0523
vn -0.9962 0.0872 -0.0000
vn -0.0000 -0.0000 -1.0000
vn 0.9962 -0.0872 -0.0000
vn -0.0000 -0.0000 1.0000
vn -0.0872 -0.9962 -0.0000
vn 0.0872 0.9962 -0.0000
vn -1.0000 -0.0000 -0.0000
vn 1.0000 -0.0000 -0.0000
vn -0.0000 -1.0000 -0.0000
vn -0.0000 1.0000 -0.0000
vn -0.0000 0.1219 -0.9925
vn -0.0000 -0.1219 0.9925
vn -0.0000 -0.9925 -0.1219
vn -0.0000 0.9925 0.1219
vn -0.0000 -0.5878 -0.8090
vn -0.0000 -0.9511 0.3090
vn -0.0000 0.9511 0.3090
vn -0.0000 0.5878 -0.8090
vn 0.3031 -0.5878 -0.7501
vn -0.1158 -0.9511 0.2865
vn -0.3746 -0.0000 0.9272
vn 0.9272 -0.0000 0.3746
vn -0.1158 0.9511 0.2865
vn 0.3031 0.5878 -0.7501
vn -0.9272 -0.0000 -0.3746
vn -0.3031 -0.5878 -0.7501
vn 0.1158 -0.9511 0.2865
vn 0.3746 -0.0000 0.9272
vn 0.9272 -0.0000 -0.3746
vn 0.1158 0.9511 0.2865
vn -0.3031 0.5878 -0.7501
vn -0.9272 -0.0000 0.3746
vn 0.1876 -0.7947 0.5774
vn 0.6071 -0.7947 -0.0000
vn -0.4911 -0.7947 0.3568
vn -0.4911 -0.7947 -0.3568
vn 0.1876 -0.7947 -0.5774
vn 0.9822 -0.1876 -0.0000
vn 0.3035 -0.1876 0.9342
vn -0.7946 -0.1876 0.5774
vn -0.7946 -0.1876 -0.5774
vn 0.3035 -0.1876 -0.9342
vn 0.7946 0.1876 0.5774
vn -0.3035 0.1876 0.9342
vn -0.9822 0.1876 -0.0000
vn -0.3035 0.1876 -0.9342
vn 0.7946 0.1876 -0.5774
vn 0.4911 0.7947 0.3568
vn -0.1876 0.7947 0.5774
vn -0.6071 0.7947 -0.0000
vn -0.1876 0.7947 -0.5774
vn 0.4911 0.7947 -0.3568
vn 0.4339 -0.0000 -0.9010
vn 0.9749 -0.0000 -0.2225
vn 0.7818 -0.0000 0.6235
vn -0.7818 -0.0000 0.6235
vn -0.9749 -0.0000 -0.2225
vn -0.4339 -0.0000 -0.9010
vn 0.3595 0.5599 -0.7465
vn 0.8078 0.5599 -0.1844
vn 0.6478 0.5599 0.5166
vn -0.0000 0.5599 0.8286
vn -0.6478 0.5599 0.5166
vn -0.8078 0.5599 -0.1844
vn -0.3595 0.5599 -0.7465
vn 0.7071 -0.0000 -0.7071
vn 0.7071 -0.0000 0.7071
vn -0.7071 -0.0000 0.7071
vn -0.7071 -0.0000 -0.7071
vn -0.7947 -0.1876 -0.5774
vn 0.7947 0.1876 0.5774
vn 0.6963 0.6963 0.1741
vn 0.6963 -0.6963 0.1741
vn -0.6963 -0.6963 0.1741
vn -0.6963 0.6963 0.1741
vn -0.0000 0.5000 -0.8660
vn -0.0000 -0.5000 0.8660
vn -0.0000 -0.8660 -0.5000
vn -0.0000 0.8660 0.5000
vt 0.501953 0.500000
vt 0.501953 0.662109
vt 0.623047 0.662109
vt 0.623047 0.500000
vt 0.876953 0.500000
vt 0.876953 0.662109
vt 0.998047 0.662109
vt 0.998047 0.500000
vt 0.376953 0.666016
vt 0.376953 0.828125
vt 0.498047 0.828125
vt 0.498047 0.666016
vt 0.251953 0.500000
vt 0.251953 0.662109
vt 0.373047 0.662109
vt 0.373047 0.500000
vt 0.373047 0.600189
vt 0.312500 0.662109
vt 0.251953 0.600189
vt 0.275080 0.500000
vt 0.349920 0.500000
vt 0.285422 0.662109
vt 0.373047 0.561921
vt 0.251953 0.581055
vt 0.335628 0.500000
vt 0.335628 0.662109
vt 0.285422 0.500000
vt 0.373047 0.600188
vt 0.318891 0.662109
vt 0.298207 0.662109
vt 0.326793 0.662109
vt 0.298207 0.500000
vt 0.306109 0.500000
vt 0.312500 0.500000
vt 0.326793 0.500000
vt 0.289372 0.500000
vt 0.251953 0.561921
vt 0.339578 0.662109
vt 0.373047 0.581055
vt 0.251953 0.600188
vt 0.339578 0.500000
vt 0.289372 0.662109
vt 0.126953 0.832031
vt 0.126953 0.994141
vt 0.248047 0.994141
vt 0.248047 0.832031
vt 0.626953 0.500000
vt 0.626953 0.662109
vt 0.748047 0.662109
vt 0.748047 0.500000
vt 0.611055 0.630002
vt 0.562500 0.662109
vt 0.513945 0.630002
vt 0.501953 0.557856
vt 0.535554 0.500000
vt 0.589446 0.500000
vt 0.623047 0.557856
vt 0.516199 0.662109
vt 0.544303 0.662109
vt 0.530057 0.662109
vt 0.595868 0.500000
vt 0.611998 0.662109
vt 0.569623 0.662109
vt 0.555377 0.662109
vt 0.608801 0.662109
vt 0.623047 0.581055
vt 0.501953 0.581055
vt 0.562500 0.500000
vt 0.535422 0.662109
vt 0.623047 0.561921
vt 0.585628 0.500000
vt 0.585628 0.662109
vt 0.535422 0.500000
vt 0.623047 0.600188
vt 0.568891 0.662109
vt 0.548207 0.662109
vt 0.576793 0.662109
vt 0.548207 0.500000
vt 0.556109 0.500000
vt 0.576793 0.500000
vt 0.539372 0.500000
vt 0.501953 0.561921
vt 0.589578 0.662109
vt 0.501953 0.600188
vt 0.589578 0.500000
vt 0.539372 0.662109
vt 0.001953 0.666016
vt 0.001953 0.828125
vt 0.123047 0.828125
vt 0.123047 0.666016
vt 0.126953 0.666016
vt 0.126953 0.828125
vt 0.248047 0.828125
vt 0.248047 0.666016
s 0
usemtl kit_atlas_mat
f 1/1/1 2/2/1 4/3/1 3/4/1
f 3/1/2 4/2/2 8/3/2 7/4/2
f 7/4/3 8/3/3 6/2/3 5/1/3
f 5/4/4 6/3/4 2/2/4 1/1/4
f 3/2/5 7/3/5 5/4/5 1/1/5
f 8/3/6 4/2/6 2/1/6 6/4/6
f 9/1/7 10/2/7 12/3/7 11/4/7
f 11/1/8 12/2/8 16/3/8 15/4/8
f 15/4/9 16/3/9 14/2/9 13/1/9
f 13/4/10 14/3/10 10/2/10 9/1/10
f 11/2/11 15/3/11 13/4/11 9/1/11
f 16/3/12 12/2/12 10/1/12 14/4/12
f 17/5/13 18/6/13 20/7/13 19/8/13
f 19/5/8 20/6/8 24/7/8 23/8/8
f 23/8/14 24/7/14 22/6/14 21/5/14
f 21/8/10 22/7/10 18/6/10 17/5/10
f 19/6/15 23/7/15 21/8/15 17/5/15
f 24/7/16 20/6/16 18/5/16 22/8/16
f 25/5/13 26/6/13 28/7/13 27/8/13
f 27/5/8 28/6/8 32/7/8 31/8/8
f 31/8/14 32/7/14 30/6/14 29/5/14
f 29/8/10 30/7/10 26/6/10 25/5/10
f 27/6/15 31/7/15 29/8/15 25/5/15
f 32/7/16 28/6/16 26/5/16 30/8/16
f 33/5/13 34/6/13 36/7/13 35/8/13
f 35/5/8 36/6/8 40/7/8 39/8/8
f 39/8/14 40/7/14 38/6/14 37/5/14
f 37/8/10 38/7/10 34/6/10 33/5/10
f 35/6/15 39/7/15 37/8/15 33/5/15
f 40/7/16 36/6/16 34/5/16 38/8/16
f 41/5/13 42/6/13 44/7/13 43/8/13
f 43/5/8 44/6/8 48/7/8 47/8/8
f 47/8/14 48/7/14 46/6/14 45/5/14
f 45/8/10 46/7/10 42/6/10 41/5/10
f 43/6/15 47/7/15 45/8/15 41/5/15
f 48/7/16 44/6/16 42/5/16 46/8/16
f 49/9/13 50/10/13 52/11/13 51/12/13
f 51/9/17 52/10/17 56/11/17 55/12/17
f 55/12/14 56/11/14 54/10/14 53/9/14
f 53/12/18 54/11/18 50/10/18 49/9/18
f 51/10/19 55/11/19 53/12/19 49/9/19
f 56/11/20 52/10/20 50/9/20 54/12/20
f 57/9/13 58/10/13 60/11/13 59/12/13
f 59/9/8 60/10/8 64/11/8 63/12/8
f 63/12/14 64/11/14 62/10/14 61/9/14
f 61/12/10 62/11/10 58/10/10 57/9/10
f 59/10/15 63/11/15 61/12/15 57/9/15
f 64/11/16 60/10/16 58/9/16 62/12/16
f 65/9/13 66/10/13 68/11/13 67/12/13
f 67/9/8 68/10/8 72/11/8 71/12/8
f 71/12/14 72/11/14 70/10/14 69/9/14
f 69/12/10 70/11/10 66/10/10 65/9/10
f 67/10/15 71/11/15 69/12/15 65/9/15
f 72/11/16 68/10/16 66/9/16 70/12/16
f 73/13/21 74/14/21 76/15/21 75/16/21
f 75/16/22 76/15/22 78/14/22 77/13/22
f 77/16/10 78/15/10 80/14/10 79/13/10
f 76/17/14 74/18/14 82/19/14 80/20/14 78/21/14
f 79/13/23 80/14/23 82/15/23 81/16/23
f 81/13/24 82/14/24 74/15/24 73/16/24
f 73/18/13 75/17/13 77/21/13 79/20/13 81/19/13
f 83/13/25 84/14/25 86/15/25 85/16/25
f 85/16/26 86/15/26 88/14/26 87/13/26
f 87/16/27 88/15/27 90/14/27 89/13/27
f 86/17/28 84/18/28 92/19/28 90/20/28 88/21/28
f 89/13/29 90/14/29 92/15/29 91/16/29
f 91/13/30 92/14/30 84/15/30 83/16/30
f 83/18/31 85/17/31 87/21/31 89/20/31 91/19/31
f 93/13/21 94/14/21 96/15/21 95/16/21
f 95/16/22 96/15/22 98/14/22 97/13/22
f 97/16/10 98/15/10 100/14/10 99/13/10
f 96/17/14 94/18/14 102/19/14 100/20/14 98/21/14
f 99/13/23 100/14/23 102/15/23 101/16/23
f 101/13/24 102/14/24 94/15/24 93/16/24
f 93/18/13 95/17/13 97/21/13 99/20/13 101/19/13
f 103/13/32 104/14/32 106/15/32 105/16/32
f 105/16/33 106/15/33 108/14/33 107/13/33
f 107/16/34 108/15/34 110/14/34 109/13/34
f 106/17/35 104/18/35 112/19/35 110/20/35 108/21/35
f 109/13/36 110/14/36 112/15/36 111/16/36
f 111/13/37 112/14/37 104/15/37 103/16/37
f 103/18/38 105/17/38 107/21/38 109/20/38 111/19/38
f 113/22/39 114/23/39 115/13/39
f 114/16/40 113/24/40 118/15/40
f 113/15/41 115/25/41 116/14/41
f 113/16/42 116/13/42 117/26/42
f 113/27/43 117/14/43 118/28/43
f 114/13/44 118/16/44 123/18/44
f 115/13/45 114/16/45 119/29/45
f 116/16/46 115/13/46 120/30/46
f 117/16/47 116/13/47 121/31/47
f 118/16/48 117/13/48 122/29/48
f 114/32/49 123/15/49 119/14/49
f 115/33/50 119/15/50 120/14/50
f 116/34/51 120/14/51 121/15/51
f 117/33/52 121/14/52 122/15/52
f 118/35/53 122/15/53 123/14/53
f 119/36/54 123/15/54 124/14/54
f 120/37/55 119/16/55 124/38/55
f 121/14/56 120/13/56 124/39/56
f 122/15/57 121/40/57 124/41/57
f 123/16/58 122/42/58 124/13/58
f 125/13/13 126/14/13 128/15/13 127/16/13
f 127/13/8 128/14/8 132/15/8 131/16/8
f 131/16/14 132/15/14 130/14/14 129/13/14
f 129/16/10 130/15/10 126/14/10 125/13/10
f 127/14/15 131/15/15 129/16/15 125/13/15
f 132/15/16 128/14/16 126/13/16 130/16/16
f 133/13/13 134/14/13 136/15/13 135/16/13
f 135/13/8 136/14/8 140/15/8 139/16/8
f 139/16/14 140/15/14 138/14/14 137/13/14
f 137/16/10 138/15/10 134/14/10 133/13/10
f 135/14/15 139/15/15 137/16/15 133/13/15
f 140/15/16 136/14/16 134/13/16 138/16/16
f 141/43/13 142/44/13 144/45/13 143/46/13
f 143/43/8 144/44/8 148/45/8 147/46/8
f 147/46/14 148/45/14 146/44/14 145/43/14
f 145/46/10 146/45/10 142/44/10 141/43/10
f 143/44/15 147/45/15 145/46/15 141/43/15
f 148/45/16 144/44/16 142/43/16 146/46/16
f 149/43/13 150/44/13 152/45/13 151/46/13
f 151/43/8 152/44/8 156/45/8 155/46/8
f 155/46/14 156/45/14 154/44/14 153/43/14
f 153/46/10 154/45/10 150/44/10 149/43/10
f 151/44/15 155/45/15 153/46/15 149/43/15
f 156/45/16 152/44/16 150/43/16 154/46/16
f 157/47/13 158/48/13 160/49/13 159/50/13
f 159/47/8 160/48/8 164/49/8 163/50/8
f 163/50/14 164/49/14 162/48/14 161/47/14
f 161/50/10 162/49/10 158/48/10 157/47/10
f 159/48/15 163/49/15 161/50/15 157/47/15
f 164/49/16 160/48/16 158/47/16 162/50/16
f 165/47/13 166/48/13 168/49/13 167/50/13
f 167/47/8 168/48/8 172/49/8 171/50/8
f 171/50/14 172/49/14 170/48/14 169/47/14
f 169/50/10 170/49/10 166/48/10 165/47/10
f 167/48/15 171/49/15 169/50/15 165/47/15
f 172/49/16 168/48/16 166/47/16 170/50/16
f 173/1/59 174/2/59 176/3/59 175/4/59
f 175/4/60 176/3/60 178/2/60 177/1/60
f 177/4/61 178/3/61 180/2/61 179/1/61
f 179/4/10 180/3/10 182/2/10 181/1/10
f 181/1/62 182/2/62 184/3/62 183/4/62
f 176/51/16 174/52/16 186/53/16 184/54/16 182/55/16 180/56/16 178/57/16
f 183/1/63 184/2/63 186/3/63 185/4/63
f 185/1/64 186/2/64 174/3/64 173/4/64
f 173/52/15 175/51/15 177/57/15 179/56/15 181/55/15 183/54/15 185/53/15
f 187/1/65 188/2/65 190/58/65 189/4/65
f 189/4/66 190/59/66 192/60/66 191/1/66
f 191/61/67 192/3/67 194/62/67 193/1/67
f 193/4/68 194/63/68 196/64/68 195/1/68
f 195/1/69 196/62/69 198/3/69 197/61/69
f 190/51/16 188/52/16 200/53/16 198/54/16 196/55/16 194/56/16 192/57/16
f 197/1/70 198/60/70 200/59/70 199/4/70
f 199/1/71 200/65/71 188/3/71 187/4/71
f 187/52/15 189/51/15 191/57/15 193/56/15 195/55/15 197/54/15 199/53/15
f 201/4/72 202/3/72 204/2/72 203/1/72
f 203/4/73 204/3/73 206/2/73 205/1/73
f 204/66/16 202/52/16 208/67/16 206/68/16
f 205/1/74 206/2/74 208/3/74 207/4/74
f 207/1/75 208/2/75 202/3/75 201/4/75
f 201/52/15 203/66/15 205/68/15 207/67/15
f 209/4/72 210/3/72 212/2/72 211/1/72
f 211/4/73 212/3/73 214/2/73 213/1/73
f 212/66/16 210/52/16 216/67/16 214/68/16
f 213/1/74 214/2/74 216/3/74 215/4/74
f 215/1/75 216/2/75 210/3/75 209/4/75
f 209/52/15 211/66/15 213/68/15 215/67/15
f 217/1/13 218/2/13 220/3/13 219/4/13
f 219/1/8 220/2/8 224/3/8 223/4/8
f 223/4/14 224/3/14 222/2/14 221/1/14
f 221/4/10 222/3/10 218/2/10 217/1/10
f 219/2/15 223/3/15 221/4/15 217/1/15
f 224/3/16 220/2/16 218/1/16 222/4/16
f 225/69/39 226/70/39 227/1/39
f 226/4/40 225/67/40 230/3/40
f 225/3/41 227/71/41 228/2/41
f 225/4/42 228/1/42 229/72/42
f 225/73/43 229/2/43 230/74/43
f 226/1/44 230/4/44 235/52/44
f 227/1/45 226/4/45 231/75/45
f 228/4/46 227/1/46 232/76/46
f 229/4/76 228/1/76 233/77/76
f 230/4/48 229/1/48 234/75/48
f 226/78/77 235/3/77 231/2/77
f 227/79/50 231/3/50 232/2/50
f 228/68/51 232/2/51 233/3/51
f 229/79/52 233/2/52 234/3/52
f 230/80/53 234/3/53 235/2/53
f 231/81/54 235/3/54 236/2/54
f 232/82/55 231/4/55 236/83/55
f 233/2/56 232/1/56 236/66/56
f 234/3/57 233/84/57 236/85/57
f 235/4/58 234/86/58 236/1/58
f 237/4/78 241/2/78 238/1/78
f 238/4/79 241/3/79 239/1/79
f 237/52/8 238/66/8 239/68/8 240/67/8
f 239/1/80 241/3/80 240/4/80
f 240/1/81 241/2/81 237/4/81
f 242/1/13 243/2/13 245/3/13 244/4/13
f 244/1/82 245/2/82 249/3/82 248/4/82
f 248/4/14 249/3/14 247/2/14 246/1/14
f 246/4/83 247/3/83 243/2/83 242/1/83
f 244/2/84 248/3/84 246/4/84 242/1/84
f 249/3/85 245/2/85 243/1/85 247/4/85
f 250/43/13 251/44/13 253/45/13 252/46/13
f 252/43/8 253/44/8 257/45/8 256/46/8
f 256/46/14 257/45/14 255/44/14 254/43/14
f 254/46/10 255/45/10 251/44/10 250/43/10
f 252/44/15 256/45/15 254/46/15 250/43/15
f 257/45/16 253/44/16 251/43/16 255/46/16
f 258/43/13 259/44/13 261/45/13 260/46/13
f 260/43/8 261/44/8 265/45/8 264/46/8
f 264/46/14 265/45/14 263/44/14 262/43/14
f 262/46/10 263/45/10 259/44/10 258/43/10
f 260/44/15 264/45/15 262/46/15 258/43/15
f 265/45/16 261/44/16 259/43/16 263/46/16
f 266/87/13 267/88/13 269/89/13 268/90/13
f 268/87/8 269/88/8 273/89/8 272/90/8
f 272/90/14 273/89/14 271/88/14 270/87/14
f 270/90/10 271/89/10 267/88/10 266/87/10
f 268/88/15 272/89/15 270/90/15 266/87/15
f 273/89/16 269/88/16 267/87/16 271/90/16
f 274/91/13 275/92/13 277/93/13 276/94/13
f 276/91/8 277/92/8 281/93/8 280/94/8
f 280/94/14 281/93/14 279/92/14 278/91/14
f 278/94/10 279/93/10 275/92/10 274/91/10
f 276/92/15 280/93/15 278/94/15 274/91/15
f 281/93/16 277/92/16 275/91/16 279/94/16
f 282/9/13 283/10/13 285/11/13 284/12/13
f 284/9/8 285/10/8 289/11/8 288/12/8
f 288/12/14 289/11/14 287/10/14 286/9/14
f 286/12/10 287/11/10 283/10/10 282/9/10
f 284/10/15 288/11/15 286/12/15 282/9/15
f 289/11/16 285/10/16 283/9/16 287/12/16
