# Blender 5.0.1
# www.blender.org
mtllib dead_tree.mtl
o dead_tree
v 0.000000 0.000000 -0.240000
v 0.000000 2.600000 -0.240000
v 0.187640 0.000000 -0.149638
v 0.187640 2.600000 -0.149638
v 0.233983 0.000000 0.053405
v 0.233983 2.600000 0.053405
v 0.104132 0.000000 0.216233
v 0.104132 2.600000 0.216233
v -0.104132 0.000000 0.216233
v -0.104132 2.600000 0.216233
v -0.233983 0.000000 0.053405
v -0.233983 2.600000 0.053405
v -0.187640 0.000000 -0.149638
v -0.187640 2.600000 -0.149638
v -0.130000 1.050000 0.270000
v -0.130000 1.650000 0.270000
v -0.130000 1.050000 0.050000
v -0.130000 1.650000 0.050000
v 0.130000 1.050000 0.270000
v 0.130000 1.650000 0.270000
v 0.130000 1.050000 0.050000
v 0.130000 1.650000 0.050000
v -0.070000 1.150000 0.270000
v -0.070000 1.550000 0.270000
v -0.070000 1.150000 0.170000
v -0.070000 1.550000 0.170000
v 0.070000 1.150000 0.270000
v 0.070000 1.550000 0.270000
v 0.070000 1.150000 0.170000
v 0.070000 1.550000 0.170000
v -0.689576 1.513212 -0.080000
v 0.129576 2.086788 -0.080000
v -0.645936 1.450887 -0.024721
v 0.173216 2.024463 -0.024721
v -0.662605 1.474693 0.064721
v 0.156547 2.048269 0.064721
v -0.716547 1.551731 0.064721
v 0.102605 2.125307 0.064721
v -0.733216 1.575536 -0.024721
v 0.085936 2.149113 -0.024721
v 0.603703 1.187404 -0.080000
v -0.043703 1.812596 -0.080000
v 0.656556 1.242134 -0.024721
v 0.009150 1.867327 -0.024721
v 0.636368 1.221229 0.064721
v -0.011038 1.846422 0.064721
v 0.571038 1.153578 0.064721
v -0.076368 1.778771 0.064721
v 0.550850 1.132673 -0.024721
v -0.096556 1.757866 -0.024721
v -0.475718 2.059837 -0.080000
v -0.084282 2.640163 -0.080000
v -0.412641 2.017291 -0.024721
v -0.021206 2.597617 -0.024721
v -0.436734 2.033542 0.064721
v -0.045299 2.613868 0.064721
v -0.514701 2.086132 0.064721
v -0.123266 2.666458 0.064721
v -0.538794 2.102383 -0.024721
v -0.147359 2.682709 -0.024721
v 0.475000 1.862250 -0.080000
v 0.085000 2.537750 -0.080000
v 0.540891 1.900292 -0.024721
v 0.150891 2.575792 -0.024721
v 0.515723 1.885761 0.064721
v 0.125723 2.561261 0.064721
v 0.434277 1.838739 0.064721
v 0.044277 2.514239 0.064721
v 0.409109 1.824208 -0.024721
v 0.019109 2.499708 -0.024721
v -0.357254 2.262236 -0.080000
v -0.202746 2.737764 -0.080000
v -0.284894 2.238724 -0.024721
v -0.130385 2.714253 -0.024721
v -0.312533 2.247705 0.064721
v -0.158024 2.723233 0.064721
v -0.401976 2.276767 0.064721
v -0.247467 2.752295 0.064721
v -0.429615 2.285747 -0.024721
v -0.275106 2.761276 -0.024721
v 0.300000 0.079427 -0.231952
v 0.300000 0.233336 0.190910
v 0.360000 0.023046 -0.211431
v 0.360000 0.176955 0.211431
v 0.300000 -0.033336 -0.190910
v 0.300000 0.120573 0.231952
v 0.240000 0.023046 -0.211431
v 0.240000 0.176955 0.211431
v -0.127894 0.079427 -0.356994
v 0.274271 0.233336 -0.226323
v -0.089837 0.023046 -0.407716
v 0.312329 0.176955 -0.277045
v -0.088861 -0.033336 -0.344311
v 0.313305 0.120573 -0.213640
v -0.126919 0.023046 -0.293589
v 0.275247 0.176955 -0.162918
v -0.379043 0.079427 0.011318
v -0.130491 0.233336 -0.330785
v -0.415522 0.023046 -0.040552
v -0.166970 0.176955 -0.382654
v -0.354919 -0.033336 -0.021886
v -0.106367 0.120573 -0.363989
v -0.318440 0.023046 0.029983
v -0.069888 0.176955 -0.312120
v -0.106367 0.079427 0.363989
v -0.354919 0.233336 0.021886
v -0.166970 0.023046 0.382654
v -0.415522 0.176955 0.040552
v -0.130491 -0.033336 0.330785
v -0.379043 0.120573 -0.011318
v -0.069888 0.023046 0.312120
v -0.318440 0.176955 -0.029983
v 0.313305 0.079427 0.213640
v -0.088861 0.233336 0.344311
v 0.312329 0.023046 0.277045
v -0.089837 0.176955 0.407716
v 0.274271 -0.033336 0.226323
v -0.127894 0.120573 0.356994
v 0.275247 0.023046 0.162918
v -0.126919 0.176955 0.293589
vn 0.4339 -0.0000 -0.9010
vn 0.9749 -0.0000 -0.2225
vn 0.7818 -0.0000 0.6235
vn -0.0000 -0.0000 1.0000
vn -0.7818 -0.0000 0.6235
vn -0.0000 1.0000 -0.0000
vn -0.9749 -0.0000 -0.2225
vn -0.4339 -0.0000 -0.9010
vn -0.0000 -1.0000 -0.0000
vn -1.0000 -0.0000 -0.0000
vn -0.0000 -0.0000 -1.0000
vn 1.0000 -0.0000 -0.0000
vn 0.3371 -0.4815 -0.8090
vn 0.5455 -0.7791 0.3090
vn 0.8192 0.5736 -0.0000
vn -0.5455 0.7791 0.3090
vn -0.3371 0.4815 -0.8090
vn -0.8192 -0.5736 -0.0000
vn 0.4083 0.4228 -0.8090
vn 0.6607 0.6841 0.3090
vn -0.7193 0.6947 -0.0000
vn -0.6607 -0.6841 0.3090
vn -0.4083 -0.4228 -0.8090
vn 0.7193 -0.6947 -0.0000
vn 0.4873 -0.3287 -0.8090
vn 0.7885 -0.5318 0.3090
vn 0.5592 0.8290 -0.0000
vn -0.7885 0.5318 0.3090
vn -0.4873 0.3287 -0.8090
vn -0.5592 -0.8290 -0.0000
vn 0.5090 0.2939 -0.8090
vn 0.8236 0.4755 0.3090
vn -0.5000 0.8660 -0.0000
vn -0.8236 -0.4755 0.3090
vn -0.5090 -0.2939 -0.8090
vn 0.5000 -0.8660 -0.0000
vn 0.5590 -0.1816 -0.8090
vn 0.9045 -0.2939 0.3090
vn 0.3090 0.9511 -0.0000
vn -0.9045 0.2939 0.3090
vn -0.5590 0.1816 -0.8090
vn -0.3090 -0.9511 -0.0000
vn 0.7071 0.6645 -0.2418
vn 0.7071 -0.6645 0.2418
vn -0.0000 0.3420 0.9397
vn -0.7071 -0.6645 0.2418
vn -0.7071 0.6645 -0.2418
vn -0.0000 -0.3420 -0.9397
vn -0.0115 0.6645 -0.7472
vn 0.4485 -0.6645 -0.5978
vn 0.8937 0.3420 0.2904
vn 0.0115 -0.6645 0.7472
vn -0.4485 0.6645 0.5978
vn -0.8937 -0.3420 -0.2904
vn -0.7142 0.6645 -0.2200
vn -0.4299 -0.6645 -0.6113
vn 0.5523 0.3420 -0.7602
vn 0.7142 -0.6645 0.2200
vn 0.4299 0.6645 0.6113
vn -0.5523 -0.3420 0.7602
vn -0.4299 0.6645 0.6113
vn -0.7142 -0.6645 0.2200
vn -0.5523 0.3420 -0.7602
vn 0.4299 -0.6645 -0.6113
vn 0.7142 0.6645 -0.2200
vn 0.5523 -0.3420 0.7602
vn 0.4485 0.6645 0.5978
vn -0.0115 -0.6645 0.7472
vn -0.8937 0.3420 0.2904
vn -0.4485 -0.6645 -0.5978
vn 0.0115 0.6645 -0.7472
vn 0.8937 -0.3420 -0.2904
vt 1.000000 0.500000
vt 1.000000 1.000000
vt 0.857143 1.000000
vt 0.857143 0.500000
vt 0.714286 1.000000
vt 0.714286 0.500000
vt 0.571429 1.000000
vt 0.571429 0.500000
vt 0.428571 1.000000
vt 0.428571 0.500000
vt 0.285714 1.000000
vt 0.285714 0.500000
vt 0.437640 0.399638
vt 0.250000 0.490000
vt 0.062360 0.399638
vt 0.016017 0.196595
vt 0.145868 0.033767
vt 0.354132 0.033767
vt 0.483983 0.196595
vt 0.142857 1.000000
vt 0.142857 0.500000
vt 0.000000 1.000000
vt 0.000000 0.500000
vt 0.750000 0.490000
vt 0.937640 0.399638
vt 0.983983 0.196595
vt 0.854132 0.033767
vt 0.645868 0.033767
vt 0.516017 0.196595
vt 0.562360 0.399638
vt 0.375000 0.000000
vt 0.625000 0.000000
vt 0.625000 0.250000
vt 0.375000 0.250000
vt 0.625000 0.500000
vt 0.375000 0.500000
vt 0.625000 0.750000
vt 0.375000 0.750000
vt 0.625000 1.000000
vt 0.375000 1.000000
vt 0.125000 0.500000
vt 0.125000 0.750000
vt 0.875000 0.500000
vt 0.875000 0.750000
vt 0.800000 1.000000
vt 0.800000 0.500000
vt 0.600000 1.000000
vt 0.600000 0.500000
vt 0.400000 1.000000
vt 0.400000 0.500000
vt 0.478254 0.324164
vt 0.021746 0.324164
vt 0.108932 0.055836
vt 0.391068 0.055836
vt 0.200000 1.000000
vt 0.200000 0.500000
vt 0.978254 0.324164
vt 0.891068 0.055836
vt 0.608932 0.055836
vt 0.521746 0.324164
vt 0.750000 1.000000
vt 0.750000 0.500000
vt 0.500000 1.000000
vt 0.500000 0.500000
vt 0.490000 0.250000
vt 0.010000 0.250000
vt 0.250000 0.010000
vt 0.250000 1.000000
vt 0.250000 0.500000
vt 0.000000 1.000000
vt 0.000000 0.500000
vt 0.990000 0.250000
vt 0.750000 0.010000
vt 0.510000 0.250000
s 0
usemtl charwood
f 1/1/1 2/2/1 4/3/1 3/4/1
f 3/4/2 4/3/2 6/5/2 5/6/2
f 5/6/3 6/5/3 8/7/3 7/8/3
f 7/8/4 8/7/4 10/9/4 9/10/4
f 9/10/5 10/9/5 12/11/5 11/12/5
f 4/13/6 2/14/6 14/15/6 12/16/6 10/17/6 8/18/6 6/19/6
f 11/12/7 12/11/7 14/20/7 13/21/7
f 13/21/8 14/20/8 2/22/8 1/23/8
f 1/24/9 3/25/9 5/26/9 7/27/9 9/28/9 11/29/9 13/30/9
f 31/1/13 32/2/13 34/45/13 33/46/13
f 33/46/14 34/45/14 36/47/14 35/48/14
f 35/48/4 36/47/4 38/49/4 37/50/4
f 34/51/15 32/14/15 40/52/15 38/53/15 36/54/15
f 37/50/16 38/49/16 40/55/16 39/56/16
f 39/56/17 40/55/17 32/22/17 31/23/17
f 31/24/18 33/57/18 35/58/18 37/59/18 39/60/18
f 41/1/19 42/2/19 44/45/19 43/46/19
f 43/46/20 44/45/20 46/47/20 45/48/20
f 45/48/4 46/47/4 48/49/4 47/50/4
f 44/51/21 42/14/21 50/52/21 48/53/21 46/54/21
f 47/50/22 48/49/22 50/55/22 49/56/22
f 49/56/23 50/55/23 42/22/23 41/23/23
f 41/24/24 43/57/24 45/58/24 47/59/24 49/60/24
f 51/1/25 52/2/25 54/45/25 53/46/25
f 53/46/26 54/45/26 56/47/26 55/48/26
f 55/48/4 56/47/4 58/49/4 57/50/4
f 54/51/27 52/14/27 60/52/27 58/53/27 56/54/27
f 57/50/28 58/49/28 60/55/28 59/56/28
f 59/56/29 60/55/29 52/22/29 51/23/29
f 51/24/30 53/57/30 55/58/30 57/59/30 59/60/30
f 61/1/31 62/2/31 64/45/31 63/46/31
f 63/46/32 64/45/32 66/47/32 65/48/32
f 65/48/4 66/47/4 68/49/4 67/50/4
f 64/51/33 62/14/33 70/52/33 68/53/33 66/54/33
f 67/50/34 68/49/34 70/55/34 69/56/34
f 69/56/35 70/55/35 62/22/35 61/23/35
f 61/24/36 63/57/36 65/58/36 67/59/36 69/60/36
f 71/1/37 72/2/37 74/45/37 73/46/37
f 73/46/38 74/45/38 76/47/38 75/48/38
f 75/48/4 76/47/4 78/49/4 77/50/4
f 74/51/39 72/14/39 80/52/39 78/53/39 76/54/39
f 77/50/40 78/49/40 80/55/40 79/56/40
f 79/56/41 80/55/41 72/22/41 71/23/41
f 71/24/42 73/57/42 75/58/42 77/59/42 79/60/42
f 81/1/43 82/2/43 84/61/43 83/62/43
f 83/62/44 84/61/44 86/63/44 85/64/44
f 84/65/45 82/14/45 88/66/45 86/67/45
f 85/64/46 86/63/46 88/68/46 87/69/46
f 87/69/47 88/68/47 82/70/47 81/71/47
f 81/24/48 83/72/48 85/73/48 87/74/48
f 89/1/49 90/2/49 92/61/49 91/62/49
f 91/62/50 92/61/50 94/63/50 93/64/50
f 92/65/51 90/14/51 96/66/51 94/67/51
f 93/64/52 94/63/52 96/68/52 95/69/52
f 95/69/53 96/68/53 90/70/53 89/71/53
f 89/24/54 91/72/54 93/73/54 95/74/54
f 97/1/55 98/2/55 100/61/55 99/62/55
f 99/62/56 100/61/56 102/63/56 101/64/56
f 100/65/57 98/14/57 104/66/57 102/67/57
f 101/64/58 102/63/58 104/68/58 103/69/58
f 103/69/59 104/68/59 98/70/59 97/71/59
f 97/24/60 99/72/60 101/73/60 103/74/60
f 105/1/61 106/2/61 108/61/61 107/62/61
f 107/62/62 108/61/62 110/63/62 109/64/62
f 108/65/63 106/14/63 112/66/63 110/67/63
f 109/64/64 110/63/64 112/68/64 111/69/64
f 111/69/65 112/68/65 106/70/65 105/71/65
f 105/24/66 107/72/66 109/73/66 111/74/66
f 113/1/67 114/2/67 116/61/67 115/62/67
f 115/62/68 116/61/68 118/63/68 117/64/68
f 116/65/69 114/14/69 120/66/69 118/67/69
f 117/64/70 118/63/70 120/68/70 119/69/70
f 119/69/71 120/68/71 114/70/71 113/71/71
f 113/24/72 115/72/72 117/73/72 119/74/72
usemtl soot
f 15/31/10 16/32/10 18/33/10 17/34/10
f 17/34/11 18/33/11 22/35/11 21/36/11
f 21/36/12 22/35/12 20/37/12 19/38/12
f 19/38/4 20/37/4 16/39/4 15/40/4
f 17/41/9 21/36/9 19/38/9 15/42/9
f 22/35/6 18/43/6 16/44/6 20/37/6
usemtl amber
f 23/31/10 24/32/10 26/33/10 25/34/10
f 25/34/11 26/33/11 30/35/11 29/36/11
f 29/36/12 30/35/12 28/37/12 27/38/12
f 27/38/4 28/37/4 24/39/4 23/40/4
f 25/41/9 29/36/9 27/38/9 23/42/9
f 30/35/6 26/43/6 24/44/6 28/37/6
