# Blender 5.0.1
# www.blender.org
mtllib grave_cross.mtl
o grave_cross
v -0.350000 0.010000 0.150000
v -0.350000 0.070000 0.150000
v -0.350000 0.010000 -0.350000
v -0.350000 0.070000 -0.350000
v 0.350000 0.010000 0.150000
v 0.350000 0.070000 0.150000
v 0.350000 0.010000 -0.350000
v 0.350000 0.070000 -0.350000
v -0.250000 0.020000 0.060000
v -0.250000 0.120000 0.060000
v -0.250000 0.020000 -0.260000
v -0.250000 0.120000 -0.260000
v 0.250000 0.020000 0.060000
v 0.250000 0.120000 0.060000
v 0.250000 0.020000 -0.260000
v 0.250000 0.120000 -0.260000
v -0.034553 0.038670 0.228862
v -0.052665 0.976974 0.081357
v -0.046590 0.023026 0.130830
v -0.064701 0.961330 -0.016675
v 0.064701 0.038670 0.216675
v 0.046590 0.976974 0.069170
v 0.052665 0.023026 0.118643
v 0.034553 0.961330 -0.028862
v -0.242369 0.676873 0.177444
v -0.244275 0.775642 0.161917
v -0.251998 0.664358 0.099018
v -0.253905 0.763127 0.083491
v 0.253905 0.676873 0.116509
v 0.251998 0.775642 0.100982
v 0.244275 0.664358 0.038083
v 0.242369 0.763127 0.022556
vn -1.0000 -0.0000 -0.0000
vn -0.0000 -0.0000 -1.0000
vn 1.0000 -0.0000 -0.0000
vn -0.0000 -0.0000 1.0000
vn -0.0000 -1.0000 -0.0000
vn -0.0000 1.0000 -0.0000
vn -0.9925 -0.0000 0.1219
vn -0.1204 -0.1564 -0.9803
vn 0.9925 -0.0000 -0.1219
vn 0.1204 0.1564 0.9803
vn 0.0191 -0.9877 0.1553
vn -0.0191 0.9877 -0.1553
vt 0.876953 0.500000
vt 0.876953 0.662109
vt 0.998047 0.662109
vt 0.998047 0.500000
vt 0.126953 0.333984
vt 0.126953 0.496094
vt 0.248047 0.496094
vt 0.248047 0.333984
vt 0.001953 0.167969
vt 0.001953 0.330078
vt 0.123047 0.330078
vt 0.123047 0.167969
s 0
usemtl kit_atlas_mat
f 1/1/1 2/2/1 4/3/1 3/4/1
f 3/1/2 4/2/2 8/3/2 7/4/2
f 7/4/3 8/3/3 6/2/3 5/1/3
f 5/4/4 6/3/4 2/2/4 1/1/4
f 3/2/5 7/3/5 5/4/5 1/1/5
f 8/3/6 4/2/6 2/1/6 6/4/6
f 9/5/1 10/6/1 12/7/1 11/8/1
f 11/5/2 12/6/2 16/7/2 15/8/2
f 15/8/3 16/7/3 14/6/3 13/5/3
f 13/8/4 14/7/4 10/6/4 9/5/4
f 11/6/5 15/7/5 13/8/5 9/5/5
f 16/7/6 12/6/6 10/5/6 14/8/6
f 17/9/7 18/10/7 20/11/7 19/12/7
f 19/9/8 20/10/8 24/11/8 23/12/8
f 23/12/9 24/11/9 22/10/9 21/9/9
f 21/12/10 22/11/10 18/10/10 17/9/10
f 19/10/11 23/11/11 21/12/11 17/9/11
f 24/11/12 20/10/12 18/9/12 22/12/12
f 25/9/7 26/10/7 28/11/7 27/12/7
f 27/9/8 28/10/8 32/11/8 31/12/8
f 31/12/9 32/11/9 30/10/9 29/9/9
f 29/12/10 30/11/10 26/10/10 25/9/10
f 27/10/11 31/11/11 29/12/11 25/9/11
f 32/11/12 28/10/12 26/9/12 30/12/12
