# Blender 5.0.1
# www.blender.org
mtllib hanged_tree.mtl
o hanged_tree
v -0.400000 0.000000 0.300000
v -0.400000 0.120000 0.300000
v -0.400000 0.000000 -0.500000
v -0.400000 0.120000 -0.500000
v 0.400000 0.000000 0.300000
v 0.400000 0.120000 0.300000
v 0.400000 0.000000 -0.500000
v 0.400000 0.120000 -0.500000
v -0.480661 0.006848 -0.300000
v -0.219339 2.493153 -0.300000
v -0.325151 -0.009497 -0.224698
v -0.063830 2.476808 -0.224698
v -0.286743 -0.013534 -0.055496
v -0.025422 2.472771 -0.055496
v -0.394359 -0.002223 0.080194
v -0.133038 2.484082 0.080194
v -0.566962 0.015918 0.080194
v -0.305641 2.502223 0.080194
v -0.674578 0.027229 -0.055496
v -0.413257 2.513534 -0.055496
v -0.636170 0.023192 -0.224698
v -0.374849 2.509497 -0.224698
v -0.489365 2.028446 -0.220000
v 0.889365 2.271554 -0.220000
v -0.471319 1.926102 -0.160000
v 0.907411 2.169210 -0.160000
v -0.471319 1.926102 -0.040000
v 0.907411 2.169210 -0.040000
v -0.489365 2.028446 0.020000
v 0.889365 2.271554 0.020000
v -0.507411 2.130790 -0.040000
v 0.871319 2.373898 -0.040000
v -0.507411 2.130790 -0.160000
v 0.871319 2.373898 -0.160000
v -0.779813 1.507164 -0.160000
v -0.320187 1.892836 -0.160000
v -0.743134 1.463451 -0.118541
v -0.283507 1.849123 -0.118541
v -0.757144 1.480148 -0.051459
v -0.297517 1.865820 -0.051459
v -0.802483 1.534180 -0.051459
v -0.342856 1.919852 -0.051459
v -0.816493 1.550877 -0.118541
v -0.356866 1.936549 -0.118541
v 0.017758 2.051289 -0.160000
v -0.317758 2.548711 -0.160000
v 0.065066 2.083198 -0.118541
v -0.270450 2.580621 -0.118541
v 0.046996 2.071010 -0.051459
v -0.288520 2.568432 -0.051459
v -0.011480 2.031568 -0.051459
v -0.346996 2.528990 -0.051459
v -0.029550 2.019379 -0.118541
v -0.365066 2.516802 -0.118541
v 0.390000 0.920000 -0.020000
v 0.390000 1.440000 -0.020000
v 0.390000 0.920000 -0.180000
v 0.390000 1.440000 -0.180000
v 0.610000 0.920000 -0.020000
v 0.610000 1.440000 -0.020000
v 0.610000 0.920000 -0.180000
v 0.610000 1.440000 -0.180000
v 0.370000 1.415000 0.000000
v 0.370000 1.505000 0.000000
v 0.370000 1.415000 -0.200000
v 0.370000 1.505000 -0.200000
v 0.630000 1.415000 0.000000
v 0.630000 1.505000 0.000000
v 0.630000 1.415000 -0.200000
v 0.630000 1.505000 -0.200000
v 0.500000 1.500000 -0.155000
v 0.500000 1.580000 -0.155000
v 0.547631 1.500000 -0.127500
v 0.547631 1.580000 -0.127500
v 0.547631 1.500000 -0.072500
v 0.547631 1.580000 -0.072500
v 0.500000 1.500000 -0.045000
v 0.500000 1.580000 -0.045000
v 0.452369 1.500000 -0.072500
v 0.452369 1.580000 -0.072500
v 0.452369 1.500000 -0.127500
v 0.452369 1.580000 -0.127500
v 0.582500 1.544000 -0.084000
v 0.582500 1.576000 -0.084000
v 0.582500 1.544000 -0.116000
v 0.582500 1.576000 -0.116000
v 0.637500 1.544000 -0.084000
v 0.637500 1.576000 -0.084000
v 0.637500 1.544000 -0.116000
v 0.637500 1.576000 -0.116000
v 0.569650 1.544000 -0.147023
v 0.569650 1.576000 -0.147023
v 0.547023 1.544000 -0.169650
v 0.547023 1.576000 -0.169650
v 0.608541 1.544000 -0.185913
v 0.608541 1.576000 -0.185913
v 0.585913 1.544000 -0.208541
v 0.585913 1.576000 -0.208541
v 0.516000 1.544000 -0.182500
v 0.516000 1.576000 -0.182500
v 0.484000 1.544000 -0.182500
v 0.484000 1.576000 -0.182500
v 0.516000 1.544000 -0.237500
v 0.516000 1.576000 -0.237500
v 0.484000 1.544000 -0.237500
v 0.484000 1.576000 -0.237500
v 0.452977 1.544000 -0.169650
v 0.452977 1.576000 -0.169650
v 0.430350 1.544000 -0.147023
v 0.430350 1.576000 -0.147023
v 0.414087 1.544000 -0.208541
v 0.414087 1.576000 -0.208541
v 0.391459 1.544000 -0.185913
v 0.391459 1.576000 -0.185913
v 0.417500 1.544000 -0.116000
v 0.417500 1.576000 -0.116000
v 0.417500 1.544000 -0.084000
v 0.417500 1.576000 -0.084000
v 0.362500 1.544000 -0.116000
v 0.362500 1.576000 -0.116000
v 0.362500 1.544000 -0.084000
v 0.362500 1.576000 -0.084000
v 0.430350 1.544000 -0.052977
v 0.430350 1.576000 -0.052977
v 0.452977 1.544000 -0.030350
v 0.452977 1.576000 -0.030350
v 0.391459 1.544000 -0.014087
v 0.391459 1.576000 -0.014087
v 0.414087 1.544000 0.008541
v 0.414087 1.576000 0.008541
v 0.484000 1.544000 -0.017500
v 0.484000 1.576000 -0.017500
v 0.516000 1.544000 -0.017500
v 0.516000 1.576000 -0.017500
v 0.484000 1.544000 0.037500
v 0.484000 1.576000 0.037500
v 0.516000 1.544000 0.037500
v 0.516000 1.576000 0.037500
v 0.547023 1.544000 -0.030350
v 0.547023 1.576000 -0.030350
v 0.569650 1.544000 -0.052977
v 0.569650 1.576000 -0.052977
v 0.585913 1.544000 0.008541
v 0.585913 1.576000 0.008541
v 0.608541 1.544000 -0.014087
v 0.608541 1.576000 -0.014087
v 0.500000 1.610000 -0.172000
v 0.500000 2.150000 -0.172000
v 0.520923 1.610000 -0.156798
v 0.520923 2.150000 -0.156798
v 0.512931 1.610000 -0.132202
v 0.512931 2.150000 -0.132202
v 0.487069 1.610000 -0.132202
v 0.487069 2.150000 -0.132202
v 0.479077 1.610000 -0.156798
v 0.479077 2.150000 -0.156798
v 0.550000 1.510000 -0.100000
v 0.644068 1.581862 -0.031656
v 0.514070 1.581862 0.010583
v 0.433725 1.581862 -0.100000
v 0.514070 1.581862 -0.210583
v 0.644068 1.581862 -0.168344
v 0.585930 1.698138 0.010583
v 0.455932 1.698138 -0.031656
v 0.455932 1.698138 -0.168344
v 0.585930 1.698138 -0.210583
v 0.666275 1.698138 -0.100000
v 0.550000 1.770000 -0.100000
v 0.531758 1.725000 -0.265643
v 0.531758 1.775000 -0.265643
v 0.675662 1.725000 -0.233175
v 0.675662 1.775000 -0.233175
v 0.739999 1.725000 -0.100424
v 0.739999 1.775000 -0.100424
v 0.676324 1.725000 0.032647
v 0.676324 1.775000 0.032647
v 0.532585 1.725000 0.065832
v 0.532585 1.775000 0.065832
v 0.417020 1.725000 -0.025858
v 0.417020 1.775000 -0.025858
v 0.416652 1.725000 -0.173378
v 0.416652 1.775000 -0.173378
v 0.565255 1.735000 -0.207181
v 0.585501 1.865000 -0.119487
v 0.658369 1.735000 -0.186172
v 0.602431 1.865000 -0.115668
v 0.700000 1.735000 -0.100274
v 0.610000 1.865000 -0.100050
v 0.658798 1.735000 -0.014170
v 0.602509 1.865000 -0.084395
v 0.565790 1.735000 0.007303
v 0.585598 1.865000 -0.080490
v 0.491013 1.735000 -0.052026
v 0.572002 1.865000 -0.091277
v 0.490775 1.735000 -0.147480
v 0.571959 1.865000 -0.108633
v 0.400000 0.510000 -0.060000
v 0.400000 0.970000 -0.060000
v 0.400000 0.510000 -0.140000
v 0.400000 0.970000 -0.140000
v 0.480000 0.510000 -0.060000
v 0.480000 0.970000 -0.060000
v 0.480000 0.510000 -0.140000
v 0.480000 0.970000 -0.140000
v 0.385264 1.077929 -0.070000
v 0.297060 1.385533 -0.070000
v 0.385264 1.077929 -0.130000
v 0.297060 1.385533 -0.130000
v 0.442940 1.094467 -0.070000
v 0.354736 1.402071 -0.070000
v 0.442940 1.094467 -0.130000
v 0.354736 1.402071 -0.130000
v 0.520000 0.510000 -0.060000
v 0.520000 0.970000 -0.060000
v 0.520000 0.510000 -0.140000
v 0.520000 0.970000 -0.140000
v 0.600000 0.510000 -0.060000
v 0.600000 0.970000 -0.060000
v 0.600000 0.510000 -0.140000
v 0.600000 0.970000 -0.140000
v 0.557060 1.094467 -0.070000
v 0.645264 1.402071 -0.070000
v 0.557060 1.094467 -0.130000
v 0.645264 1.402071 -0.130000
v 0.614736 1.077929 -0.070000
v 0.702940 1.385533 -0.070000
v 0.614736 1.077929 -0.130000
v 0.702940 1.385533 -0.130000
vn -1.0000 -0.0000 -0.0000
vn -0.0000 -0.0000 -1.0000
vn 1.0000 -0.0000 -0.0000
vn -0.0000 -0.0000 1.0000
vn -0.0000 -1.0000 -0.0000
vn -0.0000 1.0000 -0.0000
vn 0.4315 -0.0454 -0.9010
vn 0.9696 -0.1019 -0.2225
vn 0.7775 -0.0817 0.6235
vn -0.7775 0.0817 0.6235
vn 0.1045 0.9945 -0.0000
vn -0.9696 0.1019 -0.2225
vn -0.4315 0.0454 -0.9010
vn -0.1045 -0.9945 -0.0000
vn 0.0868 -0.4924 -0.8660
vn 0.1736 -0.9848 -0.0000
vn 0.0868 -0.4924 0.8660
vn -0.0868 0.4924 0.8660
vn 0.9848 0.1736 -0.0000
vn -0.1736 0.9848 -0.0000
vn -0.0868 0.4924 -0.8660
vn -0.9848 -0.1736 -0.0000
vn 0.3778 -0.4503 -0.8090
vn 0.6113 -0.7286 0.3090
vn 0.7660 0.6428 -0.0000
vn -0.6113 0.7286 0.3090
vn -0.3778 0.4503 -0.8090
vn -0.7660 -0.6428 -0.0000
vn 0.4873 0.3287 -0.8090
vn 0.7885 0.5318 0.3090
vn -0.5592 0.8290 -0.0000
vn -0.7885 -0.5318 0.3090
vn -0.4873 -0.3287 -0.8090
vn 0.5592 -0.8290 -0.0000
vn 0.5000 -0.0000 -0.8660
vn 0.5000 -0.0000 0.8660
vn -0.5000 -0.0000 0.8660
vn -0.5000 -0.0000 -0.8660
vn -0.7071 -0.0000 0.7071
vn -0.7071 -0.0000 -0.7071
vn 0.7071 -0.0000 -0.7071
vn 0.7071 -0.0000 0.7071
vn 0.5878 -0.0000 -0.8090
vn 0.9511 -0.0000 0.3090
vn -0.9511 -0.0000 0.3090
vn -0.5878 -0.0000 -0.8090
vn 0.1876 -0.7947 0.5774
vn 0.6071 -0.7947 -0.0000
vn -0.4911 -0.7947 0.3568
vn -0.4911 -0.7947 -0.3568
vn 0.1876 -0.7947 -0.5774
vn 0.9822 -0.1876 -0.0000
vn 0.3035 -0.1876 0.9342
vn -0.7946 -0.1876 0.5774
vn -0.7946 -0.1876 -0.5774
vn 0.3035 -0.1876 -0.9342
vn 0.7946 0.1876 0.5774
vn -0.3035 0.1876 0.9342
vn -0.9822 0.1876 -0.0000
vn -0.3035 0.1876 -0.9342
vn 0.7946 0.1876 -0.5774
vn 0.4911 0.7947 0.3568
vn -0.1876 0.7947 0.5774
vn -0.6071 0.7947 -0.0000
vn -0.1876 0.7947 -0.5774
vn 0.4911 0.7947 -0.3568
vn 0.2201 -0.0000 -0.9755
vn 0.8999 -0.0000 -0.4361
vn 0.9020 -0.0000 0.4316
vn 0.2250 -0.0000 0.9744
vn -0.6215 -0.0000 0.7834
vn -1.0000 -0.0000 0.0025
vn -0.6254 -0.0000 -0.7803
vn 0.1867 0.5292 -0.8277
vn 0.7635 0.5292 -0.3700
vn 0.7654 0.5292 0.3662
vn 0.1909 0.5292 0.8267
vn -0.5274 0.5292 0.6647
vn -0.8485 0.5292 0.0021
vn -0.5307 0.5292 -0.6620
vn -0.9613 -0.2756 -0.0000
vn 0.9613 0.2756 -0.0000
vn 0.2756 -0.9613 -0.0000
vn -0.2756 0.9613 -0.0000
vn -0.9613 0.2756 -0.0000
vn 0.9613 -0.2756 -0.0000
vn -0.2756 -0.9613 -0.0000
vn 0.2756 0.9613 -0.0000
vt 0.001953 0.666016
vt 0.001953 0.828125
vt 0.123047 0.828125
vt 0.123047 0.666016
vt 0.501953 0.500000
vt 0.501953 0.662109
vt 0.623047 0.662109
vt 0.623047 0.500000
vt 0.611055 0.630002
vt 0.562500 0.662109
vt 0.513945 0.630002
vt 0.501953 0.557856
vt 0.535554 0.500000
vt 0.589446 0.500000
vt 0.623047 0.557856
vt 0.623047 0.621582
vt 0.501953 0.621582
vt 0.501953 0.540527
vt 0.562500 0.500000
vt 0.623047 0.540527
vt 0.623047 0.600189
vt 0.501953 0.600189
vt 0.525080 0.500000
vt 0.599920 0.500000
vt 0.876953 0.500000
vt 0.876953 0.662109
vt 0.998047 0.662109
vt 0.998047 0.500000
vt 0.501953 0.001953
vt 0.501953 0.164062
vt 0.623047 0.164062
vt 0.623047 0.001953
vt 0.251953 0.500000
vt 0.251953 0.662109
vt 0.373047 0.662109
vt 0.373047 0.500000
vt 0.373047 0.621582
vt 0.312500 0.662109
vt 0.251953 0.621582
vt 0.251953 0.540527
vt 0.312500 0.500000
vt 0.373047 0.540527
vt 0.373047 0.600189
vt 0.251953 0.600189
vt 0.275080 0.500000
vt 0.349920 0.500000
vt 0.285422 0.662109
vt 0.373047 0.561921
vt 0.251953 0.581055
vt 0.335628 0.500000
vt 0.335628 0.662109
vt 0.285422 0.500000
vt 0.373047 0.600188
vt 0.318891 0.662109
vt 0.298207 0.662109
vt 0.326793 0.662109
vt 0.298207 0.500000
vt 0.306109 0.500000
vt 0.326793 0.500000
vt 0.289372 0.500000
vt 0.251953 0.561921
vt 0.339578 0.662109
vt 0.373047 0.581055
vt 0.251953 0.600188
vt 0.339578 0.500000
vt 0.289372 0.662109
vt 0.523970 0.662109
vt 0.550030 0.662109
vt 0.528013 0.662109
vt 0.597426 0.500000
vt 0.605688 0.662109
vt 0.573509 0.662109
vt 0.551491 0.662109
vt 0.601030 0.662109
s 0
usemtl kit_atlas_mat
f 1/1/1 2/2/1 4/3/1 3/4/1
f 3/1/2 4/2/2 8/3/2 7/4/2
f 7/4/3 8/3/3 6/2/3 5/1/3
f 5/4/4 6/3/4 2/2/4 1/1/4
f 3/2/5 7/3/5 5/4/5 1/1/5
f 8/3/6 4/2/6 2/1/6 6/4/6
f 9/5/7 10/6/7 12/7/7 11/8/7
f 11/8/8 12/7/8 14/6/8 13/5/8
f 13/8/9 14/7/9 16/6/9 15/5/9
f 15/8/4 16/7/4 18/6/4 17/5/4
f 17/5/10 18/6/10 20/7/10 19/8/10
f 12/9/11 10/10/11 22/11/11 20/12/11 18/13/11 16/14/11 14/15/11
f 19/5/12 20/6/12 22/7/12 21/8/12
f 21/5/13 22/6/13 10/7/13 9/8/13
f 9/10/14 11/9/14 13/15/14 15/14/14 17/13/14 19/12/14 21/11/14
f 23/5/15 24/6/15 26/7/15 25/8/15
f 25/8/16 26/7/16 28/6/16 27/5/16
f 27/8/17 28/7/17 30/6/17 29/5/17
f 29/8/18 30/7/18 32/6/18 31/5/18
f 26/16/19 24/10/19 34/17/19 32/18/19 30/19/19 28/20/19
f 31/5/20 32/6/20 34/7/20 33/8/20
f 33/5/21 34/6/21 24/7/21 23/8/21
f 23/10/22 25/16/22 27/20/22 29/19/22 31/18/22 33/17/22
f 35/5/23 36/6/23 38/7/23 37/8/23
f 37/8/24 38/7/24 40/6/24 39/5/24
f 39/8/4 40/7/4 42/6/4 41/5/4
f 38/21/25 36/10/25 44/22/25 42/23/25 40/24/25
f 41/5/26 42/6/26 44/7/26 43/8/26
f 43/5/27 44/6/27 36/7/27 35/8/27
f 35/10/28 37/21/28 39/24/28 41/23/28 43/22/28
f 45/5/29 46/6/29 48/7/29 47/8/29
f 47/8/30 48/7/30 50/6/30 49/5/30
f 49/8/4 50/7/4 52/6/4 51/5/4
f 48/21/31 46/10/31 54/22/31 52/23/31 50/24/31
f 51/5/32 52/6/32 54/7/32 53/8/32
f 53/5/33 54/6/33 46/7/33 45/8/33
f 45/10/34 47/21/34 49/24/34 51/23/34 53/22/34
f 55/25/1 56/26/1 58/27/1 57/28/1
f 57/25/2 58/26/2 62/27/2 61/28/2
f 61/28/3 62/27/3 60/26/3 59/25/3
f 59/28/4 60/27/4 56/26/4 55/25/4
f 57/26/5 61/27/5 59/28/5 55/25/5
f 62/27/6 58/26/6 56/25/6 60/28/6
f 63/29/1 64/30/1 66/31/1 65/32/1
f 65/29/2 66/30/2 70/31/2 69/32/2
f 69/32/3 70/31/3 68/30/3 67/29/3
f 67/32/4 68/31/4 64/30/4 63/29/4
f 65/30/5 69/31/5 67/32/5 63/29/5
f 70/31/6 66/30/6 64/29/6 68/32/6
f 71/33/35 72/34/35 74/35/35 73/36/35
f 73/36/3 74/35/3 76/34/3 75/33/3
f 75/36/36 76/35/36 78/34/36 77/33/36
f 77/36/37 78/35/37 80/34/37 79/33/37
f 74/37/6 72/38/6 82/39/6 80/40/6 78/41/6 76/42/6
f 79/33/1 80/34/1 82/35/1 81/36/1
f 81/33/38 82/34/38 72/35/38 71/36/38
f 71/38/5 73/37/5 75/42/5 77/41/5 79/40/5 81/39/5
f 83/33/1 84/34/1 86/35/1 85/36/1
f 85/33/2 86/34/2 90/35/2 89/36/2
f 89/36/3 90/35/3 88/34/3 87/33/3
f 87/36/4 88/35/4 84/34/4 83/33/4
f 85/34/5 89/35/5 87/36/5 83/33/5
f 90/35/6 86/34/6 84/33/6 88/36/6
f 91/33/39 92/34/39 94/35/39 93/36/39
f 93/33/40 94/34/40 98/35/40 97/36/40
f 97/36/41 98/35/41 96/34/41 95/33/41
f 95/36/42 96/35/42 92/34/42 91/33/42
f 93/34/5 97/35/5 95/36/5 91/33/5
f 98/35/6 94/34/6 92/33/6 96/36/6
f 99/33/4 100/34/4 102/35/4 101/36/4
f 101/33/1 102/34/1 106/35/1 105/36/1
f 105/36/2 106/35/2 104/34/2 103/33/2
f 103/36/3 104/35/3 100/34/3 99/33/3
f 101/34/5 105/35/5 103/36/5 99/33/5
f 106/35/6 102/34/6 100/33/6 104/36/6
f 107/33/42 108/34/42 110/35/42 109/36/42
f 109/33/39 110/34/39 114/35/39 113/36/39
f 113/36/40 114/35/40 112/34/40 111/33/40
f 111/36/41 112/35/41 108/34/41 107/33/41
f 109/34/5 113/35/5 111/36/5 107/33/5
f 114/35/6 110/34/6 108/33/6 112/36/6
f 115/33/3 116/34/3 118/35/3 117/36/3
f 117/33/4 118/34/4 122/35/4 121/36/4
f 121/36/1 122/35/1 120/34/1 119/33/1
f 119/36/2 120/35/2 116/34/2 115/33/2
f 117/34/5 121/35/5 119/36/5 115/33/5
f 122/35/6 118/34/6 116/33/6 120/36/6
f 123/33/41 124/34/41 126/35/41 125/36/41
f 125/33/42 126/34/42 130/35/42 129/36/42
f 129/36/39 130/35/39 128/34/39 127/33/39
f 127/36/40 128/35/40 124/34/40 123/33/40
f 125/34/5 129/35/5 127/36/5 123/33/5
f 130/35/6 126/34/6 124/33/6 128/36/6
f 131/33/2 132/34/2 134/35/2 133/36/2
f 133/33/3 134/34/3 138/35/3 137/36/3
f 137/36/4 138/35/4 136/34/4 135/33/4
f 135/36/1 136/35/1 132/34/1 131/33/1
f 133/34/5 137/35/5 135/36/5 131/33/5
f 138/35/6 134/34/6 132/33/6 136/36/6
f 139/33/40 140/34/40 142/35/40 141/36/40
f 141/33/41 142/34/41 146/35/41 145/36/41
f 145/36/42 146/35/42 144/34/42 143/33/42
f 143/36/39 144/35/39 140/34/39 139/33/39
f 141/34/5 145/35/5 143/36/5 139/33/5
f 146/35/6 142/34/6 140/33/6 144/36/6
f 147/33/43 148/34/43 150/35/43 149/36/43
f 149/36/44 150/35/44 152/34/44 151/33/44
f 151/36/4 152/35/4 154/34/4 153/33/4
f 150/43/6 148/38/6 156/44/6 154/45/6 152/46/6
f 153/33/45 154/34/45 156/35/45 155/36/45
f 155/33/46 156/34/46 148/35/46 147/36/46
f 147/38/5 149/43/5 151/46/5 153/45/5 155/44/5
f 157/47/47 158/48/47 159/33/47
f 158/36/48 157/49/48 162/35/48
f 157/35/49 159/50/49 160/34/49
f 157/36/50 160/33/50 161/51/50
f 157/52/51 161/34/51 162/53/51
f 158/33/52 162/36/52 167/38/52
f 159/33/53 158/36/53 163/54/53
f 160/36/54 159/33/54 164/55/54
f 161/36/55 160/33/55 165/56/55
f 162/36/56 161/33/56 166/54/56
f 158/57/57 167/35/57 163/34/57
f 159/58/58 163/35/58 164/34/58
f 160/41/59 164/34/59 165/35/59
f 161/58/60 165/34/60 166/35/60
f 162/59/61 166/35/61 167/34/61
f 163/60/62 167/35/62 168/34/62
f 164/61/63 163/36/63 168/62/63
f 165/34/64 164/33/64 168/63/64
f 166/35/65 165/64/65 168/65/65
f 167/36/66 166/66/66 168/33/66
f 169/5/67 170/6/67 172/7/67 171/8/67
f 171/8/68 172/7/68 174/6/68 173/5/68
f 173/8/69 174/7/69 176/6/69 175/5/69
f 175/8/70 176/7/70 178/6/70 177/5/70
f 177/5/71 178/6/71 180/7/71 179/8/71
f 172/9/6 170/10/6 182/11/6 180/12/6 178/13/6 176/14/6 174/15/6
f 179/5/72 180/6/72 182/7/72 181/8/72
f 181/5/73 182/6/73 170/7/73 169/8/73
f 169/10/5 171/9/5 173/15/5 175/14/5 177/13/5 179/12/5 181/11/5
f 183/5/74 184/6/74 186/67/74 185/8/74
f 185/8/75 186/68/75 188/69/75 187/5/75
f 187/70/76 188/7/76 190/71/76 189/5/76
f 189/8/77 190/72/77 192/73/77 191/5/77
f 191/5/78 192/71/78 194/7/78 193/70/78
f 186/9/6 184/10/6 196/11/6 194/12/6 192/13/6 190/14/6 188/15/6
f 193/5/79 194/69/79 196/68/79 195/8/79
f 195/5/80 196/74/80 184/7/80 183/8/80
f 183/10/5 185/9/5 187/15/5 189/14/5 191/13/5 193/12/5 195/11/5
f 197/25/1 198/26/1 200/27/1 199/28/1
f 199/25/2 200/26/2 204/27/2 203/28/2
f 203/28/3 204/27/3 202/26/3 201/25/3
f 201/28/4 202/27/4 198/26/4 197/25/4
f 199/26/5 203/27/5 201/28/5 197/25/5
f 204/27/6 200/26/6 198/25/6 202/28/6
f 205/25/81 206/26/81 208/27/81 207/28/81
f 207/25/2 208/26/2 212/27/2 211/28/2
f 211/28/82 212/27/82 210/26/82 209/25/82
f 209/28/4 210/27/4 206/26/4 205/25/4
f 207/26/83 211/27/83 209/28/83 205/25/83
f 212/27/84 208/26/84 206/25/84 210/28/84
f 213/25/1 214/26/1 216/27/1 215/28/1
f 215/25/2 216/26/2 220/27/2 219/28/2
f 219/28/3 220/27/3 218/26/3 217/25/3
f 217/28/4 218/27/4 214/26/4 213/25/4
f 215/26/5 219/27/5 217/28/5 213/25/5
f 220/27/6 216/26/6 214/25/6 218/28/6
f 221/25/85 222/26/85 224/27/85 223/28/85
f 223/25/2 224/26/2 228/27/2 227/28/2
f 227/28/86 228/27/86 226/26/86 225/25/86
f 225/28/4 226/27/4 222/26/4 221/25/4
f 223/26/87 227/27/87 225/28/87 221/25/87
f 228/27/88 224/26/88 222/25/88 226/28/88
