# Blender 5.0.1
# www.blender.org
mtllib iron_brazier.mtl
o iron_brazier
v 0.000000 -0.005000 -0.180000
v 0.000000 0.745000 -0.100000
v 0.155885 -0.005000 -0.090000
v 0.086603 0.745000 -0.050000
v 0.155885 -0.005000 0.090000
v 0.086603 0.745000 0.050000
v 0.000000 -0.005000 0.180000
v 0.000000 0.745000 0.100000
v -0.155885 -0.005000 0.090000
v -0.086603 0.745000 0.050000
v -0.155885 -0.005000 -0.090000
v -0.086603 0.745000 -0.050000
v 0.000000 0.680000 -0.270000
v 0.000000 0.840000 -0.270000
v 0.190919 0.680000 -0.190919
v 0.190919 0.840000 -0.190919
v 0.270000 0.680000 0.000000
v 0.270000 0.840000 0.000000
v 0.190919 0.680000 0.190919
v 0.190919 0.840000 0.190919
v 0.000000 0.680000 0.270000
v 0.000000 0.840000 0.270000
v -0.190919 0.680000 0.190919
v -0.190919 0.840000 0.190919
v -0.270000 0.680000 0.000000
v -0.270000 0.840000 0.000000
v -0.190919 0.680000 -0.190919
v -0.190919 0.840000 -0.190919
v 0.000000 0.780000 -0.210000
v 0.181865 0.780000 -0.105000
v 0.181865 0.780000 0.105000
v 0.000000 0.780000 0.210000
v -0.181865 0.780000 0.105000
v -0.181865 0.780000 -0.105000
v 0.000000 1.140000 0.000000
v 0.050000 0.910000 -0.100000
v 0.145106 0.910000 -0.030902
v 0.108779 0.910000 0.080902
v -0.008779 0.910000 0.080902
v -0.045106 0.910000 -0.030902
v 0.050000 1.190000 0.000000
vn 0.4979 0.0920 -0.8624
vn 0.9958 0.0920 -0.0000
vn 0.4979 0.0920 0.8624
vn -0.4979 0.0920 0.8624
vn -0.0000 1.0000 -0.0000
vn -0.9958 0.0920 -0.0000
vn -0.4979 0.0920 -0.8624
vn -0.0000 -1.0000 -0.0000
vn 0.3827 -0.0000 -0.9239
vn 0.9239 -0.0000 -0.3827
vn 0.9239 -0.0000 0.3827
vn 0.3827 -0.0000 0.9239
vn -0.3827 -0.0000 0.9239
vn -0.9239 -0.0000 0.3827
vn -0.9239 -0.0000 -0.3827
vn -0.3827 -0.0000 -0.9239
vn 0.4463 0.4509 -0.7730
vn 0.8926 0.4509 -0.0000
vn 0.4463 0.4509 0.7730
vn -0.4463 0.4509 0.7730
vn -0.8926 0.4509 -0.0000
vn -0.4463 0.4509 -0.7730
vn 0.5647 0.2776 -0.7772
vn 0.9137 0.2776 0.2969
vn -0.0000 0.2776 0.9607
vn -0.9137 0.2776 0.2969
vn -0.5647 0.2776 -0.7772
vt 0.376953 0.666016
vt 0.376953 0.828125
vt 0.444227 0.828125
vt 0.498047 0.666016
vt 0.471137 0.828125
vt 0.403863 0.828125
vt 0.498047 0.828125
vt 0.430773 0.828125
vt 0.498047 0.787598
vt 0.437500 0.828125
vt 0.376953 0.787598
vt 0.376953 0.706543
vt 0.437500 0.666016
vt 0.498047 0.706543
vt 0.480313 0.804385
vt 0.394687 0.804385
vt 0.376953 0.747070
vt 0.394687 0.689756
vt 0.480313 0.689756
vt 0.498047 0.747070
vt 0.876953 0.666016
vt 0.876953 0.828125
vt 0.998047 0.666016
vt 0.937500 0.828125
vt 0.998047 0.828125
vt 0.998047 0.787598
vt 0.998047 0.706543
vt 0.937500 0.666016
vt 0.876953 0.706543
vt 0.876953 0.787598
vt 0.001953 0.832031
vt 0.001953 0.994141
vt 0.123047 0.832031
vt 0.089577 0.994141
vt 0.062500 0.994141
vt 0.123047 0.932220
vt 0.099920 0.832031
vt 0.025080 0.832031
vt 0.001953 0.932220
vt 0.123047 0.994141
s 0
usemtl kit_atlas_mat
f 1/1/1 2/2/1 4/3/1 3/4/1
f 3/4/2 4/5/2 6/6/2 5/1/2
f 5/4/3 6/3/3 8/2/3 7/1/3
f 7/4/4 8/7/4 10/8/4 9/1/4
f 4/9/5 2/10/5 12/11/5 10/12/5 8/13/5 6/14/5
f 9/1/6 10/6/6 12/5/6 11/4/6
f 11/1/7 12/8/7 2/7/7 1/4/7
f 1/10/8 3/9/8 5/14/8 7/13/8 9/12/8 11/11/8
f 13/1/9 14/2/9 16/7/9 15/4/9
f 15/4/10 16/7/10 18/2/10 17/1/10
f 17/4/11 18/7/11 20/2/11 19/1/11
f 19/4/12 20/7/12 22/2/12 21/1/12
f 21/4/13 22/7/13 24/2/13 23/1/13
f 23/1/14 24/2/14 26/7/14 25/4/14
f 16/15/5 14/10/5 28/16/5 26/17/5 24/18/5 22/13/5 20/19/5 18/20/5
f 25/1/15 26/2/15 28/7/15 27/4/15
f 27/1/16 28/2/16 14/7/16 13/4/16
f 13/10/8 15/15/8 17/20/8 19/19/8 21/13/8 23/18/8 25/17/8 27/16/8
f 29/21/17 35/22/17 30/23/17
f 30/23/18 35/24/18 31/21/18
f 31/23/19 35/22/19 32/21/19
f 32/23/20 35/25/20 33/21/20
f 29/24/8 30/26/8 31/27/8 32/28/8 33/29/8 34/30/8
f 33/21/21 35/24/21 34/23/21
f 34/21/22 35/25/22 29/23/22
f 36/31/23 41/32/23 37/33/23
f 37/33/24 41/34/24 38/31/24
f 38/33/25 41/35/25 39/31/25
f 36/35/8 37/36/8 38/37/8 39/38/8 40/39/8
f 39/31/26 41/34/26 40/33/26
f 40/31/27 41/40/27 36/33/27
