# Blender 5.0.1
# www.blender.org
mtllib ritual_altar.mtl
o ritual_altar
v -0.500000 0.030000 0.250000
v -0.500000 0.530000 0.250000
v -0.500000 0.030000 -0.250000
v -0.500000 0.530000 -0.250000
v 0.500000 0.030000 0.250000
v 0.500000 0.530000 0.250000
v 0.500000 0.030000 -0.250000
v 0.500000 0.530000 -0.250000
v -0.600000 0.470000 0.350000
v -0.600000 0.630000 0.350000
v -0.600000 0.470000 -0.350000
v -0.600000 0.630000 -0.350000
v 0.600000 0.470000 0.350000
v 0.600000 0.630000 0.350000
v 0.600000 0.470000 -0.350000
v 0.600000 0.630000 -0.350000
v -0.500000 0.620000 0.250000
v -0.500000 0.660000 0.250000
v -0.500000 0.620000 -0.250000
v -0.500000 0.660000 -0.250000
v 0.500000 0.620000 0.250000
v 0.500000 0.660000 0.250000
v 0.500000 0.620000 -0.250000
v 0.500000 0.660000 -0.250000
v -0.450000 0.630000 0.170000
v -0.450000 0.850000 0.170000
v -0.406699 0.630000 0.195000
v -0.406699 0.850000 0.195000
v -0.406699 0.630000 0.245000
v -0.406699 0.850000 0.245000
v -0.450000 0.630000 0.270000
v -0.450000 0.850000 0.270000
v -0.493301 0.630000 0.245000
v -0.493301 0.850000 0.245000
v -0.493301 0.630000 0.195000
v -0.493301 0.850000 0.195000
v -0.450000 0.870000 0.170000
v -0.402447 0.870000 0.204549
v -0.420611 0.870000 0.260451
v -0.479389 0.870000 0.260451
v -0.497553 0.870000 0.204549
v -0.450000 0.970000 0.220000
v 0.450000 0.630000 0.170000
v 0.450000 0.850000 0.170000
v 0.493301 0.630000 0.195000
v 0.493301 0.850000 0.195000
v 0.493301 0.630000 0.245000
v 0.493301 0.850000 0.245000
v 0.450000 0.630000 0.270000
v 0.450000 0.850000 0.270000
v 0.406699 0.630000 0.245000
v 0.406699 0.850000 0.245000
v 0.406699 0.630000 0.195000
v 0.406699 0.850000 0.195000
v 0.450000 0.870000 0.170000
v 0.497553 0.870000 0.204549
v 0.479389 0.870000 0.260451
v 0.420611 0.870000 0.260451
v 0.402447 0.870000 0.204549
v 0.450000 0.970000 0.220000
v 0.340000 0.620000 -0.160000
v 0.426832 0.686334 -0.096914
v 0.306834 0.686334 -0.057923
v 0.232669 0.686334 -0.160000
v 0.306834 0.686334 -0.262077
v 0.426832 0.686334 -0.223086
v 0.373166 0.793666 -0.057923
v 0.253168 0.793666 -0.096914
v 0.253168 0.793666 -0.223086
v 0.373166 0.793666 -0.262077
v 0.447331 0.793666 -0.160000
v 0.340000 0.860000 -0.160000
v 0.250000 0.605000 -0.070000
v 0.250000 0.743000 -0.070000
v 0.250000 0.605000 -0.190000
v 0.250000 0.743000 -0.190000
v 0.430000 0.605000 -0.070000
v 0.430000 0.743000 -0.070000
v 0.430000 0.605000 -0.190000
v 0.430000 0.743000 -0.190000
v 0.268000 0.584000 -0.061000
v 0.268000 0.644000 -0.061000
v 0.268000 0.584000 -0.163000
v 0.268000 0.644000 -0.163000
v 0.412000 0.584000 -0.061000
v 0.412000 0.644000 -0.061000
v 0.412000 0.584000 -0.163000
v 0.412000 0.644000 -0.163000
v 0.264400 0.682400 -0.041200
v 0.264400 0.730400 -0.041200
v 0.264400 0.682400 -0.091600
v 0.264400 0.730400 -0.091600
v 0.314800 0.682400 -0.041200
v 0.314800 0.730400 -0.041200
v 0.314800 0.682400 -0.091600
v 0.314800 0.730400 -0.091600
v 0.365200 0.682400 -0.041200
v 0.365200 0.730400 -0.041200
v 0.365200 0.682400 -0.091600
v 0.365200 0.730400 -0.091600
v 0.415600 0.682400 -0.041200
v 0.415600 0.730400 -0.041200
v 0.415600 0.682400 -0.091600
v 0.415600 0.730400 -0.091600
v 0.325600 0.641600 -0.041200
v 0.325600 0.680000 -0.041200
v 0.325600 0.641600 -0.082000
v 0.325600 0.680000 -0.082000
v 0.354400 0.641600 -0.041200
v 0.354400 0.680000 -0.041200
v 0.354400 0.641600 -0.082000
v 0.354400 0.680000 -0.082000
v 0.283000 0.590000 -0.052000
v 0.283000 0.638000 -0.052000
v 0.283000 0.590000 -0.076000
v 0.283000 0.638000 -0.076000
v 0.289000 0.590000 -0.052000
v 0.289000 0.638000 -0.052000
v 0.289000 0.590000 -0.076000
v 0.289000 0.638000 -0.076000
v 0.319000 0.590000 -0.052000
v 0.319000 0.638000 -0.052000
v 0.319000 0.590000 -0.076000
v 0.319000 0.638000 -0.076000
v 0.325000 0.590000 -0.052000
v 0.325000 0.638000 -0.052000
v 0.325000 0.590000 -0.076000
v 0.325000 0.638000 -0.076000
v 0.355000 0.590000 -0.052000
v 0.355000 0.638000 -0.052000
v 0.355000 0.590000 -0.076000
v 0.355000 0.638000 -0.076000
v 0.361000 0.590000 -0.052000
v 0.361000 0.638000 -0.052000
v 0.361000 0.590000 -0.076000
v 0.361000 0.638000 -0.076000
v 0.391000 0.590000 -0.052000
v 0.391000 0.638000 -0.052000
v 0.391000 0.590000 -0.076000
v 0.391000 0.638000 -0.076000
v 0.397000 0.590000 -0.052000
v 0.397000 0.638000 -0.052000
v 0.397000 0.590000 -0.076000
v 0.397000 0.638000 -0.076000
v -0.410000 0.635000 0.140000
v -0.410000 0.685000 0.140000
v -0.410000 0.635000 -0.220000
v -0.410000 0.685000 -0.220000
v 0.050000 0.635000 0.140000
v 0.050000 0.685000 0.140000
v 0.050000 0.635000 -0.220000
v 0.050000 0.685000 -0.220000
v -0.400436 0.692871 0.130000
v -0.397999 0.712722 0.130000
v -0.400436 0.692871 -0.210000
v -0.397999 0.712722 -0.210000
v -0.192001 0.667278 0.130000
v -0.189564 0.687129 0.130000
v -0.192001 0.667278 -0.210000
v -0.189564 0.687129 -0.210000
v -0.167999 0.667278 0.130000
v -0.170436 0.687129 0.130000
v -0.167999 0.667278 -0.210000
v -0.170436 0.687129 -0.210000
v 0.040436 0.692871 0.130000
v 0.037999 0.712722 0.130000
v 0.040436 0.692871 -0.210000
v 0.037999 0.712722 -0.210000
v -0.075706 0.700000 -0.131854
v -0.075706 0.720000 -0.131854
v -0.064294 0.700000 -0.128146
v -0.064294 0.720000 -0.128146
v -0.128607 0.700000 0.030957
v -0.128607 0.720000 0.030957
v -0.117194 0.700000 0.034666
v -0.117194 0.720000 0.034666
v -0.159122 0.700000 -0.062957
v -0.159122 0.720000 -0.062957
v -0.152068 0.700000 -0.072666
v -0.152068 0.720000 -0.072666
v -0.020626 0.700000 0.037666
v -0.020626 0.720000 0.037666
v -0.013573 0.700000 0.027957
v -0.013573 0.720000 0.027957
v -0.119374 0.700000 0.037666
v -0.119374 0.720000 0.037666
v -0.126427 0.700000 0.027957
v -0.126427 0.720000 0.027957
v 0.019122 0.700000 -0.062957
v 0.019122 0.720000 -0.062957
v 0.012068 0.700000 -0.072666
v 0.012068 0.720000 -0.072666
v -0.011393 0.700000 0.030957
v -0.011393 0.720000 0.030957
v -0.022806 0.700000 0.034666
v -0.022806 0.720000 0.034666
v -0.064294 0.700000 -0.131854
v -0.064294 0.720000 -0.131854
v -0.075706 0.700000 -0.128146
v -0.075706 0.720000 -0.128146
v 0.015595 0.700000 -0.073812
v 0.015595 0.720000 -0.073812
v 0.015595 0.700000 -0.061812
v 0.015595 0.720000 -0.061812
v -0.155595 0.700000 -0.073812
v -0.155595 0.720000 -0.073812
v -0.155595 0.700000 -0.061812
v -0.155595 0.720000 -0.061812
v -0.340000 0.700000 0.066000
v -0.340000 0.720000 0.066000
v -0.340000 0.700000 0.054000
v -0.340000 0.720000 0.054000
v -0.240000 0.700000 0.066000
v -0.240000 0.720000 0.066000
v -0.240000 0.700000 0.054000
v -0.240000 0.720000 0.054000
v -0.350000 0.700000 -0.044000
v -0.350000 0.720000 -0.044000
v -0.350000 0.700000 -0.056000
v -0.350000 0.720000 -0.056000
v -0.250000 0.700000 -0.044000
v -0.250000 0.720000 -0.044000
v -0.250000 0.700000 -0.056000
v -0.250000 0.720000 -0.056000
v -0.330000 0.700000 -0.134000
v -0.330000 0.720000 -0.134000
v -0.330000 0.700000 -0.146000
v -0.330000 0.720000 -0.146000
v -0.230000 0.700000 -0.134000
v -0.230000 0.720000 -0.134000
v -0.230000 0.700000 -0.146000
v -0.230000 0.720000 -0.146000
vn -1.0000 -0.0000 -0.0000
vn -0.0000 -0.0000 -1.0000
vn 1.0000 -0.0000 -0.0000
vn -0.0000 -0.0000 1.0000
vn -0.0000 -1.0000 -0.0000
vn -0.0000 1.0000 -0.0000
vn 0.5000 -0.0000 -0.8660
vn 0.5000 -0.0000 0.8660
vn -0.5000 -0.0000 0.8660
vn -0.5000 -0.0000 -0.8660
vn 0.5449 0.3750 -0.7500
vn 0.8817 0.3750 0.2865
vn -0.0000 0.3750 0.9270
vn -0.8817 0.3750 0.2865
vn -0.5449 0.3750 -0.7500
vn 0.1876 -0.7947 0.5774
vn 0.6071 -0.7947 -0.0000
vn -0.4911 -0.7947 0.3568
vn -0.4911 -0.7947 -0.3568
vn 0.1876 -0.7947 -0.5774
vn 0.9822 -0.1876 -0.0000
vn 0.3035 -0.1876 0.9342
vn -0.7946 -0.1876 0.5774
vn -0.7946 -0.1876 -0.5774
vn 0.3035 -0.1876 -0.9342
vn 0.7946 0.1876 0.5774
vn -0.3035 0.1876 0.9342
vn -0.9822 0.1876 -0.0000
vn -0.3035 0.1876 -0.9342
vn 0.7946 0.1876 -0.5774
vn 0.4911 0.7947 0.3568
vn -0.1876 0.7947 0.5774
vn -0.6071 0.7947 -0.0000
vn -0.1876 0.7947 -0.5774
vn 0.4911 0.7947 -0.3568
vn -0.9925 0.1219 -0.0000
vn 0.9925 -0.1219 -0.0000
vn -0.1219 -0.9925 -0.0000
vn 0.1219 0.9925 -0.0000
vn -0.9925 -0.1219 -0.0000
vn 0.9925 0.1219 -0.0000
vn 0.1219 -0.9925 -0.0000
vn -0.1219 0.9925 -0.0000
vn 0.3090 -0.0000 -0.9511
vn 0.9511 -0.0000 0.3090
vn -0.3090 -0.0000 0.9511
vn -0.9511 -0.0000 -0.3090
vn -0.8090 -0.0000 -0.5878
vn 0.5878 -0.0000 -0.8090
vn 0.8090 -0.0000 0.5878
vn -0.5878 -0.0000 0.8090
vn -0.8090 -0.0000 0.5878
vn -0.5878 -0.0000 -0.8090
vn 0.8090 -0.0000 -0.5878
vn 0.5878 -0.0000 0.8090
vn 0.3090 -0.0000 0.9511
vn -0.9511 -0.0000 0.3090
vn -0.3090 -0.0000 -0.9511
vn 0.9511 -0.0000 -0.3090
vt 0.375000 0.000000
vt 0.625000 0.000000
vt 0.625000 0.250000
vt 0.375000 0.250000
vt 0.625000 0.500000
vt 0.375000 0.500000
vt 0.625000 0.750000
vt 0.375000 0.750000
vt 0.625000 1.000000
vt 0.375000 1.000000
vt 0.125000 0.500000
vt 0.125000 0.750000
vt 0.875000 0.500000
vt 0.875000 0.750000
vt 1.000000 0.500000
vt 1.000000 1.000000
vt 0.833333 1.000000
vt 0.833333 0.500000
vt 0.666667 1.000000
vt 0.666667 0.500000
vt 0.500000 1.000000
vt 0.500000 0.500000
vt 0.333333 1.000000
vt 0.333333 0.500000
vt 0.457846 0.370000
vt 0.250000 0.490000
vt 0.042154 0.370000
vt 0.042154 0.130000
vt 0.250000 0.010000
vt 0.457846 0.130000
vt 0.166667 1.000000
vt 0.166667 0.500000
vt -0.000000 1.000000
vt -0.000000 0.500000
vt 0.750000 0.490000
vt 0.957846 0.370000
vt 0.957846 0.130000
vt 0.750000 0.010000
vt 0.542154 0.130000
vt 0.542154 0.370000
vt 0.250000 0.250000
vt 0.478254 0.324164
vt 0.391068 0.055836
vt 0.108932 0.055836
vt 0.978254 0.324164
vt 0.891068 0.055836
vt 0.608932 0.055836
vt 0.521746 0.324164
vt 0.021746 0.324164
vt 0.181819 0.000000
vt 0.272728 0.157461
vt 0.090910 0.157461
vt 0.363637 0.000000
vt 0.454546 0.157461
vt 0.909091 0.000000
vt 1.000000 0.157461
vt 0.818182 0.157461
vt 0.727273 0.000000
vt 0.636364 0.157461
vt 0.545455 0.000000
vt 0.363637 0.314921
vt 0.181819 0.314921
vt 0.909091 0.314921
vt 0.727273 0.314921
vt 0.545455 0.314921
vt 0.000000 0.314921
vt 0.272728 0.472382
vt 0.090910 0.472382
vt 0.818182 0.472382
vt 0.636364 0.472382
vt 0.454546 0.472382
s 0
usemtl stone
f 1/1/1 2/2/1 4/3/1 3/4/1
f 3/4/2 4/3/2 8/5/2 7/6/2
f 7/6/3 8/5/3 6/7/3 5/8/3
f 5/8/4 6/7/4 2/9/4 1/10/4
f 3/11/5 7/6/5 5/8/5 1/12/5
f 8/5/6 4/13/6 2/14/6 6/7/6
usemtl stone_dk
f 9/1/1 10/2/1 12/3/1 11/4/1
f 11/4/2 12/3/2 16/5/2 15/6/2
f 15/6/3 16/5/3 14/7/3 13/8/3
f 13/8/4 14/7/4 10/9/4 9/10/4
f 11/11/5 15/6/5 13/8/5 9/12/5
f 16/5/6 12/13/6 10/14/6 14/7/6
usemtl blood
f 17/1/1 18/2/1 20/3/1 19/4/1
f 19/4/2 20/3/2 24/5/2 23/6/2
f 23/6/3 24/5/3 22/7/3 21/8/3
f 21/8/4 22/7/4 18/9/4 17/10/4
f 19/11/5 23/6/5 21/8/5 17/12/5
f 24/5/6 20/13/6 18/14/6 22/7/6
usemtl bone
f 25/15/7 26/16/7 28/17/7 27/18/7
f 27/18/3 28/17/3 30/19/3 29/20/3
f 29/20/8 30/19/8 32/21/8 31/22/8
f 31/22/9 32/21/9 34/23/9 33/24/9
f 28/25/6 26/26/6 36/27/6 34/28/6 32/29/6 30/30/6
f 33/24/1 34/23/1 36/31/1 35/32/1
f 35/32/10 36/31/10 26/33/10 25/34/10
f 25/35/5 27/36/5 29/37/5 31/38/5 33/39/5 35/40/5
f 43/15/7 44/16/7 46/17/7 45/18/7
f 45/18/3 46/17/3 48/19/3 47/20/3
f 47/20/8 48/19/8 50/21/8 49/22/8
f 49/22/9 50/21/9 52/23/9 51/24/9
f 46/25/6 44/26/6 54/27/6 52/28/6 50/29/6 48/30/6
f 51/24/1 52/23/1 54/31/1 53/32/1
f 53/32/10 54/31/10 44/33/10 43/34/10
f 43/35/5 45/36/5 47/37/5 49/38/5 51/39/5 53/40/5
f 61/50/16 62/51/16 63/52/16
f 62/51/17 61/53/17 66/54/17
f 61/55/18 63/56/18 64/57/18
f 61/58/19 64/57/19 65/59/19
f 61/60/20 65/59/20 66/54/20
f 62/51/21 66/54/21 71/61/21
f 63/52/22 62/51/22 67/62/22
f 64/57/23 63/56/23 68/63/23
f 65/59/24 64/57/24 69/64/24
f 66/54/25 65/59/25 70/65/25
f 62/51/26 71/61/26 67/62/26
f 63/52/27 67/62/27 68/66/27
f 64/57/28 68/63/28 69/64/28
f 65/59/29 69/64/29 70/65/29
f 66/54/30 70/65/30 71/61/30
f 67/62/31 71/61/31 72/67/31
f 68/66/32 67/62/32 72/68/32
f 69/64/33 68/63/33 72/69/33
f 70/65/34 69/64/34 72/70/34
f 71/61/35 70/65/35 72/71/35
f 73/1/1 74/2/1 76/3/1 75/4/1
f 75/4/2 76/3/2 80/5/2 79/6/2
f 79/6/3 80/5/3 78/7/3 77/8/3
f 77/8/4 78/7/4 74/9/4 73/10/4
f 75/11/5 79/6/5 77/8/5 73/12/5
f 80/5/6 76/13/6 74/14/6 78/7/6
f 81/1/1 82/2/1 84/3/1 83/4/1
f 83/4/2 84/3/2 88/5/2 87/6/2
f 87/6/3 88/5/3 86/7/3 85/8/3
f 85/8/4 86/7/4 82/9/4 81/10/4
f 83/11/5 87/6/5 85/8/5 81/12/5
f 88/5/6 84/13/6 82/14/6 86/7/6
usemtl ember
f 37/26/11 42/41/11 38/42/11
f 38/42/12 42/41/12 39/43/12
f 39/43/13 42/41/13 40/44/13
f 37/35/5 38/45/5 39/46/5 40/47/5 41/48/5
f 40/44/14 42/41/14 41/49/14
f 41/49/15 42/41/15 37/26/15
f 55/26/11 60/41/11 56/42/11
f 56/42/12 60/41/12 57/43/12
f 57/43/13 60/41/13 58/44/13
f 55/35/5 56/45/5 57/46/5 58/47/5 59/48/5
f 58/44/14 60/41/14 59/49/14
f 59/49/15 60/41/15 55/26/15
usemtl soot
f 89/1/1 90/2/1 92/3/1 91/4/1
f 91/4/2 92/3/2 96/5/2 95/6/2
f 95/6/3 96/5/3 94/7/3 93/8/3
f 93/8/4 94/7/4 90/9/4 89/10/4
f 91/11/5 95/6/5 93/8/5 89/12/5
f 96/5/6 92/13/6 90/14/6 94/7/6
f 97/1/1 98/2/1 100/3/1 99/4/1
f 99/4/2 100/3/2 104/5/2 103/6/2
f 103/6/3 104/5/3 102/7/3 101/8/3
f 101/8/4 102/7/4 98/9/4 97/10/4
f 99/11/5 103/6/5 101/8/5 97/12/5
f 104/5/6 100/13/6 98/14/6 102/7/6
f 105/1/1 106/2/1 108/3/1 107/4/1
f 107/4/2 108/3/2 112/5/2 111/6/2
f 111/6/3 112/5/3 110/7/3 109/8/3
f 109/8/4 110/7/4 106/9/4 105/10/4
f 107/11/5 111/6/5 109/8/5 105/12/5
f 112/5/6 108/13/6 106/14/6 110/7/6
f 113/1/1 114/2/1 116/3/1 115/4/1
f 115/4/2 116/3/2 120/5/2 119/6/2
f 119/6/3 120/5/3 118/7/3 117/8/3
f 117/8/4 118/7/4 114/9/4 113/10/4
f 115/11/5 119/6/5 117/8/5 113/12/5
f 120/5/6 116/13/6 114/14/6 118/7/6
f 121/1/1 122/2/1 124/3/1 123/4/1
f 123/4/2 124/3/2 128/5/2 127/6/2
f 127/6/3 128/5/3 126/7/3 125/8/3
f 125/8/4 126/7/4 122/9/4 121/10/4
f 123/11/5 127/6/5 125/8/5 121/12/5
f 128/5/6 124/13/6 122/14/6 126/7/6
f 129/1/1 130/2/1 132/3/1 131/4/1
f 131/4/2 132/3/2 136/5/2 135/6/2
f 135/6/3 136/5/3 134/7/3 133/8/3
f 133/8/4 134/7/4 130/9/4 129/10/4
f 131/11/5 135/6/5 133/8/5 129/12/5
f 136/5/6 132/13/6 130/14/6 134/7/6
f 137/1/1 138/2/1 140/3/1 139/4/1
f 139/4/2 140/3/2 144/5/2 143/6/2
f 143/6/3 144/5/3 142/7/3 141/8/3
f 141/8/4 142/7/4 138/9/4 137/10/4
f 139/11/5 143/6/5 141/8/5 137/12/5
f 144/5/6 140/13/6 138/14/6 142/7/6
usemtl charwood
f 145/1/1 146/2/1 148/3/1 147/4/1
f 147/4/2 148/3/2 152/5/2 151/6/2
f 151/6/3 152/5/3 150/7/3 149/8/3
f 149/8/4 150/7/4 146/9/4 145/10/4
f 147/11/5 151/6/5 149/8/5 145/12/5
f 152/5/6 148/13/6 146/14/6 150/7/6
usemtl plaster
f 153/1/36 154/2/36 156/3/36 155/4/36
f 155/4/2 156/3/2 160/5/2 159/6/2
f 159/6/37 160/5/37 158/7/37 157/8/37
f 157/8/4 158/7/4 154/9/4 153/10/4
f 155/11/38 159/6/38 157/8/38 153/12/38
f 160/5/39 156/13/39 154/14/39 158/7/39
f 161/1/40 162/2/40 164/3/40 163/4/40
f 163/4/2 164/3/2 168/5/2 167/6/2
f 167/6/41 168/5/41 166/7/41 165/8/41
f 165/8/4 166/7/4 162/9/4 161/10/4
f 163/11/42 167/6/42 165/8/42 161/12/42
f 168/5/43 164/13/43 162/14/43 166/7/43
usemtl witchlight
f 169/1/44 170/2/44 172/3/44 171/4/44
f 171/4/45 172/3/45 176/5/45 175/6/45
f 175/6/46 176/5/46 174/7/46 173/8/46
f 173/8/47 174/7/47 170/9/47 169/10/47
f 171/11/5 175/6/5 173/8/5 169/12/5
f 176/5/6 172/13/6 170/14/6 174/7/6
f 177/1/48 178/2/48 180/3/48 179/4/48
f 179/4/49 180/3/49 184/5/49 183/6/49
f 183/6/50 184/5/50 182/7/50 181/8/50
f 181/8/51 182/7/51 178/9/51 177/10/51
f 179/11/5 183/6/5 181/8/5 177/12/5
f 184/5/6 180/13/6 178/14/6 182/7/6
f 185/1/52 186/2/52 188/3/52 187/4/52
f 187/4/53 188/3/53 192/5/53 191/6/53
f 191/6/54 192/5/54 190/7/54 189/8/54
f 189/8/55 190/7/55 186/9/55 185/10/55
f 187/11/5 191/6/5 189/8/5 185/12/5
f 192/5/6 188/13/6 186/14/6 190/7/6
f 193/1/56 194/2/56 196/3/56 195/4/56
f 195/4/57 196/3/57 200/5/57 199/6/57
f 199/6/58 200/5/58 198/7/58 197/8/58
f 197/8/59 198/7/59 194/9/59 193/10/59
f 195/11/5 199/6/5 197/8/5 193/12/5
f 200/5/6 196/13/6 194/14/6 198/7/6
f 201/1/3 202/2/3 204/3/3 203/4/3
f 203/4/4 204/3/4 208/5/4 207/6/4
f 207/6/1 208/5/1 206/7/1 205/8/1
f 205/8/2 206/7/2 202/9/2 201/10/2
f 203/11/5 207/6/5 205/8/5 201/12/5
f 208/5/6 204/13/6 202/14/6 206/7/6
usemtl rune
f 209/1/1 210/2/1 212/3/1 211/4/1
f 211/4/2 212/3/2 216/5/2 215/6/2
f 215/6/3 216/5/3 214/7/3 213/8/3
f 213/8/4 214/7/4 210/9/4 209/10/4
f 211/11/5 215/6/5 213/8/5 209/12/5
f 216/5/6 212/13/6 210/14/6 214/7/6
f 217/1/1 218/2/1 220/3/1 219/4/1
f 219/4/2 220/3/2 224/5/2 223/6/2
f 223/6/3 224/5/3 222/7/3 221/8/3
f 221/8/4 222/7/4 218/9/4 217/10/4
f 219/11/5 223/6/5 221/8/5 217/12/5
f 224/5/6 220/13/6 218/14/6 222/7/6
f 225/1/1 226/2/1 228/3/1 227/4/1
f 227/4/2 228/3/2 232/5/2 231/6/2
f 231/6/3 232/5/3 230/7/3 229/8/3
f 229/8/4 230/7/4 226/9/4 225/10/4
f 227/11/5 231/6/5 229/8/5 225/12/5
f 232/5/6 228/13/6 226/14/6 230/7/6
