# Blender 5.0.1
# www.blender.org
mtllib skull_totem.mtl
o skull_totem
v -0.250000 0.000000 0.250000
v -0.250000 0.100000 0.250000
v -0.250000 0.000000 -0.250000
v -0.250000 0.100000 -0.250000
v 0.250000 0.000000 0.250000
v 0.250000 0.100000 0.250000
v 0.250000 0.000000 -0.250000
v 0.250000 0.100000 -0.250000
v -0.050000 0.050000 0.050000
v -0.050000 1.550000 0.050000
v -0.050000 0.050000 -0.050000
v -0.050000 1.550000 -0.050000
v 0.050000 0.050000 0.050000
v 0.050000 1.550000 0.050000
v 0.050000 0.050000 -0.050000
v 0.050000 1.550000 -0.050000
v 0.000000 0.400000 0.000000
v 0.108540 0.482918 0.078858
v -0.041458 0.482918 0.127596
v -0.134164 0.482918 0.000000
v -0.041458 0.482918 -0.127596
v 0.108540 0.482918 -0.078858
v 0.041458 0.617082 0.127596
v -0.108540 0.617082 0.078858
v -0.108540 0.617082 -0.078858
v 0.041458 0.617082 -0.127596
v 0.134164 0.617082 0.000000
v 0.000000 0.700000 0.000000
v -0.112500 0.381250 0.112500
v -0.112500 0.553750 0.112500
v -0.112500 0.381250 -0.037500
v -0.112500 0.553750 -0.037500
v 0.112500 0.381250 0.112500
v 0.112500 0.553750 0.112500
v 0.112500 0.381250 -0.037500
v 0.112500 0.553750 -0.037500
v -0.090000 0.355000 0.123750
v -0.090000 0.430000 0.123750
v -0.090000 0.355000 -0.003750
v -0.090000 0.430000 -0.003750
v 0.090000 0.355000 0.123750
v 0.090000 0.430000 0.123750
v 0.090000 0.355000 -0.003750
v 0.090000 0.430000 -0.003750
v -0.094500 0.478000 0.148500
v -0.094500 0.538000 0.148500
v -0.094500 0.478000 0.085500
v -0.094500 0.538000 0.085500
v -0.031500 0.478000 0.148500
v -0.031500 0.538000 0.148500
v -0.031500 0.478000 0.085500
v -0.031500 0.538000 0.085500
v 0.031500 0.478000 0.148500
v 0.031500 0.538000 0.148500
v 0.031500 0.478000 0.085500
v 0.031500 0.538000 0.085500
v 0.094500 0.478000 0.148500
v 0.094500 0.538000 0.148500
v 0.094500 0.478000 0.085500
v 0.094500 0.538000 0.085500
v -0.018000 0.427000 0.148500
v -0.018000 0.475000 0.148500
v -0.018000 0.427000 0.097500
v -0.018000 0.475000 0.097500
v 0.018000 0.427000 0.148500
v 0.018000 0.475000 0.148500
v 0.018000 0.427000 0.097500
v 0.018000 0.475000 0.097500
v -0.071250 0.362500 0.135000
v -0.071250 0.422500 0.135000
v -0.071250 0.362500 0.105000
v -0.071250 0.422500 0.105000
v -0.063750 0.362500 0.135000
v -0.063750 0.422500 0.135000
v -0.063750 0.362500 0.105000
v -0.063750 0.422500 0.105000
v -0.026250 0.362500 0.135000
v -0.026250 0.422500 0.135000
v -0.026250 0.362500 0.105000
v -0.026250 0.422500 0.105000
v -0.018750 0.362500 0.135000
v -0.018750 0.422500 0.135000
v -0.018750 0.362500 0.105000
v -0.018750 0.422500 0.105000
v 0.018750 0.362500 0.135000
v 0.018750 0.422500 0.135000
v 0.018750 0.362500 0.105000
v 0.018750 0.422500 0.105000
v 0.026250 0.362500 0.135000
v 0.026250 0.422500 0.135000
v 0.026250 0.362500 0.105000
v 0.026250 0.422500 0.105000
v 0.063750 0.362500 0.135000
v 0.063750 0.422500 0.135000
v 0.063750 0.362500 0.105000
v 0.063750 0.422500 0.105000
v 0.071250 0.362500 0.135000
v 0.071250 0.422500 0.135000
v 0.071250 0.362500 0.105000
v 0.071250 0.422500 0.105000
v 0.000000 0.800000 0.000000
v 0.108540 0.882918 0.078858
v -0.041458 0.882918 0.127596
v -0.134164 0.882918 0.000000
v -0.041458 0.882918 -0.127596
v 0.108540 0.882918 -0.078858
v 0.041458 1.017082 0.127596
v -0.108540 1.017082 0.078858
v -0.108540 1.017082 -0.078858
v 0.041458 1.017082 -0.127596
v 0.134164 1.017082 0.000000
v 0.000000 1.100000 0.000000
v -0.112500 0.781250 0.112500
v -0.112500 0.953750 0.112500
v -0.112500 0.781250 -0.037500
v -0.112500 0.953750 -0.037500
v 0.112500 0.781250 0.112500
v 0.112500 0.953750 0.112500
v 0.112500 0.781250 -0.037500
v 0.112500 0.953750 -0.037500
v -0.090000 0.755000 0.123750
v -0.090000 0.830000 0.123750
v -0.090000 0.755000 -0.003750
v -0.090000 0.830000 -0.003750
v 0.090000 0.755000 0.123750
v 0.090000 0.830000 0.123750
v 0.090000 0.755000 -0.003750
v 0.090000 0.830000 -0.003750
v -0.094500 0.878000 0.148500
v -0.094500 0.938000 0.148500
v -0.094500 0.878000 0.085500
v -0.094500 0.938000 0.085500
v -0.031500 0.878000 0.148500
v -0.031500 0.938000 0.148500
v -0.031500 0.878000 0.085500
v -0.031500 0.938000 0.085500
v 0.031500 0.878000 0.148500
v 0.031500 0.938000 0.148500
v 0.031500 0.878000 0.085500
v 0.031500 0.938000 0.085500
v 0.094500 0.878000 0.148500
v 0.094500 0.938000 0.148500
v 0.094500 0.878000 0.085500
v 0.094500 0.938000 0.085500
v -0.018000 0.827000 0.148500
v -0.018000 0.875000 0.148500
v -0.018000 0.827000 0.097500
v -0.018000 0.875000 0.097500
v 0.018000 0.827000 0.148500
v 0.018000 0.875000 0.148500
v 0.018000 0.827000 0.097500
v 0.018000 0.875000 0.097500
v -0.071250 0.762500 0.135000
v -0.071250 0.822500 0.135000
v -0.071250 0.762500 0.105000
v -0.071250 0.822500 0.105000
v -0.063750 0.762500 0.135000
v -0.063750 0.822500 0.135000
v -0.063750 0.762500 0.105000
v -0.063750 0.822500 0.105000
v -0.026250 0.762500 0.135000
v -0.026250 0.822500 0.135000
v -0.026250 0.762500 0.105000
v -0.026250 0.822500 0.105000
v -0.018750 0.762500 0.135000
v -0.018750 0.822500 0.135000
v -0.018750 0.762500 0.105000
v -0.018750 0.822500 0.105000
v 0.018750 0.762500 0.135000
v 0.018750 0.822500 0.135000
v 0.018750 0.762500 0.105000
v 0.018750 0.822500 0.105000
v 0.026250 0.762500 0.135000
v 0.026250 0.822500 0.135000
v 0.026250 0.762500 0.105000
v 0.026250 0.822500 0.105000
v 0.063750 0.762500 0.135000
v 0.063750 0.822500 0.135000
v 0.063750 0.762500 0.105000
v 0.063750 0.822500 0.105000
v 0.071250 0.762500 0.135000
v 0.071250 0.822500 0.135000
v 0.071250 0.762500 0.105000
v 0.071250 0.822500 0.105000
v 0.000000 1.200000 0.000000
v 0.108540 1.282918 0.078858
v -0.041458 1.282918 0.127596
v -0.134164 1.282918 0.000000
v -0.041458 1.282918 -0.127596
v 0.108540 1.282918 -0.078858
v 0.041458 1.417082 0.127596
v -0.108540 1.417082 0.078858
v -0.108540 1.417082 -0.078858
v 0.041458 1.417082 -0.127596
v 0.134164 1.417082 0.000000
v 0.000000 1.500000 0.000000
v -0.112500 1.181250 0.112500
v -0.112500 1.353750 0.112500
v -0.112500 1.181250 -0.037500
v -0.112500 1.353750 -0.037500
v 0.112500 1.181250 0.112500
v 0.112500 1.353750 0.112500
v 0.112500 1.181250 -0.037500
v 0.112500 1.353750 -0.037500
v -0.090000 1.155000 0.123750
v -0.090000 1.230000 0.123750
v -0.090000 1.155000 -0.003750
v -0.090000 1.230000 -0.003750
v 0.090000 1.155000 0.123750
v 0.090000 1.230000 0.123750
v 0.090000 1.155000 -0.003750
v 0.090000 1.230000 -0.003750
v -0.094500 1.278000 0.148500
v -0.094500 1.338000 0.148500
v -0.094500 1.278000 0.085500
v -0.094500 1.338000 0.085500
v -0.031500 1.278000 0.148500
v -0.031500 1.338000 0.148500
v -0.031500 1.278000 0.085500
v -0.031500 1.338000 0.085500
v 0.031500 1.278000 0.148500
v 0.031500 1.338000 0.148500
v 0.031500 1.278000 0.085500
v 0.031500 1.338000 0.085500
v 0.094500 1.278000 0.148500
v 0.094500 1.338000 0.148500
v 0.094500 1.278000 0.085500
v 0.094500 1.338000 0.085500
v -0.018000 1.227000 0.148500
v -0.018000 1.275000 0.148500
v -0.018000 1.227000 0.097500
v -0.018000 1.275000 0.097500
v 0.018000 1.227000 0.148500
v 0.018000 1.275000 0.148500
v 0.018000 1.227000 0.097500
v 0.018000 1.275000 0.097500
v -0.071250 1.162500 0.135000
v -0.071250 1.222500 0.135000
v -0.071250 1.162500 0.105000
v -0.071250 1.222500 0.105000
v -0.063750 1.162500 0.135000
v -0.063750 1.222500 0.135000
v -0.063750 1.162500 0.105000
v -0.063750 1.222500 0.105000
v -0.026250 1.162500 0.135000
v -0.026250 1.222500 0.135000
v -0.026250 1.162500 0.105000
v -0.026250 1.222500 0.105000
v -0.018750 1.162500 0.135000
v -0.018750 1.222500 0.135000
v -0.018750 1.162500 0.105000
v -0.018750 1.222500 0.105000
v 0.018750 1.162500 0.135000
v 0.018750 1.222500 0.135000
v 0.018750 1.162500 0.105000
v 0.018750 1.222500 0.105000
v 0.026250 1.162500 0.135000
v 0.026250 1.222500 0.135000
v 0.026250 1.162500 0.105000
v 0.026250 1.222500 0.105000
v 0.063750 1.162500 0.135000
v 0.063750 1.222500 0.135000
v 0.063750 1.162500 0.105000
v 0.063750 1.222500 0.105000
v 0.071250 1.162500 0.135000
v 0.071250 1.222500 0.135000
v 0.071250 1.162500 0.105000
v 0.071250 1.222500 0.105000
vn -1.0000 -0.0000 -0.0000
vn -0.0000 -0.0000 -1.0000
vn 1.0000 -0.0000 -0.0000
vn -0.0000 -0.0000 1.0000
vn -0.0000 -1.0000 -0.0000
vn -0.0000 1.0000 -0.0000
vn 0.1876 -0.7947 0.5774
vn 0.6071 -0.7947 -0.0000
vn -0.4911 -0.7947 0.3568
vn -0.4911 -0.7947 -0.3568
vn 0.1876 -0.7947 -0.5774
vn 0.9822 -0.1876 -0.0000
vn 0.3035 -0.1876 0.9342
vn -0.7946 -0.1876 0.5774
vn -0.7946 -0.1876 -0.5774
vn 0.3035 -0.1876 -0.9342
vn 0.7946 0.1876 0.5774
vn -0.3035 0.1876 0.9342
vn -0.9822 0.1876 -0.0000
vn -0.3035 0.1876 -0.9342
vn 0.7946 0.1876 -0.5774
vn 0.4911 0.7947 0.3568
vn -0.1876 0.7947 0.5774
vn -0.6071 0.7947 -0.0000
vn -0.1876 0.7947 -0.5774
vn 0.4911 0.7947 -0.3568
vt 0.375000 0.000000
vt 0.625000 0.000000
vt 0.625000 0.250000
vt 0.375000 0.250000
vt 0.625000 0.500000
vt 0.375000 0.500000
vt 0.625000 0.750000
vt 0.375000 0.750000
vt 0.625000 1.000000
vt 0.375000 1.000000
vt 0.125000 0.500000
vt 0.125000 0.750000
vt 0.875000 0.500000
vt 0.875000 0.750000
vt 0.181819 0.000000
vt 0.272728 0.157461
vt 0.090910 0.157461
vt 0.363637 0.000000
vt 0.454546 0.157461
vt 0.909091 0.000000
vt 1.000000 0.157461
vt 0.818182 0.157461
vt 0.727273 0.000000
vt 0.636364 0.157461
vt 0.545455 0.000000
vt 0.363637 0.314921
vt 0.181819 0.314921
vt 0.909091 0.314921
vt 0.727273 0.314921
vt 0.545455 0.314921
vt 0.000000 0.314921
vt 0.272728 0.472382
vt 0.090910 0.472382
vt 0.818182 0.472382
vt 0.636364 0.472382
vt 0.454546 0.472382
s 0
usemtl stone_dk
f 1/1/1 2/2/1 4/3/1 3/4/1
f 3/4/2 4/3/2 8/5/2 7/6/2
f 7/6/3 8/5/3 6/7/3 5/8/3
f 5/8/4 6/7/4 2/9/4 1/10/4
f 3/11/5 7/6/5 5/8/5 1/12/5
f 8/5/6 4/13/6 2/14/6 6/7/6
usemtl wood_dk
f 9/1/1 10/2/1 12/3/1 11/4/1
f 11/4/2 12/3/2 16/5/2 15/6/2
f 15/6/3 16/5/3 14/7/3 13/8/3
f 13/8/4 14/7/4 10/9/4 9/10/4
f 11/11/5 15/6/5 13/8/5 9/12/5
f 16/5/6 12/13/6 10/14/6 14/7/6
usemtl bone
f 17/15/7 18/16/7 19/17/7
f 18/16/8 17/18/8 22/19/8
f 17/20/9 19/21/9 20/22/9
f 17/23/10 20/22/10 21/24/10
f 17/25/11 21/24/11 22/19/11
f 18/16/12 22/19/12 27/26/12
f 19/17/13 18/16/13 23/27/13
f 20/22/14 19/21/14 24/28/14
f 21/24/15 20/22/15 25/29/15
f 22/19/16 21/24/16 26/30/16
f 18/16/17 27/26/17 23/27/17
f 19/17/18 23/27/18 24/31/18
f 20/22/19 24/28/19 25/29/19
f 21/24/20 25/29/20 26/30/20
f 22/19/21 26/30/21 27/26/21
f 23/27/22 27/26/22 28/32/22
f 24/31/23 23/27/23 28/33/23
f 25/29/24 24/28/24 28/34/24
f 26/30/25 25/29/25 28/35/25
f 27/26/26 26/30/26 28/36/26
f 29/1/1 30/2/1 32/3/1 31/4/1
f 31/4/2 32/3/2 36/5/2 35/6/2
f 35/6/3 36/5/3 34/7/3 33/8/3
f 33/8/4 34/7/4 30/9/4 29/10/4
f 31/11/5 35/6/5 33/8/5 29/12/5
f 36/5/6 32/13/6 30/14/6 34/7/6
f 37/1/1 38/2/1 40/3/1 39/4/1
f 39/4/2 40/3/2 44/5/2 43/6/2
f 43/6/3 44/5/3 42/7/3 41/8/3
f 41/8/4 42/7/4 38/9/4 37/10/4
f 39/11/5 43/6/5 41/8/5 37/12/5
f 44/5/6 40/13/6 38/14/6 42/7/6
f 101/15/7 102/16/7 103/17/7
f 102/16/8 101/18/8 106/19/8
f 101/20/9 103/21/9 104/22/9
f 101/23/10 104/22/10 105/24/10
f 101/25/11 105/24/11 106/19/11
f 102/16/12 106/19/12 111/26/12
f 103/17/13 102/16/13 107/27/13
f 104/22/14 103/21/14 108/28/14
f 105/24/15 104/22/15 109/29/15
f 106/19/16 105/24/16 110/30/16
f 102/16/17 111/26/17 107/27/17
f 103/17/18 107/27/18 108/31/18
f 104/22/19 108/28/19 109/29/19
f 105/24/20 109/29/20 110/30/20
f 106/19/21 110/30/21 111/26/21
f 107/27/22 111/26/22 112/32/22
f 108/31/23 107/27/23 112/33/23
f 109/29/24 108/28/24 112/34/24
f 110/30/25 109/29/25 112/35/25
f 111/26/26 110/30/26 112/36/26
f 113/1/1 114/2/1 116/3/1 115/4/1
f 115/4/2 116/3/2 120/5/2 119/6/2
f 119/6/3 120/5/3 118/7/3 117/8/3
f 117/8/4 118/7/4 114/9/4 113/10/4
f 115/11/5 119/6/5 117/8/5 113/12/5
f 120/5/6 116/13/6 114/14/6 118/7/6
f 121/1/1 122/2/1 124/3/1 123/4/1
f 123/4/2 124/3/2 128/5/2 127/6/2
f 127/6/3 128/5/3 126/7/3 125/8/3
f 125/8/4 126/7/4 122/9/4 121/10/4
f 123/11/5 127/6/5 125/8/5 121/12/5
f 128/5/6 124/13/6 122/14/6 126/7/6
f 185/15/7 186/16/7 187/17/7
f 186/16/8 185/18/8 190/19/8
f 185/20/9 187/21/9 188/22/9
f 185/23/10 188/22/10 189/24/10
f 185/25/11 189/24/11 190/19/11
f 186/16/12 190/19/12 195/26/12
f 187/17/13 186/16/13 191/27/13
f 188/22/14 187/21/14 192/28/14
f 189/24/15 188/22/15 193/29/15
f 190/19/16 189/24/16 194/30/16
f 186/16/17 195/26/17 191/27/17
f 187/17/18 191/27/18 192/31/18
f 188/22/19 192/28/19 193/29/19
f 189/24/20 193/29/20 194/30/20
f 190/19/21 194/30/21 195/26/21
f 191/27/22 195/26/22 196/32/22
f 192/31/23 191/27/23 196/33/23
f 193/29/24 192/28/24 196/34/24
f 194/30/25 193/29/25 196/35/25
f 195/26/26 194/30/26 196/36/26
f 197/1/1 198/2/1 200/3/1 199/4/1
f 199/4/2 200/3/2 204/5/2 203/6/2
f 203/6/3 204/5/3 202/7/3 201/8/3
f 201/8/4 202/7/4 198/9/4 197/10/4
f 199/11/5 203/6/5 201/8/5 197/12/5
f 204/5/6 200/13/6 198/14/6 202/7/6
f 205/1/1 206/2/1 208/3/1 207/4/1
f 207/4/2 208/3/2 212/5/2 211/6/2
f 211/6/3 212/5/3 210/7/3 209/8/3
f 209/8/4 210/7/4 206/9/4 205/10/4
f 207/11/5 211/6/5 209/8/5 205/12/5
f 212/5/6 208/13/6 206/14/6 210/7/6
usemtl amber
f 45/1/1 46/2/1 48/3/1 47/4/1
f 47/4/2 48/3/2 52/5/2 51/6/2
f 51/6/3 52/5/3 50/7/3 49/8/3
f 49/8/4 50/7/4 46/9/4 45/10/4
f 47/11/5 51/6/5 49/8/5 45/12/5
f 52/5/6 48/13/6 46/14/6 50/7/6
f 53/1/1 54/2/1 56/3/1 55/4/1
f 55/4/2 56/3/2 60/5/2 59/6/2
f 59/6/3 60/5/3 58/7/3 57/8/3
f 57/8/4 58/7/4 54/9/4 53/10/4
f 55/11/5 59/6/5 57/8/5 53/12/5
f 60/5/6 56/13/6 54/14/6 58/7/6
f 129/1/1 130/2/1 132/3/1 131/4/1
f 131/4/2 132/3/2 136/5/2 135/6/2
f 135/6/3 136/5/3 134/7/3 133/8/3
f 133/8/4 134/7/4 130/9/4 129/10/4
f 131/11/5 135/6/5 133/8/5 129/12/5
f 136/5/6 132/13/6 130/14/6 134/7/6
f 137/1/1 138/2/1 140/3/1 139/4/1
f 139/4/2 140/3/2 144/5/2 143/6/2
f 143/6/3 144/5/3 142/7/3 141/8/3
f 141/8/4 142/7/4 138/9/4 137/10/4
f 139/11/5 143/6/5 141/8/5 137/12/5
f 144/5/6 140/13/6 138/14/6 142/7/6
f 213/1/1 214/2/1 216/3/1 215/4/1
f 215/4/2 216/3/2 220/5/2 219/6/2
f 219/6/3 220/5/3 218/7/3 217/8/3
f 217/8/4 218/7/4 214/9/4 213/10/4
f 215/11/5 219/6/5 217/8/5 213/12/5
f 220/5/6 216/13/6 214/14/6 218/7/6
f 221/1/1 222/2/1 224/3/1 223/4/1
f 223/4/2 224/3/2 228/5/2 227/6/2
f 227/6/3 228/5/3 226/7/3 225/8/3
f 225/8/4 226/7/4 222/9/4 221/10/4
f 223/11/5 227/6/5 225/8/5 221/12/5
f 228/5/6 224/13/6 222/14/6 226/7/6
usemtl soot
f 61/1/1 62/2/1 64/3/1 63/4/1
f 63/4/2 64/3/2 68/5/2 67/6/2
f 67/6/3 68/5/3 66/7/3 65/8/3
f 65/8/4 66/7/4 62/9/4 61/10/4
f 63/11/5 67/6/5 65/8/5 61/12/5
f 68/5/6 64/13/6 62/14/6 66/7/6
f 69/1/1 70/2/1 72/3/1 71/4/1
f 71/4/2 72/3/2 76/5/2 75/6/2
f 75/6/3 76/5/3 74/7/3 73/8/3
f 73/8/4 74/7/4 70/9/4 69/10/4
f 71/11/5 75/6/5 73/8/5 69/12/5
f 76/5/6 72/13/6 70/14/6 74/7/6
f 77/1/1 78/2/1 80/3/1 79/4/1
f 79/4/2 80/3/2 84/5/2 83/6/2
f 83/6/3 84/5/3 82/7/3 81/8/3
f 81/8/4 82/7/4 78/9/4 77/10/4
f 79/11/5 83/6/5 81/8/5 77/12/5
f 84/5/6 80/13/6 78/14/6 82/7/6
f 85/1/1 86/2/1 88/3/1 87/4/1
f 87/4/2 88/3/2 92/5/2 91/6/2
f 91/6/3 92/5/3 90/7/3 89/8/3
f 89/8/4 90/7/4 86/9/4 85/10/4
f 87/11/5 91/6/5 89/8/5 85/12/5
f 92/5/6 88/13/6 86/14/6 90/7/6
f 93/1/1 94/2/1 96/3/1 95/4/1
f 95/4/2 96/3/2 100/5/2 99/6/2
f 99/6/3 100/5/3 98/7/3 97/8/3
f 97/8/4 98/7/4 94/9/4 93/10/4
f 95/11/5 99/6/5 97/8/5 93/12/5
f 100/5/6 96/13/6 94/14/6 98/7/6
f 145/1/1 146/2/1 148/3/1 147/4/1
f 147/4/2 148/3/2 152/5/2 151/6/2
f 151/6/3 152/5/3 150/7/3 149/8/3
f 149/8/4 150/7/4 146/9/4 145/10/4
f 147/11/5 151/6/5 149/8/5 145/12/5
f 152/5/6 148/13/6 146/14/6 150/7/6
f 153/1/1 154/2/1 156/3/1 155/4/1
f 155/4/2 156/3/2 160/5/2 159/6/2
f 159/6/3 160/5/3 158/7/3 157/8/3
f 157/8/4 158/7/4 154/9/4 153/10/4
f 155/11/5 159/6/5 157/8/5 153/12/5
f 160/5/6 156/13/6 154/14/6 158/7/6
f 161/1/1 162/2/1 164/3/1 163/4/1
f 163/4/2 164/3/2 168/5/2 167/6/2
f 167/6/3 168/5/3 166/7/3 165/8/3
f 165/8/4 166/7/4 162/9/4 161/10/4
f 163/11/5 167/6/5 165/8/5 161/12/5
f 168/5/6 164/13/6 162/14/6 166/7/6
f 169/1/1 170/2/1 172/3/1 171/4/1
f 171/4/2 172/3/2 176/5/2 175/6/2
f 175/6/3 176/5/3 174/7/3 173/8/3
f 173/8/4 174/7/4 170/9/4 169/10/4
f 171/11/5 175/6/5 173/8/5 169/12/5
f 176/5/6 172/13/6 170/14/6 174/7/6
f 177/1/1 178/2/1 180/3/1 179/4/1
f 179/4/2 180/3/2 184/5/2 183/6/2
f 183/6/3 184/5/3 182/7/3 181/8/3
f 181/8/4 182/7/4 178/9/4 177/10/4
f 179/11/5 183/6/5 181/8/5 177/12/5
f 184/5/6 180/13/6 178/14/6 182/7/6
f 229/1/1 230/2/1 232/3/1 231/4/1
f 231/4/2 232/3/2 236/5/2 235/6/2
f 235/6/3 236/5/3 234/7/3 233/8/3
f 233/8/4 234/7/4 230/9/4 229/10/4
f 231/11/5 235/6/5 233/8/5 229/12/5
f 236/5/6 232/13/6 230/14/6 234/7/6
f 237/1/1 238/2/1 240/3/1 239/4/1
f 239/4/2 240/3/2 244/5/2 243/6/2
f 243/6/3 244/5/3 242/7/3 241/8/3
f 241/8/4 242/7/4 238/9/4 237/10/4
f 239/11/5 243/6/5 241/8/5 237/12/5
f 244/5/6 240/13/6 238/14/6 242/7/6
f 245/1/1 246/2/1 248/3/1 247/4/1
f 247/4/2 248/3/2 252/5/2 251/6/2
f 251/6/3 252/5/3 250/7/3 249/8/3
f 249/8/4 250/7/4 246/9/4 245/10/4
f 247/11/5 251/6/5 249/8/5 245/12/5
f 252/5/6 248/13/6 246/14/6 250/7/6
f 253/1/1 254/2/1 256/3/1 255/4/1
f 255/4/2 256/3/2 260/5/2 259/6/2
f 259/6/3 260/5/3 258/7/3 257/8/3
f 257/8/4 258/7/4 254/9/4 253/10/4
f 255/11/5 259/6/5 257/8/5 253/12/5
f 260/5/6 256/13/6 254/14/6 258/7/6
f 261/1/1 262/2/1 264/3/1 263/4/1
f 263/4/2 264/3/2 268/5/2 267/6/2
f 267/6/3 268/5/3 266/7/3 265/8/3
f 265/8/4 266/7/4 262/9/4 261/10/4
f 263/11/5 267/6/5 265/8/5 261/12/5
f 268/5/6 264/13/6 262/14/6 266/7/6
