# Blender 5.0.1
# www.blender.org
mtllib standing_stone.mtl
o standing_stone
v -0.300000 0.000000 0.275000
v -0.300000 0.120000 0.275000
v -0.300000 0.000000 -0.275000
v -0.300000 0.120000 -0.275000
v 0.300000 0.000000 0.275000
v 0.300000 0.120000 0.275000
v 0.300000 0.000000 -0.275000
v 0.300000 0.120000 -0.275000
v -0.260631 0.041937 0.110597
v -0.267929 1.639745 0.194016
v -0.230168 0.060255 -0.237594
v -0.237466 1.658063 -0.154175
v 0.237466 0.041937 0.154175
v 0.230168 1.639745 0.237594
v 0.267929 0.060255 -0.194016
v 0.260631 1.658063 -0.110597
v -0.030000 0.790000 0.225000
v -0.030000 1.210000 0.225000
v -0.030000 0.790000 0.175000
v -0.030000 1.210000 0.175000
v 0.030000 0.790000 0.225000
v 0.030000 1.210000 0.225000
v 0.030000 0.790000 0.175000
v 0.030000 1.210000 0.175000
v -0.120000 1.090000 0.225000
v -0.120000 1.150000 0.225000
v -0.120000 1.090000 0.175000
v -0.120000 1.150000 0.175000
v 0.120000 1.090000 0.225000
v 0.120000 1.150000 0.225000
v 0.120000 1.090000 0.175000
v 0.120000 1.150000 0.175000
v -0.010155 0.870000 0.278800
v -0.010155 0.930000 0.278800
v -0.043611 0.870000 0.241643
v -0.043611 0.930000 0.241643
v 0.123611 0.870000 0.158357
v 0.123611 0.930000 0.158357
v 0.090155 0.870000 0.121200
v 0.090155 0.930000 0.121200
v 0.000000 1.250000 0.140000
v 0.095263 1.250000 0.195000
v 0.095263 1.250000 0.305000
v 0.000000 1.250000 0.360000
v -0.095263 1.250000 0.305000
v -0.095263 1.250000 0.195000
v 0.000000 1.430000 0.250000
v 0.000000 1.225000 0.360000
v 0.095263 1.225000 0.305000
v 0.095263 1.225000 0.195000
v 0.000000 1.225000 0.140000
v -0.095263 1.225000 0.195000
v -0.095263 1.225000 0.305000
v 0.000000 1.095000 0.250000
vn -1.0000 -0.0000 -0.0000
vn -0.0000 -0.0000 -1.0000
vn 1.0000 -0.0000 -0.0000
vn -0.0000 -0.0000 1.0000
vn -0.0000 -1.0000 -0.0000
vn -0.0000 1.0000 -0.0000
vn -0.9962 -0.0000 -0.0872
vn 0.0870 0.0523 -0.9948
vn 0.9962 -0.0000 0.0872
vn -0.0870 -0.0523 0.9948
vn 0.0046 -0.9986 -0.0521
vn -0.0046 0.9986 0.0521
vn -0.7431 -0.0000 0.6691
vn -0.6691 -0.0000 -0.7431
vn 0.7431 -0.0000 -0.6691
vn 0.6691 -0.0000 0.7431
vn 0.4419 0.4678 -0.7654
vn 0.8839 0.4678 -0.0000
vn 0.4419 0.4678 0.7654
vn -0.4419 0.4678 0.7654
vn -0.8839 0.4678 -0.0000
vn -0.4419 0.4678 -0.7654
vn 0.4033 -0.5911 0.6985
vn 0.8066 -0.5911 -0.0000
vn 0.4033 -0.5911 -0.6985
vn -0.4033 -0.5911 -0.6985
vn -0.8066 -0.5911 -0.0000
vn -0.4033 -0.5911 0.6985
vt 0.375000 0.000000
vt 0.625000 0.000000
vt 0.625000 0.250000
vt 0.375000 0.250000
vt 0.625000 0.500000
vt 0.375000 0.500000
vt 0.625000 0.750000
vt 0.375000 0.750000
vt 0.625000 1.000000
vt 0.375000 1.000000
vt 0.125000 0.500000
vt 0.125000 0.750000
vt 0.875000 0.500000
vt 0.875000 0.750000
vt 0.250000 0.490000
vt 0.250000 0.250000
vt 0.457846 0.370000
vt 0.457846 0.130000
vt 0.250000 0.010000
vt 0.042154 0.130000
vt 0.750000 0.490000
vt 0.957846 0.370000
vt 0.957846 0.130000
vt 0.750000 0.010000
vt 0.542154 0.130000
vt 0.542154 0.370000
vt 0.042154 0.370000
s 0
usemtl moss
f 1/1/1 2/2/1 4/3/1 3/4/1
f 3/4/2 4/3/2 8/5/2 7/6/2
f 7/6/3 8/5/3 6/7/3 5/8/3
f 5/8/4 6/7/4 2/9/4 1/10/4
f 3/11/5 7/6/5 5/8/5 1/12/5
f 8/5/6 4/13/6 2/14/6 6/7/6
usemtl stone
f 9/1/7 10/2/7 12/3/7 11/4/7
f 11/4/8 12/3/8 16/5/8 15/6/8
f 15/6/9 16/5/9 14/7/9 13/8/9
f 13/8/10 14/7/10 10/9/10 9/10/10
f 11/11/11 15/6/11 13/8/11 9/12/11
f 16/5/12 12/13/12 10/14/12 14/7/12
usemtl rune
f 17/1/1 18/2/1 20/3/1 19/4/1
f 19/4/2 20/3/2 24/5/2 23/6/2
f 23/6/3 24/5/3 22/7/3 21/8/3
f 21/8/4 22/7/4 18/9/4 17/10/4
f 19/11/5 23/6/5 21/8/5 17/12/5
f 24/5/6 20/13/6 18/14/6 22/7/6
f 25/1/1 26/2/1 28/3/1 27/4/1
f 27/4/2 28/3/2 32/5/2 31/6/2
f 31/6/3 32/5/3 30/7/3 29/8/3
f 29/8/4 30/7/4 26/9/4 25/10/4
f 27/11/5 31/6/5 29/8/5 25/12/5
f 32/5/6 28/13/6 26/14/6 30/7/6
f 33/1/13 34/2/13 36/3/13 35/4/13
f 35/4/14 36/3/14 40/5/14 39/6/14
f 39/6/15 40/5/15 38/7/15 37/8/15
f 37/8/16 38/7/16 34/9/16 33/10/16
f 35/11/5 39/6/5 37/8/5 33/12/5
f 40/5/6 36/13/6 34/14/6 38/7/6
f 41/15/17 47/16/17 42/17/17
f 42/17/18 47/16/18 43/18/18
f 43/18/19 47/16/19 44/19/19
f 44/19/20 47/16/20 45/20/20
f 41/21/5 42/22/5 43/23/5 44/24/5 45/25/5 46/26/5
f 45/20/21 47/16/21 46/27/21
f 46/27/22 47/16/22 41/15/22
f 48/15/23 54/16/23 49/17/23
f 49/17/24 54/16/24 50/18/24
f 50/18/25 54/16/25 51/19/25
f 51/19/26 54/16/26 52/20/26
f 48/21/6 49/22/6 50/23/6 51/24/6 52/25/6 53/26/6
f 52/20/27 54/16/27 53/27/27
f 53/27/28 54/16/28 48/15/28
