# Blender 5.0.1
# www.blender.org
mtllib summoning_circle.mtl
o summoning_circle
v -0.800000 0.000000 0.800000
v -0.800000 0.030000 0.800000
v -0.800000 0.000000 -0.800000
v -0.800000 0.030000 -0.800000
v 0.800000 0.000000 0.800000
v 0.800000 0.030000 0.800000
v 0.800000 0.000000 -0.800000
v 0.800000 0.030000 -0.800000
v 0.560000 0.025000 0.025000
v 0.560000 0.045000 0.025000
v 0.560000 0.025000 -0.025000
v 0.560000 0.045000 -0.025000
v 0.680000 0.025000 0.025000
v 0.680000 0.045000 0.025000
v 0.680000 0.025000 -0.025000
v 0.680000 0.045000 -0.025000
v 0.526940 0.025000 -0.191206
v 0.526940 0.045000 -0.191206
v 0.507805 0.025000 -0.237400
v 0.507805 0.045000 -0.237400
v 0.637805 0.025000 -0.237128
v 0.637805 0.045000 -0.237128
v 0.618671 0.025000 -0.283322
v 0.618671 0.045000 -0.283322
v 0.413657 0.025000 -0.378302
v 0.413657 0.045000 -0.378302
v 0.378302 0.025000 -0.413657
v 0.378302 0.045000 -0.413657
v 0.498510 0.025000 -0.463155
v 0.498510 0.045000 -0.463155
v 0.463155 0.025000 -0.498510
v 0.463155 0.045000 -0.498510
v 0.237400 0.025000 -0.507805
v 0.237400 0.045000 -0.507805
v 0.191206 0.025000 -0.526940
v 0.191206 0.045000 -0.526940
v 0.283322 0.025000 -0.618671
v 0.283322 0.045000 -0.618671
v 0.237128 0.025000 -0.637805
v 0.237128 0.045000 -0.637805
v 0.025000 0.025000 -0.560000
v 0.025000 0.045000 -0.560000
v -0.025000 0.025000 -0.560000
v -0.025000 0.045000 -0.560000
v 0.025000 0.025000 -0.680000
v 0.025000 0.045000 -0.680000
v -0.025000 0.025000 -0.680000
v -0.025000 0.045000 -0.680000
v -0.191206 0.025000 -0.526940
v -0.191206 0.045000 -0.526940
v -0.237400 0.025000 -0.507805
v -0.237400 0.045000 -0.507805
v -0.237128 0.025000 -0.637805
v -0.237128 0.045000 -0.637805
v -0.283322 0.025000 -0.618671
v -0.283322 0.045000 -0.618671
v -0.378302 0.025000 -0.413657
v -0.378302 0.045000 -0.413657
v -0.413657 0.025000 -0.378302
v -0.413657 0.045000 -0.378302
v -0.463155 0.025000 -0.498510
v -0.463155 0.045000 -0.498510
v -0.498510 0.025000 -0.463155
v -0.498510 0.045000 -0.463155
v -0.507805 0.025000 -0.237400
v -0.507805 0.045000 -0.237400
v -0.526940 0.025000 -0.191206
v -0.526940 0.045000 -0.191206
v -0.618671 0.025000 -0.283322
v -0.618671 0.045000 -0.283322
v -0.637805 0.025000 -0.237128
v -0.637805 0.045000 -0.237128
v -0.560000 0.025000 -0.025000
v -0.560000 0.045000 -0.025000
v -0.560000 0.025000 0.025000
v -0.560000 0.045000 0.025000
v -0.680000 0.025000 -0.025000
v -0.680000 0.045000 -0.025000
v -0.680000 0.025000 0.025000
v -0.680000 0.045000 0.025000
v -0.526940 0.025000 0.191206
v -0.526940 0.045000 0.191206
v -0.507805 0.025000 0.237400
v -0.507805 0.045000 0.237400
v -0.637805 0.025000 0.237128
v -0.637805 0.045000 0.237128
v -0.618671 0.025000 0.283322
v -0.618671 0.045000 0.283322
v -0.413657 0.025000 0.378302
v -0.413657 0.045000 0.378302
v -0.378302 0.025000 0.413657
v -0.378302 0.045000 0.413657
v -0.498510 0.025000 0.463155
v -0.498510 0.045000 0.463155
v -0.463155 0.025000 0.498510
v -0.463155 0.045000 0.498510
v -0.237400 0.025000 0.507805
v -0.237400 0.045000 0.507805
v -0.191206 0.025000 0.526940
v -0.191206 0.045000 0.526940
v -0.283322 0.025000 0.618671
v -0.283322 0.045000 0.618671
v -0.237128 0.025000 0.637805
v -0.237128 0.045000 0.637805
v -0.025000 0.025000 0.560000
v -0.025000 0.045000 0.560000
v 0.025000 0.025000 0.560000
v 0.025000 0.045000 0.560000
v -0.025000 0.025000 0.680000
v -0.025000 0.045000 0.680000
v 0.025000 0.025000 0.680000
v 0.025000 0.045000 0.680000
v 0.191206 0.025000 0.526940
v 0.191206 0.045000 0.526940
v 0.237400 0.025000 0.507805
v 0.237400 0.045000 0.507805
v 0.237128 0.025000 0.637805
v 0.237128 0.045000 0.637805
v 0.283322 0.025000 0.618671
v 0.283322 0.045000 0.618671
v 0.378302 0.025000 0.413657
v 0.378302 0.045000 0.413657
v 0.413657 0.025000 0.378302
v 0.413657 0.045000 0.378302
v 0.463155 0.025000 0.498510
v 0.463155 0.045000 0.498510
v 0.498510 0.025000 0.463155
v 0.498510 0.045000 0.463155
v 0.507805 0.025000 0.237400
v 0.507805 0.045000 0.237400
v 0.526940 0.025000 0.191206
v 0.526940 0.045000 0.191206
v 0.618671 0.025000 0.283322
v 0.618671 0.045000 0.283322
v 0.637805 0.025000 0.237128
v 0.637805 0.045000 0.237128
v -0.023776 0.030000 -0.507725
v -0.023776 0.050000 -0.507725
v 0.023776 0.030000 -0.492275
v 0.023776 0.050000 -0.492275
v -0.317669 0.030000 0.396783
v -0.317669 0.050000 0.396783
v -0.270116 0.030000 0.412234
v -0.270116 0.050000 0.412234
v -0.490223 0.030000 -0.134283
v -0.490223 0.050000 -0.134283
v -0.460834 0.030000 -0.174734
v -0.460834 0.050000 -0.174734
v 0.279198 0.030000 0.424734
v 0.279198 0.050000 0.424734
v 0.308587 0.030000 0.384283
v 0.308587 0.050000 0.384283
v -0.279198 0.030000 0.424734
v -0.279198 0.050000 0.424734
v -0.308587 0.030000 0.384283
v -0.308587 0.050000 0.384283
v 0.490223 0.030000 -0.134283
v 0.490223 0.050000 -0.134283
v 0.460834 0.030000 -0.174734
v 0.460834 0.050000 -0.174734
v 0.317669 0.030000 0.396783
v 0.317669 0.050000 0.396783
v 0.270116 0.030000 0.412234
v 0.270116 0.050000 0.412234
v 0.023776 0.030000 -0.507725
v 0.023776 0.050000 -0.507725
v -0.023776 0.030000 -0.492275
v -0.023776 0.050000 -0.492275
v 0.475528 0.030000 -0.179509
v 0.475528 0.050000 -0.179509
v 0.475528 0.030000 -0.129509
v 0.475528 0.050000 -0.129509
v -0.475528 0.030000 -0.179508
v -0.475528 0.050000 -0.179508
v -0.475528 0.030000 -0.129508
v -0.475528 0.050000 -0.129508
v 0.260000 0.035000 0.020000
v 0.260000 0.055000 0.020000
v 0.260000 0.035000 -0.020000
v 0.260000 0.055000 -0.020000
v 0.340000 0.035000 0.020000
v 0.340000 0.055000 0.020000
v 0.340000 0.035000 -0.020000
v 0.340000 0.055000 -0.020000
v 0.235167 0.035000 -0.112679
v 0.235167 0.055000 -0.112679
v 0.215167 0.035000 -0.147321
v 0.215167 0.055000 -0.147321
v 0.304449 0.035000 -0.152679
v 0.304449 0.055000 -0.152679
v 0.284449 0.035000 -0.187321
v 0.284449 0.055000 -0.187321
v 0.147321 0.035000 -0.215167
v 0.147321 0.055000 -0.215167
v 0.112679 0.035000 -0.235167
v 0.112679 0.055000 -0.235167
v 0.187321 0.035000 -0.284449
v 0.187321 0.055000 -0.284449
v 0.152679 0.035000 -0.304449
v 0.152679 0.055000 -0.304449
v 0.020000 0.035000 -0.260000
v 0.020000 0.055000 -0.260000
v -0.020000 0.035000 -0.260000
v -0.020000 0.055000 -0.260000
v 0.020000 0.035000 -0.340000
v 0.020000 0.055000 -0.340000
v -0.020000 0.035000 -0.340000
v -0.020000 0.055000 -0.340000
v -0.112679 0.035000 -0.235167
v -0.112679 0.055000 -0.235167
v -0.147321 0.035000 -0.215167
v -0.147321 0.055000 -0.215167
v -0.152679 0.035000 -0.304449
v -0.152679 0.055000 -0.304449
v -0.187321 0.035000 -0.284449
v -0.187321 0.055000 -0.284449
v -0.215167 0.035000 -0.147321
v -0.215167 0.055000 -0.147321
v -0.235167 0.035000 -0.112679
v -0.235167 0.055000 -0.112679
v -0.284449 0.035000 -0.187321
v -0.284449 0.055000 -0.187321
v -0.304449 0.035000 -0.152679
v -0.304449 0.055000 -0.152679
v -0.260000 0.035000 -0.020000
v -0.260000 0.055000 -0.020000
v -0.260000 0.035000 0.020000
v -0.260000 0.055000 0.020000
v -0.340000 0.035000 -0.020000
v -0.340000 0.055000 -0.020000
v -0.340000 0.035000 0.020000
v -0.340000 0.055000 0.020000
v -0.235167 0.035000 0.112679
v -0.235167 0.055000 0.112679
v -0.215167 0.035000 0.147321
v -0.215167 0.055000 0.147321
v -0.304449 0.035000 0.152679
v -0.304449 0.055000 0.152679
v -0.284449 0.035000 0.187321
v -0.284449 0.055000 0.187321
v -0.147321 0.035000 0.215167
v -0.147321 0.055000 0.215167
v -0.112679 0.035000 0.235167
v -0.112679 0.055000 0.235167
v -0.187321 0.035000 0.284449
v -0.187321 0.055000 0.284449
v -0.152679 0.035000 0.304449
v -0.152679 0.055000 0.304449
v -0.020000 0.035000 0.260000
v -0.020000 0.055000 0.260000
v 0.020000 0.035000 0.260000
v 0.020000 0.055000 0.260000
v -0.020000 0.035000 0.340000
v -0.020000 0.055000 0.340000
v 0.020000 0.035000 0.340000
v 0.020000 0.055000 0.340000
v 0.112679 0.035000 0.235167
v 0.112679 0.055000 0.235167
v 0.147321 0.035000 0.215167
v 0.147321 0.055000 0.215167
v 0.152679 0.035000 0.304449
v 0.152679 0.055000 0.304449
v 0.187321 0.035000 0.284449
v 0.187321 0.055000 0.284449
v 0.215167 0.035000 0.147320
v 0.215167 0.055000 0.147320
v 0.235167 0.035000 0.112679
v 0.235167 0.055000 0.112679
v 0.284449 0.035000 0.187321
v 0.284449 0.055000 0.187321
v 0.304449 0.035000 0.152680
v 0.304449 0.055000 0.152680
v 0.000000 0.030000 -0.540000
v 0.000000 0.230000 -0.540000
v 0.034641 0.030000 -0.520000
v 0.034641 0.230000 -0.520000
v 0.034641 0.030000 -0.480000
v 0.034641 0.230000 -0.480000
v 0.000000 0.030000 -0.460000
v 0.000000 0.230000 -0.460000
v -0.034641 0.030000 -0.480000
v -0.034641 0.230000 -0.480000
v -0.034641 0.030000 -0.520000
v -0.034641 0.230000 -0.520000
v 0.000000 0.240000 -0.540000
v 0.038042 0.240000 -0.512361
v 0.023511 0.240000 -0.467639
v -0.023511 0.240000 -0.467639
v -0.038042 0.240000 -0.512361
v 0.000000 0.340000 -0.500000
v -0.475528 0.030000 -0.194508
v -0.475528 0.230000 -0.194508
v -0.440887 0.030000 -0.174508
v -0.440887 0.230000 -0.174508
v -0.440887 0.030000 -0.134508
v -0.440887 0.230000 -0.134508
v -0.475528 0.030000 -0.114509
v -0.475528 0.230000 -0.114509
v -0.510169 0.030000 -0.134508
v -0.510169 0.230000 -0.134508
v -0.510169 0.030000 -0.174508
v -0.510169 0.230000 -0.174508
v -0.475528 0.240000 -0.194508
v -0.437486 0.240000 -0.166869
v -0.452017 0.240000 -0.122148
v -0.499040 0.240000 -0.122148
v -0.513571 0.240000 -0.166869
v -0.475528 0.340000 -0.154509
v -0.293893 0.030000 0.364508
v -0.293893 0.230000 0.364508
v -0.259252 0.030000 0.384508
v -0.259252 0.230000 0.384508
v -0.259252 0.030000 0.424508
v -0.259252 0.230000 0.424508
v -0.293893 0.030000 0.444509
v -0.293893 0.230000 0.444509
v -0.328534 0.030000 0.424508
v -0.328534 0.230000 0.424508
v -0.328534 0.030000 0.384508
v -0.328534 0.230000 0.384508
v -0.293893 0.240000 0.364508
v -0.255850 0.240000 0.392148
v -0.270381 0.240000 0.436869
v -0.317404 0.240000 0.436869
v -0.331935 0.240000 0.392148
v -0.293893 0.340000 0.404509
v 0.293893 0.030000 0.364508
v 0.293893 0.230000 0.364508
v 0.328534 0.030000 0.384508
v 0.328534 0.230000 0.384508
v 0.328534 0.030000 0.424508
v 0.328534 0.230000 0.424508
v 0.293893 0.030000 0.444509
v 0.293893 0.230000 0.444509
v 0.259252 0.030000 0.424508
v 0.259252 0.230000 0.424508
v 0.259252 0.030000 0.384508
v 0.259252 0.230000 0.384508
v 0.293893 0.240000 0.364508
v 0.331935 0.240000 0.392148
v 0.317404 0.240000 0.436869
v 0.270381 0.240000 0.436869
v 0.255850 0.240000 0.392148
v 0.293893 0.340000 0.404509
v 0.475528 0.030000 -0.194508
v 0.475528 0.230000 -0.194508
v 0.510169 0.030000 -0.174508
v 0.510169 0.230000 -0.174508
v 0.510169 0.030000 -0.134508
v 0.510169 0.230000 -0.134508
v 0.475528 0.030000 -0.114509
v 0.475528 0.230000 -0.114509
v 0.440887 0.030000 -0.134508
v 0.440887 0.230000 -0.134508
v 0.440887 0.030000 -0.174508
v 0.440887 0.230000 -0.174508
v 0.475528 0.240000 -0.194508
v 0.513571 0.240000 -0.166869
v 0.499040 0.240000 -0.122148
v 0.452017 0.240000 -0.122148
v 0.437486 0.240000 -0.166869
v 0.475528 0.340000 -0.154509
vn -1.0000 -0.0000 -0.0000
vn -0.0000 -0.0000 -1.0000
vn 1.0000 -0.0000 -0.0000
vn -0.0000 -0.0000 1.0000
vn -0.0000 -1.0000 -0.0000
vn -0.0000 1.0000 -0.0000
vn -0.9239 -0.0000 0.3827
vn -0.3827 -0.0000 -0.9239
vn 0.9239 -0.0000 -0.3827
vn 0.3827 -0.0000 0.9239
vn -0.7071 -0.0000 0.7071
vn -0.7071 -0.0000 -0.7071
vn 0.7071 -0.0000 -0.7071
vn 0.7071 -0.0000 0.7071
vn -0.3827 -0.0000 0.9239
vn -0.9239 -0.0000 -0.3827
vn 0.3827 -0.0000 -0.9239
vn 0.9239 -0.0000 0.3827
vn 0.3090 -0.0000 -0.9511
vn 0.9511 -0.0000 0.3090
vn -0.3090 -0.0000 0.9511
vn -0.9511 -0.0000 -0.3090
vn -0.8090 -0.0000 -0.5878
vn 0.5878 -0.0000 -0.8090
vn 0.8090 -0.0000 0.5878
vn -0.5878 -0.0000 0.8090
vn -0.8090 -0.0000 0.5878
vn -0.5878 -0.0000 -0.8090
vn 0.8090 -0.0000 -0.5878
vn 0.5878 -0.0000 0.8090
vn 0.3090 -0.0000 0.9511
vn -0.9511 -0.0000 0.3090
vn -0.3090 -0.0000 -0.9511
vn 0.9511 -0.0000 -0.3090
vn -0.8660 -0.0000 0.5000
vn -0.5000 -0.0000 -0.8660
vn 0.8660 -0.0000 -0.5000
vn 0.5000 -0.0000 0.8660
vn -0.5000 -0.0000 0.8660
vn -0.8660 -0.0000 -0.5000
vn 0.5000 -0.0000 -0.8660
vn 0.8660 -0.0000 0.5000
vn 0.5592 0.3079 -0.7697
vn 0.9049 0.3079 0.2940
vn -0.0000 0.3079 0.9514
vn -0.9049 0.3079 0.2940
vn -0.5592 0.3079 -0.7697
vt 0.375000 0.000000
vt 0.625000 0.000000
vt 0.625000 0.250000
vt 0.375000 0.250000
vt 0.625000 0.500000
vt 0.375000 0.500000
vt 0.625000 0.750000
vt 0.375000 0.750000
vt 0.625000 1.000000
vt 0.375000 1.000000
vt 0.125000 0.500000
vt 0.125000 0.750000
vt 0.875000 0.500000
vt 0.875000 0.750000
vt 1.000000 0.500000
vt 1.000000 1.000000
vt 0.833333 1.000000
vt 0.833333 0.500000
vt 0.666667 1.000000
vt 0.666667 0.500000
vt 0.500000 1.000000
vt 0.500000 0.500000
vt 0.333333 1.000000
vt 0.333333 0.500000
vt 0.457846 0.370000
vt 0.250000 0.490000
vt 0.042154 0.370000
vt 0.042154 0.130000
vt 0.250000 0.010000
vt 0.457846 0.130000
vt 0.166667 1.000000
vt 0.166667 0.500000
vt -0.000000 1.000000
vt -0.000000 0.500000
vt 0.750000 0.490000
vt 0.957846 0.370000
vt 0.957846 0.130000
vt 0.750000 0.010000
vt 0.542154 0.130000
vt 0.542154 0.370000
vt 0.250000 0.250000
vt 0.478254 0.324164
vt 0.391068 0.055836
vt 0.108932 0.055836
vt 0.978254 0.324164
vt 0.891068 0.055836
vt 0.608932 0.055836
vt 0.521746 0.324164
vt 0.021746 0.324164
s 0
usemtl stone_dk
f 1/1/1 2/2/1 4/3/1 3/4/1
f 3/4/2 4/3/2 8/5/2 7/6/2
f 7/6/3 8/5/3 6/7/3 5/8/3
f 5/8/4 6/7/4 2/9/4 1/10/4
f 3/11/5 7/6/5 5/8/5 1/12/5
f 8/5/6 4/13/6 2/14/6 6/7/6
usemtl witchlight
f 9/1/1 10/2/1 12/3/1 11/4/1
f 11/4/2 12/3/2 16/5/2 15/6/2
f 15/6/3 16/5/3 14/7/3 13/8/3
f 13/8/4 14/7/4 10/9/4 9/10/4
f 11/11/5 15/6/5 13/8/5 9/12/5
f 16/5/6 12/13/6 10/14/6 14/7/6
f 17/1/7 18/2/7 20/3/7 19/4/7
f 19/4/8 20/3/8 24/5/8 23/6/8
f 23/6/9 24/5/9 22/7/9 21/8/9
f 21/8/10 22/7/10 18/9/10 17/10/10
f 19/11/5 23/6/5 21/8/5 17/12/5
f 24/5/6 20/13/6 18/14/6 22/7/6
f 25/1/11 26/2/11 28/3/11 27/4/11
f 27/4/12 28/3/12 32/5/12 31/6/12
f 31/6/13 32/5/13 30/7/13 29/8/13
f 29/8/14 30/7/14 26/9/14 25/10/14
f 27/11/5 31/6/5 29/8/5 25/12/5
f 32/5/6 28/13/6 26/14/6 30/7/6
f 33/1/15 34/2/15 36/3/15 35/4/15
f 35/4/16 36/3/16 40/5/16 39/6/16
f 39/6/17 40/5/17 38/7/17 37/8/17
f 37/8/18 38/7/18 34/9/18 33/10/18
f 35/11/5 39/6/5 37/8/5 33/12/5
f 40/5/6 36/13/6 34/14/6 38/7/6
f 41/1/4 42/2/4 44/3/4 43/4/4
f 43/4/1 44/3/1 48/5/1 47/6/1
f 47/6/2 48/5/2 46/7/2 45/8/2
f 45/8/3 46/7/3 42/9/3 41/10/3
f 43/11/5 47/6/5 45/8/5 41/12/5
f 48/5/6 44/13/6 42/14/6 46/7/6
f 49/1/10 50/2/10 52/3/10 51/4/10
f 51/4/7 52/3/7 56/5/7 55/6/7
f 55/6/8 56/5/8 54/7/8 53/8/8
f 53/8/9 54/7/9 50/9/9 49/10/9
f 51/11/5 55/6/5 53/8/5 49/12/5
f 56/5/6 52/13/6 50/14/6 54/7/6
f 57/1/14 58/2/14 60/3/14 59/4/14
f 59/4/11 60/3/11 64/5/11 63/6/11
f 63/6/12 64/5/12 62/7/12 61/8/12
f 61/8/13 62/7/13 58/9/13 57/10/13
f 59/11/5 63/6/5 61/8/5 57/12/5
f 64/5/6 60/13/6 58/14/6 62/7/6
f 65/1/18 66/2/18 68/3/18 67/4/18
f 67/4/15 68/3/15 72/5/15 71/6/15
f 71/6/16 72/5/16 70/7/16 69/8/16
f 69/8/17 70/7/17 66/9/17 65/10/17
f 67/11/5 71/6/5 69/8/5 65/12/5
f 72/5/6 68/13/6 66/14/6 70/7/6
f 73/1/3 74/2/3 76/3/3 75/4/3
f 75/4/4 76/3/4 80/5/4 79/6/4
f 79/6/1 80/5/1 78/7/1 77/8/1
f 77/8/2 78/7/2 74/9/2 73/10/2
f 75/11/5 79/6/5 77/8/5 73/12/5
f 80/5/6 76/13/6 74/14/6 78/7/6
f 81/1/9 82/2/9 84/3/9 83/4/9
f 83/4/10 84/3/10 88/5/10 87/6/10
f 87/6/7 88/5/7 86/7/7 85/8/7
f 85/8/8 86/7/8 82/9/8 81/10/8
f 83/11/5 87/6/5 85/8/5 81/12/5
f 88/5/6 84/13/6 82/14/6 86/7/6
f 89/1/13 90/2/13 92/3/13 91/4/13
f 91/4/14 92/3/14 96/5/14 95/6/14
f 95/6/11 96/5/11 94/7/11 93/8/11
f 93/8/12 94/7/12 90/9/12 89/10/12
f 91/11/5 95/6/5 93/8/5 89/12/5
f 96/5/6 92/13/6 90/14/6 94/7/6
f 97/1/17 98/2/17 100/3/17 99/4/17
f 99/4/18 100/3/18 104/5/18 103/6/18
f 103/6/15 104/5/15 102/7/15 101/8/15
f 101/8/16 102/7/16 98/9/16 97/10/16
f 99/11/5 103/6/5 101/8/5 97/12/5
f 104/5/6 100/13/6 98/14/6 102/7/6
f 105/1/2 106/2/2 108/3/2 107/4/2
f 107/4/3 108/3/3 112/5/3 111/6/3
f 111/6/4 112/5/4 110/7/4 109/8/4
f 109/8/1 110/7/1 106/9/1 105/10/1
f 107/11/5 111/6/5 109/8/5 105/12/5
f 112/5/6 108/13/6 106/14/6 110/7/6
f 113/1/8 114/2/8 116/3/8 115/4/8
f 115/4/9 116/3/9 120/5/9 119/6/9
f 119/6/10 120/5/10 118/7/10 117/8/10
f 117/8/7 118/7/7 114/9/7 113/10/7
f 115/11/5 119/6/5 117/8/5 113/12/5
f 120/5/6 116/13/6 114/14/6 118/7/6
f 121/1/12 122/2/12 124/3/12 123/4/12
f 123/4/13 124/3/13 128/5/13 127/6/13
f 127/6/14 128/5/14 126/7/14 125/8/14
f 125/8/11 126/7/11 122/9/11 121/10/11
f 123/11/5 127/6/5 125/8/5 121/12/5
f 128/5/6 124/13/6 122/14/6 126/7/6
f 129/1/16 130/2/16 132/3/16 131/4/16
f 131/4/17 132/3/17 136/5/17 135/6/17
f 135/6/18 136/5/18 134/7/18 133/8/18
f 133/8/15 134/7/15 130/9/15 129/10/15
f 131/11/5 135/6/5 133/8/5 129/12/5
f 136/5/6 132/13/6 130/14/6 134/7/6
usemtl rune
f 137/1/19 138/2/19 140/3/19 139/4/19
f 139/4/20 140/3/20 144/5/20 143/6/20
f 143/6/21 144/5/21 142/7/21 141/8/21
f 141/8/22 142/7/22 138/9/22 137/10/22
f 139/11/5 143/6/5 141/8/5 137/12/5
f 144/5/6 140/13/6 138/14/6 142/7/6
f 145/1/23 146/2/23 148/3/23 147/4/23
f 147/4/24 148/3/24 152/5/24 151/6/24
f 151/6/25 152/5/25 150/7/25 149/8/25
f 149/8/26 150/7/26 146/9/26 145/10/26
f 147/11/5 151/6/5 149/8/5 145/12/5
f 152/5/6 148/13/6 146/14/6 150/7/6
f 153/1/27 154/2/27 156/3/27 155/4/27
f 155/4/28 156/3/28 160/5/28 159/6/28
f 159/6/29 160/5/29 158/7/29 157/8/29
f 157/8/30 158/7/30 154/9/30 153/10/30
f 155/11/5 159/6/5 157/8/5 153/12/5
f 160/5/6 156/13/6 154/14/6 158/7/6
f 161/1/31 162/2/31 164/3/31 163/4/31
f 163/4/32 164/3/32 168/5/32 167/6/32
f 167/6/33 168/5/33 166/7/33 165/8/33
f 165/8/34 166/7/34 162/9/34 161/10/34
f 163/11/5 167/6/5 165/8/5 161/12/5
f 168/5/6 164/13/6 162/14/6 166/7/6
f 169/1/3 170/2/3 172/3/3 171/4/3
f 171/4/4 172/3/4 176/5/4 175/6/4
f 175/6/1 176/5/1 174/7/1 173/8/1
f 173/8/2 174/7/2 170/9/2 169/10/2
f 171/11/5 175/6/5 173/8/5 169/12/5
f 176/5/6 172/13/6 170/14/6 174/7/6
usemtl ghostfire
f 177/1/1 178/2/1 180/3/1 179/4/1
f 179/4/2 180/3/2 184/5/2 183/6/2
f 183/6/3 184/5/3 182/7/3 181/8/3
f 181/8/4 182/7/4 178/9/4 177/10/4
f 179/11/5 183/6/5 181/8/5 177/12/5
f 184/5/6 180/13/6 178/14/6 182/7/6
f 185/1/35 186/2/35 188/3/35 187/4/35
f 187/4/36 188/3/36 192/5/36 191/6/36
f 191/6/37 192/5/37 190/7/37 189/8/37
f 189/8/38 190/7/38 186/9/38 185/10/38
f 187/11/5 191/6/5 189/8/5 185/12/5
f 192/5/6 188/13/6 186/14/6 190/7/6
f 193/1/39 194/2/39 196/3/39 195/4/39
f 195/4/40 196/3/40 200/5/40 199/6/40
f 199/6/41 200/5/41 198/7/41 197/8/41
f 197/8/42 198/7/42 194/9/42 193/10/42
f 195/11/5 199/6/5 197/8/5 193/12/5
f 200/5/6 196/13/6 194/14/6 198/7/6
f 201/1/4 202/2/4 204/3/4 203/4/4
f 203/4/1 204/3/1 208/5/1 207/6/1
f 207/6/2 208/5/2 206/7/2 205/8/2
f 205/8/3 206/7/3 202/9/3 201/10/3
f 203/11/5 207/6/5 205/8/5 201/12/5
f 208/5/6 204/13/6 202/14/6 206/7/6
f 209/1/38 210/2/38 212/3/38 211/4/38
f 211/4/35 212/3/35 216/5/35 215/6/35
f 215/6/36 216/5/36 214/7/36 213/8/36
f 213/8/37 214/7/37 210/9/37 209/10/37
f 211/11/5 215/6/5 213/8/5 209/12/5
f 216/5/6 212/13/6 210/14/6 214/7/6
f 217/1/42 218/2/42 220/3/42 219/4/42
f 219/4/39 220/3/39 224/5/39 223/6/39
f 223/6/40 224/5/40 222/7/40 221/8/40
f 221/8/41 222/7/41 218/9/41 217/10/41
f 219/11/5 223/6/5 221/8/5 217/12/5
f 224/5/6 220/13/6 218/14/6 222/7/6
f 225/1/3 226/2/3 228/3/3 227/4/3
f 227/4/4 228/3/4 232/5/4 231/6/4
f 231/6/1 232/5/1 230/7/1 229/8/1
f 229/8/2 230/7/2 226/9/2 225/10/2
f 227/11/5 231/6/5 229/8/5 225/12/5
f 232/5/6 228/13/6 226/14/6 230/7/6
f 233/1/37 234/2/37 236/3/37 235/4/37
f 235/4/38 236/3/38 240/5/38 239/6/38
f 239/6/35 240/5/35 238/7/35 237/8/35
f 237/8/36 238/7/36 234/9/36 233/10/36
f 235/11/5 239/6/5 237/8/5 233/12/5
f 240/5/6 236/13/6 234/14/6 238/7/6
f 241/1/41 242/2/41 244/3/41 243/4/41
f 243/4/42 244/3/42 248/5/42 247/6/42
f 247/6/39 248/5/39 246/7/39 245/8/39
f 245/8/40 246/7/40 242/9/40 241/10/40
f 243/11/5 247/6/5 245/8/5 241/12/5
f 248/5/6 244/13/6 242/14/6 246/7/6
f 249/1/2 250/2/2 252/3/2 251/4/2
f 251/4/3 252/3/3 256/5/3 255/6/3
f 255/6/4 256/5/4 254/7/4 253/8/4
f 253/8/1 254/7/1 250/9/1 249/10/1
f 251/11/5 255/6/5 253/8/5 249/12/5
f 256/5/6 252/13/6 250/14/6 254/7/6
f 257/1/36 258/2/36 260/3/36 259/4/36
f 259/4/37 260/3/37 264/5/37 263/6/37
f 263/6/38 264/5/38 262/7/38 261/8/38
f 261/8/35 262/7/35 258/9/35 257/10/35
f 259/11/5 263/6/5 261/8/5 257/12/5
f 264/5/6 260/13/6 258/14/6 262/7/6
f 265/1/40 266/2/40 268/3/40 267/4/40
f 267/4/41 268/3/41 272/5/41 271/6/41
f 271/6/42 272/5/42 270/7/42 269/8/42
f 269/8/39 270/7/39 266/9/39 265/10/39
f 267/11/5 271/6/5 269/8/5 265/12/5
f 272/5/6 268/13/6 266/14/6 270/7/6
usemtl bone
f 273/15/41 274/16/41 276/17/41 275/18/41
f 275/18/3 276/17/3 278/19/3 277/20/3
f 277/20/38 278/19/38 280/21/38 279/22/38
f 279/22/39 280/21/39 282/23/39 281/24/39
f 276/25/6 274/26/6 284/27/6 282/28/6 280/29/6 278/30/6
f 281/24/1 282/23/1 284/31/1 283/32/1
f 283/32/36 284/31/36 274/33/36 273/34/36
f 273/35/5 275/36/5 277/37/5 279/38/5 281/39/5 283/40/5
f 291/15/41 292/16/41 294/17/41 293/18/41
f 293/18/3 294/17/3 296/19/3 295/20/3
f 295/20/38 296/19/38 298/21/38 297/22/38
f 297/22/39 298/21/39 300/23/39 299/24/39
f 294/25/6 292/26/6 302/27/6 300/28/6 298/29/6 296/30/6
f 299/24/1 300/23/1 302/31/1 301/32/1
f 301/32/36 302/31/36 292/33/36 291/34/36
f 291/35/5 293/36/5 295/37/5 297/38/5 299/39/5 301/40/5
f 309/15/41 310/16/41 312/17/41 311/18/41
f 311/18/3 312/17/3 314/19/3 313/20/3
f 313/20/38 314/19/38 316/21/38 315/22/38
f 315/22/39 316/21/39 318/23/39 317/24/39
f 312/25/6 310/26/6 320/27/6 318/28/6 316/29/6 314/30/6
f 317/24/1 318/23/1 320/31/1 319/32/1
f 319/32/36 320/31/36 310/33/36 309/34/36
f 309/35/5 311/36/5 313/37/5 315/38/5 317/39/5 319/40/5
f 327/15/41 328/16/41 330/17/41 329/18/41
f 329/18/3 330/17/3 332/19/3 331/20/3
f 331/20/38 332/19/38 334/21/38 333/22/38
f 333/22/39 334/21/39 336/23/39 335/24/39
f 330/25/6 328/26/6 338/27/6 336/28/6 334/29/6 332/30/6
f 335/24/1 336/23/1 338/31/1 337/32/1
f 337/32/36 338/31/36 328/33/36 327/34/36
f 327/35/5 329/36/5 331/37/5 333/38/5 335/39/5 337/40/5
f 345/15/41 346/16/41 348/17/41 347/18/41
f 347/18/3 348/17/3 350/19/3 349/20/3
f 349/20/38 350/19/38 352/21/38 351/22/38
f 351/22/39 352/21/39 354/23/39 353/24/39
f 348/25/6 346/26/6 356/27/6 354/28/6 352/29/6 350/30/6
f 353/24/1 354/23/1 356/31/1 355/32/1
f 355/32/36 356/31/36 346/33/36 345/34/36
f 345/35/5 347/36/5 349/37/5 351/38/5 353/39/5 355/40/5
usemtl ember
f 285/26/43 290/41/43 286/42/43
f 286/42/44 290/41/44 287/43/44
f 287/43/45 290/41/45 288/44/45
f 285/35/5 286/45/5 287/46/5 288/47/5 289/48/5
f 288/44/46 290/41/46 289/49/46
f 289/49/47 290/41/47 285/26/47
f 303/26/43 308/41/43 304/42/43
f 304/42/44 308/41/44 305/43/44
f 305/43/45 308/41/45 306/44/45
f 303/35/5 304/45/5 305/46/5 306/47/5 307/48/5
f 306/44/46 308/41/46 307/49/46
f 307/49/47 308/41/47 303/26/47
f 321/26/43 326/41/43 322/42/43
f 322/42/44 326/41/44 323/43/44
f 323/43/45 326/41/45 324/44/45
f 321/35/5 322/45/5 323/46/5 324/47/5 325/48/5
f 324/44/46 326/41/46 325/49/46
f 325/49/47 326/41/47 321/26/47
f 339/26/43 344/41/43 340/42/43
f 340/42/44 344/41/44 341/43/44
f 341/43/45 344/41/45 342/44/45
f 339/35/5 340/45/5 341/46/5 342/47/5 343/48/5
f 342/44/46 344/41/46 343/49/46
f 343/49/47 344/41/47 339/26/47
f 357/26/43 362/41/43 358/42/43
f 358/42/44 362/41/44 359/43/44
f 359/43/45 362/41/45 360/44/45
f 357/35/5 358/45/5 359/46/5 360/47/5 361/48/5
f 360/44/46 362/41/46 361/49/46
f 361/49/47 362/41/47 357/26/47
